version 1
nodes
0 "blender_implicit" -1
1 "Skel0" -1
2 "Skel1" 1
3 "Skel2" 2
4 "Skel3" 3
5 "Skel4" 4
6 "Skel5" 5
7 "Skel6" 6
8 "Skel7" 7
9 "Skel8" 8
10 "Skel9" 9
11 "Skel10" 10
12 "Skel11" 11
13 "Skel12" 12
14 "Skel13" 10
15 "Skel14" 14
16 "Skel15" 15
17 "Skel16" 16
18 "Skel17" 17
19 "Skel18" 18
20 "Skel19" 19
21 "Skel20" 20
22 "Skel21" 19
23 "Skel22" 22
24 "Skel23" 19
25 "Skel24" 24
26 "Skel25" 10
27 "Skel26" 26
28 "Skel27" 27
29 "Skel28" 28
30 "Skel29" 29
31 "Skel30" 30
32 "Skel31" 31
33 "Skel32" 32
34 "Skel33" 31
35 "Skel34" 34
36 "Skel35" 31
37 "Skel36" 36
38 "Skel37" 5
39 "Skel38" 38
40 "Skel39" 39
41 "Skel40" 40
end
skeleton
time 0
0  0 0 0  0 0 0
1  0.000000 0.000010 0.000000  -1.570796 -0.000000 0.000000
2  0.000000 0.000000 0.000000  0.000000 -0.000000 0.000000
3  0.000000 0.000000 0.000000  0.000000 -0.000000 0.000000
4  0.006445 -0.000000 0.753335  0.000000 -0.000000 0.000000
5  -0.006324 -0.036973 -0.002554  -0.049750 0.008181 -0.000020
6  -0.000000 -0.000000 0.000000  0.000000 -0.000000 0.000000
7  -0.000000 -0.000000 0.000000  -0.081452 -0.232652 0.000052
8  0.002937 -0.000000 0.194891  -0.000000 -0.000000 0.000000
9  0.003500 0.000000 0.083408  -0.000000 -0.000000 0.000000
10  -0.012239 0.000000 0.122389  -0.000000 -0.000000 0.000000
11  0.000267 0.000000 0.055138  -0.000000 -0.000000 0.000000
12  0.003234 0.000000 0.052281  -0.000000 -0.000000 0.000000
13  -0.001319 0.000000 0.060214  0.096714 0.157086 0.000017
14  -0.039876 0.060989 0.002159  -0.347841 0.242601 0.056790
15  0.043265 0.077505 0.036874  0.000000 -0.000000 0.000000
16  0.000000 0.000000 0.000000  -0.590268 0.291666 -0.091614
17  0.020260 0.201079 -0.017731  0.001477 -0.014596 -0.231635
18  0.010537 0.100376 -0.010148  0.003375 0.034545 -0.003297
19  0.018646 0.186860 -0.018292  -0.015449 0.001605 -0.000215
20  -0.032088 0.200172 -0.061335  -0.077924 0.046850 -0.004304
21  0.009278 0.058322 -0.044375  -0.119717 0.041303 -0.009838
22  0.069086 0.193199 -0.059144  -0.078054 0.039871 -0.003684
23  0.008560 0.057628 -0.044090  -0.119765 0.038606 -0.009259
24  0.102185 0.077529 -0.031768  0.000408 0.131041 -0.090198
25  0.038420 0.022931 -0.000959  -0.024715 0.133491 0.360872
26  -0.039647 -0.056266 0.002069  0.408289 0.164281 -0.041071
27  0.042761 -0.082398 0.038132  -0.000000 -0.000000 -0.000000
28  -0.000000 -0.000000 -0.000000  0.711133 -0.137015 -0.777200
29  0.020122 -0.201078 -0.017893  -0.000935 -0.011333 0.196730
30  0.010469 -0.100374 -0.010235  0.003285 -0.034522 -0.003441
31  0.018520 -0.186856 -0.018450  0.021477 0.002131 0.000298
32  -0.032222 -0.200100 -0.061496  -0.006144 0.040671 -0.000322
33  0.009310 -0.057389 -0.045571  0.135028 0.026002 0.009765
34  0.068956 -0.193197 -0.059302  -0.006160 0.040548 -0.000330
35  0.008683 -0.056712 -0.045241  0.135029 0.025425 0.009563
36  0.102133 -0.077572 -0.031830  0.000018 0.198946 0.025528
37  0.034314 -0.028672 -0.001806  0.029545 0.073997 -0.202702
38  0.001143 0.000000 -0.181958  0.084719 0.127370 0.009385
39  0.004961 -0.000269 -0.096018  0.050537 -0.100145 -0.013231
40  -0.011623 0.003704 -0.088948  0.048660 0.056124 -0.000344
41  -0.007644 0.000000 -0.210641  -0.089570 -0.062302 0.000592
time 1
0  0 0 0  0 0 0
1  0.000000 0.000010 0.000000  -1.570796 -0.000000 0.000000
2  0.000000 0.000000 0.000000  0.000000 -0.000000 0.000000
3  0.000000 0.000000 0.000000  0.000000 -0.000000 0.000000
4  0.006445 -0.000000 0.753335  0.000000 -0.000000 0.000000
5  -0.006324 0.000584 -0.249081  0.000781 0.062298 -0.000049
6  -0.000000 -0.000000 0.000000  -0.000000 -0.000000 0.000000
7  -0.000000 -0.000000 0.000000  0.001247 0.658019 -0.000052
8  0.002937 -0.000000 0.194891  -0.000000 0.271837 0.000000
9  0.003500 0.000000 0.083408  -0.000000 -0.424822 0.000000
10  -0.012239 -0.000000 0.122389  -0.000000 0.025502 0.000000
11  0.000267 0.000000 0.055138  0.000000 -1.125674 0.000000
12  0.003234 -0.000000 0.052281  0.000000 0.438920 -0.000000
13  -0.001319 -0.000000 0.060214  -0.001563 -0.883386 0.000051
14  -0.039876 0.060989 0.002159  -0.744492 -0.483236 0.130013
15  0.043265 0.077505 0.036874  0.000000 -0.000000 0.000000
16  -0.000000 0.000000 0.000000  -0.533058 0.068344 -0.730328
17  0.020259 0.201078 -0.017731  -0.000000 0.007901 -0.000038
18  0.010537 0.100376 -0.010148  0.003375 0.034545 -0.003297
19  0.018646 0.186860 -0.018292  -0.015449 0.001605 -0.000215
20  -0.032088 0.200172 -0.061335  -0.077924 0.046850 -0.004304
21  0.009278 0.058322 -0.044375  -0.119717 0.041303 -0.009838
22  0.069086 0.193199 -0.059144  -0.078054 0.039872 -0.003684
23  0.008560 0.057628 -0.044090  -0.119765 0.038606 -0.009259
24  0.102185 0.077529 -0.031768  0.000408 0.131041 -0.090199
25  0.038420 0.022931 -0.000959  -0.024715 0.133491 0.360872
26  -0.039647 -0.056266 0.002069  0.739287 -0.475254 -0.130865
27  0.042761 -0.082398 0.038132  0.000000 -0.000000 0.000000
28  0.000000 -0.000000 -0.000000  0.386953 0.158852 1.140933
29  0.020122 -0.201078 -0.017893  0.000000 0.007969 0.000038
30  0.010469 -0.100374 -0.010235  0.003285 -0.034522 -0.003441
31  0.018520 -0.186856 -0.018449  -0.671309 -0.066026 0.013939
32  -0.032222 -0.200100 -0.061496  -0.006144 0.040671 -0.000322
33  0.009310 -0.057389 -0.045571  0.135028 0.026002 0.009765
34  0.068956 -0.193197 -0.059302  -0.006160 0.040548 -0.000330
35  0.008683 -0.056712 -0.045241  0.135029 0.025425 0.009563
36  0.102133 -0.077572 -0.031829  0.000018 0.198946 0.025529
37  0.034314 -0.028672 -0.001806  0.029545 0.073997 -0.202702
38  0.001143 0.000000 -0.181958  0.420253 -0.349681 -0.052814
39  0.004961 -0.000269 -0.096018  -0.414802 -0.565513 0.145970
40  -0.011623 0.003704 -0.088948  0.146056 -0.717037 -0.059308
41  -0.007644 0.000000 -0.210641  0.083631 -0.436773 -0.006756
time 2
0  0 0 0  0 0 0
1  0.000000 0.000010 0.000000  -1.570796 -0.000000 0.000000
2  0.000000 0.000000 0.000000  0.000000 -0.000000 0.000000
3  0.000000 0.000000 0.000000  0.000000 -0.000000 0.000000
4  0.006445 -0.000000 0.753335  0.000000 -0.000000 0.000000
5  -0.006324 0.003503 -0.556298  0.004721 0.352527 -0.000081
6  0.000000 0.000000 -0.000000  -0.000000 -0.000000 0.000000
7  -0.000000 0.000000 -0.000000  0.007746 0.755986 -0.000011
8  0.002937 0.000000 0.194891  0.000000 0.321063 0.000000
9  0.003500 0.000000 0.083408  0.000000 -0.324279 0.000000
10  -0.012239 -0.000000 0.122389  -0.000000 0.064626 0.000000
11  0.000267 -0.000000 0.055138  0.000000 -1.107488 0.000000
12  0.003234 -0.000000 0.052281  0.000000 0.465768 -0.000000
13  -0.001319 -0.000000 0.060214  -0.009305 -0.795177 0.000080
14  -0.039876 0.060989 0.002159  -1.283246 -0.944403 0.512711
15  0.043265 0.077505 0.036874  0.000000 -0.000000 -0.000000
16  -0.000000 0.000000 0.000000  -0.502085 0.336450 -0.537311
17  0.020260 0.201078 -0.017731  -0.000104 0.001064 -0.070130
18  0.010537 0.100376 -0.010148  0.003374 0.034545 -0.003297
19  0.018646 0.186860 -0.018292  -0.015449 0.001605 -0.000215
20  -0.032088 0.200172 -0.061335  -0.077925 0.046850 -0.004304
21  0.009278 0.058322 -0.044375  -0.119717 0.041303 -0.009838
22  0.069086 0.193199 -0.059144  -0.078054 0.039871 -0.003684
23  0.008560 0.057628 -0.044090  -0.119765 0.038606 -0.009259
24  0.102185 0.077529 -0.031768  0.000408 0.131041 -0.090198
25  0.038420 0.022931 -0.000959  -0.024715 0.133491 0.360872
26  -0.039647 -0.056266 0.002069  1.234371 -0.929394 -0.491312
27  0.042760 -0.082398 0.038132  0.000000 0.000000 0.000000
28  0.000000 -0.000000 0.000000  -1.764826 1.829570 -0.636727
29  0.020122 -0.201078 -0.017893  -0.004011 -0.025161 0.340861
30  0.010469 -0.100374 -0.010235  0.003285 -0.034522 -0.003441
31  0.018520 -0.186856 -0.018450  -0.843025 -0.080205 0.024283
32  -0.032222 -0.200101 -0.061496  -0.006144 0.040671 -0.000322
33  0.009310 -0.057389 -0.045571  0.135028 0.026002 0.009765
34  0.068956 -0.193197 -0.059302  -0.006160 0.040548 -0.000330
35  0.008683 -0.056712 -0.045241  0.135029 0.025425 0.009563
36  0.102133 -0.077572 -0.031829  0.000018 0.198946 0.025529
37  0.034314 -0.028672 -0.001806  0.029545 0.073997 -0.202702
38  0.001143 0.000000 -0.181958  0.459949 -0.414908 -0.073953
39  0.004961 -0.000269 -0.096018  -0.455811 -0.547547 0.159687
40  -0.011623 0.003704 -0.088948  0.166420 -0.716668 -0.067548
41  -0.007644 0.000000 -0.210641  0.083442 -0.373710 -0.005265
time 3
0  0 0 0  0 0 0
1  0.000000 0.000010 0.000000  -1.570796 -0.000000 0.000000
2  0.000000 0.000000 0.000000  0.000000 -0.000000 0.000000
3  0.000000 0.000000 0.000000  0.000000 -0.000000 0.000000
4  0.006445 -0.000000 0.753335  0.000000 -0.000000 0.000000
5  -0.006324 0.004670 -0.626716  0.006357 0.951666 0.000000
6  0.000000 -0.000000 -0.000000  0.000000 -0.000000 0.000000
7  0.000000 -0.000000 -0.000000  0.010406 0.815638 0.000014
8  0.002937 0.000000 0.194891  -0.000000 0.360856 0.000000
9  0.003500 0.000000 0.083408  -0.000000 -0.187988 0.000000
10  -0.012239 0.000000 0.122389  -0.000000 0.106929 -0.000000
11  0.000267 0.000000 0.055137  0.000000 -1.024077 -0.000000
12  0.003234 -0.000000 0.052281  0.000000 0.471195 -0.000000
13  -0.001319 -0.000000 0.060214  -0.012414 -0.638213 0.000036
14  -0.039876 0.060989 0.002159  0.221433 -2.290339 -1.210326
15  0.043265 0.077505 0.036874  0.000000 -0.000000 -0.000000
16  0.000000 0.000000 0.000000  0.591665 1.310414 0.585880
17  0.020260 0.201078 -0.017731  0.015650 -0.050161 -0.627069
18  0.010537 0.100376 -0.010148  0.003375 0.034545 -0.003297
19  0.018646 0.186860 -0.018292  -0.015449 0.001605 -0.000215
20  -0.032088 0.200172 -0.061335  -0.077925 0.046850 -0.004304
21  0.009278 0.058322 -0.044375  -0.119717 0.041303 -0.009838
22  0.069086 0.193199 -0.059144  -0.078054 0.039871 -0.003684
23  0.008560 0.057628 -0.044090  -0.119765 0.038606 -0.009259
24  0.102185 0.077529 -0.031768  0.000408 0.131041 -0.090199
25  0.038420 0.022931 -0.000959  -0.024715 0.133491 0.360872
26  -0.039647 -0.056266 0.002069  -0.308644 -2.242851 1.237274
27  0.042761 -0.082398 0.038132  -0.000000 -0.000000 0.000000
28  0.000000 -0.000000 0.000000  0.165443 1.427279 0.823728
29  0.020122 -0.201078 -0.017893  -0.040417 -0.076430 0.992967
30  0.010469 -0.100374 -0.010235  0.003285 -0.034522 -0.003441
31  0.018520 -0.186856 -0.018450  -0.932400 -0.086814 0.030584
32  -0.032222 -0.200101 -0.061496  -0.006144 0.040671 -0.000322
33  0.009310 -0.057389 -0.045571  0.135028 0.026002 0.009765
34  0.068956 -0.193197 -0.059302  -0.006160 0.040548 -0.000330
35  0.008683 -0.056712 -0.045241  0.135029 0.025425 0.009563
36  0.102133 -0.077572 -0.031829  0.000018 0.198946 0.025528
37  0.034314 -0.028672 -0.001806  0.029545 0.073997 -0.202702
38  0.001143 0.000000 -0.181958  0.490156 -0.482663 -0.097011
39  0.004961 -0.000269 -0.096018  -0.477037 -0.470308 0.153400
40  -0.011623 0.003704 -0.088948  0.183505 -0.764105 -0.079371
41  -0.007644 0.000000 -0.210641  0.074828 -0.321170 -0.002993
time 4
0  0 0 0  0 0 0
1  0.000000 0.000010 0.000000  -1.570796 -0.000000 0.000000
2  0.000000 0.000000 0.000000  0.000000 -0.000000 0.000000
3  0.000000 0.000000 0.000000  0.000000 -0.000000 0.000000
4  0.006445 -0.000000 0.753335  0.000000 -0.000000 0.000000
5  -0.006324 0.004573 -0.626716  0.006018 1.769209 -0.000206
6  0.000000 0.000000 -0.000000  -0.000000 -0.000000 0.000000
7  -0.000000 0.000000 -0.000000  0.010230 0.845671 0.000065
8  0.002937 0.000000 0.194891  0.000000 0.392689 0.000000
9  0.003500 0.000000 0.083408  0.000000 -0.029480 -0.000000
10  -0.012239 0.000000 0.122389  -0.000000 0.150428 -0.000000
11  0.000267 0.000000 0.055138  0.000000 -0.895409 0.000000
12  0.003234 0.000000 0.052281  0.000000 0.460855 0.000000
13  -0.001319 -0.000000 0.060214  -0.012090 -0.435483 0.000023
14  -0.039876 0.060989 0.002159  -0.649517 2.705832 -0.925097
15  0.043265 0.077505 0.036874  0.000000 -0.000000 0.000000
16  0.000000 -0.000000 -0.000000  -0.917994 2.532629 -0.860534
17  0.020260 0.201078 -0.017731  0.046452 -0.080055 -1.072204
18  0.010537 0.100376 -0.010148  0.003375 0.034545 -0.003297
19  0.018646 0.186860 -0.018292  -0.015449 0.001605 -0.000215
20  -0.032087 0.200172 -0.061335  -0.077924 0.046850 -0.004304
21  0.009278 0.058322 -0.044375  -0.119717 0.041303 -0.009838
22  0.069086 0.193200 -0.059144  -0.078054 0.039872 -0.003684
23  0.008560 0.057628 -0.044090  -0.119765 0.038606 -0.009259
24  0.102185 0.077529 -0.031768  0.000408 0.131041 -0.090199
25  0.038420 0.022931 -0.000959  -0.024715 0.133491 0.360872
26  -0.039647 -0.056266 0.002069  0.559165 2.774024 0.851741
27  0.042761 -0.082398 0.038132  0.000000 -0.000000 0.000000
28  -0.000000 0.000000 0.000000  1.034368 1.491266 1.024383
29  0.020122 -0.201078 -0.017893  -0.034086 -0.071438 0.910692
30  0.010469 -0.100374 -0.010235  0.003285 -0.034521 -0.003441
31  0.018520 -0.186856 -0.018449  -0.938381 -0.087258 0.031035
32  -0.032222 -0.200100 -0.061496  -0.006144 0.040671 -0.000322
33  0.009310 -0.057389 -0.045571  0.135028 0.026002 0.009765
34  0.068956 -0.193197 -0.059302  -0.006160 0.040548 -0.000330
35  0.008683 -0.056712 -0.045241  0.135029 0.025425 0.009563
36  0.102133 -0.077572 -0.031829  0.000018 0.198946 0.025528
37  0.034314 -0.028672 -0.001806  0.029545 0.073997 -0.202702
38  0.001143 0.000000 -0.181958  0.492602 -0.449483 -0.088647
39  0.004961 -0.000269 -0.096018  -0.499856 -0.542236 0.176641
40  -0.011623 0.003704 -0.088948  0.197920 -0.734952 -0.082394
41  -0.007644 0.000000 -0.210641  0.071238 -0.277182 -0.001801
time 5
0  0 0 0  0 0 0
1  0.000000 0.000010 0.000000  -1.570796 -0.000000 0.000000
2  0.000000 0.000000 0.000000  0.000000 -0.000000 0.000000
3  0.000000 0.000000 0.000000  0.000000 -0.000000 0.000000
4  0.006445 -0.000000 0.753335  0.000000 -0.000000 0.000000
5  -0.006324 0.003649 -0.626716  0.004874 2.711451 0.000003
6  0.000000 -0.000000 -0.000000  -0.000000 -0.000000 -0.000000
7  0.000000 -0.000000 -0.000000  0.007988 0.854644 0.000016
8  0.002937 0.000000 0.194891  0.000000 0.417894 -0.000000
9  0.003500 0.000000 0.083408  -0.000000 0.137684 0.000000
10  -0.012239 -0.000000 0.122389  -0.000000 0.192930 -0.000000
11  0.000267 0.000000 0.055138  -0.000000 -0.741438 0.000000
12  0.003234 0.000000 0.052281  -0.000000 0.440317 0.000000
13  -0.001319 0.000000 0.060214  -0.009515 -0.210045 0.000021
14  -0.039876 0.060989 0.002159  1.891344 0.992658 1.818886
15  0.043265 0.077505 0.036874  -0.000000 -0.000000 0.000000
16  -0.000000 0.000000 -0.000000  -0.796013 -2.871358 -0.499236
17  0.020260 0.201078 -0.017731  0.055470 -0.084920 -1.177734
18  0.010537 0.100376 -0.010148  0.003375 0.034545 -0.003297
19  0.018646 0.186860 -0.018292  -0.015449 0.001605 -0.000215
20  -0.032087 0.200172 -0.061335  -0.077924 0.046850 -0.004304
21  0.009278 0.058322 -0.044375  -0.119717 0.041303 -0.009838
22  0.069086 0.193199 -0.059144  -0.078054 0.039871 -0.003684
23  0.008560 0.057628 -0.044090  -0.119765 0.038606 -0.009259
24  0.102185 0.077529 -0.031768  0.000408 0.131041 -0.090198
25  0.038420 0.022931 -0.000959  -0.024715 0.133491 0.360872
26  -0.039647 -0.056266 0.002069  1.104827 2.151850 1.179924
27  0.042761 -0.082398 0.038132  0.000000 -0.000000 0.000000
28  -0.000000 0.000000 0.000000  0.973400 2.514717 0.424365
29  0.020122 -0.201078 -0.017893  -0.047192 -0.080915 1.075908
30  0.010469 -0.100374 -0.010235  0.003285 -0.034522 -0.003441
31  0.018520 -0.186856 -0.018450  -0.799526 -0.076819 0.021445
32  -0.032222 -0.200100 -0.061496  -0.006144 0.040671 -0.000322
33  0.009310 -0.057389 -0.045571  0.135028 0.026002 0.009765
34  0.068956 -0.193197 -0.059302  -0.006160 0.040548 -0.000330
35  0.008683 -0.056712 -0.045241  0.135029 0.025425 0.009563
36  0.102133 -0.077572 -0.031830  0.000018 0.198946 0.025529
37  0.034314 -0.028672 -0.001806  0.029545 0.073997 -0.202702
38  0.001143 0.000000 -0.181958  0.468020 -0.343697 -0.057627
39  0.004961 -0.000269 -0.096018  -0.509180 -0.708735 0.216075
40  -0.011623 0.003704 -0.088948  0.196645 -0.661364 -0.073920
41  -0.007644 0.000000 -0.210641  0.070660 -0.238346 -0.001145
time 6
0  0 0 0  0 0 0
1  0.000000 0.000010 0.000000  -1.570796 -0.000000 0.000000
2  0.000000 0.000000 0.000000  0.000000 -0.000000 0.000000
3  0.000000 0.000000 0.000000  0.000000 -0.000000 0.000000
4  0.006445 -0.000000 0.753335  0.000000 -0.000000 0.000000
5  -0.006445 0.001281 -0.626740  0.003052 -2.600714 -0.000141
6  -0.000000 0.000000 -0.000000  -0.000000 0.000000 0.000000
7  -0.000000 -0.000000 -0.000000  0.004934 0.850661 0.000064
8  0.002937 0.000000 0.194891  0.000000 0.437420 -0.000000
9  0.003500 0.000000 0.083408  0.000000 0.297513 0.000000
10  -0.012239 -0.000000 0.122389  0.000000 0.231750 0.000000
11  0.000267 -0.000000 0.055138  -0.000000 -0.584193 -0.000000
12  0.003234 0.000000 0.052281  0.000000 0.415363 -0.000000
13  -0.001319 -0.000000 0.060214  -0.005790 0.011787 -0.000034
14  -0.039876 0.060989 0.002159  -0.081768 0.658067 0.163622
15  0.043265 0.077505 0.036874  -0.000000 0.000000 -0.000000
16  -0.000000 0.000000 0.000000  -1.316101 -1.889506 0.319818
17  0.020260 0.201078 -0.017731  0.068769 -0.090057 -1.324660
18  0.010537 0.100376 -0.010148  0.003375 0.034545 -0.003297
19  0.018646 0.186860 -0.018292  -0.015449 0.001605 -0.000215
20  -0.032087 0.200172 -0.061335  -0.077924 0.046850 -0.004304
21  0.009278 0.058322 -0.044375  -0.119717 0.041303 -0.009838
22  0.069086 0.193200 -0.059144  -0.078054 0.039871 -0.003684
23  0.008560 0.057628 -0.044090  -0.119765 0.038606 -0.009259
24  0.102185 0.077529 -0.031768  0.000408 0.131041 -0.090198
25  0.038420 0.022931 -0.000959  -0.024715 0.133491 0.360872
26  -0.039647 -0.056266 0.002069  0.107717 0.688680 -0.141905
27  0.042761 -0.082398 0.038132  -0.000000 -0.000000 0.000000
28  0.000000 -0.000000 0.000000  1.272498 -2.064920 -0.205264
29  0.020122 -0.201078 -0.017893  -0.095749 -0.095025 1.598045
30  0.010469 -0.100374 -0.010235  0.003285 -0.034522 -0.003441
31  0.018520 -0.186856 -0.018450  -0.511632 -0.051475 0.006635
32  -0.032222 -0.200100 -0.061496  -0.006144 0.040671 -0.000322
33  0.009310 -0.057389 -0.045571  0.135028 0.026002 0.009765
34  0.068956 -0.193197 -0.059302  -0.006160 0.040548 -0.000329
35  0.008683 -0.056712 -0.045241  0.135029 0.025425 0.009563
36  0.102133 -0.077572 -0.031830  0.000018 0.198946 0.025529
37  0.034314 -0.028672 -0.001806  0.029545 0.073997 -0.202702
38  0.001143 0.000000 -0.181958  0.439443 -0.186130 -0.018210
39  0.004961 -0.000269 -0.096018  -0.526146 -0.912958 0.271669
40  -0.011623 0.003704 -0.088948  0.191626 -0.598235 -0.065490
41  -0.007644 0.000000 -0.210641  0.070121 -0.205969 -0.000545
time 7
0  0 0 0  0 0 0
1  0.000000 0.000010 0.000000  -1.570796 -0.000000 0.000000
2  0.000000 0.000000 0.000000  0.000000 -0.000000 0.000000
3  0.000000 0.000000 0.000000  0.000000 -0.000000 0.000000
4  0.006445 -0.000000 0.753335  0.000000 -0.000000 0.000000
5  -0.006445 0.001281 -0.626740  0.001917 -1.702642 -0.000741
6  0.000000 0.000000 0.000000  -0.000000 -0.000000 0.000000
7  0.000000 0.000000 0.000000  0.002034 0.845055 0.000058
8  0.002937 0.000000 0.194891  0.000000 0.453441 0.000000
9  0.003500 0.000000 0.083408  -0.000000 0.435620 -0.000000
10  -0.012239 -0.000000 0.122389  0.000000 0.264968 -0.000000
11  0.000267 0.000000 0.055138  0.000000 -0.446501 -0.000000
12  0.003234 0.000000 0.052281  -0.000000 0.392888 0.000000
13  -0.001319 0.000000 0.060214  -0.002362 0.204666 -0.000046
14  -0.039876 0.060989 0.002159  -0.598032 -0.242426 0.070655
15  0.043265 0.077505 0.036874  -0.000000 -0.000000 -0.000000
16  -0.000000 0.000000 0.000000  -0.067866 -0.841092 -0.646397
17  0.020259 0.201078 -0.017731  0.082898 -0.093230 -1.473920
18  0.010537 0.100376 -0.010148  0.003375 0.034545 -0.003297
19  0.018646 0.186860 -0.018292  -0.015449 0.001605 -0.000215
20  -0.032087 0.200172 -0.061335  -0.077924 0.046850 -0.004304
21  0.009278 0.058322 -0.044375  -0.119717 0.041303 -0.009838
22  0.069086 0.193200 -0.059144  -0.078054 0.039872 -0.003684
23  0.008560 0.057628 -0.044090  -0.119765 0.038606 -0.009259
24  0.102185 0.077529 -0.031768  0.000408 0.131041 -0.090199
25  0.038420 0.022931 -0.000959  -0.024715 0.133491 0.360872
26  -0.039647 -0.056266 0.002069  0.599392 -0.232543 -0.068874
27  0.042761 -0.082398 0.038132  -0.000000 -0.000000 -0.000000
28  -0.000000 0.000000 -0.000000  -0.010265 -0.604233 0.563010
29  0.020122 -0.201078 -0.017893  -0.110705 -0.094222 1.751117
30  0.010469 -0.100374 -0.010235  0.003285 -0.034522 -0.003441
31  0.018520 -0.186856 -0.018449  -0.239704 -0.024511 -0.000192
32  -0.032222 -0.200101 -0.061496  -0.006144 0.040671 -0.000322
33  0.009310 -0.057389 -0.045571  0.135028 0.026002 0.009765
34  0.068956 -0.193197 -0.059302  -0.006160 0.040548 -0.000329
35  0.008683 -0.056712 -0.045241  0.135029 0.025425 0.009563
36  0.102133 -0.077572 -0.031830  0.000018 0.198946 0.025529
37  0.034314 -0.028672 -0.001806  0.029545 0.073997 -0.202702
38  0.001143 0.000000 -0.181958  0.421030 -0.029651 0.015795
39  0.004961 -0.000269 -0.096018  -0.558784 -1.082611 0.336026
40  -0.011623 0.003704 -0.088948  0.191105 -0.577151 -0.063155
41  -0.007644 0.000000 -0.210641  0.066729 -0.172170 0.000148
time 8
0  0 0 0  0 0 0
1  0.000000 0.000010 0.000000  -1.570796 -0.000000 0.000000
2  0.000000 0.000000 0.000000  0.000000 -0.000000 0.000000
3  0.000000 0.000000 0.000000  0.000000 -0.000000 0.000000
4  0.006445 -0.000000 0.753335  0.000000 -0.000000 0.000000
5  -0.006445 0.001281 -0.626740  0.000150 -0.971491 0.000032
6  0.000000 0.000000 -0.000000  0.000000 0.000000 0.000000
7  0.000000 0.000000 0.000000  0.000327 0.846416 0.000014
8  0.002937 -0.000000 0.194891  0.000000 0.467441 0.000000
9  0.003500 0.000000 0.083408  -0.000000 0.538519 -0.000000
10  -0.012239 0.000000 0.122389  0.000000 0.290553 -0.000000
11  0.000267 -0.000000 0.055137  0.000000 -0.348378 -0.000000
12  0.003234 0.000000 0.052281  0.000000 0.378487 0.000000
13  -0.001318 0.000000 0.060214  -0.000375 0.345564 -0.000016
14  -0.039876 0.060989 0.002159  -1.287881 -0.946467 0.516557
15  0.043265 0.077505 0.036874  -0.000000 -0.000000 -0.000000
16  0.000000 -0.000000 0.000000  -0.050305 -0.078949 -0.292656
17  0.020260 0.201078 -0.017731  0.092087 -0.094144 -1.569050
18  0.010537 0.100376 -0.010148  0.003375 0.034545 -0.003297
19  0.018646 0.186860 -0.018292  -0.015449 0.001605 -0.000215
20  -0.032087 0.200172 -0.061335  -0.077925 0.046850 -0.004304
21  0.009278 0.058322 -0.044375  -0.119717 0.041303 -0.009838
22  0.069086 0.193200 -0.059144  -0.078054 0.039871 -0.003684
23  0.008560 0.057628 -0.044090  -0.119765 0.038606 -0.009259
24  0.102185 0.077529 -0.031768  0.000408 0.131041 -0.090198
25  0.038420 0.022931 -0.000959  -0.024715 0.133491 0.360872
26  -0.039647 -0.056266 0.002069  1.240449 -0.932342 -0.496424
27  0.042761 -0.082398 0.038132  -0.000000 -0.000000 -0.000000
28  0.000000 0.000000 -0.000000  -0.385727 0.346349 0.294217
29  0.020122 -0.201078 -0.017893  -0.103045 -0.094919 1.672567
30  0.010469 -0.100374 -0.010235  0.003285 -0.034522 -0.003441
31  0.018520 -0.186856 -0.018449  -0.031641 -0.003240 -0.000363
32  -0.032222 -0.200100 -0.061496  -0.006144 0.040671 -0.000322
33  0.009310 -0.057389 -0.045571  0.135028 0.026002 0.009765
34  0.068956 -0.193197 -0.059302  -0.006160 0.040548 -0.000330
35  0.008683 -0.056712 -0.045241  0.135029 0.025425 0.009563
36  0.102133 -0.077572 -0.031829  0.000018 0.198946 0.025529
37  0.034314 -0.028672 -0.001806  0.029545 0.073997 -0.202702
38  0.001143 0.000000 -0.181958  0.408191 0.032107 0.027879
39  0.004961 -0.000269 -0.096018  -0.542033 -1.120403 0.334289
40  -0.011623 0.003704 -0.088948  0.187619 -0.603020 -0.064561
41  -0.007644 0.000000 -0.210641  0.055097 -0.118579 0.001121
time 9
0  0 0 0  0 0 0
1  0.000000 0.000010 0.000000  -1.570796 -0.000000 0.000000
2  0.000000 0.000000 0.000000  0.000000 -0.000000 0.000000
3  0.000000 0.000000 0.000000  0.000000 -0.000000 0.000000
4  0.006445 -0.000000 0.753335  0.000000 -0.000000 0.000000
5  -0.006445 0.001281 -0.626740  0.000000 -0.411094 0.000000
6  -0.000000 0.000000 0.000000  0.000000 -0.000000 0.000000
7  -0.000000 0.000000 0.000000  0.000000 0.855616 0.000000
8  0.002937 0.000000 0.194891  0.000000 0.479041 0.000000
9  0.003500 0.000000 0.083408  0.000000 0.601176 0.000000
10  -0.012239 0.000000 0.122389  0.000000 0.307344 0.000000
11  0.000267 0.000000 0.055138  0.000000 -0.295383 0.000000
12  0.003234 0.000000 0.052281  0.000000 0.373263 0.000000
13  -0.001319 -0.000000 0.060214  0.000000 0.427049 0.000000
14  -0.039876 0.060989 0.002159  0.507091 -2.154241 -1.444011
15  0.043265 0.077505 0.036874  0.000000 -0.000000 0.000000
16  0.000000 -0.000000 0.000000  0.177183 0.510627 0.033065
17  0.020260 0.201078 -0.017731  0.094700 -0.094244 -1.595980
18  0.010537 0.100376 -0.010148  0.003494 0.035722 -0.003408
19  0.018646 0.186860 -0.018292  -0.013478 0.001385 -0.000185
20  -0.032088 0.200172 -0.061335  -0.077924 0.046850 -0.004304
21  0.009278 0.058322 -0.044375  -0.119717 0.041303 -0.009838
22  0.069086 0.193199 -0.059144  -0.078054 0.039871 -0.003684
23  0.008560 0.057628 -0.044090  -0.119765 0.038606 -0.009259
24  0.102185 0.077529 -0.031768  0.000408 0.131041 -0.090198
25  0.038420 0.022931 -0.000959  -0.024715 0.133491 0.360872
26  -0.039647 -0.056266 0.002069  -0.613531 -2.121927 1.498028
27  0.042761 -0.082398 0.038132  0.000000 -0.000000 -0.000000
28  0.000000 0.000000 -0.000000  -0.798275 0.985419 -0.184084
29  0.020122 -0.201078 -0.017893  -0.099617 -0.095036 1.637542
30  0.010469 -0.100374 -0.010235  0.002769 -0.029185 -0.002901
31  0.018520 -0.186856 -0.018450  0.039503 0.003973 0.000591
32  -0.032222 -0.200100 -0.061496  -0.006144 0.040671 -0.000322
33  0.009310 -0.057389 -0.045571  0.135028 0.026002 0.009765
34  0.068956 -0.193197 -0.059302  -0.006160 0.040548 -0.000330
35  0.008683 -0.056712 -0.045241  0.135029 0.025425 0.009563
36  0.102133 -0.077572 -0.031829  0.000018 0.198946 0.025529
37  0.034314 -0.028672 -0.001806  0.029545 0.073997 -0.202702
38  0.001143 0.000000 -0.181958  0.399283 -0.034741 0.013962
39  0.004961 -0.000269 -0.096018  -0.472613 -0.987702 0.255359
40  -0.011623 0.003704 -0.088948  0.173546 -0.660658 -0.065078
41  -0.007644 0.000000 -0.210641  0.031541 -0.018812 0.001230
time 10
0  0 0 0  0 0 0
1  0.000000 0.000010 0.000000  -1.570796 -0.000000 0.000000
2  0.000000 0.000000 0.000000  0.000000 -0.000000 0.000000
3  0.000000 0.000000 0.000000  0.000000 -0.000000 0.000000
4  0.006445 -0.000000 0.753335  0.000000 -0.000000 0.000000
5  -0.006445 0.001281 -0.626740  0.000000 0.100081 0.000000
6  -0.000000 0.000000 -0.000000  0.000000 0.000000 0.000000
7  -0.000000 0.000000 0.000000  0.000000 0.862565 0.000000
8  0.002937 0.000000 0.194891  0.000000 0.485975 0.000000
9  0.003500 0.000000 0.083408  0.000000 0.634642 0.000000
10  -0.012239 -0.000000 0.122389  0.000000 0.316631 0.000000
11  0.000267 0.000000 0.055137  0.000000 -0.268697 0.000000
12  0.003234 0.000000 0.052281  0.000000 0.371341 0.000000
13  -0.001319 0.000000 0.060214  0.000000 0.469514 0.000000
14  -0.039876 0.060989 0.002159  -0.088054 -2.582014 -0.997230
15  0.043265 0.077505 0.036874  0.000000 0.000000 -0.000000
16  0.000000 -0.000000 0.000000  0.669145 0.882496 0.583692
17  0.020260 0.201078 -0.017731  0.095382 -0.094259 -1.603004
18  0.010537 0.100376 -0.010148  0.003834 0.039689 -0.003779
19  0.018646 0.186860 -0.018292  -0.006708 0.000683 -0.000089
20  -0.032088 0.200172 -0.061335  -0.077924 0.046850 -0.004304
21  0.009278 0.058322 -0.044375  -0.119717 0.041303 -0.009838
22  0.069086 0.193199 -0.059144  -0.078054 0.039872 -0.003684
23  0.008560 0.057628 -0.044090  -0.119765 0.038606 -0.009259
24  0.102185 0.077529 -0.031768  0.000408 0.131041 -0.090198
25  0.038420 0.022931 -0.000959  -0.024715 0.133491 0.360872
26  -0.039647 -0.056266 0.002069  0.016949 -2.516095 0.992177
27  0.042761 -0.082398 0.038132  0.000000 -0.000000 -0.000000
28  0.000000 0.000000 0.000000  -1.864796 1.177081 -1.411684
29  0.020122 -0.201078 -0.017893  -0.099819 -0.095032 1.639598
30  0.010469 -0.100374 -0.010236  0.000980 -0.010832 -0.001067
31  0.018520 -0.186856 -0.018449  0.055339 0.005607 0.000878
32  -0.032222 -0.200100 -0.061496  -0.006144 0.040671 -0.000322
33  0.009310 -0.057389 -0.045571  0.135028 0.026002 0.009765
34  0.068956 -0.193197 -0.059302  -0.006160 0.040548 -0.000330
35  0.008683 -0.056712 -0.045241  0.135029 0.025425 0.009563
36  0.102133 -0.077572 -0.031829  0.000018 0.198946 0.025528
37  0.034314 -0.028672 -0.001806  0.029545 0.073997 -0.202702
38  0.001143 0.000000 -0.181958  0.398784 -0.116699 -0.002464
39  0.004961 -0.000269 -0.096018  -0.438810 -0.768275 0.192286
40  -0.011623 0.003704 -0.088948  0.144136 -0.726133 -0.059224
41  -0.007644 0.000000 -0.210641  -0.038890 0.370425 -0.015983
time 11
0  0 0 0  0 0 0
1  0.000000 0.000010 0.000000  -1.570796 -0.000000 0.000000
2  0.000000 0.000000 0.000000  0.000000 -0.000000 0.000000
3  0.000000 0.000000 0.000000  0.000000 -0.000000 0.000000
4  0.006445 -0.000000 0.753335  0.000000 -0.000000 0.000000
5  -0.006445 0.001281 -0.626740  0.000000 0.594689 0.000000
6  -0.000000 0.000000 0.000000  0.000000 -0.000000 0.000000
7  0.000000 0.000000 -0.000000  0.000000 0.864575 0.000000
8  0.002937 0.000000 0.194891  0.000000 0.487997 0.000000
9  0.003500 0.000000 0.083408  0.000000 0.644397 0.000000
10  -0.012239 0.000000 0.122389  0.000000 0.319320 0.000000
11  0.000267 0.000000 0.055138  0.000000 -0.260933 0.000000
12  0.003234 0.000000 0.052281  0.000000 0.370742 0.000000
13  -0.001318 0.000000 0.060214  0.000000 0.481931 0.000000
14  -0.039876 0.060989 0.002159  -0.251698 -2.830688 -0.920318
15  0.043265 0.077505 0.036874  -0.000000 0.000000 -0.000000
16  0.000000 0.000000 0.000000  1.392022 0.926775 1.348800
17  0.020260 0.201078 -0.017731  0.095775 -0.094265 -1.607051
18  0.010537 0.100376 -0.010148  0.004465 0.045723 -0.004339
19  0.018646 0.186860 -0.018292  0.003470 -0.000335 0.000042
20  -0.032088 0.200172 -0.061335  -0.077924 0.046850 -0.004304
21  0.009278 0.058322 -0.044375  -0.119717 0.041303 -0.009838
22  0.069086 0.193199 -0.059144  -0.078054 0.039872 -0.003684
23  0.008560 0.057628 -0.044090  -0.119765 0.038606 -0.009259
24  0.102185 0.077529 -0.031768  0.000408 0.131041 -0.090198
25  0.038420 0.022931 -0.000959  -0.024715 0.133491 0.360872
26  -0.039647 -0.056266 0.002069  0.185181 -2.759101 0.896659
27  0.042760 -0.082398 0.038132  -0.000000 -0.000000 0.000000
28  0.000000 0.000000 0.000000  0.691635 2.253816 0.974311
29  0.020122 -0.201078 -0.017893  -0.100442 -0.095019 1.645969
30  0.010469 -0.100374 -0.010235  -0.001581 0.016959 0.001648
31  0.018520 -0.186856 -0.018450  0.056914 0.005739 0.000904
32  -0.032222 -0.200101 -0.061496  -0.006144 0.040671 -0.000322
33  0.009310 -0.057389 -0.045571  0.135028 0.026002 0.009765
34  0.068956 -0.193197 -0.059302  -0.006160 0.040548 -0.000330
35  0.008683 -0.056712 -0.045241  0.135029 0.025425 0.009563
36  0.102133 -0.077572 -0.031830  0.000018 0.198946 0.025529
37  0.034314 -0.028672 -0.001806  0.029545 0.073997 -0.202702
38  0.001143 0.000000 -0.181958  0.403984 -0.075279 0.005918
39  0.004961 -0.000269 -0.096018  -0.450755 -0.597279 0.166722
40  -0.011623 0.003704 -0.088948  0.096340 -0.746547 -0.040655
41  -0.007644 0.000000 -0.210641  -0.021107 0.355400 -0.011528
time 12
0  0 0 0  0 0 0
1  0.000000 0.000010 0.000000  -1.570796 -0.000000 0.000000
2  0.000000 0.000000 0.000000  0.000000 -0.000000 0.000000
3  0.000000 0.000000 0.000000  0.000000 -0.000000 0.000000
4  0.006445 -0.000000 0.753335  0.000000 -0.000000 0.000000
5  -0.006445 0.001281 -0.626740  0.000000 1.073160 0.000000
6  0.000000 -0.000000 -0.000000  0.000000 -0.000000 0.000000
7  -0.000000 -0.000000 -0.000000  0.000000 0.863482 0.000000
8  0.002937 0.000000 0.194891  0.000000 0.486908 0.000000
9  0.003500 0.000000 0.083408  0.000000 0.639100 0.000000
10  -0.012239 -0.000000 0.122389  0.000000 0.317807 0.000000
11  0.000267 0.000000 0.055138  0.000000 -0.265149 0.000000
12  0.003234 0.000000 0.052281  0.000000 0.371063 0.000000
13  -0.001318 0.000000 0.060214  0.000000 0.475198 0.000000
14  -0.039876 0.060989 0.002159  -0.541589 2.896655 -0.894242
15  0.043265 0.077505 0.036874  -0.000000 -0.000000 -0.000000
16  0.000000 0.000000 0.000000  1.897908 0.703364 1.890663
17  0.020260 0.201078 -0.017731  0.095973 -0.094268 -1.609084
18  0.010537 0.100376 -0.010148  0.005038 0.051851 -0.004906
19  0.018646 0.186860 -0.018292  0.013860 -0.001425 0.000171
20  -0.032088 0.200172 -0.061335  -0.077924 0.046850 -0.004304
21  0.009278 0.058322 -0.044375  -0.119717 0.041303 -0.009838
22  0.069086 0.193199 -0.059144  -0.078054 0.039872 -0.003684
23  0.008560 0.057628 -0.044090  -0.119765 0.038606 -0.009259
24  0.102185 0.077529 -0.031768  0.000408 0.131041 -0.090199
25  0.038420 0.022931 -0.000959  -0.024715 0.133491 0.360872
26  -0.039647 -0.056266 0.002069  0.468050 2.957375 0.836446
27  0.042761 -0.082398 0.038132  -0.000000 -0.000000 -0.000000
28  0.000000 -0.000000 0.000000  0.601606 2.620902 0.697734
29  0.020122 -0.201078 -0.017893  -0.101297 -0.094994 1.654699
30  0.010469 -0.100374 -0.010235  -0.004141 0.045156 0.004332
31  0.018520 -0.186856 -0.018449  0.050263 0.005062 0.000781
32  -0.032222 -0.200100 -0.061496  -0.006144 0.040671 -0.000322
33  0.009310 -0.057389 -0.045571  0.135028 0.026002 0.009765
34  0.068956 -0.193197 -0.059302  -0.006160 0.040548 -0.000329
35  0.008683 -0.056712 -0.045241  0.135029 0.025425 0.009563
36  0.102133 -0.077572 -0.031829  0.000018 0.198946 0.025528
37  0.034314 -0.028672 -0.001806  0.029545 0.073997 -0.202702
38  0.001143 0.000000 -0.181958  0.413363 0.058529 0.033658
39  0.004961 -0.000269 -0.096018  -0.471750 -0.488419 0.154878
40  -0.011623 0.003704 -0.088948  0.042634 -0.706768 -0.017043
41  -0.007644 0.000000 -0.210641  0.004374 0.015870 -0.000076
time 13
0  0 0 0  0 0 0
1  0.000000 0.000010 0.000000  -1.570796 -0.000000 0.000000
2  0.000000 0.000000 0.000000  0.000000 -0.000000 0.000000
3  0.000000 0.000000 0.000000  0.000000 -0.000000 0.000000
4  0.006445 -0.000000 0.753335  0.000000 -0.000000 0.000000
5  -0.006445 0.001281 -0.626740  0.000000 1.533309 0.000000
6  -0.000000 0.000000 0.000000  0.000000 -0.000000 0.000000
7  -0.000000 0.000000 -0.000000  0.000000 0.860303 0.000000
8  0.002937 0.000000 0.194891  0.000000 0.483737 0.000000
9  0.003500 0.000000 0.083408  0.000000 0.623848 0.000000
10  -0.012239 -0.000000 0.122389  0.000000 0.313616 0.000000
11  0.000267 0.000000 0.055138  0.000000 -0.277310 0.000000
12  0.003234 0.000000 0.052281  0.000000 0.371961 0.000000
13  -0.001318 0.000000 0.060214  0.000000 0.455816 0.000000
14  -0.039876 0.060989 0.002159  -0.764340 2.536509 -0.977525
15  0.043265 0.077505 0.036874  0.000000 0.000000 0.000000
16  0.000000 0.000000 0.000000  -0.984756 2.769490 -0.954964
17  0.020260 0.201078 -0.017731  0.095950 -0.094267 -1.608849
18  0.010537 0.100376 -0.010148  0.005465 0.056446 -0.005329
19  0.018646 0.186860 -0.018292  0.021687 -0.002224 0.000257
20  -0.032088 0.200172 -0.061335  -0.077924 0.046850 -0.004303
21  0.009278 0.058322 -0.044375  -0.119717 0.041303 -0.009838
22  0.069086 0.193199 -0.059144  -0.078054 0.039871 -0.003684
23  0.008560 0.057628 -0.044090  -0.119765 0.038606 -0.009259
24  0.102185 0.077529 -0.031768  0.000408 0.131041 -0.090198
25  0.038420 0.022931 -0.000959  -0.024715 0.133491 0.360872
26  -0.039647 -0.056266 0.002069  0.670979 2.578853 0.891766
27  0.042761 -0.082398 0.038132  0.000000 -0.000000 0.000000
28  0.000000 -0.000000 0.000000  0.645671 2.998675 0.530283
29  0.020122 -0.201078 -0.017893  -0.102250 -0.094957 1.664434
30  0.010469 -0.100374 -0.010235  -0.006074 0.066518 0.006317
31  0.018520 -0.186856 -0.018450  0.039072 0.003939 0.000585
32  -0.032222 -0.200101 -0.061496  -0.006144 0.040671 -0.000322
33  0.009310 -0.057389 -0.045571  0.135028 0.026002 0.009765
34  0.068956 -0.193197 -0.059302  -0.006160 0.040548 -0.000329
35  0.008683 -0.056712 -0.045241  0.135029 0.025425 0.009563
36  0.102133 -0.077572 -0.031829  0.000018 0.198946 0.025529
37  0.034314 -0.028672 -0.001806  0.029545 0.073997 -0.202702
38  0.001143 0.000000 -0.181958  0.424262 0.173221 0.058794
39  0.004961 -0.000269 -0.096018  -0.471024 -0.354642 0.129242
40  -0.011623 0.003704 -0.088948  -0.005304 -0.638883 0.001921
41  -0.007644 0.000000 -0.210641  -0.015289 -0.373256 0.009725
time 14
0  0 0 0  0 0 0
1  0.000000 0.000010 0.000000  -1.570796 -0.000000 0.000000
2  0.000000 0.000000 0.000000  0.000000 -0.000000 0.000000
3  0.000000 0.000000 0.000000  0.000000 -0.000000 0.000000
4  0.006445 -0.000000 0.753335  0.000000 -0.000000 0.000000
5  -0.006445 0.001281 -0.626740  -0.000000 1.973133 -0.000000
6  0.000000 0.000000 0.000000  0.000000 -0.000000 0.000000
7  -0.000000 0.000000 0.000000  0.000000 0.856108 0.000000
8  0.002937 0.000000 0.194891  0.000000 0.479586 0.000000
9  0.003500 0.000000 0.083408  0.000000 0.603718 0.000000
10  -0.012239 0.000000 0.122389  0.000000 0.308033 0.000000
11  0.000267 0.000000 0.055138  0.000000 -0.293341 0.000000
12  0.003234 0.000000 0.052281  0.000000 0.373129 0.000000
13  -0.001319 0.000000 0.060214  0.000000 0.430258 0.000000
14  -0.039876 0.060989 0.002159  -1.120327 2.214214 -1.218642
15  0.043265 0.077505 0.036874  0.000000 -0.000000 0.000000
16  0.000000 0.000000 -0.000000  2.297573 0.001752 2.374678
17  0.020260 0.201078 -0.017731  0.095693 -0.094264 -1.606207
18  0.010537 0.100376 -0.010148  0.005603 0.058040 -0.005476
19  0.018646 0.186860 -0.018292  0.024444 -0.002493 0.000285
20  -0.032087 0.200172 -0.061335  -0.077925 0.046850 -0.004304
21  0.009278 0.058322 -0.044375  -0.119717 0.041303 -0.009838
22  0.069086 0.193199 -0.059144  -0.078054 0.039871 -0.003684
23  0.008560 0.057628 -0.044090  -0.119765 0.038606 -0.009259
24  0.102185 0.077529 -0.031768  0.000408 0.131041 -0.090198
25  0.038420 0.022931 -0.000959  -0.024715 0.133491 0.360872
26  -0.039647 -0.056266 0.002069  0.989787 2.225216 1.090760
27  0.042761 -0.082398 0.038132  0.000000 -0.000000 -0.000000
28  0.000000 0.000000 0.000000  0.752289 -2.895900 0.381094
29  0.020122 -0.201078 -0.017893  -0.103127 -0.094915 1.673404
30  0.010469 -0.100374 -0.010235  -0.006739 0.073923 0.006996
31  0.018520 -0.186856 -0.018450  0.027080 0.002718 0.000387
32  -0.032222 -0.200100 -0.061496  -0.006144 0.040671 -0.000322
33  0.009310 -0.057389 -0.045571  0.135028 0.026002 0.009765
34  0.068956 -0.193197 -0.059302  -0.006160 0.040548 -0.000330
35  0.008683 -0.056712 -0.045241  0.135029 0.025425 0.009563
36  0.102133 -0.077572 -0.031829  0.000018 0.198946 0.025529
37  0.034314 -0.028672 -0.001806  0.029545 0.073997 -0.202702
38  0.001143 0.000000 -0.181958  0.436592 0.268400 0.081387
39  0.004961 -0.000269 -0.096018  -0.465773 -0.266496 0.111195
40  -0.011623 0.003704 -0.088948  -0.028614 -0.548416 0.008975
41  -0.007644 0.000000 -0.210641  -0.059544 -0.591862 0.028108
time 15
0  0 0 0  0 0 0
1  0.000000 0.000010 0.000000  -1.570796 -0.000000 0.000000
2  0.000000 0.000000 0.000000  0.000000 -0.000000 0.000000
3  0.000000 0.000000 0.000000  0.000000 -0.000000 0.000000
4  0.006445 -0.000000 0.753335  0.000000 -0.000000 0.000000
5  -0.006445 0.001281 -0.626740  -0.000000 2.390724 -0.000000
6  0.000000 0.000000 0.000000  0.000000 -0.000000 0.000000
7  0.000000 0.000000 -0.000000  0.000000 0.851967 0.000000
8  0.002937 0.000000 0.194891  0.000000 0.475420 0.000000
9  0.003500 0.000000 0.083408  0.000000 0.583773 0.000000
10  -0.012239 -0.000000 0.122389  0.000000 0.302551 0.000000
11  0.000267 0.000000 0.055138  0.000000 -0.309215 0.000000
12  0.003234 -0.000000 0.052281  0.000000 0.374262 0.000000
13  -0.001319 0.000000 0.060214  0.000000 0.404990 0.000000
14  -0.039876 0.060989 0.002159  1.315318 1.121846 1.320459
15  0.043265 0.077505 0.036874  -0.000000 -0.000000 -0.000000
16  -0.000000 -0.000000 -0.000000  -0.769467 -2.763428 -0.619619
17  0.020260 0.201078 -0.017731  0.095209 -0.094255 -1.601221
18  0.010537 0.100376 -0.010148  0.005325 0.055073 -0.005203
19  0.018646 0.186860 -0.018292  0.019385 -0.001975 0.000231
20  -0.032088 0.200172 -0.061335  -0.077924 0.046850 -0.004304
21  0.009278 0.058322 -0.044375  -0.119717 0.041303 -0.009838
22  0.069086 0.193199 -0.059144  -0.078054 0.039871 -0.003684
23  0.008560 0.057628 -0.044090  -0.119765 0.038606 -0.009259
24  0.102185 0.077529 -0.031768  0.000408 0.131041 -0.090198
25  0.038420 0.022931 -0.000959  -0.024715 0.133491 0.360872
26  -0.039647 -0.056266 0.002069  -1.449521 1.160463 -1.455315
27  0.042761 -0.082398 0.038132  0.000000 -0.000000 -0.000000
28  0.000000 -0.000000 0.000000  0.922809 -2.504549 0.196237
29  0.020122 -0.201078 -0.017893  -0.103720 -0.094882 1.679467
30  0.010469 -0.100374 -0.010235  -0.005485 0.060264 0.005741
31  0.018520 -0.186856 -0.018450  0.018031 0.001798 0.000248
32  -0.032222 -0.200100 -0.061496  -0.006144 0.040671 -0.000322
33  0.009310 -0.057389 -0.045571  0.135028 0.026002 0.009765
34  0.068956 -0.193197 -0.059302  -0.006160 0.040548 -0.000330
35  0.008683 -0.056712 -0.045241  0.135029 0.025425 0.009563
36  0.102133 -0.077572 -0.031830  0.000018 0.198946 0.025529
37  0.034314 -0.028672 -0.001806  0.029545 0.073997 -0.202702
38  0.001143 0.000000 -0.181958  0.448186 0.338596 0.099457
39  0.004961 -0.000269 -0.096018  -0.464247 -0.235978 0.105149
40  -0.011623 0.003704 -0.088948  -0.033537 -0.471891 0.009194
41  -0.007644 0.000000 -0.210641  -0.098350 -0.684716 0.045843
time 16
0  0 0 0  0 0 0
1  0.000000 0.000010 0.000000  -1.570796 -0.000000 0.000000
2  0.000000 0.000000 0.000000  0.000000 -0.000000 0.000000
3  0.000000 0.000000 0.000000  0.000000 -0.000000 0.000000
4  0.006445 -0.000000 0.753335  0.000000 -0.000000 0.000000
5  -0.006445 0.001281 -0.626740  -0.000000 2.780975 -0.000000
6  -0.000000 0.000000 -0.000000  0.000000 -0.000000 0.000000
7  0.000000 0.000000 -0.000000  0.000000 0.849280 0.000000
8  0.002937 0.000000 0.194891  0.000000 0.472705 0.000000
9  0.003500 0.000000 0.083408  0.000000 0.570653 0.000000
10  -0.012239 -0.000000 0.122389  0.000000 0.298891 0.000000
11  0.000267 0.000000 0.055138  0.000000 -0.319733 0.000000
12  0.003234 -0.000000 0.052281  0.000000 0.375006 0.000000
13  -0.001319 0.000000 0.060214  0.000000 0.388282 0.000000
14  -0.039876 0.060989 0.002159  0.484639 1.038439 0.587785
15  0.043265 0.077505 0.036874  -0.000000 0.000000 -0.000000
16  -0.000000 0.000000 -0.000000  -0.755438 -2.401935 -0.473959
17  0.020260 0.201078 -0.017731  0.094545 -0.094240 -1.594384
18  0.010537 0.100376 -0.010148  0.004358 0.044936 -0.004267
19  0.018646 0.186860 -0.018292  0.002176 -0.000183 0.000024
20  -0.032088 0.200172 -0.061335  -0.077925 0.046850 -0.004304
21  0.009278 0.058322 -0.044375  -0.119717 0.041303 -0.009838
22  0.069086 0.193200 -0.059144  -0.078054 0.039872 -0.003684
23  0.008560 0.057628 -0.044090  -0.119765 0.038606 -0.009259
24  0.102185 0.077529 -0.031768  0.000408 0.131041 -0.090198
25  0.038420 0.022931 -0.000959  -0.024715 0.133491 0.360872
26  -0.039647 -0.056266 0.002069  -0.488699 1.093479 -0.594462
27  0.042761 -0.082398 0.038132  0.000000 0.000000 0.000000
28  -0.000000 0.000000 0.000000  1.235180 -2.139884 -0.128409
29  0.020122 -0.201078 -0.017893  -0.103608 -0.094888 1.678321
30  0.010469 -0.100374 -0.010235  -0.001257 0.013421 0.001307
31  0.018520 -0.186856 -0.018449  0.017146 0.001720 0.000236
32  -0.032222 -0.200100 -0.061496  -0.006144 0.040671 -0.000322
33  0.009310 -0.057389 -0.045571  0.135028 0.026002 0.009765
34  0.068956 -0.193197 -0.059302  -0.006160 0.040548 -0.000330
35  0.008683 -0.056712 -0.045241  0.135029 0.025425 0.009563
36  0.102133 -0.077572 -0.031830  0.000018 0.198946 0.025529
37  0.034314 -0.028672 -0.001806  0.029545 0.073997 -0.202702
38  0.001143 0.000000 -0.181958  0.454278 0.369918 0.108082
39  0.004961 -0.000269 -0.096018  -0.468193 -0.250668 0.108881
40  -0.011623 0.003704 -0.088948  -0.028056 -0.416849 0.006870
41  -0.007644 0.000000 -0.210641  -0.001104 -0.074203 0.001446
time 17
0  0 0 0  0 0 0
1  0.000000 0.000010 0.000000  -1.570796 -0.000000 0.000000
2  0.000000 0.000000 0.000000  0.000000 -0.000000 0.000000
3  0.000000 0.000000 0.000000  0.000000 -0.000000 0.000000
4  0.006445 -0.000000 0.753335  0.000000 -0.000000 0.000000
5  -0.006445 0.001281 -0.626740  -0.000000 2.476425 -0.000000
6  0.000000 -0.000000 -0.000000  0.000000 -0.000000 0.000000
7  -0.000000 -0.000000 0.000000  0.000000 0.855889 0.000000
8  0.002937 0.000000 0.194891  0.000000 0.478496 0.000000
9  0.003500 0.000000 0.083408  0.000000 0.574299 0.000000
10  -0.012239 -0.000000 0.122389  0.000000 0.302500 0.000000
11  0.000267 0.000000 0.055138  0.000000 -0.323149 0.000000
12  0.003234 -0.000000 0.052281  0.000000 0.378909 0.000000
13  -0.001319 -0.000000 0.060214  0.000000 0.389900 0.000000
14  -0.039876 0.060989 0.002159  0.019589 0.767006 0.226680
15  0.043265 0.077505 0.036874  -0.000000 -0.000000 -0.000000
16  -0.000000 0.000000 0.000000  -0.860234 -2.071198 -0.257182
17  0.020260 0.201078 -0.017731  0.093197 -0.094195 -1.580489
18  0.010537 0.100376 -0.010148  0.003003 0.030844 -0.002950
19  0.018646 0.186860 -0.018292  -0.045964 0.004756 -0.000712
20  -0.032087 0.200172 -0.061335  -0.077925 0.046850 -0.004304
21  0.009278 0.058322 -0.044375  -0.119717 0.041303 -0.009838
22  0.069086 0.193200 -0.059144  -0.078054 0.039872 -0.003684
23  0.008560 0.057628 -0.044090  -0.119765 0.038606 -0.009259
24  0.102185 0.077529 -0.031768  0.000408 0.131041 -0.090199
25  0.038420 0.022931 -0.000959  -0.024715 0.133491 0.360872
26  -0.039647 -0.056266 0.002069  0.006694 0.804424 -0.204155
27  0.042761 -0.082398 0.038132  -0.000000 0.000000 0.000000
28  -0.000000 0.000000 0.000000  -1.035766 -1.219081 2.135912
29  0.020122 -0.201078 -0.017893  -0.100175 -0.095025 1.643237
30  0.010469 -0.100374 -0.010235  0.010024 -0.100451 -0.010361
31  0.018520 -0.186856 -0.018449  0.020936 0.002092 0.000292
32  -0.032222 -0.200101 -0.061496  -0.006144 0.040671 -0.000322
33  0.009310 -0.057389 -0.045571  0.135028 0.026002 0.009765
34  0.068956 -0.193197 -0.059302  -0.006160 0.040548 -0.000330
35  0.008683 -0.056712 -0.045241  0.135029 0.025425 0.009563
36  0.102133 -0.077572 -0.031829  0.000018 0.198946 0.025529
37  0.034314 -0.028672 -0.001806  0.029545 0.073997 -0.202702
38  0.001143 0.000000 -0.181958  0.447458 0.328155 0.096926
39  0.004961 -0.000269 -0.096018  -0.479407 -0.321694 0.125520
40  -0.011623 0.003704 -0.088948  -0.009022 -0.353693 0.001898
41  -0.007644 0.000000 -0.210641  0.006703 -0.031218 0.000738
time 18
0  0 0 0  0 0 0
1  0.000000 0.000010 0.000000  -1.570796 -0.000000 0.000000
2  0.000000 0.000000 0.000000  0.000000 -0.000000 0.000000
3  0.000000 0.000000 0.000000  0.000000 -0.000000 0.000000
4  0.006445 -0.000000 0.753335  0.000000 -0.000000 0.000000
5  -0.006445 0.001281 -0.626740  -0.000000 -2.801191 -0.000000
6  0.000000 0.000000 0.000000  0.000000 -0.000000 0.000000
7  -0.000000 0.000000 0.000000  0.000000 0.889295 0.000000
8  0.002937 -0.000000 0.194891  0.000000 0.508075 0.000000
9  0.003500 0.000000 0.083408  0.000000 0.607929 0.000000
10  -0.012239 0.000000 0.122389  0.000000 0.323488 0.000000
11  0.000267 0.000000 0.055138  0.000000 -0.324931 0.000000
12  0.003234 0.000000 0.052281  0.000000 0.395363 0.000000
13  -0.001319 -0.000000 0.060214  0.000000 0.418917 0.000000
14  -0.039876 0.060989 0.002159  -0.261444 0.397845 0.079743
15  0.043265 0.077505 0.036874  0.000000 -0.000000 -0.000000
16  -0.000000 0.000000 0.000000  -1.465518 -1.808870 0.402309
17  0.020260 0.201078 -0.017731  0.089464 -0.093972 -1.541976
18  0.010537 0.100376 -0.010148  0.001411 0.014416 -0.001390
19  0.018646 0.186860 -0.018292  -0.170843 0.017425 -0.003735
20  -0.032087 0.200172 -0.061335  -0.077924 0.046850 -0.004304
21  0.009278 0.058322 -0.044375  -0.119717 0.041303 -0.009838
22  0.069086 0.193199 -0.059144  -0.078054 0.039872 -0.003684
23  0.008560 0.057628 -0.044090  -0.119765 0.038606 -0.009259
24  0.102185 0.077529 -0.031768  0.000408 0.131041 -0.090198
25  0.038420 0.022931 -0.000959  -0.024715 0.133491 0.360872
26  -0.039647 -0.056266 0.002069  0.280664 0.418289 -0.064650
27  0.042761 -0.082398 0.038132  0.000000 -0.000000 -0.000000
28  0.000000 -0.000000 0.000000  -0.041005 -1.003056 1.169079
29  0.020122 -0.201078 -0.017893  -0.086848 -0.094419 1.506919
30  0.010469 -0.100374 -0.010235  0.044101 -0.371007 -0.045148
31  0.018520 -0.186856 -0.018450  0.019755 0.001983 0.000275
32  -0.032222 -0.200100 -0.061496  -0.006144 0.040671 -0.000322
33  0.009310 -0.057389 -0.045571  0.135028 0.026002 0.009765
34  0.068956 -0.193197 -0.059302  -0.006160 0.040548 -0.000330
35  0.008683 -0.056712 -0.045241  0.135029 0.025425 0.009563
36  0.102133 -0.077572 -0.031829  0.000018 0.198946 0.025528
37  0.034314 -0.028672 -0.001806  0.029545 0.073997 -0.202702
38  0.001143 0.000000 -0.181958  0.424983 0.098076 0.043020
39  0.004961 -0.000269 -0.096018  -0.490035 -0.471966 0.158549
40  -0.011623 0.003704 -0.088948  0.028949 -0.247211 -0.004606
41  -0.007644 0.000000 -0.210641  0.016087 -0.008551 0.000664
time 19
0  0 0 0  0 0 0
1  0.000000 0.000010 0.000000  -1.570796 -0.000000 0.000000
2  0.000000 0.000000 0.000000  0.000000 -0.000000 0.000000
3  0.000000 0.000000 0.000000  0.000000 -0.000000 0.000000
4  0.006445 -0.000000 0.753335  0.000000 -0.000000 0.000000
5  -0.006445 0.001281 -0.626740  -0.000000 -2.494216 -0.000000
6  0.000000 0.000000 -0.000000  0.000000 -0.000000 0.000000
7  -0.000000 0.000000 -0.000000  0.000000 0.926444 0.000000
8  0.002937 -0.000000 0.194891  0.000000 0.540896 0.000000
9  0.003500 0.000000 0.083408  0.000000 0.645308 0.000000
10  -0.012239 0.000000 0.122389  0.000000 0.346812 0.000000
11  0.000267 -0.000000 0.055138  0.000000 -0.326910 0.000000
12  0.003234 0.000000 0.052281  0.000000 0.413654 0.000000
13  -0.001318 0.000000 0.060214  0.000000 0.451196 0.000000
14  -0.039876 0.060989 0.002159  -0.452030 0.039488 0.047689
15  0.043265 0.077505 0.036874  -0.000000 -0.000000 0.000000
16  -0.000000 -0.000000 0.000000  0.397930 -1.297042 -1.422669
17  0.020259 0.201078 -0.017731  0.084855 -0.093498 -1.494264
18  0.010537 0.100376 -0.010148  -0.004203 -0.041235 0.004094
19  0.018646 0.186860 -0.018293  -0.322223 0.032184 -0.009492
20  -0.032087 0.200172 -0.061335  -0.077924 0.046850 -0.004304
21  0.009278 0.058322 -0.044375  -0.119717 0.041303 -0.009838
22  0.069086 0.193199 -0.059144  -0.078054 0.039872 -0.003684
23  0.008560 0.057628 -0.044090  -0.119765 0.038606 -0.009259
24  0.102185 0.077529 -0.031768  0.000408 0.131041 -0.090198
25  0.038420 0.022931 -0.000959  -0.024715 0.133491 0.360872
26  -0.039647 -0.056266 0.002069  0.462212 0.049938 -0.041215
27  0.042761 -0.082398 0.038132  -0.000000 -0.000000 -0.000000
28  0.000000 -0.000000 0.000000  0.260150 -0.610713 0.839910
29  0.020122 -0.201078 -0.017893  -0.071094 -0.091306 1.342767
30  0.010469 -0.100374 -0.010235  0.121724 -0.738280 -0.123556
31  0.018520 -0.186856 -0.018450  0.047582 0.004817 0.000735
32  -0.032222 -0.200101 -0.061496  -0.006144 0.040671 -0.000322
33  0.009310 -0.057389 -0.045571  0.135028 0.026002 0.009765
34  0.068956 -0.193197 -0.059302  -0.006160 0.040548 -0.000330
35  0.008683 -0.056712 -0.045241  0.135029 0.025425 0.009563
36  0.102133 -0.077572 -0.031829  0.000018 0.198946 0.025528
37  0.034314 -0.028672 -0.001806  0.029545 0.073997 -0.202702
38  0.001143 0.000000 -0.181958  0.429362 -0.244902 -0.030648
39  0.004961 -0.000269 -0.096018  -0.465282 -0.539208 0.161981
40  -0.011623 0.003704 -0.088948  0.052646 -0.167166 -0.006274
41  -0.007644 0.000000 -0.210641  0.023901 -0.001842 0.000906
time 20
0  0 0 0  0 0 0
1  0.000000 0.000010 0.000000  -1.570796 -0.000000 0.000000
2  0.000000 0.000000 0.000000  0.000000 -0.000000 0.000000
3  0.000000 0.000000 0.000000  0.000000 -0.000000 0.000000
4  0.006445 -0.000000 0.753335  0.000000 -0.000000 0.000000
5  -0.006445 0.001281 -0.626740  -0.000000 -2.218665 -0.000000
6  0.000000 0.000000 -0.000000  0.000000 0.000000 0.000000
7  0.000000 0.000000 -0.000000  0.000000 0.922737 0.000000
8  0.002937 0.000000 0.194891  0.000000 0.537584 0.000000
9  0.003500 0.000000 0.083408  0.000000 0.641571 0.000000
10  -0.012239 0.000000 0.122389  0.000000 0.344476 0.000000
11  0.000267 0.000000 0.055137  0.000000 -0.326715 0.000000
12  0.003234 0.000000 0.052281  0.000000 0.411789 0.000000
13  -0.001318 0.000000 0.060214  0.000000 0.447957 0.000000
14  -0.039876 0.060989 0.002159  -0.562122 -0.175758 0.061284
15  0.043265 0.077505 0.036874  -0.000000 -0.000000 0.000000
16  -0.000000 -0.000000 0.000000  0.035745 -1.093490 -0.942294
17  0.020260 0.201078 -0.017731  0.083933 -0.093377 -1.484684
18  0.010537 0.100376 -0.010148  -0.020950 -0.189928 0.020522
19  0.018646 0.186860 -0.018293  -0.397652 0.039149 -0.013171
20  -0.032088 0.200172 -0.061335  -0.077925 0.046850 -0.004304
21  0.009278 0.058322 -0.044375  -0.119717 0.041303 -0.009838
22  0.069086 0.193199 -0.059144  -0.078054 0.039872 -0.003684
23  0.008560 0.057628 -0.044090  -0.119765 0.038606 -0.009259
24  0.102185 0.077529 -0.031768  0.000408 0.131041 -0.090199
25  0.038420 0.022931 -0.000959  -0.024715 0.133491 0.360872
26  -0.039647 -0.056266 0.002069  0.567023 -0.168658 -0.059007
27  0.042761 -0.082398 0.038132  -0.000000 -0.000000 0.000000
28  0.000000 -0.000000 0.000000  0.351972 -0.289501 0.592589
29  0.020122 -0.201078 -0.017893  -0.071982 -0.091554 1.352182
30  0.010469 -0.100374 -0.010235  0.275144 -1.055234 -0.277555
31  0.018520 -0.186856 -0.018449  0.160407 0.016053 0.003387
32  -0.032222 -0.200100 -0.061496  -0.006144 0.040671 -0.000322
33  0.009310 -0.057389 -0.045571  0.135028 0.026002 0.009765
34  0.068956 -0.193197 -0.059302  -0.006160 0.040548 -0.000329
35  0.008683 -0.056712 -0.045241  0.135029 0.025425 0.009563
36  0.102133 -0.077572 -0.031829  0.000018 0.198946 0.025528
37  0.034314 -0.028672 -0.001806  0.029545 0.073997 -0.202702
38  0.001143 0.000000 -0.181958  0.449801 -0.434722 -0.077011
39  0.004961 -0.000269 -0.096018  -0.436499 -0.568752 0.155537
40  -0.011623 0.003704 -0.088948  0.056151 -0.119047 -0.005366
41  -0.007644 0.000000 -0.210641  0.029595 -0.015828 0.001170
time 21
0  0 0 0  0 0 0
1  0.000000 0.000010 0.000000  -1.570796 -0.000000 0.000000
2  0.000000 0.000000 0.000000  0.000000 -0.000000 0.000000
3  0.000000 0.000000 0.000000  0.000000 -0.000000 0.000000
4  0.006445 -0.000000 0.753335  0.000000 -0.000000 0.000000
5  -0.014570 0.000000 -0.620319  -0.000000 -1.927326 -0.000000
6  0.000000 0.000000 -0.000000  0.000000 0.000000 0.000000
7  0.000000 0.000000 0.000000  0.000000 0.769113 0.000000
8  0.002937 -0.000000 0.194891  0.000000 0.403007 0.000000
9  0.003500 0.000000 0.083408  0.000000 0.487676 0.000000
10  -0.012239 -0.000000 0.122389  0.000000 0.247276 0.000000
11  0.000267 0.000000 0.055137  0.000000 -0.318168 0.000000
12  0.003234 0.000000 0.052281  0.000000 0.339342 0.000000
13  -0.001319 0.000000 0.060214  0.000000 0.315022 0.000000
14  -0.039876 0.060989 0.002159  -0.458310 0.026961 0.047866
15  0.043265 0.077505 0.036874  0.000000 -0.000000 0.000000
16  0.000000 0.000000 -0.000000  0.083161 -0.534724 -0.242119
17  0.020260 0.201078 -0.017731  0.103060 -0.094095 -1.682102
18  0.010537 0.100376 -0.010148  -0.157153 -0.828316 0.155509
19  0.018646 0.186860 -0.018292  0.001047 -0.000106 0.000013
20  -0.032088 0.200172 -0.061335  -0.077925 0.046850 -0.004304
21  0.009278 0.058322 -0.044375  -0.119717 0.041303 -0.009838
22  0.069086 0.193199 -0.059144  -0.078054 0.039871 -0.003684
23  0.008560 0.057628 -0.044090  -0.119765 0.038606 -0.009259
24  0.102185 0.077529 -0.031768  0.000408 0.131041 -0.090198
25  0.038420 0.022931 -0.000959  -0.024715 0.133491 0.360872
26  -0.039647 -0.056266 0.002069  0.467597 0.038381 -0.041575
27  0.042761 -0.082398 0.038132  -0.000000 -0.000000 -0.000000
28  0.000000 0.000000 0.000000  -0.164235 -0.045825 -0.476406
29  0.020122 -0.201078 -0.017893  -0.132622 -0.088743 1.982296
30  0.010469 -0.100374 -0.010235  0.278363 -1.059283 -0.280786
31  0.018520 -0.186856 -0.018449  0.728934 0.064345 0.034505
32  -0.032222 -0.200101 -0.061496  -0.005540 0.040578 0.000188
33  0.009310 -0.057389 -0.045571  0.136195 0.026090 0.009856
34  0.068956 -0.193197 -0.059302  -0.005418 0.040726 -0.000753
35  0.008683 -0.056712 -0.045241  0.135812 0.025490 0.009628
36  0.102133 -0.077572 -0.031829  0.000018 0.198946 0.025529
37  0.034314 -0.028672 -0.001806  0.029545 0.073997 -0.202702
38  0.001143 0.000000 -0.181958  0.427687 -0.346309 -0.053033
39  0.004961 -0.000269 -0.096018  -0.422253 -0.549474 0.146381
40  -0.011623 0.003704 -0.088948  0.037928 -0.021516 -0.001753
41  -0.007644 0.000000 -0.210641  0.027838 -0.016962 0.001131
time 22
0  0 0 0  0 0 0
1  0.000000 0.000010 0.000000  -1.570796 -0.000000 0.000000
2  0.000000 0.000000 0.000000  0.000000 -0.000000 0.000000
3  0.000000 0.000000 0.000000  0.000000 -0.000000 0.000000
4  0.006445 -0.000000 0.753335  0.000000 -0.000000 0.000000
5  -0.059619 0.000000 -0.671351  0.000000 -1.424134 0.000000
6  -0.000000 -0.000000 0.000000  0.000000 -0.000000 0.000000
7  -0.000000 -0.000000 0.000000  0.000000 0.284914 0.000000
8  0.002937 0.000000 0.194891  0.000000 -0.022529 0.000000
9  0.003500 0.000000 0.083408  0.000000 0.001894 0.000000
10  -0.012239 0.000000 0.122389  0.000000 -0.058093 0.000000
11  0.000267 -0.000000 0.055138  0.000000 -0.291667 0.000000
12  0.003234 -0.000000 0.052281  0.000000 0.107475 0.000000
13  -0.001319 0.000000 0.060214  0.000000 -0.104423 0.000000
14  -0.039876 0.060989 0.002159  0.353750 0.989057 0.478705
15  0.043265 0.077505 0.036874  0.000000 -0.000000 -0.000000
16  0.000000 0.000000 -0.000000  -0.223470 -0.475392 -0.103553
17  0.020260 0.201078 -0.017731  0.134750 -0.086727 -2.018713
18  0.010537 0.100376 -0.010148  -0.058173 -0.444301 0.057176
19  0.018646 0.186860 -0.018292  -0.100548 0.010323 -0.001836
20  -0.032087 0.200172 -0.061335  -0.077924 0.046850 -0.004304
21  0.009278 0.058322 -0.044375  -0.119717 0.041303 -0.009838
22  0.069086 0.193199 -0.059144  -0.078054 0.039871 -0.003684
23  0.008560 0.057628 -0.044090  -0.119765 0.038606 -0.009259
24  0.102185 0.077529 -0.031768  0.000408 0.131041 -0.090198
25  0.038420 0.022931 -0.000959  -0.024715 0.133491 0.360872
26  -0.039647 -0.056266 0.002069  -0.346080 1.042267 -0.473458
27  0.042761 -0.082398 0.038132  0.000000 -0.000000 0.000000
28  -0.000000 -0.000000 0.000000  0.189708 -0.912634 -0.217957
29  0.020122 -0.201078 -0.017893  -0.140063 -0.085584 2.064848
30  0.010469 -0.100374 -0.010235  0.295320 -1.079540 -0.297804
31  0.018520 -0.186856 -0.018450  0.333421 0.032561 0.009873
32  -0.032222 -0.200101 -0.061496  -0.000705 0.039855 0.004331
33  0.009310 -0.057389 -0.045571  0.145526 0.026792 0.010588
34  0.068956 -0.193197 -0.059302  0.000520 0.042166 -0.004164
35  0.008683 -0.056712 -0.045241  0.142091 0.025970 0.010121
36  0.102133 -0.077572 -0.031829  0.000018 0.198946 0.025529
37  0.034314 -0.028672 -0.001806  0.029545 0.073997 -0.202702
38  0.001143 0.000000 -0.181958  0.388526 -0.030120 0.014444
39  0.004961 -0.000269 -0.096018  -0.367686 0.001867 0.047928
40  -0.011623 0.003704 -0.088948  0.014891 0.183903 0.000858
41  -0.007644 0.000000 -0.210641  0.004576 -0.013943 0.000383
time 23
0  0 0 0  0 0 0
1  0.000000 0.000010 0.000000  -1.570796 -0.000000 0.000000
2  0.000000 0.000000 0.000000  0.000000 -0.000000 0.000000
3  0.000000 0.000000 0.000000  0.000000 -0.000000 0.000000
4  0.006445 -0.000000 0.753335  0.000000 -0.000000 0.000000
5  -0.104497 -0.000000 -0.693389  0.000000 -1.104567 0.000000
6  0.000000 0.000000 0.000000  0.000000 -0.000000 0.000000
7  0.000000 0.000000 0.000000  0.000000 -0.001257 0.000000
8  0.002937 0.000000 0.194891  0.000000 -0.308823 0.000000
9  0.003500 0.000000 0.083408  0.000000 -0.304389 0.000000
10  -0.012239 0.000000 0.122389  0.000000 -0.224598 0.000000
11  0.000267 0.000000 0.055138  0.000000 -0.285519 0.000000
12  0.003234 -0.000000 0.052281  0.000000 -0.114176 0.000000
13  -0.001319 -0.000000 0.060214  0.000000 -0.367876 0.000000
14  -0.039876 0.060989 0.002159  1.855302 1.007533 1.789133
15  0.043265 0.077505 0.036874  0.000000 0.000000 0.000000
16  0.000000 -0.000000 -0.000000  0.457966 -0.548228 -0.846029
17  0.020260 0.201078 -0.017731  0.087952 -0.093841 -1.526350
18  0.010537 0.100376 -0.010148  -0.020917 -0.189288 0.020449
19  0.018646 0.186860 -0.018292  0.003400 -0.000339 0.000043
20  -0.032088 0.200172 -0.061335  -0.077924 0.046850 -0.004304
21  0.009278 0.058322 -0.044375  -0.119717 0.041303 -0.009838
22  0.069086 0.193199 -0.059144  -0.078054 0.039872 -0.003684
23  0.008560 0.057628 -0.044090  -0.119765 0.038606 -0.009259
24  0.102185 0.077529 -0.031768  0.000408 0.131041 -0.090198
25  0.038420 0.022931 -0.000959  -0.024715 0.133491 0.360872
26  -0.039647 -0.056266 0.002069  1.142998 2.131689 1.210697
27  0.042761 -0.082398 0.038132  -0.000000 -0.000000 -0.000000
28  -0.000000 -0.000000 0.000000  -0.614135 -1.815789 0.745507
29  0.020122 -0.201078 -0.017893  -0.129164 -0.089972 1.944822
30  0.010469 -0.100374 -0.010235  0.304258 -1.089524 -0.306766
31  0.018520 -0.186856 -0.018449  -0.046860 -0.004768 -0.000499
32  -0.032222 -0.200101 -0.061496  0.005647 0.038903 0.009837
33  0.009310 -0.057389 -0.045571  0.157815 0.027702 0.011558
34  0.068956 -0.193197 -0.059302  0.008276 0.044095 -0.008650
35  0.008683 -0.056712 -0.045241  0.150350 0.026556 0.010748
36  0.102133 -0.077572 -0.031829  0.000018 0.198946 0.025528
37  0.034314 -0.028672 -0.001806  0.029545 0.073997 -0.202702
38  0.001114 0.000000 -0.178302  0.386252 0.050317 0.029808
39  0.004961 -0.000269 -0.096018  -0.337772 0.386249 -0.005990
40  -0.011623 0.003704 -0.088948  0.054563 0.311041 0.006664
41  -0.007644 0.000000 -0.210641  -0.008038 -0.043862 0.000701
time 24
0  0 0 0  0 0 0
1  0.000000 0.000010 0.000000  -1.570796 -0.000000 0.000000
2  0.000000 0.000000 0.000000  0.000000 -0.000000 0.000000
3  0.000000 0.000000 0.000000  0.000000 -0.000000 0.000000
4  0.006445 -0.000000 0.753335  0.000000 -0.000000 0.000000
5  -0.148913 -0.000000 -0.693633  0.000000 -1.009188 0.000000
6  0.000000 -0.000000 -0.000000  0.000000 -0.000000 0.000000
7  0.000000 -0.000000 0.000000  0.000000 0.015247 0.000000
8  0.002937 0.000000 0.194891  0.000000 -0.362043 0.000000
9  0.003500 0.000000 0.083408  0.000000 -0.325208 0.000000
10  -0.012239 0.000000 0.122389  0.000000 -0.187081 0.000000
11  0.000267 0.000000 0.055138  0.000000 -0.304992 0.000000
12  0.003234 -0.000000 0.052281  0.000000 -0.271124 0.000000
13  -0.001319 -0.000000 0.060214  0.000000 -0.383918 0.000000
14  -0.039876 0.060989 0.002159  1.725907 1.051493 1.680145
15  0.043265 0.077505 0.036874  0.000000 0.000000 -0.000000
16  -0.000000 -0.000000 -0.000000  0.754957 -0.364433 -0.939015
17  0.020260 0.201078 -0.017731  0.036934 -0.073443 -0.952852
18  0.010537 0.100376 -0.010148  -0.021890 -0.197132 0.021399
19  0.018646 0.186860 -0.018292  0.370550 -0.038482 -0.002297
20  -0.032088 0.200172 -0.061335  -0.077924 0.046850 -0.004304
21  0.009278 0.058322 -0.044375  -0.119717 0.041303 -0.009838
22  0.069086 0.193199 -0.059144  -0.078054 0.039872 -0.003684
23  0.008560 0.057628 -0.044090  -0.119765 0.038606 -0.009259
24  0.102185 0.077529 -0.031768  0.000408 0.131041 -0.090198
25  0.038420 0.022931 -0.000959  -0.024715 0.133491 0.360872
26  -0.039647 -0.056266 0.002069  1.266766 2.077882 1.313398
27  0.042761 -0.082398 0.038132  0.000000 -0.000000 0.000000
28  -0.000000 0.000000 0.000000  -0.089989 -1.938452 0.299881
29  0.020122 -0.201078 -0.017893  -0.106042 -0.094718 1.703236
30  0.010469 -0.100374 -0.010235  0.303221 -1.088419 -0.305737
31  0.018520 -0.186856 -0.018449  -0.286949 -0.029320 0.000464
32  -0.032222 -0.200100 -0.061496  0.006252 0.038777 0.010352
33  0.009310 -0.057389 -0.045571  0.158955 0.027789 0.011651
34  0.068956 -0.193197 -0.059302  0.008998 0.044277 -0.009060
35  0.008683 -0.056712 -0.045241  0.151115 0.026600 0.010800
36  0.102133 -0.077572 -0.031830  0.000018 0.198946 0.025529
37  0.034315 -0.028672 -0.001806  0.029545 0.073997 -0.202702
38  0.001192 -0.000000 -0.170319  0.392002 -0.049224 0.010868
39  0.004961 -0.000269 -0.096018  -0.357188 0.433305 -0.014279
40  -0.011623 0.003704 -0.088948  0.080217 0.410853 0.013940
41  -0.007644 0.000000 -0.210641  0.000793 0.001794 0.000037
time 25
0  0 0 0  0 0 0
1  0.000000 0.000010 0.000000  -1.570796 -0.000000 0.000000
2  0.000000 0.000000 0.000000  0.000000 -0.000000 0.000000
3  0.000000 0.000000 0.000000  0.000000 -0.000000 0.000000
4  0.006445 -0.000000 0.753335  0.000000 -0.000000 0.000000
5  -0.192527 -0.000000 -0.679257  0.000000 -1.069544 0.000000
6  0.000000 0.000000 0.000000  0.000000 -0.000000 0.000000
7  0.000000 0.000000 -0.000000  0.000000 0.107902 0.000000
8  0.002937 0.000000 0.194891  0.000000 -0.317684 0.000000
9  0.003500 0.000000 0.083408  0.000000 -0.247340 0.000000
10  -0.012239 0.000000 0.122389  0.000000 -0.103075 0.000000
11  0.000267 0.000000 0.055138  0.000000 -0.316390 0.000000
12  0.003234 -0.000000 0.052281  0.000000 -0.316390 0.000000
13  -0.001318 0.000000 0.060214  0.000000 -0.316390 0.000000
14  -0.039876 0.060989 0.002159  1.194970 1.127859 1.213132
15  0.043265 0.077505 0.036874  0.000000 -0.000000 -0.000000
16  -0.000000 0.000000 0.000000  0.802165 -0.259878 -1.044733
17  0.020260 0.201078 -0.017731  0.007903 -0.035742 -0.458809
18  0.010537 0.100376 -0.010148  -0.024900 -0.221253 0.024376
19  0.018646 0.186860 -0.018292  0.627380 -0.063364 -0.012059
20  -0.032087 0.200172 -0.061335  -0.077924 0.046850 -0.004304
21  0.009278 0.058322 -0.044375  -0.119717 0.041303 -0.009838
22  0.069086 0.193200 -0.059144  -0.078054 0.039872 -0.003684
23  0.008560 0.057628 -0.044090  -0.119765 0.038606 -0.009259
24  0.102185 0.077529 -0.031768  0.000408 0.131041 -0.090198
25  0.038420 0.022931 -0.000959  -0.024715 0.133491 0.360872
26  -0.039647 -0.056266 0.002069  -1.315013 1.172361 -1.334161
27  0.042761 -0.082398 0.038132  -0.000000 -0.000000 0.000000
28  0.000000 -0.000000 0.000000  0.387673 -2.031929 0.060828
29  0.020122 -0.201078 -0.017893  -0.081236 -0.093616 1.449023
30  0.010469 -0.100374 -0.010235  0.239896 -1.006363 -0.242252
31  0.018520 -0.186856 -0.018449  -0.482155 -0.048629 0.005540
32  -0.032223 -0.200101 -0.061496  -0.006144 0.040671 -0.000322
33  0.009310 -0.057389 -0.045571  0.135028 0.026002 0.009765
34  0.068956 -0.193197 -0.059302  -0.006160 0.040548 -0.000329
35  0.008683 -0.056712 -0.045241  0.135029 0.025425 0.009563
36  0.102133 -0.077572 -0.031830  0.000018 0.198946 0.025529
37  0.034314 -0.028672 -0.001806  0.029545 0.073997 -0.202702
38  0.001216 -0.000000 -0.165770  0.397344 -0.099849 0.000951
39  0.004961 -0.000269 -0.096018  -0.367014 0.455360 -0.018645
40  -0.011623 0.003704 -0.088948  0.080982 0.412128 0.014128
41  -0.007644 0.000000 -0.210641  0.002503 0.006653 0.000008
time 26
0  0 0 0  0 0 0
1  0.000000 0.000010 0.000000  -1.570796 -0.000000 0.000000
2  0.000000 0.000000 0.000000  0.000000 -0.000000 0.000000
3  0.000000 0.000000 0.000000  0.000000 -0.000000 0.000000
4  0.006445 -0.000000 0.753335  0.000000 -0.000000 0.000000
5  -0.234924 -0.000000 -0.657657  0.000000 -1.322296 0.000000
6  -0.000000 -0.000000 -0.000000  0.000000 0.000000 0.000000
7  -0.000000 -0.000000 -0.000000  0.000000 0.260362 0.000000
8  0.002937 0.000000 0.194891  0.000000 -0.164522 0.000000
9  0.003500 0.000000 0.083408  0.000000 -0.075538 0.000000
10  -0.012239 0.000000 0.122389  0.000000 -0.000428 0.000000
11  0.000267 0.000000 0.055138  0.000000 -0.316675 0.000000
12  0.003234 -0.000000 0.052281  0.000000 -0.142276 0.000000
13  -0.001319 0.000000 0.060214  0.000000 -0.162583 0.000000
14  -0.039876 0.060989 0.002159  0.471166 1.034012 0.576370
15  0.043265 0.077505 0.036874  -0.000000 -0.000000 -0.000000
16  -0.000000 0.000000 0.000000  0.821084 -0.549426 -0.984629
17  0.020260 0.201078 -0.017731  0.032842 -0.070036 -0.898066
18  0.010537 0.100376 -0.010148  -0.017530 -0.161270 0.017131
19  0.018646 0.186860 -0.018292  0.540523 -0.055279 -0.008051
20  -0.032087 0.200172 -0.061335  -0.077924 0.046850 -0.004304
21  0.009278 0.058322 -0.044375  -0.119717 0.041303 -0.009838
22  0.069086 0.193200 -0.059144  -0.078054 0.039872 -0.003684
23  0.008560 0.057628 -0.044090  -0.119765 0.038606 -0.009259
24  0.102185 0.077529 -0.031768  0.000408 0.131041 -0.090199
25  0.038420 0.022931 -0.000959  -0.024715 0.133491 0.360872
26  -0.039647 -0.056266 0.002069  -0.473645 1.088874 -0.581472
27  0.042761 -0.082398 0.038132  0.000000 -0.000000 -0.000000
28  0.000000 0.000000 0.000000  0.573287 -1.950492 -0.050272
29  0.020122 -0.201078 -0.017893  -0.066959 -0.090032 1.298584
30  0.010469 -0.100374 -0.010235  0.119951 -0.732254 -0.121760
31  0.018520 -0.186856 -0.018450  -0.695348 -0.068148 0.015246
32  -0.032222 -0.200101 -0.061496  -0.057455 0.048482 -0.044465
33  0.009310 -0.057389 -0.045571  0.035976 0.018178 0.002452
34  0.068956 -0.193197 -0.059302  -0.068823 0.024739 0.035961
35  0.008683 -0.056712 -0.045241  0.068481 0.020392 0.004670
36  0.102133 -0.077572 -0.031829  0.000018 0.198946 0.025529
37  0.034314 -0.028672 -0.001806  0.029545 0.073997 -0.202702
38  0.001192 0.000000 -0.170854  0.402339 -0.059419 0.009081
39  0.004961 -0.000269 -0.096018  -0.380682 0.347812 -0.002793
40  -0.011623 0.003704 -0.088948  0.060119 0.325835 0.007768
41  -0.007644 0.000000 -0.210641  -0.010226 -0.091396 0.001812
time 27
0  0 0 0  0 0 0
1  0.000000 0.000010 0.000000  -1.570796 -0.000000 0.000000
2  0.000000 0.000000 0.000000  0.000000 -0.000000 0.000000
3  0.000000 0.000000 0.000000  0.000000 -0.000000 0.000000
4  0.006445 -0.000000 0.753335  0.000000 -0.000000 0.000000
5  -0.275789 -0.000000 -0.637808  -0.000000 -1.662459 -0.000000
6  0.000000 0.000000 0.000000  0.000000 -0.000000 0.000000
7  0.000000 0.000000 -0.000000  0.000000 0.442327 0.000000
8  0.002937 0.000000 0.194891  0.000000 0.041591 0.000000
9  0.003500 0.000000 0.083408  0.000000 0.144299 0.000000
10  -0.012239 0.000000 0.122389  0.000000 0.116806 0.000000
11  0.000267 -0.000000 0.055138  0.000000 -0.308868 0.000000
12  0.003234 0.000000 0.052281  0.000000 0.117681 0.000000
13  -0.001319 -0.000000 0.060214  0.000000 0.032102 0.000000
14  -0.039876 0.060989 0.002159  0.011344 0.759060 0.221259
15  0.043265 0.077505 0.036874  -0.000000 -0.000000 0.000000
16  -0.000000 -0.000000 0.000000  1.172974 -0.272722 -0.966356
17  0.020260 0.201078 -0.017731  0.030594 -0.067993 -0.866819
18  0.010537 0.100376 -0.010148  -0.008582 -0.082609 0.008388
19  0.018646 0.186860 -0.018292  0.262024 -0.027317 -0.000145
20  -0.032088 0.200172 -0.061335  -0.077925 0.046850 -0.004304
21  0.009278 0.058322 -0.044375  -0.119717 0.041303 -0.009838
22  0.069086 0.193199 -0.059144  -0.078054 0.039871 -0.003684
23  0.008560 0.057628 -0.044090  -0.119765 0.038606 -0.009259
24  0.102185 0.077529 -0.031768  0.000408 0.131041 -0.090198
25  0.038420 0.022931 -0.000959  -0.024715 0.133491 0.360872
26  -0.039647 -0.056266 0.002069  0.014983 0.795920 -0.198679
27  0.042761 -0.082398 0.038132  -0.000000 -0.000000 -0.000000
28  -0.000000 0.000000 0.000000  0.985030 -1.780458 -0.551122
29  0.020122 -0.201078 -0.017893  -0.056191 -0.085731 1.180143
30  0.010469 -0.100374 -0.010235  0.044873 -0.376003 -0.045919
31  0.018520 -0.186856 -0.018449  -0.811444 -0.077746 0.022204
32  -0.032222 -0.200100 -0.061496  -0.126775 0.058547 -0.103612
33  0.009310 -0.057389 -0.045571  -0.096987 0.006630 -0.006074
34  0.068956 -0.193197 -0.059302  -0.153222 0.003589 0.085422
35  0.008683 -0.056712 -0.045241  -0.020922 0.013119 -0.001367
36  0.102133 -0.077572 -0.031830  0.000018 0.198946 0.025529
37  0.034314 -0.028672 -0.001806  0.029545 0.073997 -0.202702
38  0.001114 0.000000 -0.179032  0.414513 -0.141803 -0.007791
39  0.004961 -0.000269 -0.096018  -0.414360 0.166704 0.026807
40  -0.011623 0.003704 -0.088948  0.035616 0.219587 0.002661
41  -0.007644 0.000000 -0.210641  0.000404 -0.060770 0.001161
time 28
0  0 0 0  0 0 0
1  0.000000 0.000010 0.000000  -1.570796 -0.000000 0.000000
2  0.000000 0.000000 0.000000  0.000000 -0.000000 0.000000
3  0.000000 0.000000 0.000000  0.000000 -0.000000 0.000000
4  0.006445 -0.000000 0.753335  0.000000 -0.000000 0.000000
5  -0.314976 -0.000000 -0.626935  -0.000000 -1.891853 -0.000000
6  -0.000000 -0.000000 -0.000000  0.000000 -0.000000 0.000000
7  -0.000000 -0.000000 -0.000000  0.000000 0.520172 0.000000
8  0.002937 0.000000 0.194891  0.000000 0.198489 0.000000
9  0.003500 0.000000 0.083408  0.000000 0.299112 0.000000
10  -0.012239 0.000000 0.122389  0.000000 0.190399 0.000000
11  0.000267 0.000000 0.055138  0.000000 -0.265002 0.000000
12  0.003234 0.000000 0.052281  0.000000 0.309151 0.000000
13  -0.001319 0.000000 0.060214  0.000000 0.150523 0.000000
14  -0.039876 0.060989 0.002159  -0.150607 0.568927 0.126573
15  0.043265 0.077505 0.036874  -0.000000 -0.000000 -0.000000
16  -0.000000 -0.000000 0.000000  1.182310 -0.221643 -1.614566
17  0.020260 0.201078 -0.017731  0.013749 -0.047122 -0.590247
18  0.010537 0.100376 -0.010148  -0.001760 -0.017685 0.001734
19  0.018646 0.186860 -0.018292  -0.438072 0.042785 -0.015363
20  -0.032088 0.200172 -0.061335  -0.077924 0.046850 -0.004304
21  0.009278 0.058322 -0.044375  -0.119717 0.041303 -0.009838
22  0.069086 0.193200 -0.059144  -0.078054 0.039871 -0.003684
23  0.008560 0.057628 -0.044090  -0.119765 0.038606 -0.009259
24  0.102185 0.077529 -0.031768  0.000408 0.131041 -0.090198
25  0.038420 0.022931 -0.000959  -0.024715 0.133491 0.360872
26  -0.039647 -0.056266 0.002069  0.174261 0.595935 -0.107071
27  0.042761 -0.082398 0.038132  0.000000 -0.000000 0.000000
28  -0.000000 0.000000 0.000000  -0.611839 -1.344213 0.613889
29  0.020122 -0.201078 -0.017893  -0.068964 -0.090674 1.320083
30  0.010469 -0.100374 -0.010235  0.007968 -0.080561 -0.008223
31  0.018520 -0.186856 -0.018450  -0.242648 -0.024841 -0.000157
32  -0.032222 -0.200100 -0.061496  -0.158196 0.062728 -0.130241
33  0.009310 -0.057389 -0.045571  -0.156931 0.001079 -0.009398
34  0.068956 -0.193197 -0.059302  -0.191436 -0.005735 0.108038
35  0.008683 -0.056712 -0.045241  -0.061228 0.009656 -0.003878
36  0.102133 -0.077572 -0.031829  0.000018 0.198946 0.025528
37  0.034314 -0.028672 -0.001806  0.029545 0.073997 -0.202702
38  0.001143 0.000000 -0.181958  0.466686 -0.468914 -0.088644
39  0.004961 -0.000269 -0.096018  -0.449329 -0.013862 0.061634
40  -0.011623 0.003704 -0.088948  0.019910 0.264911 0.001975
41  -0.007644 0.000000 -0.210641  0.013624 0.060399 -0.000248
time 29
0  0 0 0  0 0 0
1  0.000000 0.000010 0.000000  -1.570796 -0.000000 0.000000
2  0.000000 0.000000 0.000000  0.000000 -0.000000 0.000000
3  0.000000 0.000000 0.000000  0.000000 -0.000000 0.000000
4  0.006445 -0.000000 0.753335  0.000000 -0.000000 0.000000
5  -0.320960 -0.000000 -0.625135  -0.000000 -1.843724 -0.000000
6  -0.000000 0.000000 -0.000000  0.000000 -0.000000 0.000000
7  -0.000000 0.000000 -0.000000  0.000000 0.370537 0.000000
8  0.002937 0.000000 0.194891  0.000000 0.227998 0.000000
9  0.003500 0.000000 0.083408  0.000000 0.289808 0.000000
10  -0.012239 -0.000000 0.122389  0.000000 0.161871 0.000000
11  0.000267 -0.000000 0.055138  0.000000 -0.133001 0.000000
12  0.003234 0.000000 0.052281  0.000000 0.305063 0.000000
13  -0.001318 0.000000 0.060214  0.004190 0.076202 0.020152
14  -0.039876 0.060989 0.002159  -0.081366 0.658493 0.163839
15  0.043265 0.077505 0.036874  -0.000000 0.000000 -0.000000
16  -0.000000 0.000000 0.000000  1.301314 -0.717024 -1.780473
17  0.020260 0.201078 -0.017731  0.040410 -0.076056 -0.997609
18  0.010537 0.100376 -0.010148  -0.040297 -0.333393 0.039544
19  0.018646 0.186860 -0.018292  -0.852862 0.073554 -0.045322
20  -0.032087 0.200172 -0.061335  -0.067975 0.045963 -0.003718
21  0.009278 0.058322 -0.044375  -0.119717 0.041303 -0.009838
22  0.069086 0.193199 -0.059144  -0.068073 0.039178 -0.003191
23  0.008560 0.057628 -0.044090  -0.119765 0.038606 -0.009259
24  0.102185 0.077529 -0.031768  0.000408 0.131041 -0.090199
25  0.038420 0.022931 -0.000959  -0.024715 0.133491 0.360872
26  -0.039647 -0.056266 0.002069  0.106815 0.689810 -0.142404
27  0.042761 -0.082398 0.038132  0.000000 0.000000 0.000000
28  -0.000000 -0.000000 0.000000  0.646593 -1.306060 -0.814855
29  0.020122 -0.201078 -0.017893  -0.095054 -0.095007 1.590948
30  0.010469 -0.100374 -0.010235  -0.001854 0.020130 0.001954
31  0.018520 -0.186856 -0.018449  0.424346 0.040696 0.014390
32  -0.032222 -0.200101 -0.061496  -0.129161 0.058704 -0.105681
33  0.009310 -0.057389 -0.045571  -0.101562 0.006170 -0.006360
34  0.068956 -0.193197 -0.059302  -0.156150 0.003050 0.087186
35  0.008683 -0.056712 -0.045241  -0.023969 0.012863 -0.001561
36  0.102133 -0.077572 -0.031830  0.000018 0.198946 0.025529
37  0.034314 -0.028672 -0.001806  0.029545 0.073997 -0.202702
38  0.001396 0.000000 -0.147311  0.426086 -0.072638 0.006835
39  0.004961 -0.000269 -0.096018  -0.493230 -0.563458 0.178248
40  -0.011623 0.003704 -0.088948  0.046064 -0.123218 -0.004454
41  -0.007644 0.000000 -0.210641  0.027163 -0.070485 0.001439
time 30
0  0 0 0  0 0 0
1  0.000000 0.000010 0.000000  -1.570796 -0.000000 0.000000
2  0.000000 0.000000 0.000000  0.000000 -0.000000 0.000000
3  0.000000 0.000000 0.000000  0.000000 -0.000000 0.000000
4  0.006445 -0.000000 0.753335  0.000000 -0.000000 0.000000
5  -0.300406 -0.000000 -0.625135  0.000000 -1.550598 0.000000
6  -0.000000 0.000000 0.000000  0.000000 -0.000000 0.000000
7  -0.000000 0.000000 0.000000  0.000000 0.011658 0.000000
8  0.002937 0.000000 0.194891  0.000000 0.149434 0.000000
9  0.003500 0.000000 0.083408  0.000000 0.133709 0.000000
10  -0.012239 -0.000000 0.122389  0.000000 0.037600 0.000000
11  0.000267 0.000000 0.055138  0.000000 0.091952 0.000000
12  0.003234 -0.000000 0.052281  0.000000 0.131752 0.000000
13  -0.001319 -0.000000 0.060214  0.013284 -0.177539 0.067034
14  -0.039876 0.060989 0.002159  0.335987 0.981137 0.464245
15  0.043265 0.077505 0.036874  0.000000 -0.000000 -0.000000
16  0.000000 -0.000000 -0.000000  -1.414850 -1.826312 1.326707
17  0.020260 0.201078 -0.017731  0.067778 -0.089749 -1.313980
18  0.010537 0.100376 -0.010148  -0.191504 -0.907791 0.189708
19  0.018646 0.186860 -0.018292  -0.872465 0.074674 -0.047028
20  -0.032087 0.200172 -0.061335  -0.044797 0.043912 -0.002399
21  0.009278 0.058322 -0.044375  -0.119717 0.041303 -0.009838
22  0.069086 0.193199 -0.059144  -0.044851 0.037482 -0.002052
23  0.008560 0.057628 -0.044090  -0.119765 0.038606 -0.009259
24  0.102185 0.077529 -0.031768  0.000408 0.131041 -0.090199
25  0.038420 0.022931 -0.000959  -0.024715 0.133491 0.360872
26  -0.039647 -0.056266 0.002069  -0.323410 1.032365 -0.454617
27  0.042760 -0.082398 0.038132  -0.000000 -0.000000 0.000000
28  -0.000000 -0.000000 0.000000  1.952734 -0.874998 -1.761659
29  0.020122 -0.201078 -0.017893  -0.107834 -0.094554 1.721612
30  0.010469 -0.100374 -0.010235  -0.001602 0.017204 0.001672
31  0.018520 -0.186856 -0.018450  0.763239 0.066558 0.037177
32  -0.032222 -0.200100 -0.061496  -0.079389 0.051429 -0.063326
33  0.009310 -0.057389 -0.045571  -0.006192 0.014607 -0.000435
34  0.068956 -0.193197 -0.059302  -0.095635 0.018351 0.051616
35  0.008683 -0.056712 -0.045241  0.040126 0.018149 0.002688
36  0.102133 -0.077572 -0.031830  0.000018 0.198946 0.025529
37  0.034314 -0.028672 -0.001806  0.029545 0.073997 -0.202702
38  0.001338 0.000000 -0.146068  0.423979 0.250085 0.075040
39  0.004961 -0.000269 -0.096018  -0.584267 -0.958334 0.319146
40  -0.011623 0.003704 -0.088948  0.064638 -0.251443 -0.010450
41  -0.007644 0.000000 -0.210641  0.046808 -0.214728 0.000911
time 31
0  0 0 0  0 0 0
1  0.000000 0.000010 0.000000  -1.570796 -0.000000 0.000000
2  0.000000 0.000000 0.000000  0.000000 -0.000000 0.000000
3  0.000000 0.000000 0.000000  0.000000 -0.000000 0.000000
4  0.006445 -0.000000 0.753335  0.000000 -0.000000 0.000000
5  -0.279827 -0.000000 -0.625135  0.000000 -1.220397 0.000000
6  0.000000 -0.000000 0.000000  0.000000 -0.000000 0.000000
7  0.000000 -0.000000 0.000000  0.000000 -0.376539 0.000000
8  0.002937 0.000000 0.194891  0.000000 0.039960 0.000000
9  0.003500 0.000000 0.083408  0.000000 -0.035443 0.000000
10  -0.012239 0.000000 0.122389  0.000000 -0.085103 0.000000
11  0.000267 0.000000 0.055137  0.000000 0.269756 0.000000
12  0.003234 0.000000 0.052281  0.000000 -0.057867 0.000000
13  -0.001319 -0.000000 0.060214  0.011401 -0.418018 0.060457
14  -0.039876 0.060989 0.002159  1.312370 1.122097 1.317834
15  0.043265 0.077505 0.036874  0.000000 0.000000 -0.000000
16  -0.000000 -0.000000 0.000000  -0.976220 -1.378988 0.994757
17  0.020260 0.201078 -0.017731  0.057258 -0.085744 -1.198009
18  0.010537 0.100376 -0.010148  -1.078975 -1.359180 1.076394
19  0.018646 0.186860 -0.018292  -0.735168 0.066102 -0.035545
20  -0.032088 0.200172 -0.061335  -0.048071 0.044224 -0.002589
21  0.009278 0.058322 -0.044375  -0.119717 0.041303 -0.009838
22  0.069086 0.193199 -0.059144  -0.048144 0.037732 -0.002213
23  0.008560 0.057628 -0.044090  -0.119765 0.038606 -0.009259
24  0.102185 0.077529 -0.031768  0.000408 0.131041 -0.090198
25  0.038420 0.022931 -0.000959  -0.024715 0.133491 0.360872
26  -0.039647 -0.056266 0.002069  -1.446316 1.160848 -1.452432
27  0.042760 -0.082398 0.038132  -0.000000 -0.000000 -0.000000
28  -0.000000 -0.000000 -0.000000  -0.601605 -2.722617 1.231581
29  0.020122 -0.201078 -0.017893  -0.094415 -0.094985 1.584416
30  0.010469 -0.100374 -0.010235  -0.000552 0.006023 0.000589
31  0.018520 -0.186856 -0.018449  0.877651 0.073374 0.046680
32  -0.032222 -0.200101 -0.061496  -0.031857 0.044553 -0.022494
33  0.009310 -0.057389 -0.045571  0.085341 0.022168 0.006000
34  0.068956 -0.193197 -0.059302  -0.037572 0.032717 0.017852
35  0.008683 -0.056712 -0.045241  0.101661 0.022954 0.007075
36  0.102133 -0.077572 -0.031830  0.000018 0.198946 0.025528
37  0.034314 -0.028672 -0.001806  0.029545 0.073997 -0.202702
38  0.001202 0.000000 -0.167646  0.386991 -0.084657 0.003854
39  0.004961 -0.000269 -0.096018  -0.417628 -0.517693 0.139218
40  -0.011623 0.003704 -0.088948  0.043480 -0.393100 -0.010153
41  -0.007644 0.000000 -0.210641  0.024698 -0.156311 0.002087
time 32
0  0 0 0  0 0 0
1  0.000000 0.000010 0.000000  -1.570796 -0.000000 0.000000
2  0.000000 0.000000 0.000000  0.000000 -0.000000 0.000000
3  0.000000 0.000000 0.000000  0.000000 -0.000000 0.000000
4  0.006445 -0.000000 0.753335  0.000000 -0.000000 0.000000
5  -0.281141 0.000000 -0.625135  0.000000 -1.107837 0.000000
6  -0.000000 0.000000 0.000000  0.000000 0.000000 0.000000
7  0.000000 0.000000 0.000000  0.000000 -0.566454 0.000000
8  0.002937 0.000000 0.194891  0.000000 -0.016541 0.000000
9  0.003500 0.000000 0.083408  0.000000 -0.048087 0.000000
10  -0.012239 0.000000 0.122389  0.000000 -0.075384 0.000000
11  0.000267 0.000000 0.055137  0.000000 0.186710 0.000000
12  0.003234 0.000000 0.052281  0.000000 -0.074658 0.000000
13  -0.001318 0.000000 0.060214  -0.015370 -0.379828 -0.135983
14  -0.039876 0.060989 0.002159  1.621019 1.078173 1.589791
15  0.043265 0.077505 0.036874  0.000000 -0.000000 0.000000
16  -0.000000 0.000000 0.000000  -0.563255 -1.164874 0.445051
17  0.020260 0.201078 -0.017731  0.032229 -0.069491 -0.889629
18  0.010537 0.100376 -0.010148  0.909702 -1.839102 -0.912645
19  0.018646 0.186860 -0.018292  -0.291012 0.029217 -0.008124
20  -0.032088 0.200172 -0.061335  -0.188521 0.056086 -0.011313
21  0.009278 0.058322 -0.044375  -0.143560 0.042874 -0.011923
22  0.069086 0.193199 -0.059144  -0.189486 0.047377 -0.009689
23  0.008560 0.057628 -0.044090  -0.141983 0.039918 -0.011068
24  0.102185 0.077529 -0.031768  0.000408 0.131041 -0.090198
25  0.038420 0.022931 -0.000959  -0.024715 0.133491 0.360872
26  -0.039647 -0.056266 0.002069  -1.771137 1.097866 -1.739539
27  0.042761 -0.082398 0.038132  -0.000000 -0.000000 -0.000000
28  -0.000000 -0.000000 -0.000000  -0.622036 -2.564883 1.310732
29  0.020122 -0.201078 -0.017893  -0.051218 -0.083219 1.123259
30  0.010469 -0.100374 -0.010235  0.000009 -0.000244 -0.000024
31  0.018520 -0.186856 -0.018450  0.548767 0.051109 0.021735
32  -0.032222 -0.200101 -0.061496  -0.003627 0.040282 0.001845
33  0.009310 -0.057389 -0.045571  0.139892 0.026365 0.010143
34  0.068956 -0.193197 -0.059302  -0.003067 0.041304 -0.002111
35  0.008683 -0.056712 -0.045241  0.138305 0.025679 0.009822
36  0.102133 -0.077572 -0.031829  0.000018 0.198946 0.025529
37  0.034314 -0.028672 -0.001806  0.029545 0.073997 -0.202702
38  0.001124 0.000000 -0.183072  0.390428 -0.399852 -0.059148
39  0.004961 -0.000269 -0.096018  -0.349378 -0.190197 0.070423
40  -0.011623 0.003704 -0.088948  0.009201 -0.264043 -0.001542
41  -0.007644 0.000000 -0.210641  0.007697 0.067342 -0.000718
time 33
0  0 0 0  0 0 0
1  0.000000 0.000010 0.000000  -1.570796 -0.000000 0.000000
2  0.000000 0.000000 0.000000  0.000000 -0.000000 0.000000
3  0.000000 0.000000 0.000000  0.000000 -0.000000 0.000000
4  0.006445 -0.000000 0.753335  0.000000 -0.000000 0.000000
5  -0.314051 0.000000 -0.625135  0.000000 -1.295507 0.000000
6  -0.000000 0.000000 -0.000000  0.000000 -0.000000 0.000000
7  0.000000 0.000000 -0.000000  0.000000 -0.481154 0.000000
8  0.002937 0.000000 0.194891  0.000000 -0.007642 0.000000
9  0.003500 0.000000 0.083408  0.000000 0.159877 0.000000
10  -0.012239 0.000000 0.122389  0.000000 0.125345 0.000000
11  0.000267 0.000000 0.055137  0.000000 -0.287900 0.000000
12  0.003234 -0.000000 0.052281  0.000000 0.151507 0.000000
13  -0.001319 0.000000 0.060214  -0.096512 0.061997 -0.611204
14  -0.039876 0.060989 0.002159  0.874551 1.116339 0.927428
15  0.043265 0.077505 0.036874  -0.000000 0.000000 0.000000
16  -0.000000 0.000000 0.000000  -0.498630 -1.090553 0.216608
17  0.020259 0.201078 -0.017731  0.012354 -0.044720 -0.561725
18  0.010537 0.100376 -0.010148  -1.663931 -1.371807 1.661189
19  0.018645 0.186860 -0.018292  0.523074 -0.053567 -0.007324
20  -0.032087 0.200172 -0.061335  -0.427967 0.073090 -0.029700
21  0.009278 0.058322 -0.044375  -0.143560 0.042874 -0.011923
22  0.069086 0.193199 -0.059144  -0.428985 0.060975 -0.025180
23  0.008560 0.057628 -0.044090  -0.141983 0.039918 -0.011068
24  0.102185 0.077529 -0.031768  0.000408 0.131041 -0.090198
25  0.038420 0.022931 -0.000959  -0.024715 0.133491 0.360872
26  -0.039647 -0.056266 0.002069  -0.942949 1.171284 -0.997523
27  0.042761 -0.082398 0.038132  0.000000 -0.000000 0.000000
28  0.000000 -0.000000 -0.000000  -0.142089 -3.088341 0.660448
29  0.020122 -0.201078 -0.017893  -0.034329 -0.071646 0.913950
30  0.010469 -0.100374 -0.010235  0.000009 -0.000244 -0.000024
31  0.018520 -0.186856 -0.018450  0.266838 0.026360 0.007043
32  -0.032222 -0.200100 -0.061496  -0.003627 0.040282 0.001845
33  0.009310 -0.057388 -0.045571  0.139892 0.026365 0.010143
34  0.068956 -0.193197 -0.059302  -0.003067 0.041304 -0.002111
35  0.008683 -0.056712 -0.045241  0.138305 0.025679 0.009822
36  0.102133 -0.077572 -0.031829  0.000018 0.198946 0.025529
37  0.034314 -0.028672 -0.001806  0.029545 0.073997 -0.202702
38  0.001124 0.000000 -0.183072  0.459014 -0.656273 -0.135130
39  0.004961 -0.000269 -0.096018  -0.366288 0.426306 -0.014055
40  -0.011623 0.003704 -0.088948  -0.010091 -0.053681 0.000613
41  -0.007644 0.000000 -0.210641  0.009604 0.110333 -0.001218
time 34
0  0 0 0  0 0 0
1  0.000000 0.000010 0.000000  -1.570796 -0.000000 0.000000
2  0.000000 0.000000 0.000000  0.000000 -0.000000 0.000000
3  0.000000 0.000000 0.000000  0.000000 -0.000000 0.000000
4  0.006445 -0.000000 0.753335  0.000000 -0.000000 0.000000
5  -0.327770 0.000000 -0.625135  0.000000 -1.382951 0.000000
6  0.000000 0.000000 -0.000000  0.000000 -0.000000 0.000000
7  0.000000 0.000000 0.000000  0.000000 -0.429758 0.000000
8  0.002937 0.000000 0.194891  0.000000 -0.000000 0.000000
9  0.003500 0.000000 0.083408  0.000000 0.247953 0.000000
10  -0.012239 0.000000 0.122389  0.000000 0.208878 0.000000
11  0.000267 0.000000 0.055138  0.000000 -0.481327 0.000000
12  0.003234 0.000000 0.052281  0.000000 0.247461 0.000000
13  -0.001319 0.000000 0.060214  -0.159620 0.237403 -0.804788
14  -0.039876 0.060989 0.002159  0.565549 1.062003 0.656814
15  0.043265 0.077505 0.036874  0.000000 0.000000 -0.000000
16  -0.000000 0.000000 0.000000  -0.434030 -1.119654 0.096923
17  0.020259 0.201078 -0.017731  0.003500 -0.023338 -0.323677
18  0.010537 0.100376 -0.010148  -1.199264 -1.367812 1.196655
19  0.018646 0.186860 -0.018292  0.531325 -0.054385 -0.007665
20  -0.032088 0.200172 -0.061335  0.120114 0.028547 0.005556
21  0.009278 0.058322 -0.044375  0.274343 0.009079 0.018254
22  0.069086 0.193199 -0.059144  0.130799 0.024205 0.005173
23  0.008560 0.057628 -0.044090  0.252276 0.011076 0.016108
24  0.102185 0.077529 -0.031768  0.000408 0.131041 -0.090198
25  0.038420 0.022931 -0.000959  -0.024715 0.133491 0.360872
26  -0.039647 -0.056266 0.002069  -0.580612 1.118155 -0.674333
27  0.042761 -0.082398 0.038132  0.000000 -0.000000 -0.000000
28  -0.000000 -0.000000 -0.000000  -0.121617 -3.115183 0.549584
29  0.020122 -0.201078 -0.017893  -0.027442 -0.065181 0.817581
30  0.010469 -0.100374 -0.010235  0.000000 -0.000000 -0.000000
31  0.018520 -0.186856 -0.018450  0.011976 0.001228 0.000165
32  -0.032222 -0.200100 -0.061496  -0.091356 0.032971 -0.004464
33  0.009310 -0.057389 -0.045571  0.135028 0.026002 0.009765
34  0.068956 -0.193197 -0.059302  -0.091368 0.032897 -0.004455
35  0.008683 -0.056713 -0.045241  0.135029 0.025425 0.009563
36  0.102133 -0.077572 -0.031829  0.000018 0.198946 0.025528
37  0.034314 -0.028672 -0.001806  0.029545 0.073997 -0.202702
38  0.001143 0.000000 -0.181958  0.484145 -0.734515 -0.165137
39  0.004961 -0.000269 -0.096018  -0.373936 0.667815 -0.055001
40  -0.011623 0.003704 -0.088948  -0.018063 0.024908 0.000385
41  -0.007644 0.000000 -0.210641  0.012239 0.104488 -0.000888
time 35
0  0 0 0  0 0 0
1  0.000000 0.000010 0.000000  -1.570796 -0.000000 0.000000
2  0.000000 0.000000 0.000000  0.000000 -0.000000 0.000000
3  0.000000 0.000000 0.000000  0.000000 -0.000000 0.000000
4  0.006445 -0.000000 0.753335  0.000000 -0.000000 0.000000
5  -0.327770 0.000000 -0.625135  0.000000 -1.382951 0.000000
6  0.000000 0.000000 -0.000000  0.000000 -0.000000 0.000000
7  0.000000 0.000000 0.000000  0.000000 -0.429758 0.000000
8  0.002937 0.000000 0.194891  0.000000 -0.000000 0.000000
9  0.003500 0.000000 0.083408  0.000000 0.247953 0.000000
10  -0.012239 0.000000 0.122389  0.000000 0.208878 0.000000
11  0.000267 0.000000 0.055138  0.000000 -0.481327 0.000000
12  0.003234 0.000000 0.052281  0.000000 0.247461 0.000000
13  -0.001319 0.000000 0.060214  -0.159620 0.237403 -0.804788
14  -0.039876 0.060989 0.002159  0.565549 1.062003 0.656814
15  0.043265 0.077505 0.036874  0.000000 0.000000 -0.000000
16  -0.000000 0.000000 0.000000  -0.479962 -1.079304 0.170143
17  0.020260 0.201078 -0.017731  0.006967 -0.033505 -0.433922
18  0.010537 0.100376 -0.010148  -1.258149 -1.370767 1.255529
19  0.018646 0.186860 -0.018292  0.071283 -0.007393 0.000668
20  -0.032087 0.200172 -0.061335  0.892983 -0.050688 0.006245
21  0.009278 0.058322 -0.044375  0.831001 -0.049376 0.032647
22  0.069086 0.193199 -0.059144  0.924885 -0.042584 0.006040
23  0.008560 0.057627 -0.044090  0.766783 -0.038235 0.031416
24  0.102185 0.077529 -0.031768  0.000408 0.131041 -0.090199
25  0.038420 0.022931 -0.000959  -0.024715 0.133491 0.360872
26  -0.039647 -0.056266 0.002069  -0.580612 1.118155 -0.674333
27  0.042761 -0.082398 0.038132  0.000000 -0.000000 -0.000000
28  0.000000 -0.000000 0.000000  -0.131509 -3.079310 0.568537
29  0.020122 -0.201078 -0.017893  -0.029547 -0.067292 0.847981
30  0.010469 -0.100374 -0.010235  0.000000 -0.000000 -0.000000
31  0.018520 -0.186856 -0.018450  -0.169449 -0.017296 -0.000745
32  -0.032222 -0.200100 -0.061496  -0.213739 0.021439 -0.009220
33  0.009310 -0.057389 -0.045571  0.135028 0.026002 0.009765
34  0.068956 -0.193197 -0.059302  -0.213751 0.021379 -0.009205
35  0.008683 -0.056712 -0.045241  0.135029 0.025425 0.009563
36  0.102133 -0.077572 -0.031829  0.000018 0.198946 0.025529
37  0.034315 -0.028672 -0.001806  0.029545 0.073997 -0.202702
38  0.001143 0.000000 -0.181958  0.484145 -0.734515 -0.165137
39  0.004961 -0.000269 -0.096018  -0.373936 0.667815 -0.055001
40  -0.011623 0.003704 -0.088948  -0.018063 0.024908 0.000385
41  -0.007644 0.000000 -0.210641  0.012239 0.104488 -0.000888
time 36
0  0 0 0  0 0 0
1  0.000000 0.000010 0.000000  -1.570796 -0.000000 0.000000
2  0.000000 0.000000 0.000000  0.000000 -0.000000 0.000000
3  0.000000 0.000000 0.000000  0.000000 -0.000000 0.000000
4  0.006445 -0.000000 0.753335  0.000000 -0.000000 0.000000
5  -0.327770 0.000000 -0.625135  0.000000 -1.382951 0.000000
6  0.000000 0.000000 -0.000000  0.000000 -0.000000 0.000000
7  0.000000 0.000000 0.000000  0.000000 -0.429758 0.000000
8  0.002937 0.000000 0.194891  0.000000 -0.000000 0.000000
9  0.003500 0.000000 0.083408  0.000000 0.247953 0.000000
10  -0.012239 0.000000 0.122389  0.000000 0.208878 0.000000
11  0.000267 0.000000 0.055138  0.000000 -0.481327 0.000000
12  0.003234 0.000000 0.052281  0.000000 0.247461 0.000000
13  -0.001319 0.000000 0.060214  -0.159620 0.237403 -0.804788
14  -0.039876 0.060989 0.002159  0.565549 1.062003 0.656814
15  0.043265 0.077505 0.036874  0.000000 0.000000 -0.000000
16  -0.000000 0.000000 0.000000  -0.479962 -1.079304 0.170143
17  0.020260 0.201078 -0.017731  0.006967 -0.033505 -0.433922
18  0.010537 0.100376 -0.010148  -1.258149 -1.370767 1.255529
19  0.018646 0.186860 -0.018292  0.254984 -0.026615 -0.000048
20  -0.032087 0.200172 -0.061335  0.180737 0.022626 0.007825
21  0.009278 0.058322 -0.044375  0.784499 -0.044312 0.032721
22  0.069086 0.193199 -0.059144  0.232522 0.016039 0.008252
23  0.008560 0.057627 -0.044090  0.675318 -0.028990 0.030586
24  0.102185 0.077529 -0.031768  0.000408 0.131041 -0.090198
25  0.038420 0.022931 -0.000959  -0.024715 0.133491 0.360872
26  -0.039647 -0.056266 0.002069  -0.580612 1.118155 -0.674333
27  0.042761 -0.082398 0.038132  0.000000 -0.000000 -0.000000
28  0.000000 -0.000000 0.000000  -0.131509 -3.079310 0.568537
29  0.020122 -0.201078 -0.017893  -0.029547 -0.067292 0.847981
30  0.010469 -0.100374 -0.010235  0.000000 -0.000000 -0.000000
31  0.018520 -0.186856 -0.018450  -0.197206 -0.020161 -0.000587
32  -0.032222 -0.200101 -0.061496  -0.249408 0.017945 -0.010342
33  0.009310 -0.057389 -0.045571  -0.142567 0.002387 -0.008650
34  0.068956 -0.193197 -0.059302  -0.249419 0.017898 -0.010324
35  0.008683 -0.056712 -0.045241  -0.142570 0.002414 -0.008493
36  0.102133 -0.077572 -0.031829  0.000018 0.198946 0.025529
37  0.034314 -0.028672 -0.001806  0.029545 0.073997 -0.202702
38  0.001143 0.000000 -0.181958  0.484145 -0.734515 -0.165137
39  0.004961 -0.000269 -0.096018  -0.373936 0.667815 -0.055001
40  -0.011623 0.003704 -0.088948  -0.018063 0.024908 0.000385
41  -0.007644 0.000000 -0.210641  0.012239 0.104488 -0.000888
time 37
0  0 0 0  0 0 0
1  0.000000 0.000010 0.000000  -1.570796 -0.000000 0.000000
2  0.000000 0.000000 0.000000  0.000000 -0.000000 0.000000
3  0.000000 0.000000 0.000000  0.000000 -0.000000 0.000000
4  0.006445 -0.000000 0.753335  0.000000 -0.000000 0.000000
5  -0.327770 0.000000 -0.625135  0.000000 -1.382951 0.000000
6  0.000000 0.000000 -0.000000  0.000000 -0.000000 0.000000
7  0.000000 0.000000 0.000000  0.000000 -0.429758 0.000000
8  0.002937 0.000000 0.194891  0.000000 -0.000000 0.000000
9  0.003500 0.000000 0.083408  0.000000 0.247953 0.000000
10  -0.012239 0.000000 0.122389  0.000000 0.208878 0.000000
11  0.000267 0.000000 0.055138  0.000000 -0.481327 0.000000
12  0.003234 0.000000 0.052281  0.000000 0.247461 0.000000
13  -0.001319 0.000000 0.060214  -0.159620 0.237403 -0.804788
14  -0.039876 0.060989 0.002159  0.565549 1.062003 0.656814
15  0.043265 0.077505 0.036874  0.000000 0.000000 -0.000000
16  -0.000000 0.000000 0.000000  -0.479962 -1.079304 0.170143
17  0.020260 0.201078 -0.017731  0.006967 -0.033505 -0.433922
18  0.010537 0.100376 -0.010148  -1.258149 -1.370767 1.255529
19  0.018646 0.186860 -0.018293  0.595919 -0.060478 -0.010527
20  -0.032088 0.200172 -0.061335  -0.357592 0.068579 -0.023891
21  0.009278 0.058322 -0.044375  0.244651 0.011843 0.016614
22  0.069086 0.193199 -0.059144  -0.284047 0.053169 -0.015405
23  0.008560 0.057627 -0.044090  0.088346 0.024358 0.006207
24  0.102185 0.077529 -0.031768  0.000408 0.131041 -0.090199
25  0.038420 0.022931 -0.000959  -0.024715 0.133491 0.360872
26  -0.039647 -0.056266 0.002069  -0.580612 1.118155 -0.674333
27  0.042761 -0.082398 0.038132  0.000000 -0.000000 -0.000000
28  0.000000 -0.000000 0.000000  -0.131509 -3.079310 0.568537
29  0.020122 -0.201078 -0.017893  -0.029547 -0.067292 0.847981
30  0.010469 -0.100374 -0.010235  0.000000 -0.000000 -0.000000
31  0.018520 -0.186856 -0.018450  -0.178685 -0.018269 -0.000701
32  -0.032222 -0.200101 -0.061496  -0.267832 0.016118 -0.010874
33  0.009310 -0.057389 -0.045571  -0.399504 -0.023213 -0.019328
34  0.068956 -0.193197 -0.059302  -0.267842 0.016095 -0.010852
35  0.008683 -0.056712 -0.045241  -0.399639 -0.022600 -0.019009
36  0.102133 -0.077572 -0.031830  0.000018 0.198946 0.025529
37  0.034315 -0.028672 -0.001806  0.029545 0.073997 -0.202702
38  0.001143 0.000000 -0.181958  0.484145 -0.734515 -0.165137
39  0.004961 -0.000269 -0.096018  -0.373936 0.667815 -0.055001
40  -0.011623 0.003704 -0.088948  -0.018063 0.024908 0.000385
41  -0.007644 0.000000 -0.210641  0.012239 0.104488 -0.000888
time 38
0  0 0 0  0 0 0
1  0.000000 0.000010 0.000000  -1.570796 -0.000000 0.000000
2  0.000000 0.000000 0.000000  0.000000 -0.000000 0.000000
3  0.000000 0.000000 0.000000  0.000000 -0.000000 0.000000
4  0.006445 -0.000000 0.753335  0.000000 -0.000000 0.000000
5  -0.327770 0.000000 -0.625135  0.000000 -1.382951 0.000000
6  0.000000 0.000000 -0.000000  0.000000 -0.000000 0.000000
7  0.000000 0.000000 0.000000  0.000000 -0.429758 0.000000
8  0.002937 0.000000 0.194891  0.000000 -0.000000 0.000000
9  0.003500 0.000000 0.083408  0.000000 0.247953 0.000000
10  -0.012239 0.000000 0.122389  0.000000 0.208878 0.000000
11  0.000267 0.000000 0.055138  0.000000 -0.481327 0.000000
12  0.003234 0.000000 0.052281  0.000000 0.247461 0.000000
13  -0.001319 0.000000 0.060214  -0.159620 0.237403 -0.804788
14  -0.039876 0.060989 0.002159  0.565549 1.062003 0.656814
15  0.043265 0.077505 0.036874  0.000000 0.000000 -0.000000
16  -0.000000 0.000000 0.000000  -0.479962 -1.079304 0.170143
17  0.020260 0.201078 -0.017731  0.006967 -0.033505 -0.433922
18  0.010537 0.100376 -0.010148  -1.258149 -1.370767 1.255529
19  0.018646 0.186860 -0.018292  0.766792 -0.075622 -0.019942
20  -0.032088 0.200172 -0.061335  0.002327 0.039682 0.000125
21  0.009278 0.058322 -0.044375  -0.042080 0.035891 -0.003345
22  0.069086 0.193199 -0.059144  0.098013 0.026772 0.004005
23  0.008560 0.057628 -0.044090  -0.246102 0.045565 -0.019955
24  0.102185 0.077529 -0.031768  0.000408 0.131041 -0.090198
25  0.038420 0.022931 -0.000959  -0.024715 0.133491 0.360872
26  -0.039647 -0.056266 0.002069  -0.580612 1.118155 -0.674333
27  0.042761 -0.082398 0.038132  0.000000 -0.000000 -0.000000
28  0.000000 -0.000000 0.000000  -0.131509 -3.079310 0.568537
29  0.020122 -0.201078 -0.017893  -0.029547 -0.067292 0.847981
30  0.010469 -0.100374 -0.010235  0.000000 -0.000000 -0.000000
31  0.018520 -0.186856 -0.018450  -0.169449 -0.017296 -0.000745
32  -0.032222 -0.200100 -0.061496  -0.278638 0.015064 -0.011167
33  0.009310 -0.057389 -0.045571  -0.309570 -0.013919 -0.016332
34  0.068956 -0.193197 -0.059302  -0.278648 0.015041 -0.011145
35  0.008683 -0.056713 -0.045241  -0.309637 -0.013538 -0.016061
36  0.102133 -0.077572 -0.031829  0.000018 0.198946 0.025529
37  0.034315 -0.028672 -0.001806  0.029545 0.073997 -0.202702
38  0.001143 0.000000 -0.181958  0.484145 -0.734515 -0.165137
39  0.004961 -0.000269 -0.096018  -0.373936 0.667815 -0.055001
40  -0.011623 0.003704 -0.088948  -0.018063 0.024908 0.000385
41  -0.007644 0.000000 -0.210641  0.012239 0.104488 -0.000888
end
