version 1
nodes
0 "blender_implicit" -1
1 "Skel0" -1
2 "Skel1" 1
3 "Skel2" 2
4 "Skel3" 3
5 "Skel4" 4
6 "Skel5" 5
7 "Skel6" 6
8 "Skel7" 7
9 "Skel8" 8
10 "Skel9" 9
11 "Skel10" 10
12 "Skel11" 11
13 "Skel12" 12
14 "Skel13" 10
15 "Skel14" 14
16 "Skel15" 15
17 "Skel16" 16
18 "Skel17" 17
19 "Skel18" 18
20 "Skel19" 19
21 "Skel20" 20
22 "Skel21" 19
23 "Skel22" 22
24 "Skel23" 19
25 "Skel24" 24
26 "Skel25" 10
27 "Skel26" 26
28 "Skel27" 27
29 "Skel28" 28
30 "Skel29" 29
31 "Skel30" 30
32 "Skel31" 31
33 "Skel32" 32
34 "Skel33" 31
35 "Skel34" 34
36 "Skel35" 31
37 "Skel36" 36
38 "Skel37" 5
39 "Skel38" 38
40 "Skel39" 39
41 "Skel40" 40
end
skeleton
time 0
0  0 0 0  0 0 0
1  0.000000 0.000010 0.000000  -1.570796 -0.000000 0.000000
2  0.000000 0.000000 0.000000  0.000000 -0.000000 0.000000
3  0.000000 0.000000 0.000000  0.000000 -0.000000 0.000000
4  0.006445 -0.000000 0.753335  0.000000 -0.000000 0.000000
5  0.041595 -0.036973 -0.002432  -0.049750 0.008181 -0.000020
6  0.000000 0.000000 -0.000000  0.000000 -0.000000 0.000000
7  -0.000000 0.000000 -0.000000  -0.081452 -0.232652 0.000052
8  0.002937 0.000000 0.194891  -0.000000 -0.000000 0.000000
9  0.003500 0.000000 0.083408  -0.000000 -0.000000 0.000000
10  -0.012239 0.000000 0.122389  -0.000000 -0.000000 0.000000
11  0.000267 0.000000 0.055138  -0.000000 -0.000000 0.000000
12  0.003234 0.000000 0.052281  -0.000000 -0.000000 0.000000
13  -0.001319 0.000000 0.060214  0.096714 0.157086 0.000017
14  -0.039876 0.060989 0.002159  -0.347841 0.242601 0.056790
15  0.043265 0.077505 0.036874  0.000000 -0.000000 0.000000
16  0.000000 -0.000000 0.000000  -0.590268 0.291666 -0.091614
17  0.020260 0.201078 -0.017731  0.001477 -0.014596 -0.231635
18  0.010537 0.100376 -0.010148  0.003375 0.034545 -0.003297
19  0.018646 0.186860 -0.018292  -0.015449 0.001605 -0.000215
20  -0.032088 0.200172 -0.061335  -0.077924 0.046850 -0.004304
21  0.009278 0.058322 -0.044375  -0.119717 0.041303 -0.009838
22  0.069086 0.193199 -0.059144  -0.078054 0.039871 -0.003684
23  0.008560 0.057628 -0.044090  -0.119765 0.038606 -0.009259
24  0.102185 0.077529 -0.031768  0.000408 0.131041 -0.090198
25  0.038420 0.022931 -0.000959  -0.024715 0.133491 0.360872
26  -0.039647 -0.056266 0.002069  0.408289 0.164281 -0.041071
27  0.042761 -0.082398 0.038131  -0.000000 -0.000000 -0.000000
28  -0.000000 -0.000000 -0.000000  0.711133 -0.137015 -0.777200
29  0.020122 -0.201078 -0.017893  -0.000935 -0.011333 0.196730
30  0.010469 -0.100374 -0.010235  0.003285 -0.034522 -0.003441
31  0.018520 -0.186856 -0.018450  0.021477 0.002131 0.000298
32  -0.032222 -0.200100 -0.061496  -0.006144 0.040671 -0.000322
33  0.009310 -0.057389 -0.045571  0.135028 0.026002 0.009765
34  0.068956 -0.193197 -0.059302  -0.006160 0.040548 -0.000330
35  0.008683 -0.056712 -0.045241  0.135029 0.025425 0.009563
36  0.102133 -0.077572 -0.031830  0.000018 0.198946 0.025528
37  0.034314 -0.028672 -0.001806  0.029545 0.073997 -0.202702
38  0.001143 0.000000 -0.181958  0.084719 0.127370 0.009385
39  0.004961 -0.000269 -0.096018  0.050537 -0.100145 -0.013231
40  -0.011623 0.003704 -0.088948  0.048660 0.056124 -0.000344
41  -0.007644 0.000000 -0.210641  -0.089570 -0.062302 0.000592
time 1
0  0 0 0  0 0 0
1  0.000000 0.000010 0.000000  -1.570796 -0.000000 0.000000
2  0.000000 0.000000 0.000000  0.000000 -0.000000 0.000000
3  0.000000 0.000000 0.000000  0.000000 -0.000000 0.000000
4  0.006445 -0.000000 0.753335  0.000000 -0.000000 0.000000
5  -0.005814 -0.106978 -0.030722  0.298192 0.299914 0.026864
6  0.000000 -0.000000 0.000000  -0.000000 0.000000 0.000000
7  0.000000 -0.000000 0.000000  -0.200649 0.005538 -0.061209
8  0.002937 -0.000000 0.194891  0.000000 0.134581 0.000000
9  0.003500 0.000000 0.083408  0.000000 0.156577 0.000000
10  -0.012239 0.000000 0.122389  0.000000 0.156577 -0.000000
11  0.000267 0.000000 0.055137  -0.000000 -0.250630 -0.000000
12  0.003234 0.000000 0.052281  0.000000 -0.090855 -0.000000
13  -0.006977 0.001265 0.090757  -0.057567 -0.438918 0.036048
14  -0.039876 0.060989 0.002159  -0.732395 -0.472902 -0.423654
15  0.043265 0.077505 0.036874  0.000000 0.000000 0.000000
16  0.000000 0.000000 0.000000  0.244866 0.556877 0.036924
17  0.020260 0.201078 -0.017731  0.001862 -0.016583 -0.252392
18  0.010537 0.100376 -0.010148  -0.087225 -0.590498 0.085948
19  0.018646 0.186860 -0.018292  -0.015448 0.001605 -0.000215
20  -0.032088 0.200172 -0.061335  0.231844 0.017503 0.009460
21  0.009278 0.058322 -0.044375  0.341872 -0.114730 0.045087
22  0.069086 0.193199 -0.059144  0.232185 0.016046 0.008246
23  0.008560 0.057628 -0.044090  0.343110 -0.114082 0.043948
24  0.102185 0.077529 -0.031768  0.000408 0.131041 -0.090199
25  0.038420 0.022931 -0.000959  -0.024715 0.133491 0.360872
26  -0.039647 -0.056266 0.002069  0.796604 -0.437074 0.336908
27  0.042761 -0.082398 0.038132  0.000000 0.000000 -0.000000
28  0.000000 -0.000000 0.000000  -0.326028 0.380775 0.471573
29  0.020122 -0.201078 -0.017893  -0.006417 -0.032209 0.416614
30  0.010469 -0.100374 -0.010235  0.003285 -0.034522 -0.003441
31  0.018520 -0.186856 -0.018449  -0.374591 -0.038138 0.002278
32  -0.032222 -0.200100 -0.061496  -0.374286 0.005537 -0.013267
33  0.009310 -0.057389 -0.045571  -0.266192 -0.009077 0.127818
34  0.068956 -0.193197 -0.059302  -0.374294 0.005566 -0.013241
35  0.008683 -0.056712 -0.045241  -0.266124 -0.008739 0.128087
36  0.102133 -0.077572 -0.031829  0.000018 0.198946 0.025529
37  0.034314 -0.028672 -0.001806  0.029545 0.073997 -0.202702
38  0.001143 0.000000 -0.181958  -0.122794 -0.050814 -0.003061
39  0.004961 -0.000269 -0.096018  -0.054535 -0.379988 0.001572
40  -0.011623 0.003704 -0.088948  0.011193 -0.129882 -0.001083
41  -0.007644 0.000000 -0.210641  -0.077917 0.160033 -0.012294
time 2
0  0 0 0  0 0 0
1  0.000000 0.000010 0.000000  -1.570796 -0.000000 0.000000
2  0.000000 0.000000 0.000000  0.000000 -0.000000 0.000000
3  0.000000 0.000000 0.000000  0.000000 -0.000000 0.000000
4  0.006445 -0.000000 0.753335  0.000000 -0.000000 0.000000
5  -0.023424 -0.168276 -0.001581  0.422255 0.202394 0.049422
6  0.000000 0.000000 0.000000  0.000000 -0.000000 -0.000000
7  0.000000 0.000000 0.000000  -0.087820 0.082576 -0.137276
8  0.002937 -0.000000 0.194891  -0.000000 0.071518 0.000000
9  0.003500 -0.000000 0.083408  -0.001296 0.322974 0.000853
10  -0.012239 -0.000000 0.122389  -0.001228 0.321762 0.000815
11  0.000267 -0.000000 0.055138  0.000000 -0.331205 0.000000
12  0.003234 0.000000 0.052281  0.000000 0.491941 0.000000
13  -0.001034 -0.000049 0.058896  -0.280425 0.267874 0.108106
14  -0.039876 0.060989 0.002159  -0.419801 -1.059346 -0.425875
15  0.043265 0.077505 0.036874  0.000000 -0.000000 0.000000
16  0.000000 0.000000 -0.000000  0.398850 0.274501 1.130607
17  0.020260 0.201078 -0.017731  0.072590 -0.091135 -1.365552
18  0.010537 0.100376 -0.010148  -0.015255 -0.141644 0.014876
19  0.018646 0.186860 -0.018292  -0.065865 0.006806 -0.001089
20  -0.032087 0.200172 -0.061335  -0.609406 0.082784 -0.046025
21  0.009278 0.058322 -0.044375  -0.464615 0.063575 -0.043275
22  0.069086 0.193199 -0.059144  -0.609598 0.068562 -0.038746
23  0.008560 0.057628 -0.044090  -0.464735 0.059079 -0.040529
24  0.102185 0.077529 -0.031768  0.000408 0.131041 -0.090198
25  0.038420 0.022931 -0.000959  -0.024715 0.133491 0.360872
26  -0.039647 -0.056266 0.002069  0.294961 -0.692766 0.415087
27  0.042761 -0.082398 0.038132  0.000000 -0.000000 0.000000
28  0.000000 0.000000 0.000000  -1.255574 0.592006 -0.521046
29  0.020122 -0.201078 -0.017893  -0.094777 -0.094998 1.588117
30  0.010469 -0.100374 -0.010235  0.003285 -0.034522 -0.003441
31  0.018520 -0.186856 -0.018450  -0.088383 -0.009024 -0.000755
32  -0.032222 -0.200100 -0.061496  0.009210 0.041992 0.000486
33  0.009310 -0.057389 -0.045571  0.151553 0.026870 0.005152
34  0.068956 -0.193197 -0.059302  0.009195 0.041893 0.000484
35  0.008683 -0.056712 -0.045241  0.151554 0.026273 0.004931
36  0.102133 -0.077572 -0.031829  0.000018 0.198946 0.025529
37  0.034314 -0.028672 -0.001806  0.029545 0.073997 -0.202702
38  0.001143 0.000000 -0.181958  0.034540 0.003828 0.001813
39  0.004961 -0.000269 -0.096018  -0.298095 -0.263200 0.066354
40  -0.011623 0.003704 -0.088948  0.001025 -0.164955 -0.000097
41  -0.007644 0.000000 -0.210641  -0.100252 0.126658 -0.012610
time 3
0  0 0 0  0 0 0
1  0.000000 0.000010 0.000000  -1.570796 -0.000000 0.000000
2  0.000000 0.000000 0.000000  0.000000 -0.000000 0.000000
3  0.000000 0.000000 0.000000  0.000000 -0.000000 0.000000
4  0.006445 -0.000000 0.753335  0.000000 -0.000000 0.000000
5  0.039916 -0.150032 0.147211  0.408589 -0.154161 -0.046201
6  -0.000000 -0.000000 -0.000000  -0.000000 0.000000 0.000000
7  -0.000000 -0.000000 -0.000000  0.156910 0.067164 -0.171259
8  0.002937 0.000000 0.194891  -0.000000 -0.286557 0.000000
9  0.003500 -0.000000 0.083408  -0.001296 0.322974 0.000853
10  -0.012239 0.000000 0.122389  -0.001228 0.321762 0.000815
11  0.000267 -0.000000 0.055138  0.000000 -0.331204 0.000000
12  0.003234 0.000000 0.052281  -0.000000 0.491941 0.000000
13  -0.001034 -0.000049 0.058896  -0.363747 0.237264 0.116622
14  -0.039876 0.060989 0.002159  -0.304648 -0.782018 -0.395114
15  0.043265 0.077505 0.036874  -0.000000 -0.000000 -0.000000
16  -0.000000 -0.000000 -0.000000  0.043321 0.094504 1.082885
17  0.020260 0.201078 -0.017731  0.086387 -0.093680 -1.510147
18  0.010537 0.100376 -0.010148  0.044923 0.559291 -0.042792
19  0.018646 0.186860 -0.018292  -0.201323 0.020480 -0.004717
20  -0.032088 0.200172 -0.061335  -0.081801 0.047191 -0.004533
21  0.009278 0.058322 -0.044375  -0.467572 0.063664 -0.043580
22  0.069086 0.193199 -0.059144  -0.081898 0.040147 -0.003879
23  0.008560 0.057628 -0.044090  -0.467692 0.059167 -0.040825
24  0.102185 0.077529 -0.031768  0.000408 0.131041 -0.090198
25  0.038420 0.022931 -0.000959  -0.024715 0.133491 0.360872
26  -0.039647 -0.056266 0.002069  0.052671 0.029425 0.328779
27  0.042761 -0.082398 0.038132  0.000000 -0.000000 0.000000
28  0.000000 -0.000000 0.000000  0.047845 -0.178701 0.098502
29  0.020122 -0.201077 -0.017893  -0.025037 -0.062603 0.781629
30  0.010469 -0.100374 -0.010235  0.003285 -0.034522 -0.003441
31  0.018520 -0.186856 -0.018449  0.193760 0.019318 0.004413
32  -0.032222 -0.200101 -0.061496  0.009210 0.041992 0.000486
33  0.009310 -0.057389 -0.045571  0.151553 0.026870 0.005152
34  0.068956 -0.193197 -0.059302  0.009195 0.041893 0.000484
35  0.008683 -0.056712 -0.045241  0.151554 0.026273 0.004931
36  0.102133 -0.077572 -0.031829  0.000018 0.198946 0.025529
37  0.034314 -0.028672 -0.001806  0.029545 0.073997 -0.202702
38  0.001143 0.000000 -0.181958  0.086072 0.319852 0.017263
39  0.004961 -0.000269 -0.096018  -0.330115 0.155772 0.024090
40  -0.011623 0.003704 -0.088948  -0.026748 -0.065024 0.001811
41  -0.007644 0.000000 -0.210641  -0.082028 -0.081136 0.001803
time 4
0  0 0 0  0 0 0
1  0.000000 0.000010 0.000000  -1.570796 -0.000000 0.000000
2  0.000000 0.000000 0.000000  0.000000 -0.000000 0.000000
3  0.000000 0.000000 0.000000  0.000000 -0.000000 0.000000
4  0.006445 -0.000000 0.753335  0.000000 -0.000000 0.000000
5  0.068911 -0.125708 0.108876  0.375615 -0.211386 -0.088213
6  0.000000 0.000000 -0.000000  -0.000000 0.000000 -0.000000
7  0.000000 0.000000 -0.000000  0.297414 0.028820 -0.173173
8  0.002937 0.000000 0.194891  -0.000000 -0.421737 0.000000
9  0.003500 0.000000 0.083408  0.012369 0.259212 -0.008631
10  -0.012239 -0.000000 0.122389  0.011881 0.271171 -0.008286
11  0.000267 0.000000 0.055138  0.000000 -0.275579 0.000000
12  0.003234 0.000000 0.052281  0.000000 0.333257 0.000000
13  -0.001319 -0.000000 0.060214  -0.262608 -0.016200 -0.043307
14  -0.039876 0.060989 0.002159  -0.308038 -0.704331 -0.375443
15  0.043265 0.077505 0.036874  -0.000000 0.000000 -0.000000
16  -0.000000 -0.000000 0.000000  -0.021816 -0.029104 1.108020
17  0.020260 0.201078 -0.017731  0.111589 -0.093198 -1.770451
18  0.010537 0.100376 -0.010148  0.057313 0.750672 -0.053802
19  0.018646 0.186860 -0.018292  -0.252179 0.025465 -0.006551
20  -0.032087 0.200172 -0.061335  0.172561 0.023419 0.007542
21  0.009278 0.058322 -0.044375  -0.459707 0.058577 -0.042470
22  0.069086 0.193199 -0.059144  0.172789 0.020873 0.006545
23  0.008560 0.057628 -0.044090  -0.459807 0.054101 -0.039755
24  0.102185 0.077529 -0.031768  0.000408 0.131041 -0.090199
25  0.038420 0.022931 -0.000959  -0.024715 0.133491 0.360872
26  -0.039647 -0.056266 0.002069  -0.082038 0.265259 0.131064
27  0.042761 -0.082398 0.038132  -0.000000 -0.000000 -0.000000
28  0.000000 0.000000 -0.000000  0.593211 -0.441202 -0.498705
29  0.020122 -0.201078 -0.017893  -0.100457 -0.095018 1.646117
30  0.010469 -0.100374 -0.010235  0.003285 -0.034522 -0.003441
31  0.018520 -0.186856 -0.018449  0.062430 0.006282 0.001008
32  -0.032222 -0.200100 -0.061496  -0.006144 0.040671 -0.000322
33  0.009310 -0.057389 -0.045571  0.135028 0.026002 0.009765
34  0.068956 -0.193197 -0.059302  -0.006160 0.040548 -0.000330
35  0.008683 -0.056712 -0.045241  0.135029 0.025425 0.009563
36  0.102133 -0.077572 -0.031830  0.000018 0.198946 0.025529
37  0.034314 -0.028672 -0.001806  0.029545 0.073997 -0.202702
38  0.001143 0.000000 -0.181958  0.113251 0.505942 0.033259
39  0.004961 -0.000269 -0.096018  -0.371847 0.066169 0.039296
40  -0.011623 0.003704 -0.088948  -0.011124 -0.010949 0.000415
41  -0.007644 0.000000 -0.210641  -0.066813 -0.139659 0.004859
time 5
0  0 0 0  0 0 0
1  0.000000 0.000010 0.000000  -1.570796 -0.000000 0.000000
2  0.000000 0.000000 0.000000  0.000000 -0.000000 0.000000
3  0.000000 0.000000 0.000000  0.000000 -0.000000 0.000000
4  0.006445 -0.000000 0.753335  0.000000 -0.000000 0.000000
5  0.068716 -0.102770 -0.038068  0.337529 -0.067170 -0.079732
6  0.000000 0.000000 0.000000  0.000000 -0.000000 -0.000000
7  0.000000 0.000000 0.000000  0.338986 -0.019689 -0.154306
8  0.002937 -0.000000 0.194891  -0.000014 -0.409048 0.000065
9  0.003500 0.000000 0.083408  0.034720 0.163856 -0.024712
10  -0.012239 -0.000000 0.122389  0.033286 0.197538 -0.023755
11  0.000267 -0.000000 0.055137  0.000135 -0.186122 -0.000135
12  0.003234 -0.000000 0.052281  -0.000000 0.105949 0.000000
13  -0.001319 0.000000 0.060214  -0.044177 -0.375067 -0.323731
14  -0.039876 0.060989 0.002159  -0.319935 -0.734503 -0.380666
15  0.043265 0.077505 0.036874  -0.000000 0.000000 -0.000000
16  -0.000000 0.000000 0.000000  0.138840 -0.149630 1.016386
17  0.020260 0.201078 -0.017731  0.134941 -0.086647 -2.020843
18  0.010537 0.100376 -0.010148  0.049694 0.631346 -0.047098
19  0.018645 0.186860 -0.018292  -0.252753 0.025513 -0.006571
20  -0.032087 0.200172 -0.061335  0.126313 0.027968 0.005801
21  0.009278 0.058322 -0.044375  -0.435824 0.057715 -0.039984
22  0.069086 0.193200 -0.059144  0.126488 0.024549 0.005024
23  0.008560 0.057628 -0.044090  -0.435941 0.053350 -0.037449
24  0.102185 0.077529 -0.031768  0.000408 0.131041 -0.090198
25  0.038420 0.022931 -0.000959  -0.024715 0.133491 0.360872
26  -0.039647 -0.056266 0.002069  -0.082364 0.139663 -0.119049
27  0.042761 -0.082398 0.038132  0.000000 0.000000 -0.000000
28  0.000000 -0.000000 0.000000  0.575856 -0.422761 -0.603135
29  0.020122 -0.201078 -0.017893  -0.133993 -0.088214 1.997298
30  0.010469 -0.100374 -0.010235  0.003285 -0.034522 -0.003441
31  0.018520 -0.186856 -0.018449  -0.083846 -0.008521 -0.000734
32  -0.032222 -0.200101 -0.061496  -0.006144 0.040671 -0.000322
33  0.009310 -0.057389 -0.045571  0.135028 0.026002 0.009765
34  0.068956 -0.193197 -0.059302  -0.006160 0.040548 -0.000329
35  0.008683 -0.056712 -0.045241  0.135029 0.025425 0.009563
36  0.102133 -0.077572 -0.031830  0.000018 0.198946 0.025529
37  0.034314 -0.028672 -0.001806  0.029545 0.073997 -0.202702
38  0.001143 0.000000 -0.181958  0.056082 0.226103 0.008581
39  0.004961 -0.000269 -0.096018  -0.360182 0.115400 0.031356
40  -0.011623 0.003704 -0.088948  -0.010270 -0.043642 0.000590
41  -0.007644 0.000000 -0.210641  -0.028036 -0.128475 0.003210
time 6
0  0 0 0  0 0 0
1  0.000000 0.000010 0.000000  -1.570796 -0.000000 0.000000
2  0.000000 0.000000 0.000000  0.000000 -0.000000 0.000000
3  0.000000 0.000000 0.000000  0.000000 -0.000000 0.000000
4  0.006445 -0.000000 0.753335  0.000000 -0.000000 0.000000
5  0.079078 -0.081268 -0.036851  0.313589 -0.087319 -0.065390
6  0.000000 -0.000000 -0.000000  -0.000000 0.000000 0.000000
7  0.000000 -0.000000 -0.000000  0.354367 -0.062565 -0.141644
8  0.002937 -0.000000 0.194891  -0.000007 -0.351657 0.000038
9  0.003500 0.000000 0.083408  0.056145 0.076994 -0.037668
10  -0.012239 0.000000 0.122389  0.054139 0.130939 -0.036448
11  0.000267 -0.000000 0.055137  0.000078 -0.111686 -0.000078
12  0.003234 -0.000000 0.052281  -0.000000 -0.096298 0.000000
13  -0.001319 0.000000 0.060214  0.055288 -0.682643 -0.458115
14  -0.039876 0.060989 0.002159  -0.317180 -0.727550 -0.379500
15  0.043265 0.077506 0.036874  0.000000 -0.000000 0.000000
16  -0.000000 -0.000000 0.000000  0.404501 -0.273826 0.641529
17  0.020260 0.201078 -0.017731  0.126236 -0.089832 -1.925367
18  0.010537 0.100376 -0.010148  0.034535 0.410002 -0.033157
19  0.018646 0.186860 -0.018292  -0.220335 0.022335 -0.005369
20  -0.032088 0.200172 -0.061335  0.101680 0.030357 0.004788
21  0.009279 0.058322 -0.044375  -0.200151 0.046375 -0.016996
22  0.069086 0.193199 -0.059144  0.101808 0.026476 0.004144
23  0.008560 0.057628 -0.044090  -0.200217 0.043178 -0.015958
24  0.102185 0.077529 -0.031768  0.000408 0.131041 -0.090198
25  0.038420 0.022931 -0.000959  -0.024715 0.133491 0.360872
26  -0.039647 -0.056266 0.002069  -0.045276 0.004498 -0.421518
27  0.042761 -0.082398 0.038132  0.000000 0.000000 -0.000000
28  0.000000 -0.000000 0.000000  0.655197 -0.610514 -0.409907
29  0.020122 -0.201078 -0.017893  -0.122525 -0.091936 1.874123
30  0.010469 -0.100374 -0.010235  0.003285 -0.034522 -0.003441
31  0.018520 -0.186856 -0.018450  -0.220059 -0.022503 -0.000397
32  -0.032222 -0.200100 -0.061496  -0.006144 0.040671 -0.000322
33  0.009310 -0.057389 -0.045571  0.135028 0.026002 0.009765
34  0.068956 -0.193197 -0.059302  -0.006160 0.040548 -0.000330
35  0.008683 -0.056713 -0.045241  0.135029 0.025425 0.009563
36  0.102133 -0.077572 -0.031829  0.000018 0.198946 0.025529
37  0.034314 -0.028672 -0.001806  0.029545 0.073997 -0.202702
38  0.001143 0.000000 -0.181958  0.022821 0.178198 0.002726
39  0.004961 -0.000269 -0.096018  -0.339619 0.144668 0.026043
40  -0.011623 0.003704 -0.088948  -0.000710 0.063785 0.000002
41  -0.007644 0.000000 -0.210641  -0.006303 -0.170780 0.003616
time 7
0  0 0 0  0 0 0
1  0.000000 0.000010 0.000000  -1.570796 -0.000000 0.000000
2  0.000000 0.000000 0.000000  0.000000 -0.000000 0.000000
3  0.000000 0.000000 0.000000  0.000000 -0.000000 0.000000
4  0.006445 -0.000000 0.753335  0.000000 -0.000000 0.000000
5  0.089441 -0.059765 -0.035635  0.289310 -0.107120 -0.050537
6  -0.000000 0.000000 -0.000000  -0.000000 0.000000 0.000000
7  -0.000000 0.000000 -0.000000  0.369262 -0.105640 -0.129597
8  0.002937 -0.000000 0.194891  -0.000002 -0.294242 0.000013
9  0.003500 0.000000 0.083408  0.078654 -0.009655 -0.052458
10  -0.012239 -0.000000 0.122389  0.075715 0.064577 -0.050455
11  0.000267 -0.000000 0.055137  0.000025 -0.037199 -0.000025
12  0.003234 0.000000 0.052281  0.000000 -0.299588 -0.000000
13  -0.001319 -0.000000 0.060214  0.268261 -0.973643 -0.701702
14  -0.039876 0.060989 0.002159  -0.314430 -0.720599 -0.378316
15  0.043265 0.077505 0.036874  0.000000 0.000000 0.000000
16  -0.000000 0.000000 0.000000  0.710745 -0.288694 0.229595
17  0.020259 0.201078 -0.017731  0.117254 -0.092177 -1.829734
18  0.010537 0.100376 -0.010148  0.017150 0.187498 -0.016641
19  0.018645 0.186860 -0.018292  -0.187918 0.019120 -0.004270
20  -0.032088 0.200172 -0.061335  0.077041 0.032720 0.003717
21  0.009278 0.058322 -0.044375  0.036729 0.029861 0.002820
22  0.069086 0.193199 -0.059144  0.077123 0.028382 0.003217
23  0.008560 0.057628 -0.044090  0.036785 0.028159 0.002671
24  0.102185 0.077529 -0.031768  0.000408 0.131041 -0.090199
25  0.038420 0.022931 -0.000959  -0.024715 0.133491 0.360872
26  -0.039647 -0.056266 0.002069  0.032151 -0.114797 -0.735353
27  0.042761 -0.082398 0.038132  0.000000 0.000000 0.000000
28  0.000000 0.000000 0.000000  0.695453 -0.810563 -0.200888
29  0.020122 -0.201078 -0.017893  -0.110659 -0.094228 1.750646
30  0.010469 -0.100374 -0.010235  0.003285 -0.034522 -0.003441
31  0.018520 -0.186856 -0.018450  -0.356653 -0.036341 0.001843
32  -0.032222 -0.200101 -0.061496  -0.006144 0.040671 -0.000322
33  0.009310 -0.057389 -0.045571  0.135028 0.026002 0.009765
34  0.068956 -0.193197 -0.059302  -0.006160 0.040548 -0.000330
35  0.008683 -0.056712 -0.045241  0.135029 0.025425 0.009563
36  0.102133 -0.077572 -0.031829  0.000018 0.198946 0.025529
37  0.034314 -0.028672 -0.001806  0.029545 0.073997 -0.202702
38  0.001143 0.000000 -0.181958  -0.009924 0.130110 -0.001479
39  0.004961 -0.000269 -0.096018  -0.319114 0.174044 0.021316
40  -0.011623 0.003704 -0.088948  0.008922 0.171369 0.000447
41  -0.007644 0.000000 -0.210641  0.015598 -0.213095 0.003084
time 8
0  0 0 0  0 0 0
1  0.000000 0.000010 0.000000  -1.570796 -0.000000 0.000000
2  0.000000 0.000000 0.000000  0.000000 -0.000000 0.000000
3  0.000000 0.000000 0.000000  0.000000 -0.000000 0.000000
4  0.006445 -0.000000 0.753335  0.000000 -0.000000 0.000000
5  0.102401 -0.042402 -0.037231  0.261501 -0.110547 -0.037610
6  0.000000 0.000000 0.000000  -0.000000 -0.000000 0.000000
7  0.000000 0.000000 0.000000  0.375405 -0.153881 -0.115328
8  0.002937 -0.000000 0.194891  0.000046 -0.252741 -0.000190
9  0.003500 -0.000000 0.083408  0.095504 -0.054531 -0.060238
10  -0.012239 0.000000 0.122389  0.091852 0.031477 -0.057555
11  0.000267 -0.000000 0.055138  -0.000326 -0.014468 0.000449
12  0.003234 -0.000000 0.052281  -0.000009 -0.394915 0.000009
13  -0.001319 0.000000 0.060214  0.446961 -1.018505 -0.859595
14  -0.039876 0.060989 0.002159  -0.292108 -0.663637 -0.367837
15  0.043265 0.077505 0.036874  0.000000 -0.000000 -0.000000
16  0.000000 0.000000 0.000000  0.887263 -0.308430 -0.031341
17  0.020260 0.201078 -0.017731  0.106913 -0.093784 -1.721912
18  0.010536 0.100376 -0.010148  -0.000365 -0.003190 0.000310
19  0.018646 0.186860 -0.018292  -0.130389 0.013349 -0.002580
20  -0.032087 0.200172 -0.061335  0.064722 0.033892 0.003159
21  0.009278 0.058322 -0.044375  0.153551 0.020095 0.011030
22  0.069086 0.193199 -0.059144  0.064781 0.029326 0.002736
23  0.008560 0.057628 -0.044090  0.153692 0.019223 0.010433
24  0.102185 0.077529 -0.031768  0.000408 0.131041 -0.090198
25  0.038420 0.022931 -0.000959  -0.024715 0.133491 0.360872
26  -0.039647 -0.056266 0.002069  0.068970 -0.115647 -0.879971
27  0.042761 -0.082398 0.038132  0.000000 -0.000000 -0.000000
28  -0.000000 0.000000 0.000000  0.718338 -0.998707 -0.137206
29  0.020122 -0.201078 -0.017893  -0.102445 -0.094948 1.666429
30  0.010469 -0.100374 -0.010235  0.003285 -0.034522 -0.003441
31  0.018520 -0.186856 -0.018450  -0.424708 -0.043086 0.003659
32  -0.032222 -0.200101 -0.061496  -0.006144 0.040671 -0.000322
33  0.009310 -0.057389 -0.045571  0.135028 0.026002 0.009765
34  0.068956 -0.193197 -0.059302  -0.006160 0.040548 -0.000330
35  0.008683 -0.056712 -0.045241  0.135029 0.025425 0.009563
36  0.102133 -0.077572 -0.031830  0.000018 0.198946 0.025529
37  0.034314 -0.028672 -0.001806  0.029545 0.073997 -0.202702
38  0.001143 0.000000 -0.181958  -0.037857 0.108281 -0.004251
39  0.004961 -0.000269 -0.096018  -0.285701 0.193046 0.017889
40  -0.011623 0.003704 -0.088948  0.011898 0.227788 0.000936
41  -0.007644 0.000000 -0.210641  0.030248 -0.246558 0.002227
time 9
0  0 0 0  0 0 0
1  0.000000 0.000010 0.000000  -1.570796 -0.000000 0.000000
2  0.000000 0.000000 0.000000  0.000000 -0.000000 0.000000
3  0.000000 0.000000 0.000000  0.000000 -0.000000 0.000000
4  0.006445 -0.000000 0.753335  0.000000 -0.000000 0.000000
5  0.117958 -0.029179 -0.041638  0.230532 -0.097626 -0.027294
6  -0.000000 -0.000000 -0.000000  0.000000 -0.000000 -0.000000
7  -0.000000 -0.000000 -0.000000  0.372427 -0.207235 -0.098140
8  0.002937 0.000000 0.194891  0.000131 -0.227105 -0.000568
9  0.003500 -0.000000 0.083408  0.105742 -0.058061 -0.059579
10  -0.012239 -0.000000 0.122389  0.101937 0.031322 -0.056729
11  0.000267 -0.000000 0.055138  -0.000997 -0.043417 0.001363
12  0.003234 0.000000 0.052281  -0.000028 -0.384101 0.000028
13  -0.001319 -0.000000 0.060214  0.434652 -0.860018 -0.774128
14  -0.039876 0.060989 0.002159  -0.250256 -0.556354 -0.344991
15  0.043265 0.077505 0.036874  0.000000 -0.000000 -0.000000
16  0.000000 0.000000 0.000000  0.970734 -0.413024 -0.178161
17  0.020260 0.201078 -0.017731  0.095167 -0.094255 -1.600791
18  0.010537 0.100376 -0.010148  -0.018231 -0.166880 0.017789
19  0.018646 0.186860 -0.018292  -0.047449 0.004887 -0.000736
20  -0.032088 0.200172 -0.061335  0.064722 0.033892 0.003159
21  0.009278 0.058322 -0.044375  0.153551 0.020095 0.011030
22  0.069086 0.193200 -0.059144  0.064781 0.029326 0.002736
23  0.008560 0.057627 -0.044090  0.153692 0.019223 0.010433
24  0.102185 0.077529 -0.031768  0.000408 0.131041 -0.090199
25  0.038420 0.022931 -0.000959  -0.024715 0.133491 0.360872
26  -0.039647 -0.056266 0.002069  0.042659 -0.020571 -0.855599
27  0.042760 -0.082398 0.038132  0.000000 -0.000000 0.000000
28  -0.000000 0.000000 0.000000  0.821296 -1.176278 -0.295240
29  0.020122 -0.201077 -0.017893  -0.098002 -0.095050 1.621048
30  0.010469 -0.100374 -0.010235  0.003285 -0.034522 -0.003441
31  0.018520 -0.186856 -0.018450  -0.424708 -0.043086 0.003659
32  -0.032222 -0.200100 -0.061496  -0.006144 0.040671 -0.000322
33  0.009310 -0.057389 -0.045571  0.135028 0.026002 0.009765
34  0.068956 -0.193197 -0.059302  -0.006160 0.040548 -0.000330
35  0.008683 -0.056712 -0.045241  0.135029 0.025425 0.009563
36  0.102133 -0.077572 -0.031830  0.000018 0.198946 0.025529
37  0.034315 -0.028672 -0.001806  0.029545 0.073997 -0.202702
38  0.001143 0.000000 -0.181958  -0.061324 0.112722 -0.006880
39  0.004961 -0.000269 -0.096018  -0.239250 0.201707 0.015620
40  -0.011623 0.003704 -0.088948  0.008051 0.233322 0.000651
41  -0.007644 0.000000 -0.210641  0.037531 -0.271208 0.001619
time 10
0  0 0 0  0 0 0
1  0.000000 0.000010 0.000000  -1.570796 -0.000000 0.000000
2  0.000000 0.000000 0.000000  0.000000 -0.000000 0.000000
3  0.000000 0.000000 0.000000  0.000000 -0.000000 0.000000
4  0.006445 -0.000000 0.753335  0.000000 -0.000000 0.000000
5  0.133516 -0.015957 -0.046046  0.199725 -0.084391 -0.017393
6  -0.000000 0.000000 -0.000000  0.000000 0.000000 -0.000000
7  -0.000000 -0.000000 -0.000000  0.368458 -0.260579 -0.080552
8  0.002937 -0.000000 0.194891  0.000206 -0.201463 -0.000941
9  0.003500 0.000000 0.083408  0.115980 -0.061598 -0.058956
10  -0.012239 0.000000 0.122389  0.112022 0.031159 -0.055906
11  0.000267 0.000000 0.055138  -0.001696 -0.072373 0.002298
12  0.003234 -0.000000 0.052281  -0.000046 -0.373286 0.000046
13  -0.001319 0.000000 0.060214  0.441937 -0.699999 -0.703073
14  -0.039876 0.060989 0.002159  -0.207905 -0.449488 -0.318371
15  0.043265 0.077506 0.036874  -0.000000 0.000000 0.000000
16  0.000000 -0.000000 0.000000  1.075861 -0.505075 -0.343203
17  0.020259 0.201078 -0.017731  0.083402 -0.093302 -1.479157
18  0.010537 0.100376 -0.010148  -0.040058 -0.331516 0.039277
19  0.018645 0.186860 -0.018292  0.035643 -0.003717 0.000402
20  -0.032088 0.200172 -0.061335  0.064722 0.033892 0.003159
21  0.009278 0.058322 -0.044375  0.153551 0.020095 0.011030
22  0.069086 0.193199 -0.059144  0.064781 0.029326 0.002736
23  0.008560 0.057628 -0.044090  0.153692 0.019223 0.010433
24  0.102185 0.077529 -0.031768  0.000408 0.131041 -0.090199
25  0.038420 0.022931 -0.000959  -0.024715 0.133491 0.360872
26  -0.039647 -0.056266 0.002069  0.018538 0.075374 -0.833614
27  0.042761 -0.082398 0.038132  0.000000 0.000000 0.000000
28  0.000000 0.000000 0.000000  1.121732 -1.339303 -0.649473
29  0.020122 -0.201078 -0.017893  -0.093556 -0.094951 1.575640
30  0.010469 -0.100374 -0.010235  0.003285 -0.034522 -0.003441
31  0.018520 -0.186856 -0.018450  -0.424708 -0.043086 0.003659
32  -0.032222 -0.200101 -0.061496  -0.006144 0.040671 -0.000322
33  0.009310 -0.057389 -0.045571  0.135028 0.026002 0.009765
34  0.068956 -0.193197 -0.059302  -0.006160 0.040548 -0.000330
35  0.008683 -0.056712 -0.045241  0.135029 0.025425 0.009563
36  0.102133 -0.077572 -0.031830  0.000018 0.198946 0.025529
37  0.034315 -0.028672 -0.001806  0.029545 0.073997 -0.202702
38  0.001143 0.000000 -0.181958  -0.084818 0.117101 -0.009615
39  0.004961 -0.000269 -0.096018  -0.192704 0.210468 0.013760
40  -0.011623 0.003704 -0.088948  0.004197 0.238855 0.000344
41  -0.007644 0.000000 -0.210641  0.044884 -0.295859 0.000819
time 11
0  0 0 0  0 0 0
1  0.000000 0.000010 0.000000  -1.570796 -0.000000 0.000000
2  0.000000 0.000000 0.000000  0.000000 -0.000000 0.000000
3  0.000000 0.000000 0.000000  0.000000 -0.000000 0.000000
4  0.006445 -0.000000 0.753335  0.000000 -0.000000 0.000000
5  0.149074 -0.002734 -0.050454  0.169090 -0.070862 -0.007918
6  0.000000 -0.000000 -0.000000  -0.000000 0.000000 0.000000
7  0.000000 -0.000000 -0.000000  0.363445 -0.313811 -0.062474
8  0.002937 -0.000000 0.194891  0.000270 -0.175826 -0.001311
9  0.003500 0.000000 0.083408  0.126218 -0.065141 -0.058370
10  -0.012239 -0.000000 0.122389  0.122107 0.030988 -0.055084
11  0.000267 -0.000000 0.055137  -0.002424 -0.101323 0.003255
12  0.003234 0.000000 0.052281  -0.000064 -0.362472 0.000064
13  -0.001319 0.000000 0.060214  0.461454 -0.541726 -0.638765
14  -0.039876 0.060989 0.002159  -0.164538 -0.344048 -0.288238
15  0.043265 0.077506 0.036874  0.000000 -0.000000 -0.000000
16  0.000000 0.000000 0.000000  1.201988 -0.578965 -0.525984
17  0.020260 0.201079 -0.017731  0.071875 -0.090945 -1.357932
18  0.010537 0.100376 -0.010148  -0.067340 -0.494651 0.066259
19  0.018645 0.186860 -0.018292  0.118610 -0.012372 0.000823
20  -0.032088 0.200172 -0.061335  0.064722 0.033892 0.003159
21  0.009278 0.058322 -0.044375  0.153551 0.020095 0.011030
22  0.069086 0.193199 -0.059144  0.064781 0.029326 0.002736
23  0.008560 0.057628 -0.044090  0.153692 0.019223 0.010433
24  0.102185 0.077529 -0.031768  0.000408 0.131041 -0.090198
25  0.038420 0.022931 -0.000959  -0.024715 0.133491 0.360872
26  -0.039647 -0.056266 0.002069  -0.003684 0.171595 -0.813757
27  0.042761 -0.082398 0.038132  0.000000 0.000000 -0.000000
28  -0.000000 0.000000 -0.000000  -1.097691 -1.724814 1.517464
29  0.020122 -0.201078 -0.017893  -0.089122 -0.094651 1.530254
30  0.010469 -0.100374 -0.010235  0.003285 -0.034522 -0.003441
31  0.018520 -0.186856 -0.018450  -0.424708 -0.043086 0.003659
32  -0.032222 -0.200101 -0.061496  -0.006144 0.040671 -0.000322
33  0.009310 -0.057389 -0.045571  0.135028 0.026002 0.009765
34  0.068956 -0.193197 -0.059302  -0.006160 0.040548 -0.000330
35  0.008683 -0.056712 -0.045241  0.135029 0.025425 0.009563
36  0.102133 -0.077572 -0.031829  0.000018 0.198946 0.025529
37  0.034314 -0.028672 -0.001806  0.029545 0.073997 -0.202702
38  0.001143 0.000000 -0.181958  -0.108334 0.121414 -0.012454
39  0.004961 -0.000269 -0.096018  -0.146107 0.219300 0.012316
40  -0.011623 0.003704 -0.088948  0.000336 0.244387 0.000014
41  -0.007644 0.000000 -0.210641  0.052315 -0.320500 -0.000178
time 12
0  0 0 0  0 0 0
1  0.000000 0.000010 0.000000  -1.570796 -0.000000 0.000000
2  0.000000 0.000000 0.000000  0.000000 -0.000000 0.000000
3  0.000000 0.000000 0.000000  0.000000 -0.000000 0.000000
4  0.006445 -0.000000 0.753335  0.000000 -0.000000 0.000000
5  0.161514 0.005141 -0.053716  0.144955 -0.057037 -0.001603
6  -0.000000 -0.000000 -0.000000  -0.000000 0.000000 -0.000000
7  -0.000000 -0.000000 -0.000000  0.355943 -0.344515 -0.048353
8  0.002937 0.000000 0.194891  0.000258 -0.156374 -0.001469
9  0.003500 0.000000 0.083408  0.124153 -0.069850 -0.053872
10  -0.012239 -0.000000 0.122389  0.120224 0.027536 -0.050716
11  0.000267 0.000000 0.055138  -0.002924 -0.121258 0.003851
12  0.003234 -0.000000 0.052281  -0.000092 -0.350783 0.000219
13  -0.001318 0.000000 0.060214  0.473173 -0.426643 -0.591415
14  -0.039876 0.060989 0.002159  -0.128332 -0.250603 -0.256106
15  0.043265 0.077505 0.036874  0.000000 -0.000000 0.000000
16  0.000000 -0.000000 0.000000  1.276884 -0.656541 -0.667580
17  0.020259 0.201078 -0.017731  0.064094 -0.088505 -1.273938
18  0.010537 0.100376 -0.010148  -0.088193 -0.594967 0.086940
19  0.018646 0.186860 -0.018292  0.213829 -0.022314 0.000419
20  -0.032087 0.200172 -0.061335  0.078986 0.035870 0.017450
21  0.009278 0.058322 -0.044375  0.160228 0.019505 0.011466
22  0.069086 0.193199 -0.059144  0.078882 0.026379 -0.004349
23  0.008560 0.057628 -0.044090  0.160371 0.018687 0.010843
24  0.102185 0.077529 -0.031768  0.000899 0.124112 -0.111903
25  0.038420 0.022931 -0.000959  -0.024702 0.131192 0.354779
26  -0.039647 -0.056266 0.002069  -0.014759 0.247512 -0.785080
27  0.042760 -0.082398 0.038132  0.000000 0.000000 0.000000
28  -0.000000 -0.000000 0.000000  -0.509916 -1.809269 0.872555
29  0.020122 -0.201077 -0.017893  -0.084869 -0.094173 1.486552
30  0.010469 -0.100374 -0.010235  0.003285 -0.034522 -0.003441
31  0.018520 -0.186856 -0.018450  -0.424359 -0.043051 0.003649
32  -0.032222 -0.200101 -0.061496  -0.035298 0.041909 -0.021022
33  0.009310 -0.057389 -0.045571  0.119088 0.024792 0.008536
34  0.068956 -0.193197 -0.059302  -0.042591 0.028199 0.015042
35  0.008683 -0.056712 -0.045241  0.119087 0.024245 0.008358
36  0.102133 -0.077572 -0.031829  -0.000087 0.193708 0.042077
37  0.034314 -0.028672 -0.001806  0.028592 0.070716 -0.194056
38  0.001143 0.000000 -0.181958  -0.135358 0.125895 -0.015812
39  0.004961 -0.000269 -0.096018  -0.094853 0.228259 0.011220
40  -0.011623 0.003704 -0.088948  -0.000503 0.237675 -0.000056
41  -0.007644 0.000000 -0.210641  0.053874 -0.335498 -0.000488
time 13
0  0 0 0  0 0 0
1  0.000000 0.000010 0.000000  -1.570796 -0.000000 0.000000
2  0.000000 0.000000 0.000000  0.000000 -0.000000 0.000000
3  0.000000 0.000000 0.000000  0.000000 -0.000000 0.000000
4  0.006445 -0.000000 0.753335  0.000000 -0.000000 0.000000
5  0.167716 0.002319 -0.054689  0.133527 -0.043069 -0.000991
6  0.000000 0.000000 0.000000  -0.000000 0.000000 -0.000000
7  0.000000 0.000000 0.000000  0.345384 -0.330465 -0.043227
8  0.002937 0.000000 0.194891  0.000111 -0.149276 -0.001212
9  0.003500 0.000000 0.083408  0.097404 -0.076665 -0.041358
10  -0.012239 -0.000000 0.122389  0.094320 0.017731 -0.039078
11  0.000267 -0.000000 0.055137  -0.002918 -0.123191 0.003682
12  0.003234 0.000000 0.052281  -0.000139 -0.337341 0.000647
13  -0.001319 -0.000000 0.060214  0.455051 -0.390369 -0.573286
14  -0.039876 0.060989 0.002159  -0.107329 -0.177375 -0.224789
15  0.043265 0.077505 0.036874  -0.000000 -0.000000 0.000000
16  0.000000 -0.000000 -0.000000  1.219111 -0.781696 -0.699549
17  0.020260 0.201078 -0.017731  0.063041 -0.088118 -1.262388
18  0.010537 0.100376 -0.010148  -0.083909 -0.575775 0.082683
19  0.018646 0.186860 -0.018292  0.335381 -0.034880 -0.001466
20  -0.032087 0.200172 -0.061335  0.122033 0.040585 0.060579
21  0.009278 0.058322 -0.044375  0.180259 0.017718 0.012750
22  0.069086 0.193199 -0.059144  0.121367 0.018127 -0.025875
23  0.008560 0.057627 -0.044090  0.180414 0.017065 0.012053
24  0.102185 0.077529 -0.031768  0.003284 0.103346 -0.177138
25  0.038420 0.022931 -0.000959  -0.024579 0.124294 0.336506
26  -0.039647 -0.056266 0.002069  -0.005020 0.283002 -0.734894
27  0.042761 -0.082398 0.038132  0.000000 0.000000 0.000000
28  0.000000 -0.000000 -0.000000  -0.584162 -1.906409 0.876916
29  0.020122 -0.201078 -0.017893  -0.080952 -0.093566 1.446075
30  0.010469 -0.100374 -0.010235  0.003285 -0.034522 -0.003441
31  0.018520 -0.186856 -0.018450  -0.423313 -0.042945 0.003617
32  -0.032222 -0.200101 -0.061496  -0.123473 0.041981 -0.083674
33  0.009310 -0.057389 -0.045571  0.071207 0.021039 0.004961
34  0.068956 -0.193197 -0.059302  -0.154119 -0.005688 0.064237
35  0.008683 -0.056712 -0.045241  0.071201 0.020588 0.004854
36  0.102133 -0.077572 -0.031829  -0.000931 0.177986 0.091718
37  0.034315 -0.028672 -0.001806  0.025562 0.060920 -0.168098
38  0.001143 0.000000 -0.181958  -0.169424 0.130731 -0.020155
39  0.004961 -0.000269 -0.096018  -0.034072 0.237457 0.010495
40  -0.011623 0.003704 -0.088948  0.004683 0.206459 0.000317
41  -0.007644 0.000000 -0.210641  0.043562 -0.331232 0.000881
time 14
0  0 0 0  0 0 0
1  0.000000 0.000010 0.000000  -1.570796 -0.000000 0.000000
2  0.000000 0.000000 0.000000  0.000000 -0.000000 0.000000
3  0.000000 0.000000 0.000000  0.000000 -0.000000 0.000000
4  0.006445 -0.000000 0.753335  0.000000 -0.000000 0.000000
5  0.173919 -0.000503 -0.055662  0.122111 -0.029091 -0.000539
6  0.000000 0.000000 0.000000  0.000000 -0.000000 0.000000
7  0.000000 0.000000 0.000000  0.334949 -0.316362 -0.038281
8  0.002937 -0.000000 0.194891  -0.000034 -0.142178 -0.000956
9  0.003500 0.000000 0.083408  0.070542 -0.083146 -0.028651
10  -0.012239 -0.000000 0.122389  0.068292 0.008226 -0.027185
11  0.000267 0.000000 0.055137  -0.002911 -0.125123 0.003513
12  0.003234 0.000000 0.052281  -0.000179 -0.323897 0.001073
13  -0.001318 0.000000 0.060214  0.437871 -0.353770 -0.556100
14  -0.039876 0.060989 0.002159  -0.084148 -0.104540 -0.192118
15  0.043265 0.077506 0.036874  0.000000 0.000000 0.000000
16  -0.000000 0.000000 -0.000000  1.158189 -0.909755 -0.724905
17  0.020260 0.201078 -0.017731  0.061993 -0.087720 -1.250836
18  0.010537 0.100376 -0.010148  -0.079773 -0.556563 0.078575
19  0.018646 0.186860 -0.018292  0.458098 -0.047232 -0.004900
20  -0.032087 0.200172 -0.061335  0.165341 0.043441 0.103968
21  0.009278 0.058322 -0.044375  0.200293 0.015905 0.013998
22  0.069086 0.193199 -0.059144  0.164074 0.010790 -0.047759
23  0.008560 0.057628 -0.044090  0.200458 0.015417 0.013230
24  0.102185 0.077529 -0.031768  0.007031 0.082721 -0.242476
25  0.038420 0.022931 -0.000959  -0.024329 0.117398 0.318244
26  -0.039647 -0.056266 0.002069  0.006715 0.318044 -0.683686
27  0.042761 -0.082398 0.038132  -0.000000 -0.000000 0.000000
28  0.000000 -0.000000 0.000000  -0.641912 -2.004247 0.863009
29  0.020122 -0.201078 -0.017893  -0.077059 -0.092801 1.405566
30  0.010469 -0.100374 -0.010235  0.003285 -0.034522 -0.003441
31  0.018520 -0.186856 -0.018450  -0.422266 -0.042840 0.003585
32  -0.032222 -0.200101 -0.061496  -0.212054 0.036490 -0.146495
33  0.009310 -0.057389 -0.045571  0.023278 0.017115 0.001566
34  0.068956 -0.193197 -0.059302  -0.268337 -0.034087 0.117448
35  0.008683 -0.056712 -0.045241  0.023266 0.016761 0.001525
36  0.102133 -0.077572 -0.031830  -0.002566 0.162300 0.141317
37  0.034314 -0.028672 -0.001806  0.022279 0.051201 -0.142113
38  0.001143 0.000000 -0.181958  -0.203556 0.135421 -0.024668
39  0.004961 -0.000269 -0.096018  0.026977 0.246700 0.010345
40  -0.011623 0.003704 -0.088948  0.009828 0.175223 0.000524
41  -0.007644 0.000000 -0.210641  0.033270 -0.326953 0.002201
time 15
0  0 0 0  0 0 0
1  0.000000 0.000010 0.000000  -1.570796 -0.000000 0.000000
2  0.000000 0.000000 0.000000  0.000000 -0.000000 0.000000
3  0.000000 0.000000 0.000000  0.000000 -0.000000 0.000000
4  0.006445 -0.000000 0.753335  0.000000 -0.000000 0.000000
5  0.180122 -0.003324 -0.056635  0.110705 -0.015110 -0.000246
6  -0.000000 -0.000000 0.000000  0.000000 0.000000 0.000000
7  -0.000000 -0.000000 0.000000  0.324634 -0.302211 -0.033511
8  0.002937 -0.000000 0.194891  -0.000177 -0.135080 -0.000702
9  0.003500 0.000000 0.083408  0.043584 -0.089285 -0.015767
10  -0.012239 0.000000 0.122389  0.042153 -0.000966 -0.015048
11  0.000267 -0.000000 0.055138  -0.002904 -0.127056 0.003345
12  0.003234 -0.000000 0.052281  -0.000213 -0.310453 0.001496
13  -0.001319 -0.000000 0.060214  0.421573 -0.316903 -0.539794
14  -0.039876 0.060989 0.002159  -0.058701 -0.032469 -0.157909
15  0.043265 0.077505 0.036874  0.000000 0.000000 0.000000
16  0.000000 0.000000 0.000000  1.090776 -1.038873 -0.740200
17  0.020260 0.201078 -0.017731  0.060949 -0.087309 -1.239286
18  0.010537 0.100376 -0.010148  -0.075777 -0.537337 0.074606
19  0.018646 0.186860 -0.018292  0.581091 -0.059084 -0.009833
20  -0.032087 0.200172 -0.061335  0.208749 0.044415 0.147458
21  0.009278 0.058322 -0.044375  0.220324 0.014067 0.015210
22  0.069086 0.193199 -0.059144  0.206937 0.004393 -0.069941
23  0.008560 0.057628 -0.044090  0.220501 0.013747 0.014374
24  0.102185 0.077529 -0.031768  0.012115 0.062377 -0.307821
25  0.038420 0.022931 -0.000959  -0.023953 0.110507 0.299993
26  -0.039647 -0.056266 0.002069  0.020492 0.352470 -0.631405
27  0.042761 -0.082398 0.038132  -0.000000 -0.000000 -0.000000
28  0.000000 -0.000000 0.000000  -0.692536 -2.101781 0.840328
29  0.020122 -0.201078 -0.017893  -0.073200 -0.091879 1.365057
30  0.010469 -0.100374 -0.010235  0.003285 -0.034522 -0.003441
31  0.018520 -0.186856 -0.018450  -0.421220 -0.042734 0.003554
32  -0.032222 -0.200100 -0.061496  -0.300177 0.025468 -0.208627
33  0.009310 -0.057389 -0.045571  -0.024644 0.013031 -0.001637
34  0.068956 -0.193197 -0.059302  -0.384190 -0.056221 0.173691
35  0.008683 -0.056712 -0.045241  -0.024662 0.012779 -0.001618
36  0.102133 -0.077572 -0.031829  -0.004981 0.146709 0.190833
37  0.034314 -0.028672 -0.001806  0.018745 0.041569 -0.116106
38  0.001143 0.000000 -0.181958  -0.237734 0.139956 -0.029343
39  0.004961 -0.000269 -0.096018  0.088189 0.255939 0.010778
40  -0.011623 0.003704 -0.088948  0.014942 0.143983 0.000567
41  -0.007644 0.000000 -0.210641  0.022998 -0.322661 0.003473
time 16
0  0 0 0  0 0 0
1  0.000000 0.000010 0.000000  -1.570796 -0.000000 0.000000
2  0.000000 0.000000 0.000000  0.000000 -0.000000 0.000000
3  0.000000 0.000000 0.000000  0.000000 -0.000000 0.000000
4  0.006445 -0.000000 0.753335  0.000000 -0.000000 0.000000
5  0.186324 -0.006146 -0.057608  0.099305 -0.001127 -0.000113
6  -0.000000 -0.000000 -0.000000  -0.000000 0.000000 -0.000000
7  -0.000000 -0.000000 -0.000000  0.314435 -0.288016 -0.028915
8  0.002937 -0.000000 0.194891  -0.000318 -0.127982 -0.000449
9  0.003500 0.000000 0.083408  0.016543 -0.095073 -0.002719
10  -0.012239 0.000000 0.122389  0.015912 -0.009834 -0.002679
11  0.000267 -0.000000 0.055138  -0.002896 -0.128989 0.003176
12  0.003234 -0.000000 0.052281  -0.000241 -0.297010 0.001917
13  -0.001319 0.000000 0.060215  0.406096 -0.279823 -0.524311
14  -0.039876 0.060989 0.002159  -0.030885 0.038457 -0.121981
15  0.043265 0.077505 0.036874  0.000000 -0.000000 -0.000000
16  -0.000000 -0.000000 0.000000  1.009447 -1.167034 -0.737962
17  0.020260 0.201078 -0.017731  0.059910 -0.086887 -1.227738
18  0.010537 0.100376 -0.010148  -0.071914 -0.518101 0.070771
19  0.018646 0.186860 -0.018292  0.703456 -0.070175 -0.016145
20  -0.032087 0.200172 -0.061335  0.252094 0.043506 0.190884
21  0.009278 0.058322 -0.044375  0.240350 0.012206 0.016385
22  0.069086 0.193199 -0.059144  0.249889 -0.001040 -0.092353
23  0.008560 0.057628 -0.044090  0.240538 0.012055 0.015484
24  0.102185 0.077529 -0.031768  0.018498 0.042446 -0.373069
25  0.038420 0.022931 -0.000959  -0.023451 0.103626 0.281757
26  -0.039647 -0.056266 0.002069  0.036348 0.386110 -0.578004
27  0.042761 -0.082398 0.038132  -0.000000 -0.000000 0.000000
28  0.000000 -0.000000 0.000000  -0.739619 -2.198101 0.812602
29  0.020122 -0.201078 -0.017893  -0.069385 -0.090804 1.324583
30  0.010469 -0.100374 -0.010235  0.003285 -0.034522 -0.003441
31  0.018520 -0.186856 -0.018450  -0.420174 -0.042629 0.003523
32  -0.032222 -0.200101 -0.061496  -0.387016 0.009139 -0.269251
33  0.009310 -0.057389 -0.045571  -0.072504 0.008803 -0.004639
34  0.068956 -0.193197 -0.059302  -0.500443 -0.071594 0.231782
35  0.008683 -0.056712 -0.045241  -0.072530 0.008655 -0.004563
36  0.102133 -0.077572 -0.031829  -0.008163 0.131273 0.240223
37  0.034314 -0.028672 -0.001806  0.014964 0.032036 -0.090083
38  0.001143 0.000000 -0.181958  -0.271938 0.144328 -0.034173
39  0.004961 -0.000269 -0.096018  0.149457 0.265119 0.011796
40  -0.011623 0.003704 -0.088948  0.020031 0.112757 0.000450
41  -0.007644 0.000000 -0.210641  0.012748 -0.318357 0.004696
time 17
0  0 0 0  0 0 0
1  0.000000 0.000010 0.000000  -1.570796 -0.000000 0.000000
2  0.000000 0.000000 0.000000  0.000000 -0.000000 0.000000
3  0.000000 0.000000 0.000000  0.000000 -0.000000 0.000000
4  0.006445 -0.000000 0.753335  0.000000 -0.000000 0.000000
5  0.192430 -0.012551 -0.058403  0.079779 0.010631 0.000265
6  -0.000000 -0.000000 -0.000000  0.000000 -0.000000 0.000000
7  -0.000000 -0.000000 -0.000000  0.298684 -0.261273 -0.026010
8  0.002937 0.000000 0.194891  -0.000488 -0.121783 -0.000215
9  0.003500 0.000000 0.083408  0.006457 -0.101150 0.004037
10  -0.012239 -0.000000 0.122389  0.006061 -0.018615 0.003289
11  0.000267 0.000000 0.055137  -0.002859 -0.129703 0.002963
12  0.003234 -0.000000 0.052281  -0.000260 -0.283402 0.002343
13  -0.001319 -0.000000 0.060214  0.403020 -0.254907 -0.521939
14  -0.039876 0.060989 0.002159  -0.022947 0.073136 -0.100691
15  0.043265 0.077505 0.036874  0.000000 -0.000000 -0.000000
16  0.000000 -0.000000 -0.000000  0.548053 -1.305508 -0.344512
17  0.020260 0.201078 -0.017731  0.066269 -0.089259 -1.297639
18  0.010537 0.100376 -0.010148  -0.067730 -0.496540 0.066623
19  0.018646 0.186860 -0.018292  0.784810 -0.077079 -0.021070
20  -0.032088 0.200172 -0.061335  0.284165 0.042303 0.225037
21  0.009278 0.058322 -0.044375  0.255950 0.010745 0.017272
22  0.069086 0.193199 -0.059144  0.281725 -0.004796 -0.110243
23  0.008560 0.057628 -0.044090  0.256147 0.010712 0.016329
24  0.102185 0.077529 -0.031768  0.024453 0.027032 -0.424664
25  0.038420 0.022931 -0.000959  -0.022965 0.098181 0.267318
26  -0.039647 -0.056266 0.002069  0.063480 0.404123 -0.518482
27  0.042761 -0.082398 0.038132  -0.000000 -0.000000 0.000000
28  0.000000 -0.000000 0.000000  -0.883432 -2.260052 0.858141
29  0.020122 -0.201078 -0.017893  -0.066173 -0.089767 1.290118
30  0.010469 -0.100374 -0.010235  0.003285 -0.034522 -0.003441
31  0.018520 -0.186856 -0.018450  -0.420523 -0.042664 0.003533
32  -0.032223 -0.200101 -0.061496  -0.454939 -0.005557 -0.315958
33  0.009310 -0.057389 -0.045571  -0.110338 0.005377 -0.006859
34  0.068956 -0.193197 -0.059302  -0.591898 -0.081216 0.278097
35  0.008683 -0.056712 -0.045241  -0.110369 0.005312 -0.006743
36  0.102133 -0.077572 -0.031829  -0.011217 0.119198 0.279244
37  0.034315 -0.028672 -0.001806  0.011798 0.024563 -0.069459
38  0.001143 0.000000 -0.181958  -0.254607 0.164948 -0.034682
39  0.004961 -0.000269 -0.096018  0.176387 0.261172 0.011346
40  -0.011623 0.003704 -0.088948  0.022999 0.078620 0.000123
41  -0.007644 0.000000 -0.210641  -0.004580 -0.314477 0.006746
time 18
0  0 0 0  0 0 0
1  0.000000 0.000010 0.000000  -1.570796 -0.000000 0.000000
2  0.000000 0.000000 0.000000  0.000000 -0.000000 0.000000
3  0.000000 0.000000 0.000000  0.000000 -0.000000 0.000000
4  0.006445 -0.000000 0.753335  0.000000 -0.000000 0.000000
5  0.198341 -0.026124 -0.058841  0.043990 0.017972 0.001226
6  -0.000000 -0.000000 0.000000  0.000000 0.000000 0.000000
7  -0.000000 -0.000000 0.000000  0.271843 -0.209495 -0.027157
8  0.002937 0.000000 0.194891  -0.000720 -0.117381 -0.000019
9  0.003500 0.000000 0.083408  0.030438 -0.108303 -0.002164
10  -0.012239 -0.000000 0.122389  0.029187 -0.027668 -0.004055
11  0.000267 -0.000000 0.055138  -0.002764 -0.127979 0.002660
12  0.003234 -0.000000 0.052281  -0.000266 -0.269460 0.002783
13  -0.001318 0.000000 0.060215  0.423447 -0.254301 -0.544492
14  -0.039876 0.060989 0.002159  -0.058580 0.037532 -0.110948
15  0.043265 0.077505 0.036874  -0.000000 0.000000 0.000000
16  0.000000 -0.000000 -0.000000  -0.620385 -1.173161 0.771460
17  0.020260 0.201078 -0.017731  0.088478 -0.093889 -1.531786
18  0.010537 0.100376 -0.010148  -0.062838 -0.470324 0.061781
19  0.018646 0.186860 -0.018292  0.786503 -0.077217 -0.021178
20  -0.032087 0.200172 -0.061335  0.294053 0.043523 0.241001
21  0.009278 0.058322 -0.044375  0.262716 0.010120 0.017643
22  0.069086 0.193199 -0.059144  0.291297 -0.006770 -0.118817
23  0.008560 0.057628 -0.044090  0.262914 0.010104 0.016699
24  0.102185 0.077529 -0.031768  0.027582 0.019824 -0.449277
25  0.038420 0.022931 -0.000959  -0.022709 0.095588 0.260451
26  -0.039647 -0.056266 0.002069  0.108867 0.390489 -0.449280
27  0.042761 -0.082398 0.038132  0.000000 -0.000000 0.000000
28  0.000000 0.000000 0.000000  -1.219558 -2.284865 1.050170
29  0.020122 -0.201078 -0.017893  -0.064091 -0.089029 1.267563
30  0.010469 -0.100374 -0.010235  0.003285 -0.034522 -0.003441
31  0.018520 -0.186856 -0.018450  -0.423661 -0.042980 0.003627
32  -0.032222 -0.200100 -0.061496  -0.488226 -0.009203 -0.338370
33  0.009310 -0.057389 -0.045571  -0.128303 0.003762 -0.007849
34  0.068956 -0.193197 -0.059302  -0.635230 -0.090270 0.299967
35  0.008683 -0.056712 -0.045241  -0.128332 0.003732 -0.007717
36  0.102133 -0.077572 -0.031829  -0.012837 0.113521 0.297795
37  0.034314 -0.028672 -0.001806  0.010242 0.021041 -0.059649
38  0.001143 0.000000 -0.181958  -0.132842 0.217561 -0.021871
39  0.004961 -0.000269 -0.096018  0.134987 0.231032 0.007876
40  -0.011623 0.003704 -0.088948  0.021766 0.038611 -0.000325
41  -0.007644 0.000000 -0.210641  -0.036071 -0.311390 0.010458
time 19
0  0 0 0  0 0 0
1  0.000000 0.000010 0.000000  -1.570796 -0.000000 0.000000
2  0.000000 0.000000 0.000000  0.000000 -0.000000 0.000000
3  0.000000 0.000000 0.000000  0.000000 -0.000000 0.000000
4  0.006445 -0.000000 0.753335  0.000000 -0.000000 0.000000
5  0.197781 -0.037265 -0.057657  0.002561 0.032957 0.002538
6  -0.000000 -0.000000 0.000000  -0.000000 -0.000000 0.000000
7  -0.000000 -0.000000 0.000000  0.234499 -0.150071 -0.026880
8  0.002937 -0.000000 0.194891  -0.000861 -0.112261 0.000603
9  0.003500 -0.000000 0.083408  0.063455 -0.112174 -0.011089
10  -0.012239 -0.000000 0.122389  0.061064 -0.036499 -0.014546
11  0.000267 -0.000000 0.055138  -0.002632 -0.124698 0.002321
12  0.003234 -0.000000 0.052281  -0.000288 -0.254809 0.003208
13  -0.001318 0.000000 0.060214  0.430773 -0.278506 -0.549192
14  -0.039876 0.060989 0.002159  -0.101340 -0.009994 -0.121902
15  0.043265 0.077505 0.036874  0.000000 0.000000 0.000000
16  0.000000 -0.000000 -0.000000  -0.884168 -0.909287 1.000877
17  0.020259 0.201078 -0.017731  0.089077 -0.093941 -1.537982
18  0.010537 0.100376 -0.010148  -0.055208 -0.427092 0.054239
19  0.018646 0.186860 -0.018292  0.739817 -0.073307 -0.018276
20  -0.032087 0.200172 -0.061335  0.292954 0.043395 0.239226
21  0.009278 0.058322 -0.044375  0.261964 0.010190 0.017602
22  0.069086 0.193199 -0.059144  0.290233 -0.006555 -0.117863
23  0.008560 0.057628 -0.044090  0.262162 0.010172 0.016658
24  0.102185 0.077529 -0.031768  0.027225 0.020621 -0.446541
25  0.038420 0.022931 -0.000959  -0.022738 0.095876 0.261214
26  -0.039647 -0.056266 0.002069  0.164026 0.356933 -0.380977
27  0.042761 -0.082398 0.038132  0.000000 -0.000000 -0.000000
28  0.000000 0.000000 0.000000  1.170133 -0.818530 -1.322799
29  0.020122 -0.201078 -0.017893  -0.049520 -0.082278 1.103450
30  0.010469 -0.100374 -0.010235  0.003285 -0.034522 -0.003441
31  0.018520 -0.186856 -0.018450  -0.438315 -0.044404 0.004075
32  -0.032222 -0.200101 -0.061496  -0.484532 -0.008761 -0.335886
33  0.009310 -0.057389 -0.045571  -0.126307 0.003942 -0.007740
34  0.068956 -0.193197 -0.059302  -0.630404 -0.089311 0.297517
35  0.008683 -0.056712 -0.045241  -0.126337 0.003909 -0.007610
36  0.102133 -0.077572 -0.031829  -0.012652 0.114151 0.295734
37  0.034314 -0.028672 -0.001806  0.010416 0.021431 -0.060739
38  0.001143 0.000000 -0.181958  -0.000813 0.246784 -0.000816
39  0.004961 -0.000269 -0.096018  0.081981 0.189657 0.005104
40  -0.011623 0.003704 -0.088948  0.021786 0.009082 -0.000650
41  -0.007644 0.000000 -0.210641  -0.063720 -0.298102 0.013067
time 20
0  0 0 0  0 0 0
1  0.000000 0.000010 0.000000  -1.570796 -0.000000 0.000000
2  0.000000 0.000000 0.000000  0.000000 -0.000000 0.000000
3  0.000000 0.000000 0.000000  0.000000 -0.000000 0.000000
4  0.006445 -0.000000 0.753335  0.000000 -0.000000 0.000000
5  0.193987 -0.047189 -0.055662  -0.041715 0.051807 0.003420
6  -0.000000 0.000000 0.000000  0.000000 0.000000 -0.000000
7  -0.000000 0.000000 0.000000  0.192111 -0.086720 -0.027694
8  0.002937 -0.000000 0.194891  -0.000953 -0.106782 0.001436
9  0.003500 0.000000 0.083408  0.101005 -0.114135 -0.021389
10  -0.012239 -0.000000 0.122389  0.097400 -0.044912 -0.026809
11  0.000267 0.000000 0.055138  -0.002483 -0.120638 0.001964
12  0.003234 0.000000 0.052281  -0.000314 -0.239803 0.003624
13  -0.001318 0.000000 0.060214  0.431428 -0.315277 -0.544958
14  -0.039876 0.060989 0.002159  -0.147409 -0.063832 -0.131585
15  0.043265 0.077505 0.036874  0.000000 -0.000000 0.000000
16  0.000000 -0.000000 -0.000000  -0.969201 -0.655916 1.058663
17  0.020260 0.201078 -0.017731  0.078743 -0.092524 -1.430519
18  0.010537 0.100376 -0.010148  -0.046713 -0.375270 0.045856
19  0.018646 0.186860 -0.018292  0.668920 -0.067119 -0.014225
20  -0.032087 0.200172 -0.061335  0.286361 0.042588 0.228583
21  0.009278 0.058322 -0.044375  0.257454 0.010606 0.017354
22  0.069086 0.193199 -0.059144  0.283851 -0.005242 -0.112147
23  0.008560 0.057628 -0.044090  0.257651 0.010577 0.016411
24  0.102185 0.077529 -0.031768  0.025133 0.025424 -0.430131
25  0.038420 0.022931 -0.000959  -0.022910 0.097604 0.265792
26  -0.039647 -0.056266 0.002069  0.221205 0.311247 -0.315849
27  0.042761 -0.082398 0.038132  0.000000 -0.000000 -0.000000
28  0.000000 0.000000 0.000000  0.557027 -0.288093 -0.583220
29  0.020122 -0.201078 -0.017893  -0.030849 -0.068536 0.866351
30  0.010469 -0.100374 -0.010235  0.003285 -0.034522 -0.003441
31  0.018520 -0.186856 -0.018449  -0.458730 -0.046370 0.004733
32  -0.032222 -0.200101 -0.061496  -0.462343 -0.006303 -0.320948
33  0.009310 -0.057389 -0.045571  -0.114330 0.005020 -0.007081
34  0.068956 -0.193197 -0.059302  -0.601506 -0.083309 0.282921
35  0.008683 -0.056712 -0.045241  -0.114361 0.004962 -0.006962
36  0.102133 -0.077572 -0.031829  -0.011568 0.117934 0.283366
37  0.034314 -0.028672 -0.001806  0.011455 0.023779 -0.067279
38  0.001143 0.000000 -0.181958  0.137063 0.262322 0.024299
39  0.004961 -0.000269 -0.096018  0.023462 0.142574 0.004595
40  -0.011623 0.003704 -0.088948  0.022431 -0.015211 -0.000944
41  -0.007644 0.000000 -0.210641  -0.089317 -0.279710 0.014742
end
