version 1
nodes
0 "blender_implicit" -1
1 "Skel0" -1
2 "Skel1" 1
3 "Skel2" 2
4 "Skel3" 3
5 "Skel4" 4
6 "Skel5" 5
7 "Skel6" 6
8 "Skel7" 7
9 "Skel8" 8
10 "Skel9" 9
11 "Skel10" 10
12 "Skel11" 11
13 "Skel12" 12
14 "Skel13" 10
15 "Skel14" 14
16 "Skel15" 15
17 "Skel16" 16
18 "Skel17" 17
19 "Skel18" 18
20 "Skel19" 19
21 "Skel20" 20
22 "Skel21" 19
23 "Skel22" 22
24 "Skel23" 19
25 "Skel24" 24
26 "Skel25" 10
27 "Skel26" 26
28 "Skel27" 27
29 "Skel28" 28
30 "Skel29" 29
31 "Skel30" 30
32 "Skel31" 31
33 "Skel32" 32
34 "Skel33" 31
35 "Skel34" 34
36 "Skel35" 31
37 "Skel36" 36
38 "Skel37" 5
39 "Skel38" 38
40 "Skel39" 39
41 "Skel40" 40
end
skeleton
time 0
0  0 0 0  0 0 0
1  0.000000 0.000010 0.000000  -1.570796 -0.000000 0.000000
2  0.000000 0.000000 0.000000  0.000000 -0.000000 0.000000
3  0.000000 0.000000 0.000000  0.000000 -0.000000 0.000000
4  0.006445 -0.000000 0.753335  0.000000 -0.000000 0.000000
5  0.046703 -0.036973 -0.001824  -0.049750 0.008181 -0.000020
6  -0.000000 0.000000 -0.000000  0.000000 -0.000000 0.000000
7  -0.000000 0.000000 -0.000000  -0.081452 -0.232652 0.000052
8  0.002937 0.000000 0.194891  -0.000000 -0.000000 0.000000
9  0.003500 0.000000 0.083408  -0.000000 -0.000000 0.000000
10  -0.012239 0.000000 0.122389  -0.000000 -0.000000 0.000000
11  0.000267 0.000000 0.055138  -0.000000 -0.000000 0.000000
12  0.003234 0.000000 0.052281  -0.000000 -0.000000 0.000000
13  -0.001319 0.000000 0.060214  0.096714 0.157086 0.000017
14  -0.039876 0.060989 0.002159  -0.347841 0.242601 0.056790
15  0.043265 0.077505 0.036874  0.000000 -0.000000 0.000000
16  0.000000 0.000000 0.000000  -0.590268 0.291666 -0.091614
17  0.020260 0.201079 -0.017731  0.001477 -0.014596 -0.231635
18  0.010537 0.100376 -0.010148  0.003375 0.034545 -0.003297
19  0.018646 0.186860 -0.018292  -0.015449 0.001605 -0.000215
20  -0.032088 0.200172 -0.061335  -0.077924 0.046850 -0.004304
21  0.009278 0.058322 -0.044375  -0.119717 0.041303 -0.009838
22  0.069086 0.193199 -0.059144  -0.078054 0.039871 -0.003684
23  0.008560 0.057628 -0.044090  -0.119765 0.038606 -0.009259
24  0.102185 0.077529 -0.031768  0.000408 0.131041 -0.090198
25  0.038420 0.022931 -0.000959  -0.024715 0.133491 0.360872
26  -0.039647 -0.056266 0.002069  0.408289 0.164281 -0.041071
27  0.042761 -0.082398 0.038131  -0.000000 -0.000000 -0.000000
28  -0.000000 -0.000000 -0.000000  0.711133 -0.137015 -0.777200
29  0.020122 -0.201078 -0.017893  -0.000935 -0.011333 0.196730
30  0.010469 -0.100374 -0.010235  0.003285 -0.034522 -0.003441
31  0.018520 -0.186856 -0.018450  0.021477 0.002131 0.000298
32  -0.032222 -0.200100 -0.061496  -0.006144 0.040671 -0.000322
33  0.009310 -0.057389 -0.045571  0.135028 0.026002 0.009765
34  0.068956 -0.193197 -0.059302  -0.006160 0.040548 -0.000330
35  0.008683 -0.056712 -0.045241  0.135029 0.025425 0.009563
36  0.102133 -0.077572 -0.031830  0.000018 0.198946 0.025528
37  0.034314 -0.028672 -0.001806  0.029545 0.073997 -0.202702
38  0.001143 0.000000 -0.181958  0.083422 0.099829 0.008146
39  0.004961 -0.000269 -0.096018  0.048407 -0.048497 -0.009480
40  -0.011623 0.003704 -0.088948  0.052917 0.037150 -0.000910
41  -0.007644 0.000000 -0.210641  -0.090871 -0.066569 0.000888
time 1
0  0 0 0  0 0 0
1  0.000000 0.000010 0.000000  -1.570796 -0.000000 0.000000
2  0.000000 0.000000 0.000000  0.000000 -0.000000 0.000000
3  0.111576 0.000000 0.072973  0.000000 -0.000000 0.000000
4  0.006445 -0.000000 0.753335  0.000000 -0.000000 0.000000
5  -0.064800 -0.029238 -0.074797  -0.057793 0.327531 0.110937
6  -0.000000 0.000000 0.000000  0.000000 0.000000 0.000000
7  -0.000000 0.000000 0.000000  -0.078347 -0.113964 0.060518
8  0.002937 -0.000000 0.194891  0.046653 0.094489 0.052436
9  0.003500 0.000000 0.083408  0.100585 0.186175 0.040637
10  -0.012239 -0.000000 0.122389  0.086254 0.078701 0.066267
11  0.000267 0.000000 0.055138  0.007040 -0.067160 -0.078412
12  0.003234 -0.000000 0.052281  -0.000587 0.056216 -0.080887
13  -0.001318 -0.000000 0.060214  0.043718 0.135522 -0.080998
14  -0.039876 0.060989 0.002159  -0.604711 -0.462459 0.142778
15  0.043265 0.077505 0.036874  0.000000 -0.000000 0.000000
16  -0.000000 -0.000000 -0.000000  -0.577641 0.708600 0.156025
17  0.020260 0.201078 -0.017731  0.050654 -0.082475 -1.122129
18  0.010537 0.100376 -0.010148  0.003489 0.035612 -0.003397
19  0.018645 0.186860 -0.018292  -0.119262 0.012258 -0.002298
20  -0.032088 0.200172 -0.061335  -0.811593 0.089940 -0.065944
21  0.009278 0.058322 -0.044375  -0.963829 0.062118 -0.096734
22  0.069086 0.193200 -0.059144  -0.811597 0.073979 -0.055223
23  0.008560 0.057628 -0.044090  -0.963857 0.056545 -0.090081
24  0.102185 0.077529 -0.031768  -0.183843 0.431286 0.108862
25  0.038420 0.022931 -0.000959  -0.018296 0.065105 0.179106
26  -0.039647 -0.056266 0.002069  -0.189903 -0.467829 0.270510
27  0.042761 -0.082398 0.038132  -0.000000 -0.000000 0.000000
28  -0.000000 -0.000000 0.000000  0.958323 0.484487 -0.975553
29  0.020122 -0.201078 -0.017893  -0.046002 -0.080185 1.061668
30  0.010469 -0.100374 -0.010236  0.009655 -0.097034 -0.009990
31  0.018520 -0.186856 -0.018449  0.268683 0.026506 0.007109
32  -0.032223 -0.200101 -0.061496  0.801696 0.087844 0.064495
33  0.009310 -0.057389 -0.045571  0.710575 0.054391 0.064071
34  0.068956 -0.193197 -0.059302  0.801687 0.087568 0.064307
35  0.008683 -0.056712 -0.045241  0.710660 0.053040 0.062750
36  0.102133 -0.077572 -0.031829  0.201355 0.453713 -0.201216
37  0.034314 -0.028672 -0.001806  0.016554 0.035953 -0.100826
38  0.001143 0.000000 -0.181958  0.017831 -0.139274 0.000060
39  0.004961 -0.000269 -0.096018  0.084875 -0.576871 -0.081486
40  -0.011623 0.003704 -0.088948  0.017618 -0.131712 -0.026098
41  -0.007644 0.000000 -0.210641  -0.038231 0.058371 -0.028105
time 2
0  0 0 0  0 0 0
1  0.000000 0.000010 0.000000  -1.570796 -0.000000 0.000000
2  0.000000 0.000000 0.000000  0.000000 -0.000000 0.000000
3  0.118143 0.000000 0.090924  0.000000 -0.000000 0.000000
4  0.006445 -0.000000 0.753335  0.000000 -0.000000 0.000000
5  -0.071319 -0.010362 -0.092749  -0.064382 0.493590 0.134783
6  0.000000 -0.000000 0.000000  -0.000000 0.000000 0.000000
7  0.000000 -0.000000 0.000000  -0.056697 0.005939 0.082163
8  0.002937 -0.000000 0.194891  0.078504 0.153974 0.042124
9  0.003500 0.000000 0.083408  0.176367 0.212797 0.033248
10  -0.012239 0.000000 0.122389  0.121834 0.084681 0.061426
11  0.000267 -0.000000 0.055137  0.011735 -0.095192 -0.107502
12  0.003234 0.000000 0.052281  0.003297 0.072602 -0.050712
13  -0.001319 0.000000 0.060214  0.003143 0.033739 -0.048898
14  -0.039876 0.060989 0.002159  -0.813619 -0.764039 0.234968
15  0.043265 0.077505 0.036874  0.000000 -0.000000 0.000000
16  0.000000 0.000000 -0.000000  -0.309719 0.745431 0.646695
17  0.020260 0.201078 -0.017731  0.117054 -0.092219 -1.827629
18  0.010537 0.100376 -0.010148  -0.006226 -0.060493 0.006069
19  0.018646 0.186860 -0.018292  -0.160928 0.016446 -0.003440
20  -0.032087 0.200172 -0.061335  -1.326591 0.089220 -0.119273
21  0.009278 0.058322 -0.044375  -1.551298 0.032926 -0.152775
22  0.069086 0.193199 -0.059144  -1.325890 0.072298 -0.099008
23  0.008560 0.057628 -0.044090  -1.551326 0.028629 -0.141545
24  0.102185 0.077529 -0.031768  -0.292381 0.658339 0.228991
25  0.038420 0.022931 -0.000959  -0.006334 0.017963 0.050552
26  -0.039647 -0.056266 0.002069  -0.404515 -0.692340 0.497317
27  0.042761 -0.082398 0.038132  0.000000 0.000000 -0.000000
28  0.000000 0.000000 0.000000  0.937705 0.782130 -1.020797
29  0.020122 -0.201078 -0.017893  -0.091156 -0.094813 1.551088
30  0.010469 -0.100374 -0.010235  0.011342 -0.112865 -0.011719
31  0.018520 -0.186856 -0.018450  0.297670 0.029246 0.008300
32  -0.032222 -0.200101 -0.061496  1.367215 0.084627 0.121253
33  0.009310 -0.057389 -0.045571  1.115955 0.054020 0.107488
34  0.068956 -0.193197 -0.059302  1.367199 0.084351 0.120901
35  0.008683 -0.056712 -0.045241  1.116050 0.052555 0.105202
36  0.102133 -0.077572 -0.031829  0.321171 0.652870 -0.343802
37  0.034314 -0.028672 -0.001806  0.005032 0.009914 -0.028440
38  0.001143 0.000000 -0.181958  0.009971 -0.239601 -0.000019
39  0.004961 -0.000269 -0.096018  0.092749 -0.834065 -0.116970
40  -0.011623 0.003704 -0.088948  0.021041 -0.162568 -0.035728
41  -0.007644 0.000000 -0.210641  -0.019790 0.200623 -0.039957
time 3
0  0 0 0  0 0 0
1  0.000000 0.000010 0.000000  -1.570796 -0.000000 0.000000
2  0.000000 0.000000 0.000000  0.000000 -0.000000 0.000000
3  -0.132154 0.000000 0.039989  0.000000 -0.000000 0.000000
4  0.006445 -0.000000 0.753335  0.000000 -0.000000 0.000000
5  0.179051 0.025759 -0.041814  -0.115118 0.313538 -0.041899
6  -0.000000 -0.000000 -0.000000  0.000000 -0.000000 0.000000
7  -0.000000 -0.000000 -0.000000  -0.013656 0.087007 0.022089
8  0.002937 0.000000 0.194891  0.060638 0.138563 -0.099683
9  0.003500 0.000000 0.083408  0.160411 -0.075413 -0.102509
10  -0.012239 0.000000 0.122389  0.041669 -0.045802 -0.093989
11  0.000267 -0.000000 0.055138  0.002834 -0.044154 -0.028788
12  0.003234 -0.000000 0.052281  0.022112 0.009732 0.196808
13  -0.001319 0.000000 0.060215  -0.019649 -0.188578 0.203550
14  -0.039876 0.060989 0.002159  -0.587428 -0.259520 0.045523
15  0.043265 0.077505 0.036874  0.000000 -0.000000 -0.000000
16  -0.000000 0.000000 -0.000000  -0.239586 0.088762 0.732009
17  0.020260 0.201078 -0.017731  0.100006 -0.094232 -1.650618
18  0.010537 0.100376 -0.010148  -0.038072 -0.318064 0.037333
19  0.018646 0.186860 -0.018292  -0.054816 0.005631 -0.000870
20  -0.032088 0.200172 -0.061335  -1.326592 0.089220 -0.119273
21  0.009278 0.058322 -0.044375  -1.551298 0.032926 -0.152775
22  0.069086 0.193199 -0.059144  -1.325890 0.072298 -0.099008
23  0.008560 0.057628 -0.044090  -1.551326 0.028629 -0.141545
24  0.102185 0.077529 -0.031768  -0.292381 0.658339 0.228991
25  0.038420 0.022931 -0.000959  -0.006334 0.017963 0.050552
26  -0.039647 -0.056266 0.002069  0.482968 -0.255089 -0.012661
27  0.042761 -0.082398 0.038132  -0.000000 -0.000000 0.000000
28  -0.000000 0.000000 0.000000  0.541114 0.423846 -0.655583
29  0.020122 -0.201078 -0.017893  -0.051881 -0.083575 1.130947
30  0.010469 -0.100374 -0.010235  0.002840 -0.029656 -0.002949
31  0.018520 -0.186856 -0.018449  -0.129735 -0.013268 -0.000834
32  -0.032222 -0.200101 -0.061496  1.367215 0.084627 0.121253
33  0.009310 -0.057389 -0.045571  1.115955 0.054020 0.107488
34  0.068956 -0.193197 -0.059302  1.367199 0.084351 0.120901
35  0.008683 -0.056713 -0.045241  1.116050 0.052555 0.105202
36  0.102133 -0.077572 -0.031829  0.321171 0.652870 -0.343802
37  0.034314 -0.028672 -0.001806  0.005032 0.009914 -0.028440
38  0.001143 0.000000 -0.181958  0.117239 0.023700 0.007351
39  0.004961 -0.000269 -0.096018  -0.133213 -0.337543 0.016801
40  -0.011623 0.003704 -0.088948  0.084699 -0.006092 -0.012259
41  -0.007644 0.000000 -0.210641  0.018403 -0.013891 -0.008090
time 4
0  0 0 0  0 0 0
1  0.000000 0.000010 0.000000  -1.570796 -0.000000 0.000000
2  0.000000 0.000000 0.000000  0.000000 -0.000000 0.000000
3  -0.405527 0.000000 -0.225584  0.000000 -0.000000 0.000000
4  0.006445 -0.000000 0.753335  0.000000 -0.000000 0.000000
5  0.452473 0.021689 0.223759  -0.070815 0.220050 -0.099470
6  0.000000 0.000000 0.000000  0.000000 -0.000000 0.000000
7  0.000000 0.000000 0.000000  -0.000272 -0.013875 -0.000816
8  0.002937 0.000000 0.194891  0.027072 0.138119 -0.121006
9  0.003500 0.000000 0.083408  0.061927 -0.131665 -0.115852
10  -0.012239 -0.000000 0.122389  0.005984 -0.056658 -0.119866
11  0.000267 0.000000 0.055138  -0.000000 -0.049375 0.000000
12  0.003234 -0.000000 0.052281  0.041727 0.016866 0.238168
13  -0.001319 -0.000000 0.060214  0.011295 -0.156381 0.242438
14  -0.039876 0.060989 0.002159  -0.491793 -0.031295 0.057326
15  0.043265 0.077505 0.036874  -0.000000 -0.000000 0.000000
16  -0.000000 -0.000000 -0.000000  -0.297515 -0.053001 0.594571
17  0.020259 0.201078 -0.017731  0.049324 -0.081740 -1.106483
18  0.010537 0.100376 -0.010148  -0.032339 -0.277443 0.031689
19  0.018646 0.186860 -0.018293  0.046808 -0.004898 0.000502
20  -0.032088 0.200172 -0.061335  -1.296110 0.090036 -0.116199
21  0.009278 0.058322 -0.044375  -1.516485 0.035538 -0.150012
22  0.069086 0.193199 -0.059144  -1.295429 0.073014 -0.096474
23  0.008560 0.057628 -0.044090  -1.516498 0.031093 -0.139026
24  0.102185 0.077529 -0.031768  -0.283419 0.646484 0.223037
25  0.038420 0.022931 -0.000959  -0.007203 0.020683 0.058114
26  -0.039647 -0.056266 0.002069  0.622788 -0.026967 -0.083366
27  0.042761 -0.082398 0.038132  0.000000 -0.000000 0.000000
28  0.000000 0.000000 0.000000  0.437771 0.335231 -0.409956
29  0.020122 -0.201078 -0.017893  -0.026435 -0.064125 0.802697
30  0.010469 -0.100374 -0.010235  0.000000 0.000000 0.000000
31  0.018520 -0.186856 -0.018449  -0.278756 -0.028485 0.000334
32  -0.032222 -0.200101 -0.061496  1.333672 0.085710 0.118014
33  0.009310 -0.057388 -0.045571  1.091998 0.054530 0.104954
34  0.068956 -0.193197 -0.059302  1.333657 0.085428 0.117668
35  0.008683 -0.056712 -0.045241  1.092100 0.053063 0.102730
36  0.102133 -0.077572 -0.031829  0.312210 0.642888 -0.336046
37  0.034314 -0.028672 -0.001806  0.005782 0.011417 -0.032712
38  0.001143 0.000000 -0.181958  0.114353 0.056625 0.008959
39  0.004961 -0.000269 -0.096018  -0.168165 -0.005420 0.022144
40  -0.011623 0.003704 -0.088948  0.078814 -0.004579 -0.002999
41  -0.007644 0.000000 -0.210641  0.055230 -0.135181 0.001008
time 5
0  0 0 0  0 0 0
1  0.000000 0.000010 0.000000  -1.570796 -0.000000 0.000000
2  0.000000 0.000000 0.000000  0.000000 -0.000000 0.000000
3  -0.667014 0.000000 -0.619054  0.000000 -0.000000 0.000000
4  0.006445 -0.000000 0.753335  0.000000 -0.000000 0.000000
5  0.713960 0.000041 0.617230  0.008073 0.190145 -0.097451
6  0.000000 -0.000000 -0.000000  0.000000 -0.000000 -0.000000
7  0.000000 -0.000000 -0.000000  -0.000511 -0.185804 -0.002006
8  0.002937 0.000000 0.194891  -0.009084 0.151581 -0.083786
9  0.003500 0.000000 0.083408  -0.064170 -0.063597 -0.078331
10  -0.012239 -0.000000 0.122389  -0.003105 -0.006181 -0.083223
11  0.000267 0.000000 0.055137  0.000000 -0.083803 -0.000000
12  0.003234 -0.000000 0.052281  0.060250 0.060128 0.179654
13  -0.001319 -0.000000 0.060214  0.059124 -0.008750 0.182881
14  -0.039876 0.060989 0.002159  -0.469305 0.014803 0.071049
15  0.043265 0.077506 0.036874  0.000000 -0.000000 -0.000000
16  -0.000000 -0.000000 0.000000  -0.415932 0.010914 0.530739
17  0.020260 0.201078 -0.017731  0.015657 -0.050172 -0.627208
18  0.010537 0.100376 -0.010148  -0.010807 -0.102771 0.010554
19  0.018646 0.186860 -0.018292  0.134598 -0.014062 0.000822
20  -0.032087 0.200172 -0.061335  -1.296110 0.090036 -0.116199
21  0.009278 0.058322 -0.044375  -1.516485 0.035538 -0.150012
22  0.069086 0.193199 -0.059144  -1.295430 0.073014 -0.096474
23  0.008560 0.057628 -0.044090  -1.516498 0.031093 -0.139026
24  0.102185 0.077529 -0.031768  -0.283419 0.646484 0.223037
25  0.038420 0.022931 -0.000959  -0.007203 0.020683 0.058114
26  -0.039647 -0.056266 0.002069  0.563885 -0.013130 -0.099152
27  0.042761 -0.082398 0.038132  0.000000 -0.000000 -0.000000
28  0.000000 -0.000000 0.000000  0.489600 0.327572 -0.342753
29  0.020122 -0.201077 -0.017893  -0.014803 -0.049019 0.608119
30  0.010469 -0.100374 -0.010235  0.000000 -0.000000 0.000000
31  0.018520 -0.186856 -0.018449  -0.278756 -0.028485 0.000334
32  -0.032222 -0.200101 -0.061496  1.333672 0.085710 0.118014
33  0.009310 -0.057389 -0.045571  1.091998 0.054530 0.104954
34  0.068956 -0.193197 -0.059302  1.333657 0.085428 0.117668
35  0.008683 -0.056712 -0.045241  1.092100 0.053063 0.102730
36  0.102133 -0.077572 -0.031829  0.312210 0.642888 -0.336046
37  0.034314 -0.028672 -0.001806  0.005782 0.011417 -0.032712
38  0.001143 0.000000 -0.181958  0.055811 -0.069069 0.001136
39  0.004961 -0.000269 -0.096018  -0.101629 0.131457 0.012123
40  -0.011623 0.003704 -0.088948  0.043892 -0.035598 -0.002329
41  -0.007644 0.000000 -0.210641  0.055617 -0.014481 0.001985
time 6
0  0 0 0  0 0 0
1  0.000000 0.000010 0.000000  -1.570796 -0.000000 0.000000
2  0.000000 0.000000 0.000000  0.000000 -0.000000 0.000000
3  -0.897239 0.000000 -0.969373  0.000000 -0.000000 0.000000
4  0.006445 -0.000000 0.753335  0.000000 -0.000000 0.000000
5  0.944185 -0.017805 0.967549  0.071124 0.156930 -0.097467
6  -0.000000 0.000000 -0.000000  -0.000000 0.000000 -0.000000
7  -0.000000 0.000000 -0.000000  -0.000545 -0.319541 -0.002911
8  0.002937 -0.000000 0.194891  -0.038163 0.157851 -0.051900
9  0.003500 0.000000 0.083408  -0.161163 -0.001877 -0.052812
10  -0.012239 0.000000 0.122389  -0.007163 0.036237 -0.051892
11  0.000267 0.000000 0.055137  -0.000000 -0.113936 -0.000000
12  0.003234 -0.000000 0.052281  0.070943 0.092232 0.129482
13  -0.001319 -0.000000 0.060214  0.090246 0.112502 0.136364
14  -0.039876 0.060989 0.002159  -0.451213 0.052383 0.076150
15  0.043265 0.077506 0.036874  0.000000 -0.000000 -0.000000
16  -0.000000 -0.000000 0.000000  -0.520559 0.092011 0.493546
17  0.020259 0.201078 -0.017731  0.001554 -0.015013 -0.235993
18  0.010537 0.100376 -0.010148  0.004480 0.045779 -0.004344
19  0.018646 0.186860 -0.018293  0.211208 -0.022052 0.000443
20  -0.032088 0.200172 -0.061335  -1.296110 0.090036 -0.116199
21  0.009278 0.058322 -0.044375  -1.516485 0.035538 -0.150012
22  0.069086 0.193199 -0.059144  -1.295430 0.073014 -0.096474
23  0.008560 0.057628 -0.044090  -1.516498 0.031093 -0.139026
24  0.102185 0.077529 -0.031768  -0.283419 0.646484 0.223037
25  0.038420 0.022931 -0.000959  -0.007203 0.020683 0.058114
26  -0.039647 -0.056266 0.002069  0.502096 -0.006887 -0.112816
27  0.042761 -0.082398 0.038132  0.000000 -0.000000 -0.000000
28  0.000000 0.000000 0.000000  0.542152 0.350390 -0.310561
29  0.020122 -0.201077 -0.017893  -0.009854 -0.040101 0.504231
30  0.010469 -0.100374 -0.010236  -0.000206 0.002173 0.000213
31  0.018520 -0.186856 -0.018450  -0.267241 -0.027318 0.000163
32  -0.032222 -0.200101 -0.061496  1.333672 0.085710 0.118014
33  0.009310 -0.057389 -0.045571  1.091998 0.054530 0.104954
34  0.068956 -0.193197 -0.059302  1.333657 0.085428 0.117668
35  0.008683 -0.056713 -0.045241  1.092100 0.053063 0.102730
36  0.102133 -0.077572 -0.031829  0.312210 0.642888 -0.336046
37  0.034314 -0.028672 -0.001806  0.005782 0.011417 -0.032712
38  0.001143 0.000000 -0.181958  0.006558 -0.171632 0.000251
39  0.004961 -0.000269 -0.096018  -0.037386 0.242290 0.010597
40  -0.011623 0.003704 -0.088948  0.012253 -0.058448 -0.000761
41  -0.007644 0.000000 -0.210641  0.049990 0.082719 0.002332
time 7
0  0 0 0  0 0 0
1  0.000000 0.000010 0.000000  -1.570796 -0.000000 0.000000
2  0.000000 0.000000 0.000000  0.000000 -0.000000 0.000000
3  -0.971161 0.000000 -1.103935  0.000000 -0.000000 0.000000
4  0.006445 -0.000000 0.753335  0.000000 -0.000000 0.000000
5  1.018107 -0.016638 1.102111  0.057696 0.107323 -0.096255
6  0.000000 -0.000000 -0.000000  -0.000000 -0.000000 0.000000
7  0.000000 -0.000000 -0.000000  -0.000471 -0.266483 -0.002370
8  0.002937 -0.000000 0.194891  -0.034178 0.122143 -0.044707
9  0.003500 0.000000 0.083408  -0.128163 0.010095 -0.045769
10  -0.012239 -0.000000 0.122389  0.005436 0.037092 -0.044993
11  0.000267 0.000000 0.055137  -0.000000 -0.122633 0.000000
12  0.003234 0.000000 0.052281  0.054261 0.063996 0.118225
13  -0.001319 0.000000 0.060214  0.077948 0.093771 0.123339
14  -0.039876 0.060989 0.002159  -0.458010 0.048793 0.033350
15  0.043265 0.077505 0.036874  0.000000 -0.000000 -0.000000
16  -0.000000 -0.000000 0.000000  -0.524256 0.299096 0.623645
17  0.020259 0.201079 -0.017731  0.000826 -0.010577 -0.189896
18  0.010537 0.100376 -0.010148  0.006435 0.066486 -0.006245
19  0.018646 0.186860 -0.018293  0.232436 -0.024246 0.000230
20  -0.032087 0.200172 -0.061335  -1.296110 0.090036 -0.116199
21  0.009278 0.058322 -0.044375  -1.516485 0.035538 -0.150012
22  0.069086 0.193199 -0.059144  -1.295429 0.073014 -0.096474
23  0.008560 0.057628 -0.044090  -1.516498 0.031093 -0.139026
24  0.102185 0.077529 -0.031768  -0.283419 0.646484 0.223037
25  0.038420 0.022931 -0.000959  -0.007203 0.020683 0.058114
26  -0.039647 -0.056266 0.002069  0.426537 -0.034178 -0.111104
27  0.042761 -0.082398 0.038132  0.000000 -0.000000 -0.000000
28  0.000000 0.000000 0.000000  0.587808 0.545786 -0.451483
29  0.020122 -0.201077 -0.017893  -0.029800 -0.067538 0.851575
30  0.010469 -0.100374 -0.010235  -0.001436 0.015215 0.001480
31  0.018520 -0.186856 -0.018450  -0.198126 -0.020275 -0.000580
32  -0.032222 -0.200101 -0.061496  1.333672 0.085710 0.118014
33  0.009310 -0.057389 -0.045571  1.091998 0.054530 0.104954
34  0.068956 -0.193197 -0.059302  1.333657 0.085428 0.117668
35  0.008683 -0.056712 -0.045241  1.092100 0.053063 0.102730
36  0.102133 -0.077572 -0.031829  0.312210 0.642888 -0.336046
37  0.034314 -0.028672 -0.001806  0.005782 0.011417 -0.032712
38  0.001143 0.000000 -0.181958  0.002285 -0.159324 0.000375
39  0.004961 -0.000269 -0.096018  0.015146 0.223760 0.009203
40  -0.011623 0.003704 -0.088948  -0.002683 -0.040685 0.000164
41  -0.007644 0.000000 -0.210641  0.013806 0.063812 -0.000286
time 8
0  0 0 0  0 0 0
1  0.000000 0.000010 0.000000  -1.570796 -0.000000 0.000000
2  0.000000 0.000000 0.000000  0.000000 -0.000000 0.000000
3  -1.020527 0.000000 -1.201646  0.000000 -0.000000 0.000000
4  0.006445 -0.000000 0.753335  0.000000 -0.000000 0.000000
5  1.067473 -0.012478 1.199822  0.032665 0.055876 -0.094668
6  0.000000 -0.000000 -0.000000  0.000000 -0.000000 -0.000000
7  0.000000 -0.000000 -0.000000  -0.000301 -0.185165 -0.001640
8  0.002937 0.000000 0.194891  -0.025224 0.080476 -0.041291
9  0.003500 0.000000 0.083408  -0.075233 0.014614 -0.042239
10  -0.012239 0.000000 0.122389  0.020505 0.031482 -0.041803
11  0.000267 0.000000 0.055137  -0.000000 -0.127456 0.000000
12  0.003234 -0.000000 0.052281  0.033472 0.026005 0.112845
13  -0.001319 -0.000000 0.060214  0.058185 0.053653 0.115960
14  -0.039876 0.060989 0.002159  -0.465763 0.038449 0.013266
15  0.043265 0.077506 0.036874  -0.000000 -0.000000 0.000000
16  -0.000000 0.000000 0.000000  -0.469450 0.528431 0.782718
17  0.020259 0.201078 -0.017731  0.003895 -0.024708 -0.338302
18  0.010537 0.100376 -0.010148  0.006924 0.071982 -0.006744
19  0.018646 0.186860 -0.018292  0.231519 -0.024136 0.000240
20  -0.032087 0.200172 -0.061335  -1.296110 0.090036 -0.116199
21  0.009278 0.058322 -0.044375  -1.516485 0.035538 -0.150012
22  0.069086 0.193199 -0.059144  -1.295429 0.073014 -0.096474
23  0.008560 0.057628 -0.044090  -1.516499 0.031093 -0.139026
24  0.102185 0.077529 -0.031768  -0.283419 0.646484 0.223037
25  0.038420 0.022931 -0.000959  -0.007203 0.020683 0.058114
26  -0.039647 -0.056266 0.002069  0.337570 -0.050964 -0.116862
27  0.042761 -0.082398 0.038132  -0.000000 -0.000000 -0.000000
28  0.000000 0.000000 -0.000000  0.512368 0.745616 -0.664676
29  0.020122 -0.201078 -0.017893  -0.062408 -0.088393 1.249203
30  0.010469 -0.100374 -0.010235  -0.002648 0.028277 0.002733
31  0.018520 -0.186856 -0.018450  -0.122025 -0.012483 -0.000833
32  -0.032222 -0.200101 -0.061496  1.333672 0.085710 0.118014
33  0.009310 -0.057388 -0.045571  1.091998 0.054530 0.104954
34  0.068956 -0.193197 -0.059302  1.333657 0.085428 0.117668
35  0.008683 -0.056713 -0.045241  1.092100 0.053063 0.102730
36  0.102133 -0.077572 -0.031830  0.312210 0.642888 -0.336046
37  0.034314 -0.028672 -0.001806  0.005782 0.011417 -0.032712
38  0.001143 0.000000 -0.181958  0.010188 -0.121503 0.000212
39  0.004961 -0.000269 -0.096018  0.057446 0.168416 0.004446
40  -0.011623 0.003704 -0.088948  -0.016655 -0.010738 0.000675
41  -0.007644 0.000000 -0.210641  -0.019228 0.037465 -0.001801
time 9
0  0 0 0  0 0 0
1  0.000000 0.000010 0.000000  -1.570796 -0.000000 0.000000
2  0.000000 0.000000 0.000000  0.000000 -0.000000 0.000000
3  -1.043149 0.000000 -1.222127  0.000000 -0.000000 0.000000
4  0.006445 -0.000000 0.753335  0.000000 -0.000000 0.000000
5  1.090046 -0.006057 1.220303  0.001439 0.011626 -0.088836
6  0.000000 -0.000000 0.000000  0.000000 0.000000 -0.000000
7  0.000000 -0.000000 0.000000  -0.000149 -0.086968 -0.000801
8  0.002937 0.000000 0.194891  -0.012424 0.038771 -0.039833
9  0.003500 0.000000 0.083408  -0.012732 0.011075 -0.040736
10  -0.012239 0.000000 0.122389  0.033457 0.019961 -0.040547
11  0.000267 -0.000000 0.055138  0.000000 -0.121659 0.000000
12  0.003234 0.000000 0.052281  0.011658 -0.026201 0.107964
13  -0.001319 -0.000000 0.060214  0.033074 -0.004170 0.109315
14  -0.039876 0.060989 0.002159  -0.475181 0.024486 0.021178
15  0.043265 0.077505 0.036874  -0.000000 -0.000000 0.000000
16  -0.000000 -0.000000 0.000000  -0.216301 0.681957 1.097731
17  0.020260 0.201078 -0.017731  0.034686 -0.071618 -0.923064
18  0.010537 0.100376 -0.010148  -0.001018 -0.009958 0.000972
19  0.018646 0.186860 -0.018292  0.160229 -0.016708 0.000762
20  -0.032088 0.200172 -0.061335  -1.296110 0.090036 -0.116199
21  0.009278 0.058322 -0.044375  -1.516485 0.035538 -0.150012
22  0.069086 0.193199 -0.059144  -1.295430 0.073014 -0.096474
23  0.008560 0.057628 -0.044090  -1.516498 0.031093 -0.139026
24  0.102185 0.077529 -0.031768  -0.283419 0.646484 0.223038
25  0.038420 0.022931 -0.000959  -0.007203 0.020683 0.058114
26  -0.039647 -0.056266 0.002069  0.247956 -0.061983 -0.131702
27  0.042761 -0.082398 0.038131  -0.000000 -0.000000 0.000000
28  0.000000 0.000000 -0.000000  0.248867 0.864306 -0.990538
29  0.020122 -0.201078 -0.017893  -0.100561 -0.095016 1.647180
30  0.010469 -0.100374 -0.010235  -0.001841 0.019582 0.001901
31  0.018520 -0.186856 -0.018450  -0.063904 -0.006521 -0.000626
32  -0.032222 -0.200101 -0.061496  1.333672 0.085710 0.118014
33  0.009310 -0.057389 -0.045571  1.091998 0.054530 0.104954
34  0.068956 -0.193197 -0.059302  1.333657 0.085428 0.117668
35  0.008683 -0.056712 -0.045241  1.092100 0.053063 0.102730
36  0.102133 -0.077572 -0.031829  0.312210 0.642888 -0.336046
37  0.034314 -0.028672 -0.001806  0.005782 0.011417 -0.032712
38  0.001143 0.000000 -0.181958  0.026295 -0.053731 0.000759
39  0.004961 -0.000269 -0.096018  0.077092 0.071293 -0.004358
40  -0.011623 0.003704 -0.088948  -0.025244 0.029482 0.000507
41  -0.007644 0.000000 -0.210641  -0.038272 0.009978 -0.001803
time 10
0  0 0 0  0 0 0
1  0.000000 0.000010 0.000000  -1.570796 -0.000000 0.000000
2  0.000000 0.000000 0.000000  0.000000 -0.000000 0.000000
3  -1.064676 0.000000 -1.222419  0.000000 -0.000000 0.000000
4  0.006445 -0.000000 0.753335  0.000000 -0.000000 0.000000
5  1.111500 -0.000000 1.220595  -0.027348 -0.027918 -0.080283
6  -0.000000 0.000000 -0.000000  0.000000 0.000000 -0.000000
7  -0.000000 0.000000 -0.000000  0.000000 0.005554 -0.000000
8  0.002937 0.000000 0.194891  -0.000366 -0.000007 -0.037783
9  0.003500 0.000000 0.083408  0.044617 0.007026 -0.038491
10  -0.012239 0.000000 0.122389  0.044097 0.008664 -0.038457
11  0.000267 0.000000 0.055137  0.000000 -0.112487 0.000000
12  0.003234 -0.000000 0.052281  -0.008195 -0.080828 0.101227
13  -0.001319 0.000000 0.060214  0.009480 -0.060381 0.101064
14  -0.039876 0.060989 0.002159  -0.484993 0.012064 0.031814
15  0.043265 0.077505 0.036874  -0.000000 -0.000000 0.000000
16  0.000000 -0.000000 0.000000  0.143129 0.701676 1.506381
17  0.020259 0.201078 -0.017731  0.099042 -0.094256 -1.640690
18  0.010537 0.100376 -0.010148  -0.013646 -0.127931 0.013328
19  0.018646 0.186860 -0.018293  0.064819 -0.006751 0.000632
20  -0.032087 0.200172 -0.061335  -1.296110 0.090036 -0.116199
21  0.009278 0.058322 -0.044375  -1.516485 0.035538 -0.150012
22  0.069086 0.193199 -0.059144  -1.295429 0.073014 -0.096474
23  0.008560 0.057628 -0.044090  -1.516498 0.031093 -0.139026
24  0.102185 0.077529 -0.031768  -0.283419 0.646484 0.223037
25  0.038420 0.022931 -0.000959  -0.007203 0.020683 0.058114
26  -0.039647 -0.056266 0.002069  0.164763 -0.075995 -0.145791
27  0.042761 -0.082398 0.038132  0.000000 -0.000000 -0.000000
28  0.000000 0.000000 0.000000  -0.076951 0.891941 -1.358529
29  0.020122 -0.201078 -0.017893  -0.136083 -0.087364 2.020333
30  0.010469 -0.100374 -0.010235  -0.000000 -0.000000 -0.000000
31  0.018520 -0.186856 -0.018449  -0.018278 -0.001848 -0.000220
32  -0.032222 -0.200101 -0.061496  1.333672 0.085710 0.118014
33  0.009310 -0.057388 -0.045571  1.091998 0.054530 0.104954
34  0.068956 -0.193197 -0.059302  1.333657 0.085428 0.117668
35  0.008683 -0.056713 -0.045241  1.092100 0.053063 0.102730
36  0.102133 -0.077572 -0.031830  0.312210 0.642888 -0.336046
37  0.034314 -0.028672 -0.001806  0.005782 0.011417 -0.032712
38  0.001143 0.000000 -0.181958  0.040490 0.016253 0.002344
39  0.004961 -0.000269 -0.096018  0.091130 -0.028247 -0.014365
40  -0.011623 0.003704 -0.088948  -0.031636 0.068749 0.000011
41  -0.007644 0.000000 -0.210641  -0.051878 -0.014381 -0.001275
time 11
0  0 0 0  0 0 0
1  0.000000 0.000010 0.000000  -1.570796 -0.000000 0.000000
2  0.000000 0.000000 0.000000  0.000000 -0.000000 0.000000
3  -1.111622 0.000000 -1.018679  0.000000 -0.000000 0.000000
4  0.006445 -0.000000 0.753335  0.000000 -0.000000 0.000000
5  1.139717 -0.000000 1.017584  -0.016756 -0.013217 -0.048286
6  0.000000 0.000000 -0.000000  -0.000000 -0.000000 -0.000000
7  0.000000 0.000000 -0.000000  -0.000000 0.009754 -0.000000
8  0.002937 -0.000000 0.194891  -0.000220 -0.000002 -0.022670
9  0.003500 0.000000 0.083408  0.026803 0.004010 -0.023133
10  -0.012239 0.000000 0.122389  0.026498 0.004995 -0.023120
11  0.000267 0.000000 0.055138  0.000000 -0.067495 0.000000
12  0.003234 -0.000000 0.052281  -0.007217 -0.154692 0.061293
13  -0.001319 -0.000000 0.060214  0.005111 -0.079394 0.060633
14  -0.039876 0.060989 0.002159  -0.489195 0.008327 0.030049
15  0.043265 0.077505 0.036874  -0.000000 -0.000000 0.000000
16  0.000000 0.000000 -0.000000  0.062308 0.559051 1.223320
17  0.020259 0.201078 -0.017731  0.111628 -0.093192 -1.770852
18  0.010537 0.100376 -0.010148  -0.022956 -0.205807 0.022459
19  0.018646 0.186860 -0.018293  -0.000136 0.000016 -0.000002
20  -0.032088 0.200172 -0.061335  -1.296110 0.090036 -0.116199
21  0.009278 0.058322 -0.044375  -1.516485 0.035538 -0.150012
22  0.069086 0.193199 -0.059144  -1.295429 0.073014 -0.096474
23  0.008560 0.057628 -0.044090  -1.516498 0.031093 -0.139026
24  0.102185 0.077529 -0.031768  -0.283419 0.646484 0.223037
25  0.038420 0.022931 -0.000959  -0.007203 0.020683 0.058114
26  -0.039647 -0.056266 0.002069  0.105484 -0.134652 -0.086566
27  0.042761 -0.082398 0.038131  -0.000000 -0.000000 0.000000
28  0.000000 0.000000 0.000000  -0.105485 0.755895 -1.257081
29  0.020122 -0.201078 -0.017893  -0.150718 -0.079696 2.189181
30  0.010469 -0.100374 -0.010235  0.014885 -0.145038 -0.015331
31  0.018520 -0.186856 -0.018449  -0.122421 -0.012509 -0.000833
32  -0.032222 -0.200101 -0.061496  1.333672 0.085710 0.118014
33  0.009310 -0.057389 -0.045571  1.091998 0.054530 0.104954
34  0.068956 -0.193197 -0.059302  1.333657 0.085428 0.117668
35  0.008683 -0.056713 -0.045241  1.092100 0.053063 0.102730
36  0.102133 -0.077572 -0.031830  0.312210 0.642888 -0.336046
37  0.034314 -0.028672 -0.001806  0.005782 0.011417 -0.032712
38  0.001143 0.000000 -0.181958  0.024753 0.049916 0.001754
39  0.004961 -0.000269 -0.096018  0.053953 -0.036330 -0.009508
40  -0.011623 0.003704 -0.088948  -0.018731 0.055387 0.000141
41  -0.007644 0.000000 -0.210641  -0.031019 -0.035448 0.000074
time 12
0  0 0 0  0 0 0
1  0.000000 0.000010 0.000000  -1.570796 -0.000000 0.000000
2  0.000000 0.000000 0.000000  0.000000 -0.000000 0.000000
3  -1.158568 0.000000 -0.814938  0.000000 -0.000000 0.000000
4  0.006445 -0.000000 0.753335  0.000000 -0.000000 0.000000
5  1.167933 -0.000000 0.814573  -0.005699 0.001138 -0.016132
6  0.000000 0.000000 0.000000  0.000000 -0.000000 0.000000
7  0.000000 0.000000 0.000000  0.000000 0.013953 -0.000000
8  0.002937 0.000000 0.194891  -0.000073 -0.000000 -0.007556
9  0.003500 0.000000 0.083408  0.008944 0.001268 -0.007722
10  -0.012239 0.000000 0.122389  0.008845 0.001597 -0.007721
11  0.000267 0.000000 0.055138  -0.000000 -0.022492 -0.000000
12  0.003234 0.000000 0.052281  -0.003196 -0.228522 0.020671
13  -0.001319 0.000000 0.060214  0.001510 -0.098572 0.020208
14  -0.039876 0.060989 0.002159  -0.493391 0.004582 0.028300
15  0.043265 0.077505 0.036874  0.000000 -0.000000 0.000000
16  0.000000 -0.000000 -0.000000  0.033393 0.402753 0.972222
17  0.020259 0.201078 -0.017731  0.123992 -0.090504 -1.901243
18  0.010537 0.100376 -0.010148  -0.033196 -0.283652 0.032532
19  0.018646 0.186860 -0.018292  -0.065130 0.006731 -0.001074
20  -0.032088 0.200172 -0.061335  -1.296110 0.090036 -0.116199
21  0.009278 0.058322 -0.044375  -1.516485 0.035538 -0.150012
22  0.069086 0.193199 -0.059144  -1.295430 0.073014 -0.096474
23  0.008560 0.057628 -0.044090  -1.516498 0.031093 -0.139026
24  0.102185 0.077529 -0.031768  -0.283419 0.646484 0.223037
25  0.038420 0.022931 -0.000959  -0.007203 0.020683 0.058114
26  -0.039647 -0.056266 0.002069  0.042147 -0.189658 -0.023282
27  0.042760 -0.082398 0.038132  -0.000000 -0.000000 0.000000
28  0.000000 0.000000 0.000000  -0.147999 0.621841 -1.161211
29  0.020122 -0.201078 -0.017893  -0.163888 -0.069649 2.358388
30  0.010469 -0.100374 -0.010236  0.032617 -0.290198 -0.033457
31  0.018520 -0.186856 -0.018450  -0.226719 -0.023191 -0.000332
32  -0.032222 -0.200101 -0.061496  1.333672 0.085710 0.118014
33  0.009310 -0.057389 -0.045571  1.091998 0.054530 0.104954
34  0.068956 -0.193197 -0.059302  1.333657 0.085428 0.117668
35  0.008683 -0.056713 -0.045241  1.092100 0.053063 0.102730
36  0.102133 -0.077572 -0.031829  0.312210 0.642888 -0.336046
37  0.034314 -0.028672 -0.001806  0.005782 0.011417 -0.032712
38  0.001143 0.000000 -0.181958  0.008959 0.083571 0.000631
39  0.004961 -0.000269 -0.096018  0.016718 -0.044228 -0.004351
40  -0.011623 0.003704 -0.088948  -0.005835 0.042023 0.000097
41  -0.007644 0.000000 -0.210641  -0.010165 -0.056541 0.000984
time 13
0  0 0 0  0 0 0
1  0.000000 0.000010 0.000000  -1.570796 -0.000000 0.000000
2  0.000000 0.000000 0.000000  0.000000 -0.000000 0.000000
3  -1.182041 0.000000 -0.713068  0.000000 -0.000000 0.000000
4  0.006445 -0.000000 0.753335  0.000000 -0.000000 0.000000
5  1.172481 0.006032 0.705430  0.012640 0.094334 -0.002250
6  -0.000000 0.000000 0.000000  -0.000000 -0.000000 0.000000
7  -0.000000 0.000000 0.000000  0.018643 0.022653 -0.000241
8  0.002937 -0.000000 0.194891  -0.014429 0.043445 0.001410
9  0.003500 0.000000 0.083408  -0.014513 -0.022060 -0.000707
10  -0.012239 0.000000 0.122389  -0.008556 -0.019342 -0.000320
11  0.000267 0.000000 0.055138  -0.000000 -0.032893 -0.000000
12  0.003234 -0.000000 0.052281  0.000000 -0.287723 0.000000
13  -0.001319 -0.000000 0.060215  -0.000000 -0.182972 0.000000
14  -0.039876 0.060989 0.002159  -0.532559 -0.051942 0.015102
15  0.043265 0.077505 0.036874  -0.000000 -0.000000 0.000000
16  0.000000 0.000000 -0.000000  0.007907 0.249104 0.771348
17  0.020260 0.201078 -0.017731  0.120902 -0.091335 -1.868291
18  0.010537 0.100376 -0.010148  -0.023369 -0.209054 0.022860
19  0.018646 0.186860 -0.018292  -0.017067 0.001770 -0.000239
20  -0.032088 0.200172 -0.061335  -1.059586 0.109078 -0.081039
21  0.009278 0.058322 -0.044375  -1.248720 0.052120 -0.126040
22  0.069086 0.193199 -0.059144  -1.059301 0.039510 -0.100564
23  0.008560 0.057628 -0.044090  -1.248706 0.046828 -0.117074
24  0.102185 0.077529 -0.031768  -0.242373 0.528760 0.141669
25  0.038420 0.022931 -0.000959  -0.011060 0.033747 0.094127
26  -0.039647 -0.056266 0.002069  -0.037044 -0.318088 0.056560
27  0.042761 -0.082398 0.038132  0.000000 -0.000000 0.000000
28  -0.000000 0.000000 -0.000000  -0.299756 0.601754 -1.174738
29  0.020122 -0.201078 -0.017892  -0.163220 -0.070249 2.349240
30  0.010469 -0.100374 -0.010236  0.042805 -0.362306 -0.043825
31  0.018520 -0.186856 -0.018450  -0.323868 -0.033044 0.001133
32  -0.032222 -0.200101 -0.061496  1.123484 0.099244 0.092201
33  0.009310 -0.057388 -0.045571  0.941494 0.066103 0.077065
34  0.068956 -0.193197 -0.059302  1.188744 0.089123 0.109124
35  0.008683 -0.056712 -0.045241  0.962217 0.054771 0.089152
36  0.102133 -0.077572 -0.031830  0.287147 0.598179 -0.289900
37  0.034314 -0.028672 -0.001806  0.005027 0.009885 -0.028358
38  0.001143 0.000000 -0.181958  0.027881 0.060287 0.002137
39  0.004961 -0.000269 -0.096018  -0.064021 -0.165540 0.006710
40  -0.011623 0.003704 -0.088948  -0.011853 0.021138 0.000314
41  -0.007644 0.000000 -0.210641  0.027713 -0.030815 0.001199
time 14
0  0 0 0  0 0 0
1  0.000000 0.000010 0.000000  -1.570796 -0.000000 0.000000
2  0.000000 0.000000 0.000000  0.000000 -0.000000 0.000000
3  -1.182041 0.000000 -0.713068  0.000000 -0.000000 0.000000
4  0.006445 -0.000000 0.753335  0.000000 -0.000000 0.000000
5  1.153363 0.018097 0.690154  0.038149 0.267857 -0.003484
6  -0.000000 0.000000 -0.000000  -0.000000 -0.000000 0.000000
7  -0.000000 0.000000 -0.000000  0.055948 0.035865 -0.000353
8  0.002937 -0.000000 0.194891  -0.043335 0.130535 0.002351
9  0.003500 0.000000 0.083408  -0.043555 -0.066226 -0.001161
10  -0.012239 -0.000000 0.122389  -0.025678 -0.058046 -0.000464
11  0.000267 0.000000 0.055138  0.000000 -0.098741 0.000000
12  0.003234 -0.000000 0.052281  0.000000 -0.332578 -0.000000
13  -0.001319 -0.000000 0.060215  -0.000000 -0.333242 0.000000
14  -0.039876 0.060989 0.002159  -0.605656 -0.162855 -0.003667
15  0.043265 0.077505 0.036874  0.000000 -0.000000 0.000000
16  -0.000000 -0.000000 0.000000  -0.026055 0.090750 0.609198
17  0.020259 0.201078 -0.017731  0.101960 -0.094155 -1.670765
18  0.010537 0.100376 -0.010148  0.002064 0.021045 -0.002023
19  0.018646 0.186860 -0.018292  0.144913 -0.015136 0.000806
20  -0.032088 0.200172 -0.061335  -0.558314 0.119849 0.002172
21  0.009278 0.058322 -0.044375  -0.672667 0.063419 -0.065133
22  0.069086 0.193199 -0.059144  -0.560267 -0.022919 -0.133765
23  0.008560 0.057628 -0.044090  -0.672759 0.058240 -0.060829
24  0.102185 0.077529 -0.031768  -0.133913 0.298530 -0.028549
25  0.038420 0.022931 -0.000959  -0.017363 0.060285 0.166166
26  -0.039647 -0.056266 0.002069  -0.153570 -0.517745 0.174320
27  0.042760 -0.082398 0.038132  0.000000 -0.000000 -0.000000
28  0.000000 -0.000000 0.000000  -0.576670 0.670781 -1.322007
29  0.020122 -0.201078 -0.017893  -0.148394 -0.081131 2.161304
30  0.010469 -0.100374 -0.010236  0.042805 -0.362306 -0.043825
31  0.018520 -0.186856 -0.018450  -0.414289 -0.042046 0.003350
32  -0.032222 -0.200101 -0.061496  0.684119 0.108825 0.032472
33  0.009310 -0.057388 -0.045571  0.633185 0.076163 0.016356
34  0.068956 -0.193197 -0.059302  0.893234 0.092674 0.090525
35  0.008683 -0.056712 -0.045241  0.698483 0.052794 0.061497
36  0.102133 -0.077572 -0.031829  0.231718 0.511365 -0.196954
37  0.034314 -0.028672 -0.001806  0.003497 0.006829 -0.019648
38  0.001143 0.000000 -0.181958  0.081372 -0.020186 0.003437
39  0.004961 -0.000269 -0.096018  -0.200698 -0.401217 0.048796
40  -0.011623 0.003704 -0.088948  -0.036797 -0.007264 0.001453
41  -0.007644 0.000000 -0.210641  0.082740 0.041808 0.004044
time 15
0  0 0 0  0 0 0
1  0.000000 0.000010 0.000000  -1.570796 -0.000000 0.000000
2  0.000000 0.000000 0.000000  0.000000 -0.000000 0.000000
3  -1.182041 0.000000 -0.713068  0.000000 -0.000000 0.000000
4  0.006445 -0.000000 0.753335  0.000000 -0.000000 0.000000
5  1.134244 0.030162 0.674879  0.065011 0.440688 0.000047
6  0.000000 0.000000 -0.000000  -0.000000 -0.000000 0.000000
7  0.000000 0.000000 -0.000000  0.093265 0.049069 0.000029
8  0.002937 0.000000 0.194891  -0.072571 0.217523 0.000735
9  0.003500 0.000000 0.083408  -0.072681 -0.110372 -0.000326
10  -0.012239 -0.000000 0.122389  -0.042842 -0.096739 0.000057
11  0.000267 0.000000 0.055137  -0.000000 -0.164554 0.000000
12  0.003234 -0.000000 0.052281  -0.000000 -0.377422 -0.000000
13  -0.001319 0.000000 0.060214  0.000000 -0.483089 0.000000
14  -0.039876 0.060989 0.002159  -0.678255 -0.274575 -0.014442
15  0.043265 0.077506 0.036874  0.000000 -0.000000 -0.000000
16  -0.000000 0.000000 -0.000000  -0.034040 -0.069884 0.453710
17  0.020260 0.201078 -0.017731  0.082920 -0.093233 -1.474152
18  0.010537 0.100376 -0.010148  0.022327 0.250102 -0.021593
19  0.018646 0.186860 -0.018292  0.306406 -0.031933 -0.000880
20  -0.032087 0.200172 -0.061334  -0.073223 0.091047 0.078226
21  0.009278 0.058322 -0.044375  -0.119717 0.041303 -0.009838
22  0.069086 0.193199 -0.059144  -0.073783 -0.061045 -0.190841
23  0.008560 0.057628 -0.044090  -0.119765 0.038606 -0.009259
24  0.102185 0.077529 -0.031768  0.005154 0.092112 -0.212633
25  0.038420 0.022931 -0.000959  -0.021742 0.087186 0.238124
26  -0.039647 -0.056266 0.002069  -0.314958 -0.699498 0.336803
27  0.042761 -0.082398 0.038132  0.000000 -0.000000 -0.000000
28  -0.000000 -0.000000 0.000000  -0.873296 0.703223 -1.493057
29  0.020122 -0.201078 -0.017893  -0.131852 -0.089029 1.973902
30  0.010469 -0.100374 -0.010236  0.042805 -0.362306 -0.043825
31  0.018520 -0.186856 -0.018450  -0.504674 -0.050802 0.006369
32  -0.032222 -0.200101 -0.061496  0.255259 0.092895 -0.024421
33  0.009310 -0.057389 -0.045571  0.328464 0.067578 -0.043855
34  0.068956 -0.193197 -0.059302  0.600844 0.090727 0.071890
35  0.008683 -0.056712 -0.045241  0.437234 0.043796 0.035533
36  0.102133 -0.077572 -0.031829  0.170197 0.429575 -0.103071
37  0.034314 -0.028672 -0.001806  0.001941 0.003788 -0.010932
38  0.001143 0.000000 -0.181958  0.134956 -0.100520 0.000429
39  0.004961 -0.000269 -0.096018  -0.366859 -0.626175 0.134626
40  -0.011623 0.003704 -0.088948  -0.061785 -0.035623 0.003300
41  -0.007644 0.000000 -0.210641  0.138229 0.114088 0.010909
time 16
0  0 0 0  0 0 0
1  0.000000 0.000010 0.000000  -1.570796 -0.000000 0.000000
2  0.000000 0.000000 0.000000  0.000000 -0.000000 0.000000
3  -1.182041 0.000000 -0.713068  0.000000 -0.000000 0.000000
4  0.006445 -0.000000 0.753335  0.000000 -0.000000 0.000000
5  1.142891 0.028338 0.687065  0.072480 0.335899 0.000971
6  0.000000 -0.000000 -0.000000  -0.000000 -0.000000 0.000000
7  0.000000 0.000000 -0.000000  0.062654 0.009791 -0.001386
8  0.002937 -0.000000 0.194891  -0.050701 0.159935 -0.000072
9  0.003500 0.000000 0.083408  -0.069431 -0.028479 -0.000143
10  -0.012239 -0.000000 0.122389  -0.041597 -0.013455 0.000702
11  0.000267 -0.000000 0.055137  -0.000502 -0.215061 -0.001328
12  0.003234 0.000000 0.052281  0.001049 -0.228027 0.001698
13  -0.001318 -0.000000 0.060214  0.015938 -0.304435 -0.001734
14  -0.039876 0.060989 0.002159  -0.669769 -0.276510 0.008496
15  0.043265 0.077506 0.036874  0.000000 -0.000000 0.000000
16  -0.000000 -0.000000 0.000000  0.103115 -0.011316 0.208617
17  0.020259 0.201078 -0.017731  0.063198 -0.088176 -1.264110
18  0.010537 0.100376 -0.010148  0.005701 0.058947 -0.005558
19  0.018646 0.186860 -0.018292  0.410517 -0.042509 -0.003391
20  -0.032088 0.200172 -0.061335  -0.073223 0.091047 0.078226
21  0.009278 0.058322 -0.044375  -0.095498 0.039668 -0.007767
22  0.069086 0.193199 -0.059144  -0.073783 -0.061045 -0.190841
23  0.008560 0.057628 -0.044090  -0.034192 0.033141 -0.002544
24  0.102185 0.077529 -0.031768  0.005154 0.092112 -0.212633
25  0.038420 0.022931 -0.000959  -0.021742 0.087186 0.238124
26  -0.039647 -0.056266 0.002069  -0.090449 -0.637081 0.212237
27  0.042761 -0.082398 0.038132  -0.000000 -0.000000 -0.000000
28  -0.000000 0.000000 0.000000  -0.571386 0.750532 -0.964105
29  0.020122 -0.201078 -0.017893  -0.109555 -0.094366 1.739281
30  0.010469 -0.100374 -0.010236  0.036100 -0.315721 -0.037008
31  0.018520 -0.186856 -0.018450  -0.426481 -0.043240 0.003710
32  -0.032222 -0.200101 -0.061496  0.242517 0.101893 -0.037815
33  0.009310 -0.057389 -0.045571  0.270656 0.054035 -0.028625
34  0.068956 -0.193197 -0.059302  0.419626 0.061996 0.071912
35  0.008683 -0.056712 -0.045241  0.346600 0.039127 0.027182
36  0.102133 -0.077572 -0.031829  0.125432 0.339807 -0.017317
37  0.034314 -0.028672 -0.001806  0.001646 0.003212 -0.009294
38  0.001143 0.000000 -0.181958  0.095219 -0.066211 0.001917
39  0.004961 -0.000269 -0.096018  -0.307943 -0.459343 0.090212
40  -0.011623 0.003704 -0.088948  -0.054837 -0.043021 0.003122
41  -0.007644 0.000000 -0.210641  0.129042 0.082659 0.008620
time 17
0  0 0 0  0 0 0
1  0.000000 0.000010 0.000000  -1.570796 -0.000000 0.000000
2  0.000000 0.000000 0.000000  0.000000 -0.000000 0.000000
3  -1.182041 0.000000 -0.713068  0.000000 -0.000000 0.000000
4  0.006445 -0.000000 0.753335  0.000000 -0.000000 0.000000
5  1.151538 0.026514 0.699252  0.079652 0.230717 0.001063
6  0.000000 0.000000 -0.000000  0.000000 0.000000 0.000000
7  0.000000 0.000000 -0.000000  0.032062 -0.029545 -0.001598
8  0.002937 -0.000000 0.194891  -0.028921 0.102305 -0.002142
9  0.003500 0.000000 0.083408  -0.066156 0.053598 0.000308
10  -0.012239 0.000000 0.122389  -0.040293 0.070021 0.001454
11  0.000267 0.000000 0.055138  -0.000941 -0.265612 -0.002648
12  0.003234 -0.000000 0.052281  0.002337 -0.077507 0.003528
13  -0.001319 -0.000000 0.060214  0.031116 -0.123825 -0.000519
14  -0.039876 0.060989 0.002159  -0.661324 -0.278633 0.031434
15  0.043265 0.077506 0.036874  -0.000000 -0.000000 0.000000
16  0.000000 -0.000000 -0.000000  0.225360 0.081087 -0.033322
17  0.020260 0.201078 -0.017731  0.044720 -0.078974 -1.051188
18  0.010537 0.100376 -0.010148  -0.014389 -0.134305 0.014044
19  0.018646 0.186860 -0.018292  0.515087 -0.052804 -0.007005
20  -0.032087 0.200172 -0.061335  -0.073223 0.091047 0.078226
21  0.009278 0.058322 -0.044375  -0.071280 0.037982 -0.005735
22  0.069086 0.193199 -0.059144  -0.073783 -0.061045 -0.190841
23  0.008560 0.057628 -0.044090  0.051539 0.027108 0.003693
24  0.102185 0.077529 -0.031768  0.005154 0.092112 -0.212633
25  0.038420 0.022931 -0.000959  -0.021742 0.087186 0.238124
26  -0.039647 -0.056266 0.002069  0.115004 -0.554283 0.111745
27  0.042761 -0.082398 0.038131  -0.000000 -0.000000 0.000000
28  -0.000000 0.000000 -0.000000  -0.267298 0.670291 -0.417786
29  0.020122 -0.201078 -0.017893  -0.086187 -0.094341 1.500119
30  0.010469 -0.100374 -0.010236  0.029814 -0.269061 -0.030605
31  0.018520 -0.186856 -0.018450  -0.348170 -0.035478 0.001648
32  -0.032222 -0.200101 -0.061496  0.229641 0.110721 -0.051338
33  0.009310 -0.057389 -0.045571  0.212610 0.041378 -0.012625
34  0.068956 -0.193197 -0.059302  0.236583 0.033421 0.077204
35  0.008683 -0.056712 -0.045241  0.255775 0.033706 0.019267
36  0.102133 -0.077572 -0.031829  0.073709 0.253392 0.070825
37  0.034314 -0.028672 -0.001806  0.001350 0.002636 -0.007656
38  0.001143 0.000000 -0.181958  0.055563 -0.031838 0.002037
39  0.004961 -0.000269 -0.096018  -0.260094 -0.288983 0.058641
40  -0.011623 0.003704 -0.088948  -0.047886 -0.050417 0.002893
41  -0.007644 0.000000 -0.210641  0.119944 0.051198 0.006624
time 18
0  0 0 0  0 0 0
1  0.000000 0.000010 0.000000  -1.570796 -0.000000 0.000000
2  0.000000 0.000000 0.000000  0.000000 -0.000000 0.000000
3  -1.182041 0.000000 -0.713068  0.000000 -0.000000 0.000000
4  0.006445 -0.000000 0.753335  0.000000 -0.000000 0.000000
5  1.160185 0.024689 0.711438  0.086667 0.125732 0.000396
6  -0.000000 -0.000000 0.000000  0.000000 0.000000 -0.000000
7  -0.000000 -0.000000 0.000000  0.001432 -0.068852 -0.000605
8  0.002937 -0.000000 0.194891  -0.007128 0.044770 -0.005455
9  0.003500 0.000000 0.083408  -0.062822 0.135580 0.001032
10  -0.012239 0.000000 0.122389  -0.038914 0.153400 0.002322
11  0.000267 0.000000 0.055137  -0.001316 -0.316142 -0.003964
12  0.003234 0.000000 0.052281  0.003894 0.072445 0.005543
13  -0.001319 -0.000000 0.060214  0.046336 0.055765 0.003390
14  -0.039876 0.060989 0.002159  -0.652927 -0.280941 0.054365
15  0.043265 0.077505 0.036874  0.000000 -0.000000 0.000000
16  0.000000 -0.000000 -0.000000  0.322208 0.197831 -0.262644
17  0.020260 0.201078 -0.017731  0.028731 -0.066200 -0.840223
18  0.010537 0.100376 -0.010148  -0.039208 -0.325858 0.038453
19  0.018645 0.186860 -0.018292  0.619564 -0.062648 -0.011669
20  -0.032087 0.200172 -0.061335  -0.073223 0.091047 0.078226
21  0.009278 0.058322 -0.044375  -0.047069 0.036248 -0.003745
22  0.069086 0.193199 -0.059144  -0.073783 -0.061045 -0.190841
23  0.008560 0.057628 -0.044090  0.137113 0.020570 0.009383
24  0.102185 0.077529 -0.031768  0.005154 0.092112 -0.212633
25  0.038420 0.022931 -0.000959  -0.021742 0.087186 0.238124
26  -0.039647 -0.056266 0.002069  0.299278 -0.457549 0.037213
27  0.042761 -0.082398 0.038132  0.000000 -0.000000 -0.000000
28  -0.000000 0.000000 0.000000  -0.075587 0.495517 0.025281
29  0.020122 -0.201078 -0.017893  -0.063700 -0.088884 1.263312
30  0.010469 -0.100374 -0.010236  0.023910 -0.222381 -0.024580
31  0.018520 -0.186856 -0.018449  -0.269975 -0.027587 0.000202
32  -0.032222 -0.200101 -0.061496  0.216635 0.119374 -0.064987
33  0.009310 -0.057389 -0.045571  0.154431 0.029678 0.004064
34  0.068956 -0.193197 -0.059302  0.054537 0.006435 0.087532
35  0.008683 -0.056712 -0.045241  0.165136 0.027599 0.011888
36  0.102133 -0.077572 -0.031829  0.015615 0.172014 0.161471
37  0.034314 -0.028672 -0.001806  0.001053 0.002061 -0.006018
38  0.001143 0.000000 -0.181958  0.015949 0.002497 0.000795
39  0.004961 -0.000269 -0.096018  -0.219511 -0.118382 0.036458
40  -0.011623 0.003704 -0.088948  -0.040930 -0.057812 0.002613
41  -0.007644 0.000000 -0.210641  0.110920 0.019726 0.004917
time 19
0  0 0 0  0 0 0
1  0.000000 0.000010 0.000000  -1.570796 -0.000000 0.000000
2  0.000000 0.000000 0.000000  0.000000 -0.000000 0.000000
3  -1.182041 0.000000 -0.713068  0.000000 -0.000000 0.000000
4  0.006445 -0.000000 0.753335  0.000000 -0.000000 0.000000
5  1.170236 0.020449 0.714592  0.062347 0.060740 -0.001080
6  -0.000000 -0.000000 -0.000000  -0.000000 -0.000000 0.000000
7  -0.000000 -0.000000 -0.000000  -0.019044 -0.101760 -0.000864
8  0.002937 0.000000 0.194891  -0.013310 0.018417 -0.006406
9  0.003500 0.000000 0.083408  -0.019012 0.117138 0.000632
10  -0.012239 -0.000000 0.122389  -0.015743 0.133986 0.000511
11  0.000267 0.000000 0.055137  -0.001439 -0.300655 -0.003244
12  0.003234 0.000000 0.052281  0.004119 0.121590 0.006521
13  -0.001319 0.000000 0.060214  0.057785 0.135022 0.005467
14  -0.039876 0.060989 0.002159  -0.585009 -0.164949 0.044292
15  0.043265 0.077505 0.036874  -0.000000 -0.000000 0.000000
16  0.000000 -0.000000 -0.000000  0.224769 0.256058 -0.268572
17  0.020260 0.201078 -0.017731  0.033637 -0.070728 -0.908906
18  0.010537 0.100376 -0.010148  -0.041728 -0.342929 0.040948
19  0.018646 0.186860 -0.018292  0.606138 -0.061411 -0.011012
20  -0.032087 0.200172 -0.061335  -0.053973 0.076849 0.057718
21  0.009278 0.058322 -0.044375  -0.035251 0.035386 -0.002791
22  0.069086 0.193199 -0.059144  -0.055802 -0.034314 -0.140629
23  0.008560 0.057628 -0.044090  0.114799 0.022316 0.007956
24  0.102185 0.077529 -0.031768  0.019487 0.213005 -0.197258
25  0.038420 0.022931 -0.000959  -0.023091 0.099490 0.270805
26  -0.039647 -0.056266 0.002069  0.328480 -0.277211 -0.001043
27  0.042761 -0.082398 0.038132  -0.000000 -0.000000 -0.000000
28  -0.000000 -0.000000 0.000000  0.175084 0.317980 0.113042
29  0.020122 -0.201078 -0.017893  -0.042747 -0.078064 1.022010
30  0.010469 -0.100374 -0.010235  0.019094 -0.182149 -0.019661
31  0.018520 -0.186856 -0.018450  -0.128103 -0.013096 -0.000834
32  -0.032222 -0.200101 -0.061496  0.179204 0.113164 -0.064087
33  0.009310 -0.057389 -0.045571  0.123583 0.024367 0.010686
34  0.068956 -0.193197 -0.059302  -0.028950 -0.000448 0.082402
35  0.008683 -0.056712 -0.045241  0.120792 0.024374 0.008487
36  0.102133 -0.077572 -0.031829  -0.010441 0.141803 0.184192
37  0.034314 -0.028672 -0.001806  0.004753 0.009409 -0.026994
38  0.001143 0.000000 -0.181958  -0.011063 0.016664 -0.000731
39  0.004961 -0.000269 -0.096018  -0.152323 -0.028502 0.020813
40  -0.011623 0.003704 -0.088948  -0.009637 -0.019792 0.000413
41  -0.007644 0.000000 -0.210641  0.078335 -0.012048 0.002722
time 20
0  0 0 0  0 0 0
1  0.000000 0.000010 0.000000  -1.570796 -0.000000 0.000000
2  0.000000 0.000000 0.000000  0.000000 -0.000000 0.000000
3  -1.182041 0.000000 -0.713068  0.000000 -0.000000 0.000000
4  0.006445 -0.000000 0.753335  0.000000 -0.000000 0.000000
5  1.180987 0.015000 0.713230  0.022468 0.015467 -0.001211
6  0.000000 -0.000000 -0.000000  0.000000 0.000000 0.000000
7  -0.000000 -0.000000 -0.000000  -0.034432 -0.131521 -0.001771
8  0.002937 0.000000 0.194891  -0.033515 0.007599 -0.005581
9  0.003500 0.000000 0.083408  0.044889 0.048626 -0.004087
10  -0.012239 0.000000 0.122389  0.018334 0.063317 -0.004677
11  0.000267 0.000000 0.055137  -0.001386 -0.252160 -0.001527
12  0.003234 0.000000 0.052281  0.003577 0.120955 0.006902
13  -0.001319 0.000000 0.060214  0.067195 0.165214 0.005974
14  -0.039876 0.060989 0.002159  -0.491419 0.013125 0.032226
15  0.043265 0.077505 0.036874  -0.000000 -0.000000 0.000000
16  0.000000 0.000000 -0.000000  0.039526 0.295361 -0.171632
17  0.020259 0.201078 -0.017731  0.050272 -0.082267 -1.117647
18  0.010537 0.100376 -0.010148  -0.031871 -0.274157 0.031244
19  0.018646 0.186860 -0.018292  0.533907 -0.054611 -0.007769
20  -0.032088 0.200172 -0.061335  -0.024579 0.056293 0.026474
21  0.009278 0.058322 -0.044375  -0.029626 0.034974 -0.002341
22  0.069086 0.193199 -0.059144  -0.026335 0.004058 -0.064338
23  0.008560 0.057628 -0.044090  0.038555 0.028040 0.002791
24  0.102185 0.077529 -0.031768  0.046023 0.395064 -0.169326
25  0.038420 0.022931 -0.000959  -0.024359 0.118022 0.319905
26  -0.039647 -0.056266 0.002069  0.282436 -0.056863 -0.036575
27  0.042761 -0.082398 0.038132  0.000000 -0.000000 -0.000000
28  0.000000 -0.000000 0.000000  0.502026 0.166108 0.018062
29  0.020122 -0.201078 -0.017893  -0.024500 -0.062001 0.773409
30  0.010469 -0.100374 -0.010236  0.014864 -0.145108 -0.015336
31  0.018520 -0.186856 -0.018449  0.046738 0.004727 0.000720
32  -0.032222 -0.200100 -0.061496  0.129543 0.099926 -0.055319
33  0.009310 -0.057389 -0.045571  0.106413 0.021935 0.012101
34  0.068956 -0.193197 -0.059302  -0.064253 0.001431 0.067963
35  0.008683 -0.056712 -0.045241  0.099436 0.022769 0.006901
36  0.102133 -0.077572 -0.031830  -0.018464 0.135010 0.172203
37  0.034314 -0.028672 -0.001806  0.010148 0.020868 -0.059237
38  0.001143 0.000000 -0.181958  -0.031786 0.020766 -0.002019
39  0.004961 -0.000269 -0.096018  -0.070587 0.022720 0.009353
40  -0.011623 0.003704 -0.088948  0.033743 0.041073 -0.000529
41  -0.007644 0.000000 -0.210641  0.033954 -0.044063 0.001370
time 21
0  0 0 0  0 0 0
1  0.000000 0.000010 0.000000  -1.570796 -0.000000 0.000000
2  0.000000 0.000000 0.000000  0.000000 -0.000000 0.000000
3  -1.182041 0.000000 -0.713068  0.000000 -0.000000 0.000000
4  0.006445 -0.000000 0.753335  0.000000 -0.000000 0.000000
5  1.188090 0.008205 0.711933  -0.012922 -0.022037 -0.000228
6  -0.000000 -0.000000 0.000000  0.000000 0.000000 -0.000000
7  -0.000000 -0.000000 0.000000  -0.048991 -0.160348 -0.002315
8  0.002937 0.000000 0.194891  -0.048301 -0.001675 -0.004624
9  0.003500 0.000000 0.083408  0.093975 -0.008833 -0.010991
10  -0.012239 0.000000 0.122389  0.044823 0.003533 -0.010548
11  0.000267 -0.000000 0.055138  -0.001260 -0.200802 0.000160
12  0.003234 -0.000000 0.052281  0.002967 0.114470 0.007111
13  -0.001319 -0.000000 0.060215  0.076236 0.188995 0.006562
14  -0.039876 0.060989 0.002159  -0.409920 0.168364 0.035563
15  0.043265 0.077505 0.036874  0.000000 -0.000000 0.000000
16  0.000000 -0.000000 -0.000000  -0.135049 0.349580 -0.085635
17  0.020260 0.201078 -0.017731  0.063096 -0.088139 -1.262992
18  0.010537 0.100376 -0.010148  -0.022655 -0.203620 0.022187
19  0.018646 0.186860 -0.018292  0.450300 -0.046466 -0.004638
20  -0.032088 0.200172 -0.061335  0.004081 0.039540 0.000211
21  0.009278 0.058322 -0.044375  -0.011765 0.033635 -0.000921
22  0.069086 0.193199 -0.059144  0.004100 0.033916 0.000194
23  0.008560 0.057628 -0.044090  -0.011770 0.031594 -0.000850
24  0.102185 0.077529 -0.031768  0.072340 0.526967 -0.137207
25  0.038420 0.022931 -0.000959  -0.024714 0.133644 0.361278
26  -0.039647 -0.056266 0.002069  0.245704 0.129754 -0.072333
27  0.042761 -0.082398 0.038132  -0.000000 -0.000000 -0.000000
28  0.000000 0.000000 0.000000  0.770135 0.054079 -0.114375
29  0.020122 -0.201078 -0.017893  -0.011050 -0.042467 0.531210
30  0.010469 -0.100374 -0.010235  0.010952 -0.109303 -0.011327
31  0.018520 -0.186856 -0.018449  0.184806 0.018439 0.004125
32  -0.032222 -0.200101 -0.061496  0.080500 0.086360 -0.045374
33  0.009310 -0.057389 -0.045571  0.092007 0.020046 0.012997
34  0.068956 -0.193197 -0.059302  -0.092170 0.004249 0.052811
35  0.008683 -0.056712 -0.045241  0.082023 0.021437 0.005635
36  0.102133 -0.077572 -0.031829  -0.024329 0.131748 0.156094
37  0.034314 -0.028672 -0.001806  0.015272 0.032754 -0.092118
38  0.001143 0.000000 -0.181958  -0.042229 0.028512 -0.002829
39  0.004961 -0.000269 -0.096018  -0.000929 0.062208 0.002735
40  -0.011623 0.003704 -0.088948  0.069545 0.090516 0.000722
41  -0.007644 0.000000 -0.210641  -0.007392 -0.071934 0.001406
time 22
0  0 0 0  0 0 0
1  0.000000 0.000010 0.000000  -1.570796 -0.000000 0.000000
2  0.000000 0.000000 0.000000  0.000000 -0.000000 0.000000
3  -1.182041 0.000000 -0.713068  0.000000 -0.000000 0.000000
4  0.006445 -0.000000 0.753335  0.000000 -0.000000 0.000000
5  1.176949 -0.005319 0.710960  -0.025992 -0.020964 -0.001954
6  -0.000000 -0.000000 -0.000000  0.000000 -0.000000 -0.000000
7  0.000000 -0.000000 -0.000000  -0.059258 -0.184498 -0.003009
8  0.002937 -0.000000 0.194891  -0.035967 -0.003320 -0.004018
9  0.003500 0.000000 0.083408  0.068408 -0.013440 -0.008857
10  -0.012239 -0.000000 0.122389  0.032256 -0.003153 -0.008870
11  0.000267 0.000000 0.055137  -0.001091 -0.134963 0.001772
12  0.003234 -0.000000 0.052281  0.002031 0.078726 0.006479
13  -0.001319 0.000000 0.060214  0.083139 0.180770 0.006186
14  -0.039876 0.060989 0.002159  -0.381908 0.213317 0.040635
15  0.043265 0.077506 0.036874  -0.000000 -0.000000 0.000000
16  0.000000 -0.000000 0.000000  -0.273809 0.410924 -0.018935
17  0.020260 0.201078 -0.017731  0.048462 -0.081248 -1.096262
18  0.010537 0.100376 -0.010148  -0.013204 -0.124196 0.012910
19  0.018646 0.186860 -0.018292  0.308688 -0.032153 -0.000922
20  -0.032088 0.200172 -0.061335  0.026379 0.037472 0.001338
21  0.009278 0.058322 -0.044375  0.067365 0.027385 0.005088
22  0.069086 0.193199 -0.059144  0.026443 0.032247 0.001162
23  0.008560 0.057628 -0.044090  0.067416 0.025916 0.004800
24  0.102185 0.077529 -0.031768  0.059153 0.416948 -0.120571
25  0.038420 0.022931 -0.000959  -0.024707 0.134564 0.363714
26  -0.039647 -0.056266 0.002069  0.290516 0.165887 -0.062975
27  0.042761 -0.082398 0.038132  0.000000 -0.000000 -0.000000
28  -0.000000 -0.000000 -0.000000  0.759593 -0.043721 -0.255383
29  0.020122 -0.201078 -0.017893  -0.003019 -0.021606 0.303323
30  0.010469 -0.100374 -0.010235  0.007849 -0.079700 -0.008131
31  0.018520 -0.186856 -0.018449  0.143146 0.014339 0.002896
32  -0.032222 -0.200100 -0.061496  0.034551 0.069414 -0.031998
33  0.009310 -0.057389 -0.045571  0.091432 0.020765 0.011104
34  0.068956 -0.193197 -0.059302  -0.083192 0.014205 0.034396
35  0.008683 -0.056712 -0.045241  0.084295 0.021624 0.005806
36  0.102133 -0.077572 -0.031829  -0.020136 0.146668 0.119056
37  0.034314 -0.028672 -0.001806  0.020470 0.046126 -0.128451
38  0.001143 0.000000 -0.181958  -0.001167 0.054570 -0.000231
39  0.004961 -0.000269 -0.096018  0.010873 0.039860 0.000880
40  -0.011623 0.003704 -0.088948  0.067140 0.083175 0.000831
41  -0.007644 0.000000 -0.210641  -0.033522 -0.079011 0.001977
time 23
0  0 0 0  0 0 0
1  0.000000 0.000010 0.000000  -1.570796 -0.000000 0.000000
2  0.000000 0.000000 0.000000  0.000000 -0.000000 0.000000
3  -1.182041 0.000000 -0.713068  0.000000 -0.000000 0.000000
4  0.006445 -0.000000 0.753335  0.000000 -0.000000 0.000000
5  1.165808 -0.018843 0.709987  -0.039064 -0.019913 -0.003693
6  -0.000000 -0.000000 -0.000000  0.000000 -0.000000 0.000000
7  0.000000 -0.000000 -0.000000  -0.069558 -0.208654 -0.003453
8  0.002937 -0.000000 0.194891  -0.023634 -0.004973 -0.003433
9  0.003500 -0.000000 0.083408  0.042829 -0.017992 -0.006605
10  -0.012239 0.000000 0.122389  0.019677 -0.009819 -0.007108
11  0.000267 0.000000 0.055138  -0.000818 -0.069113 0.003385
12  0.003234 0.000000 0.052281  0.001120 0.042979 0.005882
13  -0.001319 -0.000000 0.060214  0.090035 0.172548 0.005752
14  -0.039876 0.060989 0.002159  -0.353354 0.258116 0.047063
15  0.043265 0.077506 0.036874  0.000000 -0.000000 0.000000
16  0.000000 -0.000000 0.000000  -0.412269 0.480334 0.039739
17  0.020260 0.201078 -0.017731  0.035172 -0.072022 -0.929562
18  0.010537 0.100376 -0.010148  -0.004552 -0.044671 0.004443
19  0.018646 0.186860 -0.018292  0.167061 -0.017447 0.000736
20  -0.032087 0.200172 -0.061335  0.048673 0.035379 0.002418
21  0.009278 0.058322 -0.044375  0.146465 0.020678 0.010583
22  0.069086 0.193199 -0.059144  0.048784 0.030556 0.002092
23  0.008560 0.057628 -0.044090  0.146579 0.019807 0.009983
24  0.102185 0.077529 -0.031768  0.044581 0.307087 -0.103087
25  0.038420 0.022931 -0.000959  -0.024698 0.135484 0.366151
26  -0.039647 -0.056266 0.002069  0.335977 0.201570 -0.051911
27  0.042761 -0.082398 0.038132  -0.000000 -0.000000 -0.000000
28  -0.000000 0.000000 0.000000  0.762934 -0.142152 -0.396822
29  0.020122 -0.201078 -0.017893  0.000091 0.000578 0.075162
30  0.010469 -0.100374 -0.010236  0.004847 -0.050087 -0.005032
31  0.018520 -0.186856 -0.018449  0.101490 0.010191 0.001839
32  -0.032222 -0.200100 -0.061496  -0.011579 0.053097 -0.017869
33  0.009310 -0.057389 -0.045571  0.090856 0.021482 0.009212
34  0.068956 -0.193197 -0.059302  -0.074398 0.024324 0.016067
35  0.008683 -0.056712 -0.045241  0.086567 0.021810 0.005978
36  0.102133 -0.077572 -0.031829  -0.016494 0.161732 0.081993
37  0.034314 -0.028672 -0.001806  0.025181 0.059679 -0.164742
38  0.001143 0.000000 -0.181958  0.040039 0.080501 0.003442
39  0.004961 -0.000269 -0.096018  0.022710 0.017534 -0.001238
40  -0.011623 0.003704 -0.088948  0.064735 0.075834 0.000957
41  -0.007644 0.000000 -0.210641  -0.059672 -0.086071 0.002733
end
