version 1
nodes
0 "blender_implicit" -1
1 "Skel0" -1
2 "Skel1" 1
3 "Skel2" 2
4 "Skel3" 3
5 "Skel4" 4
6 "Skel5" 5
7 "Skel6" 6
8 "Skel7" 7
9 "Skel8" 8
10 "Skel9" 9
11 "Skel10" 10
12 "Skel11" 11
13 "Skel12" 12
14 "Skel13" 10
15 "Skel14" 14
16 "Skel15" 15
17 "Skel16" 16
18 "Skel17" 17
19 "Skel18" 18
20 "Skel19" 19
21 "Skel20" 20
22 "Skel21" 19
23 "Skel22" 22
24 "Skel23" 19
25 "Skel24" 24
26 "Skel25" 10
27 "Skel26" 26
28 "Skel27" 27
29 "Skel28" 28
30 "Skel29" 29
31 "Skel30" 30
32 "Skel31" 31
33 "Skel32" 32
34 "Skel33" 31
35 "Skel34" 34
36 "Skel35" 31
37 "Skel36" 36
38 "Skel37" 5
39 "Skel38" 38
40 "Skel39" 39
41 "Skel40" 40
end
skeleton
time 0
0  0 0 0  0 0 0
1  0.000000 0.000010 0.000000  -1.570796 -0.000000 0.000000
2  0.000000 0.000000 0.000000  0.000000 -0.000000 0.000000
3  0.000000 0.000000 0.000000  0.000000 -0.000000 0.000000
4  0.006445 -0.000000 0.753335  0.000000 -0.000000 0.000000
5  0.000000 0.000000 0.000122  0.000000 -0.000000 0.000000
6  0.000000 0.000000 0.000000  0.000000 -0.000000 0.000000
7  0.000000 0.000000 0.000000  0.000000 -0.000000 0.000000
8  0.002937 0.000000 0.194891  0.000000 -0.000000 0.000000
9  0.003500 0.000000 0.083408  0.000000 -0.000000 0.000000
10  -0.012239 0.000000 0.122389  0.000000 -0.000000 0.000000
11  0.000267 0.000000 0.055138  0.000000 -0.120619 0.000000
12  0.003234 0.000000 0.052281  0.000000 0.100081 0.000000
13  -0.001319 0.000000 0.060214  0.000000 0.100081 0.000000
14  -0.039876 0.060989 0.002159  -0.466208 0.011313 0.048149
15  0.043265 0.077505 0.036874  -0.000000 -0.000000 0.000000
16  -0.000000 0.000000 0.000000  -0.467973 0.503091 0.055954
17  0.020260 0.201078 -0.017731  0.001477 -0.014596 -0.231635
18  0.010537 0.100376 -0.010148  0.003375 0.034545 -0.003297
19  0.018646 0.186860 -0.018292  -0.015449 0.001605 -0.000215
20  -0.032087 0.200172 -0.061335  0.000003 0.039860 0.000014
21  0.009278 0.058322 -0.044375  0.000019 0.032714 0.000018
22  0.069086 0.193199 -0.059144  0.000011 0.034229 0.000010
23  0.008560 0.057628 -0.044090  -0.000003 0.030781 0.000017
24  0.102185 0.077529 -0.031768  -0.000045 0.159818 -0.000008
25  0.038420 0.022931 -0.000959  -0.000000 -0.000000 -0.000000
26  -0.039647 -0.056266 0.002069  0.260912 -0.078437 -0.054038
27  0.042761 -0.082398 0.038132  -0.000000 -0.000000 0.000000
28  0.000000 -0.000000 0.000000  0.574187 0.685763 -0.602439
29  0.020122 -0.201077 -0.017893  -0.063857 -0.088943 1.265025
30  0.010469 -0.100374 -0.010235  -0.031466 0.398298 0.033151
31  0.018520 -0.186856 -0.018450  0.000000 -0.000000 -0.000000
32  -0.032222 -0.200100 -0.061496  -0.000028 0.041159 -0.000014
33  0.009310 -0.057389 -0.045571  -0.000040 0.015141 -0.000020
34  0.068956 -0.193197 -0.059302  -0.000040 0.041095 -0.000005
35  0.008683 -0.056712 -0.045241  -0.000018 0.014885 -0.000005
36  0.102133 -0.077572 -0.031829  0.000019 0.207011 0.000011
37  0.034314 -0.028672 -0.001806  -0.000000 -0.000000 -0.000000
38  0.001143 0.000000 -0.181958  0.000000 -0.000000 0.000000
39  0.004961 -0.000269 -0.096018  0.000000 -0.000000 0.000000
40  -0.011623 0.003704 -0.088948  0.000000 -0.000000 0.000000
41  -0.007644 0.000000 -0.210641  0.000000 -0.000000 0.000000
time 1
0  0 0 0  0 0 0
1  0.000000 0.000010 0.000000  -1.570796 -0.000000 0.000000
2  0.000000 0.000000 0.000000  0.000000 -0.000000 0.000000
3  0.140035 0.000000 0.074578  0.000000 -0.000000 0.000000
4  0.006445 -0.000000 0.753335  0.000000 -0.000000 0.000000
5  -0.140035 -0.014449 -0.074530  -0.037090 0.323194 0.114352
6  -0.000000 -0.000000 0.000000  0.000000 -0.000000 -0.000000
7  -0.000000 -0.000000 0.000000  -0.042965 -0.021917 0.060109
8  0.002937 0.000000 0.194891  0.046653 0.094489 0.052436
9  0.003500 0.000000 0.083409  0.100585 0.186175 0.040637
10  -0.012239 -0.000000 0.122389  0.086254 0.078701 0.066267
11  0.000267 -0.000000 0.055138  0.008959 -0.115391 -0.078750
12  0.003234 0.000000 0.052281  -0.002215 0.096236 -0.081018
13  -0.001319 -0.000000 0.060214  0.006022 0.111184 -0.080499
14  -0.039876 0.060989 0.002159  -0.665797 -0.549168 0.168747
15  0.043265 0.077505 0.036874  -0.000000 -0.000000 0.000000
16  0.000000 0.000000 -0.000000  -0.494738 0.787071 0.242385
17  0.020260 0.201078 -0.017731  0.050654 -0.082475 -1.122129
18  0.010537 0.100376 -0.010148  0.003489 0.035612 -0.003397
19  0.018646 0.186860 -0.018292  -0.119262 0.012258 -0.002298
20  -0.032087 0.200172 -0.061335  -0.781001 0.089111 -0.062839
21  0.009278 0.058322 -0.044375  -0.917427 0.062940 -0.091743
22  0.069086 0.193199 -0.059144  -0.781021 0.073368 -0.052659
23  0.008560 0.057628 -0.044090  -0.917477 0.057378 -0.085463
24  0.102185 0.077529 -0.031768  -0.177122 0.445469 0.146437
25  0.038420 0.022931 -0.000959  -0.004466 0.012360 0.034885
26  -0.039647 -0.056266 0.002069  -0.278909 -0.547122 0.315423
27  0.042761 -0.082398 0.038132  -0.000000 -0.000000 0.000000
28  -0.000000 -0.000000 0.000000  0.892185 0.802043 -0.874296
29  0.020122 -0.201077 -0.017893  -0.084690 -0.094149 1.484714
30  0.010469 -0.100374 -0.010235  -0.006890 0.075529 0.007142
31  0.018520 -0.186856 -0.018450  0.260108 0.025714 0.006778
32  -0.032222 -0.200101 -0.061496  0.804087 0.087882 0.064719
33  0.009310 -0.057388 -0.045571  0.657216 0.053126 0.058450
34  0.068956 -0.193197 -0.059302  0.804081 0.087626 0.064547
35  0.008683 -0.056712 -0.045241  0.657321 0.051836 0.057269
36  0.102133 -0.077572 -0.031829  0.199521 0.457770 -0.211800
37  0.034314 -0.028672 -0.001806  0.003514 0.006828 -0.019635
38  0.001143 0.000000 -0.181958  -0.015659 -0.179178 0.001112
39  0.004961 -0.000269 -0.096018  0.060171 -0.558662 -0.069991
40  -0.011623 0.003704 -0.088948  -0.003614 -0.146796 -0.023905
41  -0.007644 0.000000 -0.210641  -0.002148 0.085463 -0.026208
time 2
0  0 0 0  0 0 0
1  0.000000 0.000010 0.000000  -1.570796 -0.000000 0.000000
2  0.000000 0.000000 0.000000  0.000000 -0.000000 0.000000
3  0.162705 0.000000 0.119092  0.000000 -0.000000 0.000000
4  0.006445 -0.000000 0.753335  0.000000 -0.000000 0.000000
5  -0.162705 -0.011286 -0.119092  -0.065642 0.493836 0.134742
6  -0.000000 -0.000000 -0.000000  0.000000 -0.000000 0.000000
7  -0.000000 -0.000000 -0.000000  -0.058813 0.000135 0.082272
8  0.002937 0.000000 0.194891  0.078504 0.153974 0.042124
9  0.003500 0.000000 0.083409  0.176367 0.212797 0.033248
10  -0.012239 -0.000000 0.122389  0.121834 0.084681 0.061426
11  0.000267 -0.000000 0.055137  0.011671 -0.092186 -0.107500
12  0.003234 0.000000 0.052281  0.003434 0.070111 -0.050710
13  -0.001318 -0.000000 0.060214  0.005458 0.035311 -0.048730
14  -0.039876 0.060989 0.002159  -0.810004 -0.760517 0.232725
15  0.043265 0.077505 0.036874  0.000000 -0.000000 0.000000
16  0.000000 -0.000000 -0.000000  -0.315374 0.744057 0.641948
17  0.020259 0.201078 -0.017731  0.117054 -0.092219 -1.827629
18  0.010537 0.100376 -0.010148  -0.006226 -0.060493 0.006069
19  0.018646 0.186860 -0.018292  -0.160928 0.016446 -0.003440
20  -0.032088 0.200172 -0.061335  -1.328563 0.089162 -0.119468
21  0.009278 0.058322 -0.044375  -1.554291 0.032698 -0.153013
22  0.069086 0.193199 -0.059144  -1.327840 0.072248 -0.099166
23  0.008560 0.057628 -0.044090  -1.554319 0.028411 -0.141749
24  0.102185 0.077529 -0.031768  -0.292594 0.657652 0.226617
25  0.038420 0.022931 -0.000959  -0.007357 0.021216 0.059589
26  -0.039647 -0.056266 0.002069  -0.392733 -0.689832 0.488959
27  0.042760 -0.082398 0.038132  -0.000000 -0.000000 0.000000
28  0.000000 0.000000 -0.000000  0.930676 0.777689 -1.041798
29  0.020122 -0.201078 -0.017893  -0.091810 -0.094857 1.557779
30  0.010469 -0.100374 -0.010235  0.012522 -0.123662 -0.012917
31  0.018520 -0.186856 -0.018450  0.298186 0.029283 0.008319
32  -0.032222 -0.200101 -0.061496  1.367056 0.084627 0.121230
33  0.009310 -0.057389 -0.045571  1.119344 0.053951 0.107859
34  0.068956 -0.193197 -0.059302  1.367040 0.084351 0.120878
35  0.008683 -0.056713 -0.045241  1.119436 0.052478 0.105549
36  0.102133 -0.077572 -0.031829  0.321272 0.652689 -0.343119
37  0.034314 -0.028672 -0.001806  0.005912 0.011701 -0.033525
38  0.001143 0.000000 -0.181958  0.012474 -0.236745 -0.000179
39  0.004961 -0.000269 -0.096018  0.095570 -0.835312 -0.118635
40  -0.011623 0.003704 -0.088948  0.021656 -0.162338 -0.035800
41  -0.007644 0.000000 -0.210641  -0.022081 0.199568 -0.040248
time 3
0  0 0 0  0 0 0
1  0.000000 0.000010 0.000000  -1.570796 -0.000000 0.000000
2  0.000000 0.000000 0.000000  0.000000 -0.000000 0.000000
3  -0.087592 0.000000 0.068157  0.000000 -0.000000 0.000000
4  0.006445 -0.000000 0.753335  0.000000 -0.000000 0.000000
5  0.087592 0.024835 -0.068157  -0.116354 0.313682 -0.041832
6  -0.000000 0.000000 0.000000  0.000000 0.000000 -0.000000
7  -0.000000 0.000000 0.000000  -0.015605 0.081141 0.021999
8  0.002937 0.000000 0.194891  0.060638 0.138563 -0.099683
9  0.003500 0.000000 0.083408  0.160411 -0.075413 -0.102509
10  -0.012239 0.000000 0.122389  0.041669 -0.045802 -0.093989
11  0.000267 0.000000 0.055137  0.002889 -0.041148 -0.028808
12  0.003234 -0.000000 0.052281  0.021940 0.007243 0.196775
13  -0.001319 -0.000000 0.060214  -0.017134 -0.187306 0.203416
14  -0.039876 0.060989 0.002159  -0.585270 -0.255671 0.045006
15  0.043265 0.077505 0.036874  0.000000 -0.000000 0.000000
16  -0.000000 -0.000000 -0.000000  -0.243285 0.087738 0.729436
17  0.020260 0.201078 -0.017731  0.100005 -0.094232 -1.650618
18  0.010537 0.100376 -0.010148  -0.038072 -0.318064 0.037333
19  0.018645 0.186860 -0.018292  -0.054816 0.005631 -0.000870
20  -0.032087 0.200172 -0.061335  -1.328563 0.089162 -0.119468
21  0.009278 0.058322 -0.044375  -1.554292 0.032698 -0.153013
22  0.069086 0.193199 -0.059144  -1.327840 0.072248 -0.099166
23  0.008560 0.057628 -0.044090  -1.554319 0.028411 -0.141749
24  0.102185 0.077529 -0.031768  -0.292594 0.657652 0.226617
25  0.038420 0.022931 -0.000959  -0.007357 0.021216 0.059589
26  -0.039647 -0.056266 0.002069  0.489925 -0.248460 -0.015044
27  0.042761 -0.082398 0.038132  0.000000 -0.000000 -0.000000
28  0.000000 0.000000 0.000000  0.538129 0.416862 -0.672500
29  0.020122 -0.201078 -0.017893  -0.052458 -0.083879 1.137602
30  0.010469 -0.100374 -0.010235  0.003917 -0.040462 -0.004046
31  0.018520 -0.186856 -0.018449  -0.129219 -0.013227 -0.000835
32  -0.032222 -0.200101 -0.061496  1.367056 0.084627 0.121230
33  0.009310 -0.057389 -0.045571  1.119344 0.053951 0.107859
34  0.068956 -0.193197 -0.059302  1.367041 0.084351 0.120878
35  0.008683 -0.056712 -0.045241  1.119436 0.052478 0.105549
36  0.102133 -0.077572 -0.031829  0.321273 0.652689 -0.343119
37  0.034314 -0.028672 -0.001806  0.005912 0.011701 -0.033525
38  0.001143 0.000000 -0.181958  0.119714 0.026540 0.007673
39  0.004961 -0.000269 -0.096018  -0.131315 -0.338994 0.016272
40  -0.011623 0.003704 -0.088948  0.085308 -0.005867 -0.012275
41  -0.007644 0.000000 -0.210641  0.016118 -0.014908 -0.008155
time 4
0  0 0 0  0 0 0
1  0.000000 0.000010 0.000000  -1.570796 -0.000000 0.000000
2  0.000000 0.000000 0.000000  0.000000 -0.000000 0.000000
3  -0.304062 0.000000 -0.082151  0.000000 -0.000000 0.000000
4  0.006445 -0.000000 0.753335  0.000000 -0.000000 0.000000
5  0.304062 0.021689 0.082151  -0.070815 0.220050 -0.099470
6  -0.000000 0.000000 0.000000  0.000000 -0.000000 0.000000
7  -0.000000 0.000000 0.000000  -0.000272 -0.013875 -0.000816
8  0.002937 -0.000000 0.194891  0.027072 0.138119 -0.121006
9  0.003500 0.000000 0.083408  0.061927 -0.131665 -0.115852
10  -0.012239 -0.000000 0.122389  0.005984 -0.056658 -0.119866
11  0.000267 0.000000 0.055137  -0.000000 -0.049375 0.000000
12  0.003234 -0.000000 0.052281  0.041727 0.016866 0.238168
13  -0.001319 -0.000000 0.060214  0.011295 -0.156381 0.242438
14  -0.039876 0.060989 0.002159  -0.491793 -0.031295 0.057326
15  0.043265 0.077505 0.036874  -0.000000 -0.000000 0.000000
16  -0.000000 -0.000000 0.000000  -0.297515 -0.053001 0.594571
17  0.020259 0.201078 -0.017731  0.049324 -0.081740 -1.106483
18  0.010537 0.100376 -0.010148  -0.032339 -0.277443 0.031689
19  0.018646 0.186860 -0.018292  0.046808 -0.004898 0.000502
20  -0.032088 0.200172 -0.061335  -1.296110 0.090036 -0.116199
21  0.009278 0.058322 -0.044375  -1.516485 0.035538 -0.150012
22  0.069086 0.193199 -0.059144  -1.295429 0.073014 -0.096474
23  0.008560 0.057628 -0.044090  -1.516498 0.031093 -0.139026
24  0.102185 0.077529 -0.031768  -0.283419 0.646484 0.223037
25  0.038420 0.022931 -0.000959  -0.007203 0.020683 0.058114
26  -0.039647 -0.056266 0.002069  0.622788 -0.026967 -0.083366
27  0.042761 -0.082398 0.038132  0.000000 -0.000000 0.000000
28  0.000000 -0.000000 0.000000  0.437771 0.335231 -0.409956
29  0.020122 -0.201078 -0.017893  -0.026435 -0.064125 0.802697
30  0.010469 -0.100374 -0.010235  0.000000 0.000000 0.000000
31  0.018520 -0.186856 -0.018449  -0.278756 -0.028485 0.000334
32  -0.032222 -0.200101 -0.061496  1.333672 0.085710 0.118014
33  0.009310 -0.057388 -0.045571  1.091998 0.054530 0.104954
34  0.068956 -0.193197 -0.059302  1.333657 0.085428 0.117668
35  0.008683 -0.056712 -0.045241  1.092100 0.053063 0.102730
36  0.102133 -0.077572 -0.031830  0.312210 0.642888 -0.336046
37  0.034314 -0.028672 -0.001806  0.005782 0.011417 -0.032712
38  0.001143 0.000000 -0.181958  0.114353 0.056625 0.008959
39  0.004961 -0.000269 -0.096018  -0.168165 -0.005420 0.022144
40  -0.011623 0.003704 -0.088948  0.078814 -0.004579 -0.002999
41  -0.007644 0.000000 -0.210641  0.055230 -0.135181 0.001008
time 5
0  0 0 0  0 0 0
1  0.000000 0.000010 0.000000  -1.570796 -0.000000 0.000000
2  0.000000 0.000000 0.000000  0.000000 -0.000000 0.000000
3  -0.484500 0.000000 -0.264486  0.000000 -0.000000 0.000000
4  0.006445 -0.000000 0.753335  0.000000 -0.000000 0.000000
5  0.484500 0.000041 0.264486  0.008073 0.190145 -0.097451
6  -0.000000 0.000000 0.000000  0.000000 -0.000000 -0.000000
7  -0.000000 0.000000 0.000000  -0.000511 -0.185804 -0.002006
8  0.002937 0.000000 0.194891  -0.009084 0.151581 -0.083786
9  0.003500 0.000000 0.083408  -0.064170 -0.063597 -0.078331
10  -0.012239 -0.000000 0.122389  -0.003105 -0.006181 -0.083223
11  0.000267 0.000000 0.055138  0.000000 -0.083803 -0.000000
12  0.003234 0.000000 0.052281  0.060250 0.060128 0.179654
13  -0.001319 -0.000000 0.060214  0.059124 -0.008750 0.182881
14  -0.039876 0.060989 0.002159  -0.469305 0.014803 0.071049
15  0.043265 0.077505 0.036874  0.000000 -0.000000 -0.000000
16  -0.000000 -0.000000 -0.000000  -0.415932 0.010914 0.530739
17  0.020260 0.201078 -0.017731  0.015657 -0.050172 -0.627208
18  0.010537 0.100376 -0.010148  -0.010807 -0.102771 0.010554
19  0.018646 0.186860 -0.018292  0.134598 -0.014062 0.000822
20  -0.032087 0.200172 -0.061335  -1.296110 0.090036 -0.116199
21  0.009278 0.058322 -0.044375  -1.516485 0.035538 -0.150012
22  0.069086 0.193199 -0.059144  -1.295430 0.073014 -0.096474
23  0.008560 0.057628 -0.044090  -1.516498 0.031093 -0.139026
24  0.102185 0.077529 -0.031768  -0.283419 0.646484 0.223037
25  0.038420 0.022931 -0.000959  -0.007203 0.020683 0.058114
26  -0.039647 -0.056266 0.002069  0.563885 -0.013130 -0.099152
27  0.042760 -0.082398 0.038132  0.000000 -0.000000 -0.000000
28  -0.000000 -0.000000 0.000000  0.489600 0.327572 -0.342753
29  0.020122 -0.201077 -0.017893  -0.014803 -0.049019 0.608119
30  0.010469 -0.100374 -0.010235  0.000000 -0.000000 0.000000
31  0.018520 -0.186856 -0.018449  -0.278756 -0.028485 0.000334
32  -0.032222 -0.200101 -0.061496  1.333672 0.085710 0.118014
33  0.009310 -0.057388 -0.045571  1.091998 0.054530 0.104954
34  0.068956 -0.193197 -0.059302  1.333657 0.085428 0.117668
35  0.008683 -0.056712 -0.045241  1.092100 0.053063 0.102730
36  0.102133 -0.077572 -0.031829  0.312210 0.642888 -0.336046
37  0.034314 -0.028672 -0.001806  0.005782 0.011417 -0.032712
38  0.001143 0.000000 -0.181958  0.055811 -0.069069 0.001136
39  0.004961 -0.000269 -0.096018  -0.101629 0.131457 0.012123
40  -0.011623 0.003704 -0.088948  0.043892 -0.035598 -0.002329
41  -0.007644 0.000000 -0.210641  0.055617 -0.014481 0.001985
time 6
0  0 0 0  0 0 0
1  0.000000 0.000010 0.000000  -1.570796 -0.000000 0.000000
2  0.000000 0.000000 0.000000  0.000000 -0.000000 0.000000
3  -0.645373 0.000000 -0.413295  0.000000 -0.000000 0.000000
4  0.006445 -0.000000 0.753335  0.000000 -0.000000 0.000000
5  0.645373 -0.017805 0.413295  0.071124 0.156930 -0.097467
6  0.000000 -0.000000 -0.000000  -0.000000 0.000000 -0.000000
7  0.000000 -0.000000 -0.000000  -0.000545 -0.319541 -0.002911
8  0.002937 -0.000000 0.194891  -0.038163 0.157851 -0.051900
9  0.003500 0.000000 0.083408  -0.161163 -0.001877 -0.052812
10  -0.012239 0.000000 0.122389  -0.007163 0.036237 -0.051892
11  0.000267 0.000000 0.055137  -0.000000 -0.113936 -0.000000
12  0.003234 0.000000 0.052281  0.070943 0.092232 0.129482
13  -0.001319 -0.000000 0.060214  0.090246 0.112502 0.136364
14  -0.039876 0.060989 0.002159  -0.451213 0.052383 0.076150
15  0.043265 0.077505 0.036874  0.000000 -0.000000 -0.000000
16  -0.000000 -0.000000 0.000000  -0.520559 0.092011 0.493546
17  0.020259 0.201078 -0.017731  0.001554 -0.015013 -0.235993
18  0.010537 0.100376 -0.010148  0.004480 0.045779 -0.004344
19  0.018646 0.186860 -0.018293  0.211208 -0.022052 0.000443
20  -0.032088 0.200172 -0.061335  -1.296110 0.090036 -0.116199
21  0.009278 0.058322 -0.044375  -1.516485 0.035538 -0.150012
22  0.069086 0.193199 -0.059144  -1.295430 0.073014 -0.096474
23  0.008560 0.057628 -0.044090  -1.516498 0.031093 -0.139026
24  0.102185 0.077529 -0.031768  -0.283419 0.646484 0.223037
25  0.038420 0.022931 -0.000959  -0.007203 0.020683 0.058114
26  -0.039647 -0.056266 0.002069  0.502096 -0.006887 -0.112816
27  0.042761 -0.082398 0.038132  0.000000 -0.000000 -0.000000
28  0.000000 0.000000 0.000000  0.542152 0.350390 -0.310561
29  0.020122 -0.201078 -0.017893  -0.009854 -0.040101 0.504231
30  0.010469 -0.100374 -0.010235  -0.000206 0.002173 0.000213
31  0.018520 -0.186856 -0.018449  -0.267241 -0.027318 0.000163
32  -0.032222 -0.200101 -0.061496  1.333672 0.085710 0.118014
33  0.009310 -0.057389 -0.045571  1.091998 0.054530 0.104954
34  0.068956 -0.193197 -0.059302  1.333657 0.085428 0.117668
35  0.008683 -0.056713 -0.045241  1.092100 0.053063 0.102730
36  0.102133 -0.077572 -0.031829  0.312210 0.642888 -0.336046
37  0.034314 -0.028672 -0.001806  0.005782 0.011417 -0.032712
38  0.001143 0.000000 -0.181958  0.006558 -0.171632 0.000251
39  0.004961 -0.000269 -0.096018  -0.037386 0.242290 0.010597
40  -0.011623 0.003704 -0.088948  0.012253 -0.058448 -0.000761
41  -0.007644 0.000000 -0.210641  0.049990 0.082719 0.002332
time 7
0  0 0 0  0 0 0
1  0.000000 0.000010 0.000000  -1.570796 -0.000000 0.000000
2  0.000000 0.000000 0.000000  0.000000 -0.000000 0.000000
3  -0.708422 0.000000 -0.394468  0.000000 -0.000000 0.000000
4  0.006445 -0.000000 0.753335  0.000000 -0.000000 0.000000
5  0.708422 -0.016638 0.394468  0.057696 0.107323 -0.096255
6  0.000000 -0.000000 0.000000  -0.000000 -0.000000 0.000000
7  0.000000 -0.000000 0.000000  -0.000471 -0.266483 -0.002370
8  0.002937 -0.000000 0.194891  -0.034178 0.122143 -0.044707
9  0.003500 0.000000 0.083408  -0.128163 0.010095 -0.045769
10  -0.012239 -0.000000 0.122389  0.005436 0.037092 -0.044993
11  0.000267 -0.000000 0.055137  -0.000000 -0.122633 0.000000
12  0.003234 -0.000000 0.052281  0.054261 0.063996 0.118225
13  -0.001319 0.000000 0.060214  0.077948 0.093771 0.123339
14  -0.039876 0.060989 0.002159  -0.458010 0.048793 0.033350
15  0.043265 0.077505 0.036874  0.000000 -0.000000 -0.000000
16  -0.000000 0.000000 0.000000  -0.524256 0.299096 0.623645
17  0.020260 0.201078 -0.017731  0.000826 -0.010577 -0.189896
18  0.010537 0.100376 -0.010148  0.006435 0.066486 -0.006245
19  0.018646 0.186860 -0.018293  0.232436 -0.024246 0.000230
20  -0.032087 0.200172 -0.061335  -1.296110 0.090036 -0.116199
21  0.009278 0.058322 -0.044375  -1.516485 0.035538 -0.150012
22  0.069086 0.193199 -0.059144  -1.295429 0.073014 -0.096474
23  0.008560 0.057628 -0.044090  -1.516498 0.031093 -0.139026
24  0.102185 0.077529 -0.031768  -0.283419 0.646484 0.223037
25  0.038420 0.022931 -0.000959  -0.007203 0.020683 0.058114
26  -0.039647 -0.056266 0.002069  0.426537 -0.034178 -0.111104
27  0.042760 -0.082398 0.038132  0.000000 -0.000000 -0.000000
28  0.000000 0.000000 0.000000  0.587808 0.545786 -0.451483
29  0.020122 -0.201077 -0.017893  -0.029800 -0.067538 0.851575
30  0.010469 -0.100374 -0.010236  -0.001436 0.015215 0.001480
31  0.018520 -0.186856 -0.018450  -0.198126 -0.020275 -0.000580
32  -0.032222 -0.200101 -0.061496  1.333672 0.085710 0.118014
33  0.009310 -0.057389 -0.045571  1.091998 0.054530 0.104954
34  0.068956 -0.193197 -0.059302  1.333657 0.085428 0.117668
35  0.008683 -0.056713 -0.045241  1.092100 0.053063 0.102730
36  0.102133 -0.077572 -0.031829  0.312210 0.642888 -0.336046
37  0.034314 -0.028672 -0.001806  0.005782 0.011417 -0.032712
38  0.001143 0.000000 -0.181958  0.002285 -0.159324 0.000375
39  0.004961 -0.000269 -0.096018  0.015146 0.223760 0.009203
40  -0.011623 0.003704 -0.088948  -0.002683 -0.040685 0.000164
41  -0.007644 0.000000 -0.210641  0.013806 0.063812 -0.000286
time 8
0  0 0 0  0 0 0
1  0.000000 0.000010 0.000000  -1.570796 -0.000000 0.000000
2  0.000000 0.000000 0.000000  0.000000 -0.000000 0.000000
3  -0.756000 0.000000 -0.346597  0.000000 -0.000000 0.000000
4  0.006445 -0.000000 0.753335  0.000000 -0.000000 0.000000
5  0.756000 -0.012478 0.346598  0.032665 0.055876 -0.094668
6  -0.000000 -0.000000 -0.000000  0.000000 -0.000000 -0.000000
7  0.000000 -0.000000 -0.000000  -0.000301 -0.185165 -0.001640
8  0.002937 0.000000 0.194891  -0.025224 0.080476 -0.041291
9  0.003500 0.000000 0.083408  -0.075233 0.014614 -0.042239
10  -0.012239 -0.000000 0.122389  0.020505 0.031482 -0.041803
11  0.000267 0.000000 0.055137  -0.000000 -0.127456 0.000000
12  0.003234 -0.000000 0.052281  0.033472 0.026005 0.112845
13  -0.001319 0.000000 0.060214  0.058185 0.053653 0.115960
14  -0.039876 0.060989 0.002159  -0.465763 0.038449 0.013266
15  0.043265 0.077505 0.036874  -0.000000 -0.000000 0.000000
16  -0.000000 0.000000 0.000000  -0.469450 0.528431 0.782718
17  0.020259 0.201078 -0.017731  0.003895 -0.024708 -0.338302
18  0.010537 0.100376 -0.010148  0.006924 0.071982 -0.006744
19  0.018646 0.186860 -0.018292  0.231519 -0.024136 0.000240
20  -0.032087 0.200172 -0.061335  -1.296110 0.090036 -0.116199
21  0.009278 0.058322 -0.044375  -1.516485 0.035538 -0.150012
22  0.069086 0.193199 -0.059144  -1.295429 0.073014 -0.096474
23  0.008560 0.057628 -0.044090  -1.516499 0.031093 -0.139026
24  0.102185 0.077529 -0.031768  -0.283419 0.646484 0.223037
25  0.038420 0.022931 -0.000959  -0.007203 0.020683 0.058114
26  -0.039647 -0.056266 0.002069  0.337570 -0.050964 -0.116862
27  0.042761 -0.082398 0.038132  -0.000000 -0.000000 -0.000000
28  0.000000 0.000000 0.000000  0.512368 0.745616 -0.664676
29  0.020122 -0.201078 -0.017893  -0.062408 -0.088393 1.249203
30  0.010469 -0.100374 -0.010236  -0.002648 0.028277 0.002733
31  0.018520 -0.186856 -0.018450  -0.122025 -0.012483 -0.000833
32  -0.032222 -0.200101 -0.061496  1.333672 0.085710 0.118014
33  0.009310 -0.057388 -0.045571  1.091998 0.054530 0.104954
34  0.068956 -0.193197 -0.059302  1.333657 0.085428 0.117668
35  0.008683 -0.056712 -0.045241  1.092100 0.053063 0.102730
36  0.102133 -0.077572 -0.031829  0.312210 0.642888 -0.336046
37  0.034314 -0.028672 -0.001806  0.005782 0.011417 -0.032712
38  0.001143 0.000000 -0.181958  0.010188 -0.121503 0.000212
39  0.004961 -0.000269 -0.096018  0.057446 0.168416 0.004446
40  -0.011623 0.003704 -0.088948  -0.016655 -0.010738 0.000675
41  -0.007644 0.000000 -0.210641  -0.019228 0.037465 -0.001801
time 9
0  0 0 0  0 0 0
1  0.000000 0.000010 0.000000  -1.570796 -0.000000 0.000000
2  0.000000 0.000000 0.000000  0.000000 -0.000000 0.000000
3  -0.785870 0.000000 -0.232273  0.000000 -0.000000 0.000000
4  0.006445 -0.000000 0.753335  0.000000 -0.000000 0.000000
5  0.785870 -0.006057 0.232273  0.001439 0.011626 -0.088836
6  0.000000 0.000000 -0.000000  0.000000 0.000000 -0.000000
7  0.000000 0.000000 -0.000000  -0.000149 -0.086968 -0.000801
8  0.002937 -0.000000 0.194891  -0.012424 0.038771 -0.039833
9  0.003500 0.000000 0.083408  -0.012732 0.011075 -0.040736
10  -0.012239 0.000000 0.122389  0.033457 0.019961 -0.040547
11  0.000267 0.000000 0.055138  0.000000 -0.121659 0.000000
12  0.003234 0.000000 0.052281  0.011658 -0.026201 0.107964
13  -0.001319 0.000000 0.060214  0.033074 -0.004170 0.109315
14  -0.039876 0.060989 0.002159  -0.475181 0.024486 0.021178
15  0.043265 0.077505 0.036874  -0.000000 -0.000000 0.000000
16  -0.000000 -0.000000 -0.000000  -0.216301 0.681957 1.097731
17  0.020260 0.201078 -0.017731  0.034686 -0.071618 -0.923064
18  0.010537 0.100376 -0.010148  -0.001018 -0.009958 0.000972
19  0.018646 0.186860 -0.018292  0.160229 -0.016708 0.000762
20  -0.032088 0.200172 -0.061335  -1.296110 0.090036 -0.116199
21  0.009278 0.058322 -0.044375  -1.516485 0.035538 -0.150012
22  0.069086 0.193199 -0.059144  -1.295430 0.073014 -0.096474
23  0.008560 0.057628 -0.044090  -1.516498 0.031093 -0.139026
24  0.102185 0.077529 -0.031768  -0.283419 0.646484 0.223038
25  0.038420 0.022931 -0.000959  -0.007203 0.020683 0.058114
26  -0.039647 -0.056266 0.002069  0.247956 -0.061983 -0.131702
27  0.042761 -0.082398 0.038131  -0.000000 -0.000000 0.000000
28  0.000000 0.000000 0.000000  0.248867 0.864306 -0.990538
29  0.020122 -0.201078 -0.017893  -0.100561 -0.095016 1.647180
30  0.010469 -0.100374 -0.010235  -0.001841 0.019582 0.001901
31  0.018520 -0.186856 -0.018450  -0.063904 -0.006521 -0.000626
32  -0.032222 -0.200101 -0.061496  1.333672 0.085710 0.118014
33  0.009310 -0.057389 -0.045571  1.091998 0.054530 0.104954
34  0.068956 -0.193197 -0.059302  1.333657 0.085428 0.117668
35  0.008683 -0.056712 -0.045241  1.092100 0.053063 0.102730
36  0.102133 -0.077572 -0.031829  0.312210 0.642888 -0.336046
37  0.034314 -0.028672 -0.001806  0.005782 0.011417 -0.032712
38  0.001143 0.000000 -0.181958  0.026295 -0.053731 0.000759
39  0.004961 -0.000269 -0.096018  0.077092 0.071293 -0.004358
40  -0.011623 0.003704 -0.088948  -0.025244 0.029482 0.000507
41  -0.007644 0.000000 -0.210641  -0.038272 0.009978 -0.001803
time 10
0  0 0 0  0 0 0
1  0.000000 0.000010 0.000000  -1.570796 -0.000000 0.000000
2  0.000000 0.000000 0.000000  0.000000 -0.000000 0.000000
3  -0.814622 0.000000 -0.099243  0.000000 -0.000000 0.000000
4  0.006445 -0.000000 0.753335  0.000000 -0.000000 0.000000
5  0.814622 -0.000000 0.099243  -0.027348 -0.027918 -0.080283
6  0.000000 -0.000000 -0.000000  0.000000 0.000000 -0.000000
7  0.000000 0.000000 -0.000000  0.000000 0.005554 -0.000000
8  0.002937 0.000000 0.194891  -0.000366 -0.000007 -0.037783
9  0.003500 0.000000 0.083408  0.044617 0.007026 -0.038491
10  -0.012239 0.000000 0.122389  0.044097 0.008664 -0.038457
11  0.000267 0.000000 0.055138  0.000000 -0.112487 0.000000
12  0.003234 -0.000000 0.052281  -0.008195 -0.080828 0.101227
13  -0.001319 0.000000 0.060214  0.009480 -0.060381 0.101064
14  -0.039876 0.060989 0.002159  -0.484993 0.012064 0.031814
15  0.043265 0.077505 0.036874  -0.000000 -0.000000 0.000000
16  0.000000 0.000000 0.000000  0.143129 0.701676 1.506381
17  0.020259 0.201078 -0.017731  0.099042 -0.094256 -1.640690
18  0.010537 0.100375 -0.010148  -0.013646 -0.127931 0.013328
19  0.018646 0.186860 -0.018292  0.064819 -0.006751 0.000632
20  -0.032088 0.200172 -0.061335  -1.296110 0.090036 -0.116199
21  0.009278 0.058322 -0.044375  -1.516485 0.035538 -0.150012
22  0.069086 0.193199 -0.059144  -1.295429 0.073014 -0.096474
23  0.008560 0.057628 -0.044090  -1.516498 0.031093 -0.139026
24  0.102185 0.077529 -0.031768  -0.283419 0.646484 0.223037
25  0.038420 0.022931 -0.000959  -0.007203 0.020683 0.058114
26  -0.039647 -0.056266 0.002069  0.164763 -0.075995 -0.145791
27  0.042760 -0.082398 0.038132  0.000000 -0.000000 -0.000000
28  0.000000 0.000000 0.000000  -0.076951 0.891941 -1.358529
29  0.020122 -0.201078 -0.017893  -0.136083 -0.087364 2.020333
30  0.010469 -0.100374 -0.010235  -0.000000 -0.000000 -0.000000
31  0.018520 -0.186856 -0.018450  -0.018278 -0.001848 -0.000220
32  -0.032222 -0.200101 -0.061496  1.333672 0.085710 0.118014
33  0.009310 -0.057389 -0.045571  1.091998 0.054530 0.104954
34  0.068956 -0.193197 -0.059302  1.333657 0.085428 0.117668
35  0.008683 -0.056713 -0.045241  1.092100 0.053063 0.102730
36  0.102133 -0.077572 -0.031830  0.312210 0.642888 -0.336046
37  0.034314 -0.028672 -0.001806  0.005782 0.011417 -0.032712
38  0.001143 0.000000 -0.181958  0.040490 0.016253 0.002344
39  0.004961 -0.000269 -0.096018  0.091130 -0.028247 -0.014365
40  -0.011623 0.003704 -0.088948  -0.031636 0.068749 0.000011
41  -0.007644 0.000000 -0.210641  -0.051878 -0.014381 -0.001275
time 11
0  0 0 0  0 0 0
1  0.000000 0.000010 0.000000  -1.570796 -0.000000 0.000000
2  0.000000 0.000000 0.000000  0.000000 -0.000000 0.000000
3  -0.842838 0.000000 0.224368  0.000000 -0.000000 0.000000
4  0.006445 -0.000000 0.753335  0.000000 -0.000000 0.000000
5  0.842838 -0.000000 -0.226168  -0.016756 -0.013217 -0.048286
6  0.000000 0.000000 0.000000  -0.000000 -0.000000 -0.000000
7  0.000000 0.000000 0.000000  -0.000000 0.009754 -0.000000
8  0.002937 0.000000 0.194891  -0.000220 -0.000002 -0.022670
9  0.003500 0.000000 0.083408  0.026803 0.004010 -0.023133
10  -0.012239 0.000000 0.122389  0.026498 0.004995 -0.023120
11  0.000267 0.000000 0.055138  0.000000 -0.067495 0.000000
12  0.003234 -0.000000 0.052281  -0.007217 -0.154692 0.061293
13  -0.001319 -0.000000 0.060214  0.005111 -0.079394 0.060633
14  -0.039876 0.060989 0.002159  -0.489195 0.008327 0.030049
15  0.043265 0.077505 0.036874  -0.000000 -0.000000 0.000000
16  0.000000 0.000000 -0.000000  0.062308 0.559051 1.223320
17  0.020259 0.201078 -0.017731  0.111628 -0.093192 -1.770852
18  0.010537 0.100376 -0.010148  -0.022956 -0.205807 0.022459
19  0.018646 0.186860 -0.018292  -0.000136 0.000016 -0.000002
20  -0.032088 0.200172 -0.061335  -1.296110 0.090036 -0.116199
21  0.009278 0.058322 -0.044375  -1.516485 0.035538 -0.150012
22  0.069086 0.193199 -0.059144  -1.295429 0.073014 -0.096474
23  0.008560 0.057628 -0.044090  -1.516498 0.031093 -0.139026
24  0.102185 0.077529 -0.031768  -0.283419 0.646484 0.223037
25  0.038420 0.022931 -0.000959  -0.007203 0.020683 0.058114
26  -0.039647 -0.056266 0.002069  0.105484 -0.134652 -0.086566
27  0.042761 -0.082398 0.038131  -0.000000 -0.000000 0.000000
28  0.000000 0.000000 0.000000  -0.105485 0.755895 -1.257081
29  0.020122 -0.201078 -0.017893  -0.150718 -0.079696 2.189181
30  0.010469 -0.100374 -0.010235  0.014885 -0.145038 -0.015331
31  0.018520 -0.186856 -0.018450  -0.122421 -0.012509 -0.000833
32  -0.032222 -0.200101 -0.061496  1.333672 0.085710 0.118014
33  0.009310 -0.057389 -0.045571  1.091998 0.054530 0.104954
34  0.068956 -0.193197 -0.059302  1.333657 0.085428 0.117668
35  0.008683 -0.056713 -0.045241  1.092100 0.053063 0.102730
36  0.102133 -0.077572 -0.031829  0.312210 0.642888 -0.336046
37  0.034314 -0.028672 -0.001806  0.005782 0.011417 -0.032712
38  0.001143 0.000000 -0.181958  0.024753 0.049916 0.001754
39  0.004961 -0.000269 -0.096018  0.053953 -0.036330 -0.009508
40  -0.011623 0.003704 -0.088948  -0.018731 0.055387 0.000141
41  -0.007644 0.000000 -0.210641  -0.031019 -0.035448 0.000074
time 12
0  0 0 0  0 0 0
1  0.000000 0.000010 0.000000  -1.570796 -0.000000 0.000000
2  0.000000 0.000000 0.000000  0.000000 -0.000000 0.000000
3  -0.871054 0.000000 0.547979  0.000000 -0.000000 0.000000
4  0.006445 -0.000000 0.753335  0.000000 -0.000000 0.000000
5  0.871054 -0.000000 -0.551579  -0.005699 0.001138 -0.016132
6  -0.000000 0.000000 0.000000  0.000000 -0.000000 0.000000
7  -0.000000 0.000000 0.000000  0.000000 0.013953 -0.000000
8  0.002937 0.000000 0.194891  -0.000073 -0.000000 -0.007556
9  0.003500 0.000000 0.083408  0.008944 0.001268 -0.007722
10  -0.012239 0.000000 0.122389  0.008845 0.001597 -0.007721
11  0.000267 -0.000000 0.055138  -0.000000 -0.022492 -0.000000
12  0.003234 0.000000 0.052281  -0.003196 -0.228522 0.020671
13  -0.001319 -0.000000 0.060214  0.001510 -0.098572 0.020208
14  -0.039876 0.060989 0.002159  -0.493391 0.004582 0.028300
15  0.043265 0.077505 0.036874  0.000000 -0.000000 0.000000
16  0.000000 -0.000000 -0.000000  0.033393 0.402753 0.972222
17  0.020260 0.201078 -0.017731  0.123992 -0.090504 -1.901243
18  0.010537 0.100376 -0.010148  -0.033196 -0.283652 0.032532
19  0.018646 0.186860 -0.018292  -0.065130 0.006731 -0.001074
20  -0.032088 0.200172 -0.061335  -1.296110 0.090036 -0.116199
21  0.009278 0.058322 -0.044375  -1.516485 0.035538 -0.150012
22  0.069086 0.193199 -0.059144  -1.295430 0.073014 -0.096474
23  0.008560 0.057628 -0.044090  -1.516498 0.031093 -0.139026
24  0.102185 0.077529 -0.031768  -0.283419 0.646484 0.223037
25  0.038420 0.022931 -0.000959  -0.007203 0.020683 0.058114
26  -0.039647 -0.056266 0.002069  0.042147 -0.189658 -0.023282
27  0.042760 -0.082398 0.038131  -0.000000 -0.000000 0.000000
28  0.000000 0.000000 0.000000  -0.147999 0.621841 -1.161211
29  0.020122 -0.201078 -0.017893  -0.163888 -0.069649 2.358388
30  0.010469 -0.100374 -0.010235  0.032617 -0.290198 -0.033457
31  0.018520 -0.186856 -0.018449  -0.226719 -0.023191 -0.000332
32  -0.032222 -0.200101 -0.061496  1.333672 0.085710 0.118014
33  0.009310 -0.057389 -0.045571  1.091998 0.054530 0.104954
34  0.068956 -0.193197 -0.059302  1.333657 0.085428 0.117668
35  0.008683 -0.056713 -0.045241  1.092100 0.053063 0.102730
36  0.102133 -0.077572 -0.031829  0.312210 0.642888 -0.336046
37  0.034314 -0.028672 -0.001806  0.005782 0.011417 -0.032712
38  0.001143 0.000000 -0.181958  0.008959 0.083571 0.000631
39  0.004961 -0.000269 -0.096018  0.016718 -0.044228 -0.004351
40  -0.011623 0.003704 -0.088948  -0.005835 0.042023 0.000097
41  -0.007644 0.000000 -0.210641  -0.010165 -0.056541 0.000984
time 13
0  0 0 0  0 0 0
1  0.000000 0.000010 0.000000  -1.570796 -0.000000 0.000000
2  0.000000 0.000000 0.000000  0.000000 -0.000000 0.000000
3  -0.885163 0.000000 0.709784  0.000000 -0.000000 0.000000
4  0.006445 -0.000000 0.753335  0.000000 -0.000000 0.000000
5  0.875603 0.006032 -0.721922  0.012640 0.094334 -0.002250
6  -0.000000 0.000000 0.000000  -0.000000 -0.000000 0.000000
7  -0.000000 0.000000 0.000000  0.018643 0.022653 -0.000241
8  0.002937 -0.000000 0.194891  -0.014429 0.043445 0.001410
9  0.003500 0.000000 0.083408  -0.014513 -0.022060 -0.000707
10  -0.012239 0.000000 0.122389  -0.008556 -0.019342 -0.000320
11  0.000267 0.000000 0.055138  -0.000000 -0.032893 -0.000000
12  0.003234 0.000000 0.052281  0.000000 -0.287723 0.000000
13  -0.001318 -0.000000 0.060215  -0.000000 -0.182972 0.000000
14  -0.039876 0.060989 0.002159  -0.532559 -0.051942 0.015102
15  0.043265 0.077505 0.036874  -0.000000 -0.000000 0.000000
16  0.000000 -0.000000 -0.000000  0.007907 0.249104 0.771348
17  0.020260 0.201078 -0.017731  0.120902 -0.091335 -1.868291
18  0.010537 0.100376 -0.010148  -0.023369 -0.209054 0.022860
19  0.018646 0.186860 -0.018292  -0.017067 0.001770 -0.000239
20  -0.032088 0.200172 -0.061335  -1.059586 0.109078 -0.081039
21  0.009278 0.058322 -0.044375  -1.248720 0.052120 -0.126040
22  0.069086 0.193199 -0.059144  -1.059301 0.039510 -0.100564
23  0.008560 0.057628 -0.044090  -1.248706 0.046828 -0.117074
24  0.102185 0.077529 -0.031768  -0.242373 0.528760 0.141669
25  0.038420 0.022931 -0.000959  -0.011060 0.033747 0.094127
26  -0.039647 -0.056266 0.002069  -0.037044 -0.318088 0.056560
27  0.042761 -0.082398 0.038132  0.000000 -0.000000 0.000000
28  0.000000 0.000000 -0.000000  -0.299756 0.601754 -1.174738
29  0.020122 -0.201078 -0.017893  -0.163220 -0.070249 2.349240
30  0.010469 -0.100374 -0.010236  0.042805 -0.362306 -0.043825
31  0.018520 -0.186856 -0.018449  -0.323868 -0.033044 0.001133
32  -0.032222 -0.200101 -0.061496  1.123484 0.099244 0.092201
33  0.009310 -0.057388 -0.045571  0.941494 0.066103 0.077065
34  0.068956 -0.193197 -0.059302  1.188744 0.089123 0.109124
35  0.008683 -0.056712 -0.045241  0.962217 0.054771 0.089152
36  0.102133 -0.077572 -0.031830  0.287147 0.598179 -0.289900
37  0.034314 -0.028672 -0.001806  0.005027 0.009885 -0.028358
38  0.001143 0.000000 -0.181958  0.027881 0.060287 0.002137
39  0.004961 -0.000269 -0.096018  -0.064021 -0.165540 0.006710
40  -0.011623 0.003704 -0.088948  -0.011853 0.021138 0.000314
41  -0.007644 0.000000 -0.210641  0.027713 -0.030815 0.001199
time 14
0  0 0 0  0 0 0
1  0.000000 0.000010 0.000000  -1.570796 -0.000000 0.000000
2  0.000000 0.000000 0.000000  0.000000 -0.000000 0.000000
3  -0.885163 0.000000 0.709784  0.000000 -0.000000 0.000000
4  0.006445 -0.000000 0.753335  0.000000 -0.000000 0.000000
5  0.856484 0.018097 -0.737198  0.038149 0.267857 -0.003484
6  -0.000000 0.000000 0.000000  -0.000000 -0.000000 0.000000
7  -0.000000 0.000000 0.000000  0.055948 0.035865 -0.000353
8  0.002937 -0.000000 0.194891  -0.043335 0.130535 0.002351
9  0.003500 0.000000 0.083408  -0.043555 -0.066226 -0.001161
10  -0.012239 -0.000000 0.122389  -0.025678 -0.058046 -0.000464
11  0.000267 0.000000 0.055138  0.000000 -0.098741 0.000000
12  0.003234 -0.000000 0.052281  0.000000 -0.332578 -0.000000
13  -0.001318 -0.000000 0.060215  -0.000000 -0.333242 0.000000
14  -0.039876 0.060989 0.002159  -0.605656 -0.162855 -0.003667
15  0.043265 0.077505 0.036874  0.000000 -0.000000 0.000000
16  0.000000 0.000000 0.000000  -0.026055 0.090750 0.609198
17  0.020260 0.201078 -0.017731  0.101960 -0.094155 -1.670765
18  0.010537 0.100376 -0.010148  0.002064 0.021045 -0.002023
19  0.018646 0.186860 -0.018292  0.144913 -0.015136 0.000806
20  -0.032088 0.200172 -0.061335  -0.558314 0.119849 0.002172
21  0.009278 0.058322 -0.044375  -0.672667 0.063419 -0.065133
22  0.069086 0.193199 -0.059144  -0.560267 -0.022919 -0.133765
23  0.008560 0.057628 -0.044090  -0.672759 0.058240 -0.060829
24  0.102185 0.077529 -0.031768  -0.133913 0.298530 -0.028549
25  0.038420 0.022931 -0.000959  -0.017363 0.060285 0.166166
26  -0.039647 -0.056266 0.002069  -0.153570 -0.517745 0.174320
27  0.042760 -0.082398 0.038132  0.000000 -0.000000 -0.000000
28  0.000000 0.000000 -0.000000  -0.576670 0.670781 -1.322007
29  0.020122 -0.201078 -0.017893  -0.148394 -0.081131 2.161304
30  0.010469 -0.100374 -0.010236  0.042805 -0.362306 -0.043825
31  0.018520 -0.186856 -0.018449  -0.414289 -0.042046 0.003350
32  -0.032222 -0.200101 -0.061496  0.684119 0.108825 0.032472
33  0.009310 -0.057389 -0.045571  0.633185 0.076163 0.016356
34  0.068956 -0.193197 -0.059302  0.893234 0.092674 0.090525
35  0.008683 -0.056712 -0.045241  0.698483 0.052794 0.061497
36  0.102133 -0.077572 -0.031829  0.231718 0.511365 -0.196954
37  0.034314 -0.028672 -0.001806  0.003497 0.006829 -0.019648
38  0.001143 0.000000 -0.181958  0.081372 -0.020186 0.003437
39  0.004961 -0.000269 -0.096018  -0.200698 -0.401217 0.048796
40  -0.011623 0.003704 -0.088948  -0.036797 -0.007264 0.001453
41  -0.007644 0.000000 -0.210641  0.082740 0.041808 0.004044
time 15
0  0 0 0  0 0 0
1  0.000000 0.000010 0.000000  -1.570796 -0.000000 0.000000
2  0.000000 0.000000 0.000000  0.000000 -0.000000 0.000000
3  -0.885163 0.000000 0.709784  0.000000 -0.000000 0.000000
4  0.006445 -0.000000 0.753335  0.000000 -0.000000 0.000000
5  0.837365 0.030162 -0.752473  0.065011 0.440688 0.000047
6  0.000000 0.000000 0.000000  -0.000000 -0.000000 0.000000
7  0.000000 0.000000 0.000000  0.093265 0.049069 0.000029
8  0.002937 -0.000000 0.194891  -0.072571 0.217523 0.000735
9  0.003500 0.000000 0.083408  -0.072681 -0.110372 -0.000326
10  -0.012239 -0.000000 0.122389  -0.042842 -0.096739 0.000057
11  0.000267 0.000000 0.055137  -0.000000 -0.164554 0.000000
12  0.003234 -0.000000 0.052281  -0.000000 -0.377422 -0.000000
13  -0.001319 -0.000000 0.060214  0.000000 -0.483089 0.000000
14  -0.039876 0.060989 0.002159  -0.678255 -0.274575 -0.014442
15  0.043265 0.077505 0.036874  0.000000 -0.000000 -0.000000
16  -0.000000 0.000000 -0.000000  -0.034040 -0.069884 0.453710
17  0.020260 0.201078 -0.017731  0.082920 -0.093233 -1.474152
18  0.010537 0.100376 -0.010148  0.022327 0.250102 -0.021593
19  0.018646 0.186860 -0.018292  0.306406 -0.031933 -0.000880
20  -0.032087 0.200172 -0.061335  -0.073223 0.091047 0.078226
21  0.009278 0.058322 -0.044375  -0.119717 0.041303 -0.009838
22  0.069086 0.193199 -0.059144  -0.073783 -0.061045 -0.190841
23  0.008560 0.057628 -0.044090  -0.119765 0.038606 -0.009259
24  0.102185 0.077529 -0.031768  0.005154 0.092112 -0.212633
25  0.038420 0.022931 -0.000959  -0.021742 0.087186 0.238124
26  -0.039647 -0.056266 0.002069  -0.314958 -0.699498 0.336803
27  0.042760 -0.082398 0.038132  0.000000 -0.000000 -0.000000
28  -0.000000 -0.000000 0.000000  -0.873296 0.703223 -1.493057
29  0.020122 -0.201078 -0.017893  -0.131852 -0.089029 1.973902
30  0.010469 -0.100374 -0.010236  0.042805 -0.362306 -0.043825
31  0.018520 -0.186856 -0.018450  -0.504674 -0.050802 0.006369
32  -0.032222 -0.200101 -0.061496  0.255259 0.092895 -0.024421
33  0.009310 -0.057389 -0.045571  0.328464 0.067578 -0.043855
34  0.068956 -0.193197 -0.059302  0.600844 0.090727 0.071890
35  0.008683 -0.056712 -0.045241  0.437234 0.043796 0.035533
36  0.102133 -0.077572 -0.031829  0.170197 0.429575 -0.103071
37  0.034314 -0.028672 -0.001806  0.001941 0.003788 -0.010932
38  0.001143 0.000000 -0.181958  0.134956 -0.100520 0.000429
39  0.004961 -0.000269 -0.096018  -0.366859 -0.626175 0.134626
40  -0.011623 0.003704 -0.088948  -0.061785 -0.035623 0.003300
41  -0.007644 0.000000 -0.210641  0.138229 0.114088 0.010909
time 16
0  0 0 0  0 0 0
1  0.000000 0.000010 0.000000  -1.570796 -0.000000 0.000000
2  0.000000 0.000000 0.000000  0.000000 -0.000000 0.000000
3  -0.885163 0.000000 0.709784  0.000000 -0.000000 0.000000
4  0.006445 -0.000000 0.753335  0.000000 -0.000000 0.000000
5  0.846012 0.028338 -0.740287  0.072480 0.335899 0.000971
6  0.000000 -0.000000 0.000000  -0.000000 -0.000000 0.000000
7  0.000000 -0.000000 0.000000  0.062654 0.009791 -0.001386
8  0.002937 0.000000 0.194891  -0.050701 0.159935 -0.000072
9  0.003500 0.000000 0.083408  -0.069431 -0.028479 -0.000143
10  -0.012239 -0.000000 0.122389  -0.041597 -0.013455 0.000702
11  0.000267 -0.000000 0.055137  -0.000502 -0.215061 -0.001328
12  0.003234 0.000000 0.052281  0.001049 -0.228027 0.001698
13  -0.001318 -0.000000 0.060214  0.015938 -0.304435 -0.001734
14  -0.039876 0.060989 0.002159  -0.669769 -0.276510 0.008496
15  0.043265 0.077506 0.036874  0.000000 -0.000000 0.000000
16  0.000000 0.000000 0.000000  0.103115 -0.011316 0.208617
17  0.020260 0.201078 -0.017731  0.063198 -0.088176 -1.264110
18  0.010537 0.100376 -0.010148  0.005701 0.058947 -0.005558
19  0.018646 0.186860 -0.018292  0.410517 -0.042509 -0.003391
20  -0.032088 0.200172 -0.061335  -0.075019 0.077832 0.053419
21  0.009278 0.058322 -0.044375  -0.119717 0.041303 -0.009838
22  0.069086 0.193199 -0.059144  -0.077049 -0.030894 -0.134631
23  0.008560 0.057628 -0.044090  -0.119765 0.038606 -0.009259
24  0.102185 0.077529 -0.031768  0.003230 0.103723 -0.175944
25  0.038420 0.022931 -0.000959  -0.023232 0.101031 0.274893
26  -0.039647 -0.056266 0.002069  -0.090449 -0.637081 0.212237
27  0.042760 -0.082398 0.038132  -0.000000 -0.000000 -0.000000
28  -0.000000 -0.000000 0.000000  -0.571386 0.750532 -0.964105
29  0.020122 -0.201078 -0.017893  -0.109555 -0.094366 1.739281
30  0.010469 -0.100374 -0.010236  0.036100 -0.315721 -0.037008
31  0.018520 -0.186856 -0.018450  -0.426481 -0.043240 0.003710
32  -0.032222 -0.200101 -0.061496  0.242517 0.101893 -0.037815
33  0.009310 -0.057389 -0.045571  0.270656 0.054035 -0.028625
34  0.068956 -0.193197 -0.059302  0.419626 0.061996 0.071912
35  0.008683 -0.056712 -0.045241  0.346600 0.039127 0.027182
36  0.102133 -0.077572 -0.031829  0.125432 0.339807 -0.017317
37  0.034314 -0.028672 -0.001806  0.001646 0.003212 -0.009294
38  0.001143 0.000000 -0.181958  0.095219 -0.066211 0.001917
39  0.004961 -0.000269 -0.096018  -0.307943 -0.459343 0.090212
40  -0.011623 0.003704 -0.088948  -0.054837 -0.043021 0.003122
41  -0.007644 0.000000 -0.210641  0.129042 0.082659 0.008620
time 17
0  0 0 0  0 0 0
1  0.000000 0.000010 0.000000  -1.570796 -0.000000 0.000000
2  0.000000 0.000000 0.000000  0.000000 -0.000000 0.000000
3  -0.885163 0.000000 0.709784  0.000000 -0.000000 0.000000
4  0.006445 -0.000000 0.753335  0.000000 -0.000000 0.000000
5  0.854660 0.026514 -0.728100  0.079652 0.230717 0.001063
6  0.000000 0.000000 0.000000  0.000000 0.000000 0.000000
7  0.000000 0.000000 0.000000  0.032062 -0.029545 -0.001598
8  0.002937 -0.000000 0.194891  -0.028921 0.102305 -0.002142
9  0.003500 0.000000 0.083408  -0.066156 0.053598 0.000308
10  -0.012239 -0.000000 0.122389  -0.040293 0.070021 0.001454
11  0.000267 0.000000 0.055137  -0.000941 -0.265612 -0.002648
12  0.003234 0.000000 0.052281  0.002337 -0.077507 0.003528
13  -0.001319 0.000000 0.060214  0.031116 -0.123825 -0.000519
14  -0.039876 0.060989 0.002159  -0.661324 -0.278633 0.031434
15  0.043265 0.077506 0.036874  -0.000000 -0.000000 0.000000
16  0.000000 0.000000 -0.000000  0.225360 0.081087 -0.033322
17  0.020260 0.201078 -0.017731  0.044720 -0.078974 -1.051188
18  0.010537 0.100376 -0.010148  -0.014389 -0.134305 0.014044
19  0.018646 0.186860 -0.018292  0.515087 -0.052804 -0.007005
20  -0.032087 0.200172 -0.061335  -0.076485 0.064573 0.028653
21  0.009278 0.058322 -0.044375  -0.119717 0.041303 -0.009838
22  0.069086 0.193199 -0.059144  -0.078615 -0.000568 -0.078469
23  0.008560 0.057628 -0.044090  -0.119765 0.038606 -0.009259
24  0.102185 0.077529 -0.031768  0.001732 0.115404 -0.139212
25  0.038420 0.022931 -0.000959  -0.024211 0.114930 0.311716
26  -0.039647 -0.056266 0.002069  0.115004 -0.554283 0.111745
27  0.042761 -0.082398 0.038132  -0.000000 -0.000000 0.000000
28  -0.000000 0.000000 -0.000000  -0.267298 0.670291 -0.417786
29  0.020122 -0.201078 -0.017893  -0.086187 -0.094341 1.500119
30  0.010469 -0.100374 -0.010235  0.029814 -0.269061 -0.030605
31  0.018520 -0.186856 -0.018450  -0.348170 -0.035478 0.001648
32  -0.032222 -0.200101 -0.061496  0.229641 0.110721 -0.051338
33  0.009310 -0.057389 -0.045571  0.212610 0.041378 -0.012625
34  0.068956 -0.193197 -0.059302  0.236583 0.033421 0.077204
35  0.008683 -0.056712 -0.045241  0.255775 0.033706 0.019267
36  0.102133 -0.077572 -0.031830  0.073709 0.253392 0.070825
37  0.034314 -0.028672 -0.001806  0.001350 0.002636 -0.007656
38  0.001143 0.000000 -0.181958  0.055563 -0.031838 0.002037
39  0.004961 -0.000269 -0.096018  -0.260094 -0.288983 0.058641
40  -0.011623 0.003704 -0.088948  -0.047886 -0.050417 0.002893
41  -0.007644 0.000000 -0.210641  0.119944 0.051198 0.006624
time 18
0  0 0 0  0 0 0
1  0.000000 0.000010 0.000000  -1.570796 -0.000000 0.000000
2  0.000000 0.000000 0.000000  0.000000 -0.000000 0.000000
3  -0.885163 0.000000 0.709784  0.000000 -0.000000 0.000000
4  0.006445 -0.000000 0.753335  0.000000 -0.000000 0.000000
5  0.863307 0.024689 -0.715914  0.086667 0.125732 0.000396
6  0.000000 -0.000000 0.000000  0.000000 0.000000 -0.000000
7  0.000000 -0.000000 0.000000  0.001432 -0.068852 -0.000605
8  0.002937 0.000000 0.194891  -0.007128 0.044770 -0.005455
9  0.003500 0.000000 0.083408  -0.062822 0.135580 0.001032
10  -0.012239 -0.000000 0.122389  -0.038914 0.153400 0.002322
11  0.000267 0.000000 0.055138  -0.001316 -0.316142 -0.003964
12  0.003234 -0.000000 0.052281  0.003894 0.072445 0.005543
13  -0.001319 -0.000000 0.060215  0.046336 0.055765 0.003390
14  -0.039876 0.060989 0.002159  -0.652927 -0.280941 0.054365
15  0.043265 0.077505 0.036874  0.000000 -0.000000 0.000000
16  -0.000000 0.000000 0.000000  0.322208 0.197831 -0.262644
17  0.020260 0.201078 -0.017731  0.028731 -0.066200 -0.840223
18  0.010537 0.100376 -0.010148  -0.039208 -0.325858 0.038453
19  0.018645 0.186860 -0.018293  0.619564 -0.062648 -0.011669
20  -0.032088 0.200172 -0.061335  -0.077620 0.051284 0.003928
21  0.009278 0.058322 -0.044375  -0.119717 0.041303 -0.009838
22  0.069086 0.193200 -0.059144  -0.078478 0.029779 -0.022369
23  0.008560 0.057628 -0.044090  -0.119765 0.038606 -0.009259
24  0.102185 0.077529 -0.031768  0.000667 0.127128 -0.102454
25  0.038420 0.022931 -0.000959  -0.024675 0.128850 0.348578
26  -0.039647 -0.056266 0.002069  0.299278 -0.457549 0.037213
27  0.042761 -0.082398 0.038132  0.000000 -0.000000 -0.000000
28  -0.000000 0.000000 0.000000  -0.075587 0.495517 0.025281
29  0.020122 -0.201078 -0.017893  -0.063700 -0.088884 1.263312
30  0.010469 -0.100374 -0.010235  0.023910 -0.222381 -0.024580
31  0.018520 -0.186856 -0.018449  -0.269975 -0.027587 0.000202
32  -0.032222 -0.200101 -0.061496  0.216635 0.119374 -0.064987
33  0.009310 -0.057389 -0.045571  0.154431 0.029678 0.004064
34  0.068956 -0.193197 -0.059302  0.054537 0.006435 0.087532
35  0.008683 -0.056712 -0.045241  0.165136 0.027599 0.011888
36  0.102133 -0.077572 -0.031830  0.015615 0.172014 0.161471
37  0.034314 -0.028672 -0.001806  0.001053 0.002061 -0.006018
38  0.001143 0.000000 -0.181958  0.015949 0.002497 0.000795
39  0.004961 -0.000269 -0.096018  -0.219511 -0.118382 0.036458
40  -0.011623 0.003704 -0.088948  -0.040930 -0.057812 0.002613
41  -0.007644 0.000000 -0.210641  0.110920 0.019726 0.004917
time 19
0  0 0 0  0 0 0
1  0.000000 0.000010 0.000000  -1.570796 -0.000000 0.000000
2  0.000000 0.000000 0.000000  0.000000 -0.000000 0.000000
3  -0.885163 0.000000 0.709784  0.000000 -0.000000 0.000000
4  0.006445 -0.000000 0.753335  0.000000 -0.000000 0.000000
5  0.873357 0.020449 -0.712727  0.062347 0.060740 -0.001080
6  -0.000000 -0.000000 -0.000000  -0.000000 -0.000000 0.000000
7  -0.000000 -0.000000 -0.000000  -0.017755 -0.098456 -0.000209
8  0.002937 0.000000 0.194891  -0.013310 0.018417 -0.006406
9  0.003500 0.000000 0.083408  -0.019012 0.117138 0.000632
10  -0.012239 0.000000 0.122389  -0.015743 0.133986 0.000511
11  0.000267 0.000000 0.055137  -0.001356 -0.308400 -0.004126
12  0.003234 0.000000 0.052281  0.004203 0.124413 0.005880
13  -0.001319 0.000000 0.060214  0.056807 0.134139 0.004837
14  -0.039876 0.060989 0.002159  -0.586692 -0.168157 0.044751
15  0.043265 0.077505 0.036874  -0.000000 -0.000000 0.000000
16  -0.000000 -0.000000 0.000000  0.225997 0.258954 -0.266312
17  0.020260 0.201078 -0.017731  0.033637 -0.070728 -0.908906
18  0.010537 0.100376 -0.010148  -0.041728 -0.342929 0.040948
19  0.018646 0.186860 -0.018292  0.606139 -0.061411 -0.011012
20  -0.032088 0.200172 -0.061335  -0.057044 0.045025 -0.003098
21  0.009278 0.058322 -0.044375  -0.094439 0.039597 -0.007678
22  0.069086 0.193199 -0.059144  -0.057138 0.038386 -0.002650
23  0.008560 0.057628 -0.044090  -0.094479 0.037046 -0.007223
24  0.102185 0.077529 -0.031768  0.021329 0.240855 -0.105948
25  0.038420 0.022931 -0.000959  -0.024715 0.133491 0.360872
26  -0.039647 -0.056266 0.002069  0.329629 -0.279774 -0.000905
27  0.042761 -0.082398 0.038132  0.000000 -0.000000 -0.000000
28  -0.000000 0.000000 0.000000  0.173525 0.319911 0.110937
29  0.020122 -0.201078 -0.017893  -0.042747 -0.078064 1.022010
30  0.010469 -0.100374 -0.010235  0.019094 -0.182149 -0.019661
31  0.018520 -0.186856 -0.018449  -0.128103 -0.013096 -0.000834
32  -0.032222 -0.200101 -0.061496  0.192115 0.115840 -0.064990
33  0.009310 -0.057389 -0.045571  0.129970 0.024867 0.011189
34  0.068956 -0.193197 -0.059302  -0.021182 -0.000895 0.084895
35  0.008683 -0.056712 -0.045241  0.127170 0.024853 0.008971
36  0.102133 -0.077572 -0.031829  -0.008848 0.143294 0.185854
37  0.034314 -0.028672 -0.001806  0.003984 0.007848 -0.022547
38  0.001143 0.000000 -0.181958  -0.011063 0.016664 -0.000731
39  0.004961 -0.000269 -0.096018  -0.152323 -0.028502 0.020813
40  -0.011623 0.003704 -0.088948  -0.009637 -0.019792 0.000413
41  -0.007644 0.000000 -0.210641  0.078335 -0.012048 0.002722
time 20
0  0 0 0  0 0 0
1  0.000000 0.000010 0.000000  -1.570796 -0.000000 0.000000
2  0.000000 0.000000 0.000000  0.000000 -0.000000 0.000000
3  -0.885163 0.000000 0.709784  0.000000 -0.000000 0.000000
4  0.006445 -0.000000 0.753335  0.000000 -0.000000 0.000000
5  0.884108 0.015000 -0.714041  0.022468 0.015467 -0.001211
6  0.000000 -0.000000 0.000000  0.000000 0.000000 0.000000
7  0.000000 -0.000000 0.000000  -0.031220 -0.123245 -0.000235
8  0.002937 0.000000 0.194891  -0.033515 0.007599 -0.005581
9  0.003500 0.000000 0.083408  0.044889 0.048626 -0.004087
10  -0.012239 -0.000000 0.122389  0.018334 0.063317 -0.004677
11  0.000267 0.000000 0.055138  -0.001239 -0.271536 -0.003713
12  0.003234 -0.000000 0.052281  0.003785 0.128011 0.005299
13  -0.001319 0.000000 0.060214  0.064718 0.163014 0.004349
14  -0.039876 0.060989 0.002159  -0.495512 0.004931 0.032629
15  0.043265 0.077505 0.036874  0.000000 -0.000000 0.000000
16  0.000000 -0.000000 0.000000  0.042892 0.302942 -0.166465
17  0.020259 0.201078 -0.017731  0.050272 -0.082267 -1.117647
18  0.010537 0.100376 -0.010148  -0.031871 -0.274157 0.031244
19  0.018645 0.186860 -0.018292  0.533907 -0.054611 -0.007769
20  -0.032088 0.200172 -0.061335  -0.025724 0.042242 -0.001361
21  0.009278 0.058322 -0.044375  -0.056521 0.036935 -0.004520
22  0.069086 0.193199 -0.059144  -0.025762 0.036117 -0.001159
23  0.008560 0.057628 -0.044090  -0.056547 0.034609 -0.004243
24  0.102185 0.077529 -0.031768  0.050886 0.407058 -0.126151
25  0.038420 0.022931 -0.000959  -0.024715 0.133491 0.360872
26  -0.039647 -0.056266 0.002069  0.285433 -0.063330 -0.035770
27  0.042761 -0.082398 0.038131  0.000000 -0.000000 0.000000
28  0.000000 -0.000000 0.000000  0.498359 0.171575 0.014014
29  0.020122 -0.201078 -0.017893  -0.024500 -0.062001 0.773409
30  0.010469 -0.100374 -0.010235  0.014865 -0.145108 -0.015336
31  0.018520 -0.186856 -0.018450  0.046738 0.004727 0.000720
32  -0.032222 -0.200100 -0.061496  0.161846 0.106447 -0.057892
33  0.009310 -0.057389 -0.045571  0.122379 0.023179 0.013335
34  0.068956 -0.193197 -0.059302  -0.044814 0.000526 0.074230
35  0.008683 -0.056712 -0.045241  0.115382 0.023987 0.008093
36  0.102133 -0.077572 -0.031829  -0.014516 0.138772 0.176331
37  0.034314 -0.028672 -0.001806  0.008338 0.016912 -0.048131
38  0.001143 0.000000 -0.181958  -0.031786 0.020766 -0.002019
39  0.004961 -0.000269 -0.096018  -0.070587 0.022720 0.009353
40  -0.011623 0.003704 -0.088948  0.033743 0.041073 -0.000529
41  -0.007644 0.000000 -0.210641  0.033954 -0.044063 0.001370
time 21
0  0 0 0  0 0 0
1  0.000000 0.000010 0.000000  -1.570796 -0.000000 0.000000
2  0.000000 0.000000 0.000000  0.000000 -0.000000 0.000000
3  -0.885163 0.000000 0.709784  0.000000 -0.000000 0.000000
4  0.006445 -0.000000 0.753335  0.000000 -0.000000 0.000000
5  0.892889 0.008627 -0.715103  -0.012612 -0.021526 0.000067
6  -0.000000 0.000000 -0.000000  -0.000000 -0.000000 0.000000
7  -0.000000 0.000000 -0.000000  -0.043990 -0.147418 -0.000037
8  0.002937 -0.000000 0.194891  -0.048664 -0.001454 -0.004540
9  0.003500 0.000000 0.083408  0.095181 -0.008448 -0.010966
10  -0.012239 0.000000 0.122389  0.045494 0.003767 -0.010472
11  0.000267 0.000000 0.055137  -0.001092 -0.231020 -0.003229
12  0.003234 -0.000000 0.052281  0.003286 0.125475 0.004610
13  -0.001319 0.000000 0.060215  0.072330 0.185575 0.003961
14  -0.039876 0.060989 0.002159  -0.417297 0.153828 0.035109
15  0.043265 0.077505 0.036874  0.000000 -0.000000 0.000000
16  0.000000 -0.000000 0.000000  -0.128200 0.362934 -0.076621
17  0.020260 0.201078 -0.017731  0.063093 -0.088137 -1.262957
18  0.010537 0.100376 -0.010148  -0.022655 -0.203620 0.022187
19  0.018646 0.186860 -0.018292  0.450300 -0.046466 -0.004638
20  -0.032088 0.200172 -0.061335  0.004081 0.039539 0.000211
21  0.009278 0.058322 -0.044375  -0.011765 0.033635 -0.000921
22  0.069086 0.193199 -0.059144  0.004100 0.033916 0.000194
23  0.008560 0.057628 -0.044090  -0.011770 0.031594 -0.000850
24  0.102185 0.077529 -0.031768  0.072622 0.531550 -0.137669
25  0.038420 0.022931 -0.000959  -0.024715 0.133491 0.360872
26  -0.039647 -0.056266 0.002069  0.248663 0.118222 -0.071013
27  0.042761 -0.082398 0.038132  0.000000 -0.000000 0.000000
28  0.000000 -0.000000 0.000000  0.767820 0.073910 -0.121383
29  0.020122 -0.201078 -0.017893  -0.012182 -0.044569 0.555524
30  0.010469 -0.100374 -0.010235  0.011122 -0.110868 -0.011499
31  0.018520 -0.186856 -0.018449  0.187086 0.018665 0.004198
32  -0.032222 -0.200101 -0.061496  0.130878 0.096351 -0.049773
33  0.009310 -0.057389 -0.045571  0.116909 0.021974 0.014887
34  0.068956 -0.193197 -0.059302  -0.061835 0.003095 0.062617
35  0.008683 -0.056712 -0.045241  0.106897 0.023358 0.007467
36  0.102133 -0.077572 -0.031829  -0.018188 0.137647 0.162502
37  0.034314 -0.028672 -0.001806  0.012633 0.026495 -0.074821
38  0.001143 0.000000 -0.181958  -0.043817 0.026968 -0.002895
39  0.004961 -0.000269 -0.096018  -0.000874 0.062013 0.002660
40  -0.011623 0.003704 -0.088948  0.069876 0.090564 0.000665
41  -0.007644 0.000000 -0.210641  -0.006790 -0.070753 0.001323
time 22
0  0 0 0  0 0 0
1  0.000000 0.000010 0.000000  -1.570796 -0.000000 0.000000
2  0.000000 0.000000 0.000000  0.000000 -0.000000 0.000000
3  -0.885163 0.000000 0.709784  0.000000 -0.000000 0.000000
4  0.006445 -0.000000 0.753335  0.000000 -0.000000 0.000000
5  0.891819 -0.002368 -0.714908  -0.023819 -0.017376 0.000089
6  0.000000 0.000000 0.000000  -0.000000 0.000000 0.000000
7  0.000000 0.000000 0.000000  -0.053114 -0.168544 -0.000149
8  0.002937 -0.000000 0.194891  -0.038506 -0.001775 -0.003417
9  0.003500 0.000000 0.083408  0.076857 -0.010758 -0.008726
10  -0.012239 0.000000 0.122389  0.036949 -0.001518 -0.008363
11  0.000267 0.000000 0.055137  -0.000840 -0.172150 -0.002392
12  0.003234 -0.000000 0.052281  0.002419 0.092262 0.003412
13  -0.001319 -0.000000 0.060214  0.078330 0.176573 0.002988
14  -0.039876 0.060989 0.002159  -0.396508 0.185059 0.038975
15  0.043265 0.077505 0.036874  0.000000 -0.000000 0.000000
16  0.000000 0.000000 0.000000  -0.257432 0.435287 0.001494
17  0.020260 0.201078 -0.017731  0.048441 -0.081236 -1.096018
18  0.010537 0.100376 -0.010148  -0.013204 -0.124196 0.012910
19  0.018646 0.186860 -0.018292  0.308687 -0.032153 -0.000922
20  -0.032087 0.200172 -0.061335  0.026379 0.037472 0.001338
21  0.009278 0.058322 -0.044375  0.067365 0.027385 0.005088
22  0.069086 0.193199 -0.059144  0.026443 0.032247 0.001162
23  0.008560 0.057628 -0.044090  0.067416 0.025916 0.004800
24  0.102185 0.077529 -0.031768  0.061451 0.449181 -0.123961
25  0.038420 0.022931 -0.000959  -0.024715 0.133491 0.360872
26  -0.039647 -0.056266 0.002069  0.282248 0.142511 -0.065258
27  0.042761 -0.082398 0.038132  0.000000 -0.000000 0.000000
28  -0.000000 -0.000000 -0.000000  0.770698 0.046381 -0.277992
29  0.020122 -0.201078 -0.017893  -0.008671 -0.037593 0.476008
30  0.010469 -0.100374 -0.010235  0.009005 -0.090666 -0.009304
31  0.018520 -0.186856 -0.018449  0.159117 0.015942 0.003352
32  -0.032222 -0.200100 -0.061496  0.096464 0.081972 -0.037524
33  0.009310 -0.057389 -0.045571  0.122055 0.023114 0.013419
34  0.068956 -0.193197 -0.059302  -0.045838 0.012714 0.046492
35  0.008683 -0.056712 -0.045241  0.114916 0.023954 0.008059
36  0.102133 -0.077572 -0.031829  -0.012423 0.153878 0.126997
37  0.034314 -0.028672 -0.001806  0.017486 0.038277 -0.107196
38  0.001143 0.000000 -0.181958  -0.012325 0.043780 -0.001011
39  0.004961 -0.000269 -0.096018  0.011261 0.038495 0.000339
40  -0.011623 0.003704 -0.088948  0.069462 0.083505 0.000425
41  -0.007644 0.000000 -0.210641  -0.029292 -0.070751 0.001289
time 23
0  0 0 0  0 0 0
1  0.000000 0.000010 0.000000  -1.570796 -0.000000 0.000000
2  0.000000 0.000000 0.000000  0.000000 -0.000000 0.000000
3  -0.885163 0.000000 0.709784  0.000000 -0.000000 0.000000
4  0.006445 -0.000000 0.753335  0.000000 -0.000000 0.000000
5  0.890749 -0.013362 -0.714714  -0.035026 -0.013226 0.000065
6  0.000000 -0.000000 0.000000  -0.000000 -0.000000 -0.000000
7  0.000000 -0.000000 0.000000  -0.062270 -0.189671 -0.000066
8  0.002937 0.000000 0.194891  -0.028348 -0.002108 -0.002298
9  0.003500 0.000000 0.083408  0.058527 -0.013026 -0.006443
10  -0.012239 0.000000 0.122389  0.028392 -0.006785 -0.006209
11  0.000267 0.000000 0.055137  -0.000540 -0.113273 -0.001547
12  0.003234 -0.000000 0.052281  0.001593 0.059047 0.002246
13  -0.001319 -0.000000 0.060214  0.084330 0.167577 0.001961
14  -0.039876 0.060989 0.002159  -0.375462 0.216205 0.043529
15  0.043265 0.077505 0.036874  0.000000 -0.000000 0.000000
16  -0.000000 0.000000 -0.000000  -0.385197 0.516386 0.071475
17  0.020259 0.201078 -0.017731  0.035138 -0.071994 -0.929109
18  0.010537 0.100376 -0.010148  -0.004552 -0.044671 0.004443
19  0.018646 0.186860 -0.018293  0.167061 -0.017447 0.000736
20  -0.032088 0.200172 -0.061335  0.048673 0.035380 0.002418
21  0.009278 0.058322 -0.044375  0.146465 0.020679 0.010584
22  0.069086 0.193199 -0.059144  0.048784 0.030556 0.002092
23  0.008560 0.057628 -0.044090  0.146579 0.019807 0.009983
24  0.102185 0.077529 -0.031768  0.049460 0.366933 -0.109744
25  0.038420 0.022931 -0.000959  -0.024715 0.133491 0.360872
26  -0.039647 -0.056266 0.002069  0.316103 0.166597 -0.058656
27  0.042761 -0.082398 0.038132  -0.000000 -0.000000 0.000000
28  -0.000000 0.000000 0.000000  0.777843 0.019610 -0.434704
29  0.020122 -0.201078 -0.017893  -0.005727 -0.030357 0.396515
30  0.010469 -0.100374 -0.010235  0.006936 -0.070458 -0.007154
31  0.018520 -0.186856 -0.018450  0.131151 0.013195 0.002582
32  -0.032222 -0.200101 -0.061496  0.061910 0.068022 -0.024797
33  0.009310 -0.057389 -0.045571  0.127199 0.024262 0.011956
34  0.068956 -0.193197 -0.059302  -0.029994 0.022590 0.030520
35  0.008683 -0.056712 -0.045241  0.122936 0.024545 0.008656
36  0.102133 -0.077572 -0.031829  -0.007230 0.170301 0.091489
37  0.034314 -0.028672 -0.001806  0.021957 0.050210 -0.139531
38  0.001143 0.000000 -0.181958  0.019227 0.060525 0.001405
39  0.004961 -0.000269 -0.096018  0.023444 0.015007 -0.002266
40  -0.011623 0.003704 -0.088948  0.069050 0.076446 0.000189
41  -0.007644 0.000000 -0.210641  -0.051794 -0.070749 0.001255
end
