version 1
nodes
0 "blender_implicit" -1
1 "Skel0" -1
2 "Skel1" 1
3 "Skel2" 2
4 "Skel3" 3
5 "Skel4" 4
6 "Skel5" 5
7 "Skel6" 6
8 "Skel7" 7
9 "Skel8" 8
10 "Skel9" 9
11 "Skel10" 10
12 "Skel11" 11
13 "Skel12" 12
14 "Skel13" 10
15 "Skel14" 14
16 "Skel15" 15
17 "Skel16" 16
18 "Skel17" 17
19 "Skel18" 18
20 "Skel19" 19
21 "Skel20" 20
22 "Skel21" 19
23 "Skel22" 22
24 "Skel23" 19
25 "Skel24" 24
26 "Skel25" 10
27 "Skel26" 26
28 "Skel27" 27
29 "Skel28" 28
30 "Skel29" 29
31 "Skel30" 30
32 "Skel31" 31
33 "Skel32" 32
34 "Skel33" 31
35 "Skel34" 34
36 "Skel35" 31
37 "Skel36" 36
38 "Skel37" 5
39 "Skel38" 38
40 "Skel39" 39
41 "Skel40" 40
end
skeleton
time 0
0  0 0 0  0 0 0
1  0.000000 0.000010 0.000000  -1.570796 -0.000000 0.000000
2  0.000000 0.000000 0.000000  0.000000 -0.000000 0.000000
3  0.000000 0.000000 0.000000  0.000000 -0.000000 0.000000
4  0.006445 -0.000000 0.753335  0.000000 -0.000000 0.000000
5  0.079176 -0.127581 -0.033203  0.148472 0.058832 -0.509417
6  -0.000000 0.000000 -0.000000  -0.000775 -0.105034 -0.007355
7  0.000000 -0.000000 0.000000  -0.139220 0.171652 -0.278379
8  0.002937 0.000000 0.194891  0.201501 -0.241380 -0.192234
9  0.003500 0.000000 0.083408  -0.146493 0.051862 -0.206610
10  -0.012239 0.000000 0.122389  0.187382 -0.005140 -0.166195
11  0.000267 -0.000000 0.055137  0.187179 -0.463230 -0.316512
12  0.003234 0.000000 0.052281  0.017606 0.083363 -0.283198
13  -0.001319 -0.000000 0.060214  -0.159442 -0.012964 -0.258208
14  -0.039876 0.060989 0.002159  -0.536468 0.061936 0.406691
15  0.043265 0.077505 0.036874  0.000000 0.000000 0.000000
16  -0.000000 0.000000 -0.000000  -0.516246 -0.216179 1.174068
17  0.020260 0.201078 -0.017731  0.109698 -0.093463 -1.750786
18  0.010537 0.100376 -0.010148  0.008416 0.087821 -0.008164
19  0.018646 0.186860 -0.018292  -0.015449 0.001605 -0.000215
20  -0.032088 0.200172 -0.061335  -0.039802 0.212119 0.316176
21  0.009278 0.058322 -0.044375  -0.119717 0.041303 -0.009838
22  0.069086 0.193199 -0.059144  0.426946 -0.000382 0.011772
23  0.008560 0.057628 -0.044090  -0.492431 0.055024 -0.042919
24  0.102185 0.077529 -0.031768  -0.560579 0.481113 -0.357877
25  0.038420 0.022931 -0.000959  -0.000000 -0.000000 0.000000
26  -0.039647 -0.056266 0.002069  0.077249 -0.087467 -0.296191
27  0.042761 -0.082398 0.038132  -0.000000 -0.000000 -0.000000
28  0.000000 -0.000000 0.000000  0.494520 0.325810 0.035282
29  0.020122 -0.201078 -0.017893  -0.105301 -0.094777 1.695642
30  0.010469 -0.100374 -0.010235  -0.072619 1.335758 0.096873
31  0.018520 -0.186856 -0.018450  -0.125448 -0.012795 -0.000833
32  -0.032222 -0.200101 -0.061496  0.233010 0.175310 -0.247387
33  0.009310 -0.057389 -0.045571  -0.143925 0.002279 -0.008715
34  0.068956 -0.193197 -0.059302  -0.280222 -0.038472 0.108736
35  0.008683 -0.056712 -0.045241  0.086897 0.021841 0.006005
36  0.102133 -0.077572 -0.031829  0.619839 0.403869 0.714027
37  0.034314 -0.028672 -0.001806  -0.000000 -0.000000 0.000000
38  0.001143 0.000000 -0.181958  -0.172170 0.152614 -0.022412
39  0.004961 -0.000269 -0.096018  0.108690 -0.001752 0.197545
40  -0.011623 0.003704 -0.088948  0.071967 -0.003235 0.206811
41  -0.007644 0.000000 -0.210641  -0.154612 -0.062094 0.210292
time 1
0  0 0 0  0 0 0
1  0.000000 0.000010 0.000000  -1.570796 -0.000000 0.000000
2  0.000000 0.000000 0.000000  0.000000 -0.000000 0.000000
3  0.000000 0.000000 0.000000  0.000000 -0.000000 0.000000
4  0.006445 -0.000000 0.753335  0.000000 -0.000000 0.000000
5  0.079048 -0.141172 -0.035173  0.128276 0.058553 -0.540256
6  -0.000000 0.000000 0.000000  -0.000775 -0.105034 -0.007355
7  0.000000 -0.000000 -0.000000  -0.126558 0.158500 -0.275777
8  0.002937 -0.000000 0.194891  0.192437 -0.237464 -0.202606
9  0.003500 0.000000 0.083408  -0.148400 0.045278 -0.215790
10  -0.012239 -0.000000 0.122389  0.158656 -0.001622 -0.178806
11  0.000267 0.000000 0.055137  0.192004 -0.473230 -0.328146
12  0.003234 0.000000 0.052281  0.018708 0.082403 -0.294360
13  -0.001319 -0.000000 0.060214  -0.128712 -0.008105 -0.270912
14  -0.039876 0.060989 0.002159  -0.524595 0.085697 0.404622
15  0.043265 0.077505 0.036874  -0.000000 -0.000000 -0.000000
16  -0.000000 0.000000 0.000000  -0.573660 -0.301900 1.163507
17  0.020260 0.201078 -0.017731  0.100648 -0.094211 -1.657234
18  0.010537 0.100376 -0.010148  0.013149 0.140549 -0.012742
19  0.018645 0.186860 -0.018292  0.045321 -0.004714 0.000487
20  -0.032088 0.200172 -0.061335  -0.025416 0.212251 0.319431
21  0.009278 0.058322 -0.044375  -0.090343 0.039307 -0.007326
22  0.069086 0.193199 -0.059144  0.449412 -0.002309 0.011971
23  0.008560 0.057628 -0.044090  -0.468043 0.057415 -0.042868
24  0.102185 0.077529 -0.031768  -0.567211 0.473111 -0.358489
25  0.038420 0.022931 -0.000959  -0.002412 -0.016259 -0.012726
26  -0.039647 -0.056266 0.002069  0.069370 -0.070819 -0.302480
27  0.042760 -0.082398 0.038131  -0.000000 -0.000000 0.000000
28  0.000000 -0.000000 0.000000  0.458556 0.314483 0.051689
29  0.020122 -0.201078 -0.017893  -0.104447 -0.094837 1.686898
30  0.010469 -0.100374 -0.010235  -0.072569 1.339907 0.097326
31  0.018520 -0.186856 -0.018450  -0.188590 -0.019274 -0.000644
32  -0.032222 -0.200100 -0.061496  0.195214 0.167655 -0.276489
33  0.009310 -0.057389 -0.045571  -0.109289 0.005495 -0.006789
34  0.068956 -0.193197 -0.059302  -0.345792 -0.054136 0.132098
35  0.008683 -0.056712 -0.045241  0.089436 0.022036 0.006189
36  0.102133 -0.077572 -0.031830  0.586506 0.388151 0.735670
37  0.034315 -0.028672 -0.001806  -0.000292 -0.000547 0.001597
38  0.001143 0.000000 -0.181958  -0.128562 0.140434 -0.016008
39  0.004961 -0.000269 -0.096018  0.100881 0.039090 0.211901
40  -0.011623 0.003704 -0.088948  0.092310 -0.007020 0.214851
41  -0.007644 0.000000 -0.210641  -0.166257 -0.057489 0.218770
time 2
0  0 0 0  0 0 0
1  0.000000 0.000010 0.000000  -1.570796 -0.000000 0.000000
2  0.000000 0.000000 0.000000  0.000000 -0.000000 0.000000
3  0.000000 0.000000 0.000000  0.000000 -0.000000 0.000000
4  0.006445 -0.000000 0.753335  0.000000 -0.000000 0.000000
5  0.078920 -0.154764 -0.037143  0.108068 0.057650 -0.571128
6  -0.000000 0.000000 0.000000  -0.000775 -0.105034 -0.007355
7  -0.000000 -0.000000 0.000000  -0.113950 0.145311 -0.273349
8  0.002937 -0.000000 0.194891  0.183337 -0.233639 -0.213008
9  0.003500 0.000000 0.083408  -0.150246 0.038677 -0.224957
10  -0.012239 0.000000 0.122389  0.129854 0.001535 -0.191527
11  0.000267 0.000000 0.055138  0.196986 -0.483180 -0.339897
12  0.003234 -0.000000 0.052281  0.019820 0.081455 -0.305524
13  -0.001319 -0.000000 0.060214  -0.098007 -0.002852 -0.283475
14  -0.039876 0.060989 0.002159  -0.512734 0.109500 0.402831
15  0.043265 0.077505 0.036874  0.000000 0.000000 -0.000000
16  -0.000000 -0.000000 -0.000000  -0.632685 -0.389221 1.157901
17  0.020260 0.201078 -0.017731  0.091472 -0.094110 -1.562702
18  0.010537 0.100376 -0.010148  0.017693 0.193473 -0.017122
19  0.018645 0.186860 -0.018292  0.106357 -0.011091 0.000806
20  -0.032088 0.200172 -0.061335  -0.011027 0.212337 0.322688
21  0.009278 0.058322 -0.044375  -0.060946 0.037235 -0.004872
22  0.069086 0.193199 -0.059144  0.471891 -0.004240 0.012127
23  0.008560 0.057628 -0.044090  -0.443633 0.059806 -0.042758
24  0.102185 0.077529 -0.031768  -0.573812 0.465106 -0.359039
25  0.038420 0.022931 -0.000959  -0.004619 -0.032556 -0.025425
26  -0.039647 -0.056266 0.002069  0.061392 -0.054215 -0.308896
27  0.042761 -0.082398 0.038132  0.000000 -0.000000 0.000000
28  -0.000000 -0.000000 0.000000  0.422441 0.303699 0.068497
29  0.020122 -0.201078 -0.017893  -0.103592 -0.094889 1.678153
30  0.010469 -0.100374 -0.010235  -0.072510 1.344056 0.097788
31  0.018520 -0.186856 -0.018449  -0.252043 -0.025758 -0.000043
32  -0.032222 -0.200101 -0.061496  0.157625 0.158904 -0.305304
33  0.009310 -0.057389 -0.045571  -0.074597 0.008647 -0.004749
34  0.068956 -0.193197 -0.059302  -0.412159 -0.068311 0.156606
35  0.008683 -0.056712 -0.045241  0.091977 0.022230 0.006374
36  0.102133 -0.077572 -0.031829  0.552926 0.373068 0.757792
37  0.034314 -0.028672 -0.001806  -0.000585 -0.001093 0.003195
38  0.001143 0.000000 -0.181958  -0.085003 0.127961 -0.010143
39  0.004961 -0.000269 -0.096018  0.093626 0.080131 0.226004
40  -0.011623 0.003704 -0.088948  0.112635 -0.010970 0.222816
41  -0.007644 0.000000 -0.210641  -0.177862 -0.052784 0.227194
time 3
0  0 0 0  0 0 0
1  0.000000 0.000010 0.000000  -1.570796 -0.000000 0.000000
2  0.000000 0.000000 0.000000  0.000000 -0.000000 0.000000
3  0.000000 0.000000 0.000000  0.000000 -0.000000 0.000000
4  0.006445 -0.000000 0.753335  0.000000 -0.000000 0.000000
5  0.078793 -0.168355 -0.039114  0.087882 0.056124 -0.602000
6  0.000000 0.000000 0.000000  -0.000775 -0.105034 -0.007355
7  0.000000 0.000000 0.000000  -0.101396 0.132090 -0.271092
8  0.002937 0.000000 0.194891  0.174204 -0.229905 -0.223438
9  0.003500 0.000000 0.083408  -0.152032 0.032058 -0.234110
10  -0.012239 -0.000000 0.122389  0.100995 0.004326 -0.204342
11  0.000267 -0.000000 0.055138  0.202128 -0.493080 -0.351768
12  0.003234 -0.000000 0.052281  0.020943 0.080520 -0.316689
13  -0.001318 0.000000 0.060214  -0.067347 0.002788 -0.295881
14  -0.039876 0.060989 0.002159  -0.500876 0.133335 0.401320
15  0.043265 0.077505 0.036874  -0.000000 -0.000000 0.000000
16  -0.000000 -0.000000 0.000000  -0.694075 -0.477374 1.157886
17  0.020260 0.201078 -0.017731  0.082293 -0.093138 -1.467615
18  0.010537 0.100376 -0.010148  0.022061 0.246516 -0.021313
19  0.018646 0.186860 -0.018292  0.167550 -0.017492 0.000734
20  -0.032088 0.200172 -0.061335  0.003364 0.212377 0.325947
21  0.009278 0.058322 -0.044375  -0.031540 0.035090 -0.002478
22  0.069086 0.193199 -0.059144  0.494377 -0.006176 0.012239
23  0.008560 0.057628 -0.044090  -0.419211 0.062194 -0.042589
24  0.102185 0.077529 -0.031768  -0.580382 0.457097 -0.359528
25  0.038420 0.022931 -0.000959  -0.006620 -0.048884 -0.038099
26  -0.039647 -0.056266 0.002069  0.053310 -0.037658 -0.315441
27  0.042761 -0.082398 0.038132  0.000000 -0.000000 -0.000000
28  0.000000 -0.000000 0.000000  0.386208 0.293487 0.085669
29  0.020122 -0.201078 -0.017893  -0.102736 -0.094934 1.669408
30  0.010469 -0.100374 -0.010235  -0.072441 1.348205 0.098260
31  0.018520 -0.186856 -0.018450  -0.315685 -0.032210 0.000972
32  -0.032222 -0.200101 -0.061496  0.120312 0.149082 -0.333762
33  0.009310 -0.057389 -0.045571  -0.039869 0.011729 -0.002600
34  0.068956 -0.193197 -0.059302  -0.479144 -0.080867 0.182114
35  0.008683 -0.056712 -0.045241  0.094517 0.022424 0.006559
36  0.102133 -0.077572 -0.031830  0.519132 0.358661 0.780355
37  0.034315 -0.028672 -0.001806  -0.000878 -0.001639 0.004792
38  0.001143 0.000000 -0.181958  -0.041527 0.115229 -0.004833
39  0.004961 -0.000269 -0.096018  0.086916 0.121324 0.239884
40  -0.011623 0.003704 -0.088948  0.132935 -0.015083 0.230702
41  -0.007644 0.000000 -0.210641  -0.189425 -0.047982 0.235561
time 4
0  0 0 0  0 0 0
1  0.000000 0.000010 0.000000  -1.570796 -0.000000 0.000000
2  0.000000 0.000000 0.000000  0.000000 -0.000000 0.000000
3  0.000000 0.000000 0.000000  0.000000 -0.000000 0.000000
4  0.006445 -0.000000 0.753335  0.000000 -0.000000 0.000000
5  0.078665 -0.181946 -0.041084  0.067750 0.053977 -0.632838
6  0.000000 -0.000000 0.000000  -0.000775 -0.105034 -0.007355
7  0.000000 -0.000000 0.000000  -0.088892 0.118841 -0.269006
8  0.002937 0.000000 0.194891  0.165038 -0.226264 -0.233894
9  0.003500 0.000000 0.083408  -0.153756 0.025423 -0.243250
10  -0.012239 0.000000 0.122389  0.072097 0.006746 -0.217235
11  0.000267 0.000000 0.055138  0.207431 -0.502924 -0.363762
12  0.003234 0.000000 0.052281  0.022076 0.079596 -0.327855
13  -0.001319 -0.000000 0.060214  -0.036753 0.008807 -0.308111
14  -0.039876 0.060989 0.002159  -0.489011 0.157189 0.400089
15  0.043265 0.077505 0.036874  -0.000000 -0.000000 0.000000
16  -0.000000 0.000000 0.000000  -0.758782 -0.565524 1.164287
17  0.020260 0.201078 -0.017731  0.073236 -0.091300 -1.372410
18  0.010537 0.100376 -0.010148  0.026263 0.299602 -0.025327
19  0.018646 0.186860 -0.018292  0.228791 -0.023880 0.000270
20  -0.032087 0.200172 -0.061335  0.017757 0.212372 0.329206
21  0.009278 0.058322 -0.044375  -0.002137 0.032876 -0.000149
22  0.069086 0.193199 -0.059144  0.516866 -0.008114 0.012308
23  0.008560 0.057628 -0.044090  -0.394782 0.064577 -0.042362
24  0.102185 0.077529 -0.031768  -0.586922 0.449085 -0.359957
25  0.038420 0.022931 -0.000959  -0.008416 -0.065238 -0.050753
26  -0.039647 -0.056266 0.002069  0.045124 -0.021154 -0.322118
27  0.042761 -0.082398 0.038132  -0.000000 -0.000000 0.000000
28  -0.000000 -0.000000 0.000000  0.349891 0.283873 0.103172
29  0.020122 -0.201078 -0.017893  -0.101881 -0.094972 1.660662
30  0.010469 -0.100374 -0.010235  -0.072361 1.352355 0.098741
31  0.018520 -0.186856 -0.018450  -0.379392 -0.038587 0.002397
32  -0.032223 -0.200101 -0.061496  0.083340 0.138219 -0.361797
33  0.009310 -0.057389 -0.045571  -0.005126 0.014735 -0.000344
34  0.068955 -0.193197 -0.059302  -0.546554 -0.091695 0.208457
35  0.008683 -0.056712 -0.045241  0.097056 0.022618 0.006745
36  0.102133 -0.077572 -0.031829  0.485162 0.344972 0.803316
37  0.034315 -0.028672 -0.001806  -0.001173 -0.002184 0.006390
38  0.001143 0.000000 -0.181958  0.001833 0.102276 -0.000090
39  0.004961 -0.000269 -0.096018  0.080744 0.162618 0.253569
40  -0.011623 0.003704 -0.088948  0.153205 -0.019355 0.238505
41  -0.007644 0.000000 -0.210641  -0.200946 -0.043083 0.243871
time 5
0  0 0 0  0 0 0
1  0.000000 0.000010 0.000000  -1.570796 -0.000000 0.000000
2  0.000000 0.000000 0.000000  0.000000 -0.000000 0.000000
3  0.000000 0.000000 0.000000  0.000000 -0.000000 0.000000
4  0.006445 -0.000000 0.753335  0.000000 -0.000000 0.000000
5  0.078537 -0.195537 -0.043054  0.047706 0.051212 -0.663611
6  -0.000000 0.000000 0.000000  -0.000775 -0.105034 -0.007355
7  -0.000000 0.000000 -0.000000  -0.076435 0.105569 -0.267090
8  0.002937 -0.000000 0.194891  0.155843 -0.222717 -0.244374
9  0.003500 -0.000000 0.083408  -0.155419 0.018773 -0.252376
10  -0.012239 -0.000000 0.122389  0.043180 0.008792 -0.230189
11  0.000267 0.000000 0.055138  0.212898 -0.512711 -0.375880
12  0.003234 -0.000000 0.052281  0.023219 0.078686 -0.339020
13  -0.001319 -0.000000 0.060214  -0.006244 0.015194 -0.320148
14  -0.039876 0.060989 0.002159  -0.477131 0.181049 0.399141
15  0.043265 0.077505 0.036874  0.000000 -0.000000 0.000000
16  -0.000000 -0.000000 -0.000000  -0.828014 -0.652768 1.178176
17  0.020260 0.201078 -0.017731  0.064423 -0.088622 -1.277529
18  0.010537 0.100376 -0.010148  0.030311 0.352653 -0.029172
19  0.018646 0.186860 -0.018292  0.289968 -0.030221 -0.000583
20  -0.032087 0.200172 -0.061335  0.032148 0.212320 0.332465
21  0.009278 0.058322 -0.044375  0.027251 0.030595 0.002114
22  0.069086 0.193199 -0.059144  0.539351 -0.010052 0.012333
23  0.008560 0.057628 -0.044090  -0.370353 0.066954 -0.042077
24  0.102185 0.077529 -0.031768  -0.593434 0.441071 -0.360326
25  0.038420 0.022931 -0.000959  -0.010006 -0.081610 -0.063392
26  -0.039647 -0.056266 0.002069  0.036831 -0.004708 -0.328926
27  0.042761 -0.082398 0.038132  -0.000000 -0.000000 0.000000
28  -0.000000 -0.000000 -0.000000  0.313528 0.274882 0.120967
29  0.020122 -0.201078 -0.017893  -0.101025 -0.095002 1.651916
30  0.010469 -0.100374 -0.010235  -0.072271 1.356503 0.099234
31  0.018520 -0.186856 -0.018450  -0.443037 -0.044853 0.004223
32  -0.032223 -0.200101 -0.061496  0.046769 0.126351 -0.389348
33  0.009310 -0.057389 -0.045571  0.029611 0.017660 0.002014
34  0.068955 -0.193197 -0.059302  -0.614177 -0.100712 0.235452
35  0.008683 -0.056712 -0.045241  0.099597 0.022811 0.006932
36  0.102133 -0.077572 -0.031829  0.451055 0.332034 0.826628
37  0.034314 -0.028672 -0.001806  -0.001468 -0.002729 0.007988
38  0.001143 0.000000 -0.181958  0.045049 0.089140 0.004076
39  0.004961 -0.000269 -0.096018  0.075105 0.203964 0.267091
40  -0.011623 0.003704 -0.088948  0.173439 -0.023783 0.246218
41  -0.007644 0.000000 -0.210641  -0.212423 -0.038090 0.252122
time 6
0  0 0 0  0 0 0
1  0.000000 0.000010 0.000000  -1.570796 -0.000000 0.000000
2  0.000000 0.000000 0.000000  0.000000 -0.000000 0.000000
3  0.000000 0.000000 0.000000  0.000000 -0.000000 0.000000
4  0.006445 -0.000000 0.753335  0.000000 -0.000000 0.000000
5  0.078409 -0.209128 -0.045024  0.027780 0.047838 -0.694283
6  0.000000 -0.000000 -0.000000  -0.000775 -0.105034 -0.007355
7  0.000000 -0.000000 -0.000000  -0.064024 0.092278 -0.265344
8  0.002937 0.000000 0.194891  0.146619 -0.219265 -0.254877
9  0.003500 0.000000 0.083408  -0.157022 0.012109 -0.261490
10  -0.012239 -0.000000 0.122389  0.014262 0.010461 -0.243186
11  0.000267 -0.000000 0.055138  0.218530 -0.522438 -0.388125
12  0.003234 0.000000 0.052281  0.024372 0.077789 -0.350185
13  -0.001319 0.000000 0.060214  0.024161 0.021939 -0.331974
14  -0.039876 0.060989 0.002159  -0.465225 0.204905 0.398479
15  0.043265 0.077505 0.036874  0.000000 -0.000000 -0.000000
16  -0.000000 -0.000000 -0.000000  -0.903319 -0.738145 1.200958
17  0.020259 0.201078 -0.017731  0.055968 -0.085154 -1.183404
18  0.010537 0.100376 -0.010148  0.034214 0.405592 -0.032857
19  0.018646 0.186860 -0.018292  0.350971 -0.036477 -0.001818
20  -0.032087 0.200172 -0.061335  0.046536 0.212223 0.335721
21  0.009278 0.058322 -0.044375  0.056609 0.028251 0.004307
22  0.069086 0.193199 -0.059144  0.561827 -0.011990 0.012315
23  0.008560 0.057628 -0.044090  -0.345933 0.069322 -0.041734
24  0.102185 0.077529 -0.031768  -0.599917 0.433055 -0.360636
25  0.038420 0.022931 -0.000959  -0.011389 -0.097996 -0.076018
26  -0.039647 -0.056266 0.002069  0.028428 0.011676 -0.335869
27  0.042761 -0.082398 0.038132  0.000000 -0.000000 0.000000
28  0.000000 -0.000000 -0.000000  0.277155 0.266533 0.139014
29  0.020122 -0.201078 -0.017893  -0.100169 -0.095025 1.643172
30  0.010469 -0.100374 -0.010235  -0.072169 1.360652 0.099738
31  0.018520 -0.186856 -0.018449  -0.506497 -0.050969 0.006437
32  -0.032222 -0.200101 -0.061496  0.010654 0.113520 -0.416358
33  0.009310 -0.057389 -0.045571  0.064321 0.020498 0.004470
34  0.068956 -0.193197 -0.059302  -0.681794 -0.107864 0.262905
35  0.008683 -0.056712 -0.045241  0.102137 0.023004 0.007119
36  0.102133 -0.077572 -0.031829  0.416853 0.319879 0.850246
37  0.034314 -0.028672 -0.001806  -0.001764 -0.003273 0.009586
38  0.001143 0.000000 -0.181958  0.088089 0.075859 0.007660
39  0.004961 -0.000269 -0.096018  0.069998 0.245314 0.280479
40  -0.011623 0.003704 -0.088948  0.193633 -0.028365 0.253839
41  -0.007644 0.000000 -0.210641  -0.223853 -0.033003 0.260312
time 7
0  0 0 0  0 0 0
1  0.000000 0.000010 0.000000  -1.570796 -0.000000 0.000000
2  0.000000 0.000000 0.000000  0.000000 -0.000000 0.000000
3  0.000000 0.000000 0.000000  0.000000 -0.000000 0.000000
4  0.006445 -0.000000 0.753335  0.000000 -0.000000 0.000000
5  0.076208 -0.217350 -0.046326  0.010330 0.046753 -0.699835
6  -0.000000 0.000000 0.000000  -0.000775 -0.105034 -0.007355
7  -0.000000 -0.000000 0.000000  -0.050461 0.079071 -0.255983
8  0.002937 0.000000 0.194891  0.133747 -0.207618 -0.257052
9  0.003500 0.000000 0.083408  -0.150480 0.011347 -0.260788
10  -0.012239 -0.000000 0.122389  -0.012903 0.015467 -0.247297
11  0.000267 0.000000 0.055137  0.218530 -0.522438 -0.388125
12  0.003234 0.000000 0.052281  0.024372 0.077788 -0.350185
13  -0.001318 -0.000000 0.060214  0.043242 0.026905 -0.333993
14  -0.039876 0.060989 0.002159  -0.462386 0.210584 0.398362
15  0.043265 0.077505 0.036874  -0.000000 -0.000000 -0.000000
16  -0.000000 0.000000 -0.000000  -0.960669 -0.775665 1.220432
17  0.020259 0.201078 -0.017731  0.054328 -0.084370 -1.164687
18  0.010537 0.100376 -0.010148  0.037926 0.457452 -0.036329
19  0.018645 0.186860 -0.018292  0.402884 -0.041736 -0.003168
20  -0.032088 0.200172 -0.061335  0.046536 0.212223 0.335721
21  0.009278 0.058322 -0.044375  0.056610 0.028251 0.004307
22  0.069086 0.193199 -0.059144  0.561827 -0.011990 0.012315
23  0.008560 0.057628 -0.044090  -0.345933 0.069322 -0.041734
24  0.102185 0.077529 -0.031768  -0.599917 0.433055 -0.360636
25  0.038420 0.022931 -0.000959  -0.011389 -0.097996 -0.076018
26  -0.039647 -0.056266 0.002069  0.028099 0.012315 -0.336147
27  0.042761 -0.082398 0.038132  0.000000 -0.000000 0.000000
28  -0.000000 -0.000000 0.000000  0.236441 0.276004 0.136416
29  0.020122 -0.201078 -0.017893  -0.100121 -0.095026 1.642686
30  0.010469 -0.100374 -0.010235  -0.072453 1.346772 0.098106
31  0.018520 -0.186856 -0.018449  -0.572348 -0.057148 0.009138
32  -0.032222 -0.200101 -0.061496  -0.012758 0.102381 -0.436761
33  0.009310 -0.057389 -0.045571  0.103441 0.023590 0.007352
34  0.068956 -0.193197 -0.059302  -0.721327 -0.111544 0.286980
35  0.008683 -0.056712 -0.045241  0.124033 0.024645 0.008750
36  0.102133 -0.077572 -0.031829  0.385610 0.321109 0.865926
37  0.034314 -0.028672 -0.001806  -0.001764 -0.003273 0.009586
38  0.001143 0.000000 -0.181958  0.121927 0.062401 0.009904
39  0.004961 -0.000269 -0.096018  0.071276 0.267427 0.282682
40  -0.011623 0.003704 -0.088948  0.207943 -0.033383 0.252604
41  -0.007644 0.000000 -0.210641  -0.233956 -0.028075 0.259452
time 8
0  0 0 0  0 0 0
1  0.000000 0.000010 0.000000  -1.570796 -0.000000 0.000000
2  0.000000 0.000000 0.000000  0.000000 -0.000000 0.000000
3  0.000000 0.000000 0.000000  0.000000 -0.000000 0.000000
4  0.006445 -0.000000 0.753335  0.000000 -0.000000 0.000000
5  0.069859 -0.214833 -0.046289  -0.002285 0.051628 -0.655355
6  0.000000 0.000000 -0.000000  -0.000775 -0.105034 -0.007355
7  0.000000 0.000000 0.000000  -0.034742 0.065790 -0.231259
8  0.002937 0.000000 0.194891  0.113968 -0.179223 -0.242968
9  0.003500 0.000000 0.083408  -0.127593 0.022106 -0.240299
10  -0.012239 -0.000000 0.122389  -0.036488 0.027995 -0.233782
11  0.000267 0.000000 0.055137  0.207431 -0.502924 -0.363762
12  0.003234 0.000000 0.052281  0.022076 0.079596 -0.327855
13  -0.001319 -0.000000 0.060214  0.039881 0.027776 -0.316768
14  -0.039876 0.060989 0.002159  -0.477695 0.179929 0.399174
15  0.043265 0.077506 0.036874  -0.000000 -0.000000 -0.000000
16  -0.000000 0.000000 0.000000  -0.969076 -0.722068 1.215553
17  0.020260 0.201078 -0.017731  0.066102 -0.089203 -1.295823
18  0.010537 0.100376 -0.010148  0.041425 0.507508 -0.039558
19  0.018646 0.186860 -0.018292  0.437090 -0.045168 -0.004208
20  -0.032088 0.200172 -0.061335  0.017757 0.212372 0.329206
21  0.009278 0.058322 -0.044375  -0.002137 0.032876 -0.000149
22  0.069086 0.193199 -0.059144  0.516866 -0.008114 0.012308
23  0.008560 0.057628 -0.044090  -0.394782 0.064577 -0.042362
24  0.102185 0.077529 -0.031768  -0.586922 0.449085 -0.359957
25  0.038420 0.022931 -0.000959  -0.008416 -0.065238 -0.050753
26  -0.039647 -0.056266 0.002069  0.043841 -0.018579 -0.323189
27  0.042761 -0.082398 0.038131  -0.000000 0.000000 0.000000
28  -0.000000 0.000000 -0.000000  0.185119 0.318637 0.090175
29  0.020122 -0.201078 -0.017893  -0.101691 -0.094980 1.658719
30  0.010469 -0.100374 -0.010235  -0.072669 1.296786 0.093017
31  0.018520 -0.186856 -0.018449  -0.643641 -0.063610 0.012512
32  -0.032222 -0.200101 -0.061496  -0.011563 0.096173 -0.444925
33  0.009310 -0.057389 -0.045571  0.151505 0.027226 0.011051
34  0.068956 -0.193197 -0.059302  -0.705037 -0.111616 0.303841
35  0.008683 -0.056712 -0.045241  0.184743 0.029003 0.013455
36  0.102133 -0.077572 -0.031829  0.360197 0.347764 0.864816
37  0.034314 -0.028672 -0.001806  -0.001173 -0.002184 0.006390
38  0.001143 0.000000 -0.181958  0.137681 0.048762 0.010304
39  0.004961 -0.000269 -0.096018  0.084631 0.251296 0.262599
40  -0.011623 0.003704 -0.088948  0.210630 -0.038992 0.233808
41  -0.007644 0.000000 -0.210641  -0.241537 -0.023712 0.240572
time 9
0  0 0 0  0 0 0
1  0.000000 0.000010 0.000000  -1.570796 -0.000000 0.000000
2  0.000000 0.000000 0.000000  0.000000 -0.000000 0.000000
3  0.000000 0.000000 0.000000  0.000000 -0.000000 0.000000
4  0.006445 -0.000000 0.753335  0.000000 -0.000000 0.000000
5  0.063511 -0.212315 -0.046253  -0.014678 0.057060 -0.610911
6  0.000000 0.000000 0.000000  -0.000775 -0.105034 -0.007355
7  -0.000000 0.000000 -0.000000  -0.019366 0.052126 -0.206763
8  0.002937 -0.000000 0.194891  0.094684 -0.150557 -0.229518
9  0.003500 0.000000 0.083408  -0.104480 0.032393 -0.219560
10  -0.012239 -0.000000 0.122389  -0.059916 0.040840 -0.220558
11  0.000267 -0.000000 0.055138  0.196986 -0.483180 -0.339897
12  0.003234 0.000000 0.052281  0.019820 0.081455 -0.305524
13  -0.001319 -0.000000 0.060214  0.036536 0.028705 -0.299544
14  -0.039876 0.060989 0.002159  -0.492955 0.149284 0.400457
15  0.043265 0.077505 0.036874  0.000000 -0.000000 0.000000
16  -0.000000 0.000000 -0.000000  -0.977453 -0.668476 1.210310
17  0.020260 0.201078 -0.017731  0.078449 -0.092467 -1.427431
18  0.010537 0.100376 -0.010148  0.044839 0.557594 -0.042679
19  0.018646 0.186860 -0.018292  0.471312 -0.048563 -0.005364
20  -0.032087 0.200172 -0.061335  -0.011027 0.212337 0.322688
21  0.009278 0.058322 -0.044375  -0.060946 0.037235 -0.004872
22  0.069086 0.193199 -0.059144  0.471891 -0.004240 0.012127
23  0.008560 0.057628 -0.044090  -0.443633 0.059806 -0.042758
24  0.102185 0.077529 -0.031768  -0.573812 0.465106 -0.359039
25  0.038420 0.022931 -0.000959  -0.004619 -0.032556 -0.025424
26  -0.039647 -0.056266 0.002069  0.059200 -0.049678 -0.310703
27  0.042761 -0.082398 0.038132  0.000000 -0.000000 0.000000
28  -0.000000 0.000000 0.000000  0.130946 0.358914 0.040939
29  0.020122 -0.201078 -0.017893  -0.103259 -0.094908 1.674753
30  0.010469 -0.100374 -0.010235  -0.072055 1.246780 0.088723
31  0.018520 -0.186856 -0.018449  -0.715047 -0.069822 0.016345
32  -0.032223 -0.200101 -0.061496  -0.010317 0.089974 -0.453091
33  0.009310 -0.057389 -0.045571  0.199607 0.030681 0.014924
34  0.068955 -0.193197 -0.059302  -0.688749 -0.111961 0.320700
35  0.008683 -0.056712 -0.045241  0.245518 0.033070 0.018420
36  0.102133 -0.077572 -0.031829  0.334489 0.374389 0.862967
37  0.034314 -0.028672 -0.001806  -0.000585 -0.001093 0.003195
38  0.001143 0.000000 -0.181958  0.153422 0.035117 0.010488
39  0.004961 -0.000269 -0.096018  0.098266 0.235427 0.242371
40  -0.011623 0.003704 -0.088948  0.213423 -0.044549 0.214991
41  -0.007644 0.000000 -0.210641  -0.249198 -0.019492 0.221659
time 10
0  0 0 0  0 0 0
1  0.000000 0.000010 0.000000  -1.570796 -0.000000 0.000000
2  0.000000 0.000000 0.000000  0.000000 -0.000000 0.000000
3  0.000000 0.000000 0.000000  0.000000 -0.000000 0.000000
4  0.006445 -0.000000 0.753335  0.000000 -0.000000 0.000000
5  0.057162 -0.209797 -0.046216  -0.026813 0.063031 -0.566555
6  -0.000000 0.000000 0.000000  -0.000775 -0.105034 -0.007355
7  0.000000 -0.000000 0.000000  -0.004345 0.038096 -0.182502
8  0.002937 0.000000 0.194891  0.075874 -0.121656 -0.216686
9  0.003500 0.000000 0.083408  -0.081157 0.042193 -0.198588
10  -0.012239 0.000000 0.122389  -0.083179 0.053986 -0.207635
11  0.000267 -0.000000 0.055138  0.187179 -0.463230 -0.316512
12  0.003234 0.000000 0.052281  0.017606 0.083363 -0.283198
13  -0.001318 -0.000000 0.060215  0.033208 0.029692 -0.282325
14  -0.039876 0.060989 0.002159  -0.508185 0.118674 0.402205
15  0.043265 0.077505 0.036874  0.000000 -0.000000 -0.000000
16  0.000000 0.000000 -0.000000  -0.985836 -0.614974 1.204731
17  0.020260 0.201078 -0.017731  0.091050 -0.094084 -1.558350
18  0.010537 0.100376 -0.010148  0.048175 0.607647 -0.045694
19  0.018646 0.186860 -0.018292  0.505531 -0.051915 -0.006636
20  -0.032087 0.200172 -0.061335  -0.039802 0.212119 0.316176
21  0.009278 0.058322 -0.044375  -0.119717 0.041303 -0.009838
22  0.069086 0.193199 -0.059144  0.426946 -0.000382 0.011772
23  0.008560 0.057628 -0.044090  -0.492431 0.055024 -0.042919
24  0.102185 0.077529 -0.031768  -0.560579 0.481113 -0.357877
25  0.038420 0.022931 -0.000959  -0.000000 0.000000 0.000000
26  -0.039647 -0.056266 0.002069  0.074194 -0.080948 -0.298678
27  0.042760 -0.082398 0.038132  0.000000 -0.000000 0.000000
28  -0.000000 0.000000 -0.000000  0.073951 0.396485 -0.011260
29  0.020122 -0.201078 -0.017893  -0.104826 -0.094811 1.690786
30  0.010469 -0.100374 -0.010235  -0.070932 1.196816 0.084901
31  0.018520 -0.186856 -0.018450  -0.786386 -0.075734 0.020606
32  -0.032222 -0.200101 -0.061496  -0.009022 0.083785 -0.461261
33  0.009310 -0.057389 -0.045571  0.247690 0.033943 0.018955
34  0.068956 -0.193197 -0.059302  -0.672471 -0.112580 0.337548
35  0.008683 -0.056713 -0.045241  0.306247 0.036823 0.023617
36  0.102133 -0.077572 -0.031829  0.308460 0.400949 0.860357
37  0.034314 -0.028672 -0.001806  -0.000000 0.000000 -0.000000
38  0.001143 0.000000 -0.181958  0.169152 0.021472 0.010458
39  0.004961 -0.000269 -0.096018  0.112173 0.219834 0.222005
40  -0.011623 0.003704 -0.088948  0.216321 -0.050053 0.196156
41  -0.007644 0.000000 -0.210641  -0.256937 -0.015418 0.202719
time 11
0  0 0 0  0 0 0
1  0.000000 0.000010 0.000000  -1.570796 -0.000000 0.000000
2  0.000000 0.000000 0.000000  0.000000 -0.000000 0.000000
3  0.000000 0.000000 0.000000  0.000000 -0.000000 0.000000
4  0.006445 -0.000000 0.753335  0.000000 -0.000000 0.000000
5  0.035416 -0.143903 -0.037751  0.023718 0.094923 -0.201636
6  -0.000000 0.000000 -0.000000  -0.000775 -0.105034 -0.007355
7  -0.000000 0.000000 0.000000  -0.001576 0.047471 -0.079743
8  0.002937 -0.000000 0.194891  0.023828 -0.042025 -0.101022
9  0.003500 0.000000 0.083408  0.043598 0.118664 -0.048399
10  -0.012239 0.000000 0.122389  -0.050277 0.079605 -0.075188
11  0.000267 0.000000 0.055137  0.106664 -0.312672 -0.136028
12  0.003234 -0.000000 0.052281  0.000315 0.069422 -0.119723
13  -0.001319 0.000000 0.060215  -0.180837 -0.044951 -0.150258
14  -0.039876 0.060989 0.002159  -0.623790 -0.108201 0.429937
15  0.043265 0.077505 0.036874  -0.000000 -0.000000 -0.000000
16  0.000000 -0.000000 0.000000  -0.443263 -0.324175 -0.215266
17  0.020260 0.201078 -0.017731  0.061398 -0.087487 -1.244266
18  0.010536 0.100376 -0.010148  0.046015 0.575105 -0.043745
19  0.018646 0.186860 -0.018292  0.221572 -0.023143 0.000344
20  -0.032088 0.200172 -0.061335  -0.165222 0.233375 0.317376
21  0.009278 0.058322 -0.044375  -0.386570 0.055828 -0.034998
22  0.069086 0.193199 -0.059144  0.263309 0.013436 0.009028
23  0.008560 0.057628 -0.044090  -0.769200 0.000885 -0.040095
24  0.102185 0.077529 -0.031768  -0.560579 0.481113 -0.357877
25  0.038420 0.022931 -0.000959  0.021817 0.259890 0.139080
26  -0.039647 -0.056266 0.002069  0.156681 -0.268764 -0.236011
27  0.042760 -0.082398 0.038132  0.000000 -0.000000 0.000000
28  -0.000000 -0.000000 0.000000  -0.303528 0.712413 -0.675090
29  0.020122 -0.201078 -0.017893  -0.116869 -0.093218 1.814897
30  0.010469 -0.100374 -0.010235  -0.064368 1.008293 0.072346
31  0.018520 -0.186856 -0.018449  -0.978627 -0.089994 0.034064
32  -0.032222 -0.200100 -0.061496  0.053565 0.112652 -0.411516
33  0.009310 -0.057389 -0.045571  0.130155 0.025613 0.009374
34  0.068956 -0.193197 -0.059302  -0.171623 -0.063818 0.274939
35  0.008683 -0.056712 -0.045241  0.600116 0.050212 0.051461
36  0.102133 -0.077572 -0.031829  0.539521 0.532384 0.846239
37  0.034314 -0.028672 -0.001806  -0.000000 0.000000 -0.000000
38  0.001143 0.000000 -0.181958  0.099638 0.057155 0.007805
39  0.004961 -0.000269 -0.096018  0.084130 -0.030411 0.061287
40  -0.011623 0.003704 -0.088948  0.113143 -0.055990 0.066717
41  -0.007644 0.000000 -0.210641  -0.202397 0.018105 0.064293
time 12
0  0 0 0  0 0 0
1  0.000000 0.000010 0.000000  -1.570796 -0.000000 0.000000
2  0.000000 0.000000 0.000000  0.000000 -0.000000 0.000000
3  0.000000 0.000000 0.000000  0.000000 -0.000000 0.000000
4  0.006445 -0.000000 0.753335  0.000000 -0.000000 0.000000
5  0.013232 -0.075478 -0.029214  0.080963 0.120865 0.169704
6  0.000000 0.000000 0.000000  -0.000775 -0.105034 -0.007355
7  0.000000 -0.000000 0.000000  -0.000310 0.058493 0.020299
8  0.002937 -0.000000 0.194891  -0.022123 0.037123 0.011300
9  0.003500 0.000000 0.083408  0.169492 0.184333 0.103659
10  -0.012239 0.000000 0.122389  -0.012135 0.102526 0.056686
11  0.000267 0.000000 0.055137  0.042444 -0.159706 0.031789
12  0.003234 -0.000000 0.052281  -0.017813 0.056984 0.041959
13  -0.001319 0.000000 0.060215  -0.398707 -0.105391 -0.010928
14  -0.039876 0.060989 0.002159  -0.730667 -0.296166 0.475431
15  0.043265 0.077505 0.036874  0.000000 -0.000000 0.000000
16  0.000000 -0.000000 -0.000000  -0.410842 0.068319 -1.080829
17  0.020260 0.201078 -0.017731  0.047670 -0.080786 -1.086823
18  0.010537 0.100376 -0.010148  0.049497 0.628049 -0.046900
19  0.018646 0.186860 -0.018292  -0.056332 0.005827 -0.000903
20  -0.032088 0.200172 -0.061335  -0.297434 0.247676 0.309837
21  0.009278 0.058322 -0.044375  -0.664882 0.063338 -0.064302
22  0.069086 0.193199 -0.059144  0.092493 0.027197 0.003800
23  0.008560 0.057628 -0.044090  -1.055842 -0.059287 -0.031235
24  0.102185 0.077529 -0.031768  -0.560579 0.481113 -0.357877
25  0.038420 0.022931 -0.000959  0.052028 0.522329 0.274922
26  -0.039647 -0.056266 0.002069  0.215946 -0.418302 -0.195984
27  0.042761 -0.082398 0.038132  -0.000000 -0.000000 0.000000
28  -0.000000 0.000000 0.000000  -0.622327 0.829839 -1.191064
29  0.020122 -0.201078 -0.017893  -0.131311 -0.089226 1.968024
30  0.010469 -0.100374 -0.010235  -0.055983 0.824092 0.061001
31  0.018520 -0.186856 -0.018449  -1.161679 -0.100939 0.049188
32  -0.032222 -0.200101 -0.061496  0.122953 0.140552 -0.351921
33  0.009310 -0.057389 -0.045571  0.012731 0.016225 0.000842
34  0.068956 -0.193197 -0.059302  0.070236 -0.016552 0.221331
35  0.008683 -0.056712 -0.045241  0.655302 0.051785 0.057064
36  0.102133 -0.077572 -0.031830  0.682725 0.577647 0.825093
37  0.034314 -0.028672 -0.001806  -0.000000 -0.000000 -0.000000
38  0.001143 0.000000 -0.181958  0.069516 0.038425 0.004809
39  0.004961 -0.000269 -0.096018  0.010427 -0.201999 -0.069300
40  -0.011623 0.003704 -0.088948  -0.018344 -0.062175 -0.057563
41  -0.007644 0.000000 -0.210641  -0.110214 0.065936 -0.068256
time 13
0  0 0 0  0 0 0
1  0.000000 0.000010 0.000000  -1.570796 -0.000000 0.000000
2  0.000000 0.000000 0.000000  0.000000 -0.000000 0.000000
3  0.000000 0.000000 0.000000  0.000000 -0.000000 0.000000
4  0.006445 -0.000000 0.753335  0.000000 -0.000000 0.000000
5  -0.009827 -0.001995 -0.020530  0.147969 0.152480 0.560928
6  0.000000 -0.000000 0.000000  -0.000775 -0.105034 -0.007355
7  -0.000000 -0.000000 -0.000000  -0.002696 0.073537 0.114947
8  0.002937 -0.000000 0.194891  -0.066690 0.109849 0.122701
9  0.003500 0.000000 0.083408  0.286907 0.251075 0.250239
10  -0.012239 0.000000 0.122389  0.033249 0.123829 0.186876
11  0.000267 -0.000000 0.055137  -0.025159 -0.010755 0.199878
12  0.003234 -0.000000 0.052281  -0.035611 0.044397 0.200583
13  -0.001319 -0.000000 0.060214  -0.618789 -0.168194 0.131907
14  -0.039876 0.060989 0.002159  -0.807492 -0.412961 0.517391
15  0.043265 0.077505 0.036874  -0.000000 -0.000000 0.000000
16  -0.000000 -0.000000 0.000000  -0.295255 0.167670 -1.481250
17  0.020260 0.201078 -0.017731  0.061081 -0.087362 -1.240757
18  0.010537 0.100376 -0.010148  0.063674 0.853120 -0.059150
19  0.018646 0.186860 -0.018292  -0.325738 0.032508 -0.009650
20  -0.032087 0.200172 -0.061335  -0.442523 0.246140 0.289437
21  0.009278 0.058322 -0.044375  -0.968824 0.062013 -0.097265
22  0.069086 0.193199 -0.059144  -0.093477 0.040958 -0.004467
23  0.008560 0.057627 -0.044090  -1.367068 -0.135253 -0.019009
24  0.102185 0.077529 -0.031768  -0.560579 0.481113 -0.357877
25  0.038420 0.022931 -0.000959  0.053005 0.802540 0.385369
26  -0.039647 -0.056266 0.002069  0.241149 -0.484595 -0.180668
27  0.042761 -0.082398 0.038132  0.000000 0.000000 -0.000000
28  0.000000 -0.000000 0.000000  -0.293579 1.019503 -0.932908
29  0.020122 -0.201078 -0.017893  -0.149960 -0.080174 2.180034
30  0.010469 -0.100374 -0.010235  -0.046692 0.647679 0.049986
31  0.018520 -0.186856 -0.018449  -1.326570 -0.108306 0.064322
32  -0.032222 -0.200101 -0.061496  0.205124 0.167699 -0.273908
33  0.009310 -0.057389 -0.045571  -0.104813 0.005900 -0.006535
34  0.068956 -0.193197 -0.059302  -0.193321 -0.029352 0.135913
35  0.008683 -0.056712 -0.045241  0.226990 0.031864 0.016882
36  0.102133 -0.077572 -0.031829  0.633016 0.447794 0.739715
37  0.034314 -0.028672 -0.001806  0.000000 0.000000 -0.000000
38  0.001143 0.000000 -0.181958  0.118806 -0.088858 0.001096
39  0.004961 -0.000269 -0.096018  -0.222710 -0.225514 -0.142993
40  -0.011623 0.003704 -0.088948  -0.210280 -0.061670 -0.174863
41  -0.007644 0.000000 -0.210641  0.061354 0.144504 -0.184899
time 14
0  0 0 0  0 0 0
1  0.000000 0.000010 0.000000  -1.570796 -0.000000 0.000000
2  0.000000 0.000000 0.000000  0.000000 -0.000000 0.000000
3  0.000000 0.000000 0.000000  0.000000 -0.000000 0.000000
4  0.006445 -0.000000 0.753335  0.000000 -0.000000 0.000000
5  -0.020311 0.027803 -0.018438  0.177716 0.168179 0.706664
6  -0.000000 -0.000000 -0.000000  -0.000775 -0.105034 -0.007355
7  0.000000 0.000000 0.000000  -0.003248 0.080988 0.154540
8  0.002937 -0.000000 0.194891  -0.088366 0.140172 0.169880
9  0.003500 0.000000 0.083408  0.332091 0.273409 0.312775
10  -0.012239 0.000000 0.122389  0.055701 0.132437 0.243191
11  0.000267 -0.000000 0.055137  -0.049248 0.053978 0.270840
12  0.003234 0.000000 0.052281  -0.044220 0.039500 0.269792
13  -0.001319 -0.000000 0.060214  -0.717974 -0.186139 0.211172
14  -0.039876 0.060989 0.002159  -0.841822 -0.459998 0.538167
15  0.043265 0.077505 0.036874  -0.000000 0.000000 0.000000
16  -0.000000 -0.000000 0.000000  -0.322084 0.108481 -1.504511
17  0.020260 0.201078 -0.017731  0.067584 -0.089688 -1.311885
18  0.010537 0.100376 -0.010148  0.075585 1.046515 -0.068183
19  0.018645 0.186860 -0.018292  -0.425862 0.041670 -0.014677
20  -0.032087 0.200172 -0.061335  -0.499850 0.187079 0.236822
21  0.009278 0.058322 -0.044375  -1.069233 0.059392 -0.107884
22  0.069086 0.193199 -0.059144  -0.155316 0.045161 -0.007764
23  0.008560 0.057628 -0.044090  -1.470755 -0.159057 -0.009777
24  0.102185 0.077529 -0.031768  -0.560579 0.481113 -0.357877
25  0.038420 0.022931 -0.000959  0.064241 0.894911 0.429907
26  -0.039647 -0.056266 0.002069  0.250498 -0.509461 -0.175292
27  0.042761 -0.082399 0.038132  0.000000 0.000000 0.000000
28  0.000000 -0.000000 0.000000  -0.180619 0.945504 -0.777048
29  0.020122 -0.201078 -0.017893  -0.154812 -0.076942 2.239544
30  0.010469 -0.100374 -0.010235  -0.040145 0.535035 0.042624
31  0.018520 -0.186856 -0.018449  -1.407342 -0.110975 0.072121
32  -0.032222 -0.200101 -0.061496  0.235612 0.156868 -0.218474
33  0.009310 -0.057389 -0.045571  -0.066461 0.009376 -0.004255
34  0.068956 -0.193197 -0.059302  -0.244679 -0.034726 0.106477
35  0.008683 -0.056712 -0.045241  0.185280 0.029042 0.013499
36  0.102133 -0.077572 -0.031829  0.624396 0.460206 0.695453
37  0.034314 -0.028672 -0.001806  -0.000000 -0.000000 0.000000
38  0.001143 0.000000 -0.181958  0.139939 -0.179869 -0.004927
39  0.004961 -0.000269 -0.096018  -0.321229 -0.206063 -0.176375
40  -0.011623 0.003704 -0.088948  -0.289795 -0.072326 -0.223321
41  -0.007644 0.000000 -0.210641  0.121897 0.179407 -0.231579
time 15
0  0 0 0  0 0 0
1  0.000000 0.000010 0.000000  -1.570796 -0.000000 0.000000
2  0.000000 0.000000 0.000000  0.000000 -0.000000 0.000000
3  0.000000 0.000000 0.000000  0.000000 -0.000000 0.000000
4  0.006445 -0.000000 0.753335  0.000000 -0.000000 0.000000
5  -0.024507 0.035757 -0.019642  0.186444 0.184888 0.731542
6  -0.000000 0.000000 0.000000  -0.000775 -0.105034 -0.007355
7  -0.000000 -0.000000 -0.000000  -0.003324 0.084586 0.166626
8  0.002937 0.000000 0.194891  -0.101189 0.147981 0.185777
9  0.003500 0.000000 0.083408  0.337679 0.279376 0.330275
10  -0.012239 0.000000 0.122389  0.065905 0.136546 0.262319
11  0.000267 -0.000000 0.055138  -0.059791 0.073906 0.296920
12  0.003234 0.000000 0.052281  -0.047679 0.037539 0.294452
13  -0.001319 -0.000000 0.060214  -0.754383 -0.191253 0.254904
14  -0.039876 0.060989 0.002159  -0.851972 -0.473317 0.544528
15  0.043265 0.077505 0.036874  -0.000000 -0.000000 0.000000
16  -0.000000 -0.000000 0.000000  -0.426548 -0.032778 -1.330943
17  0.020260 0.201078 -0.017731  0.070359 -0.090526 -1.341736
18  0.010537 0.100376 -0.010148  0.087601 1.226767 -0.074713
19  0.018646 0.186860 -0.018292  -0.442104 0.043105 -0.015578
20  -0.032087 0.200172 -0.061335  -0.508339 0.099203 0.169350
21  0.009278 0.058322 -0.044375  -1.069233 0.059392 -0.107884
22  0.069086 0.193199 -0.059144  -0.155316 0.045161 -0.007764
23  0.008560 0.057628 -0.044090  -1.470755 -0.159057 -0.009777
24  0.102185 0.077529 -0.031768  -0.560579 0.481113 -0.357877
25  0.038420 0.022931 -0.000959  0.064241 0.894911 0.429907
26  -0.039647 -0.056266 0.002069  0.252013 -0.513520 -0.174431
27  0.042761 -0.082398 0.038132  0.000000 -0.000000 0.000000
28  0.000000 -0.000000 0.000000  -0.238725 0.760153 -0.730071
29  0.020122 -0.201078 -0.017893  -0.153511 -0.077850 2.223357
30  0.010469 -0.100374 -0.010235  -0.035096 0.453810 0.037080
31  0.018520 -0.186856 -0.018449  -1.446216 -0.112024 0.075938
32  -0.032223 -0.200100 -0.061496  0.238493 0.129058 -0.175297
33  0.009310 -0.057389 -0.045571  0.050401 0.019370 0.003473
34  0.068955 -0.193197 -0.059302  -0.191330 -0.028957 0.103341
35  0.008683 -0.056712 -0.045241  0.334213 0.038447 0.026086
36  0.102133 -0.077572 -0.031829  0.629221 0.545089 0.666952
37  0.034314 -0.028672 -0.001806  -0.000000 0.000000 0.000000
38  0.001143 0.000000 -0.181958  0.147101 -0.253061 -0.010495
39  0.004961 -0.000269 -0.096018  -0.353786 -0.160143 -0.193064
40  -0.011623 0.003704 -0.088948  -0.313684 -0.081420 -0.237830
41  -0.007644 0.000000 -0.210641  0.129823 0.186482 -0.247885
time 16
0  0 0 0  0 0 0
1  0.000000 0.000010 0.000000  -1.570796 -0.000000 0.000000
2  0.000000 0.000000 0.000000  0.000000 -0.000000 0.000000
3  0.000000 0.000000 0.000000  0.000000 -0.000000 0.000000
4  0.006445 -0.000000 0.753335  0.000000 -0.000000 0.000000
5  -0.028703 0.043711 -0.020846  0.195622 0.201377 0.756650
6  -0.000000 0.000000 0.000000  -0.000775 -0.105034 -0.007355
7  -0.000000 0.000000 0.000000  -0.003356 0.088184 0.178716
8  0.002937 0.000000 0.194891  -0.113900 0.155989 0.201591
9  0.003500 0.000000 0.083408  0.343385 0.285249 0.347839
10  -0.012239 0.000000 0.122389  0.076192 0.140461 0.281499
11  0.000267 -0.000000 0.055138  -0.069826 0.094101 0.322832
12  0.003234 0.000000 0.052281  -0.051186 0.035664 0.319117
13  -0.001319 -0.000000 0.060214  -0.791015 -0.194794 0.298834
14  -0.039876 0.060989 0.002159  -0.862288 -0.486577 0.551086
15  0.043265 0.077505 0.036874  0.000000 0.000000 0.000000
16  -0.000000 -0.000000 0.000000  -0.555266 -0.152893 -1.141439
17  0.020260 0.201078 -0.017731  0.073159 -0.091281 -1.371591
18  0.010537 0.100376 -0.010148  0.105278 1.407039 -0.075009
19  0.018646 0.186860 -0.018292  -0.458349 0.044526 -0.016501
20  -0.032088 0.200172 -0.061335  -0.510850 0.010963 0.102950
21  0.009278 0.058322 -0.044375  -1.069233 0.059392 -0.107884
22  0.069086 0.193199 -0.059144  -0.155316 0.045161 -0.007764
23  0.008560 0.057627 -0.044090  -1.470755 -0.159057 -0.009777
24  0.102185 0.077529 -0.031768  -0.560579 0.481113 -0.357877
25  0.038420 0.022931 -0.000959  0.064241 0.894911 0.429907
26  -0.039647 -0.056266 0.002069  0.253528 -0.517580 -0.173574
27  0.042761 -0.082398 0.038132  0.000000 -0.000000 0.000000
28  0.000000 0.000000 -0.000000  -0.299192 0.576954 -0.676784
29  0.020122 -0.201078 -0.017893  -0.152196 -0.078736 2.207168
30  0.010469 -0.100374 -0.010235  -0.029741 0.372612 0.031289
31  0.018520 -0.186856 -0.018450  -1.485097 -0.112925 0.079794
32  -0.032222 -0.200100 -0.061496  0.240157 0.101151 -0.132339
33  0.009310 -0.057389 -0.045571  0.167363 0.028395 0.012316
34  0.068955 -0.193197 -0.059302  -0.138008 -0.023029 0.100516
35  0.008683 -0.056712 -0.045241  0.483306 0.045880 0.039936
36  0.102133 -0.077572 -0.031829  0.631335 0.630059 0.637297
37  0.034314 -0.028672 -0.001806  0.000000 0.000000 0.000000
38  0.001143 0.000000 -0.181958  0.154851 -0.326211 -0.016738
39  0.004961 -0.000269 -0.096018  -0.386905 -0.114787 -0.211144
40  -0.011623 0.003704 -0.088948  -0.337457 -0.090857 -0.252128
41  -0.007644 0.000000 -0.210641  0.137642 0.193683 -0.264156
time 17
0  0 0 0  0 0 0
1  0.000000 0.000010 0.000000  -1.570796 -0.000000 0.000000
2  0.000000 0.000000 0.000000  0.000000 -0.000000 0.000000
3  0.000000 0.000000 0.000000  0.000000 -0.000000 0.000000
4  0.006445 -0.000000 0.753335  0.000000 -0.000000 0.000000
5  -0.031662 0.047035 -0.022687  0.203911 0.215316 0.762636
6  0.000000 -0.000000 0.000000  -0.000775 -0.105034 -0.007355
7  -0.000000 -0.000000 0.000000  -0.003155 0.091427 0.188679
8  0.002937 0.000000 0.194891  -0.126271 0.162344 0.214850
9  0.003500 0.000000 0.083408  0.345670 0.289274 0.361890
10  -0.012239 0.000000 0.122389  0.085504 0.144005 0.297778
11  0.000267 0.000000 0.055137  -0.078257 0.110950 0.345109
12  0.003234 0.000000 0.052281  -0.054378 0.034090 0.340413
13  -0.001319 -0.000000 0.060214  -0.823007 -0.196208 0.341559
14  -0.039876 0.060989 0.002159  -0.870776 -0.497282 0.556550
15  0.043265 0.077505 0.036874  -0.000000 0.000000 0.000000
16  0.000000 -0.000000 -0.000000  -0.625484 -0.178750 -0.967976
17  0.020260 0.201078 -0.017731  0.078490 -0.092475 -1.427864
18  0.010537 0.100376 -0.010148  0.155853 1.526583 -0.036193
19  0.018646 0.186860 -0.018292  -0.416125 0.040797 -0.014147
20  -0.032088 0.200172 -0.061335  -0.473233 -0.040745 0.086571
21  0.009279 0.058322 -0.044375  -1.039986 0.060264 -0.104815
22  0.069086 0.193199 -0.059144  -0.076999 0.039817 -0.003637
23  0.008560 0.057627 -0.044090  -1.345242 -0.140898 -0.015986
24  0.102185 0.077529 -0.031768  -0.560579 0.481113 -0.357877
25  0.038420 0.022931 -0.000959  0.051189 0.823009 0.391510
26  -0.039647 -0.056266 0.002069  0.254767 -0.520903 -0.172878
27  0.042761 -0.082398 0.038132  0.000000 -0.000000 0.000000
28  -0.000000 -0.000000 0.000000  -0.337618 0.440401 -0.631701
29  0.020122 -0.201078 -0.017893  -0.149872 -0.080229 2.178982
30  0.010469 -0.100374 -0.010235  -0.025551 0.312344 0.026802
31  0.018520 -0.186856 -0.018449  -1.515459 -0.113531 0.082832
32  -0.032222 -0.200100 -0.061496  0.232925 0.089111 -0.115980
33  0.009310 -0.057389 -0.045571  0.221651 0.032212 0.016760
34  0.068956 -0.193197 -0.059302  -0.128861 -0.021676 0.098654
35  0.008683 -0.056713 -0.045241  0.552250 0.048601 0.046680
36  0.102133 -0.077572 -0.031829  0.642316 0.668149 0.631027
37  0.034314 -0.028672 -0.001806  0.000000 0.000000 0.000000
38  0.001143 0.000000 -0.181958  0.157616 -0.379313 -0.021294
39  0.004961 -0.000269 -0.096018  -0.407064 -0.084816 -0.227363
40  -0.011623 0.003704 -0.088948  -0.346472 -0.104413 -0.263814
41  -0.007644 0.000000 -0.210641  0.137539 0.201319 -0.278502
time 18
0  0 0 0  0 0 0
1  0.000000 0.000010 0.000000  -1.570796 -0.000000 0.000000
2  0.000000 0.000000 0.000000  0.000000 -0.000000 0.000000
3  0.000000 0.000000 0.000000  0.000000 -0.000000 0.000000
4  0.006445 -0.000000 0.753335  0.000000 -0.000000 0.000000
5  -0.032149 0.041100 -0.025800  0.209476 0.224673 0.729975
6  -0.000000 -0.000000 0.000000  -0.000775 -0.105034 -0.007355
7  -0.000000 0.000000 0.000000  -0.002550 0.093956 0.194386
8  0.002937 -0.000000 0.194891  -0.138141 0.165128 0.223126
9  0.003500 -0.000000 0.083408  0.340921 0.289787 0.368809
10  -0.012239 0.000000 0.122389  0.092762 0.147087 0.308195
11  0.000267 0.000000 0.055138  -0.084241 0.120765 0.360366
12  0.003234 -0.000000 0.052281  -0.056878 0.032994 0.354976
13  -0.001319 -0.000000 0.060214  -0.845531 -0.195416 0.381743
14  -0.039876 0.060989 0.002159  -0.875347 -0.502971 0.559517
15  0.043265 0.077505 0.036875  0.000000 -0.000000 -0.000000
16  -0.000000 -0.000000 0.000000  -0.536907 -0.070833 -0.841511
17  0.020260 0.201078 -0.017731  0.089012 -0.093936 -1.537307
18  0.010537 0.100376 -0.010148  0.159743 1.529137 -0.032553
19  0.018645 0.186860 -0.018292  -0.256145 0.025850 -0.006705
20  -0.032087 0.200172 -0.061335  -0.363678 -0.026160 0.170992
21  0.009278 0.058322 -0.044375  -0.952064 0.062338 -0.095455
22  0.069086 0.193199 -0.059144  0.160836 0.021841 0.006166
23  0.008560 0.057628 -0.044090  -0.957504 -0.081802 -0.020119
24  0.102185 0.077529 -0.031768  -0.560579 0.481113 -0.357877
25  0.038420 0.022931 -0.000959  0.036523 0.603310 0.294906
26  -0.039647 -0.056266 0.002069  0.255457 -0.522752 -0.172495
27  0.042761 -0.082398 0.038132  -0.000000 -0.000000 -0.000000
28  0.000000 -0.000000 -0.000000  -0.327323 0.386403 -0.613096
29  0.020122 -0.201078 -0.017893  -0.145460 -0.082818 2.126755
30  0.010469 -0.100374 -0.010236  -0.024213 0.293486 0.025359
31  0.018520 -0.186856 -0.018450  -1.528810 -0.113785 0.084187
32  -0.032222 -0.200100 -0.061496  0.209399 0.108279 -0.152838
33  0.009310 -0.057389 -0.045571  0.151545 0.027216 0.011047
34  0.068956 -0.193197 -0.059302  -0.208034 -0.029724 0.098604
35  0.008683 -0.056712 -0.045241  0.462977 0.044993 0.037988
36  0.102133 -0.077572 -0.031830  0.673375 0.612189 0.671592
37  0.034314 -0.028672 -0.001806  0.000000 0.000000 0.000000
38  0.001143 0.000000 -0.181958  0.149248 -0.392698 -0.021133
39  0.004961 -0.000269 -0.096018  -0.400286 -0.084419 -0.237549
40  -0.011623 0.003704 -0.088948  -0.326047 -0.125565 -0.270947
41  -0.007644 0.000000 -0.210641  0.121698 0.209512 -0.289163
time 19
0  0 0 0  0 0 0
1  0.000000 0.000010 0.000000  -1.570796 -0.000000 0.000000
2  0.000000 0.000000 0.000000  0.000000 -0.000000 0.000000
3  0.000000 0.000000 0.000000  0.000000 -0.000000 0.000000
4  0.006445 -0.000000 0.753335  0.000000 -0.000000 0.000000
5  -0.032635 0.035165 -0.028913  0.214736 0.234202 0.697298
6  -0.000000 0.000000 0.000000  -0.000775 -0.105034 -0.007355
7  -0.000000 0.000000 0.000000  -0.001931 0.096481 0.200097
8  0.002937 -0.000000 0.194891  -0.149994 0.168009 0.231372
9  0.003500 0.000000 0.083408  0.336176 0.290333 0.375727
10  -0.012239 -0.000000 0.122389  0.100054 0.150094 0.318638
11  0.000267 -0.000000 0.055137  -0.090082 0.130669 0.375582
12  0.003234 -0.000000 0.052281  -0.059394 0.031935 0.369543
13  -0.001319 -0.000000 0.060214  -0.867997 -0.193738 0.421885
14  -0.039876 0.060989 0.002159  -0.879951 -0.508648 0.562524
15  0.043265 0.077505 0.036874  -0.000000 -0.000000 0.000000
16  -0.000000 0.000000 -0.000000  -0.435843 0.024562 -0.706561
17  0.020259 0.201078 -0.017731  0.099627 -0.094243 -1.646715
18  0.010537 0.100376 -0.010148  0.164127 1.531691 -0.028422
19  0.018645 0.186860 -0.018292  -0.096497 0.009926 -0.001744
20  -0.032088 0.200172 -0.061335  -0.253403 -0.020928 0.256409
21  0.009278 0.058322 -0.044375  -0.864145 0.063584 -0.085952
22  0.069086 0.193199 -0.059144  0.397870 0.002110 0.011450
23  0.008560 0.057628 -0.044090  -0.573669 -0.025855 -0.001780
24  0.102185 0.077529 -0.031768  -0.560579 0.481113 -0.357877
25  0.038420 0.022931 -0.000959  0.046177 0.384008 0.212762
26  -0.039647 -0.056266 0.002069  0.256146 -0.524601 -0.172112
27  0.042761 -0.082398 0.038132  0.000000 -0.000000 0.000000
28  0.000000 -0.000000 0.000000  -0.318300 0.332251 -0.595456
29  0.020122 -0.201078 -0.017893  -0.140917 -0.085174 2.074512
30  0.010469 -0.100374 -0.010236  -0.022854 0.274631 0.023897
31  0.018520 -0.186856 -0.018449  -1.542163 -0.114021 0.085545
32  -0.032222 -0.200101 -0.061496  0.185127 0.126564 -0.190217
33  0.009310 -0.057389 -0.045571  0.081493 0.021835 0.005699
34  0.068956 -0.193197 -0.059302  -0.287208 -0.037747 0.099191
35  0.008683 -0.056712 -0.045241  0.373784 0.040627 0.029658
36  0.102133 -0.077572 -0.031829  0.700599 0.555316 0.708604
37  0.034314 -0.028672 -0.001806  -0.000000 -0.000000 -0.000000
38  0.001143 0.000000 -0.181958  0.140831 -0.406081 -0.020848
39  0.004961 -0.000269 -0.096018  -0.393513 -0.083953 -0.247732
40  -0.011623 0.003704 -0.088948  -0.305411 -0.146567 -0.278536
41  -0.007644 0.000000 -0.210641  0.105741 0.217537 -0.299974
time 20
0  0 0 0  0 0 0
1  0.000000 0.000010 0.000000  -1.570796 -0.000000 0.000000
2  0.000000 0.000000 0.000000  0.000000 -0.000000 0.000000
3  0.000000 0.000000 0.000000  0.000000 -0.000000 0.000000
4  0.006445 -0.000000 0.753335  0.000000 -0.000000 0.000000
5  -0.034845 0.030466 -0.031743  0.232583 0.240043 0.703013
6  0.000000 -0.000000 -0.000000  -0.000775 -0.105034 -0.007355
7  -0.000000 -0.000000 0.000000  -0.001418 0.098678 0.201967
8  0.002937 -0.000000 0.194891  -0.160112 0.167797 0.235400
9  0.003500 0.000000 0.083408  0.326419 0.288193 0.376865
10  -0.012239 0.000000 0.122389  0.106151 0.152246 0.324161
11  0.000267 -0.000000 0.055137  -0.093418 0.134815 0.384384
12  0.003234 -0.000000 0.052281  -0.061300 0.031315 0.378063
13  -0.001318 -0.000000 0.060214  -0.882542 -0.190086 0.457349
14  -0.039876 0.060989 0.002159  -0.873045 -0.500111 0.558009
15  0.043265 0.077505 0.036874  0.000000 -0.000000 -0.000000
16  0.000000 -0.000000 0.000000  -0.358522 0.084181 -0.609164
17  0.020260 0.201078 -0.017731  0.106244 -0.093849 -1.714997
18  0.010537 0.100376 -0.010148  0.138753 1.510783 -0.051730
19  0.018646 0.186860 -0.018292  0.029549 -0.003064 0.000341
20  -0.032087 0.200172 -0.061335  -0.149555 0.001188 0.342540
21  0.009278 0.058322 -0.044375  -0.782570 0.063993 -0.077071
22  0.069086 0.193199 -0.059144  0.603227 -0.015583 0.012166
23  0.008560 0.057628 -0.044090  -0.292310 0.008526 -0.004145
24  0.102185 0.077529 -0.031768  -0.560579 0.481113 -0.357877
25  0.038420 0.022931 -0.000959  0.015523 0.175217 0.096140
26  -0.039647 -0.056266 0.002069  0.252494 -0.514831 -0.174158
27  0.042761 -0.082398 0.038132  -0.000000 -0.000000 -0.000000
28  -0.000000 -0.000000 -0.000000  -0.278662 0.331231 -0.595444
29  0.020122 -0.201078 -0.017893  -0.139879 -0.085671 2.062760
30  0.010469 -0.100374 -0.010236  -0.023094 0.278083 0.024168
31  0.018520 -0.186856 -0.018449  -1.563476 -0.114334 0.087697
32  -0.032222 -0.200101 -0.061496  0.159727 0.151617 -0.236974
33  0.009310 -0.057389 -0.045571  -0.013722 0.013956 -0.000935
34  0.068956 -0.193197 -0.059302  -0.379902 -0.047715 0.101148
35  0.008683 -0.056712 -0.045241  0.252654 0.033521 0.019014
36  0.102133 -0.077572 -0.031830  0.734555 0.486269 0.756400
37  0.034314 -0.028672 -0.001806  0.000000 -0.000000 0.000000
38  0.001143 0.000000 -0.181958  0.128063 -0.405030 -0.018775
39  0.004961 -0.000269 -0.096018  -0.394612 -0.100745 -0.248448
40  -0.011623 0.003704 -0.088948  -0.296162 -0.161878 -0.281033
41  -0.007644 0.000000 -0.210641  0.091929 0.224159 -0.305650
time 21
0  0 0 0  0 0 0
1  0.000000 0.000010 0.000000  -1.570796 -0.000000 0.000000
2  0.000000 0.000000 0.000000  0.000000 -0.000000 0.000000
3  0.000000 0.000000 0.000000  0.000000 -0.000000 0.000000
4  0.006445 -0.000000 0.753335  0.000000 -0.000000 0.000000
5  -0.037532 0.025857 -0.034589  0.253941 0.244898 0.718476
6  0.000000 -0.000000 -0.000000  -0.000775 -0.105034 -0.007355
7  -0.000000 -0.000000 0.000000  -0.000975 0.100793 0.202607
8  0.002937 0.000000 0.194891  -0.169600 0.166620 0.238087
9  0.003500 0.000000 0.083408  0.315180 0.285239 0.376228
10  -0.012239 -0.000000 0.122389  0.111905 0.154084 0.328137
11  0.000267 -0.000000 0.055138  -0.095949 0.137145 0.391135
12  0.003234 -0.000000 0.052281  -0.062987 0.030847 0.384652
13  -0.001319 0.000000 0.060214  -0.894490 -0.185595 0.491076
14  -0.039876 0.060989 0.002159  -0.863276 -0.487836 0.551704
15  0.043265 0.077505 0.036874  -0.000000 -0.000000 -0.000000
16  0.000000 -0.000000 -0.000000  -0.296619 0.122065 -0.528771
17  0.020260 0.201078 -0.017731  0.111188 -0.093257 -1.766270
18  0.010537 0.100376 -0.010148  0.125781 1.489398 -0.062591
19  0.018645 0.186860 -0.018292  0.133074 -0.013856 0.000821
20  -0.032087 0.200172 -0.061335  -0.056971 0.017820 0.420476
21  0.009278 0.058322 -0.044375  -0.711194 0.063763 -0.069302
22  0.069086 0.193199 -0.059144  0.783342 -0.030937 0.009809
23  0.008561 0.057627 -0.044090  -0.067733 0.037755 -0.006723
24  0.102185 0.077529 -0.031768  -0.559139 0.480141 -0.356426
25  0.038420 0.022931 -0.000959  -0.001894 -0.011495 -0.007291
26  -0.039647 -0.056266 0.002069  0.247706 -0.502061 -0.176869
27  0.042761 -0.082398 0.038132  0.000000 -0.000000 -0.000000
28  0.000000 -0.000000 0.000000  -0.231606 0.343261 -0.599952
29  0.020122 -0.201078 -0.017893  -0.139707 -0.085752 2.060826
30  0.010469 -0.100374 -0.010235  -0.023729 0.287060 0.024866
31  0.018520 -0.186856 -0.018449  -1.587087 -0.114625 0.090087
32  -0.032222 -0.200100 -0.061496  0.134975 0.175283 -0.282655
33  0.009310 -0.057389 -0.045571  -0.106570 0.005706 -0.006651
34  0.068956 -0.193197 -0.059302  -0.468537 -0.057170 0.103940
35  0.008683 -0.056712 -0.045241  0.134531 0.025400 0.009532
36  0.102133 -0.077572 -0.031830  0.764287 0.419399 0.799950
37  0.034314 -0.028672 -0.001806  0.000000 0.000000 0.000000
38  0.001143 0.000000 -0.181958  0.114522 -0.400471 -0.016393
39  0.004961 -0.000269 -0.096018  -0.398060 -0.122005 -0.246309
40  -0.011623 0.003704 -0.088948  -0.289605 -0.176254 -0.281889
41  -0.007644 0.000000 -0.210641  0.078478 0.230471 -0.309790
time 22
0  0 0 0  0 0 0
1  0.000000 0.000010 0.000000  -1.570796 -0.000000 0.000000
2  0.000000 0.000000 0.000000  0.000000 -0.000000 0.000000
3  0.000000 0.000000 0.000000  0.000000 -0.000000 0.000000
4  0.006445 -0.000000 0.753335  0.000000 -0.000000 0.000000
5  -0.040938 0.020084 -0.037849  0.280516 0.249245 0.744668
6  0.000000 0.000000 0.000000  -0.000775 -0.105034 -0.007355
7  0.000000 -0.000000 0.000000  -0.001044 0.102872 0.199690
8  0.002937 0.000000 0.194891  -0.176628 0.162637 0.237003
9  0.003500 0.000000 0.083408  0.300421 0.280352 0.370756
10  -0.012239 0.000000 0.122389  0.117000 0.154861 0.327795
11  0.000267 -0.000000 0.055138  -0.096129 0.134432 0.391998
12  0.003234 0.000000 0.052281  -0.063955 0.030814 0.385687
13  -0.001318 0.000000 0.060214  -0.899540 -0.179630 0.518484
14  -0.039876 0.060989 0.002159  -0.849855 -0.470604 0.543221
15  0.043265 0.077505 0.036874  -0.000000 -0.000000 -0.000000
16  -0.000000 -0.000000 -0.000000  -0.318926 0.098390 -0.508012
17  0.020260 0.201078 -0.017731  0.111399 -0.093226 -1.768466
18  0.010537 0.100376 -0.010148  0.125789 1.489139 -0.062567
19  0.018645 0.186860 -0.018292  0.154172 -0.016058 0.000782
20  -0.032088 0.200172 -0.061335  -0.038046 0.020138 0.435062
21  0.009278 0.058322 -0.044375  -0.696434 0.063661 -0.067717
22  0.069086 0.193199 -0.059144  0.849897 -0.036477 0.008243
23  0.008561 0.057628 -0.044090  -0.038347 0.043905 -0.009628
24  0.102185 0.077529 -0.031768  -0.554357 0.476890 -0.351606
25  0.038420 0.022931 -0.000959  -0.007607 -0.049911 -0.031462
26  -0.039647 -0.056266 0.002069  0.241515 -0.485644 -0.180399
27  0.042761 -0.082398 0.038132  0.000000 -0.000000 0.000000
28  0.000000 -0.000000 0.000000  -0.178090 0.372354 -0.612655
29  0.020122 -0.201078 -0.017893  -0.140341 -0.085452 2.067986
30  0.010469 -0.100374 -0.010235  -0.024975 0.304405 0.026199
31  0.018520 -0.186856 -0.018450  -1.612640 -0.114875 0.092679
32  -0.032223 -0.200101 -0.061496  0.122857 0.186232 -0.303721
33  0.009310 -0.057389 -0.045571  -0.148531 0.001850 -0.008961
34  0.068955 -0.193197 -0.059302  -0.510840 -0.061732 0.105447
35  0.008683 -0.056712 -0.045241  0.081046 0.021389 0.005581
36  0.102133 -0.077572 -0.031829  0.781136 0.390673 0.821784
37  0.034314 -0.028672 -0.001806  0.000000 0.000000 0.000000
38  0.001143 0.000000 -0.181958  0.101651 -0.391503 -0.013964
39  0.004961 -0.000269 -0.096018  -0.405993 -0.148775 -0.237787
40  -0.011623 0.003704 -0.088948  -0.285570 -0.191579 -0.277954
41  -0.007644 0.000000 -0.210641  0.065364 0.235784 -0.309577
time 23
0  0 0 0  0 0 0
1  0.000000 0.000010 0.000000  -1.570796 -0.000000 0.000000
2  0.000000 0.000000 0.000000  0.000000 -0.000000 0.000000
3  0.000000 0.000000 0.000000  0.000000 -0.000000 0.000000
4  0.006445 -0.000000 0.753335  0.000000 -0.000000 0.000000
5  -0.044441 0.013565 -0.041205  0.308712 0.252660 0.772615
6  -0.000000 0.000000 0.000000  -0.000775 -0.105034 -0.007355
7  -0.000000 -0.000000 0.000000  -0.001652 0.105040 0.194290
8  0.002937 0.000000 0.194891  -0.181583 0.156622 0.233451
9  0.003500 0.000000 0.083408  0.283505 0.274271 0.362089
10  -0.012239 -0.000000 0.122389  0.121849 0.154813 0.324517
11  0.000267 -0.000000 0.055137  -0.094643 0.128372 0.388768
12  0.003234 -0.000000 0.052281  -0.064451 0.031085 0.382839
13  -0.001319 0.000000 0.060214  -0.899791 -0.172723 0.540727
14  -0.039876 0.060989 0.002159  -0.835795 -0.452014 0.534476
15  0.043265 0.077505 0.036874  -0.000000 -0.000000 0.000000
16  0.000000 -0.000000 0.000000  -0.374258 0.060912 -0.484031
17  0.020260 0.201078 -0.017731  0.110672 -0.093331 -1.760906
18  0.010537 0.100376 -0.010148  0.125578 1.488775 -0.062740
19  0.018645 0.186860 -0.018292  0.170383 -0.017762 0.000720
20  -0.032087 0.200172 -0.061335  -0.049405 0.018780 0.426305
21  0.009278 0.058322 -0.044375  -0.705290 0.063725 -0.068668
22  0.069086 0.193199 -0.059144  0.885365 -0.039387 0.007258
23  0.008560 0.057627 -0.044090  -0.010701 0.037226 -0.004344
24  0.102185 0.077529 -0.031768  -0.557223 0.478843 -0.354495
25  0.038420 0.022931 -0.000959  -0.004290 -0.026845 -0.016983
26  -0.039647 -0.056266 0.002069  0.235140 -0.468780 -0.184156
27  0.042761 -0.082398 0.038132  -0.000000 -0.000000 0.000000
28  0.000000 -0.000000 0.000000  -0.122097 0.412683 -0.626550
29  0.020122 -0.201078 -0.017893  -0.141056 -0.085106 2.076097
30  0.010469 -0.100374 -0.010235  -0.026656 0.327866 0.027973
31  0.018520 -0.186856 -0.018449  -1.635039 -0.115042 0.094957
32  -0.032222 -0.200101 -0.061496  0.116871 0.190018 -0.311621
33  0.009310 -0.057389 -0.045571  -0.162350 0.000556 -0.009687
34  0.068955 -0.193197 -0.059302  -0.528893 -0.063668 0.105984
35  0.008683 -0.056712 -0.045241  0.063496 0.020017 0.004326
36  0.102133 -0.077572 -0.031829  0.789689 0.381438 0.830849
37  0.034314 -0.028672 -0.001806  0.000000 0.000000 0.000000
38  0.001143 0.000000 -0.181958  0.089507 -0.379684 -0.011632
39  0.004961 -0.000269 -0.096018  -0.415472 -0.176418 -0.225606
40  -0.011623 0.003704 -0.088948  -0.282409 -0.206892 -0.270969
41  -0.007644 0.000000 -0.210641  0.053353 0.239124 -0.306315
time 24
0  0 0 0  0 0 0
1  0.000000 0.000010 0.000000  -1.570796 -0.000000 0.000000
2  0.000000 0.000000 0.000000  0.000000 -0.000000 0.000000
3  0.000000 0.000000 0.000000  0.000000 -0.000000 0.000000
4  0.006445 -0.000000 0.753335  0.000000 -0.000000 0.000000
5  -0.047943 0.007046 -0.044562  0.337017 0.255310 0.800670
6  0.000000 -0.000000 -0.000000  -0.000775 -0.105034 -0.007355
7  0.000000 0.000000 -0.000000  -0.002271 0.107203 0.188888
8  0.002937 0.000000 0.194891  -0.186512 0.150589 0.229931
9  0.003500 0.000000 0.083408  0.266674 0.268050 0.353545
10  -0.012239 -0.000000 0.122389  0.126699 0.154782 0.321240
11  0.000267 0.000000 0.055137  -0.093137 0.122318 0.385532
12  0.003234 0.000000 0.052281  -0.064949 0.031354 0.379991
13  -0.001318 -0.000000 0.060214  -0.899886 -0.165813 0.562942
14  -0.039876 0.060989 0.002159  -0.822039 -0.433317 0.526097
15  0.043265 0.077505 0.036874  -0.000000 -0.000000 0.000000
16  0.000000 -0.000000 -0.000000  -0.430373 0.024832 -0.458058
17  0.020260 0.201078 -0.017731  0.109945 -0.093430 -1.753346
18  0.010537 0.100376 -0.010148  0.125367 1.488412 -0.062911
19  0.018646 0.186860 -0.018292  0.186595 -0.019464 0.000631
20  -0.032087 0.200172 -0.061335  -0.060752 0.017323 0.417564
21  0.009278 0.058322 -0.044375  -0.714146 0.063780 -0.069619
22  0.069086 0.193199 -0.059144  0.920838 -0.042261 0.006170
23  0.008560 0.057627 -0.044090  0.016902 0.030404 0.000753
24  0.102185 0.077529 -0.031768  -0.560099 0.480789 -0.357393
25  0.038420 0.022931 -0.000959  -0.000641 -0.003830 -0.002433
26  -0.039647 -0.056266 0.002069  0.228747 -0.451938 -0.188001
27  0.042761 -0.082398 0.038132  -0.000000 -0.000000 -0.000000
28  0.000000 -0.000000 -0.000000  -0.065683 0.453660 -0.638175
29  0.020122 -0.201078 -0.017893  -0.141769 -0.084755 2.084207
30  0.010469 -0.100374 -0.010235  -0.028306 0.351329 0.029720
31  0.018520 -0.186856 -0.018449  -1.657439 -0.115158 0.097238
32  -0.032222 -0.200101 -0.061496  0.110849 0.193758 -0.319550
33  0.009310 -0.057389 -0.045571  -0.176168 -0.000748 -0.010396
34  0.068956 -0.193197 -0.059302  -0.546949 -0.065595 0.106556
35  0.008683 -0.056712 -0.045241  0.045948 0.018623 0.003095
36  0.102133 -0.077572 -0.031830  0.798122 0.372132 0.839797
37  0.034314 -0.028672 -0.001806  0.000000 0.000000 0.000000
38  0.001143 0.000000 -0.181958  0.077449 -0.367841 -0.009465
39  0.004961 -0.000269 -0.096018  -0.425344 -0.203942 -0.213093
40  -0.011623 0.003704 -0.088948  -0.279348 -0.222225 -0.264011
41  -0.007644 0.000000 -0.210641  0.041342 0.242502 -0.303093
time 25
0  0 0 0  0 0 0
1  0.000000 0.000010 0.000000  -1.570796 -0.000000 0.000000
2  0.000000 0.000000 0.000000  0.000000 -0.000000 0.000000
3  0.000000 0.000000 0.000000  0.000000 -0.000000 0.000000
4  0.006445 -0.000000 0.753335  0.000000 -0.000000 0.000000
5  -0.049581 -0.000730 -0.047473  0.361159 0.255032 0.812457
6  0.000000 -0.000000 0.000000  -0.000775 -0.105034 -0.007355
7  0.000000 0.000000 0.000000  -0.004305 0.109810 0.178788
8  0.002937 -0.000000 0.194891  -0.186568 0.140805 0.221922
9  0.003500 0.000000 0.083408  0.246924 0.260289 0.339375
10  -0.012239 -0.000000 0.122389  0.131540 0.152939 0.312738
11  0.000267 -0.000000 0.055137  -0.088719 0.110160 0.374651
12  0.003234 -0.000000 0.052281  -0.064440 0.032188 0.369849
13  -0.001318 -0.000000 0.060214  -0.891470 -0.157871 0.573147
14  -0.039876 0.060989 0.002159  -0.811869 -0.419147 0.520013
15  0.043265 0.077505 0.036874  -0.000000 -0.000000 -0.000000
16  0.000000 0.000000 -0.000000  -0.501027 -0.005903 -0.414854
17  0.020260 0.201078 -0.017731  0.108806 -0.093574 -1.741525
18  0.010536 0.100376 -0.010148  0.132624 1.502025 -0.057000
19  0.018646 0.186860 -0.018292  0.217372 -0.022672 0.000386
20  -0.032088 0.200172 -0.061335  -0.062641 0.017071 0.416110
21  0.009278 0.058322 -0.044375  -0.715622 0.063789 -0.069777
22  0.069086 0.193199 -0.059144  0.932908 -0.042610 0.010174
23  0.008560 0.057627 -0.044090  0.039523 0.027966 0.002862
24  0.102185 0.077529 -0.031768  -0.634340 0.531347 -0.432853
25  0.038420 0.022931 -0.000959  0.000000 0.000000 0.000000
26  -0.039647 -0.056266 0.002069  0.224282 -0.440182 -0.190751
27  0.042761 -0.082398 0.038132  -0.000000 -0.000000 -0.000000
28  0.000000 -0.000000 -0.000000  -0.014785 0.503552 -0.643366
29  0.020122 -0.201078 -0.017893  -0.141488 -0.084894 2.081008
30  0.010469 -0.100374 -0.010235  -0.030748 0.387280 0.032352
31  0.018520 -0.186856 -0.018449  -1.658487 -0.115156 0.097339
32  -0.032222 -0.200101 -0.061496  0.110094 0.192999 -0.318700
33  0.009310 -0.057389 -0.045571  -0.172723 -0.000411 -0.010216
34  0.068956 -0.193197 -0.059302  -0.547135 -0.065606 0.106413
35  0.008683 -0.056712 -0.045241  0.050341 0.018973 0.003400
36  0.102133 -0.077572 -0.031829  0.799203 0.374336 0.839588
37  0.034314 -0.028672 -0.001806  -0.000000 -0.000000 0.000000
38  0.001143 0.000000 -0.181958  0.060132 -0.342142 -0.006383
39  0.004961 -0.000269 -0.096018  -0.424103 -0.233327 -0.197563
40  -0.011623 0.003704 -0.088948  -0.272415 -0.233316 -0.253016
41  -0.007644 0.000000 -0.210641  0.032512 0.242828 -0.294076
time 26
0  0 0 0  0 0 0
1  0.000000 0.000010 0.000000  -1.570796 -0.000000 0.000000
2  0.000000 0.000000 0.000000  0.000000 -0.000000 0.000000
3  0.000000 0.000000 0.000000  0.000000 -0.000000 0.000000
4  0.006445 -0.000000 0.753335  0.000000 -0.000000 0.000000
5  -0.050846 -0.008757 -0.050295  0.384450 0.254083 0.820960
6  0.000000 -0.000000 0.000000  -0.000775 -0.105034 -0.007355
7  -0.000000 0.000000 0.000000  -0.006649 0.112482 0.167740
8  0.002937 0.000000 0.194891  -0.185567 0.130281 0.213012
9  0.003500 0.000000 0.083408  0.226737 0.251961 0.324252
10  -0.012239 0.000000 0.122389  0.136397 0.150773 0.303183
11  0.000267 0.000000 0.055137  -0.083574 0.096838 0.362195
12  0.003234 -0.000000 0.052281  -0.063739 0.033142 0.358248
13  -0.001319 -0.000000 0.060214  -0.881322 -0.149794 0.581021
14  -0.039876 0.060989 0.002159  -0.802506 -0.405848 0.514502
15  0.043265 0.077505 0.036874  -0.000000 0.000000 0.000000
16  0.000000 0.000000 -0.000000  -0.575847 -0.032563 -0.366435
17  0.020259 0.201078 -0.017731  0.107583 -0.093714 -1.728850
18  0.010537 0.100376 -0.010148  0.145934 1.518428 -0.045312
19  0.018646 0.186860 -0.018292  0.251072 -0.026173 0.000004
20  -0.032087 0.200172 -0.061335  -0.062641 0.017071 0.416109
21  0.009278 0.058322 -0.044375  -0.715622 0.063789 -0.069777
22  0.069086 0.193199 -0.059144  0.940300 -0.042494 0.015209
23  0.008560 0.057627 -0.044090  0.061152 0.026389 0.004365
24  0.102185 0.077529 -0.031768  -0.731606 0.584809 -0.531536
25  0.038420 0.022931 -0.000959  0.000000 0.000000 -0.000000
26  -0.039647 -0.056266 0.002069  0.220196 -0.429448 -0.193305
27  0.042761 -0.082398 0.038132  -0.000000 -0.000000 -0.000000
28  0.000000 0.000000 0.000000  0.036172 0.555332 -0.644894
29  0.020122 -0.201078 -0.017893  -0.141008 -0.085130 2.075547
30  0.010469 -0.100374 -0.010236  -0.033283 0.425744 0.035108
31  0.018520 -0.186856 -0.018449  -1.655266 -0.115135 0.097004
32  -0.032222 -0.200100 -0.061496  0.110392 0.191346 -0.316091
33  0.009310 -0.057389 -0.045571  -0.165825 0.000252 -0.009857
34  0.068956 -0.193197 -0.059302  -0.543747 -0.065236 0.106124
35  0.008683 -0.056712 -0.045241  0.059123 0.019669 0.004015
36  0.102133 -0.077572 -0.031829  0.798819 0.378851 0.837558
37  0.034314 -0.028672 -0.001806  0.000000 0.000000 0.000000
38  0.001143 0.000000 -0.181958  0.042004 -0.313622 -0.003634
39  0.004961 -0.000269 -0.096018  -0.421023 -0.263153 -0.181453
40  -0.011623 0.003704 -0.088948  -0.264793 -0.243637 -0.241257
41  -0.007644 0.000000 -0.210641  0.024316 0.242613 -0.283894
time 27
0  0 0 0  0 0 0
1  0.000000 0.000010 0.000000  -1.570796 -0.000000 0.000000
2  0.000000 0.000000 0.000000  0.000000 -0.000000 0.000000
3  0.000000 0.000000 0.000000  0.000000 -0.000000 0.000000
4  0.006445 -0.000000 0.753335  0.000000 -0.000000 0.000000
5  -0.051203 -0.017124 -0.052857  0.404737 0.251715 0.819917
6  0.000000 0.000000 0.000000  -0.000775 -0.105034 -0.007355
7  -0.000000 -0.000000 -0.000000  -0.009529 0.115338 0.155413
8  0.002937 -0.000000 0.194891  -0.182928 0.118761 0.202990
9  0.003500 0.000000 0.083408  0.206201 0.243170 0.307913
10  -0.012239 0.000000 0.122389  0.141392 0.148060 0.292268
11  0.000267 -0.000000 0.055137  -0.077574 0.082021 0.347662
12  0.003234 -0.000000 0.052281  -0.062742 0.034257 0.344705
13  -0.001319 -0.000000 0.060214  -0.868955 -0.141696 0.585099
14  -0.039876 0.060989 0.002159  -0.794913 -0.394912 0.510097
15  0.043265 0.077505 0.036874  0.000000 -0.000000 0.000000
16  -0.000000 0.000000 0.000000  -0.640999 -0.053717 -0.314258
17  0.020260 0.201078 -0.017731  0.106255 -0.093847 -1.715111
18  0.010537 0.100376 -0.010148  0.193944 1.543302 0.000254
19  0.018646 0.186860 -0.018292  0.278340 -0.029012 -0.000391
20  -0.032087 0.200172 -0.061335  -0.031800 0.034298 0.400975
21  0.009278 0.058322 -0.044375  -0.688165 0.063566 -0.066795
22  0.069086 0.193200 -0.059144  0.938402 -0.041767 0.019782
23  0.008560 0.057628 -0.044090  0.082497 0.024800 0.005815
24  0.102185 0.077529 -0.031768  -0.840294 0.632707 -0.642161
25  0.038420 0.022931 -0.000959  0.000000 -0.000000 0.000000
26  -0.039647 -0.056266 0.002069  0.217003 -0.421138 -0.195281
27  0.042761 -0.082398 0.038132  0.000000 -0.000000 -0.000000
28  0.000000 -0.000000 -0.000000  0.084504 0.604868 -0.641019
29  0.020122 -0.201078 -0.017893  -0.140135 -0.085550 2.065657
30  0.010469 -0.100374 -0.010235  -0.035997 0.467812 0.038049
31  0.018520 -0.186856 -0.018450  -1.642267 -0.115069 0.095679
32  -0.032222 -0.200101 -0.061496  0.111928 0.189343 -0.312496
33  0.009310 -0.057389 -0.045571  -0.157888 0.001006 -0.009441
34  0.068956 -0.193197 -0.059302  -0.537334 -0.064528 0.105797
35  0.008683 -0.056712 -0.045241  0.069197 0.020461 0.004729
36  0.102133 -0.077572 -0.031829  0.796668 0.384076 0.834131
37  0.034314 -0.028672 -0.001806  -0.000000 0.000000 0.000000
38  0.001143 0.000000 -0.181958  0.019812 -0.277517 -0.000992
39  0.004961 -0.000269 -0.096018  -0.410136 -0.295723 -0.165882
40  -0.011623 0.003704 -0.088948  -0.254242 -0.251497 -0.229029
41  -0.007644 0.000000 -0.210641  0.016580 0.242645 -0.272313
time 28
0  0 0 0  0 0 0
1  0.000000 0.000010 0.000000  -1.570796 -0.000000 0.000000
2  0.000000 0.000000 0.000000  0.000000 -0.000000 0.000000
3  0.000000 0.000000 0.000000  0.000000 -0.000000 0.000000
4  0.006445 -0.000000 0.753335  0.000000 -0.000000 0.000000
5  -0.048101 -0.026538 -0.054353  0.413733 0.245028 0.784055
6  -0.000000 -0.000000 -0.000000  -0.000775 -0.105034 -0.007355
7  -0.000000 0.000000 0.000000  -0.014095 0.118914 0.139142
8  0.002937 -0.000000 0.194891  -0.175095 0.104041 0.189519
9  0.003500 0.000000 0.083408  0.184461 0.233698 0.287450
10  -0.012239 -0.000000 0.122389  0.146951 0.143476 0.277249
11  0.000267 -0.000000 0.055137  -0.069230 0.062460 0.326766
12  0.003234 -0.000000 0.052281  -0.060788 0.035826 0.325072
13  -0.001319 -0.000000 0.060214  -0.849796 -0.133596 0.576557
14  -0.039876 0.060989 0.002159  -0.792299 -0.391142 0.508594
15  0.043265 0.077505 0.036874  -0.000000 -0.000000 0.000000
16  0.000000 0.000000 -0.000000  -0.672360 -0.082397 -0.280103
17  0.020260 0.201078 -0.017731  0.101244 -0.094188 -1.663377
18  0.010537 0.100376 -0.010148  0.012241 1.602069 -0.187171
19  0.018646 0.186860 -0.018292  0.281514 -0.029351 -0.000443
20  -0.032088 0.200172 -0.061335  0.058653 0.085698 0.340467
21  0.009278 0.058322 -0.044375  -0.582704 0.061954 -0.055428
22  0.069086 0.193200 -0.059144  0.888790 -0.037978 0.018096
23  0.008560 0.057628 -0.044090  0.104640 0.023112 0.007287
24  0.102185 0.077529 -0.031768  -0.932387 0.667558 -0.736686
25  0.038420 0.022931 -0.000959  0.000000 0.000000 0.000000
26  -0.039647 -0.056266 0.002069  0.216653 -0.420284 -0.195450
27  0.042761 -0.082398 0.038132  -0.000000 -0.000000 0.000000
28  0.000000 -0.000000 0.000000  0.120530 0.643187 -0.626927
29  0.020122 -0.201078 -0.017893  -0.138092 -0.086492 2.042692
30  0.010469 -0.100374 -0.010235  -0.039345 0.521434 0.041704
31  0.018520 -0.186856 -0.018449  -1.594766 -0.114685 0.090847
32  -0.032223 -0.200101 -0.061496  0.117210 0.187088 -0.307124
33  0.009310 -0.057389 -0.045571  -0.150195 0.001715 -0.009040
34  0.068956 -0.193197 -0.059302  -0.523219 -0.063012 0.105494
35  0.008683 -0.056712 -0.045241  0.078938 0.021222 0.005427
36  0.102133 -0.077572 -0.031829  0.789166 0.389314 0.827344
37  0.034314 -0.028672 -0.001806  -0.000000 0.000000 0.000000
38  0.001143 0.000000 -0.181958  -0.017735 -0.215328 0.001604
39  0.004961 -0.000269 -0.096018  -0.368103 -0.338336 -0.154447
40  -0.011623 0.003704 -0.088948  -0.232198 -0.250125 -0.215767
41  -0.007644 0.000000 -0.210641  0.008635 0.242628 -0.256640
time 29
0  0 0 0  0 0 0
1  0.000000 0.000010 0.000000  -1.570796 -0.000000 0.000000
2  0.000000 0.000000 0.000000  0.000000 -0.000000 0.000000
3  0.000000 0.000000 0.000000  0.000000 -0.000000 0.000000
4  0.006445 -0.000000 0.753335  0.000000 -0.000000 0.000000
5  -0.043358 -0.036316 -0.055301  0.417718 0.236570 0.732491
6  -0.000000 -0.000000 0.000000  -0.000775 -0.105034 -0.007355
7  -0.000000 0.000000 -0.000000  -0.019355 0.122755 0.121453
8  0.002937 -0.000000 0.194891  -0.165093 0.088207 0.174751
9  0.003500 0.000000 0.083408  0.162619 0.223802 0.265744
10  -0.012239 -0.000000 0.122389  0.152869 0.138239 0.260829
11  0.000267 -0.000000 0.055138  -0.059759 0.041358 0.303492
12  0.003234 0.000000 0.052281  -0.058510 0.037568 0.303235
13  -0.001319 0.000000 0.060215  -0.828278 -0.125477 0.563191
14  -0.039876 0.060989 0.002159  -0.791338 -0.389744 0.508046
15  0.043265 0.077505 0.036874  -0.000000 -0.000000 0.000000
16  0.000000 0.000000 -0.000000  -0.691200 -0.124252 -0.268116
17  0.020260 0.201078 -0.017731  0.092735 -0.094175 -1.575731
18  0.010537 0.100376 -0.010148  0.076721 1.677078 -0.130067
19  0.018646 0.186860 -0.018292  0.273452 -0.028485 -0.000314
20  -0.032088 0.200172 -0.061335  0.145364 0.140147 0.265964
21  0.009278 0.058322 -0.044375  -0.454063 0.058387 -0.041890
22  0.069086 0.193199 -0.059144  0.809990 -0.032865 0.010778
23  0.008560 0.057628 -0.044090  0.128134 0.021282 0.008811
24  0.102185 0.077529 -0.031768  -0.997596 0.688245 -0.803729
25  0.038420 0.022931 -0.000959  0.000000 -0.000000 0.000000
26  -0.039647 -0.056266 0.002069  0.217343 -0.422055 -0.195027
27  0.042761 -0.082398 0.038132  -0.000000 -0.000000 0.000000
28  0.000000 0.000000 0.000000  0.152427 0.674489 -0.608029
29  0.020122 -0.201078 -0.017893  -0.135647 -0.087546 2.015508
30  0.010469 -0.100374 -0.010235  -0.042787 0.579405 0.045564
31  0.018520 -0.186856 -0.018450  -1.532305 -0.113822 0.084521
32  -0.032222 -0.200101 -0.061496  0.123755 0.185266 -0.301955
33  0.009310 -0.057389 -0.045571  -0.144821 0.002198 -0.008762
34  0.068956 -0.193197 -0.059302  -0.507452 -0.061360 0.105305
35  0.008683 -0.056712 -0.045241  0.085760 0.021753 0.005922
36  0.102133 -0.077572 -0.031829  0.779819 0.393109 0.819970
37  0.034314 -0.028672 -0.001806  -0.000000 -0.000000 -0.000000
38  0.001143 0.000000 -0.181958  -0.061801 -0.142133 0.001627
39  0.004961 -0.000269 -0.096018  -0.310765 -0.385738 -0.147682
40  -0.011623 0.003704 -0.088948  -0.204656 -0.244766 -0.202377
41  -0.007644 0.000000 -0.210641  -0.000450 0.242276 -0.239667
time 30
0  0 0 0  0 0 0
1  0.000000 0.000010 0.000000  -1.570796 -0.000000 0.000000
2  0.000000 0.000000 0.000000  0.000000 -0.000000 0.000000
3  0.000000 0.000000 0.000000  0.000000 -0.000000 0.000000
4  0.006445 -0.000000 0.753335  0.000000 -0.000000 0.000000
5  -0.031074 -0.048588 -0.054000  0.396645 0.219304 0.604947
6  -0.000000 0.000000 0.000000  -0.000775 -0.105034 -0.007355
7  0.000000 0.000000 -0.000000  -0.031145 0.128776 0.082415
8  0.002937 0.000000 0.194891  -0.132897 0.054809 0.140245
9  0.003500 0.000000 0.083408  0.127880 0.206548 0.219097
10  -0.012239 0.000000 0.122389  0.158691 0.124651 0.220593
11  0.000267 0.000000 0.055138  -0.037688 -0.007654 0.245790
12  0.003234 -0.000000 0.052281  -0.051573 0.041738 0.248270
13  -0.001319 0.000000 0.060214  -0.767256 -0.114894 0.494660
14  -0.039876 0.060989 0.002159  -0.789690 -0.387302 0.507089
15  0.043265 0.077505 0.036874  0.000000 -0.000000 -0.000000
16  0.000000 0.000000 0.000000  -0.639446 -0.130598 -0.259333
17  0.020260 0.201078 -0.017731  0.087115 -0.093758 -1.517685
18  0.010537 0.100376 -0.010148  0.083193 1.704090 -0.126253
19  0.018646 0.186860 -0.018292  0.251036 -0.026172 0.000005
20  -0.032088 0.200172 -0.061335  0.052174 0.111884 0.132669
21  0.009278 0.058322 -0.044375  -0.308764 0.052292 -0.027273
22  0.069086 0.193199 -0.059144  0.484184 -0.003612 -0.049833
23  0.008560 0.057628 -0.044090  0.099710 0.023473 0.006972
24  0.102185 0.077529 -0.031768  -0.972796 0.680687 -0.778215
25  0.038420 0.022931 -0.000959  0.000000 0.000000 0.000000
26  -0.039647 -0.056266 0.002069  0.219757 -0.428328 -0.193550
27  0.042761 -0.082398 0.038132  -0.000000 0.000000 0.000000
28  0.000000 0.000000 0.000000  0.174128 0.686655 -0.569779
29  0.020122 -0.201078 -0.017893  -0.132074 -0.088947 1.976320
30  0.010469 -0.100374 -0.010235  -0.047837 0.668483 0.051316
31  0.018520 -0.186856 -0.018450  -1.387524 -0.110369 0.070181
32  -0.032222 -0.200101 -0.061496  0.135888 0.184051 -0.295659
33  0.009310 -0.057389 -0.045571  -0.143925 0.002279 -0.008715
34  0.068956 -0.193197 -0.059302  -0.481916 -0.058759 0.105395
35  0.008683 -0.056712 -0.045241  0.086897 0.021841 0.006005
36  0.102133 -0.077572 -0.031829  0.762320 0.394463 0.808451
37  0.034314 -0.028672 -0.001806  -0.000000 0.000000 0.000000
38  0.001143 0.000000 -0.181958  -0.134588 -0.032336 -0.004685
39  0.004961 -0.000269 -0.096018  -0.185940 -0.433530 -0.143176
40  -0.011623 0.003704 -0.088948  -0.158631 -0.215221 -0.169511
41  -0.007644 0.000000 -0.210641  -0.014632 0.225711 -0.199000
time 31
0  0 0 0  0 0 0
1  0.000000 0.000010 0.000000  -1.570796 -0.000000 0.000000
2  0.000000 0.000000 0.000000  0.000000 -0.000000 0.000000
3  0.000000 0.000000 0.000000  0.000000 -0.000000 0.000000
4  0.006445 -0.000000 0.753335  0.000000 -0.000000 0.000000
5  -0.015774 -0.061905 -0.051811  0.367417 0.197093 0.448131
6  0.000000 -0.000000 0.000000  -0.000775 -0.105034 -0.007355
7  0.000000 0.000000 0.000000  -0.045891 0.135456 0.033807
8  0.002937 0.000000 0.194891  -0.090422 0.014209 0.096357
9  0.003500 -0.000000 0.083408  0.087729 0.185011 0.161674
10  -0.012239 -0.000000 0.122389  0.164655 0.107558 0.169674
11  0.000267 -0.000000 0.055137  -0.008514 -0.068404 0.172223
12  0.003234 0.000000 0.052281  -0.042698 0.047178 0.178531
13  -0.001319 -0.000000 0.060214  -0.689206 -0.101024 0.402588
14  -0.039876 0.060989 0.002159  -0.781216 -0.374757 0.502281
15  0.043265 0.077505 0.036874  0.000000 -0.000000 -0.000000
16  0.000000 -0.000000 0.000000  -0.565237 -0.118796 -0.214772
17  0.020260 0.201078 -0.017731  0.086386 -0.093680 -1.510133
18  0.010537 0.100376 -0.010148  0.078108 1.682157 -0.129182
19  0.018646 0.186860 -0.018292  0.222673 -0.023239 0.000334
20  -0.032087 0.200172 -0.061335  -0.058513 0.061395 0.015289
21  0.009278 0.058322 -0.044375  -0.136109 0.042391 -0.011269
22  0.069086 0.193200 -0.059144  0.150818 0.006667 -0.117689
23  0.008560 0.057628 -0.044090  0.046403 0.027455 0.003351
24  0.102185 0.077529 -0.031768  -0.921355 0.663723 -0.725358
25  0.038420 0.022931 -0.000959  -0.000000 0.000000 -0.000000
26  -0.039647 -0.056266 0.002069  0.219453 -0.427515 -0.193767
27  0.042761 -0.082398 0.038132  0.000000 -0.000000 0.000000
28  0.000000 -0.000000 0.000000  0.202091 0.687254 -0.514237
29  0.020122 -0.201078 -0.017893  -0.128006 -0.090352 1.932379
30  0.010469 -0.100374 -0.010235  -0.053272 0.770729 0.057723
31  0.018520 -0.186856 -0.018450  -1.209737 -0.103363 0.053482
32  -0.032222 -0.200101 -0.061496  0.150265 0.182810 -0.288575
33  0.009310 -0.057389 -0.045571  -0.143925 0.002279 -0.008715
34  0.068955 -0.193197 -0.059302  -0.452076 -0.055733 0.105631
35  0.008683 -0.056712 -0.045241  0.086897 0.021841 0.006005
36  0.102133 -0.077572 -0.031830  0.741520 0.395378 0.794980
37  0.034314 -0.028672 -0.001806  -0.000000 0.000000 -0.000000
38  0.001143 0.000000 -0.181958  -0.213070 0.077575 -0.019521
39  0.004961 -0.000269 -0.096018  -0.042858 -0.466017 -0.140219
40  -0.011623 0.003704 -0.088948  -0.106713 -0.178367 -0.125726
41  -0.007644 0.000000 -0.210641  -0.032521 0.198350 -0.147433
time 32
0  0 0 0  0 0 0
1  0.000000 0.000010 0.000000  -1.570796 -0.000000 0.000000
2  0.000000 0.000000 0.000000  0.000000 -0.000000 0.000000
3  0.000000 0.000000 0.000000  0.000000 -0.000000 0.000000
4  0.006445 -0.000000 0.753335  0.000000 -0.000000 0.000000
5  0.007066 -0.077959 -0.047432  0.313536 0.165951 0.216383
6  0.000000 -0.000000 -0.000000  -0.000775 -0.105034 -0.007355
7  0.000000 0.000000 -0.000000  -0.068207 0.144610 -0.041061
8  0.002937 -0.000000 0.194891  -0.021612 -0.048201 0.027908
9  0.003500 0.000000 0.083408  0.030408 0.153841 0.072758
10  -0.012239 0.000000 0.122389  0.169936 0.080418 0.089157
11  0.000267 0.000000 0.055138  0.036023 -0.164317 0.056307
12  0.003234 -0.000000 0.052281  -0.028062 0.055551 0.067832
13  -0.001318 -0.000000 0.060214  -0.561493 -0.083602 0.244167
14  -0.039876 0.060989 0.002159  -0.740685 -0.312207 0.480493
15  0.043265 0.077505 0.036874  -0.000000 -0.000000 -0.000000
16  0.000000 -0.000000 0.000000  -0.440998 -0.065095 0.017667
17  0.020260 0.201078 -0.017731  0.107372 -0.093736 -1.726671
18  0.010537 0.100376 -0.010148  0.116463 1.462164 -0.069262
19  0.018645 0.186860 -0.018292  0.178918 -0.018677 0.000677
20  -0.032088 0.200172 -0.061335  -0.113679 0.059818 0.007734
21  0.009279 0.058322 -0.044375  0.159556 0.019591 0.011408
22  0.069086 0.193199 -0.059144  0.033103 0.014550 -0.134065
23  0.008560 0.057628 -0.044090  -0.079664 0.036102 -0.006044
24  0.102185 0.077529 -0.031768  -0.827103 0.627611 -0.628731
25  0.038420 0.022931 -0.000959  0.000000 0.000000 0.000000
26  -0.039647 -0.056266 0.002069  0.203760 -0.386818 -0.203748
27  0.042761 -0.082398 0.038132  0.000000 -0.000000 0.000000
28  0.000000 0.000000 0.000000  0.265595 0.647962 -0.396438
29  0.020122 -0.201078 -0.017893  -0.122769 -0.091873 1.876690
30  0.010469 -0.100374 -0.010235  -0.059973 0.907907 0.066143
31  0.018520 -0.186856 -0.018450  -0.946957 -0.087838 0.031666
32  -0.032222 -0.200100 -0.061496  0.170300 0.181058 -0.278632
33  0.009310 -0.057389 -0.045571  -0.143925 0.002279 -0.008715
34  0.068956 -0.193197 -0.059302  -0.410466 -0.051521 0.106119
35  0.008683 -0.056712 -0.045241  0.086897 0.021841 0.006005
36  0.102133 -0.077572 -0.031830  0.712367 0.397106 0.775904
37  0.034314 -0.028672 -0.001806  -0.000000 0.000000 0.000000
38  0.001143 0.000000 -0.181958  -0.288054 0.154375 -0.037674
39  0.004961 -0.000269 -0.096018  0.111244 -0.423229 -0.109675
40  -0.011623 0.003704 -0.088948  -0.045434 -0.124238 -0.051100
41  -0.007644 0.000000 -0.210641  -0.063454 0.131749 -0.064793
end
