version 1
nodes
0 "blender_implicit" -1
1 "Skel0" -1
2 "Skel1" 1
3 "Skel2" 2
4 "Skel3" 3
5 "Skel4" 4
6 "Skel5" 5
7 "Skel6" 6
8 "Skel7" 7
9 "Skel8" 8
10 "Skel9" 9
11 "Skel10" 10
12 "Skel11" 11
13 "Skel12" 12
14 "Skel13" 10
15 "Skel14" 14
16 "Skel15" 15
17 "Skel16" 16
18 "Skel17" 17
19 "Skel18" 18
20 "Skel19" 19
21 "Skel20" 20
22 "Skel21" 19
23 "Skel22" 22
24 "Skel23" 19
25 "Skel24" 24
26 "Skel25" 10
27 "Skel26" 26
28 "Skel27" 27
29 "Skel28" 28
30 "Skel29" 29
31 "Skel30" 30
32 "Skel31" 31
33 "Skel32" 32
34 "Skel33" 31
35 "Skel34" 34
36 "Skel35" 31
37 "Skel36" 36
38 "Skel37" 5
39 "Skel38" 38
40 "Skel39" 39
41 "Skel40" 40
end
skeleton
time 0
0  0 0 0  0 0 0
1  0.000000 0.000010 0.000000  -1.570796 -0.000000 0.000000
2  0.000000 0.000000 0.000000  0.000000 -0.000000 0.000000
3  0.000000 0.000000 0.000000  0.000000 -0.000000 0.000000
4  0.006445 -0.000000 0.753335  0.000000 -0.000000 0.000000
5  -0.000851 -0.022257 -0.005838  -0.027324 0.107729 -0.000006
6  0.000000 -0.000000 -0.000000  -0.000775 -0.105034 -0.007355
7  -0.000000 0.000000 0.000000  -0.048326 -0.160452 -0.000646
8  0.002937 0.000000 0.194891  0.001953 -0.000000 0.000244
9  0.003500 0.000000 0.083408  0.002008 -0.014405 0.000840
10  -0.012239 -0.000000 0.122389  0.000000 -0.014404 0.000000
11  0.000267 0.000000 0.055137  0.000000 0.013916 0.000000
12  0.003234 -0.000000 0.052281  -0.000000 -0.062817 0.000000
13  -0.001319 0.000000 0.060214  0.053185 -0.048729 -0.000014
14  -0.039876 0.060989 0.002159  -0.344934 0.177587 -0.003017
15  0.043265 0.077506 0.036874  0.000000 -0.000000 0.000000
16  0.000000 0.000000 0.000000  -0.557231 0.233571 0.510923
17  0.020259 0.201078 -0.017731  0.062824 -0.088037 -1.259995
18  0.010537 0.100376 -0.010148  0.005799 0.059855 -0.005641
19  0.018646 0.186860 -0.018292  -0.015449 0.001605 -0.000215
20  -0.032087 0.200172 -0.061335  -0.061922 0.121355 0.139395
21  0.009278 0.058322 -0.044375  -0.119717 0.041303 -0.009838
22  0.069086 0.193199 -0.059144  0.149377 0.022715 0.005802
23  0.008560 0.057627 -0.044090  -0.287374 0.047539 -0.023629
24  0.102185 0.077529 -0.031768  -0.236142 0.297228 -0.196664
25  0.038420 0.022931 -0.000959  -0.019600 0.072347 0.198437
26  -0.039647 -0.056266 0.002069  0.351152 0.121485 -0.038094
27  0.042761 -0.082398 0.038131  0.000000 -0.000000 -0.000000
28  0.000000 -0.000000 0.000000  0.652317 0.274766 -0.786711
29  0.020122 -0.201078 -0.017893  -0.034328 -0.071646 0.913944
30  0.010469 -0.100374 -0.010235  0.003285 -0.034522 -0.003441
31  0.018520 -0.186856 -0.018449  0.033483 0.003389 0.000493
32  -0.032222 -0.200100 -0.061496  0.101716 0.101716 -0.111909
33  0.009310 -0.057389 -0.045571  0.009376 0.015955 0.000622
34  0.068956 -0.193197 -0.059302  -0.129476 0.005344 0.047868
35  0.008683 -0.056712 -0.045241  0.113355 0.023824 0.007934
36  0.102133 -0.077572 -0.031830  0.276059 0.301711 0.325028
37  0.034314 -0.028672 -0.001806  0.018112 0.039940 -0.111722
38  0.001143 0.000000 -0.181958  0.038886 0.042136 0.002651
39  0.004961 -0.000269 -0.096018  0.049617 -0.252217 -0.022970
40  -0.011623 0.003704 -0.088948  0.022826 0.005319 -0.000733
41  -0.007644 0.000000 -0.210641  -0.054549 0.069782 -0.005326
time 1
0  0 0 0  0 0 0
1  0.000000 0.000010 0.000000  -1.570796 -0.000000 0.000000
2  0.000000 0.000000 0.000000  0.000000 -0.000000 0.000000
3  0.000000 0.000000 0.000000  0.000000 -0.000000 0.000000
4  0.006445 -0.000000 0.753335  0.000000 -0.000000 0.000000
5  -0.051949 0.002514 -0.020400  0.000000 0.305194 0.000000
6  -0.000000 -0.000000 -0.000000  -0.000775 -0.105034 -0.007355
7  -0.000000 -0.000000 -0.000000  0.004654 -0.149967 0.001812
8  0.002937 0.000000 0.194891  -0.002608 -0.000000 -0.000378
9  0.003500 0.000000 0.083408  -0.002536 0.019202 -0.000774
10  -0.012239 -0.000000 0.122389  -0.000000 0.019207 0.000000
11  0.000267 -0.000000 0.055138  -0.000000 -0.018546 -0.000000
12  0.003234 0.000000 0.052281  -0.000000 -0.141984 -0.000000
13  -0.001319 0.000000 0.060214  0.000000 -0.335400 0.000000
14  -0.039876 0.060989 0.002159  -0.429725 -0.081739 -0.086317
15  0.043265 0.077506 0.036874  -0.000000 -0.000000 -0.000000
16  -0.000000 0.000000 0.000000  -0.608612 -0.021558 0.592164
17  0.020260 0.201078 -0.017731  0.088762 -0.093914 -1.534728
18  0.010536 0.100376 -0.010148  0.008415 0.087821 -0.008164
19  0.018646 0.186860 -0.018292  -0.015449 0.001605 -0.000215
20  -0.032088 0.200172 -0.061335  -0.039802 0.212119 0.316176
21  0.009278 0.058322 -0.044375  -0.119717 0.041303 -0.009838
22  0.069086 0.193199 -0.059144  0.426946 -0.000382 0.011772
23  0.008560 0.057628 -0.044090  -0.492431 0.055024 -0.042919
24  0.102185 0.077529 -0.031768  -0.560579 0.481113 -0.357877
25  0.038420 0.022931 -0.000959  0.000000 -0.000000 0.000000
26  -0.039647 -0.056266 0.002069  0.365999 -0.122151 -0.008608
27  0.042761 -0.082398 0.038132  -0.000000 -0.000000 -0.000000
28  -0.000000 -0.000000 -0.000000  0.307418 0.495910 -0.748734
29  0.020122 -0.201078 -0.017893  -0.070054 -0.091004 1.331711
30  0.010469 -0.100374 -0.010235  0.003285 -0.034522 -0.003441
31  0.018520 -0.186856 -0.018449  0.048133 0.004843 0.000742
32  -0.032222 -0.200100 -0.061496  0.233010 0.175310 -0.247387
33  0.009310 -0.057389 -0.045571  -0.143925 0.002279 -0.008715
34  0.068956 -0.193197 -0.059302  -0.280222 -0.038472 0.108736
35  0.008683 -0.056712 -0.045241  0.086897 0.021841 0.006005
36  0.102133 -0.077572 -0.031829  0.619839 0.403869 0.714028
37  0.034314 -0.028672 -0.001806  -0.000000 0.000000 0.000000
38  0.001143 0.000000 -0.181958  0.008387 -0.118218 0.000218
39  0.004961 -0.000269 -0.096018  -0.003398 -0.477722 -0.018423
40  -0.011623 0.003704 -0.088948  -0.003456 -0.068055 0.000272
41  -0.007644 0.000000 -0.210641  0.002135 0.227604 -0.004077
time 2
0  0 0 0  0 0 0
1  0.000000 0.000010 0.000000  -1.570796 -0.000000 0.000000
2  0.000000 0.000000 0.000000  0.000000 -0.000000 0.000000
3  0.000000 0.000000 0.000000  0.000000 -0.000000 0.000000
4  0.006445 -0.000000 0.753335  0.000000 -0.000000 0.000000
5  -0.049857 0.017595 -0.043557  0.000000 0.476198 0.000000
6  0.000000 0.000000 -0.000000  -0.000775 -0.105034 -0.007355
7  -0.000000 0.000000 -0.000000  0.032393 -0.325679 0.010045
8  0.002937 -0.000000 0.194891  -0.018259 -0.000024 -0.002649
9  0.003500 0.000000 0.083408  -0.018214 0.134733 -0.006496
10  -0.012239 0.000000 0.122389  0.000000 0.134809 0.000000
11  0.000267 -0.000000 0.055137  0.000000 -0.130150 0.000000
12  0.003234 0.000000 0.052281  0.000000 -0.147223 -0.000000
13  -0.001319 -0.000000 0.060214  0.000000 -0.414358 0.000000
14  -0.039876 0.060989 0.002159  -0.520016 -0.258494 -0.080810
15  0.043265 0.077506 0.036874  -0.000000 -0.000000 -0.000000
16  -0.000000 0.000000 0.000000  -0.323691 -0.130454 0.550129
17  0.020259 0.201078 -0.017731  0.102025 -0.094152 -1.671431
18  0.010537 0.100376 -0.010148  0.008415 0.087821 -0.008164
19  0.018646 0.186860 -0.018292  -0.015449 0.001605 -0.000215
20  -0.032087 0.200172 -0.061335  -0.039802 0.212119 0.316176
21  0.009278 0.058322 -0.044375  -0.119717 0.041303 -0.009838
22  0.069086 0.193199 -0.059144  0.426946 -0.000382 0.011772
23  0.008560 0.057628 -0.044090  -0.492431 0.055024 -0.042919
24  0.102185 0.077529 -0.031768  -0.560579 0.481113 -0.357877
25  0.038420 0.022931 -0.000959  0.000000 0.000000 -0.000000
26  -0.039647 -0.056266 0.002069  0.453407 -0.309148 -0.004063
27  0.042761 -0.082398 0.038132  0.000000 -0.000000 -0.000000
28  -0.000000 -0.000000 0.000000  0.078050 0.399743 -0.808113
29  0.020122 -0.201078 -0.017893  -0.089559 -0.094689 1.534734
30  0.010469 -0.100374 -0.010235  0.003285 -0.034522 -0.003441
31  0.018520 -0.186856 -0.018449  0.048133 0.004843 0.000742
32  -0.032222 -0.200101 -0.061496  0.233010 0.175310 -0.247387
33  0.009310 -0.057389 -0.045571  -0.143925 0.002279 -0.008715
34  0.068956 -0.193197 -0.059302  -0.280222 -0.038472 0.108736
35  0.008683 -0.056712 -0.045241  0.086897 0.021841 0.006005
36  0.102133 -0.077572 -0.031829  0.619839 0.403869 0.714027
37  0.034315 -0.028672 -0.001806  0.000000 -0.000000 0.000000
38  0.001143 0.000000 -0.181958  0.064835 -0.231428 -0.003612
39  0.004961 -0.000269 -0.096018  -0.088373 -0.513773 0.012455
40  -0.011623 0.003704 -0.088948  -0.030168 -0.185941 0.003903
41  -0.007644 0.000000 -0.210641  0.025526 0.240855 -0.000621
time 3
0  0 0 0  0 0 0
1  0.000000 0.000010 0.000000  -1.570796 -0.000000 0.000000
2  0.000000 0.000000 0.000000  0.000000 -0.000000 0.000000
3  0.000000 0.000000 0.000000  0.000000 -0.000000 0.000000
4  0.006445 -0.000000 0.753335  0.000000 -0.000000 0.000000
5  -0.047765 0.032676 -0.066714  0.000000 0.647411 0.000000
6  0.000000 -0.000000 -0.000000  -0.000775 -0.105034 -0.007355
7  0.000000 0.000000 -0.000000  0.060761 -0.501780 0.013407
8  0.002937 -0.000000 0.194891  -0.033910 -0.000083 -0.004919
9  0.003500 0.000000 0.083408  -0.034940 0.250222 -0.014218
10  -0.012239 -0.000000 0.122389  0.000000 0.250476 -0.000000
11  0.000267 0.000000 0.055137  0.000000 -0.241812 0.000000
12  0.003234 -0.000000 0.052281  0.000000 -0.152462 -0.000000
13  -0.001319 0.000000 0.060214  0.000000 -0.493336 0.000000
14  -0.039876 0.060989 0.002159  -0.617484 -0.434257 -0.057434
15  0.043265 0.077506 0.036874  0.000000 -0.000000 0.000000
16  -0.000000 -0.000000 0.000000  -0.028056 -0.223175 0.477401
17  0.020259 0.201078 -0.017731  0.115206 -0.092586 -1.808222
18  0.010536 0.100376 -0.010148  0.008415 0.087821 -0.008164
19  0.018646 0.186860 -0.018292  -0.015449 0.001605 -0.000215
20  -0.032087 0.200172 -0.061335  -0.039802 0.212119 0.316176
21  0.009278 0.058322 -0.044375  -0.119717 0.041303 -0.009838
22  0.069086 0.193199 -0.059144  0.426946 -0.000382 0.011772
23  0.008560 0.057628 -0.044090  -0.492431 0.055024 -0.042919
24  0.102185 0.077529 -0.031768  -0.560579 0.481113 -0.357877
25  0.038420 0.022931 -0.000959  -0.000000 0.000000 0.000000
26  -0.039647 -0.056266 0.002069  0.547299 -0.496116 -0.017654
27  0.042761 -0.082398 0.038132  -0.000000 -0.000000 0.000000
28  0.000000 -0.000000 0.000000  -0.137277 0.293920 -0.841160
29  0.020122 -0.201078 -0.017893  -0.109446 -0.094378 1.738169
30  0.010469 -0.100374 -0.010236  0.003285 -0.034522 -0.003441
31  0.018520 -0.186856 -0.018449  0.048133 0.004843 0.000742
32  -0.032222 -0.200100 -0.061496  0.233010 0.175310 -0.247387
33  0.009310 -0.057389 -0.045571  -0.143925 0.002279 -0.008715
34  0.068956 -0.193197 -0.059302  -0.280222 -0.038472 0.108736
35  0.008683 -0.056712 -0.045241  0.086897 0.021841 0.006005
36  0.102133 -0.077572 -0.031829  0.619839 0.403869 0.714027
37  0.034314 -0.028672 -0.001806  0.000000 -0.000000 -0.000000
38  0.001143 0.000000 -0.181958  0.123705 -0.344309 -0.014347
39  0.004961 -0.000269 -0.096018  -0.176388 -0.547354 0.047449
40  -0.011623 0.003704 -0.088948  -0.058144 -0.303757 0.010939
41  -0.007644 0.000000 -0.210641  0.049043 0.254025 0.003166
time 4
0  0 0 0  0 0 0
1  0.000000 0.000010 0.000000  -1.570796 -0.000000 0.000000
2  0.000000 0.000000 0.000000  0.000000 -0.000000 0.000000
3  0.000000 0.000000 0.000000  0.000000 -0.000000 0.000000
4  0.006445 -0.000000 0.753335  0.000000 -0.000000 0.000000
5  0.006154 0.015081 -0.051957  -0.029844 0.410867 -0.001959
6  -0.000000 -0.000000 0.000000  -0.000775 -0.105034 -0.007355
7  -0.000000 -0.000000 -0.000000  0.042147 -0.262705 0.014311
8  0.002937 0.000000 0.194891  0.002738 0.085402 0.000203
9  0.003500 0.000000 0.083408  0.002416 0.267732 0.002839
10  -0.012239 -0.000000 0.122389  0.024685 0.226811 0.016560
11  0.000267 -0.000000 0.055137  0.000000 -0.168789 -0.000000
12  0.003234 0.000000 0.052281  -0.000000 -0.049791 0.000000
13  -0.001319 0.000000 0.060215  0.000000 -0.245141 -0.000000
14  -0.039876 0.060989 0.002159  -0.600733 -0.528581 -0.128555
15  0.043265 0.077505 0.036874  0.000000 -0.000000 -0.000000
16  0.000000 0.000000 0.000000  0.045865 0.007084 0.737766
17  0.020260 0.201078 -0.017731  0.108869 -0.093567 -1.742180
18  0.010537 0.100376 -0.010148  0.008364 0.087500 -0.008136
19  0.018646 0.186860 -0.018292  -0.015449 0.001605 -0.000215
20  -0.032088 0.200172 -0.061335  -0.061573 0.147575 0.186399
21  0.009278 0.058322 -0.044375  -0.119717 0.041303 -0.009838
22  0.069086 0.193199 -0.059144  0.225325 0.016598 0.008066
23  0.008560 0.057628 -0.044090  -0.343369 0.049978 -0.028743
24  0.102185 0.077529 -0.031768  -0.316532 0.358978 -0.222152
25  0.038420 0.022931 -0.000959  -0.015648 0.052216 0.144304
26  -0.039647 -0.056266 0.002069  0.456501 -0.578302 0.046660
27  0.042761 -0.082398 0.038132  -0.000000 -0.000000 -0.000000
28  -0.000000 0.000000 -0.000000  -0.113851 0.234469 -0.925756
29  0.020122 -0.201078 -0.017893  -0.128844 -0.090079 1.941379
30  0.010469 -0.100374 -0.010235  0.003285 -0.034522 -0.003441
31  0.018520 -0.186856 -0.018449  0.047961 0.004829 0.000739
32  -0.032222 -0.200100 -0.061496  0.141056 0.114495 -0.152125
33  0.009310 -0.057389 -0.045571  -0.032451 0.012376 -0.002128
34  0.068956 -0.193197 -0.059302  -0.169612 -0.010497 0.062554
35  0.008683 -0.056712 -0.045241  0.106147 0.023295 0.007407
36  0.102133 -0.077572 -0.031830  0.350699 0.372061 0.418652
37  0.034314 -0.028672 -0.001806  0.013604 0.028861 -0.081266
38  0.001143 0.000000 -0.181958  0.034162 -0.189229 -0.000977
39  0.004961 -0.000269 -0.096018  0.007650 -0.301770 -0.014524
40  -0.011623 0.003704 -0.088948  -0.018579 -0.182937 0.002370
41  -0.007644 0.000000 -0.210641  -0.002443 0.136341 -0.002880
time 5
0  0 0 0  0 0 0
1  0.000000 0.000010 0.000000  -1.570796 -0.000000 0.000000
2  0.000000 0.000000 0.000000  0.000000 -0.000000 0.000000
3  0.000000 0.000000 0.000000  0.000000 -0.000000 0.000000
4  0.006445 -0.000000 0.753335  0.000000 -0.000000 0.000000
5  0.085987 -0.018851 -0.018243  -0.071063 -0.030808 0.011357
6  -0.000000 0.000000 0.000000  -0.000775 -0.105034 -0.007355
7  -0.000000 0.000000 -0.000000  0.000000 0.185205 -0.000000
8  0.002937 -0.000000 0.194891  0.067592 0.213070 0.016014
9  0.003500 0.000000 0.083408  0.066001 0.234973 0.031038
10  -0.012239 -0.000000 0.122389  0.059265 0.132966 0.038158
11  0.000267 0.000000 0.055137  -0.000000 -0.003479 0.000000
12  0.003234 -0.000000 0.052281  0.000000 0.106924 0.000000
13  -0.001319 0.000000 0.060214  0.000000 0.168229 -0.000000
14  -0.039876 0.060989 0.002159  -0.514537 -0.576262 -0.261228
15  0.043265 0.077506 0.036874  0.000000 -0.000000 -0.000000
16  0.000000 0.000000 -0.000000  0.152559 0.379077 1.195730
17  0.020259 0.201078 -0.017731  0.092653 -0.094171 -1.574881
18  0.010537 0.100376 -0.010148  0.008287 0.087019 -0.008095
19  0.018646 0.186860 -0.018292  -0.015448 0.001605 -0.000215
20  -0.032088 0.200172 -0.061335  -0.077925 0.046850 -0.004304
21  0.009278 0.058322 -0.044375  -0.119717 0.041303 -0.009838
22  0.069086 0.193199 -0.059144  -0.078054 0.039871 -0.003684
23  0.008560 0.057628 -0.044090  -0.119765 0.038606 -0.009259
24  0.102185 0.077529 -0.031768  0.000408 0.131041 -0.090198
25  0.038420 0.022931 -0.000959  -0.024715 0.133491 0.360872
26  -0.039647 -0.056266 0.002069  0.264400 -0.594511 0.163026
27  0.042761 -0.082398 0.038132  -0.000000 -0.000000 0.000000
28  -0.000000 -0.000000 0.000000  0.026436 0.212848 -1.047312
29  0.020122 -0.201078 -0.017893  -0.147054 -0.081918 2.145445
30  0.010469 -0.100374 -0.010235  0.003285 -0.034522 -0.003441
31  0.018520 -0.186856 -0.018450  0.047703 0.004809 0.000735
32  -0.032222 -0.200100 -0.061496  -0.006144 0.040671 -0.000322
33  0.009310 -0.057389 -0.045571  0.135028 0.026002 0.009765
34  0.068956 -0.193197 -0.059302  -0.006160 0.040548 -0.000329
35  0.008683 -0.056712 -0.045241  0.135029 0.025425 0.009563
36  0.102133 -0.077572 -0.031830  0.000018 0.198946 0.025529
37  0.034314 -0.028672 -0.001806  0.029545 0.073997 -0.202702
38  0.001143 0.000000 -0.181958  -0.123321 0.100948 -0.012850
39  0.004961 -0.000269 -0.096018  0.285841 0.096991 -0.019804
40  -0.011623 0.003704 -0.088948  0.051226 0.057837 -0.000350
41  -0.007644 0.000000 -0.210641  -0.089403 -0.047186 -0.000333
time 6
0  0 0 0  0 0 0
1  0.000000 0.000010 0.000000  -1.570796 -0.000000 0.000000
2  0.000000 0.000000 0.000000  0.000000 -0.000000 0.000000
3  0.000000 0.000000 0.000000  0.000000 -0.000000 0.000000
4  0.006445 -0.000000 0.753335  0.000000 -0.000000 0.000000
5  0.087811 -0.034030 0.429519  -0.059679 -0.073938 0.007892
6  0.000000 -0.000000 -0.000000  -0.000775 -0.105034 -0.007355
7  0.000000 0.000000 0.000000  0.000000 0.131084 0.000000
8  0.002937 0.000000 0.194891  -0.000355 0.162309 0.016270
9  0.003500 0.000000 0.083408  0.000658 0.227046 0.026144
10  -0.012239 -0.000000 0.122389  -0.001453 0.182985 0.034700
11  0.000267 0.000000 0.055138  -0.000000 0.021902 0.000000
12  0.003234 -0.000000 0.052281  -0.000000 -0.057512 -0.000000
13  -0.001319 0.000000 0.060214  0.000000 0.029101 -0.000000
14  -0.039876 0.060989 0.002159  -0.289386 -0.516782 -0.171948
15  0.043265 0.077505 0.036874  0.000000 -0.000000 -0.000000
16  0.000000 -0.000000 -0.000000  -0.352740 -0.086177 0.610880
17  0.020260 0.201078 -0.017731  0.080478 -0.092841 -1.448678
18  0.010536 0.100376 -0.010148  0.008017 0.084038 -0.007829
19  0.018645 0.186860 -0.018292  -0.234338 0.023750 -0.005884
20  -0.032087 0.200172 -0.061335  -0.077925 0.046850 -0.004304
21  0.009278 0.058322 -0.044375  -0.119717 0.041303 -0.009838
22  0.069086 0.193199 -0.059144  -0.078054 0.039872 -0.003684
23  0.008560 0.057628 -0.044090  -0.119765 0.038606 -0.009259
24  0.102185 0.077529 -0.031768  0.000408 0.131041 -0.090198
25  0.038420 0.022931 -0.000959  -0.024715 0.133491 0.360872
26  -0.039647 -0.056266 0.002069  0.270025 -0.610101 0.166206
27  0.042761 -0.082398 0.038132  -0.000000 -0.000000 0.000000
28  -0.000000 0.000000 0.000000  -0.463701 -0.403869 -0.288499
29  0.020122 -0.201078 -0.017893  -0.062642 -0.088484 1.251764
30  0.010469 -0.100374 -0.010236  0.003285 -0.034522 -0.003441
31  0.018520 -0.186856 -0.018450  -0.287494 -0.029382 0.000473
32  -0.032222 -0.200100 -0.061496  -0.081279 0.052880 -0.044240
33  0.009310 -0.057389 -0.045571  0.098319 0.023180 0.006961
34  0.068956 -0.193197 -0.059302  -0.121831 0.023139 0.023983
35  0.008683 -0.056712 -0.045241  0.134288 0.025368 0.009505
36  0.102133 -0.077572 -0.031829  -0.040120 0.162572 0.042943
37  0.034315 -0.028672 -0.001806  0.026275 0.063147 -0.173973
38  0.001143 0.000000 -0.181958  0.040318 0.032217 0.002633
39  0.004961 -0.000269 -0.096018  0.115658 0.089947 -0.006225
40  -0.011623 0.003704 -0.088948  0.045938 0.114776 0.000988
41  -0.007644 0.000000 -0.210641  -0.092870 -0.064453 0.000734
time 7
0  0 0 0  0 0 0
1  0.000000 0.000010 0.000000  -1.570796 -0.000000 0.000000
2  0.000000 0.000000 0.000000  0.000000 -0.000000 0.000000
3  0.000000 0.000000 0.000000  0.000000 -0.000000 0.000000
4  0.006445 -0.000000 0.753335  0.000000 -0.000000 0.000000
5  0.083469 -0.039734 0.763979  -0.046851 -0.114300 0.005048
6  0.000000 -0.000000 0.000000  -0.000775 -0.105034 -0.007355
7  -0.000000 0.000000 -0.000000  -0.000212 0.108621 0.000037
8  0.002937 -0.000000 0.194891  -0.044433 0.110530 0.017109
9  0.003500 0.000000 0.083408  -0.042151 0.208202 0.019847
10  -0.012239 -0.000000 0.122389  -0.041310 0.188242 0.024383
11  0.000267 -0.000000 0.055138  0.000000 0.053157 0.000000
12  0.003234 0.000000 0.052281  0.000000 -0.180467 -0.000000
13  -0.001319 -0.000000 0.060214  0.000000 -0.076682 -0.000000
14  -0.039876 0.060989 0.002159  -0.124617 -0.444829 -0.091242
15  0.043265 0.077505 0.036874  -0.000000 -0.000000 0.000000
16  0.000000 -0.000000 -0.000000  -0.505618 -0.608263 0.285037
17  0.020260 0.201079 -0.017731  0.063360 -0.088237 -1.265895
18  0.010537 0.100376 -0.010148  0.007792 0.081530 -0.007604
19  0.018646 0.186860 -0.018292  -0.348196 0.034627 -0.010703
20  -0.032088 0.200172 -0.061335  -0.042369 0.065424 0.026130
21  0.009278 0.058322 -0.044375  -0.083459 0.038831 -0.006748
22  0.069086 0.193199 -0.059144  -0.009278 0.032314 -0.024093
23  0.008560 0.057628 -0.044090  -0.116453 0.038405 -0.008990
24  0.102185 0.077529 -0.031768  -0.031648 0.161520 -0.137331
25  0.038420 0.022931 -0.000959  -0.024436 0.119906 0.324873
26  -0.039647 -0.056266 0.002069  0.254181 -0.566435 0.157125
27  0.042761 -0.082398 0.038131  0.000000 -0.000000 -0.000000
28  -0.000000 0.000000 -0.000000  -1.062011 -0.517137 0.500895
29  0.020122 -0.201078 -0.017893  -0.017139 -0.052581 0.651503
30  0.010469 -0.100374 -0.010235  0.003285 -0.034522 -0.003441
31  0.018520 -0.186856 -0.018449  -0.509567 -0.051243 0.006550
32  -0.032222 -0.200100 -0.061496  -0.149731 0.067549 -0.093302
33  0.009310 -0.057389 -0.045571  0.052091 0.019491 0.003583
34  0.068956 -0.193197 -0.059302  -0.243774 0.003164 0.050977
35  0.008683 -0.056712 -0.045241  0.129104 0.024989 0.009113
36  0.102133 -0.077572 -0.031829  -0.061550 0.136019 0.082329
37  0.034315 -0.028671 -0.001806  0.021925 0.050218 -0.139387
38  0.001143 0.000000 -0.181958  0.133771 -0.017611 0.005765
39  0.004961 -0.000269 -0.096018  0.002258 0.088992 0.003504
40  -0.011623 0.003704 -0.088948  0.038061 0.140403 0.001299
41  -0.007644 0.000000 -0.210641  -0.085544 -0.059486 0.000456
time 8
0  0 0 0  0 0 0
1  0.000000 0.000010 0.000000  -1.570796 -0.000000 0.000000
2  0.000000 0.000000 0.000000  0.000000 -0.000000 0.000000
3  0.000000 0.000000 0.000000  0.000000 -0.000000 0.000000
4  0.006445 -0.000000 0.753335  0.000000 -0.000000 0.000000
5  0.066795 -0.026489 0.871833  -0.031378 -0.149207 0.003926
6  0.000000 -0.000000 -0.000000  -0.000775 -0.105034 -0.007355
7  0.000000 0.000000 0.000000  -0.000847 0.149491 0.000133
8  0.002937 -0.000000 0.194891  -0.041498 0.056466 0.013231
9  0.003500 0.000000 0.083408  -0.039908 0.168008 0.009819
10  -0.012239 -0.000000 0.122389  -0.037116 0.104272 0.005490
11  0.000267 -0.000000 0.055138  0.000000 0.096193 0.000000
12  0.003234 0.000000 0.052281  0.000000 -0.220687 0.000000
13  -0.001319 -0.000000 0.060214  0.000000 -0.115921 0.000000
14  -0.039876 0.060989 0.002159  -0.074755 -0.317730 -0.042187
15  0.043265 0.077505 0.036874  -0.000000 -0.000000 0.000000
16  0.000000 0.000000 0.000000  -0.311900 -0.939142 0.024460
17  0.020260 0.201079 -0.017731  0.037462 -0.073856 -0.959759
18  0.010537 0.100376 -0.010148  0.007661 0.079967 -0.007463
19  0.018645 0.186860 -0.018292  -0.251756 0.025441 -0.006538
20  -0.032088 0.200172 -0.061335  0.068753 0.114734 0.122249
21  0.009278 0.058322 -0.044376  0.025731 0.030727 0.001991
22  0.069086 0.193200 -0.059144  0.201563 0.018153 -0.088936
23  0.008560 0.057627 -0.044090  -0.106515 0.037795 -0.008187
24  0.102185 0.077529 -0.031768  -0.138803 0.244182 -0.288148
25  0.038420 0.022931 -0.000959  -0.020634 0.079134 0.216592
26  -0.039647 -0.056266 0.002069  0.193817 -0.403451 0.118007
27  0.042760 -0.082398 0.038132  0.000000 -0.000000 -0.000000
28  -0.000000 0.000000 0.000000  -1.193777 -0.589760 0.812439
29  0.020122 -0.201078 -0.017893  -0.014336 -0.048265 0.599086
30  0.010469 -0.100374 -0.010235  0.003285 -0.034522 -0.003441
31  0.018520 -0.186856 -0.018450  -0.506451 -0.050947 0.006432
32  -0.032222 -0.200100 -0.061496  -0.205102 0.090609 -0.152344
33  0.009310 -0.057389 -0.045571  -0.013276 0.014025 -0.000889
34  0.068955 -0.193197 -0.059302  -0.379335 -0.024224 0.083018
35  0.008683 -0.056712 -0.045241  0.115034 0.023954 0.008062
36  0.102133 -0.077572 -0.031829  -0.045326 0.127015 0.163423
37  0.034314 -0.028672 -0.001806  0.015394 0.033145 -0.093023
38  0.001143 0.000000 -0.181958  0.089093 -0.026811 0.003452
39  0.004961 -0.000269 -0.096018  0.002176 0.096252 0.003820
40  -0.011623 0.003704 -0.088948  0.025005 0.103375 0.000376
41  -0.007644 0.000000 -0.210641  -0.056691 -0.009950 -0.001662
time 9
0  0 0 0  0 0 0
1  0.000000 0.000010 0.000000  -1.570796 -0.000000 0.000000
2  0.000000 0.000000 0.000000  0.000000 -0.000000 0.000000
3  0.000000 0.000000 0.000000  0.000000 -0.000000 0.000000
4  0.006445 -0.000000 0.753335  0.000000 -0.000000 0.000000
5  0.050120 -0.013245 0.979687  -0.015771 -0.184101 0.002247
6  0.000000 -0.000000 -0.000000  -0.000775 -0.105034 -0.007355
7  -0.000000 0.000000 -0.000000  -0.001484 0.190371 0.000202
8  0.002937 0.000000 0.194891  -0.038356 0.002387 0.009199
9  0.003500 0.000000 0.083408  -0.037271 0.127826 -0.000244
10  -0.012239 0.000000 0.122389  -0.031351 0.020293 -0.013680
11  0.000267 -0.000000 0.055138  -0.000000 0.139242 -0.000000
12  0.003234 -0.000000 0.052281  0.000000 -0.260918 -0.000000
13  -0.001319 0.000000 0.060214  -0.000000 -0.155171 -0.000000
14  -0.039876 0.060989 0.002159  -0.020015 -0.192705 0.011873
15  0.043265 0.077505 0.036874  0.000000 0.000000 0.000000
16  0.000000 0.000000 0.000000  0.259707 -1.191618 -0.608970
17  0.020259 0.201078 -0.017731  0.016866 -0.051982 -0.649568
18  0.010537 0.100376 -0.010148  0.007530 0.078404 -0.007322
19  0.018645 0.186859 -0.018292  -0.155224 0.015882 -0.003274
20  -0.032088 0.200172 -0.061335  0.185226 0.152991 0.224243
21  0.009278 0.058322 -0.044375  0.135041 0.021702 0.009808
22  0.069086 0.193199 -0.059144  0.414611 0.017947 -0.155851
23  0.008560 0.057628 -0.044090  -0.096577 0.037177 -0.007390
24  0.102185 0.077529 -0.031768  -0.260721 0.309784 -0.451486
25  0.038420 0.022931 -0.000959  -0.012432 0.038919 0.108173
26  -0.039647 -0.056266 0.002069  0.129777 -0.242012 0.070647
27  0.042761 -0.082398 0.038132  0.000000 -0.000000 0.000000
28  -0.000000 0.000000 -0.000000  -1.353289 -0.623318 1.148834
29  0.020122 -0.201078 -0.017893  -0.011764 -0.043807 0.546669
30  0.010469 -0.100374 -0.010235  0.003285 -0.034522 -0.003441
31  0.018520 -0.186856 -0.018450  -0.503335 -0.050651 0.006314
32  -0.032222 -0.200100 -0.061496  -0.261927 0.110355 -0.212772
33  0.009310 -0.057389 -0.045571  -0.078660 0.008276 -0.004997
34  0.068956 -0.193196 -0.059302  -0.516283 -0.047082 0.118621
35  0.008683 -0.056712 -0.045241  0.100964 0.022905 0.007026
36  0.102133 -0.077572 -0.031829  -0.029892 0.116728 0.244352
37  0.034314 -0.028671 -0.001806  0.008078 0.016387 -0.046550
38  0.001143 0.000000 -0.181958  0.044408 -0.036109 0.001550
39  0.004961 -0.000269 -0.096018  0.002097 0.103512 0.004136
40  -0.011623 0.003704 -0.088948  0.012022 0.066328 -0.000059
41  -0.007644 0.000000 -0.210640  -0.027906 0.039655 -0.002350
time 10
0  0 0 0  0 0 0
1  0.000000 0.000010 0.000000  -1.570796 -0.000000 0.000000
2  0.000000 0.000000 0.000000  0.000000 -0.000000 0.000000
3  0.000000 0.000000 0.000000  0.000000 -0.000000 0.000000
4  0.006445 -0.000000 0.753335  0.000000 -0.000000 0.000000
5  0.033446 0.000000 1.087541  0.000000 -0.218949 0.000000
6  0.000000 -0.000000 -0.000000  -0.000775 -0.105034 -0.007355
7  -0.000000 0.000000 0.000000  -0.002122 0.231230 0.000245
8  0.002937 -0.000000 0.194891  -0.034995 -0.051625 0.004995
9  0.003500 0.000000 0.083409  -0.034242 0.087696 -0.010363
10  -0.012239 -0.000000 0.122389  -0.023986 -0.063351 -0.033319
11  0.000267 0.000000 0.055138  0.000000 0.182265 -0.000000
12  0.003234 0.000000 0.052281  -0.000000 -0.301127 -0.000000
13  -0.001319 -0.000000 0.060214  -0.000000 -0.194400 0.000000
14  -0.039876 0.060989 0.002159  0.040023 -0.071810 0.071331
15  0.043265 0.077505 0.036874  0.000000 0.000000 0.000000
16  0.000000 0.000000 0.000000  1.190612 -1.158080 -1.597106
17  0.020259 0.201078 -0.017731  0.004218 -0.025776 -0.349743
18  0.010537 0.100376 -0.010148  0.007399 0.076840 -0.007181
19  0.018646 0.186859 -0.018292  -0.059034 0.006083 -0.000952
20  -0.032088 0.200172 -0.061335  0.304768 0.178880 0.329805
21  0.009279 0.058322 -0.044375  0.243824 0.011919 0.016567
22  0.069086 0.193199 -0.059144  0.623744 0.031542 -0.220258
23  0.008560 0.057627 -0.044090  -0.086641 0.036552 -0.006600
24  0.102185 0.077529 -0.031768  -0.393069 0.354384 -0.623147
25  0.038420 0.022931 -0.000959  0.000000 0.000000 0.000000
26  -0.039647 -0.056266 0.002069  0.060672 -0.085695 0.014983
27  0.042761 -0.082398 0.038132  0.000000 -0.000000 -0.000000
28  -0.000000 -0.000000 0.000000  -1.514474 -0.612185 1.481416
29  0.020122 -0.201078 -0.017893  -0.009431 -0.039224 0.494320
30  0.010469 -0.100374 -0.010235  0.003285 -0.034522 -0.003441
31  0.018520 -0.186856 -0.018450  -0.500220 -0.050354 0.006198
32  -0.032222 -0.200100 -0.061496  -0.319842 0.126583 -0.274226
33  0.009310 -0.057389 -0.045571  -0.143925 0.002279 -0.008715
34  0.068956 -0.193197 -0.059302  -0.653189 -0.064750 0.156793
35  0.008683 -0.056712 -0.045242  0.086897 0.021841 0.006005
36  0.102133 -0.077572 -0.031829  -0.015395 0.105264 0.324837
37  0.034314 -0.028672 -0.001806  -0.000000 -0.000000 0.000000
38  0.001143 0.000000 -0.181958  -0.000246 -0.045476 0.000067
39  0.004961 -0.000269 -0.096018  0.002020 0.110773 0.004452
40  -0.011623 0.003704 -0.088948  -0.000916 0.029298 -0.000013
41  -0.007644 0.000000 -0.210640  0.000906 0.089204 -0.001609
time 11
0  0 0 0  0 0 0
1  0.000000 0.000010 0.000000  -1.570796 -0.000000 0.000000
2  0.000000 0.000000 0.000000  0.000000 -0.000000 0.000000
3  0.000000 0.000000 0.000000  0.000000 -0.000000 0.000000
4  0.006445 -0.000000 0.753335  0.000000 -0.000000 0.000000
5  0.049354 0.011530 1.155260  -0.000034 -0.172172 -0.000034
6  0.000000 -0.000000 -0.000000  -0.000775 -0.105034 -0.007355
7  -0.000000 0.000000 0.000000  -0.001758 0.176679 0.000224
8  0.002937 -0.000000 0.194891  -0.009475 -0.057155 0.002494
9  0.003500 0.000000 0.083409  -0.008992 0.056490 -0.010025
10  -0.012239 0.000000 0.122389  -0.000532 -0.066621 -0.029482
11  0.000267 -0.000000 0.055138  0.000000 0.189178 0.000000
12  0.003234 0.000000 0.052281  0.000000 -0.307539 0.000000
13  -0.001319 0.000000 0.060214  -0.000000 -0.200656 -0.000000
14  -0.039876 0.060989 0.002159  0.053820 -0.058341 0.079200
15  0.043265 0.077505 0.036874  0.000000 -0.000000 0.000000
16  0.000000 -0.000000 0.000000  1.530006 -1.125715 -1.918176
17  0.020259 0.201078 -0.017731  0.004916 -0.027944 -0.373108
18  0.010537 0.100376 -0.010148  0.007343 0.076581 -0.007159
19  0.018645 0.186860 -0.018292  0.073709 -0.007690 0.000685
20  -0.032087 0.200172 -0.061335  0.337439 0.183746 0.345768
21  0.009278 0.058322 -0.044375  0.276147 0.008884 0.018363
22  0.069086 0.193199 -0.059144  0.665732 0.032078 -0.241351
23  0.008560 0.057628 -0.044090  -0.068408 0.035397 -0.005174
24  0.102185 0.077529 -0.031768  -0.404769 0.359849 -0.660684
25  0.038420 0.022931 -0.000959  0.002382 -0.006065 -0.017357
26  -0.039647 -0.056266 0.002069  0.006663 -0.024517 -0.026726
27  0.042761 -0.082398 0.038131  0.000000 -0.000000 0.000000
28  -0.000000 -0.000000 -0.000000  -1.460390 -0.758118 1.482440
29  0.020122 -0.201078 -0.017893  -0.013773 -0.047334 0.587998
30  0.010469 -0.100374 -0.010235  0.003285 -0.034522 -0.003441
31  0.018520 -0.186856 -0.018450  -0.499718 -0.050312 0.006180
32  -0.032222 -0.200100 -0.061496  -0.349493 0.103504 -0.230352
33  0.009310 -0.057388 -0.045572  -0.154638 0.001276 -0.009286
34  0.068956 -0.193197 -0.059302  -0.626550 -0.055230 0.127387
35  0.008683 -0.056712 -0.045242  0.036918 0.017885 0.002464
36  0.102133 -0.077572 -0.031829  -0.016033 0.103279 0.331337
37  0.034314 -0.028671 -0.001806  0.001988 0.003805 -0.010989
38  0.001143 0.000000 -0.181958  -0.006326 -0.056027 0.000019
39  0.004961 -0.000269 -0.096018  -0.014931 0.082443 0.004748
40  -0.011623 0.003704 -0.088948  -0.011758 -0.004686 0.000430
41  -0.007644 0.000000 -0.210641  0.024314 0.107183 0.000167
time 12
0  0 0 0  0 0 0
1  0.000000 0.000010 0.000000  -1.570796 -0.000000 0.000000
2  0.000000 0.000000 0.000000  0.000000 -0.000000 0.000000
3  0.000000 0.000000 0.000000  0.000000 -0.000000 0.000000
4  0.006445 -0.000000 0.753335  0.000000 -0.000000 0.000000
5  0.066965 0.020838 1.166936  -0.000050 -0.121396 -0.000050
6  -0.000000 0.000000 0.000000  -0.000775 -0.105034 -0.007355
7  -0.000000 -0.000000 -0.000000  -0.001315 0.113650 0.000190
8  0.002937 -0.000000 0.194891  0.014524 -0.052699 0.000041
9  0.003500 0.000000 0.083408  0.014749 0.030964 -0.009189
10  -0.012239 -0.000000 0.122389  0.020959 -0.059600 -0.023968
11  0.000267 -0.000000 0.055137  -0.000000 0.192250 -0.000000
12  0.003234 0.000000 0.052281  0.000000 -0.310389 0.000000
13  -0.001318 -0.000000 0.060214  0.000000 -0.203437 0.000000
14  -0.039876 0.060989 0.002159  0.059068 -0.061375 0.078087
15  0.043265 0.077505 0.036874  0.000000 -0.000000 0.000000
16  0.000000 -0.000000 0.000000  -1.382839 -2.079116 1.006368
17  0.020260 0.201078 -0.017731  0.006130 -0.031360 -0.410300
18  0.010537 0.100376 -0.010148  0.007319 0.076466 -0.007149
19  0.018646 0.186859 -0.018292  0.204305 -0.021333 0.000502
20  -0.032088 0.200172 -0.061335  0.351993 0.185743 0.352917
21  0.009279 0.058322 -0.044375  0.290511 0.007516 0.019129
22  0.069086 0.193199 -0.059144  0.684389 0.032599 -0.250716
23  0.008560 0.057628 -0.044090  -0.060305 0.034875 -0.004547
24  0.102185 0.077529 -0.031768  -0.410045 0.362145 -0.677413
25  0.038420 0.022931 -0.000959  0.003474 -0.008748 -0.025077
26  -0.039647 -0.056266 0.002069  -0.038823 0.012484 -0.062053
27  0.042761 -0.082398 0.038132  0.000000 -0.000000 -0.000000
28  -0.000000 -0.000000 0.000000  -1.363075 -0.884571 1.441069
29  0.020122 -0.201078 -0.017893  -0.017152 -0.052600 0.651734
30  0.010469 -0.100374 -0.010235  0.003285 -0.034522 -0.003441
31  0.018520 -0.186856 -0.018450  -0.499495 -0.050293 0.006172
32  -0.032222 -0.200101 -0.061496  -0.373647 0.076960 -0.175998
33  0.009310 -0.057389 -0.045571  -0.159236 0.000844 -0.009527
34  0.068956 -0.193197 -0.059302  -0.581567 -0.043131 0.091166
35  0.008683 -0.056712 -0.045241  -0.015897 0.013533 -0.001050
36  0.102133 -0.077572 -0.031830  -0.015983 0.103405 0.330896
37  0.034314 -0.028671 -0.001806  0.004962 0.009756 -0.027959
38  0.001143 0.000000 -0.181957  -0.008216 -0.059585 0.000029
39  0.004961 -0.000269 -0.096018  -0.032846 0.052750 0.005595
40  -0.011623 0.003704 -0.088948  -0.020258 -0.034256 0.001059
41  -0.007644 0.000000 -0.210640  0.043949 0.115242 0.001961
time 13
0  0 0 0  0 0 0
1  0.000000 0.000010 0.000000  -1.570796 -0.000000 0.000000
2  0.000000 0.000000 0.000000  0.000000 -0.000000 0.000000
3  0.000000 0.000000 0.000000  0.000000 -0.000000 0.000000
4  0.006445 -0.000000 0.753335  0.000000 -0.000000 0.000000
5  0.087981 0.025703 1.066525  -0.000028 -0.062570 -0.000028
6  -0.000000 0.000000 0.000000  -0.000775 -0.105034 -0.007355
7  -0.000000 -0.000000 -0.000000  -0.000711 0.033536 0.000131
8  0.002937 0.000000 0.194891  0.035405 -0.028350 -0.001740
9  0.003500 0.000000 0.083408  0.035523 0.016750 -0.006239
10  -0.012239 -0.000000 0.122389  0.038696 -0.031947 -0.014652
11  0.000267 -0.000000 0.055138  -0.000000 0.187641 -0.000000
12  0.003234 -0.000000 0.052281  -0.000000 -0.306114 -0.000000
13  -0.001318 0.000000 0.060214  -0.000000 -0.199266 -0.000000
14  -0.039876 0.060989 0.002159  0.047494 -0.097400 0.058953
15  0.043265 0.077505 0.036874  -0.000000 0.000000 0.000000
16  0.000000 0.000000 -0.000000  -1.283094 -2.140954 0.904725
17  0.020259 0.201078 -0.017731  0.008550 -0.037204 -0.475221
18  0.010537 0.100376 -0.010148  0.007356 0.076638 -0.007164
19  0.018645 0.186859 -0.018292  0.331234 -0.034454 -0.001376
20  -0.032088 0.200172 -0.061335  0.330169 0.182709 0.342205
21  0.009278 0.058322 -0.044375  0.268964 0.009563 0.017972
22  0.069086 0.193200 -0.059144  0.656402 0.031882 -0.236666
23  0.008560 0.057628 -0.044090  -0.072459 0.035656 -0.005489
24  0.102185 0.077529 -0.031768  -0.402148 0.358670 -0.652330
25  0.038420 0.022931 -0.000959  0.001843 -0.004721 -0.013499
26  -0.039647 -0.056266 0.002069  -0.063062 0.004808 -0.079125
27  0.042760 -0.082398 0.038132  0.000000 -0.000000 0.000000
28  -0.000000 -0.000000 0.000000  -1.168669 -0.963660 1.309184
29  0.020122 -0.201078 -0.017893  -0.017362 -0.052904 0.655505
30  0.010469 -0.100374 -0.010235  0.003285 -0.034522 -0.003441
31  0.018520 -0.186856 -0.018450  -0.499829 -0.050321 0.006184
32  -0.032222 -0.200101 -0.061496  -0.387024 0.041857 -0.101336
33  0.009310 -0.057389 -0.045572  -0.151603 0.001562 -0.009125
34  0.068956 -0.193197 -0.059302  -0.499832 -0.024408 0.041730
35  0.008683 -0.056713 -0.045241  -0.074453 0.008528 -0.004657
36  0.102133 -0.077572 -0.031830  -0.014577 0.107760 0.316576
37  0.034314 -0.028672 -0.001806  0.009782 0.020060 -0.056881
38  0.001143 0.000000 -0.181958  -0.001720 -0.049156 0.000095
39  0.004961 -0.000269 -0.096017  -0.052752 0.020320 0.007172
40  -0.011623 0.003704 -0.088948  -0.024048 -0.055012 0.001496
41  -0.007644 0.000000 -0.210641  0.055887 0.103530 0.002982
time 14
0  0 0 0  0 0 0
1  0.000000 0.000010 0.000000  -1.570796 -0.000000 0.000000
2  0.000000 0.000000 0.000000  0.000000 -0.000000 0.000000
3  0.000000 0.000000 0.000000  0.000000 -0.000000 0.000000
4  0.006445 -0.000000 0.753335  0.000000 -0.000000 0.000000
5  0.108997 0.030568 0.966114  -0.000004 -0.003752 -0.000004
6  -0.000000 -0.000000 0.000000  -0.000775 -0.105034 -0.007355
7  -0.000000 0.000000 -0.000000  -0.000102 -0.046556 0.000023
8  0.002937 0.000000 0.194891  0.056234 -0.003970 -0.003010
9  0.003500 0.000000 0.083409  0.056251 0.002478 -0.003586
10  -0.012239 0.000000 0.122389  0.056679 -0.004467 -0.004853
11  0.000267 0.000000 0.055137  -0.000000 0.183033 0.000000
12  0.003234 0.000000 0.052281  -0.000000 -0.301839 -0.000000
13  -0.001319 -0.000000 0.060215  0.000000 -0.195095 0.000000
14  -0.039876 0.060989 0.002159  0.036569 -0.133633 0.040162
15  0.043265 0.077505 0.036874  -0.000000 -0.000000 0.000000
16  0.000000 0.000000 0.000000  -1.203205 -2.207183 0.822903
17  0.020260 0.201079 -0.017731  0.011345 -0.042878 -0.540160
18  0.010537 0.100376 -0.010148  0.007393 0.076811 -0.007179
19  0.018646 0.186860 -0.018292  0.458169 -0.047223 -0.004901
20  -0.032087 0.200172 -0.061335  0.308392 0.179446 0.331570
21  0.009278 0.058322 -0.044375  0.247415 0.011585 0.016771
22  0.069086 0.193199 -0.059144  0.628409 0.031558 -0.222602
23  0.008560 0.057628 -0.044091  -0.084615 0.036425 -0.006440
24  0.102185 0.077529 -0.031768  -0.394357 0.355012 -0.627310
25  0.038420 0.022931 -0.000959  0.000259 -0.000676 -0.001928
26  -0.039647 -0.056266 0.002069  -0.087166 -0.003278 -0.096005
27  0.042761 -0.082398 0.038132  0.000000 -0.000000 0.000000
28  -0.000000 0.000000 -0.000000  -0.934495 -1.024050 1.136105
29  0.020122 -0.201078 -0.017893  -0.017574 -0.053208 0.659276
30  0.010469 -0.100374 -0.010235  0.003285 -0.034522 -0.003441
31  0.018520 -0.186856 -0.018450  -0.500164 -0.050349 0.006196
32  -0.032223 -0.200100 -0.061496  -0.402965 0.007861 -0.026297
33  0.009310 -0.057389 -0.045571  -0.143970 0.002277 -0.008716
34  0.068955 -0.193197 -0.059302  -0.419173 -0.001747 -0.005982
35  0.008683 -0.056712 -0.045241  -0.132980 0.003320 -0.007964
36  0.102133 -0.077572 -0.031829  -0.013234 0.112134 0.302254
37  0.034314 -0.028672 -0.001806  0.014304 0.030498 -0.085760
38  0.001143 0.000000 -0.181958  0.004774 -0.038728 0.000229
39  0.004961 -0.000269 -0.096018  -0.072705 -0.012070 0.009394
40  -0.011623 0.003704 -0.088948  -0.027853 -0.075766 0.002013
41  -0.007644 0.000000 -0.210641  0.067800 0.091806 0.003861
time 15
0  0 0 0  0 0 0
1  0.000000 0.000010 0.000000  -1.570796 -0.000000 0.000000
2  0.000000 0.000000 0.000000  0.000000 -0.000000 0.000000
3  0.000000 0.000000 0.000000  0.000000 -0.000000 0.000000
4  0.006445 -0.000000 0.753335  0.000000 -0.000000 0.000000
5  0.096507 0.000000 0.472501  0.030867 -0.034141 -0.001657
6  0.000000 0.000000 -0.000000  -0.000775 -0.105034 -0.007355
7  -0.000000 -0.000000 -0.000000  0.000000 -0.088906 -0.000000
8  0.002937 -0.000000 0.194891  0.006930 0.099134 0.000895
9  0.003500 0.000000 0.083408  0.006710 0.068907 -0.003070
10  -0.012239 -0.000000 0.122389  0.007047 0.045097 -0.005767
11  0.000267 0.000000 0.055138  -0.000000 0.182265 -0.000000
12  0.003234 -0.000000 0.052281  -0.000000 -0.301127 -0.000000
13  -0.001319 0.000000 0.060215  0.000000 -0.194400 0.000000
14  -0.039876 0.060989 0.002159  0.000545 -0.211886 0.000614
15  0.043265 0.077505 0.036874  -0.000000 -0.000000 0.000000
16  0.000000 -0.000000 0.000000  -1.328868 -2.203723 0.955746
17  0.020260 0.201078 -0.017731  0.011846 -0.043805 -0.550976
18  0.010537 0.100376 -0.010148  0.007399 0.076840 -0.007181
19  0.018646 0.186860 -0.018292  0.479256 -0.049295 -0.005642
20  -0.032087 0.200172 -0.061335  0.132826 0.196076 0.324465
21  0.009278 0.058322 -0.044375  0.062187 0.027814 0.004707
22  0.069086 0.193199 -0.059144  0.526262 0.009862 -0.105018
23  0.008560 0.057628 -0.044090  -0.289408 0.047635 -0.023814
24  0.102185 0.077529 -0.031768  -0.480254 0.412657 -0.489465
25  0.038420 0.022931 -0.000959  0.000000 -0.000000 -0.000000
26  -0.039647 -0.056266 0.002069  -0.011447 -0.168018 -0.012603
27  0.042761 -0.082398 0.038132  -0.000000 -0.000000 -0.000000
28  0.000000 -0.000000 0.000000  -0.840261 -1.007306 1.043171
29  0.020122 -0.201078 -0.017893  -0.023429 -0.060770 0.756775
30  0.010469 -0.100374 -0.010235  0.003285 -0.034522 -0.003441
31  0.018520 -0.186856 -0.018450  -0.500220 -0.050354 0.006198
32  -0.032222 -0.200100 -0.061496  -0.405862 0.002325 -0.013761
33  0.009310 -0.057389 -0.045571  -0.142698 0.002396 -0.008648
34  0.068956 -0.193197 -0.059302  -0.405868 0.002390 -0.013733
35  0.008683 -0.056712 -0.045241  -0.142725 0.002435 -0.008485
36  0.102133 -0.077572 -0.031829  -0.013016 0.112865 0.299867
37  0.034314 -0.028672 -0.001806  0.015028 0.032250 -0.090568
38  0.001143 0.000000 -0.181958  0.011935 0.105231 0.000904
39  0.004961 -0.000269 -0.096017  -0.063010 -0.009302 0.008110
40  -0.011623 0.003704 -0.088948  -0.008647 -0.028820 0.000430
41  -0.007644 0.000000 -0.210641  0.020720 -0.017375 0.000921
time 16
0  0 0 0  0 0 0
1  0.000000 0.000010 0.000000  -1.570796 -0.000000 0.000000
2  0.000000 0.000000 0.000000  0.000000 -0.000000 0.000000
3  0.000000 0.000000 0.000000  0.000000 -0.000000 0.000000
4  0.006445 -0.000000 0.753335  0.000000 -0.000000 0.000000
5  0.072973 -0.026716 -0.004905  0.057708 -0.057831 -0.003780
6  0.000000 0.000000 -0.000000  -0.000775 -0.105034 -0.007355
7  -0.000000 0.000000 -0.000000  0.001381 -0.108019 0.000092
8  0.002937 -0.000000 0.194891  -0.039172 0.205528 0.001120
9  0.003500 0.000000 0.083408  -0.039840 0.147716 -0.006679
10  -0.012239 0.000000 0.122389  -0.039164 0.103168 -0.010678
11  0.000267 -0.000000 0.055137  0.000000 0.151739 -0.000000
12  0.003234 -0.000000 0.052281  -0.000000 -0.262070 -0.000000
13  -0.001319 -0.000000 0.060214  0.000000 -0.165896 0.000000
14  -0.039876 0.060989 0.002159  -0.081356 -0.335124 -0.009113
15  0.043265 0.077505 0.036874  -0.000000 -0.000000 0.000000
16  0.000000 0.000000 0.000000  1.513350 -1.035751 -1.865892
17  0.020260 0.201078 -0.017731  0.014027 -0.047582 -0.595765
18  0.010537 0.100376 -0.010148  0.007467 0.077572 -0.007247
19  0.018646 0.186860 -0.018292  0.446512 -0.046069 -0.004510
20  -0.032087 0.200172 -0.061335  -0.097667 0.215138 0.288668
21  0.009278 0.058322 -0.044375  -0.223843 0.047763 -0.019185
22  0.069086 0.193199 -0.059144  0.328030 0.008049 0.010381
23  0.008560 0.057628 -0.044090  -0.557425 0.056552 -0.049302
24  0.102185 0.077529 -0.031768  -0.541928 0.541455 -0.387722
25  0.038420 0.022931 -0.000959  -0.003115 0.008500 0.023996
26  -0.039647 -0.056266 0.002069  0.073872 -0.379618 0.061107
27  0.042761 -0.082398 0.038132  0.000000 -0.000000 0.000000
28  0.000000 -0.000000 0.000000  -0.651907 -0.929442 0.872046
29  0.020122 -0.201078 -0.017893  -0.029329 -0.067080 0.844878
30  0.010469 -0.100374 -0.010235  0.003285 -0.034522 -0.003441
31  0.018520 -0.186856 -0.018450  -0.532920 -0.053453 0.007469
32  -0.032222 -0.200101 -0.061496  -0.305498 0.012414 -0.011848
33  0.009310 -0.057389 -0.045571  -0.049815 0.010862 -0.003222
34  0.068956 -0.193197 -0.059302  -0.305501 0.012450 -0.011819
35  0.008683 -0.056713 -0.045241  -0.049820 0.010693 -0.003158
36  0.102133 -0.077572 -0.031829  0.017926 0.193065 0.288164
37  0.034314 -0.028672 -0.001806  0.016139 0.034979 -0.098053
38  0.001143 0.000000 -0.181958  0.022348 0.235443 0.003069
39  0.004961 -0.000269 -0.096018  -0.059571 -0.026605 0.007438
40  -0.011623 0.003704 -0.088948  0.008839 0.011055 -0.000240
41  -0.007644 0.000000 -0.210641  -0.020466 -0.104134 0.002315
time 17
0  0 0 0  0 0 0
1  0.000000 0.000010 0.000000  -1.570796 -0.000000 0.000000
2  0.000000 0.000000 0.000000  0.000000 -0.000000 0.000000
3  0.000000 0.000000 0.000000  0.000000 -0.000000 0.000000
4  0.006445 -0.000000 0.753335  0.000000 -0.000000 0.000000
5  0.027730 0.001257 -0.008068  0.032942 0.041002 -0.000532
6  -0.000000 0.000000 -0.000000  -0.000775 -0.105034 -0.007355
7  0.000000 0.000000 0.000000  0.009671 -0.048518 0.000934
8  0.002937 0.000000 0.194891  0.003637 0.249014 0.010825
9  0.003500 0.000000 0.083408  0.001358 0.208303 -0.005420
10  -0.012239 0.000000 0.122389  0.001548 0.182894 -0.008375
11  0.000267 -0.000000 0.055137  -0.000000 -0.032889 0.000000
12  0.003234 0.000000 0.052281  0.000000 -0.024596 -0.000000
13  -0.001319 0.000000 0.060214  -0.000000 0.006323 0.000000
14  -0.039876 0.060989 0.002159  -0.457407 -0.610389 0.226611
15  0.043265 0.077505 0.036874  0.000000 0.000000 -0.000000
16  0.000000 -0.000000 -0.000000  -0.231545 -0.766135 -0.019341
17  0.020260 0.201079 -0.017731  0.030797 -0.068183 -0.869677
18  0.010537 0.100376 -0.010148  0.007875 0.081964 -0.007641
19  0.018645 0.186860 -0.018292  0.248366 -0.025904 0.000039
20  -0.032087 0.200172 -0.061335  -0.455392 0.199129 0.119088
21  0.009278 0.058322 -0.044375  -0.928218 0.062764 -0.092897
22  0.069086 0.193199 -0.059144  -0.331197 0.055892 -0.018472
23  0.008560 0.057628 -0.044090  -0.962914 0.056553 -0.089969
24  0.102185 0.077529 -0.031768  -0.462538 0.930841 -0.582622
25  0.038420 0.022931 -0.000959  -0.017525 0.061147 0.168400
26  -0.039647 -0.056266 0.002069  0.191773 -0.636892 0.026209
27  0.042761 -0.082398 0.038132  -0.000000 -0.000000 -0.000000
28  0.000000 0.000000 -0.000000  -0.083340 -0.450317 0.494911
29  0.020122 -0.201078 -0.017893  -0.025703 -0.063336 0.791727
30  0.010469 -0.100374 -0.010236  0.003285 -0.034522 -0.003441
31  0.018520 -0.186856 -0.018450  -0.731171 -0.071180 0.017269
32  -0.032222 -0.200100 -0.061496  0.366843 0.069009 0.024748
33  0.009310 -0.057389 -0.045571  0.560757 0.050128 0.048529
34  0.068956 -0.193197 -0.059302  0.366851 0.068857 0.024703
35  0.008683 -0.056712 -0.045241  0.560822 0.048914 0.047538
36  0.102133 -0.077572 -0.031829  0.228694 0.716314 0.275255
37  0.034314 -0.028672 -0.001806  0.022382 0.051529 -0.142941
38  0.001143 0.000000 -0.181958  0.046524 0.163280 0.005680
39  0.004961 -0.000269 -0.096018  -0.118548 -0.180188 0.018416
40  -0.011623 0.003704 -0.088948  -0.004799 -0.052327 0.000301
41  -0.007644 0.000000 -0.210641  0.026824 0.019380 0.000921
time 18
0  0 0 0  0 0 0
1  0.000000 0.000010 0.000000  -1.570796 -0.000000 0.000000
2  0.000000 0.000000 0.000000  0.000000 -0.000000 0.000000
3  0.000000 0.000000 0.000000  0.000000 -0.000000 0.000000
4  0.006445 -0.000000 0.753335  0.000000 -0.000000 0.000000
5  -0.017513 0.029230 -0.011230  0.008267 0.139929 0.000277
6  0.000000 -0.000000 0.000000  -0.000775 -0.105034 -0.007355
7  0.000000 -0.000000 -0.000000  0.018004 0.010982 0.002268
8  0.002937 -0.000000 0.194891  0.047408 0.292057 0.022584
9  0.003500 0.000000 0.083409  0.043256 0.268798 -0.001555
10  -0.012239 0.000000 0.122389  0.043204 0.262485 -0.002673
11  0.000267 -0.000000 0.055137  0.000000 -0.217780 0.000000
12  0.003234 0.000000 0.052281  0.000000 0.213439 -0.000000
13  -0.001319 -0.000000 0.060214  -0.000000 0.178756 0.000000
14  -0.039876 0.060989 0.002159  -0.987017 -0.768401 0.631011
15  0.043265 0.077506 0.036874  0.000000 -0.000000 -0.000000
16  0.000000 0.000000 -0.000000  -0.492947 0.266073 0.411039
17  0.020259 0.201078 -0.017731  0.052630 -0.083519 -1.145132
18  0.010537 0.100376 -0.010148  0.008281 0.086357 -0.008033
19  0.018646 0.186860 -0.018292  0.050048 -0.005204 0.000526
20  -0.032088 0.200172 -0.061335  -0.804788 0.126146 -0.033880
21  0.009278 0.058322 -0.044375  -1.646447 0.025309 -0.159841
22  0.069086 0.193199 -0.059144  -1.005350 0.076013 -0.071778
23  0.008560 0.057628 -0.044090  -1.370715 0.040383 -0.127558
24  0.102185 0.077529 -0.031768  -0.577827 1.325534 -0.940467
25  0.038420 0.022931 -0.000959  -0.024233 0.115372 0.312860
26  -0.039647 -0.056266 0.002069  0.357052 -0.888279 -0.065924
27  0.042761 -0.082398 0.038132  -0.000000 -0.000000 -0.000000
28  -0.000000 0.000000 -0.000000  0.252562 0.112156 0.436712
29  0.020122 -0.201078 -0.017893  -0.022282 -0.059405 0.738596
30  0.010469 -0.100374 -0.010235  0.003285 -0.034522 -0.003441
31  0.018520 -0.186856 -0.018450  -0.930174 -0.086654 0.030419
32  -0.032223 -0.200101 -0.061496  1.056014 0.090367 0.090191
33  0.009310 -0.057389 -0.045571  1.182894 0.052293 0.114528
34  0.068955 -0.193197 -0.059302  1.056012 0.090114 0.089967
35  0.008683 -0.056713 -0.045241  1.182935 0.050830 0.112043
36  0.102133 -0.077572 -0.031829  0.696478 1.225254 0.565573
37  0.034314 -0.028672 -0.001806  0.027880 0.068343 -0.187774
38  0.001143 0.000000 -0.181958  0.070295 0.091058 0.006515
39  0.004961 -0.000269 -0.096018  -0.181794 -0.332994 0.039395
40  -0.011623 0.003704 -0.088948  -0.018546 -0.115707 0.001714
41  -0.007644 0.000000 -0.210641  0.074453 0.142911 0.005405
time 19
0  0 0 0  0 0 0
1  0.000000 0.000010 0.000000  -1.570796 -0.000000 0.000000
2  0.000000 0.000000 0.000000  0.000000 -0.000000 0.000000
3  0.000000 0.000000 0.000000  0.000000 -0.000000 0.000000
4  0.006445 -0.000000 0.753335  0.000000 -0.000000 0.000000
5  -0.017951 0.014570 -0.015884  0.023703 0.161304 -0.083389
6  -0.000000 0.000000 0.000000  -0.000775 -0.105034 -0.007355
7  0.000000 0.000000 -0.000000  -0.005324 0.061928 -0.043984
8  0.002937 -0.000000 0.194891  0.088544 0.217483 -0.006718
9  0.003500 0.000000 0.083408  0.025603 0.255985 -0.034761
10  -0.012239 -0.000000 0.122389  0.085007 0.246183 -0.025933
11  0.000267 -0.000000 0.055137  0.023313 -0.303492 -0.040287
12  0.003234 -0.000000 0.052281  0.001506 0.264713 -0.036810
13  -0.001318 0.000000 0.060214  -0.023747 0.203691 -0.033882
14  -0.039876 0.060989 0.002159  -1.041554 -0.676237 0.677006
15  0.043265 0.077506 0.036874  0.000000 -0.000000 0.000000
16  0.000000 0.000000 -0.000000  -0.390746 0.512141 0.592940
17  0.020259 0.201078 -0.017731  0.072613 -0.091140 -1.365787
18  0.010537 0.100376 -0.010148  0.007912 0.082373 -0.007678
19  0.018646 0.186860 -0.018292  -0.039139 0.004035 -0.000591
20  -0.032088 0.200172 -0.061335  -0.802976 0.114866 -0.025889
21  0.009278 0.058322 -0.044375  -1.634646 0.026290 -0.159002
22  0.069086 0.193199 -0.059144  -0.996224 0.075991 -0.070994
23  0.008560 0.057628 -0.044090  -1.370988 0.040365 -0.127577
24  0.102185 0.077529 -0.031768  -0.416564 1.352643 -0.774462
25  0.038420 0.022931 -0.000959  -0.024252 0.115829 0.314049
26  -0.039647 -0.056266 0.002069  0.377223 -0.841117 -0.124455
27  0.042761 -0.082398 0.038132  0.000000 -0.000000 0.000000
28  -0.000000 -0.000000 -0.000000  0.348379 0.216367 0.423736
29  0.020122 -0.201078 -0.017893  -0.029368 -0.067118 0.845428
30  0.010469 -0.100374 -0.010235  0.003285 -0.034522 -0.003441
31  0.018520 -0.186856 -0.018450  -0.520249 -0.052276 0.006967
32  -0.032222 -0.200101 -0.061496  1.157717 0.112629 0.061122
33  0.009310 -0.057389 -0.045571  1.171822 0.052614 0.113377
34  0.068956 -0.193197 -0.059302  1.070717 0.079200 0.107429
35  0.008683 -0.056712 -0.045241  1.212094 0.049930 0.114975
36  0.102133 -0.077572 -0.031829  0.893408 1.237580 0.741508
37  0.034314 -0.028672 -0.001806  0.026199 0.062882 -0.173296
38  0.001143 0.000000 -0.181958  0.021438 0.064283 0.001594
39  0.004961 -0.000269 -0.096018  -0.126040 -0.329367 0.057493
40  -0.011623 0.003704 -0.088948  -0.009678 -0.124430 0.035534
41  -0.007644 0.000000 -0.210641  0.055286 0.149855 0.037999
time 20
0  0 0 0  0 0 0
1  0.000000 0.000010 0.000000  -1.570796 -0.000000 0.000000
2  0.000000 0.000000 0.000000  0.000000 -0.000000 0.000000
3  0.000000 0.000000 0.000000  0.000000 -0.000000 0.000000
4  0.006445 -0.000000 0.753335  0.000000 -0.000000 0.000000
5  0.004014 -0.021405 -0.021284  0.060816 0.147766 -0.208738
6  0.000000 -0.000000 -0.000000  -0.000775 -0.105034 -0.007355
7  -0.000000 -0.000000 -0.000000  -0.047317 0.106228 -0.115931
8  0.002937 0.000000 0.194891  0.132989 0.086021 -0.060835
9  0.003500 0.000000 0.083408  -0.019406 0.204695 -0.084854
10  -0.012239 -0.000000 0.122389  0.128092 0.183453 -0.066654
11  0.000267 0.000000 0.055138  0.060557 -0.338582 -0.102444
12  0.003234 0.000000 0.052281  0.005658 0.224293 -0.091651
13  -0.001318 0.000000 0.060214  -0.057014 0.154062 -0.082873
14  -0.039876 0.060989 0.002159  -0.876300 -0.504181 0.560121
15  0.043265 0.077505 0.036874  -0.000000 -0.000000 0.000000
16  0.000000 0.000000 0.000000  -0.248114 0.460761 0.732986
17  0.020260 0.201078 -0.017731  0.091358 -0.094103 -1.561529
18  0.010537 0.100376 -0.010148  0.007151 0.074202 -0.006944
19  0.018646 0.186860 -0.018292  -0.074677 0.007662 -0.001262
20  -0.032087 0.200172 -0.061335  -0.633783 0.138323 0.054291
21  0.009278 0.058322 -0.044375  -1.297010 0.049611 -0.130662
22  0.069086 0.193199 -0.059144  -0.677414 0.070762 -0.044160
23  0.008560 0.057628 -0.044090  -1.175089 0.050055 -0.110341
24  0.102185 0.077529 -0.031768  -0.211419 1.185787 -0.449854
25  0.038420 0.022931 -0.000959  -0.022005 0.089422 0.243947
26  -0.039647 -0.056266 0.002069  0.303950 -0.652333 -0.148378
27  0.042761 -0.082398 0.038132  0.000000 0.000000 0.000000
28  0.000000 -0.000000 0.000000  0.346095 0.116409 0.375337
29  0.020122 -0.201078 -0.017893  -0.043611 -0.078646 1.032640
30  0.010469 -0.100374 -0.010235  0.003285 -0.034522 -0.003441
31  0.018520 -0.186856 -0.018450  0.199426 0.019890 0.004602
32  -0.032222 -0.200100 -0.061496  0.997694 0.139987 -0.018295
33  0.009310 -0.057389 -0.045571  0.869699 0.056370 0.081131
34  0.068956 -0.193197 -0.059302  0.782598 0.066131 0.105541
35  0.008683 -0.056712 -0.045241  0.970713 0.054704 0.090032
36  0.102133 -0.077572 -0.031829  0.702138 1.059958 0.596210
37  0.034314 -0.028672 -0.001806  0.020573 0.046405 -0.129148
38  0.001143 0.000000 -0.181958  -0.063615 0.059686 -0.005321
39  0.004961 -0.000269 -0.096018  -0.010022 -0.250035 0.078237
40  -0.011623 0.003704 -0.088948  0.011277 -0.106712 0.085487
41  -0.007644 0.000000 -0.210641  0.000727 0.100872 0.084642
time 21
0  0 0 0  0 0 0
1  0.000000 0.000010 0.000000  -1.570796 -0.000000 0.000000
2  0.000000 0.000000 0.000000  0.000000 -0.000000 0.000000
3  0.000000 0.000000 0.000000  0.000000 -0.000000 0.000000
4  0.006445 -0.000000 0.753335  0.000000 -0.000000 0.000000
5  0.034078 -0.063876 -0.026051  0.092695 0.109095 -0.328342
6  0.000000 0.000000 0.000000  -0.000775 -0.105034 -0.007355
7  0.000000 -0.000000 -0.000000  -0.082675 0.134158 -0.179990
8  0.002937 0.000000 0.194891  0.155040 -0.045895 -0.110366
9  0.003500 0.000000 0.083408  -0.072805 0.145436 -0.136206
10  -0.012239 -0.000000 0.122389  0.149669 0.107340 -0.105338
11  0.000267 0.000000 0.055138  0.106911 -0.391381 -0.184645
12  0.003234 -0.000000 0.052281  0.007178 0.167686 -0.168577
13  -0.001318 0.000000 0.060214  -0.101661 0.089449 -0.155330
14  -0.039876 0.060989 0.002159  -0.723520 -0.284475 0.471909
15  0.043265 0.077505 0.036874  0.000000 -0.000000 -0.000000
16  0.000000 0.000000 -0.000000  -0.321489 0.177828 0.892219
17  0.020260 0.201078 -0.017731  0.098705 -0.094262 -1.637221
18  0.010537 0.100376 -0.010148  0.007659 0.079649 -0.007434
19  0.018646 0.186860 -0.018292  -0.050985 0.005247 -0.000800
20  -0.032088 0.200172 -0.061335  -0.400187 0.186134 0.152644
21  0.009278 0.058322 -0.044375  -0.829397 0.063856 -0.082187
22  0.069086 0.193199 -0.059144  -0.237579 0.050426 -0.012542
23  0.008560 0.057628 -0.044090  -0.902752 0.057591 -0.083978
24  0.102185 0.077529 -0.031768  -0.375141 0.902296 -0.451707
25  0.038420 0.022931 -0.000959  -0.015824 0.053043 0.146506
26  -0.039647 -0.056266 0.002069  0.217826 -0.423270 -0.194746
27  0.042761 -0.082398 0.038132  -0.000000 -0.000000 -0.000000
28  -0.000000 0.000000 0.000000  0.413308 0.194056 0.237435
29  0.020122 -0.201078 -0.017893  -0.066812 -0.089983 1.297002
30  0.010469 -0.100374 -0.010235  -0.038510 0.507363 0.040747
31  0.018520 -0.186856 -0.018450  0.069518 0.007049 0.001155
32  -0.032222 -0.200101 -0.061496  0.694513 0.174946 -0.105598
33  0.009310 -0.057389 -0.045571  0.465604 0.046215 0.039038
34  0.068956 -0.193197 -0.059302  0.359716 0.024617 0.093167
35  0.008683 -0.056712 -0.045241  0.618146 0.050752 0.053274
36  0.102133 -0.077572 -0.031829  0.676140 0.797310 0.643251
37  0.034315 -0.028672 -0.001806  0.013062 0.027529 -0.077590
38  0.001143 0.000000 -0.181958  -0.106719 0.097070 -0.010920
39  0.004961 -0.000269 -0.096018  0.034341 -0.149112 0.122858
40  -0.011623 0.003704 -0.088948  0.034082 -0.064453 0.133345
41  -0.007644 0.000000 -0.210641  -0.059006 0.033393 0.131902
time 22
0  0 0 0  0 0 0
1  0.000000 0.000010 0.000000  -1.570796 -0.000000 0.000000
2  0.000000 0.000000 0.000000  0.000000 -0.000000 0.000000
3  0.000000 0.000000 0.000000  0.000000 -0.000000 0.000000
4  0.006445 -0.000000 0.753335  0.000000 -0.000000 0.000000
5  0.064143 -0.106346 -0.030819  0.128950 0.074414 -0.448985
6  0.000000 -0.000000 -0.000000  -0.000775 -0.105034 -0.007355
7  -0.000000 -0.000000 0.000000  -0.119938 0.159778 -0.245308
8  0.002937 0.000000 0.194891  0.184088 -0.176840 -0.163705
9  0.003500 -0.000000 0.083408  -0.122764 0.083583 -0.184005
10  -0.012239 -0.000000 0.122389  0.174084 0.032052 -0.145492
11  0.000267 -0.000000 0.055137  0.159007 -0.440393 -0.271424
12  0.003234 0.000000 0.052281  0.013067 0.111295 -0.245069
13  -0.001319 0.000000 0.060215  -0.141404 0.021771 -0.224660
14  -0.039876 0.060989 0.002159  -0.595152 -0.053607 0.420820
15  0.043265 0.077505 0.036874  0.000000 -0.000000 -0.000000
16  -0.000000 0.000000 -0.000000  -0.439657 -0.093437 1.072487
17  0.020260 0.201078 -0.017731  0.106048 -0.093867 -1.712964
18  0.010537 0.100376 -0.010148  0.008164 0.085097 -0.007921
19  0.018645 0.186860 -0.018292  -0.027293 0.002821 -0.000396
20  -0.032088 0.200172 -0.061335  -0.159497 0.209964 0.261125
21  0.009278 0.058322 -0.044375  -0.348214 0.054151 -0.031147
22  0.069086 0.193199 -0.059144  0.212046 0.017701 0.007701
23  0.008560 0.057628 -0.044090  -0.627687 0.057732 -0.056295
24  0.102185 0.077529 -0.031768  -0.500732 0.617729 -0.396040
25  0.038420 0.022931 -0.000959  -0.006126 0.017388 0.048833
26  -0.039647 -0.056266 0.002069  0.126349 -0.196736 -0.258207
27  0.042761 -0.082398 0.038132  -0.000000 -0.000000 -0.000000
28  -0.000000 -0.000000 0.000000  0.470339 0.280376 0.101941
29  0.020122 -0.201078 -0.017893  -0.092426 -0.094893 1.564088
30  0.010469 -0.100374 -0.010236  -0.066900 1.071990 0.076379
31  0.018520 -0.186856 -0.018449  -0.060623 -0.006158 -0.000602
32  -0.032222 -0.200101 -0.061496  0.384663 0.182326 -0.200950
33  0.009310 -0.057389 -0.045571  0.054006 0.019676 0.003737
34  0.068956 -0.193197 -0.059302  -0.072473 -0.019275 0.099267
35  0.008683 -0.056712 -0.045241  0.260500 0.034024 0.019680
36  0.102133 -0.077572 -0.031829  0.640481 0.533214 0.689733
37  0.034314 -0.028672 -0.001806  0.004589 0.009059 -0.025889
38  0.001143 0.000000 -0.181958  -0.150239 0.134193 -0.018167
39  0.004961 -0.000269 -0.096018  0.082811 -0.050141 0.171560
40  -0.011623 0.003704 -0.088948  0.058856 -0.023315 0.182096
41  -0.007644 0.000000 -0.210641  -0.121940 -0.031155 0.183172
end
