version 1
nodes
0 "blender_implicit" -1
1 "Skel0" -1
2 "Skel1" 1
3 "Skel2" 2
4 "Skel3" 3
5 "Skel4" 4
6 "Skel5" 5
7 "Skel6" 6
8 "Skel7" 7
9 "Skel8" 8
10 "Skel9" 9
11 "Skel10" 10
12 "Skel11" 11
13 "Skel12" 12
14 "Skel13" 10
15 "Skel14" 14
16 "Skel15" 15
17 "Skel16" 16
18 "Skel17" 17
19 "Skel18" 18
20 "Skel19" 19
21 "Skel20" 20
22 "Skel21" 19
23 "Skel22" 22
24 "Skel23" 19
25 "Skel24" 24
26 "Skel25" 10
27 "Skel26" 26
28 "Skel27" 27
29 "Skel28" 28
30 "Skel29" 29
31 "Skel30" 30
32 "Skel31" 31
33 "Skel32" 32
34 "Skel33" 31
35 "Skel34" 34
36 "Skel35" 31
37 "Skel36" 36
38 "Skel37" 5
39 "Skel38" 38
40 "Skel39" 39
41 "Skel40" 40
end
skeleton
time 0
0  0 0 0  0 0 0
1  0.000000 0.000010 0.000000  -1.570796 -0.000000 0.000000
2  0.000000 0.000000 0.000000  0.000000 -0.000000 0.000000
3  0.000000 0.000000 0.000000  0.000000 -0.000000 0.000000
4  0.006445 -0.000000 0.753335  0.000000 -0.000000 0.000000
5  0.437838 0.000000 -0.141689  0.000000 0.784770 0.000000
6  0.000000 0.000000 0.000000  0.000000 -0.000000 0.000000
7  0.000000 0.000000 0.000000  0.000000 -0.138479 0.000000
8  0.002937 -0.000000 0.194891  0.000000 -0.089142 0.000000
9  0.003500 0.000000 0.083408  0.000000 -0.089142 0.000000
10  -0.012239 0.000000 0.122389  0.000000 -0.101179 0.000000
11  0.000267 0.000000 0.055138  0.000000 0.205259 0.000000
12  0.003234 0.000000 0.052281  0.000000 -0.131322 0.000000
13  -0.001319 0.000000 0.060214  -0.000012 -0.441136 0.570753
14  -0.039876 0.060989 0.002159  -0.112618 -0.497440 -0.123200
15  0.043265 0.077505 0.036874  0.000000 -0.000000 0.000000
16  -0.000000 -0.000000 0.000000  0.081764 -0.379928 0.243085
17  0.020260 0.201078 -0.017731  0.104586 -0.093990 -1.697857
18  0.010537 0.100376 -0.010148  0.022051 0.246640 -0.021325
19  0.018646 0.186860 -0.018292  0.770860 -0.075949 -0.020194
20  -0.032088 0.200172 -0.061335  -0.062165 0.127391 0.149838
21  0.009278 0.058322 -0.044375  0.000019 0.032714 0.000018
22  0.069086 0.193199 -0.059144  0.227667 -0.024183 -0.202313
23  0.008560 0.057628 -0.044090  0.107928 0.022817 0.007526
24  0.102185 0.077529 -0.031768  -0.255953 0.086565 -0.382035
25  0.038420 0.022931 -0.000959  0.000000 0.000000 0.000000
26  -0.039647 -0.056266 0.002069  0.111832 -0.499437 0.127924
27  0.042761 -0.082398 0.038132  0.000000 -0.000000 -0.000000
28  0.000000 -0.000000 -0.000000  -0.322391 0.648575 -0.577751
29  0.020122 -0.201078 -0.017893  -0.062182 -0.088305 1.246718
30  0.010469 -0.100374 -0.010236  0.000000 -0.000000 0.000000
31  0.018520 -0.186856 -0.018450  -0.440038 -0.044567 0.004129
32  -0.032222 -0.200101 -0.061496  -0.020434 0.150927 -0.241038
33  0.009310 -0.057389 -0.045571  -0.000040 0.015141 -0.000020
34  0.068956 -0.193197 -0.059302  -0.007467 -0.075956 0.251333
35  0.008683 -0.056712 -0.045241  -0.000018 0.014885 -0.000005
36  0.102133 -0.077572 -0.031829  0.101078 0.208819 0.312959
37  0.034315 -0.028672 -0.001806  -0.000000 -0.000000 0.000000
38  0.001143 0.000000 -0.181958  -0.002659 0.107109 -0.000570
39  0.004961 -0.000269 -0.096018  -0.001529 -0.278813 -0.011065
40  -0.011623 0.003704 -0.088948  0.009951 -0.010558 -0.000358
41  -0.007644 0.000000 -0.210641  0.004395 0.010986 0.000024
time 1
0  0 0 0  0 0 0
1  0.000000 0.000010 0.000000  -1.570796 -0.000000 0.000000
2  0.000000 0.000000 0.000000  0.000000 -0.000000 0.000000
3  0.000000 0.000000 0.000000  0.000000 -0.000000 0.000000
4  0.006884 -0.000000 0.747710  0.000000 -0.000000 0.000000
5  0.439589 0.000000 -0.148622  0.000000 0.710138 0.000000
6  0.000000 0.000000 0.000000  0.000000 0.000000 0.000000
7  0.000000 0.000000 0.000000  0.000000 -0.101949 0.000000
8  0.002937 0.000000 0.194891  0.000000 -0.067485 0.000000
9  0.003500 0.000000 0.083408  0.000000 -0.093688 0.000000
10  -0.012239 0.000000 0.122389  0.000000 -0.081569 0.000000
11  0.000267 0.000000 0.055137  0.000000 0.140462 0.000000
12  0.003234 -0.000000 0.052281  0.000000 -0.080875 0.000000
13  -0.001319 0.000000 0.060214  -0.000097 -0.433762 0.604865
14  -0.039876 0.060989 0.002159  -0.112273 -0.496388 -0.122810
15  0.043265 0.077505 0.036874  0.000000 -0.000000 0.000000
16  0.000000 -0.000000 -0.000000  0.075402 0.043483 0.508075
17  0.020260 0.201078 -0.017731  0.092902 -0.094183 -1.577453
18  0.010537 0.100376 -0.010148  0.011508 0.122304 -0.011185
19  0.018646 0.186860 -0.018292  0.724909 -0.072069 -0.017398
20  -0.032088 0.200172 -0.061335  -0.062811 0.128294 0.151383
21  0.009278 0.058322 -0.044375  0.000019 0.032714 0.000018
22  0.069086 0.193199 -0.059144  0.230005 -0.024787 -0.204399
23  0.008560 0.057628 -0.044090  0.109036 0.022762 0.007581
24  0.102185 0.077529 -0.031768  -0.258339 0.085915 -0.385796
25  0.038420 0.022931 -0.000959  -0.000000 -0.000000 0.000000
26  -0.039647 -0.056266 0.002069  0.111503 -0.498354 0.127493
27  0.042761 -0.082398 0.038132  0.000000 -0.000000 0.000000
28  -0.000000 -0.000000 -0.000000  -0.545673 0.448497 -0.571641
29  0.020122 -0.201078 -0.017893  -0.088803 -0.094622 1.526985
30  0.010469 -0.100374 -0.010235  -0.010131 0.113266 0.010532
31  0.018520 -0.186856 -0.018450  -0.273378 -0.027955 0.000253
32  -0.032222 -0.200101 -0.061496  -0.020654 0.152062 -0.243515
33  0.009310 -0.057389 -0.045571  -0.000040 0.015141 -0.000020
34  0.068956 -0.193197 -0.059302  -0.007550 -0.077164 0.253931
35  0.008683 -0.056713 -0.045241  -0.000018 0.014885 -0.000005
36  0.102133 -0.077572 -0.031829  0.102003 0.208863 0.316181
37  0.034315 -0.028672 -0.001806  -0.000000 0.000000 0.000000
38  0.001143 0.000000 -0.181958  0.002505 0.130117 -0.000045
39  0.004961 -0.000269 -0.096018  -0.008383 -0.096534 -0.002536
40  -0.011623 0.003704 -0.088948  0.007092 0.024308 -0.000146
41  -0.007644 0.000000 -0.210641  0.005600 -0.016519 0.000503
time 2
0  0 0 0  0 0 0
1  0.000000 0.000010 0.000000  -1.570796 -0.000000 0.000000
2  0.000000 0.000000 0.000000  0.000000 -0.000000 0.000000
3  0.000000 0.000000 0.000000  0.000000 -0.000000 0.000000
4  0.007646 -0.000000 0.742549  0.000000 -0.000000 0.000000
5  0.440497 0.000000 -0.152238  0.000000 0.671166 0.000000
6  0.000000 0.000000 0.000000  0.000000 -0.000000 0.000000
7  0.000000 0.000000 0.000000  0.000000 -0.082876 0.000000
8  0.002937 0.000000 0.194891  0.000000 -0.051728 0.000000
9  0.003500 0.000000 0.083408  0.000000 -0.088130 0.000000
10  -0.012239 0.000000 0.122389  0.000000 -0.073115 0.000000
11  0.000267 0.000000 0.055137  0.000000 0.105970 0.000000
12  0.003234 0.000000 0.052281  0.000000 -0.064351 0.000000
13  -0.001318 0.000000 0.060214  -0.000028 -0.431064 0.624386
14  -0.039876 0.060989 0.002159  -0.114773 -0.503607 -0.125644
15  0.043265 0.077505 0.036874  -0.000000 -0.000000 -0.000000
16  0.000000 0.000000 0.000000  0.210105 0.321328 0.674548
17  0.020260 0.201078 -0.017731  0.086296 -0.093670 -1.509202
18  0.010537 0.100376 -0.010148  0.005048 0.052089 -0.004929
19  0.018646 0.186860 -0.018292  0.624394 -0.063131 -0.011918
20  -0.032088 0.200172 -0.061335  -0.063098 0.128695 0.152069
21  0.009278 0.058322 -0.044375  0.000019 0.032714 0.000018
22  0.069086 0.193199 -0.059144  0.231044 -0.025053 -0.205327
23  0.008560 0.057628 -0.044090  0.109528 0.022737 0.007606
24  0.102185 0.077529 -0.031768  -0.259399 0.085624 -0.387466
25  0.038420 0.022931 -0.000959  -0.000000 -0.000000 0.000000
26  -0.039647 -0.056266 0.002069  0.113917 -0.506031 0.130392
27  0.042761 -0.082398 0.038132  0.000000 -0.000000 0.000000
28  -0.000000 0.000000 0.000000  -0.625126 0.257946 -0.383807
29  0.020122 -0.201078 -0.017893  -0.097779 -0.095050 1.618774
30  0.010469 -0.100374 -0.010235  -0.018305 0.214393 0.019103
31  0.018520 -0.186856 -0.018450  -0.213917 -0.021901 -0.000453
32  -0.032222 -0.200101 -0.061496  -0.020753 0.152567 -0.244617
33  0.009310 -0.057389 -0.045571  -0.000040 0.015141 -0.000020
34  0.068956 -0.193197 -0.059302  -0.007588 -0.077701 0.255086
35  0.008683 -0.056713 -0.045241  -0.000018 0.014885 -0.000005
36  0.102133 -0.077572 -0.031830  0.102414 0.208881 0.317613
37  0.034314 -0.028672 -0.001806  -0.000000 0.000000 0.000000
38  0.001143 0.000000 -0.181958  0.005111 0.174864 0.000256
39  0.004961 -0.000269 -0.096018  -0.010745 -0.035591 0.000069
40  -0.011623 0.003704 -0.088948  0.005391 0.038568 -0.000087
41  -0.007644 0.000000 -0.210641  0.006374 -0.030754 0.000736
time 3
0  0 0 0  0 0 0
1  0.000000 0.000010 0.000000  -1.570796 -0.000000 0.000000
2  0.000000 0.000000 0.000000  0.000000 -0.000000 0.000000
3  0.000000 0.000000 0.000000  0.000000 -0.000000 0.000000
4  0.009057 -0.000000 0.738316  0.000000 -0.000000 0.000000
5  0.439719 0.000000 -0.149222  0.000000 0.703501 0.000000
6  0.000000 0.000000 0.000000  0.000000 -0.000000 0.000000
7  0.000000 0.000000 0.000000  0.000000 -0.098716 0.000000
8  0.002937 0.000000 0.194891  0.000000 -0.047771 0.000000
9  0.003500 0.000000 0.083408  0.000000 -0.062357 0.000000
10  -0.012239 0.000000 0.122389  0.000000 -0.086971 0.000000
11  0.000267 0.000000 0.055138  0.000000 0.132078 0.000000
12  0.003234 0.000000 0.052281  0.000000 -0.115695 0.000000
13  -0.001319 0.000000 0.060215  -0.000062 -0.437719 0.614903
14  -0.039876 0.060989 0.002159  -0.122868 -0.527415 -0.134863
15  0.043265 0.077505 0.036874  0.000000 0.000000 0.000000
16  0.000000 -0.000000 0.000000  0.439844 0.337496 0.622487
17  0.020259 0.201078 -0.017731  0.089774 -0.093996 -1.545176
18  0.010537 0.100376 -0.010148  0.008571 0.089855 -0.008346
19  0.018646 0.186860 -0.018292  0.412803 -0.042734 -0.003458
20  -0.032088 0.200172 -0.061335  -0.062668 0.128093 0.151039
21  0.009278 0.058322 -0.044375  0.000019 0.032714 0.000018
22  0.069086 0.193199 -0.059144  0.229485 -0.024653 -0.203935
23  0.008560 0.057628 -0.044090  0.108789 0.022774 0.007569
24  0.102185 0.077529 -0.031768  -0.257809 0.086060 -0.384960
25  0.038420 0.022931 -0.000959  -0.000000 -0.000000 0.000000
26  -0.039647 -0.056266 0.002069  0.121710 -0.531277 0.139895
27  0.042761 -0.082398 0.038132  0.000000 -0.000000 0.000000
28  0.000000 0.000000 0.000000  -0.510059 0.020423 0.085797
29  0.020122 -0.201078 -0.017893  -0.069787 -0.090925 1.328872
30  0.010469 -0.100374 -0.010236  -0.024063 0.291277 0.025187
31  0.018520 -0.186856 -0.018450  -0.369359 -0.037609 0.002147
32  -0.032222 -0.200100 -0.061496  -0.020605 0.151810 -0.242965
33  0.009310 -0.057389 -0.045571  -0.000040 0.015141 -0.000020
34  0.068956 -0.193197 -0.059302  -0.007531 -0.076896 0.253354
35  0.008683 -0.056712 -0.045241  -0.000018 0.014885 -0.000005
36  0.102133 -0.077572 -0.031829  0.101797 0.208853 0.315465
37  0.034314 -0.028672 -0.001806  0.000000 -0.000000 0.000000
38  0.001143 0.000000 -0.181958  0.002494 0.263254 -0.000258
39  0.004961 -0.000269 -0.096018  -0.005828 -0.218511 -0.007642
40  -0.011623 0.003704 -0.088948  0.006002 0.011612 -0.000181
41  -0.007644 0.000000 -0.210641  0.006307 -0.018448 0.000532
time 4
0  0 0 0  0 0 0
1  0.000000 0.000010 0.000000  -1.570796 -0.000000 0.000000
2  0.000000 0.000000 0.000000  0.000000 -0.000000 0.000000
3  0.000000 0.000000 0.000000  0.000000 -0.000000 0.000000
4  0.010468 -0.000000 0.734084  0.000000 -0.000000 0.000000
5  0.438941 0.000000 -0.146205  0.000000 0.735836 0.000000
6  0.000000 0.000000 0.000000  0.000000 -0.000000 0.000000
7  0.000000 0.000000 0.000000  0.000000 -0.114556 0.000000
8  0.002937 0.000000 0.194891  0.000000 -0.043815 0.000000
9  0.003500 0.000000 0.083408  0.000000 -0.036584 0.000000
10  -0.012239 0.000000 0.122389  0.000000 -0.100826 0.000000
11  0.000267 0.000000 0.055138  0.000000 0.158186 0.000000
12  0.003234 0.000000 0.052281  0.000000 -0.167033 0.000000
13  -0.001319 0.000000 0.060214  -0.000026 -0.444373 0.605390
14  -0.039876 0.060989 0.002159  -0.130821 -0.551286 -0.143987
15  0.043265 0.077505 0.036874  -0.000000 -0.000000 0.000000
16  0.000000 -0.000000 0.000000  0.669604 0.364388 0.575450
17  0.020260 0.201078 -0.017731  0.093261 -0.094198 -1.581150
18  0.010537 0.100376 -0.010148  0.011980 0.127630 -0.011643
19  0.018645 0.186860 -0.018292  0.201927 -0.021060 0.000521
20  -0.032087 0.200172 -0.061335  -0.062237 0.127492 0.150009
21  0.009278 0.058322 -0.044375  0.000019 0.032714 0.000018
22  0.069086 0.193199 -0.059144  0.227927 -0.024250 -0.202545
23  0.008560 0.057628 -0.044090  0.108051 0.022811 0.007532
24  0.102185 0.077529 -0.031768  -0.256218 0.086493 -0.382453
25  0.038420 0.022931 -0.000959  0.000000 -0.000000 -0.000000
26  -0.039647 -0.056266 0.002069  0.129339 -0.556585 0.149312
27  0.042760 -0.082398 0.038132  0.000000 -0.000000 -0.000000
28  -0.000000 0.000000 0.000000  -0.512792 -0.239978 0.534460
29  0.020122 -0.201078 -0.017893  -0.044246 -0.079064 1.040394
30  0.010469 -0.100374 -0.010235  -0.029473 0.368174 0.030958
31  0.018520 -0.186856 -0.018449  -0.524792 -0.052709 0.007147
32  -0.032222 -0.200101 -0.061496  -0.020459 0.151053 -0.241313
33  0.009310 -0.057389 -0.045571  -0.000040 0.015141 -0.000020
34  0.068956 -0.193197 -0.059302  -0.007476 -0.076090 0.251621
35  0.008683 -0.056713 -0.045241  -0.000018 0.014885 -0.000005
36  0.102133 -0.077572 -0.031829  0.101181 0.208824 0.313317
37  0.034315 -0.028672 -0.001806  -0.000000 -0.000000 -0.000000
38  0.001143 0.000000 -0.181958  -0.000245 0.351613 -0.001032
39  0.004961 -0.000269 -0.096018  0.000899 -0.401129 -0.016778
40  -0.011623 0.003704 -0.088948  0.006615 -0.015344 -0.000291
41  -0.007644 0.000000 -0.210641  0.006237 -0.006141 0.000327
time 5
0  0 0 0  0 0 0
1  0.000000 0.000010 0.000000  -1.570796 -0.000000 0.000000
2  0.000000 0.000000 0.000000  0.000000 -0.000000 0.000000
3  0.000000 0.000000 0.000000  0.000000 -0.000000 0.000000
4  0.012162 -0.000000 0.730703  0.000000 -0.000000 0.000000
5  0.437838 0.000000 -0.141689  0.000000 0.784770 0.000000
6  0.000000 0.000000 0.000000  0.000000 -0.000000 0.000000
7  0.000000 0.000000 0.000000  0.000000 -0.138479 0.000000
8  0.002937 -0.000000 0.194891  0.000000 -0.089142 0.000000
9  0.003500 0.000000 0.083408  0.000000 -0.089142 0.000000
10  -0.012239 -0.000000 0.122389  0.000000 -0.101179 0.000000
11  0.000267 0.000000 0.055138  0.000000 0.205259 0.000000
12  0.003234 0.000000 0.052281  0.000000 -0.131322 0.000000
13  -0.001319 0.000000 0.060215  -0.000012 -0.441136 0.570753
14  -0.039876 0.060989 0.002159  -0.112618 -0.497440 -0.123200
15  0.043265 0.077505 0.036874  0.000000 -0.000000 0.000000
16  -0.000000 0.000000 -0.000000  0.679244 0.042811 0.177077
17  0.020260 0.201078 -0.017731  0.087678 -0.093815 -1.523514
18  0.010537 0.100376 -0.010148  0.022051 0.246640 -0.021325
19  0.018645 0.186860 -0.018292  0.252042 -0.026261 -0.000008
20  -0.032088 0.200172 -0.061335  -0.062165 0.127391 0.149837
21  0.009279 0.058322 -0.044375  0.000019 0.032714 0.000018
22  0.069086 0.193199 -0.059144  0.227667 -0.024183 -0.202313
23  0.008560 0.057628 -0.044090  0.107928 0.022817 0.007526
24  0.102185 0.077529 -0.031768  -0.255953 0.086565 -0.382035
25  0.038420 0.022931 -0.000959  -0.000000 -0.000000 0.000000
26  -0.039647 -0.056266 0.002069  0.111832 -0.499437 0.127924
27  0.042760 -0.082398 0.038132  0.000000 -0.000000 -0.000000
28  0.000000 -0.000000 0.000000  -0.335573 -0.490956 0.361485
29  0.020122 -0.201078 -0.017893  -0.067832 -0.090318 1.307968
30  0.010469 -0.100374 -0.010235  -0.027628 0.341282 0.028971
31  0.018520 -0.186856 -0.018450  -0.680435 -0.066843 0.014431
32  -0.032222 -0.200101 -0.061496  -0.020434 0.150927 -0.241038
33  0.009310 -0.057389 -0.045571  -0.000040 0.015141 -0.000020
34  0.068956 -0.193197 -0.059302  -0.007467 -0.075956 0.251333
35  0.008683 -0.056712 -0.045241  -0.000018 0.014885 -0.000005
36  0.102133 -0.077572 -0.031829  0.101078 0.208819 0.312959
37  0.034314 -0.028672 -0.001806  -0.000000 0.000000 -0.000000
38  0.001143 0.000000 -0.181958  -0.000933 0.279599 -0.000933
39  0.004961 -0.000269 -0.096018  0.001179 -0.404251 -0.017002
40  -0.011623 0.003704 -0.088948  0.008079 -0.066967 -0.000515
41  -0.007644 0.000000 -0.210641  0.006226 0.006897 0.000083
time 6
0  0 0 0  0 0 0
1  0.000000 0.000010 0.000000  -1.570796 -0.000000 0.000000
2  0.000000 0.000000 0.000000  0.000000 -0.000000 0.000000
3  0.000000 0.000000 0.000000  0.000000 -0.000000 0.000000
4  0.014132 -0.000000 0.728368  0.000000 -0.000000 0.000000
5  0.439589 0.000000 -0.148622  0.000000 0.710138 0.000000
6  0.000000 0.000000 0.000000  0.000000 0.000000 0.000000
7  0.000000 0.000000 0.000000  0.000000 -0.101949 0.000000
8  0.002937 0.000000 0.194891  0.000000 -0.067485 0.000000
9  0.003500 0.000000 0.083408  0.000000 -0.093688 0.000000
10  -0.012239 0.000000 0.122389  0.000000 -0.081569 0.000000
11  0.000267 0.000000 0.055137  0.000000 0.140462 0.000000
12  0.003234 0.000000 0.052281  0.000000 -0.080875 0.000000
13  -0.001319 -0.000000 0.060214  0.021870 -0.323144 0.038508
14  -0.039876 0.060989 0.002159  -0.112273 -0.496388 -0.122810
15  0.043265 0.077505 0.036874  -0.000000 0.000000 0.000000
16  -0.000000 0.000000 -0.000000  0.552715 -0.178970 -0.317397
17  0.020259 0.201078 -0.017731  0.057617 -0.085904 -1.202052
18  0.010537 0.100376 -0.010148  0.028394 0.327167 -0.027343
19  0.018645 0.186860 -0.018292  0.431076 -0.044544 -0.004014
20  -0.032088 0.200172 -0.061335  -0.062165 0.127391 0.149838
21  0.009278 0.058322 -0.044375  0.000019 0.032714 0.000018
22  0.069086 0.193199 -0.059144  0.227667 -0.024183 -0.202313
23  0.008560 0.057628 -0.044090  0.107928 0.022817 0.007526
24  0.102185 0.077529 -0.031768  -0.255953 0.086565 -0.382035
25  0.038420 0.022931 -0.000959  0.000000 0.000000 0.000000
26  -0.039647 -0.056266 0.002069  0.111503 -0.498354 0.127493
27  0.042761 -0.082398 0.038132  -0.000000 -0.000000 0.000000
28  -0.000000 0.000000 0.000000  -0.059713 -0.268485 -0.296456
29  0.020122 -0.201078 -0.017893  -0.094705 -0.094996 1.587380
30  0.010469 -0.100374 -0.010235  -0.018514 0.216832 0.019299
31  0.018520 -0.186856 -0.018450  -0.753447 -0.073044 0.018586
32  -0.032222 -0.200101 -0.061496  -0.020434 0.150927 -0.241038
33  0.009310 -0.057389 -0.045571  -0.000040 0.015141 -0.000020
34  0.068956 -0.193197 -0.059302  -0.007467 -0.075956 0.251333
35  0.008683 -0.056712 -0.045241  -0.000018 0.014885 -0.000005
36  0.102133 -0.077572 -0.031830  0.101078 0.208819 0.312959
37  0.034314 -0.028672 -0.001806  0.000000 -0.000000 0.000000
38  0.001143 0.000000 -0.181958  0.004551 0.312619 0.000099
39  0.004961 -0.000269 -0.096018  -0.009501 -0.254347 -0.008045
40  -0.011623 0.003704 -0.088948  0.006778 -0.004701 -0.000224
41  -0.007644 0.000000 -0.210641  0.006987 -0.026728 0.000664
time 7
0  0 0 0  0 0 0
1  0.000000 0.000010 0.000000  -1.570796 -0.000000 0.000000
2  0.000000 0.000000 0.000000  0.000000 -0.000000 0.000000
3  0.000000 0.000000 0.000000  0.000000 -0.000000 0.000000
4  0.016127 -0.000000 0.726276  0.000000 -0.000000 0.000000
5  0.441146 0.000000 -0.154897  0.000000 0.642957 0.000000
6  0.000000 0.000000 0.000000  0.000000 -0.000000 0.000000
7  0.000000 0.000000 0.000000  0.000000 -0.069070 0.000000
8  0.002937 -0.000000 0.194891  0.000000 -0.033513 0.000000
9  0.003500 0.000000 0.083408  0.000000 -0.072950 0.000000
10  -0.012239 0.000000 0.122389  0.000000 -0.069571 0.000000
11  0.000267 -0.000000 0.055137  0.000000 0.080996 0.000000
12  0.003234 0.000000 0.052281  0.000000 -0.061048 0.000000
13  -0.001318 0.000000 0.060214  0.002692 -0.221928 -0.444780
14  -0.039876 0.060989 0.002159  -0.120409 -0.520123 -0.132075
15  0.043265 0.077505 0.036874  -0.000000 -0.000000 0.000000
16  -0.000000 0.000000 0.000000  0.462899 -0.385538 -0.527858
17  0.020260 0.201078 -0.017731  0.050007 -0.082121 -1.114529
18  0.010537 0.100376 -0.010148  0.031258 0.364978 -0.030038
19  0.018646 0.186860 -0.018292  0.601643 -0.061005 -0.010798
20  -0.032087 0.200172 -0.061335  -0.062165 0.127391 0.149838
21  0.009278 0.058322 -0.044375  0.000019 0.032714 0.000018
22  0.069086 0.193199 -0.059144  0.227667 -0.024183 -0.202313
23  0.008560 0.057627 -0.044090  0.107928 0.022817 0.007526
24  0.102185 0.077529 -0.031768  -0.255953 0.086565 -0.382035
25  0.038420 0.022931 -0.000959  -0.000000 0.000000 0.000000
26  -0.039647 -0.056266 0.002069  0.119369 -0.523563 0.137015
27  0.042760 -0.082398 0.038132  -0.000000 -0.000000 0.000000
28  0.000000 0.000000 0.000000  -0.064791 0.103896 -0.693119
29  0.020122 -0.201078 -0.017893  -0.102203 -0.094959 1.663958
30  0.010469 -0.100374 -0.010235  -0.008671 0.096183 0.009012
31  0.018520 -0.186856 -0.018450  -0.762834 -0.073814 0.019152
32  -0.032222 -0.200101 -0.061496  -0.020434 0.150927 -0.241038
33  0.009310 -0.057389 -0.045571  -0.000040 0.015141 -0.000020
34  0.068955 -0.193197 -0.059302  -0.007467 -0.075956 0.251333
35  0.008683 -0.056712 -0.045241  -0.000018 0.014885 -0.000005
36  0.102133 -0.077572 -0.031829  0.101078 0.208819 0.312959
37  0.034314 -0.028672 -0.001806  -0.000000 0.000000 -0.000000
38  0.001143 0.000000 -0.181958  0.008975 0.374405 0.001128
39  0.004961 -0.000269 -0.096018  -0.016716 -0.162484 -0.003183
40  -0.011623 0.003704 -0.088948  0.006312 0.051486 -0.000045
41  -0.007644 0.000000 -0.210641  0.007537 -0.043771 0.000958
time 8
0  0 0 0  0 0 0
1  0.000000 0.000010 0.000000  -1.570796 -0.000000 0.000000
2  0.000000 0.000000 0.000000  0.000000 -0.000000 0.000000
3  0.000000 0.000000 0.000000  0.000000 -0.000000 0.000000
4  0.018024 -0.000000 0.725035  0.000000 -0.000000 0.000000
5  0.441146 0.000000 -0.155189  0.000000 0.642957 0.000000
6  0.000000 -0.000000 0.000000  0.000000 -0.000000 0.000000
7  0.000000 -0.000000 0.000000  0.000000 -0.068595 0.000000
8  0.002937 0.000000 0.194891  0.000000 -0.005090 0.000000
9  0.003500 0.000000 0.083408  0.000000 -0.025612 0.000000
10  -0.012239 0.000000 0.122389  0.000000 -0.080199 0.000000
11  0.000267 -0.000000 0.055138  0.000000 0.078467 0.000000
12  0.003234 0.000000 0.052281  0.000000 -0.117476 0.000000
13  -0.001318 -0.000000 0.060214  -0.000041 -0.190214 -0.708508
14  -0.039876 0.060989 0.002159  -0.136397 -0.568272 -0.150469
15  0.043265 0.077505 0.036874  0.000000 -0.000000 0.000000
16  0.000000 0.000000 -0.000000  0.208900 -0.378568 0.022323
17  0.020259 0.201078 -0.017731  0.089280 -0.093958 -1.540079
18  0.010537 0.100376 -0.010148  0.025076 0.284438 -0.024198
19  0.018645 0.186860 -0.018293  0.736144 -0.072999 -0.018057
20  -0.032088 0.200172 -0.061335  -0.062165 0.127391 0.149838
21  0.009278 0.058322 -0.044375  0.000019 0.032714 0.000018
22  0.069086 0.193199 -0.059144  0.227667 -0.024183 -0.202313
23  0.008560 0.057628 -0.044090  0.107928 0.022817 0.007526
24  0.102185 0.077529 -0.031768  -0.255953 0.086565 -0.382035
25  0.038420 0.022931 -0.000959  0.000000 0.000000 0.000000
26  -0.039647 -0.056266 0.002069  0.134699 -0.574605 0.155961
27  0.042761 -0.082398 0.038132  -0.000000 -0.000000 -0.000000
28  0.000000 -0.000000 0.000000  -0.332427 0.547626 -0.697562
29  0.020122 -0.201078 -0.017893  -0.071573 -0.091441 1.347853
30  0.010469 -0.100374 -0.010235  -0.001471 0.015821 0.001539
31  0.018520 -0.186856 -0.018450  -0.545465 -0.054640 0.007985
32  -0.032222 -0.200101 -0.061496  -0.020434 0.150927 -0.241038
33  0.009310 -0.057388 -0.045571  -0.000040 0.015141 -0.000020
34  0.068956 -0.193197 -0.059302  -0.007467 -0.075956 0.251333
35  0.008683 -0.056712 -0.045241  -0.000018 0.014885 -0.000005
36  0.102133 -0.077572 -0.031829  0.101078 0.208819 0.312959
37  0.034314 -0.028672 -0.001806  -0.000000 -0.000000 -0.000000
38  0.001143 0.000000 -0.181958  0.007845 0.425795 0.000934
39  0.004961 -0.000269 -0.096018  -0.014431 -0.223771 -0.005738
40  -0.011623 0.003704 -0.088948  0.006093 0.054014 -0.000043
41  -0.007644 0.000000 -0.210641  0.007578 -0.037763 0.000870
time 9
0  0 0 0  0 0 0
1  0.000000 0.000010 0.000000  -1.570796 -0.000000 0.000000
2  0.000000 0.000000 0.000000  0.000000 -0.000000 0.000000
3  0.000000 0.000000 0.000000  0.000000 -0.000000 0.000000
4  0.019630 -0.000000 0.724743  0.000000 -0.000000 0.000000
5  0.439589 0.000000 -0.148914  0.000000 0.710138 0.000000
6  0.000000 0.000000 0.000000  0.000000 0.000000 0.000000
7  0.000000 0.000000 0.000000  0.000000 -0.101473 0.000000
8  0.002937 0.000000 0.194891  0.000000 -0.039062 0.000000
9  0.003500 0.000000 0.083408  0.000000 -0.046350 0.000000
10  -0.012239 0.000000 0.122389  0.000000 -0.092197 0.000000
11  0.000267 0.000000 0.055137  0.000000 0.137932 0.000000
12  0.003234 0.000000 0.052281  0.000000 -0.137304 0.000000
13  -0.001319 -0.000000 0.060214  0.000023 -0.193857 -0.774250
14  -0.039876 0.060989 0.002159  -0.128547 -0.544410 -0.141391
15  0.043265 0.077505 0.036874  0.000000 -0.000000 -0.000000
16  0.000000 -0.000000 0.000000  0.098961 -0.068228 0.432564
17  0.020260 0.201078 -0.017731  0.096788 -0.094274 -1.617484
18  0.010537 0.100376 -0.010148  0.015142 0.163768 -0.014691
19  0.018646 0.186860 -0.018292  0.744111 -0.073686 -0.018539
20  -0.032087 0.200172 -0.061335  -0.062165 0.127391 0.149838
21  0.009278 0.058322 -0.044375  0.000019 0.032714 0.000018
22  0.069086 0.193199 -0.059144  0.227667 -0.024183 -0.202313
23  0.008560 0.057628 -0.044090  0.107928 0.022817 0.007526
24  0.102185 0.077529 -0.031768  -0.255953 0.086565 -0.382035
25  0.038420 0.022931 -0.000959  -0.000000 -0.000000 0.000000
26  -0.039647 -0.056266 0.002069  0.127160 -0.549271 0.146610
27  0.042761 -0.082398 0.038132  0.000000 -0.000000 -0.000000
28  0.000000 -0.000000 0.000000  -0.511686 0.545506 -0.624007
29  0.020122 -0.201078 -0.017893  -0.074898 -0.092305 1.382923
30  0.010469 -0.100374 -0.010235  -0.004940 0.053556 0.005116
31  0.018520 -0.186856 -0.018449  -0.327033 -0.033350 0.001196
32  -0.032222 -0.200101 -0.061496  -0.020434 0.150927 -0.241038
33  0.009310 -0.057389 -0.045571  -0.000040 0.015141 -0.000020
34  0.068956 -0.193197 -0.059302  -0.007467 -0.075956 0.251333
35  0.008683 -0.056712 -0.045241  -0.000018 0.014885 -0.000005
36  0.102133 -0.077572 -0.031829  0.101078 0.208819 0.312959
37  0.034314 -0.028672 -0.001806  0.000000 0.000000 0.000000
38  0.001143 0.000000 -0.181958  0.002729 0.419674 -0.000430
39  0.004961 -0.000269 -0.096018  -0.004565 -0.382199 -0.014244
40  -0.011623 0.003704 -0.088948  0.007483 0.011136 -0.000215
41  -0.007644 0.000000 -0.210641  0.006856 -0.019547 0.000556
time 10
0  0 0 0  0 0 0
1  0.000000 0.000010 0.000000  -1.570796 -0.000000 0.000000
2  0.000000 0.000000 0.000000  0.000000 -0.000000 0.000000
3  0.000000 0.000000 0.000000  0.000000 -0.000000 0.000000
4  0.021162 -0.000000 0.724743  0.000000 -0.000000 0.000000
5  0.437838 0.000000 -0.141689  0.000000 0.784770 0.000000
6  0.000000 0.000000 -0.000000  0.000000 -0.000000 0.000000
7  0.000000 0.000000 -0.000000  0.000000 -0.138479 0.000000
8  0.002937 -0.000000 0.194891  0.000000 -0.089142 0.000000
9  0.003500 0.000000 0.083408  0.000000 -0.089142 0.000000
10  -0.012239 -0.000000 0.122389  0.000000 -0.101179 0.000000
11  0.000267 0.000000 0.055138  0.000000 0.205259 0.000000
12  0.003234 0.000000 0.052281  0.000000 -0.131322 0.000000
13  -0.001319 0.000000 0.060214  0.000026 -0.194576 -0.821849
14  -0.039876 0.060989 0.002159  -0.112618 -0.497440 -0.123200
15  0.043265 0.077505 0.036874  0.000000 -0.000000 0.000000
16  0.000000 0.000000 -0.000000  0.132946 0.316801 0.693972
17  0.020260 0.201078 -0.017731  0.085165 -0.093537 -1.497474
18  0.010537 0.100376 -0.010148  0.003846 0.039508 -0.003762
19  0.018646 0.186860 -0.018292  0.698368 -0.069749 -0.015860
20  -0.032088 0.200172 -0.061335  -0.062165 0.127391 0.149838
21  0.009278 0.058322 -0.044375  0.000019 0.032714 0.000018
22  0.069086 0.193199 -0.059144  0.227667 -0.024183 -0.202313
23  0.008560 0.057628 -0.044090  0.107928 0.022817 0.007526
24  0.102185 0.077529 -0.031768  -0.255953 0.086565 -0.382035
25  0.038420 0.022931 -0.000959  0.000000 -0.000000 -0.000000
26  -0.039647 -0.056266 0.002069  0.111832 -0.499437 0.127924
27  0.042761 -0.082398 0.038132  0.000000 -0.000000 -0.000000
28  -0.000000 0.000000 0.000000  -0.647923 0.339119 -0.525359
29  0.020122 -0.201078 -0.017893  -0.094723 -0.094996 1.587564
30  0.010469 -0.100374 -0.010235  -0.011883 0.133946 0.012342
31  0.018520 -0.186856 -0.018450  -0.157531 -0.016074 -0.000788
32  -0.032222 -0.200101 -0.061496  -0.020434 0.150927 -0.241038
33  0.009310 -0.057389 -0.045571  -0.000040 0.015141 -0.000020
34  0.068956 -0.193197 -0.059302  -0.007467 -0.075956 0.251333
35  0.008683 -0.056712 -0.045241  -0.000018 0.014885 -0.000005
36  0.102133 -0.077572 -0.031830  0.101078 0.208819 0.312959
37  0.034314 -0.028672 -0.001806  -0.000000 0.000000 0.000000
38  0.001143 0.000000 -0.181958  -0.002710 0.418765 -0.001886
39  0.004961 -0.000269 -0.096018  0.009065 -0.570707 -0.027213
40  -0.011623 0.003704 -0.088948  0.010387 -0.033692 -0.000541
41  -0.007644 0.000000 -0.210641  0.005799 0.009827 0.000028
time 11
0  0 0 0  0 0 0
1  0.000000 0.000010 0.000000  -1.570796 -0.000000 0.000000
2  0.000000 0.000000 0.000000  0.000000 -0.000000 0.000000
3  0.000000 0.000000 0.000000  0.000000 -0.000000 0.000000
4  0.021843 -0.000000 0.726252  0.000000 -0.000000 0.000000
5  0.439395 0.000000 -0.147965  0.000000 0.717594 0.000000
6  -0.000000 0.000000 -0.000000  0.000000 -0.000000 0.000000
7  -0.000000 0.000000 -0.000000  0.000000 -0.105602 0.000000
8  0.002937 -0.000000 0.194891  0.000000 -0.055171 0.000000
9  0.003500 0.000000 0.083408  0.000000 -0.068404 0.000000
10  -0.012239 0.000000 0.122389  0.000000 -0.089180 0.000000
11  0.000267 -0.000000 0.055137  0.000000 0.145797 0.000000
12  0.003234 0.000000 0.052281  0.000000 -0.111493 0.000000
13  -0.001318 0.000000 0.060214  -0.000009 -0.190936 -0.805709
14  -0.039876 0.060989 0.002159  -0.120748 -0.521178 -0.132460
15  0.043265 0.077505 0.036874  -0.000000 -0.000000 -0.000000
16  -0.000000 -0.000000 -0.000000  0.363575 0.330736 0.640720
17  0.020259 0.201078 -0.017731  0.088594 -0.093900 -1.532990
18  0.010537 0.100376 -0.010148  0.007410 0.077264 -0.007221
19  0.018646 0.186860 -0.018292  0.484033 -0.049783 -0.005819
20  -0.032088 0.200172 -0.061335  -0.062165 0.127391 0.149837
21  0.009278 0.058322 -0.044375  0.000019 0.032714 0.000018
22  0.069086 0.193199 -0.059144  0.227667 -0.024183 -0.202313
23  0.008560 0.057628 -0.044090  0.107928 0.022817 0.007526
24  0.102185 0.077529 -0.031768  -0.255953 0.086565 -0.382035
25  0.038420 0.022931 -0.000959  -0.000000 -0.000000 0.000000
26  -0.039647 -0.056266 0.002069  0.119690 -0.524649 0.137442
27  0.042760 -0.082398 0.038132  0.000000 -0.000000 -0.000000
28  -0.000000 0.000000 0.000000  -0.511823 0.114535 -0.060281
29  0.020122 -0.201078 -0.017893  -0.071781 -0.091499 1.350055
30  0.010469 -0.100374 -0.010235  -0.019726 0.232684 0.020580
31  0.018520 -0.186856 -0.018450  -0.314519 -0.032084 0.000949
32  -0.032222 -0.200101 -0.061496  -0.020434 0.150927 -0.241038
33  0.009310 -0.057389 -0.045571  -0.000040 0.015141 -0.000020
34  0.068956 -0.193197 -0.059302  -0.007467 -0.075956 0.251333
35  0.008683 -0.056712 -0.045241  -0.000018 0.014885 -0.000005
36  0.102133 -0.077572 -0.031829  0.101078 0.208819 0.312959
37  0.034315 -0.028672 -0.001806  0.000000 0.000000 0.000000
38  0.001143 0.000000 -0.181958  0.001169 0.432025 -0.000881
39  0.004961 -0.000269 -0.096018  -0.001504 -0.424602 -0.016928
40  -0.011623 0.003704 -0.088948  0.008670 0.014265 -0.000231
41  -0.007644 0.000000 -0.210641  0.006458 -0.000745 0.000242
time 12
0  0 0 0  0 0 0
1  0.000000 0.000010 0.000000  -1.570796 -0.000000 0.000000
2  0.000000 0.000000 0.000000  0.000000 -0.000000 0.000000
3  0.000000 0.000000 0.000000  0.000000 -0.000000 0.000000
4  0.022524 -0.000000 0.727760  0.000000 -0.000000 0.000000
5  0.440951 0.000000 -0.154241  0.000000 0.650380 0.000000
6  -0.000000 0.000000 -0.000000  0.000000 -0.000000 0.000000
7  -0.000000 0.000000 -0.000000  0.000000 -0.072719 0.000000
8  0.002937 0.000000 0.194891  0.000000 -0.021195 0.000000
9  0.003500 0.000000 0.083408  0.000000 -0.047664 0.000000
10  -0.012239 -0.000000 0.122389  0.000000 -0.077182 0.000000
11  0.000267 0.000000 0.055138  0.000000 0.086310 0.000000
12  0.003234 0.000000 0.052281  0.000000 -0.091664 0.000000
13  -0.001319 0.000000 0.060214  0.000017 -0.187296 -0.789579
14  -0.039876 0.060989 0.002159  -0.128735 -0.544982 -0.141626
15  0.043265 0.077505 0.036874  -0.000000 -0.000000 0.000000
16  0.000000 -0.000000 0.000000  0.596596 0.356102 0.591545
17  0.020260 0.201078 -0.017731  0.092035 -0.094141 -1.568515
18  0.010537 0.100376 -0.010148  0.010856 0.115039 -0.010557
19  0.018646 0.186860 -0.018292  0.268836 -0.028014 -0.000244
20  -0.032088 0.200172 -0.061335  -0.062165 0.127391 0.149838
21  0.009278 0.058322 -0.044375  0.000019 0.032714 0.000018
22  0.069086 0.193199 -0.059144  0.227667 -0.024183 -0.202313
23  0.008560 0.057627 -0.044090  0.107928 0.022817 0.007526
24  0.102185 0.077529 -0.031768  -0.255953 0.086565 -0.382035
25  0.038420 0.022931 -0.000959  0.000000 -0.000000 0.000000
26  -0.039647 -0.056266 0.002069  0.127386 -0.549928 0.146873
27  0.042761 -0.082398 0.038132  -0.000000 -0.000000 0.000000
28  -0.000000 0.000000 -0.000000  -0.490862 -0.153939 0.388345
29  0.020122 -0.201078 -0.017893  -0.050177 -0.082648 1.111138
30  0.010469 -0.100374 -0.010235  -0.026947 0.331604 0.028248
31  0.018520 -0.186856 -0.018450  -0.472126 -0.047673 0.005189
32  -0.032222 -0.200101 -0.061496  -0.020434 0.150927 -0.241038
33  0.009310 -0.057388 -0.045571  -0.000040 0.015141 -0.000020
34  0.068956 -0.193197 -0.059302  -0.007467 -0.075956 0.251333
35  0.008683 -0.056713 -0.045241  -0.000018 0.014885 -0.000005
36  0.102133 -0.077572 -0.031829  0.101078 0.208819 0.312959
37  0.034314 -0.028672 -0.001806  -0.000000 -0.000000 0.000000
38  0.001143 0.000000 -0.181958  0.005087 0.445281 0.000188
39  0.004961 -0.000269 -0.096018  -0.009984 -0.278024 -0.008763
40  -0.011623 0.003704 -0.088948  0.006963 0.062236 -0.000003
41  -0.007644 0.000000 -0.210641  0.007115 -0.011318 0.000448
time 13
0  0 0 0  0 0 0
1  0.000000 0.000010 0.000000  -1.570796 -0.000000 0.000000
2  0.000000 0.000000 0.000000  0.000000 -0.000000 0.000000
3  0.000000 0.000000 0.000000  0.000000 -0.000000 0.000000
4  0.022524 -0.000000 0.730290  0.000000 -0.000000 0.000000
5  0.440951 0.000000 -0.154241  0.000000 0.650380 0.000000
6  -0.000000 0.000000 0.000000  0.000000 -0.000000 0.000000
7  -0.000000 0.000000 0.000000  0.000000 -0.072719 0.000000
8  0.002937 0.000000 0.194891  0.000000 -0.021195 0.000000
9  0.003500 0.000000 0.083408  0.000000 -0.047664 0.000000
10  -0.012239 0.000000 0.122389  0.000000 -0.077182 0.000000
11  0.000267 0.000000 0.055137  0.000000 0.086310 0.000000
12  0.003234 0.000000 0.052281  0.000000 -0.091664 0.000000
13  -0.001319 0.000000 0.060214  0.005430 -0.288909 -0.758667
14  -0.039876 0.060989 0.002159  -0.128735 -0.544982 -0.141626
15  0.043265 0.077505 0.036874  -0.000000 -0.000000 -0.000000
16  0.000000 0.000000 0.000000  0.606583 0.260099 0.315217
17  0.020260 0.201078 -0.017731  0.082278 -0.093136 -1.467460
18  0.010537 0.100376 -0.010148  0.016810 0.183220 -0.016291
19  0.018646 0.186860 -0.018293  0.239725 -0.024992 0.000146
20  -0.032087 0.200172 -0.061335  -0.062165 0.127391 0.149838
21  0.009278 0.058322 -0.044375  0.000019 0.032714 0.000018
22  0.069086 0.193199 -0.059144  0.227667 -0.024183 -0.202313
23  0.008560 0.057628 -0.044090  0.107928 0.022817 0.007526
24  0.102185 0.077529 -0.031768  -0.255953 0.086565 -0.382035
25  0.038420 0.022931 -0.000959  -0.000000 -0.000000 -0.000000
26  -0.039647 -0.056266 0.002069  0.127386 -0.549928 0.146873
27  0.042761 -0.082398 0.038132  -0.000000 0.000000 -0.000000
28  -0.000000 0.000000 -0.000000  -0.404183 -0.290069 0.349178
29  0.020122 -0.201078 -0.017893  -0.053276 -0.084301 1.146997
30  0.010469 -0.100374 -0.010235  -0.026947 0.331604 0.028248
31  0.018520 -0.186856 -0.018449  -0.598526 -0.059549 0.010324
32  -0.032222 -0.200101 -0.061496  -0.020434 0.150927 -0.241038
33  0.009310 -0.057389 -0.045571  -0.000040 0.015141 -0.000020
34  0.068956 -0.193197 -0.059302  -0.007467 -0.075956 0.251333
35  0.008683 -0.056712 -0.045241  -0.000018 0.014885 -0.000005
36  0.102133 -0.077572 -0.031829  0.101078 0.208819 0.312959
37  0.034314 -0.028672 -0.001806  -0.000000 -0.000000 -0.000000
38  0.001143 0.000000 -0.181958  0.004869 0.431705 0.000143
39  0.004961 -0.000269 -0.096018  -0.010278 -0.271887 -0.008461
40  -0.011623 0.003704 -0.088948  0.007331 0.071094 0.000029
41  -0.007644 0.000000 -0.210641  0.006846 -0.011025 0.000451
time 14
0  0 0 0  0 0 0
1  0.000000 0.000010 0.000000  -1.570796 -0.000000 0.000000
2  0.000000 0.000000 0.000000  0.000000 -0.000000 0.000000
3  0.000000 0.000000 0.000000  0.000000 -0.000000 0.000000
4  0.021843 -0.000000 0.733841  0.000000 -0.000000 0.000000
5  0.439395 0.000000 -0.147965  0.000000 0.717594 0.000000
6  0.000000 0.000000 0.000000  0.000000 0.000000 0.000000
7  0.000000 0.000000 0.000000  0.000000 -0.105601 0.000000
8  0.002937 -0.000000 0.194891  0.000000 -0.055171 0.000000
9  0.003500 0.000000 0.083408  0.000000 -0.068403 0.000000
10  -0.012239 0.000000 0.122389  0.000000 -0.089180 0.000000
11  0.000267 0.000000 0.055137  0.000000 0.145797 0.000000
12  0.003234 0.000000 0.052281  0.000000 -0.111493 0.000000
13  -0.001318 0.000000 0.060214  0.008897 -0.498091 -0.711147
14  -0.039876 0.060989 0.002159  -0.120748 -0.521178 -0.132460
15  0.043265 0.077505 0.036874  -0.000000 -0.000000 -0.000000
16  -0.000000 -0.000000 0.000000  0.494877 -0.040363 -0.176096
17  0.020260 0.201078 -0.017731  0.059843 -0.086859 -1.226998
18  0.010537 0.100376 -0.010148  0.024899 0.282075 -0.024020
19  0.018646 0.186860 -0.018292  0.395251 -0.040955 -0.002952
20  -0.032088 0.200172 -0.061335  -0.062165 0.127391 0.149838
21  0.009278 0.058322 -0.044375  0.000019 0.032714 0.000018
22  0.069086 0.193199 -0.059144  0.227667 -0.024183 -0.202313
23  0.008560 0.057628 -0.044090  0.107928 0.022817 0.007526
24  0.102185 0.077529 -0.031768  -0.255953 0.086565 -0.382035
25  0.038420 0.022931 -0.000959  -0.000000 0.000000 -0.000000
26  -0.039647 -0.056266 0.002069  0.119690 -0.524649 0.137442
27  0.042761 -0.082398 0.038132  0.000000 -0.000000 0.000000
28  -0.000000 0.000000 0.000000  -0.162729 -0.219949 -0.189000
29  0.020122 -0.201078 -0.017893  -0.082442 -0.093816 1.461510
30  0.010469 -0.100374 -0.010235  -0.019726 0.232684 0.020580
31  0.018520 -0.186856 -0.018450  -0.694704 -0.068078 0.015207
32  -0.032222 -0.200100 -0.061496  -0.020434 0.150927 -0.241038
33  0.009310 -0.057388 -0.045571  -0.000040 0.015141 -0.000020
34  0.068956 -0.193197 -0.059302  -0.007467 -0.075956 0.251333
35  0.008683 -0.056713 -0.045241  -0.000018 0.014885 -0.000005
36  0.102133 -0.077572 -0.031829  0.101078 0.208819 0.312959
37  0.034314 -0.028672 -0.001806  -0.000000 -0.000000 0.000000
38  0.001143 0.000000 -0.181958  0.000580 0.391283 -0.000906
39  0.004961 -0.000269 -0.096018  -0.002598 -0.406039 -0.015810
40  -0.011623 0.003704 -0.088948  0.009767 0.040856 -0.000130
41  -0.007644 0.000000 -0.210641  0.005652 0.000134 0.000245
time 15
0  0 0 0  0 0 0
1  0.000000 0.000010 0.000000  -1.570796 -0.000000 0.000000
2  0.000000 0.000000 0.000000  0.000000 -0.000000 0.000000
3  0.000000 0.000000 0.000000  0.000000 -0.000000 0.000000
4  0.021162 -0.000000 0.737392  0.000000 -0.000000 0.000000
5  0.437838 0.000000 -0.141689  0.000000 0.784770 0.000000
6  0.000000 0.000000 0.000000  0.000000 -0.000000 0.000000
7  0.000000 0.000000 0.000000  0.000000 -0.138479 0.000000
8  0.002937 -0.000000 0.194891  0.000000 -0.089142 0.000000
9  0.003500 0.000000 0.083408  0.000000 -0.089142 0.000000
10  -0.012239 -0.000000 0.122389  0.000000 -0.101179 0.000000
11  0.000267 0.000000 0.055138  0.000000 0.205259 0.000000
12  0.003234 0.000000 0.052281  0.000000 -0.131322 0.000000
13  -0.001319 0.000000 0.060214  0.000021 -0.705972 -0.657517
14  -0.039876 0.060989 0.002159  -0.112618 -0.497440 -0.123200
15  0.043265 0.077505 0.036874  0.000000 -0.000000 0.000000
16  0.000000 -0.000000 -0.000000  0.533472 -0.345936 -0.643496
17  0.020260 0.201078 -0.017731  0.039702 -0.075543 -0.988613
18  0.010537 0.100376 -0.010148  0.032437 0.380862 -0.031148
19  0.018646 0.186860 -0.018292  0.550471 -0.056201 -0.008471
20  -0.032088 0.200172 -0.061335  -0.062165 0.127391 0.149838
21  0.009278 0.058322 -0.044375  0.000019 0.032714 0.000018
22  0.069086 0.193199 -0.059144  0.227667 -0.024183 -0.202313
23  0.008560 0.057628 -0.044090  0.107928 0.022817 0.007526
24  0.102185 0.077529 -0.031768  -0.255953 0.086565 -0.382035
25  0.038420 0.022931 -0.000959  -0.000000 0.000000 0.000000
26  -0.039647 -0.056266 0.002069  0.111832 -0.499437 0.127924
27  0.042760 -0.082398 0.038132  0.000000 -0.000000 -0.000000
28  0.000000 -0.000000 -0.000000  0.002671 -0.050364 -0.671966
29  0.020122 -0.201078 -0.017893  -0.112779 -0.093929 1.772505
30  0.010469 -0.100374 -0.010235  -0.011883 0.133946 0.012342
31  0.018520 -0.186856 -0.018450  -0.790868 -0.076090 0.020885
32  -0.032222 -0.200101 -0.061496  -0.020434 0.150927 -0.241038
33  0.009310 -0.057389 -0.045571  -0.000040 0.015141 -0.000020
34  0.068956 -0.193197 -0.059302  -0.007467 -0.075956 0.251333
35  0.008683 -0.056712 -0.045241  -0.000018 0.014885 -0.000005
36  0.102133 -0.077572 -0.031829  0.101078 0.208819 0.312959
37  0.034314 -0.028672 -0.001806  0.000000 -0.000000 0.000000
38  0.001143 0.000000 -0.181958  -0.003596 0.350865 -0.001753
39  0.004961 -0.000269 -0.096018  0.006751 -0.539825 -0.024857
40  -0.011623 0.003704 -0.088948  0.012206 0.010623 -0.000362
41  -0.007644 0.000000 -0.210641  0.004456 0.011292 0.000025
time 16
0  0 0 0  0 0 0
1  0.000000 0.000010 0.000000  -1.570796 -0.000000 0.000000
2  0.000000 0.000000 0.000000  0.000000 -0.000000 0.000000
3  0.000000 0.000000 0.000000  0.000000 -0.000000 0.000000
4  0.019557 -0.000000 0.742014  0.000000 -0.000000 0.000000
5  0.439395 0.000000 -0.147965  0.000000 0.717594 0.000000
6  0.000000 0.000000 0.000000  0.000000 -0.000000 0.000000
7  0.000000 0.000000 0.000000  0.000000 -0.105601 0.000000
8  0.002937 0.000000 0.194891  0.000000 -0.055171 0.000000
9  0.003500 0.000000 0.083408  0.000000 -0.068404 0.000000
10  -0.012239 0.000000 0.122389  0.000000 -0.089180 0.000000
11  0.000267 -0.000000 0.055137  0.000000 0.145797 0.000000
12  0.003234 0.000000 0.052281  0.000000 -0.111493 0.000000
13  -0.001318 0.000000 0.060214  -0.000697 -0.702341 -0.456394
14  -0.039876 0.060989 0.002159  -0.120748 -0.521178 -0.132460
15  0.043265 0.077505 0.036874  -0.000000 -0.000000 0.000000
16  0.000000 0.000000 0.000000  0.284864 -0.303094 -0.084328
17  0.020260 0.201078 -0.017731  0.066517 -0.089342 -1.300335
18  0.010537 0.100376 -0.010148  0.024899 0.282075 -0.024020
19  0.018646 0.186860 -0.018292  0.650982 -0.065537 -0.013277
20  -0.032087 0.200172 -0.061335  -0.062165 0.127391 0.149838
21  0.009278 0.058322 -0.044375  0.000019 0.032714 0.000018
22  0.069086 0.193200 -0.059144  0.227667 -0.024183 -0.202313
23  0.008560 0.057627 -0.044090  0.107928 0.022817 0.007526
24  0.102185 0.077529 -0.031768  -0.255953 0.086565 -0.382036
25  0.038420 0.022931 -0.000959  0.000000 0.000000 -0.000000
26  -0.039647 -0.056266 0.002069  0.119690 -0.524649 0.137442
27  0.042761 -0.082398 0.038132  0.000000 -0.000000 -0.000000
28  0.000000 -0.000000 -0.000000  -0.231527 0.238247 -0.618964
29  0.020122 -0.201078 -0.017893  -0.097125 -0.095046 1.612092
30  0.010469 -0.100374 -0.010235  -0.008671 0.096183 0.009012
31  0.018520 -0.186856 -0.018450  -0.558139 -0.055807 0.008517
32  -0.032223 -0.200100 -0.061496  -0.020434 0.150927 -0.241038
33  0.009310 -0.057389 -0.045571  -0.000040 0.015141 -0.000020
34  0.068955 -0.193197 -0.059302  -0.007467 -0.075956 0.251333
35  0.008683 -0.056712 -0.045241  -0.000018 0.014885 -0.000005
36  0.102133 -0.077572 -0.031829  0.101078 0.208819 0.312959
37  0.034314 -0.028672 -0.001806  0.000000 -0.000000 -0.000000
38  0.001143 0.000000 -0.181958  -0.000635 0.314061 -0.000966
39  0.004961 -0.000269 -0.096018  -0.001659 -0.338217 -0.013382
40  -0.011623 0.003704 -0.088948  0.009599 0.050266 -0.000089
41  -0.007644 0.000000 -0.210641  0.005213 0.007458 0.000093
time 17
0  0 0 0  0 0 0
1  0.000000 0.000010 0.000000  -1.570796 -0.000000 0.000000
2  0.000000 0.000000 0.000000  0.000000 -0.000000 0.000000
3  0.000000 0.000000 0.000000  0.000000 -0.000000 0.000000
4  0.017951 -0.000000 0.746635  0.000000 -0.000000 0.000000
5  0.440951 0.000000 -0.154241  0.000000 0.650380 0.000000
6  0.000000 0.000000 0.000000  0.000000 -0.000000 0.000000
7  0.000000 0.000000 0.000000  0.000000 -0.072719 0.000000
8  0.002937 0.000000 0.194891  0.000000 -0.021195 0.000000
9  0.003500 0.000000 0.083408  0.000000 -0.047664 0.000000
10  -0.012239 0.000000 0.122389  0.000000 -0.077182 0.000000
11  0.000267 -0.000000 0.055137  0.000000 0.086310 0.000000
12  0.003234 0.000000 0.052281  0.000000 -0.091664 0.000000
13  -0.001319 0.000000 0.060214  -0.000447 -0.698654 -0.254879
14  -0.039876 0.060989 0.002159  -0.128735 -0.544982 -0.141626
15  0.043265 0.077505 0.036874  -0.000000 -0.000000 -0.000000
16  0.000000 -0.000000 -0.000000  0.095158 -0.137290 0.455299
17  0.020259 0.201078 -0.017731  0.096686 -0.094274 -1.616432
18  0.010537 0.100376 -0.010148  0.016810 0.183221 -0.016291
19  0.018646 0.186860 -0.018292  0.751728 -0.074355 -0.019010
20  -0.032087 0.200172 -0.061335  -0.062165 0.127391 0.149838
21  0.009278 0.058322 -0.044375  0.000019 0.032714 0.000018
22  0.069086 0.193199 -0.059144  0.227667 -0.024183 -0.202313
23  0.008560 0.057628 -0.044090  0.107928 0.022817 0.007526
24  0.102185 0.077529 -0.031768  -0.255953 0.086565 -0.382035
25  0.038420 0.022931 -0.000959  0.000000 0.000000 0.000000
26  -0.039647 -0.056266 0.002069  0.127386 -0.549928 0.146873
27  0.042760 -0.082398 0.038132  -0.000000 -0.000000 0.000000
28  -0.000000 -0.000000 -0.000000  -0.482727 0.536431 -0.638626
29  0.020122 -0.201078 -0.017893  -0.081443 -0.093651 1.451170
30  0.010469 -0.100374 -0.010235  -0.005342 0.058425 0.005570
31  0.018520 -0.186856 -0.018449  -0.324304 -0.033066 0.001140
32  -0.032222 -0.200101 -0.061496  -0.020434 0.150927 -0.241037
33  0.009310 -0.057389 -0.045571  -0.000040 0.015141 -0.000020
34  0.068955 -0.193197 -0.059302  -0.007467 -0.075956 0.251333
35  0.008683 -0.056712 -0.045241  -0.000018 0.014885 -0.000005
36  0.102133 -0.077572 -0.031830  0.101078 0.208819 0.312959
37  0.034315 -0.028672 -0.001806  -0.000000 -0.000000 0.000000
38  0.001143 0.000000 -0.181958  0.002263 0.277249 -0.000301
39  0.004961 -0.000269 -0.096018  -0.007370 -0.135504 -0.004112
40  -0.011623 0.003704 -0.088948  0.006995 0.089918 0.000082
41  -0.007644 0.000000 -0.210641  0.005970 0.003625 0.000157
time 18
0  0 0 0  0 0 0
1  0.000000 0.000010 0.000000  -1.570796 -0.000000 0.000000
2  0.000000 0.000000 0.000000  0.000000 -0.000000 0.000000
3  0.000000 0.000000 0.000000  0.000000 -0.000000 0.000000
4  0.016164 -0.000000 0.750989  0.000000 -0.000000 0.000000
5  0.440854 0.000000 -0.154168  0.000000 0.654124 0.000000
6  0.000000 0.000000 -0.000000  0.000000 0.000000 0.000000
7  0.000000 0.000000 -0.000000  0.000000 -0.074060 0.000000
8  0.002937 0.000000 0.194891  0.000000 -0.019613 0.000000
9  0.003500 0.000000 0.083408  0.000000 -0.043651 0.000000
10  -0.012239 0.000000 0.122389  0.000000 -0.078844 0.000000
11  0.000267 0.000000 0.055138  0.000000 0.088387 0.000000
12  0.003234 -0.000000 0.052281  0.000000 -0.109511 0.000000
13  -0.001319 0.000000 0.060214  0.000214 -0.700880 -0.126038
14  -0.039876 0.060989 0.002159  -0.130300 -0.549685 -0.143424
15  0.043265 0.077505 0.036874  -0.000000 -0.000000 0.000000
16  0.000000 0.000000 -0.000000  0.139440 0.172793 0.645975
17  0.020260 0.201078 -0.017731  0.096436 -0.094272 -1.613861
18  0.010537 0.100376 -0.010148  0.008934 0.093740 -0.008690
19  0.018646 0.186860 -0.018292  0.693426 -0.069334 -0.015587
20  -0.032087 0.200172 -0.061335  -0.062165 0.127391 0.149838
21  0.009278 0.058322 -0.044375  0.000019 0.032714 0.000018
22  0.069086 0.193199 -0.059144  0.227667 -0.024183 -0.202313
23  0.008560 0.057628 -0.044090  0.107928 0.022817 0.007526
24  0.102185 0.077529 -0.031768  -0.255953 0.086565 -0.382035
25  0.038420 0.022931 -0.000959  -0.000000 0.000000 0.000000
26  -0.039647 -0.056266 0.002069  0.128887 -0.554935 0.148724
27  0.042761 -0.082398 0.038132  0.000000 -0.000000 0.000000
28  0.000000 0.000000 0.000000  -0.617334 0.494460 -0.530340
29  0.020122 -0.201078 -0.017893  -0.078232 -0.093049 1.417809
30  0.010469 -0.100374 -0.010235  -0.009123 0.101648 0.009501
31  0.018520 -0.186856 -0.018449  -0.221861 -0.022682 -0.000380
32  -0.032222 -0.200101 -0.061496  -0.020434 0.150927 -0.241038
33  0.009310 -0.057389 -0.045571  -0.000040 0.015141 -0.000020
34  0.068956 -0.193197 -0.059302  -0.007467 -0.075956 0.251333
35  0.008683 -0.056712 -0.045241  -0.000018 0.014885 -0.000005
36  0.102133 -0.077572 -0.031830  0.101078 0.208819 0.312959
37  0.034314 -0.028672 -0.001806  -0.000000 -0.000000 0.000000
38  0.001143 0.000000 -0.181958  0.001769 0.232492 -0.000322
39  0.004961 -0.000269 -0.096018  -0.007387 -0.104418 -0.002937
40  -0.011623 0.003704 -0.088948  0.006678 0.095204 0.000098
41  -0.007644 0.000000 -0.210641  0.005744 0.001031 0.000168
time 19
0  0 0 0  0 0 0
1  0.000000 0.000010 0.000000  -1.570796 -0.000000 0.000000
2  0.000000 0.000000 0.000000  0.000000 -0.000000 0.000000
3  0.000000 0.000000 0.000000  0.000000 -0.000000 0.000000
4  0.014193 -0.000000 0.755076  0.000000 -0.000000 0.000000
5  0.439103 0.000000 -0.147746  0.000000 0.728787 0.000000
6  0.000000 0.000000 0.000000  0.000000 -0.000000 0.000000
7  -0.000000 0.000000 -0.000000  0.000000 -0.109618 0.000000
8  0.002937 0.000000 0.194891  0.000000 -0.050416 0.000000
9  0.003500 0.000000 0.083408  0.000000 -0.056363 0.000000
10  -0.012239 0.000000 0.122389  0.000000 -0.094166 0.000000
11  0.000267 0.000000 0.055137  0.000000 0.152000 0.000000
12  0.003234 0.000000 0.052281  0.000000 -0.165044 0.000000
13  -0.001319 -0.000000 0.060214  0.000113 -0.708926 -0.067324
14  -0.039876 0.060989 0.002159  -0.125511 -0.535261 -0.137899
15  0.043265 0.077505 0.036874  0.000000 -0.000000 -0.000000
16  0.000000 -0.000000 -0.000000  0.329274 0.596390 0.610759
17  0.020259 0.201078 -0.017731  0.066246 -0.089251 -1.297389
18  0.010537 0.100376 -0.010148  0.001324 0.013378 -0.001291
19  0.018646 0.186860 -0.018293  0.475943 -0.049020 -0.005530
20  -0.032087 0.200172 -0.061335  -0.062165 0.127391 0.149838
21  0.009278 0.058322 -0.044375  0.000019 0.032714 0.000018
22  0.069086 0.193199 -0.059144  0.227667 -0.024183 -0.202313
23  0.008560 0.057628 -0.044090  0.107928 0.022817 0.007526
24  0.102185 0.077529 -0.031768  -0.255953 0.086565 -0.382035
25  0.038420 0.022931 -0.000959  0.000000 -0.000000 0.000000
26  -0.039647 -0.056266 0.002069  0.124269 -0.539645 0.143036
27  0.042760 -0.082398 0.038132  -0.000000 -0.000000 0.000000
28  -0.000000 -0.000000 -0.000000  -0.686024 0.131567 -0.247745
29  0.020122 -0.201078 -0.017893  -0.087259 -0.094465 1.511136
30  0.010469 -0.100374 -0.010235  -0.019208 0.226039 0.020046
31  0.018520 -0.186856 -0.018450  -0.247781 -0.025342 -0.000096
32  -0.032222 -0.200101 -0.061496  -0.020434 0.150927 -0.241038
33  0.009310 -0.057389 -0.045571  -0.000040 0.015141 -0.000020
34  0.068956 -0.193197 -0.059302  -0.007467 -0.075956 0.251333
35  0.008683 -0.056712 -0.045241  -0.000018 0.014885 -0.000005
36  0.102133 -0.077572 -0.031829  0.101078 0.208819 0.312959
37  0.034315 -0.028672 -0.001806  0.000000 0.000000 0.000000
38  0.001143 0.000000 -0.181958  -0.002019 0.179770 -0.000783
39  0.004961 -0.000269 -0.096018  -0.002524 -0.243328 -0.009345
40  -0.011623 0.003704 -0.088948  0.008647 0.066135 -0.000007
41  -0.007644 0.000000 -0.210641  0.004535 -0.000324 0.000127
time 20
0  0 0 0  0 0 0
1  0.000000 0.000010 0.000000  -1.570796 -0.000000 0.000000
2  0.000000 0.000000 0.000000  0.000000 -0.000000 0.000000
3  0.000000 0.000000 0.000000  0.000000 -0.000000 0.000000
4  0.012162 -0.000000 0.758433  0.000000 -0.000000 0.000000
5  0.437838 0.000000 -0.141689  0.000000 0.784770 0.000000
6  0.000000 0.000000 0.000000  0.000000 -0.000000 0.000000
7  0.000000 0.000000 0.000000  0.000000 -0.138479 0.000000
8  0.002937 -0.000000 0.194891  0.000000 -0.089142 0.000000
9  0.003500 0.000000 0.083408  0.000000 -0.089142 0.000000
10  -0.012239 -0.000000 0.122389  0.000000 -0.101179 0.000000
11  0.000267 0.000000 0.055138  0.000000 0.205259 0.000000
12  0.003234 0.000000 0.052281  0.000000 -0.131322 0.000000
13  -0.001319 -0.000000 0.060215  0.000032 -0.705981 -0.035399
14  -0.039876 0.060989 0.002159  -0.112618 -0.497440 -0.123200
15  0.043265 0.077505 0.036874  0.000000 -0.000000 0.000000
16  0.000000 0.000000 0.000000  0.546891 0.648540 0.599976
17  0.020260 0.201078 -0.017731  0.072819 -0.091194 -1.367982
18  0.010537 0.100376 -0.010148  0.003846 0.039508 -0.003762
19  0.018646 0.186860 -0.018292  0.199935 -0.020873 0.000537
20  -0.032087 0.200172 -0.061335  -0.062165 0.127391 0.149838
21  0.009278 0.058322 -0.044375  0.000019 0.032714 0.000018
22  0.069086 0.193199 -0.059144  0.227667 -0.024183 -0.202313
23  0.008560 0.057628 -0.044090  0.107928 0.022817 0.007526
24  0.102185 0.077529 -0.031768  -0.255953 0.086565 -0.382035
25  0.038420 0.022931 -0.000959  -0.000000 0.000000 0.000000
26  -0.039647 -0.056266 0.002069  0.111832 -0.499437 0.127924
27  0.042760 -0.082398 0.038132  0.000000 -0.000000 -0.000000
28  -0.000000 0.000000 -0.000000  -0.615680 -0.151726 0.320414
29  0.020122 -0.201078 -0.017893  -0.057285 -0.086236 1.192440
30  0.010469 -0.100374 -0.010235  -0.027628 0.341282 0.028971
31  0.018520 -0.186856 -0.018450  -0.400779 -0.040732 0.002969
32  -0.032222 -0.200101 -0.061496  -0.020434 0.150927 -0.241038
33  0.009310 -0.057389 -0.045571  -0.000040 0.015141 -0.000020
34  0.068956 -0.193197 -0.059302  -0.007467 -0.075956 0.251333
35  0.008683 -0.056713 -0.045241  -0.000018 0.014885 -0.000005
36  0.102133 -0.077572 -0.031829  0.101078 0.208819 0.312959
37  0.034314 -0.028672 -0.001806  0.000000 0.000000 0.000000
38  0.001143 0.000000 -0.181958  -0.003611 0.148575 -0.000820
39  0.004961 -0.000269 -0.096018  -0.001059 -0.366942 -0.014702
40  -0.011623 0.003704 -0.088948  0.013611 0.045356 -0.000180
41  -0.007644 0.000000 -0.210641  0.003113 0.011292 -0.000043
time 21
0  0 0 0  0 0 0
1  0.000000 0.000010 0.000000  -1.570796 -0.000000 0.000000
2  0.000000 0.000000 0.000000  0.000000 -0.000000 0.000000
3  0.000000 0.000000 0.000000  0.000000 -0.000000 0.000000
4  0.010557 -0.000000 0.759649  0.000000 -0.000000 0.000000
5  0.439395 0.000000 -0.147965  0.000000 0.717594 0.000000
6  -0.000000 0.000000 0.000000  0.000000 -0.000000 0.000000
7  -0.000000 0.000000 0.000000  0.000000 -0.105602 0.000000
8  0.002937 0.000000 0.194891  0.000000 -0.055171 0.000000
9  0.003500 0.000000 0.083408  0.000000 -0.068404 0.000000
10  -0.012239 0.000000 0.122389  0.000000 -0.089180 0.000000
11  0.000267 -0.000000 0.055138  0.000000 0.145798 0.000000
12  0.003234 -0.000000 0.052281  0.000000 -0.111493 0.000000
13  -0.001318 -0.000000 0.060214  -0.000032 -0.702347 -0.021207
14  -0.039876 0.060989 0.002159  -0.120748 -0.521178 -0.132460
15  0.043265 0.077505 0.036874  -0.000000 -0.000000 -0.000000
16  0.000000 -0.000000 0.000000  0.490253 0.347816 0.219680
17  0.020259 0.201078 -0.017731  0.066087 -0.089198 -1.295665
18  0.010537 0.100376 -0.010148  0.014833 0.160035 -0.014380
19  0.018646 0.186860 -0.018292  0.279584 -0.029138 -0.000411
20  -0.032087 0.200172 -0.061335  -0.062165 0.127391 0.149838
21  0.009278 0.058322 -0.044375  0.000019 0.032714 0.000018
22  0.069086 0.193199 -0.059144  0.227667 -0.024183 -0.202313
23  0.008560 0.057628 -0.044090  0.107928 0.022817 0.007526
24  0.102185 0.077529 -0.031768  -0.255953 0.086565 -0.382035
25  0.038420 0.022931 -0.000959  -0.000000 -0.000000 0.000000
26  -0.039647 -0.056266 0.002069  0.119690 -0.524649 0.137442
27  0.042761 -0.082398 0.038132  -0.000000 -0.000000 0.000000
28  -0.000000 0.000000 -0.000000  -0.444598 -0.246685 0.104592
29  0.020122 -0.201078 -0.017893  -0.078495 -0.093102 1.420544
30  0.010469 -0.100374 -0.010235  -0.025995 0.318095 0.027232
31  0.018520 -0.186856 -0.018450  -0.550446 -0.055134 0.008198
32  -0.032222 -0.200101 -0.061496  -0.020434 0.150927 -0.241038
33  0.009310 -0.057389 -0.045571  -0.000040 0.015141 -0.000020
34  0.068956 -0.193197 -0.059302  -0.007467 -0.075956 0.251333
35  0.008683 -0.056713 -0.045241  -0.000018 0.014885 -0.000005
36  0.102133 -0.077572 -0.031829  0.101078 0.208819 0.312959
37  0.034314 -0.028672 -0.001806  0.000000 0.000000 0.000000
38  0.001143 0.000000 -0.181958  -0.001106 0.130694 -0.000452
39  0.004961 -0.000269 -0.096018  -0.004511 -0.177105 -0.006312
40  -0.011623 0.003704 -0.088948  0.010521 0.075851 0.000033
41  -0.007644 0.000000 -0.210641  0.004138 0.009900 0.000008
time 22
0  0 0 0  0 0 0
1  0.000000 0.000010 0.000000  -1.570796 -0.000000 0.000000
2  0.000000 0.000000 0.000000  0.000000 -0.000000 0.000000
3  0.000000 0.000000 0.000000  0.000000 -0.000000 0.000000
4  0.008951 -0.000000 0.760865  0.000000 -0.000000 0.000000
5  0.440951 0.000000 -0.154241  0.000000 0.650380 0.000000
6  0.000000 0.000000 0.000000  0.000000 -0.000000 0.000000
7  0.000000 0.000000 0.000000  0.000000 -0.072719 0.000000
8  0.002937 0.000000 0.194891  0.000000 -0.021195 0.000000
9  0.003500 0.000000 0.083408  0.000000 -0.047664 0.000000
10  -0.012239 -0.000000 0.122389  0.000000 -0.077182 0.000000
11  0.000267 0.000000 0.055137  0.000000 0.086310 0.000000
12  0.003234 0.000000 0.052281  0.000000 -0.091664 0.000000
13  -0.001319 -0.000000 0.060214  -0.000027 -0.698713 -0.007058
14  -0.039876 0.060989 0.002159  -0.128735 -0.544982 -0.141626
15  0.043265 0.077505 0.036874  0.000000 -0.000000 0.000000
16  0.000000 -0.000000 0.000000  0.553711 0.040718 -0.130997
17  0.020260 0.201078 -0.017731  0.059514 -0.086722 -1.223330
18  0.010537 0.100376 -0.010148  0.024810 0.280890 -0.023930
19  0.018645 0.186860 -0.018292  0.359327 -0.037309 -0.002016
20  -0.032087 0.200172 -0.061335  -0.062165 0.127391 0.149838
21  0.009278 0.058322 -0.044375  0.000019 0.032714 0.000018
22  0.069086 0.193200 -0.059144  0.227667 -0.024183 -0.202313
23  0.008560 0.057628 -0.044090  0.107928 0.022817 0.007526
24  0.102185 0.077529 -0.031768  -0.255953 0.086565 -0.382035
25  0.038420 0.022931 -0.000959  0.000000 0.000000 0.000000
26  -0.039647 -0.056266 0.002069  0.127386 -0.549928 0.146873
27  0.042761 -0.082398 0.038132  -0.000000 -0.000000 0.000000
28  -0.000000 0.000000 -0.000000  -0.251010 -0.302081 -0.131509
29  0.020122 -0.201078 -0.017893  -0.100869 -0.095007 1.650328
30  0.010469 -0.100374 -0.010236  -0.024332 0.294909 0.025465
31  0.018520 -0.186856 -0.018450  -0.700740 -0.068633 0.015550
32  -0.032222 -0.200101 -0.061496  -0.020434 0.150927 -0.241038
33  0.009310 -0.057388 -0.045571  -0.000040 0.015141 -0.000020
34  0.068956 -0.193197 -0.059302  -0.007467 -0.075956 0.251333
35  0.008683 -0.056712 -0.045241  -0.000018 0.014885 -0.000005
36  0.102133 -0.077572 -0.031829  0.101078 0.208819 0.312959
37  0.034314 -0.028672 -0.001806  0.000000 -0.000000 0.000000
38  0.001143 0.000000 -0.181958  0.001387 0.112811 -0.000130
39  0.004961 -0.000269 -0.096018  -0.006331 0.013617 0.001330
40  -0.011623 0.003704 -0.088948  0.007429 0.106351 0.000151
41  -0.007644 0.000000 -0.210641  0.005164 0.008508 0.000059
end
