version 1
nodes
0 "blender_implicit" -1
1 "Skel0" -1
2 "Skel1" 1
3 "Skel2" 2
4 "Skel3" 3
5 "Skel4" 4
6 "Skel5" 5
7 "Skel6" 6
8 "Skel7" 7
9 "Skel8" 8
10 "Skel9" 9
11 "Skel10" 10
12 "Skel11" 11
13 "Skel12" 12
14 "Skel13" 10
15 "Skel14" 14
16 "Skel15" 15
17 "Skel16" 16
18 "Skel17" 17
19 "Skel18" 18
20 "Skel19" 19
21 "Skel20" 20
22 "Skel21" 19
23 "Skel22" 22
24 "Skel23" 19
25 "Skel24" 24
26 "Skel25" 10
27 "Skel26" 26
28 "Skel27" 27
29 "Skel28" 28
30 "Skel29" 29
31 "Skel30" 30
32 "Skel31" 31
33 "Skel32" 32
34 "Skel33" 31
35 "Skel34" 34
36 "Skel35" 31
37 "Skel36" 36
38 "Skel37" 5
39 "Skel38" 38
40 "Skel39" 39
41 "Skel40" 40
end
skeleton
time 0
0  0 0 0  0 0 0
1  0.000000 0.000010 0.000000  -1.570796 -0.000000 0.000000
2  0.000000 0.000000 0.000000  0.000000 -0.000000 0.000000
3  0.000000 0.000000 0.000000  0.000000 -0.000000 0.000000
4  0.006445 -0.000000 0.753335  0.000000 -0.000000 0.000000
5  0.127216 0.000000 -0.015446  0.000000 0.236763 0.000000
6  0.000000 0.000000 0.000000  0.000000 -0.000000 0.000000
7  0.000000 0.000000 0.000000  0.000000 -0.138479 0.000000
8  0.002937 -0.000000 0.194891  0.000000 -0.089142 0.000000
9  0.003500 0.000000 0.083408  0.000000 -0.089142 0.000000
10  -0.012239 0.000000 0.122389  0.000000 -0.089142 0.000000
11  0.000267 0.000000 0.055137  0.000000 -0.000000 0.000000
12  0.003234 0.000000 0.052281  0.000000 -0.000000 0.000000
13  -0.001319 0.000000 0.060214  0.000000 -0.000000 0.000000
14  -0.039876 0.060989 0.002159  0.068885 -0.073689 0.073009
15  0.043265 0.077505 0.036874  -0.000000 -0.000000 0.000000
16  -0.000000 0.000000 -0.000000  -0.952729 0.597833 -0.249420
17  0.020260 0.201078 -0.017731  0.074126 -0.091521 -1.381852
18  0.010537 0.100376 -0.010148  -0.035153 -0.297718 0.034465
19  0.018646 0.186860 -0.018292  0.135256 -0.014114 0.000820
20  -0.032088 0.200172 -0.061335  0.000003 0.039860 0.000014
21  0.009278 0.058322 -0.044375  0.000019 0.032714 0.000018
22  0.069086 0.193199 -0.059144  0.000012 0.034229 0.000010
23  0.008560 0.057628 -0.044090  -0.000003 0.030781 0.000017
24  0.102185 0.077529 -0.031768  -0.000045 0.159819 -0.000008
25  0.038420 0.022931 -0.000959  -0.000000 -0.000000 0.000000
26  -0.039647 -0.056266 0.002069  -0.070808 -0.043103 -0.077018
27  0.042761 -0.082398 0.038132  0.000000 -0.000000 -0.000000
28  0.000000 0.000000 0.000000  0.802609 0.715657 -0.604549
29  0.020122 -0.201078 -0.017893  -0.057048 -0.086128 1.189783
30  0.010469 -0.100374 -0.010235  -0.000000 0.000000 -0.000000
31  0.018520 -0.186856 -0.018449  -0.000000 0.000000 -0.000000
32  -0.032222 -0.200100 -0.061496  -0.000028 0.041159 -0.000014
33  0.009310 -0.057389 -0.045571  -0.000040 0.015141 -0.000020
34  0.068956 -0.193197 -0.059302  -0.000040 0.041095 -0.000005
35  0.008683 -0.056712 -0.045241  -0.000018 0.014885 -0.000005
36  0.102133 -0.077572 -0.031829  0.000019 0.207011 0.000011
37  0.034314 -0.028672 -0.001806  0.000000 0.000000 0.000000
38  0.001143 0.000000 -0.181958  0.021658 -0.057820 0.000656
39  0.004961 -0.000269 -0.096018  -0.039677 0.042186 0.006124
40  -0.011623 0.003704 -0.088948  0.016195 -0.038816 -0.000864
41  -0.007644 0.000000 -0.210641  0.000338 -0.124838 0.002425
time 1
0  0 0 0  0 0 0
1  0.000000 0.000010 0.000000  -1.570796 -0.000000 0.000000
2  0.000000 0.000000 0.000000  0.000000 -0.000000 0.000000
3  0.000000 0.000000 0.000000  0.000000 -0.000000 0.000000
4  0.006445 -0.000000 0.753335  0.000000 -0.000000 0.000000
5  0.134915 -0.009049 -0.018474  0.008534 0.278332 0.003212
6  -0.000000 0.000000 0.000000  0.000000 -0.000000 -0.000000
7  -0.000000 0.000000 0.000000  0.011487 -0.165902 0.002427
8  0.002937 -0.000000 0.194891  -0.014792 -0.054614 0.026175
9  0.003500 0.000000 0.083408  -0.016616 -0.059011 0.025162
10  -0.012239 -0.000000 0.122389  -0.009953 -0.053097 0.026896
11  0.000267 -0.000000 0.055137  0.011795 -0.017287 -0.029248
12  0.003234 0.000000 0.052281  0.008835 -0.026672 -0.030423
13  -0.001319 0.000000 0.060214  0.004180 -0.039853 -0.031298
14  -0.039876 0.060989 0.002159  0.024332 -0.164262 0.022987
15  0.043265 0.077505 0.036874  0.000000 0.000000 0.000000
16  -0.000000 0.000000 -0.000000  -0.936540 0.638777 -0.103593
17  0.020260 0.201078 -0.017731  0.066407 -0.089305 -1.299140
18  0.010537 0.100376 -0.010148  -0.024573 -0.218750 0.024062
19  0.018645 0.186860 -0.018292  0.111596 -0.011637 0.000815
20  -0.032088 0.200172 -0.061335  0.000003 0.039860 0.000014
21  0.009278 0.058322 -0.044375  0.000019 0.032714 0.000018
22  0.069086 0.193199 -0.059144  0.000012 0.034229 0.000010
23  0.008560 0.057627 -0.044090  -0.000003 0.030781 0.000016
24  0.102185 0.077529 -0.031768  -0.000045 0.159819 -0.000008
25  0.038420 0.022931 -0.000959  0.000000 0.000000 -0.000000
26  -0.039647 -0.056266 0.002069  -0.022772 -0.145611 -0.022548
27  0.042761 -0.082398 0.038132  -0.000000 -0.000000 -0.000000
28  0.000000 0.000000 -0.000000  0.653813 0.777985 -0.719972
29  0.020122 -0.201078 -0.017893  -0.067506 -0.090212 1.304465
30  0.010469 -0.100374 -0.010235  0.005426 -0.055584 -0.005601
31  0.018520 -0.186856 -0.018450  -0.022271 -0.002271 -0.000266
32  -0.032222 -0.200100 -0.061496  -0.000028 0.041159 -0.000014
33  0.009310 -0.057389 -0.045571  -0.000040 0.015141 -0.000020
34  0.068956 -0.193197 -0.059302  -0.000040 0.041095 -0.000005
35  0.008683 -0.056712 -0.045241  -0.000018 0.014885 -0.000005
36  0.102133 -0.077572 -0.031829  0.000019 0.207011 0.000011
37  0.034314 -0.028672 -0.001806  0.000000 -0.000000 -0.000000
38  0.001143 0.000000 -0.181958  0.009449 -0.042687 0.000421
39  0.004961 -0.000269 -0.096018  -0.014013 -0.028046 0.000875
40  -0.011623 0.003704 -0.088948  0.018120 -0.039345 -0.000979
41  -0.007644 0.000000 -0.210641  -0.013908 -0.114690 0.002510
time 2
0  0 0 0  0 0 0
1  0.000000 0.000010 0.000000  -1.570796 -0.000000 0.000000
2  0.000000 0.000000 0.000000  0.000000 -0.000000 0.000000
3  0.000000 0.000000 0.000000  0.000000 -0.000000 0.000000
4  0.006445 -0.000000 0.753335  0.000000 -0.000000 0.000000
5  0.142614 -0.018097 -0.021503  0.017324 0.319897 0.006841
6  0.000000 -0.000000 -0.000000  0.000000 0.000000 0.000000
7  0.000000 -0.000000 -0.000000  0.022967 -0.193358 0.004545
8  0.002937 -0.000000 0.194891  -0.028666 -0.019691 0.051820
9  0.003500 0.000000 0.083408  -0.032456 -0.028459 0.049800
10  -0.012239 -0.000000 0.122389  -0.018926 -0.016775 0.053417
11  0.000267 -0.000000 0.055137  0.024101 -0.034227 -0.058723
12  0.003234 -0.000000 0.052281  0.018493 -0.053076 -0.061130
13  -0.001319 -0.000000 0.060214  0.009624 -0.079590 -0.062864
14  -0.039876 0.060989 0.002159  -0.016544 -0.257283 -0.024014
15  0.043265 0.077505 0.036874  0.000000 0.000000 0.000000
16  -0.000000 -0.000000 -0.000000  -0.912198 0.677576 0.048683
17  0.020260 0.201078 -0.017731  0.058884 -0.086456 -1.216279
18  0.010537 0.100376 -0.010148  -0.014953 -0.139515 0.014631
19  0.018646 0.186860 -0.018292  0.087931 -0.009161 0.000750
20  -0.032088 0.200172 -0.061335  0.000003 0.039860 0.000014
21  0.009278 0.058322 -0.044375  0.000019 0.032714 0.000018
22  0.069086 0.193200 -0.059144  0.000012 0.034229 0.000010
23  0.008560 0.057628 -0.044090  -0.000003 0.030781 0.000017
24  0.102185 0.077529 -0.031768  -0.000045 0.159819 -0.000008
25  0.038420 0.022931 -0.000959  0.000000 0.000000 -0.000000
26  -0.039647 -0.056266 0.002069  0.020679 -0.251064 0.028205
27  0.042761 -0.082398 0.038132  0.000000 -0.000000 0.000000
28  0.000000 0.000000 0.000000  0.485834 0.826442 -0.855177
29  0.020122 -0.201078 -0.017893  -0.078416 -0.093086 1.419725
30  0.010469 -0.100374 -0.010235  0.011197 -0.111194 -0.011537
31  0.018520 -0.186856 -0.018450  -0.044545 -0.004548 -0.000481
32  -0.032222 -0.200100 -0.061496  -0.000028 0.041159 -0.000014
33  0.009310 -0.057389 -0.045571  -0.000040 0.015141 -0.000020
34  0.068956 -0.193197 -0.059302  -0.000040 0.041095 -0.000005
35  0.008683 -0.056713 -0.045241  -0.000018 0.014885 -0.000005
36  0.102133 -0.077572 -0.031829  0.000019 0.207011 0.000011
37  0.034315 -0.028672 -0.001806  -0.000000 0.000000 0.000000
38  0.001143 0.000000 -0.181958  -0.002759 -0.027556 0.000001
39  0.004961 -0.000269 -0.096018  0.012184 -0.098250 -0.006220
40  -0.011623 0.003704 -0.088948  0.020046 -0.039875 -0.001096
41  -0.007644 0.000000 -0.210641  -0.028137 -0.104541 0.002450
time 3
0  0 0 0  0 0 0
1  0.000000 0.000010 0.000000  -1.570796 -0.000000 0.000000
2  0.000000 0.000000 0.000000  0.000000 -0.000000 0.000000
3  0.000000 0.000000 0.000000  0.000000 -0.000000 0.000000
4  0.006445 -0.000000 0.753335  0.000000 -0.000000 0.000000
5  0.150312 -0.027146 -0.024531  0.026403 0.361417 0.010913
6  -0.000000 0.000000 -0.000000  -0.000000 -0.000000 -0.000000
7  -0.000000 0.000000 -0.000000  0.034452 -0.220832 0.006352
8  0.002937 -0.000000 0.194891  -0.041635 0.015561 0.076968
9  0.003500 0.000000 0.083408  -0.047528 0.002461 0.073934
10  -0.012239 0.000000 0.122389  -0.026930 0.019759 0.079603
11  0.000267 -0.000000 0.055138  0.036907 -0.050792 -0.088420
12  0.003234 0.000000 0.052281  0.028973 -0.079163 -0.092137
13  -0.001319 0.000000 0.060214  0.016346 -0.119117 -0.094759
14  -0.039876 0.060989 0.002159  -0.053874 -0.351820 -0.068246
15  0.043265 0.077505 0.036874  0.000000 0.000000 0.000000
16  0.000000 -0.000000 -0.000000  -0.879735 0.712817 0.206391
17  0.020260 0.201078 -0.017731  0.051633 -0.083000 -1.133559
18  0.010537 0.100376 -0.010148  -0.006166 -0.060283 0.006046
19  0.018646 0.186860 -0.018292  0.064269 -0.006688 0.000628
20  -0.032087 0.200172 -0.061335  0.000003 0.039860 0.000014
21  0.009278 0.058322 -0.044375  0.000019 0.032714 0.000018
22  0.069086 0.193199 -0.059144  0.000012 0.034229 0.000010
23  0.008560 0.057628 -0.044090  -0.000003 0.030781 0.000016
24  0.102185 0.077529 -0.031768  -0.000045 0.159818 -0.000008
25  0.038420 0.022931 -0.000959  0.000000 0.000000 0.000000
26  -0.039647 -0.056266 0.002069  0.059753 -0.358185 0.075632
27  0.042760 -0.082398 0.038132  0.000000 -0.000000 0.000000
28  0.000000 -0.000000 0.000000  0.302381 0.857629 -1.006453
29  0.020122 -0.201078 -0.017893  -0.089564 -0.094690 1.534781
30  0.010469 -0.100374 -0.010236  0.017344 -0.166738 -0.017842
31  0.018520 -0.186856 -0.018450  -0.066816 -0.006828 -0.000645
32  -0.032222 -0.200100 -0.061496  -0.000028 0.041159 -0.000014
33  0.009310 -0.057389 -0.045571  -0.000040 0.015141 -0.000020
34  0.068956 -0.193197 -0.059302  -0.000040 0.041095 -0.000005
35  0.008683 -0.056712 -0.045241  -0.000018 0.014885 -0.000005
36  0.102133 -0.077572 -0.031829  0.000019 0.207011 0.000011
37  0.034314 -0.028672 -0.001806  0.000000 -0.000000 -0.000000
38  0.001143 0.000000 -0.181958  -0.014969 -0.012432 -0.000603
39  0.004961 -0.000269 -0.096018  0.039107 -0.168176 -0.015233
40  -0.011623 0.003704 -0.088948  0.021972 -0.040404 -0.001213
41  -0.007644 0.000000 -0.210641  -0.042353 -0.094394 0.002245
time 4
0  0 0 0  0 0 0
1  0.000000 0.000010 0.000000  -1.570796 -0.000000 0.000000
2  0.000000 0.000000 0.000000  0.000000 -0.000000 0.000000
3  0.000000 0.000000 0.000000  0.000000 -0.000000 0.000000
4  0.006445 -0.000000 0.753335  0.000000 -0.000000 0.000000
5  0.154305 -0.034508 -0.026708  0.033678 0.390958 0.014050
6  0.000000 0.000000 -0.000000  -0.000000 -0.000000 -0.000000
7  0.000000 0.000000 -0.000000  0.043800 -0.240683 0.007970
8  0.002937 -0.000000 0.194891  -0.052619 0.045620 0.097690
9  0.003500 0.000000 0.083408  -0.060185 0.028983 0.093805
10  -0.012239 0.000000 0.122389  -0.033952 0.050898 0.101050
11  0.000267 -0.000000 0.055137  0.047078 -0.064434 -0.112437
12  0.003234 0.000000 0.052281  0.037085 -0.100491 -0.117174
13  -0.001319 0.000000 0.060215  0.021191 -0.151296 -0.120510
14  -0.039876 0.060989 0.002159  -0.083730 -0.428329 -0.099732
15  0.043265 0.077505 0.036874  0.000000 -0.000000 0.000000
16  0.000000 -0.000000 0.000000  -0.803786 0.720208 0.392108
17  0.020260 0.201078 -0.017731  0.048877 -0.081486 -1.101185
18  0.010537 0.100376 -0.010148  0.001113 0.011008 -0.001063
19  0.018646 0.186860 -0.018292  0.041349 -0.004297 0.000453
20  -0.032088 0.200172 -0.061335  0.000003 0.039860 0.000014
21  0.009278 0.058322 -0.044375  0.000019 0.032714 0.000018
22  0.069086 0.193199 -0.059144  0.000012 0.034229 0.000010
23  0.008560 0.057628 -0.044090  -0.000003 0.030781 0.000017
24  0.102185 0.077529 -0.031768  -0.000045 0.159819 -0.000008
25  0.038420 0.022931 -0.000959  0.000000 0.000000 -0.000000
26  -0.039647 -0.056266 0.002069  0.087085 -0.435046 0.106141
27  0.042760 -0.082398 0.038132  0.000000 -0.000000 0.000000
28  0.000000 0.000000 0.000000  0.155667 0.850529 -1.082603
29  0.020122 -0.201078 -0.017893  -0.101654 -0.094981 1.658345
30  0.010469 -0.100374 -0.010236  0.023063 -0.215267 -0.023695
31  0.018520 -0.186856 -0.018450  -0.085362 -0.008725 -0.000743
32  -0.032222 -0.200100 -0.061496  -0.000028 0.041159 -0.000014
33  0.009310 -0.057389 -0.045571  -0.000040 0.015141 -0.000020
34  0.068956 -0.193197 -0.059302  -0.000040 0.041095 -0.000005
35  0.008683 -0.056712 -0.045241  -0.000018 0.014885 -0.000005
36  0.102133 -0.077572 -0.031829  0.000019 0.207011 0.000011
37  0.034314 -0.028672 -0.001806  0.000000 0.000000 0.000000
38  0.001143 0.000000 -0.181958  -0.025719 0.000622 -0.001298
39  0.004961 -0.000269 -0.096018  0.062617 -0.223846 -0.024217
40  -0.011623 0.003704 -0.088948  0.024685 -0.040969 -0.001381
41  -0.007644 0.000000 -0.210641  -0.053826 -0.084063 0.001873
time 5
0  0 0 0  0 0 0
1  0.000000 0.000010 0.000000  -1.570796 -0.000000 0.000000
2  0.000000 0.000000 0.000000  0.000000 -0.000000 0.000000
3  0.000000 0.000000 0.000000  0.000000 -0.000000 0.000000
4  0.006445 -0.000000 0.753335  0.000000 -0.000000 0.000000
5  0.156446 -0.041027 -0.028459  0.040052 0.414525 0.016721
6  -0.000000 -0.000000 -0.000000  0.000000 -0.000000 0.000000
7  -0.000000 -0.000000 -0.000000  0.052081 -0.256733 0.009489
8  0.002937 -0.000000 0.194891  -0.062499 0.073152 0.116150
9  0.003500 0.000000 0.083408  -0.071537 0.053372 0.111487
10  -0.012239 0.000000 0.122389  -0.040358 0.079401 0.120101
11  0.000267 0.000000 0.055138  0.055991 -0.076592 -0.133651
12  0.003234 -0.000000 0.052281  0.044102 -0.119437 -0.139273
13  -0.001319 0.000000 0.060214  0.025228 -0.179831 -0.143244
14  -0.039876 0.060989 0.002159  -0.110156 -0.496162 -0.124729
15  0.043265 0.077505 0.036874  -0.000000 -0.000000 0.000000
16  0.000000 0.000000 0.000000  -0.711444 0.703508 0.588530
17  0.020260 0.201078 -0.017731  0.048260 -0.081131 -1.093865
18  0.010537 0.100376 -0.010148  0.007540 0.078497 -0.007331
19  0.018646 0.186860 -0.018292  0.018794 -0.001951 0.000228
20  -0.032088 0.200172 -0.061335  0.000003 0.039860 0.000014
21  0.009278 0.058322 -0.044375  0.000019 0.032714 0.000018
22  0.069086 0.193200 -0.059144  0.000012 0.034229 0.000010
23  0.008560 0.057628 -0.044090  -0.000003 0.030781 0.000017
24  0.102185 0.077529 -0.031768  -0.000045 0.159818 -0.000008
25  0.038420 0.022931 -0.000959  0.000000 0.000000 -0.000000
26  -0.039647 -0.056266 0.002069  0.109236 -0.496992 0.128485
27  0.042760 -0.082398 0.038132  -0.000000 -0.000000 0.000000
28  -0.000000 0.000000 0.000000  0.033686 0.828397 -1.113838
29  0.020122 -0.201078 -0.017893  -0.114165 -0.093708 1.786832
30  0.010469 -0.100374 -0.010236  0.028698 -0.260327 -0.029453
31  0.018520 -0.186856 -0.018449  -0.102048 -0.010431 -0.000801
32  -0.032222 -0.200101 -0.061496  -0.000028 0.041159 -0.000014
33  0.009310 -0.057389 -0.045571  -0.000040 0.015141 -0.000020
34  0.068956 -0.193197 -0.059302  -0.000040 0.041095 -0.000005
35  0.008683 -0.056712 -0.045241  -0.000018 0.014885 -0.000005
36  0.102133 -0.077572 -0.031829  0.000019 0.207011 0.000011
37  0.034314 -0.028672 -0.001806  0.000000 -0.000000 0.000000
38  0.001143 0.000000 -0.181958  -0.035744 0.012641 -0.002078
39  0.004961 -0.000269 -0.096018  0.084713 -0.272416 -0.033518
40  -0.011623 0.003704 -0.088948  0.027791 -0.041551 -0.001575
41  -0.007644 0.000000 -0.210641  -0.063931 -0.073643 0.001378
time 6
0  0 0 0  0 0 0
1  0.000000 0.000010 0.000000  -1.570796 -0.000000 0.000000
2  0.000000 0.000000 0.000000  0.000000 -0.000000 0.000000
3  0.000000 0.000000 0.000000  0.000000 -0.000000 0.000000
4  0.006445 -0.000000 0.753335  0.000000 -0.000000 0.000000
5  0.157451 -0.045608 -0.029554  0.044595 0.429220 0.018629
6  -0.000000 0.000000 -0.000000  -0.000000 -0.000000 0.000000
7  -0.000000 0.000000 -0.000000  0.057906 -0.266823 0.010454
8  0.002937 0.000000 0.194891  -0.069172 0.091584 0.128975
9  0.003500 0.000000 0.083408  -0.079282 0.069783 0.123763
10  -0.012239 0.000000 0.122389  -0.044573 0.098412 0.133352
11  0.000267 0.000000 0.055137  0.062391 -0.084441 -0.148545
12  0.003234 0.000000 0.052281  0.049261 -0.131747 -0.154817
13  -0.001319 -0.000000 0.060215  0.028424 -0.198460 -0.159261
14  -0.039876 0.060989 0.002159  -0.131005 -0.541126 -0.136625
15  0.043265 0.077505 0.036874  0.000000 0.000000 -0.000000
16  0.000000 0.000000 0.000000  -0.632229 0.680620 0.754510
17  0.020259 0.201078 -0.017731  0.048468 -0.081251 -1.096335
18  0.010537 0.100376 -0.010148  0.012536 0.133983 -0.012187
19  0.018646 0.186860 -0.018292  -0.001320 0.000135 -0.000017
20  -0.032088 0.200172 -0.061335  0.000003 0.039860 0.000014
21  0.009278 0.058322 -0.044375  0.000019 0.032714 0.000018
22  0.069086 0.193199 -0.059144  0.000012 0.034229 0.000010
23  0.008560 0.057628 -0.044090  -0.000003 0.030781 0.000017
24  0.102185 0.077529 -0.031768  -0.000045 0.159818 -0.000008
25  0.038420 0.022931 -0.000959  0.000000 0.000000 0.000000
26  -0.039647 -0.056266 0.002069  0.126684 -0.537210 0.139320
27  0.042761 -0.082398 0.038132  -0.000000 -0.000000 0.000000
28  0.000000 -0.000000 0.000000  -0.037612 0.809991 -1.089031
29  0.020122 -0.201078 -0.017893  -0.123382 -0.091711 1.883164
30  0.010469 -0.100374 -0.010236  0.033982 -0.300267 -0.034844
31  0.018520 -0.186856 -0.018449  -0.117272 -0.011988 -0.000829
32  -0.032222 -0.200100 -0.061496  -0.000028 0.041159 -0.000014
33  0.009310 -0.057389 -0.045571  -0.000040 0.015141 -0.000020
34  0.068956 -0.193197 -0.059302  -0.000040 0.041095 -0.000005
35  0.008683 -0.056712 -0.045241  -0.000018 0.014885 -0.000005
36  0.102133 -0.077572 -0.031829  0.000019 0.207011 0.000011
37  0.034314 -0.028672 -0.001806  0.000000 -0.000000 0.000000
38  0.001143 0.000000 -0.181958  -0.042876 0.020633 -0.002692
39  0.004961 -0.000269 -0.096018  0.100658 -0.304088 -0.040583
40  -0.011623 0.003704 -0.088948  0.029964 -0.041847 -0.001711
41  -0.007644 0.000000 -0.210641  -0.071050 -0.066433 0.000972
time 7
0  0 0 0  0 0 0
1  0.000000 0.000010 0.000000  -1.570796 -0.000000 0.000000
2  0.000000 0.000000 0.000000  0.000000 -0.000000 0.000000
3  0.000000 0.000000 0.000000  0.000000 -0.000000 0.000000
4  0.006445 -0.000000 0.753335  0.000000 -0.000000 0.000000
5  0.152781 -0.040500 -0.027365  0.039442 0.399622 0.015954
6  -0.000000 0.000000 0.000000  0.000000 0.000000 -0.000000
7  -0.000000 0.000000 0.000000  0.051417 -0.247070 0.009179
8  0.002937 -0.000000 0.194891  -0.061844 0.063783 0.114597
9  0.003500 0.000000 0.083408  -0.070718 0.045478 0.110065
10  -0.012239 -0.000000 0.122389  -0.040017 0.069491 0.118178
11  0.000267 0.000000 0.055137  0.055149 -0.071551 -0.131329
12  0.003234 0.000000 0.052281  0.043345 -0.111551 -0.136841
13  -0.001319 0.000000 0.060214  0.024638 -0.167979 -0.140726
14  -0.039876 0.060989 0.002159  -0.126208 -0.469438 -0.089083
15  0.043265 0.077505 0.036874  0.000000 0.000000 0.000000
16  -0.000000 0.000000 -0.000000  -0.582627 0.685578 0.801327
17  0.020260 0.201078 -0.017731  0.052862 -0.083638 -1.147816
18  0.010537 0.100376 -0.010148  0.012143 0.129541 -0.011807
19  0.018646 0.186860 -0.018293  -0.009241 0.000944 -0.000124
20  -0.032087 0.200172 -0.061335  0.000003 0.039860 0.000014
21  0.009278 0.058322 -0.044375  0.000019 0.032714 0.000018
22  0.069086 0.193199 -0.059144  0.000012 0.034229 0.000010
23  0.008560 0.057628 -0.044090  -0.000003 0.030781 0.000017
24  0.102185 0.077529 -0.031768  -0.000045 0.159818 -0.000008
25  0.038420 0.022931 -0.000959  -0.000000 -0.000000 0.000000
26  -0.039647 -0.056266 0.002069  0.122549 -0.467020 0.097109
27  0.042761 -0.082398 0.038131  -0.000000 -0.000000 -0.000000
28  0.000000 0.000000 0.000000  0.127090 0.801908 -0.802593
29  0.020122 -0.201078 -0.017893  -0.117415 -0.093109 1.820579
30  0.010469 -0.100374 -0.010236  0.035973 -0.314838 -0.036882
31  0.018520 -0.186856 -0.018449  -0.125191 -0.012801 -0.000834
32  -0.032222 -0.200100 -0.061496  -0.000028 0.041159 -0.000014
33  0.009310 -0.057389 -0.045571  -0.000040 0.015141 -0.000020
34  0.068956 -0.193197 -0.059302  -0.000040 0.041095 -0.000005
35  0.008683 -0.056712 -0.045241  -0.000018 0.014885 -0.000005
36  0.102133 -0.077572 -0.031829  0.000019 0.207011 0.000011
37  0.034314 -0.028672 -0.001806  -0.000000 0.000000 -0.000000
38  0.001143 0.000000 -0.181958  -0.035493 0.008530 -0.001980
39  0.004961 -0.000269 -0.096018  0.082692 -0.252204 -0.031356
40  -0.011623 0.003704 -0.088948  0.027468 -0.040715 -0.001551
41  -0.007644 0.000000 -0.210641  -0.063257 -0.075252 0.001450
time 8
0  0 0 0  0 0 0
1  0.000000 0.000010 0.000000  -1.570796 -0.000000 0.000000
2  0.000000 0.000000 0.000000  0.000000 -0.000000 0.000000
3  0.000000 0.000000 0.000000  0.000000 -0.000000 0.000000
4  0.006445 -0.000000 0.753335  0.000000 -0.000000 0.000000
5  0.148111 -0.035392 -0.025176  0.034435 0.370006 0.013474
6  0.000000 0.000000 0.000000  -0.000000 -0.000000 -0.000000
7  0.000000 0.000000 0.000000  0.044933 -0.227323 0.007779
8  0.002937 0.000000 0.194891  -0.054125 0.036084 0.100031
9  0.003500 0.000000 0.083409  -0.061828 0.021289 0.096167
10  -0.012239 -0.000000 0.122389  -0.035028 0.040635 0.102892
11  0.000267 0.000000 0.055138  0.048135 -0.058537 -0.114220
12  0.003234 -0.000000 0.052281  0.037807 -0.091248 -0.119019
13  -0.001318 -0.000000 0.060214  0.021439 -0.137424 -0.122389
14  -0.039876 0.060989 0.002159  -0.117860 -0.397890 -0.042631
15  0.043265 0.077505 0.036874  0.000000 -0.000000 -0.000000
16  0.000000 0.000000 -0.000000  -0.532592 0.688722 0.848581
17  0.020259 0.201078 -0.017731  0.057377 -0.085797 -1.199351
18  0.010537 0.100376 -0.010148  0.011748 0.125099 -0.011426
19  0.018646 0.186860 -0.018292  -0.017161 0.001752 -0.000237
20  -0.032088 0.200172 -0.061335  0.000003 0.039860 0.000014
21  0.009278 0.058322 -0.044375  0.000019 0.032714 0.000018
22  0.069086 0.193199 -0.059144  0.000011 0.034229 0.000010
23  0.008560 0.057628 -0.044090  -0.000003 0.030781 0.000017
24  0.102185 0.077529 -0.031768  -0.000045 0.159819 -0.000008
25  0.038420 0.022931 -0.000959  -0.000000 0.000000 0.000000
26  -0.039647 -0.056266 0.002069  0.115326 -0.396922 0.055857
27  0.042761 -0.082398 0.038132  0.000000 -0.000000 -0.000000
28  0.000000 -0.000000 0.000000  0.279873 0.761971 -0.525574
29  0.020122 -0.201078 -0.017893  -0.111365 -0.094134 1.757918
30  0.010469 -0.100374 -0.010236  0.038005 -0.329406 -0.038961
31  0.018520 -0.186856 -0.018450  -0.133110 -0.013615 -0.000833
32  -0.032223 -0.200100 -0.061496  -0.000028 0.041159 -0.000014
33  0.009310 -0.057389 -0.045571  -0.000040 0.015141 -0.000020
34  0.068955 -0.193197 -0.059302  -0.000040 0.041095 -0.000005
35  0.008683 -0.056712 -0.045241  -0.000018 0.014885 -0.000005
36  0.102133 -0.077572 -0.031829  0.000019 0.207011 0.000011
37  0.034314 -0.028672 -0.001806  0.000000 -0.000000 -0.000000
38  0.001143 0.000000 -0.181958  -0.028120 -0.003578 -0.001357
39  0.004961 -0.000269 -0.096018  0.065417 -0.200133 -0.023185
40  -0.011623 0.003704 -0.088948  0.024973 -0.039583 -0.001395
41  -0.007644 0.000000 -0.210641  -0.055463 -0.084075 0.001860
time 9
0  0 0 0  0 0 0
1  0.000000 0.000010 0.000000  -1.570796 -0.000000 0.000000
2  0.000000 0.000000 0.000000  0.000000 -0.000000 0.000000
3  0.000000 0.000000 0.000000  0.000000 -0.000000 0.000000
4  0.006445 -0.000000 0.753335  0.000000 -0.000000 0.000000
5  0.143441 -0.030284 -0.022987  0.029561 0.340385 0.011179
6  0.000000 -0.000000 0.000000  0.000000 -0.000000 -0.000000
7  0.000000 -0.000000 0.000000  0.038448 -0.207588 0.006254
8  0.002937 -0.000000 0.194891  -0.046011 0.008508 0.085265
9  0.003500 0.000000 0.083408  -0.052606 -0.002768 0.082060
10  -0.012239 0.000000 0.122389  -0.029604 0.011867 0.087479
11  0.000267 0.000000 0.055137  0.041351 -0.045406 -0.097216
12  0.003234 0.000000 0.052281  0.032642 -0.070855 -0.101342
13  -0.001318 -0.000000 0.060215  0.018817 -0.106827 -0.104225
14  -0.039876 0.060989 0.002159  -0.106265 -0.326903 0.003121
15  0.043265 0.077505 0.036874  -0.000000 0.000000 -0.000000
16  0.000000 0.000000 0.000000  -0.482351 0.690030 0.896045
17  0.020260 0.201078 -0.017731  0.061996 -0.087721 -1.250870
18  0.010537 0.100376 -0.010148  0.011352 0.120657 -0.011044
19  0.018646 0.186860 -0.018292  -0.025082 0.002559 -0.000357
20  -0.032088 0.200172 -0.061335  0.000003 0.039860 0.000014
21  0.009278 0.058322 -0.044375  0.000019 0.032714 0.000018
22  0.069086 0.193200 -0.059144  0.000012 0.034229 0.000010
23  0.008560 0.057628 -0.044090  -0.000003 0.030781 0.000017
24  0.102185 0.077529 -0.031768  -0.000045 0.159819 -0.000008
25  0.038420 0.022931 -0.000959  0.000000 0.000000 -0.000000
26  -0.039647 -0.056266 0.002069  0.105267 -0.327270 0.015220
27  0.042761 -0.082398 0.038132  0.000000 -0.000000 0.000000
28  -0.000000 0.000000 0.000000  0.404891 0.695824 -0.274722
29  0.020122 -0.201078 -0.017893  -0.105268 -0.094779 1.695309
30  0.010469 -0.100374 -0.010235  0.040079 -0.343969 -0.041082
31  0.018520 -0.186856 -0.018450  -0.141029 -0.014428 -0.000825
32  -0.032222 -0.200101 -0.061496  -0.000028 0.041159 -0.000014
33  0.009310 -0.057389 -0.045571  -0.000040 0.015141 -0.000020
34  0.068956 -0.193197 -0.059302  -0.000040 0.041095 -0.000005
35  0.008683 -0.056712 -0.045241  -0.000018 0.014885 -0.000005
36  0.102133 -0.077572 -0.031829  0.000019 0.207011 0.000011
37  0.034314 -0.028672 -0.001806  -0.000000 0.000000 -0.000000
38  0.001143 0.000000 -0.181958  -0.020753 -0.015690 -0.000823
39  0.004961 -0.000269 -0.096018  0.048741 -0.147973 -0.016004
40  -0.011623 0.003704 -0.088948  0.022478 -0.038450 -0.001241
41  -0.007644 0.000000 -0.210641  -0.047666 -0.092900 0.002201
time 10
0  0 0 0  0 0 0
1  0.000000 0.000010 0.000000  -1.570796 -0.000000 0.000000
2  0.000000 0.000000 0.000000  0.000000 -0.000000 0.000000
3  0.000000 0.000000 0.000000  0.000000 -0.000000 0.000000
4  0.006445 -0.000000 0.753335  0.000000 -0.000000 0.000000
5  0.138801 -0.022074 -0.020828  0.021384 0.310811 0.007800
6  0.000000 -0.000000 -0.000000  -0.000000 -0.000000 -0.000000
7  0.000000 -0.000000 -0.000000  0.028022 -0.187827 0.004719
8  0.002937 -0.000000 0.194891  -0.034203 -0.019674 0.062503
9  0.003500 0.000000 0.083408  -0.038912 -0.027728 0.060188
10  -0.012239 0.000000 0.122389  -0.022269 -0.017189 0.063956
11  0.000267 0.000000 0.055137  0.029800 -0.032767 -0.070626
12  0.003234 -0.000000 0.052281  0.023235 -0.050889 -0.073585
13  -0.001319 0.000000 0.060215  0.012850 -0.076485 -0.075676
14  -0.039876 0.060989 0.002159  -0.061389 -0.253949 0.022534
15  0.043265 0.077505 0.036874  -0.000000 -0.000000 0.000000
16  0.000000 0.000000 -0.000000  -0.546120 0.708423 0.837597
17  0.020260 0.201078 -0.017731  0.061244 -0.087426 -1.242555
18  0.010537 0.100376 -0.010148  0.008579 0.089933 -0.008353
19  0.018646 0.186860 -0.018292  -0.019801 0.002021 -0.000277
20  -0.032088 0.200172 -0.061335  0.000003 0.039860 0.000014
21  0.009278 0.058322 -0.044375  0.000019 0.032714 0.000018
22  0.069086 0.193199 -0.059144  0.000012 0.034229 0.000010
23  0.008560 0.057628 -0.044090  -0.000003 0.030781 0.000017
24  0.102185 0.077529 -0.031768  -0.000045 0.159818 -0.000008
25  0.038420 0.022931 -0.000959  0.000000 -0.000000 0.000000
26  -0.039647 -0.056266 0.002069  0.061112 -0.246401 -0.008742
27  0.042761 -0.082398 0.038132  -0.000000 -0.000000 0.000000
28  0.000000 0.000000 0.000000  0.562595 0.673887 -0.105754
29  0.020122 -0.201078 -0.017893  -0.096825 -0.095043 1.609034
30  0.010469 -0.100374 -0.010236  0.038691 -0.334261 -0.039663
31  0.018520 -0.186856 -0.018450  -0.140575 -0.014383 -0.000826
32  -0.032222 -0.200100 -0.061496  -0.000028 0.041159 -0.000014
33  0.009310 -0.057389 -0.045571  -0.000040 0.015141 -0.000020
34  0.068956 -0.193197 -0.059302  -0.000040 0.041095 -0.000005
35  0.008683 -0.056712 -0.045241  -0.000018 0.014885 -0.000005
36  0.102133 -0.077572 -0.031829  0.000019 0.207011 0.000011
37  0.034314 -0.028672 -0.001806  -0.000000 -0.000000 0.000000
38  0.001143 0.000000 -0.181958  -0.009230 -0.027730 -0.000238
39  0.004961 -0.000269 -0.096018  0.024131 -0.094120 -0.008155
40  -0.011623 0.003704 -0.088948  0.020595 -0.038400 -0.001128
41  -0.007644 0.000000 -0.210641  -0.034705 -0.101986 0.002429
time 11
0  0 0 0  0 0 0
1  0.000000 0.000010 0.000000  -1.570796 -0.000000 0.000000
2  0.000000 0.000000 0.000000  0.000000 -0.000000 0.000000
3  0.000000 0.000000 0.000000  0.000000 -0.000000 0.000000
4  0.006445 -0.000000 0.753335  0.000000 -0.000000 0.000000
5  0.134167 -0.013245 -0.018675  0.012703 0.281208 0.004462
6  -0.000000 0.000000 -0.000000  0.000000 -0.000000 -0.000000
7  -0.000000 0.000000 -0.000000  0.016813 -0.168071 0.002995
8  0.002937 -0.000000 0.194891  -0.021056 -0.047721 0.037809
9  0.003500 0.000000 0.083408  -0.023805 -0.052577 0.036421
10  -0.012239 0.000000 0.122389  -0.013923 -0.046145 0.038588
11  0.000267 0.000000 0.055138  0.017599 -0.019912 -0.042249
12  0.003234 0.000000 0.052281  0.013486 -0.030737 -0.043991
13  -0.001319 -0.000000 0.060214  0.007008 -0.046002 -0.045250
14  -0.039876 0.060989 0.002159  -0.009834 -0.181002 0.040068
15  0.043265 0.077505 0.036875  -0.000000 -0.000000 -0.000000
16  0.000000 0.000000 0.000000  -0.636134 0.725474 0.754480
17  0.020260 0.201079 -0.017731  0.059420 -0.086683 -1.222281
18  0.010537 0.100376 -0.010148  0.005232 0.053946 -0.005099
19  0.018646 0.186860 -0.018293  -0.011881 0.001213 -0.000161
20  -0.032087 0.200172 -0.061335  0.000003 0.039860 0.000014
21  0.009278 0.058322 -0.044375  0.000019 0.032714 0.000018
22  0.069086 0.193199 -0.059144  0.000012 0.034229 0.000010
23  0.008560 0.057628 -0.044090  -0.000003 0.030781 0.000017
24  0.102185 0.077529 -0.031768  -0.000045 0.159818 -0.000008
25  0.038420 0.022931 -0.000959  -0.000000 -0.000000 -0.000000
26  -0.039647 -0.056266 0.002069  0.009454 -0.163923 -0.033082
27  0.042760 -0.082398 0.038132  0.000000 -0.000000 -0.000000
28  -0.000000 0.000000 0.000000  0.725780 0.644600 0.045484
29  0.020122 -0.201078 -0.017893  -0.087902 -0.094533 1.517744
30  0.010469 -0.100374 -0.010236  0.036646 -0.319695 -0.037571
31  0.018520 -0.186856 -0.018450  -0.138447 -0.014166 -0.000829
32  -0.032222 -0.200100 -0.061496  -0.000028 0.041159 -0.000014
33  0.009310 -0.057389 -0.045571  -0.000040 0.015141 -0.000020
34  0.068955 -0.193197 -0.059302  -0.000040 0.041095 -0.000005
35  0.008683 -0.056712 -0.045241  -0.000018 0.014885 -0.000005
36  0.102133 -0.077572 -0.031829  0.000019 0.207011 0.000011
37  0.034315 -0.028672 -0.001806  -0.000000 0.000000 0.000000
38  0.001143 0.000000 -0.181958  0.003124 -0.039763 0.000231
39  0.004961 -0.000269 -0.096018  -0.001675 -0.039684 -0.001388
40  -0.011623 0.003704 -0.088948  0.018835 -0.038567 -0.001023
41  -0.007644 0.000000 -0.210641  -0.020698 -0.111127 0.002524
time 12
0  0 0 0  0 0 0
1  0.000000 0.000010 0.000000  -1.570796 -0.000000 0.000000
2  0.000000 0.000000 0.000000  0.000000 -0.000000 0.000000
3  0.000000 0.000000 0.000000  0.000000 -0.000000 0.000000
4  0.006445 -0.000000 0.753335  0.000000 -0.000000 0.000000
5  0.129533 -0.004415 -0.016522  0.004194 0.251581 0.001416
6  0.000000 -0.000000 0.000000  0.000000 0.000000 0.000000
7  0.000000 -0.000000 0.000000  0.005605 -0.148336 0.001053
8  0.002937 0.000000 0.194891  -0.007197 -0.075429 0.012708
9  0.003500 0.000000 0.083408  -0.008088 -0.077055 0.012244
10  -0.012239 0.000000 0.122389  -0.004829 -0.074875 0.012938
11  0.000267 0.000000 0.055137  0.005771 -0.006718 -0.014039
12  0.003234 0.000000 0.052281  0.004343 -0.010308 -0.014611
13  -0.001319 0.000000 0.060214  0.002103 -0.015362 -0.015036
14  -0.039876 0.060989 0.002159  0.042416 -0.109093 0.061155
15  0.043265 0.077505 0.036874  0.000000 -0.000000 -0.000000
16  0.000000 0.000000 -0.000000  -0.728848 0.736730 0.668617
17  0.020260 0.201078 -0.017731  0.057613 -0.085902 -1.202010
18  0.010537 0.100376 -0.010148  0.001773 0.017973 -0.001730
19  0.018646 0.186860 -0.018292  -0.003960 0.000405 -0.000052
20  -0.032088 0.200172 -0.061335  0.000003 0.039860 0.000014
21  0.009278 0.058322 -0.044375  0.000019 0.032714 0.000018
22  0.069086 0.193199 -0.059144  0.000012 0.034229 0.000010
23  0.008560 0.057628 -0.044090  -0.000003 0.030781 0.000017
24  0.102185 0.077529 -0.031768  -0.000045 0.159819 -0.000008
25  0.038420 0.022931 -0.000959  0.000000 0.000000 0.000000
26  -0.039647 -0.056266 0.002069  -0.043631 -0.082875 -0.061386
27  0.042761 -0.082398 0.038132  -0.000000 -0.000000 0.000000
28  -0.000000 0.000000 0.000000  0.877214 0.597008 0.184757
29  0.020122 -0.201078 -0.017893  -0.079070 -0.093217 1.426532
30  0.010469 -0.100374 -0.010236  0.034641 -0.305125 -0.035519
31  0.018520 -0.186856 -0.018450  -0.136319 -0.013948 -0.000831
32  -0.032222 -0.200100 -0.061496  -0.000028 0.041159 -0.000014
33  0.009310 -0.057389 -0.045571  -0.000040 0.015141 -0.000020
34  0.068956 -0.193197 -0.059302  -0.000040 0.041095 -0.000005
35  0.008683 -0.056712 -0.045241  -0.000018 0.014885 -0.000005
36  0.102133 -0.077572 -0.031829  0.000019 0.207011 0.000011
37  0.034314 -0.028672 -0.001806  -0.000000 -0.000000 -0.000000
38  0.001143 0.000000 -0.181958  0.015480 -0.051800 0.000552
39  0.004961 -0.000269 -0.096018  -0.027086 0.014890 0.003967
40  -0.011623 0.003704 -0.088948  0.017075 -0.038733 -0.000917
41  -0.007644 0.000000 -0.210641  -0.006678 -0.120268 0.002490
time 13
0  0 0 0  0 0 0
1  0.000000 0.000010 0.000000  -1.570796 -0.000000 0.000000
2  0.000000 0.000000 0.000000  0.000000 -0.000000 0.000000
3  0.000000 0.000000 0.000000  0.000000 -0.000000 0.000000
4  0.006445 -0.000000 0.753335  0.000000 -0.000000 0.000000
5  0.130026 0.004907 -0.016759  -0.004731 0.254752 0.000114
6  -0.000000 0.000000 -0.000000  0.000000 -0.000000 -0.000000
7  -0.000000 0.000000 -0.000000  -0.006195 -0.150415 -0.000286
8  0.002937 0.000000 0.194891  0.008074 -0.073244 -0.013750
9  0.003500 0.000000 0.083408  0.009032 -0.075966 -0.013394
10  -0.012239 -0.000000 0.122389  0.005416 -0.071907 -0.012988
11  0.000267 -0.000000 0.055137  -0.006402 -0.008262 0.013607
12  0.003234 -0.000000 0.052281  -0.004796 -0.012595 0.014143
13  -0.001319 0.000000 0.060214  -0.002289 -0.018678 0.014558
14  -0.039876 0.060989 0.002159  0.048828 -0.114371 0.049660
15  0.043265 0.077505 0.036874  0.000000 -0.000000 0.000000
16  0.000000 0.000000 0.000000  -0.715591 0.766659 0.669796
17  0.020260 0.201078 -0.017731  0.061871 -0.087672 -1.249494
18  0.010537 0.100375 -0.010148  -0.002810 -0.027772 0.002737
19  0.018646 0.186860 -0.018292  0.011134 -0.001151 0.000139
20  -0.032088 0.200172 -0.061335  0.000003 0.039860 0.000014
21  0.009278 0.058322 -0.044375  0.000019 0.032714 0.000018
22  0.069086 0.193199 -0.059144  0.000012 0.034229 0.000010
23  0.008560 0.057628 -0.044090  -0.000003 0.030781 0.000017
24  0.102185 0.077529 -0.031768  -0.000045 0.159819 -0.000008
25  0.038420 0.022931 -0.000959  -0.000000 -0.000000 0.000000
26  -0.039647 -0.056266 0.002069  -0.051841 -0.083343 -0.054230
27  0.042761 -0.082398 0.038131  0.000000 -0.000000 -0.000000
28  -0.000000 0.000000 -0.000000  0.947924 0.583028 0.183412
29  0.020122 -0.201078 -0.017893  -0.070793 -0.091220 1.339569
30  0.010469 -0.100374 -0.010236  0.028443 -0.258392 -0.029198
31  0.018520 -0.186856 -0.018450  -0.123425 -0.012619 -0.000834
32  -0.032223 -0.200101 -0.061496  -0.000028 0.041159 -0.000014
33  0.009310 -0.057389 -0.045571  -0.000040 0.015141 -0.000020
34  0.068955 -0.193197 -0.059302  -0.000040 0.041095 -0.000005
35  0.008683 -0.056712 -0.045241  -0.000018 0.014885 -0.000005
36  0.102133 -0.077572 -0.031829  0.000019 0.207011 0.000011
37  0.034314 -0.028672 -0.001806  0.000000 -0.000000 -0.000000
38  0.001143 0.000000 -0.181958  0.029330 -0.050780 0.000913
39  0.004961 -0.000269 -0.096018  -0.053851 0.009803 0.007180
40  -0.011623 0.003704 -0.088948  0.014581 -0.038845 -0.000778
41  -0.007644 0.000000 -0.210641  0.008598 -0.119444 0.002143
time 14
0  0 0 0  0 0 0
1  0.000000 0.000010 0.000000  -1.570796 -0.000000 0.000000
2  0.000000 0.000000 0.000000  0.000000 -0.000000 0.000000
3  0.000000 0.000000 0.000000  0.000000 -0.000000 0.000000
4  0.006445 -0.000000 0.753335  0.000000 -0.000000 0.000000
5  0.135645 0.014722 -0.019387  -0.014264 0.290749 0.000078
6  0.000000 -0.000000 0.000000  -0.000000 0.000000 0.000000
7  0.000000 -0.000000 0.000000  -0.018615 -0.174297 -0.000635
8  0.002937 -0.000000 0.194891  0.023552 -0.041103 -0.040846
9  0.003500 0.000000 0.083408  0.026552 -0.049245 -0.039806
10  -0.012239 0.000000 0.122389  0.015567 -0.037211 -0.038668
11  0.000267 -0.000000 0.055138  -0.019550 -0.024528 0.040997
12  0.003234 -0.000000 0.052281  -0.014933 -0.037589 0.042640
13  -0.001319 0.000000 0.060214  -0.007691 -0.055956 0.043860
14  -0.039876 0.060989 0.002159  0.011090 -0.197387 0.004827
15  0.043265 0.077505 0.036874  0.000000 -0.000000 -0.000000
16  0.000000 0.000000 0.000000  -0.585108 0.813534 0.769667
17  0.020260 0.201078 -0.017731  0.072573 -0.091130 -1.365363
18  0.010537 0.100376 -0.010148  -0.008681 -0.083358 0.008468
19  0.018646 0.186860 -0.018293  0.033407 -0.003459 0.000379
20  -0.032087 0.200172 -0.061335  0.000003 0.039860 0.000014
21  0.009278 0.058322 -0.044375  0.000019 0.032714 0.000018
22  0.069086 0.193199 -0.059144  0.000012 0.034229 0.000010
23  0.008560 0.057628 -0.044090  -0.000003 0.030781 0.000016
24  0.102185 0.077529 -0.031768  -0.000045 0.159819 -0.000008
25  0.038420 0.022931 -0.000959  0.000000 0.000000 0.000000
26  -0.039647 -0.056266 0.002069  -0.016279 -0.165355 -0.010460
27  0.042761 -0.082398 0.038132  0.000000 -0.000000 -0.000000
28  0.000000 -0.000000 -0.000000  0.945710 0.614551 0.050165
29  0.020122 -0.201078 -0.017893  -0.063063 -0.088645 1.256366
30  0.010469 -0.100374 -0.010236  0.018768 -0.179234 -0.019315
31  0.018520 -0.186856 -0.018449  -0.099761 -0.010176 -0.000794
32  -0.032222 -0.200100 -0.061496  -0.000028 0.041159 -0.000014
33  0.009310 -0.057389 -0.045571  -0.000040 0.015141 -0.000020
34  0.068955 -0.193197 -0.059302  -0.000040 0.041095 -0.000005
35  0.008683 -0.056712 -0.045241  -0.000018 0.014885 -0.000005
36  0.102133 -0.077572 -0.031829  0.000019 0.207011 0.000011
37  0.034315 -0.028672 -0.001806  -0.000000 -0.000000 0.000000
38  0.001143 0.000000 -0.181958  0.044673 -0.036704 0.001589
39  0.004961 -0.000269 -0.096018  -0.082392 -0.055025 0.010680
40  -0.011623 0.003704 -0.088948  0.011355 -0.038901 -0.000605
41  -0.007644 0.000000 -0.210641  0.025101 -0.108649 0.001713
time 15
0  0 0 0  0 0 0
1  0.000000 0.000010 0.000000  -1.570796 -0.000000 0.000000
2  0.000000 0.000000 0.000000  0.000000 -0.000000 0.000000
3  0.000000 0.000000 0.000000  0.000000 -0.000000 0.000000
4  0.006445 -0.000000 0.753335  0.000000 -0.000000 0.000000
5  0.141264 0.024537 -0.022013  -0.023909 0.326748 -0.000321
6  -0.000000 0.000000 0.000000  -0.000000 -0.000000 -0.000000
7  -0.000000 0.000000 0.000000  -0.031083 -0.198183 -0.000683
8  0.002937 -0.000000 0.194891  0.038144 -0.008553 -0.067424
9  0.003500 0.000000 0.083408  0.043346 -0.022072 -0.065725
10  -0.012239 0.000000 0.122389  0.024817 -0.002261 -0.063980
11  0.000267 0.000000 0.055138  -0.033147 -0.040428 0.068615
12  0.003234 0.000000 0.052281  -0.025792 -0.062286 0.071429
13  -0.001319 0.000000 0.060214  -0.014205 -0.093065 0.073450
14  -0.039876 0.060989 0.002159  -0.023553 -0.282027 -0.037684
15  0.043265 0.077505 0.036874  -0.000000 -0.000000 0.000000
16  -0.000000 0.000000 -0.000000  -0.441983 0.850422 0.882665
17  0.020259 0.201078 -0.017731  0.083619 -0.093333 -1.481423
18  0.010537 0.100376 -0.010148  -0.014911 -0.138924 0.014565
19  0.018646 0.186860 -0.018292  0.055680 -0.005771 0.000567
20  -0.032088 0.200172 -0.061335  0.000003 0.039860 0.000014
21  0.009278 0.058322 -0.044375  0.000019 0.032714 0.000018
22  0.069086 0.193199 -0.059144  0.000012 0.034229 0.000010
23  0.008560 0.057628 -0.044090  -0.000003 0.030781 0.000017
24  0.102185 0.077529 -0.031768  -0.000045 0.159818 -0.000008
25  0.038420 0.022931 -0.000959  0.000000 0.000000 0.000000
26  -0.039647 -0.056266 0.002069  0.016201 -0.248868 0.031080
27  0.042761 -0.082398 0.038132  0.000000 -0.000000 -0.000000
28  0.000000 -0.000000 -0.000000  0.938207 0.645589 -0.086459
29  0.020122 -0.201078 -0.017893  -0.055573 -0.085437 1.173158
30  0.010469 -0.100374 -0.010236  0.009981 -0.099948 -0.010307
31  0.018520 -0.186856 -0.018450  -0.076096 -0.007736 -0.000696
32  -0.032222 -0.200100 -0.061496  -0.000028 0.041159 -0.000014
33  0.009310 -0.057389 -0.045571  -0.000040 0.015141 -0.000020
34  0.068956 -0.193197 -0.059302  -0.000040 0.041095 -0.000005
35  0.008683 -0.056713 -0.045241  -0.000018 0.014885 -0.000005
36  0.102133 -0.077572 -0.031829  0.000019 0.207011 0.000011
37  0.034315 -0.028672 -0.001806  -0.000000 0.000000 0.000000
38  0.001143 0.000000 -0.181958  0.060021 -0.022640 0.002481
39  0.004961 -0.000269 -0.096018  -0.111336 -0.119753 0.016063
40  -0.011623 0.003704 -0.088948  0.008128 -0.038958 -0.000433
41  -0.007644 0.000000 -0.210641  0.041581 -0.097849 0.001463
time 16
0  0 0 0  0 0 0
1  0.000000 0.000010 0.000000  -1.570796 -0.000000 0.000000
2  0.000000 0.000000 0.000000  0.000000 -0.000000 0.000000
3  0.000000 0.000000 0.000000  0.000000 -0.000000 0.000000
4  0.006445 -0.000000 0.753335  0.000000 -0.000000 0.000000
5  0.146765 0.033632 -0.024584  -0.032937 0.361915 -0.000847
6  -0.000000 0.000000 -0.000000  0.000000 -0.000000 -0.000000
7  -0.000000 0.000000 -0.000000  -0.042672 -0.221529 -0.000487
8  0.002937 0.000000 0.194891  0.051096 0.023523 -0.091715
9  0.003500 0.000000 0.083408  0.058445 0.004820 -0.089415
10  -0.012239 -0.000000 0.122389  0.032819 0.032034 -0.087140
11  0.000267 -0.000000 0.055137  -0.046024 -0.055703 0.094239
12  0.003234 0.000000 0.052281  -0.036320 -0.086199 0.098187
13  -0.001319 -0.000000 0.060214  -0.020962 -0.129174 0.100972
14  -0.039876 0.060989 0.002159  -0.054491 -0.362998 -0.075227
15  0.043265 0.077505 0.036874  0.000000 0.000000 0.000000
16  0.000000 0.000000 -0.000000  -0.293686 0.868450 0.990877
17  0.020260 0.201078 -0.017731  0.094964 -0.094250 -1.598696
18  0.010537 0.100376 -0.010148  -0.021323 -0.192653 0.020855
19  0.018645 0.186860 -0.018292  0.077014 -0.007990 0.000699
20  -0.032088 0.200172 -0.061335  0.000003 0.039860 0.000014
21  0.009278 0.058322 -0.044375  0.000019 0.032714 0.000018
22  0.069086 0.193199 -0.059144  0.000012 0.034229 0.000010
23  0.008560 0.057628 -0.044090  -0.000003 0.030781 0.000017
24  0.102185 0.077529 -0.031768  -0.000045 0.159819 -0.000008
25  0.038420 0.022931 -0.000959  0.000000 -0.000000 -0.000000
26  -0.039647 -0.056266 0.002069  0.045852 -0.330794 0.068602
27  0.042760 -0.082398 0.038131  -0.000000 -0.000000 0.000000
28  -0.000000 -0.000000 0.000000  0.913645 0.672074 -0.233858
29  0.020122 -0.201078 -0.017893  -0.049470 -0.082250 1.102858
30  0.010469 -0.100374 -0.010235  0.002161 -0.022739 -0.002253
31  0.018520 -0.186856 -0.018449  -0.052621 -0.005323 -0.000543
32  -0.032222 -0.200100 -0.061496  -0.000028 0.041159 -0.000014
33  0.009310 -0.057389 -0.045571  -0.000040 0.015141 -0.000020
34  0.068956 -0.193197 -0.059302  -0.000040 0.041095 -0.000005
35  0.008683 -0.056712 -0.045241  -0.000018 0.014885 -0.000005
36  0.102133 -0.077572 -0.031829  0.000019 0.207011 0.000011
37  0.034314 -0.028672 -0.001806  -0.000000 0.000000 0.000000
38  0.001143 0.000000 -0.181958  0.074448 -0.008699 0.003540
39  0.004961 -0.000269 -0.096018  -0.138569 -0.182740 0.022847
40  -0.011623 0.003704 -0.088948  0.004649 -0.039163 -0.000250
41  -0.007644 0.000000 -0.210641  0.056801 -0.087180 0.001397
time 17
0  0 0 0  0 0 0
1  0.000000 0.000010 0.000000  -1.570796 -0.000000 0.000000
2  0.000000 0.000000 0.000000  0.000000 -0.000000 0.000000
3  0.000000 0.000000 0.000000  0.000000 -0.000000 0.000000
4  0.006445 -0.000000 0.753335  0.000000 -0.000000 0.000000
5  0.151678 0.039130 -0.026870  -0.038290 0.393046 -0.000386
6  0.000000 0.000000 0.000000  -0.000000 0.000000 0.000000
7  0.000000 0.000000 0.000000  -0.049624 -0.242216 -0.000381
8  0.002937 0.000000 0.194891  0.059636 0.051709 -0.106704
9  0.003500 0.000000 0.083408  0.068195 0.028537 -0.104054
10  -0.012239 -0.000000 0.122389  0.038416 0.062208 -0.100979
11  0.000267 0.000000 0.055138  -0.053413 -0.069579 0.108947
12  0.003234 0.000000 0.052281  -0.042085 -0.107686 0.113504
13  -0.001319 -0.000000 0.060214  -0.024096 -0.161361 0.116718
14  -0.039876 0.060989 0.002159  -0.080284 -0.421551 -0.097001
15  0.043265 0.077505 0.036874  -0.000000 0.000000 -0.000000
16  0.000000 0.000000 0.000000  -0.169240 0.844077 1.022513
17  0.020259 0.201078 -0.017731  0.107220 -0.093752 -1.725095
18  0.010537 0.100376 -0.010148  -0.027026 -0.237704 0.026462
19  0.018646 0.186860 -0.018292  0.093676 -0.009732 0.000770
20  -0.032087 0.200172 -0.061335  0.000003 0.039860 0.000014
21  0.009278 0.058322 -0.044375  0.000019 0.032714 0.000018
22  0.069086 0.193200 -0.059144  0.000012 0.034229 0.000010
23  0.008560 0.057627 -0.044090  -0.000003 0.030781 0.000017
24  0.102185 0.077529 -0.031768  -0.000045 0.159819 -0.000008
25  0.038420 0.022931 -0.000959  -0.000000 -0.000000 0.000000
26  -0.039647 -0.056266 0.002069  0.074399 -0.401226 0.094408
27  0.042761 -0.082398 0.038132  -0.000000 -0.000000 0.000000
28  -0.000000 -0.000000 0.000000  0.827165 0.674330 -0.425317
29  0.020122 -0.201077 -0.017893  -0.048873 -0.081909 1.095844
30  0.010469 -0.100374 -0.010235  -0.004153 0.044757 0.004293
31  0.018520 -0.186856 -0.018450  -0.030069 -0.003038 -0.000344
32  -0.032222 -0.200100 -0.061496  -0.000028 0.041159 -0.000014
33  0.009310 -0.057389 -0.045571  -0.000040 0.015141 -0.000020
34  0.068956 -0.193197 -0.059302  -0.000040 0.041095 -0.000005
35  0.008683 -0.056712 -0.045241  -0.000018 0.014885 -0.000005
36  0.102133 -0.077572 -0.031829  0.000019 0.207011 0.000011
37  0.034314 -0.028672 -0.001806  0.000000 0.000000 0.000000
38  0.001143 0.000000 -0.181958  0.084251 0.004705 0.004528
39  0.004961 -0.000269 -0.096018  -0.154927 -0.238430 0.028346
40  -0.011623 0.003704 -0.088948  -0.000093 -0.040116 -0.000010
41  -0.007644 0.000000 -0.210641  0.065815 -0.077180 0.001479
time 18
0  0 0 0  0 0 0
1  0.000000 0.000010 0.000000  -1.570796 -0.000000 0.000000
2  0.000000 0.000000 0.000000  0.000000 -0.000000 0.000000
3  0.000000 0.000000 0.000000  0.000000 -0.000000 0.000000
4  0.006445 -0.000000 0.753335  0.000000 -0.000000 0.000000
5  0.156592 0.044627 -0.029157  -0.043700 0.424180 -0.000101
6  -0.000000 -0.000000 0.000000  -0.000000 0.000000 -0.000000
7  -0.000000 -0.000000 0.000000  -0.056614 -0.262902 -0.000126
8  0.002937 0.000000 0.194891  0.067767 0.080020 -0.121480
9  0.003500 0.000000 0.083408  0.077605 0.052394 -0.118475
10  -0.012239 0.000000 0.122389  0.043607 0.092459 -0.114681
11  0.000267 0.000000 0.055137  -0.061014 -0.083344 0.123773
12  0.003234 -0.000000 0.052281  -0.048196 -0.129083 0.128985
13  -0.001319 -0.000000 0.060215  -0.027764 -0.193496 0.132659
14  -0.039876 0.060989 0.002159  -0.105384 -0.480609 -0.117700
15  0.043265 0.077505 0.036874  -0.000000 -0.000000 -0.000000
16  -0.000000 0.000000 0.000000  -0.049358 0.817347 1.048633
17  0.020260 0.201078 -0.017731  0.119322 -0.091718 -1.851546
18  0.010537 0.100376 -0.010148  -0.033062 -0.282726 0.032405
19  0.018646 0.186860 -0.018292  0.110337 -0.011475 0.000811
20  -0.032088 0.200172 -0.061335  0.000003 0.039860 0.000014
21  0.009278 0.058322 -0.044375  0.000019 0.032714 0.000018
22  0.069086 0.193199 -0.059144  0.000012 0.034229 0.000010
23  0.008560 0.057627 -0.044090  -0.000003 0.030781 0.000017
24  0.102185 0.077529 -0.031768  -0.000045 0.159819 -0.000008
25  0.038420 0.022931 -0.000959  0.000000 0.000000 0.000000
26  -0.039647 -0.056266 0.002069  0.101865 -0.472326 0.118822
27  0.042761 -0.082398 0.038131  0.000000 -0.000000 0.000000
28  -0.000000 -0.000000 0.000000  0.741912 0.663691 -0.615866
29  0.020122 -0.201077 -0.017893  -0.048279 -0.081563 1.088830
30  0.010469 -0.100374 -0.010236  -0.010058 0.112306 0.010447
31  0.018520 -0.186856 -0.018450  -0.007517 -0.000758 -0.000095
32  -0.032222 -0.200100 -0.061496  -0.000028 0.041159 -0.000014
33  0.009310 -0.057389 -0.045571  -0.000040 0.015141 -0.000020
34  0.068956 -0.193197 -0.059302  -0.000040 0.041095 -0.000005
35  0.008683 -0.056712 -0.045241  -0.000018 0.014885 -0.000005
36  0.102133 -0.077572 -0.031829  0.000019 0.207011 0.000011
37  0.034314 -0.028672 -0.001806  -0.000000 0.000000 0.000000
38  0.001143 0.000000 -0.181958  0.094069 0.018099 0.005647
39  0.004961 -0.000269 -0.096018  -0.171858 -0.294031 0.034881
40  -0.011623 0.003704 -0.088948  -0.004836 -0.041068 0.000234
41  -0.007644 0.000000 -0.210641  0.074823 -0.067181 0.001653
time 19
0  0 0 0  0 0 0
1  0.000000 0.000010 0.000000  -1.570796 -0.000000 0.000000
2  0.000000 0.000000 0.000000  0.000000 -0.000000 0.000000
3  0.000000 0.000000 0.000000  0.000000 -0.000000 0.000000
4  0.006445 -0.000000 0.753335  0.000000 -0.000000 0.000000
5  0.155895 0.042981 -0.028824  -0.042054 0.419723 0.000068
6  0.000000 0.000000 0.000000  0.000000 0.000000 -0.000000
7  0.000000 0.000000 0.000000  -0.054511 -0.259953 -0.000090
8  0.002937 0.000000 0.194891  0.065360 0.075979 -0.116994
9  0.003500 0.000000 0.083408  0.074808 0.049043 -0.114122
10  -0.012239 -0.000000 0.122389  0.042110 0.088111 -0.110353
11  0.000267 0.000000 0.055137  -0.058691 -0.081404 0.119010
12  0.003234 0.000000 0.052281  -0.046312 -0.126053 0.124013
13  -0.001319 0.000000 0.060214  -0.026589 -0.188923 0.127545
14  -0.039876 0.060989 0.002159  -0.115790 -0.470148 -0.101933
15  0.043265 0.077505 0.036874  -0.000000 -0.000000 -0.000000
16  0.000000 0.000000 -0.000000  -0.093789 0.806587 0.893428
17  0.020260 0.201078 -0.017731  0.119503 -0.091675 -1.853458
18  0.010537 0.100376 -0.010148  -0.036529 -0.307421 0.035822
19  0.018645 0.186860 -0.018292  0.121170 -0.012614 0.000823
20  -0.032087 0.200172 -0.061335  0.000003 0.039860 0.000014
21  0.009278 0.058322 -0.044375  0.000019 0.032714 0.000018
22  0.069086 0.193199 -0.059144  0.000012 0.034229 0.000010
23  0.008560 0.057628 -0.044090  -0.000003 0.030781 0.000017
24  0.102185 0.077529 -0.031768  -0.000045 0.159819 -0.000008
25  0.038420 0.022931 -0.000959  0.000000 -0.000000 0.000000
26  -0.039647 -0.056266 0.002069  0.112402 -0.462569 0.102001
27  0.042761 -0.082398 0.038131  0.000000 -0.000000 0.000000
28  0.000000 -0.000000 -0.000000  0.662629 0.667909 -0.729570
29  0.020122 -0.201078 -0.017893  -0.050963 -0.083081 1.120303
30  0.010469 -0.100374 -0.010235  -0.011687 0.131784 0.012155
31  0.018520 -0.186856 -0.018449  0.005255 0.000525 0.000069
32  -0.032222 -0.200100 -0.061496  -0.000028 0.041159 -0.000014
33  0.009310 -0.057389 -0.045571  -0.000040 0.015141 -0.000020
34  0.068956 -0.193197 -0.059302  -0.000040 0.041095 -0.000005
35  0.008683 -0.056713 -0.045241  -0.000018 0.014885 -0.000005
36  0.102133 -0.077572 -0.031829  0.000019 0.207011 0.000011
37  0.034314 -0.028672 -0.001806  -0.000000 0.000000 0.000000
38  0.001143 0.000000 -0.181958  0.091406 0.016385 0.005406
39  0.004961 -0.000269 -0.096018  -0.166874 -0.286564 0.033217
40  -0.011623 0.003704 -0.088948  -0.003874 -0.040848 0.000189
41  -0.007644 0.000000 -0.210641  0.072223 -0.068380 0.001611
time 20
0  0 0 0  0 0 0
1  0.000000 0.000010 0.000000  -1.570796 -0.000000 0.000000
2  0.000000 0.000000 0.000000  0.000000 -0.000000 0.000000
3  0.000000 0.000000 0.000000  0.000000 -0.000000 0.000000
4  0.006445 -0.000000 0.753335  0.000000 -0.000000 0.000000
5  0.152392 0.037764 -0.027182  -0.036903 0.397470 0.000135
6  -0.000000 0.000000 -0.000000  -0.000000 -0.000000 -0.000000
7  -0.000000 0.000000 -0.000000  -0.047869 -0.245188 -0.000130
8  0.002937 0.000000 0.194891  0.057588 0.055810 -0.102828
9  0.003500 0.000000 0.083408  0.065829 0.032144 -0.100332
10  -0.012239 0.000000 0.122389  0.037168 0.066494 -0.096982
11  0.000267 0.000000 0.055138  -0.051457 -0.071559 0.104480
12  0.003234 -0.000000 0.052281  -0.040516 -0.110765 0.108856
13  -0.001319 -0.000000 0.060214  -0.023127 -0.165967 0.111954
14  -0.039876 0.060989 0.002159  -0.117611 -0.424696 -0.068993
15  0.043265 0.077505 0.036874  -0.000000 0.000000 0.000000
16  -0.000000 0.000000 0.000000  -0.215593 0.786840 0.650680
17  0.020259 0.201078 -0.017731  0.113776 -0.092845 -1.793259
18  0.010537 0.100376 -0.010148  -0.038629 -0.321975 0.037892
19  0.018645 0.186860 -0.018292  0.129090 -0.013451 0.000824
20  -0.032087 0.200172 -0.061335  0.000003 0.039860 0.000014
21  0.009278 0.058322 -0.044375  0.000019 0.032714 0.000018
22  0.069086 0.193199 -0.059144  0.000012 0.034229 0.000010
23  0.008560 0.057628 -0.044090  -0.000003 0.030781 0.000017
24  0.102185 0.077529 -0.031768  -0.000045 0.159819 -0.000008
25  0.038420 0.022931 -0.000959  0.000000 0.000000 -0.000000
26  -0.039647 -0.056266 0.002069  0.113076 -0.412134 0.065794
27  0.042761 -0.082398 0.038132  0.000000 -0.000000 0.000000
28  0.000000 -0.000000 0.000000  0.582679 0.679672 -0.808552
29  0.020122 -0.201078 -0.017893  -0.055390 -0.085350 1.171085
30  0.010469 -0.100374 -0.010235  -0.011304 0.127251 0.011760
31  0.018520 -0.186856 -0.018449  0.013139 0.001312 0.000178
32  -0.032222 -0.200101 -0.061496  -0.000028 0.041159 -0.000014
33  0.009310 -0.057389 -0.045571  -0.000040 0.015141 -0.000020
34  0.068956 -0.193197 -0.059302  -0.000040 0.041095 -0.000005
35  0.008683 -0.056712 -0.045241  -0.000018 0.014885 -0.000005
36  0.102133 -0.077572 -0.031829  0.000019 0.207011 0.000011
37  0.034314 -0.028672 -0.001806  0.000000 0.000000 -0.000000
38  0.001143 0.000000 -0.181958  0.082506 0.007114 0.004509
39  0.004961 -0.000269 -0.096018  -0.151054 -0.247523 0.027682
40  -0.011623 0.003704 -0.088948  -0.000061 -0.040043 0.000001
41  -0.007644 0.000000 -0.210641  0.063816 -0.075180 0.001480
time 21
0  0 0 0  0 0 0
1  0.000000 0.000010 0.000000  -1.570796 -0.000000 0.000000
2  0.000000 0.000000 0.000000  0.000000 -0.000000 0.000000
3  0.000000 0.000000 0.000000  0.000000 -0.000000 0.000000
4  0.006445 -0.000000 0.753335  0.000000 -0.000000 0.000000
5  0.148889 0.032546 -0.025541  -0.031799 0.375216 0.000077
6  -0.000000 -0.000000 0.000000  -0.000000 0.000000 0.000000
7  -0.000000 -0.000000 0.000000  -0.041250 -0.230422 -0.000069
8  0.002937 -0.000000 0.194891  0.049538 0.035753 -0.088519
9  0.003500 0.000000 0.083408  0.056621 0.015370 -0.086397
10  -0.012239 0.000000 0.122389  0.031944 0.044944 -0.083521
11  0.000267 0.000000 0.055137  -0.044373 -0.061611 0.090031
12  0.003234 0.000000 0.052281  -0.034962 -0.095393 0.093812
13  -0.001319 0.000000 0.060214  -0.020040 -0.142961 0.096499
14  -0.039876 0.060989 0.002159  -0.117786 -0.379215 -0.036773
15  0.043265 0.077505 0.036874  -0.000000 -0.000000 -0.000000
16  0.000000 -0.000000 0.000000  -0.324138 0.747652 0.419687
17  0.020260 0.201078 -0.017731  0.107988 -0.093669 -1.733049
18  0.010537 0.100376 -0.010148  -0.040770 -0.336524 0.040004
19  0.018646 0.186860 -0.018293  0.137010 -0.014288 0.000818
20  -0.032088 0.200172 -0.061335  0.000003 0.039860 0.000014
21  0.009278 0.058322 -0.044375  0.000019 0.032714 0.000018
22  0.069086 0.193200 -0.059144  0.000012 0.034229 0.000010
23  0.008560 0.057627 -0.044090  -0.000003 0.030781 0.000017
24  0.102185 0.077529 -0.031768  -0.000045 0.159819 -0.000008
25  0.038420 0.022931 -0.000959  -0.000000 -0.000000 0.000000
26  -0.039647 -0.056266 0.002069  0.111784 -0.361710 0.030360
27  0.042761 -0.082398 0.038132  0.000000 -0.000000 0.000000
28  0.000000 -0.000000 -0.000000  0.501178 0.686417 -0.889089
29  0.020122 -0.201078 -0.017893  -0.059927 -0.087391 1.221885
30  0.010469 -0.100374 -0.010236  -0.010919 0.122719 0.011364
31  0.018520 -0.186856 -0.018449  0.021022 0.002099 0.000293
32  -0.032222 -0.200100 -0.061496  -0.000028 0.041159 -0.000014
33  0.009310 -0.057389 -0.045571  -0.000040 0.015141 -0.000020
34  0.068956 -0.193197 -0.059302  -0.000040 0.041095 -0.000005
35  0.008683 -0.056712 -0.045241  -0.000018 0.014885 -0.000005
36  0.102133 -0.077572 -0.031829  0.000019 0.207011 0.000011
37  0.034314 -0.028672 -0.001806  0.000000 0.000000 0.000000
38  0.001143 0.000000 -0.181958  0.073614 -0.002164 0.003695
39  0.004961 -0.000269 -0.096018  -0.135597 -0.208403 0.022829
40  -0.011623 0.003704 -0.088948  0.003752 -0.039237 -0.000184
41  -0.007644 0.000000 -0.210641  0.055406 -0.081981 0.001406
end
