# Blender v2.78 (sub 0) OBJ File: ''
# www.blender.org
mtllib Gold Coin.mtl
g Gold_Coin
v 0.185292 1.171730 0.050069
v 0.352447 1.086560 0.050069
v -0.599618 0.601459 0.050069
v -0.485101 0.953906 0.050069
v -0.185292 0.031188 0.050069
v -0.185292 1.171730 0.050069
v 0.352447 0.116358 0.050069
v 0.485101 0.249012 0.050069
v 0.599618 0.601459 -0.050069
v 0.352447 1.086560 -0.050069
v 0.185292 0.031188 -0.050069
v 0.000000 0.001841 -0.050069
v -0.185292 0.031188 -0.050069
v -0.352447 1.086560 -0.050069
v 0.485101 0.249012 -0.050069
v 0.352447 0.116358 -0.050069
v -0.185292 1.171730 -0.050069
v -0.485101 0.953906 -0.050069
v -0.352447 1.086560 0.050069
v 0.185292 0.031188 0.050069
v 0.570271 0.416167 -0.050069
v 0.570271 0.416167 0.050069
v 0.000000 0.001841 0.050069
v -0.570271 0.786751 -0.050069
v -0.570271 0.786751 0.050069
v 0.570271 0.786751 0.050069
v 0.599618 0.601459 0.050069
v -0.352447 0.116358 -0.050069
v -0.352447 0.116358 0.050069
v 0.485101 0.953906 -0.050069
v 0.570271 0.786751 -0.050069
v 0.000000 1.201077 -0.050069
v 0.000000 1.201077 0.050069
v 0.185292 1.171730 -0.050069
v -0.599618 0.601459 -0.050069
v 0.485101 0.953906 0.050069
v -0.485101 0.249012 -0.050069
v -0.485101 0.249012 0.050069
v -0.570271 0.416167 -0.050069
v -0.570271 0.416167 0.050069
vt 0.2493 0.8912
vt 0.2493 0.9971
vt 0.0177 0.8912
vt 0.0177 0.9971
vt 0.0560 0.5000
vt 0.0782 0.3601
vt 0.0782 0.6399
vt 0.1425 0.2339
vt 0.1425 0.7661
vt 0.2426 0.1337
vt 0.2426 0.8663
vt 0.3689 0.0694
vt 0.3689 0.9306
vt 0.5088 0.0472
vt 0.5088 0.9528
vt 0.6487 0.0694
vt 0.6487 0.9306
vt 0.7749 0.1337
vt 0.7749 0.8663
vt 0.8751 0.2339
vt 0.8751 0.7661
vt 0.9394 0.3601
vt 0.9394 0.6399
vt 0.9615 0.5000
vt 0.0560 0.5000
vt 0.0782 0.3601
vt 0.0782 0.6399
vt 0.1425 0.2339
vt 0.1425 0.7661
vt 0.2426 0.1337
vt 0.2426 0.8663
vt 0.3689 0.0694
vt 0.3689 0.9306
vt 0.5088 0.0472
vt 0.5088 0.9528
vt 0.6487 0.0694
vt 0.6487 0.9306
vt 0.7749 0.1337
vt 0.7749 0.8663
vt 0.8751 0.2339
vt 0.8751 0.7661
vt 0.9394 0.3601
vt 0.9394 0.6399
vt 0.9615 0.5000
vt 0.2493 0.8912
vt 0.2493 0.9971
vt 0.0177 0.8912
vt 0.0177 0.9971
vt 0.2493 0.8912
vt 0.2493 0.9971
vt 0.0177 0.8912
vt 0.0177 0.9971
vt 0.2493 0.8912
vt 0.2493 0.9971
vt 0.0177 0.8912
vt 0.0177 0.9971
vt 0.2493 0.8912
vt 0.2493 0.9971
vt 0.0177 0.8912
vt 0.0177 0.9971
vt 0.2493 0.8912
vt 0.2493 0.9971
vt 0.0177 0.8912
vt 0.0177 0.9971
vt 0.2493 0.8912
vt 0.2493 0.9971
vt 0.0177 0.8912
vt 0.0177 0.9971
vt 0.2493 0.8912
vt 0.2493 0.9971
vt 0.0177 0.8912
vt 0.0177 0.9971
vt 0.2493 0.8912
vt 0.2493 0.9971
vt 0.0177 0.8912
vt 0.0177 0.9971
vt 0.2493 0.8912
vt 0.2493 0.9971
vt 0.0177 0.8912
vt 0.0177 0.9971
vt 0.2493 0.8912
vt 0.2493 0.9971
vt 0.0177 0.8912
vt 0.0177 0.9971
vt 0.2493 0.8912
vt 0.2493 0.9971
vt 0.0177 0.8912
vt 0.0177 0.9971
vt 0.2493 0.8912
vt 0.2493 0.9971
vt 0.0177 0.8912
vt 0.0177 0.9971
vt 0.2493 0.8912
vt 0.2493 0.9971
vt 0.0177 0.8912
vt 0.0177 0.9971
vt 0.2493 0.8912
vt 0.2493 0.9971
vt 0.0177 0.8912
vt 0.0177 0.9971
vt 0.2493 0.8912
vt 0.2493 0.9971
vt 0.0177 0.8912
vt 0.0177 0.9971
vt 0.2493 0.8912
vt 0.2493 0.9971
vt 0.0177 0.8912
vt 0.0177 0.9971
vt 0.2493 0.8912
vt 0.2493 0.9971
vt 0.0177 0.8912
vt 0.0177 0.9971
vt 0.2493 0.8912
vt 0.2493 0.9971
vt 0.0177 0.8912
vt 0.0177 0.9971
vt 0.2493 0.8912
vt 0.2493 0.9971
vt 0.0177 0.8912
vt 0.0177 0.9971
vn 0.4540 0.8910 0.0000
vn 0.0000 -0.0000 1.0000
vn 0.0000 0.0000 -1.0000
vn -0.9877 -0.1564 0.0000
vn 0.7071 -0.7071 0.0000
vn -0.4540 0.8910 0.0000
vn 0.4540 -0.8910 0.0000
vn -0.7071 0.7071 0.0000
vn 0.8910 -0.4540 0.0000
vn 0.1564 -0.9877 0.0000
vn 0.9877 -0.1564 0.0000
vn -0.1564 0.9877 0.0000
vn -0.1564 -0.9877 0.0000
vn -0.8910 0.4540 0.0000
vn 0.9877 0.1564 0.0000
vn -0.4540 -0.8910 0.0000
vn 0.8910 0.4540 0.0000
vn 0.1564 0.9877 0.0000
vn -0.7071 -0.7071 0.0000
vn -0.9877 0.1564 0.0000
vn 0.7071 0.7071 0.0000
vn -0.8910 -0.4540 0.0000
usemtl Material.001
s off
f 34/1/1 1/2/1 10/3/1
f 10/3/1 1/2/1 2/4/1
f 3/5/2 40/6/2 25/7/2
f 40/6/2 38/8/2 25/7/2
f 25/7/2 38/8/2 4/9/2
f 38/8/2 29/10/2 4/9/2
f 4/9/2 29/10/2 19/11/2
f 29/10/2 5/12/2 19/11/2
f 19/11/2 5/12/2 6/13/2
f 5/12/2 23/14/2 6/13/2
f 6/13/2 23/14/2 33/15/2
f 23/14/2 20/16/2 33/15/2
f 33/15/2 20/16/2 1/17/2
f 20/16/2 7/18/2 1/17/2
f 1/17/2 7/18/2 2/19/2
f 7/18/2 8/20/2 2/19/2
f 2/19/2 8/20/2 36/21/2
f 8/20/2 22/22/2 36/21/2
f 36/21/2 22/22/2 26/23/2
f 22/22/2 27/24/2 26/23/2
f 9/25/3 21/26/3 31/27/3
f 21/26/3 15/28/3 31/27/3
f 31/27/3 15/28/3 30/29/3
f 15/28/3 16/30/3 30/29/3
f 30/29/3 16/30/3 10/31/3
f 16/30/3 11/32/3 10/31/3
f 10/31/3 11/32/3 34/33/3
f 11/32/3 12/34/3 34/33/3
f 34/33/3 12/34/3 32/35/3
f 12/34/3 13/36/3 32/35/3
f 32/35/3 13/36/3 17/37/3
f 13/36/3 28/38/3 17/37/3
f 17/37/3 28/38/3 14/39/3
f 28/38/3 37/40/3 14/39/3
f 14/39/3 37/40/3 18/41/3
f 37/40/3 39/42/3 18/41/3
f 18/41/3 39/42/3 24/43/3
f 24/43/3 39/42/3 35/44/3
f 39/45/4 40/46/4 35/47/4
f 35/47/4 40/46/4 3/48/4
f 15/49/5 8/50/5 16/51/5
f 16/51/5 8/50/5 7/52/5
f 14/53/6 19/54/6 17/55/6
f 17/55/6 19/54/6 6/56/6
f 16/57/7 7/58/7 11/59/7
f 11/59/7 7/58/7 20/60/7
f 18/61/8 4/62/8 14/63/8
f 14/63/8 4/62/8 19/64/8
f 21/65/9 22/66/9 15/67/9
f 15/67/9 22/66/9 8/68/9
f 11/69/10 20/70/10 12/71/10
f 12/71/10 20/70/10 23/72/10
f 9/73/11 27/74/11 21/75/11
f 21/75/11 27/74/11 22/76/11
f 17/77/12 6/78/12 32/79/12
f 32/79/12 6/78/12 33/80/12
f 12/81/13 23/82/13 13/83/13
f 13/83/13 23/82/13 5/84/13
f 24/85/14 25/86/14 18/87/14
f 18/87/14 25/86/14 4/88/14
f 31/89/15 26/90/15 9/91/15
f 9/91/15 26/90/15 27/92/15
f 13/93/16 5/94/16 28/95/16
f 28/95/16 5/94/16 29/96/16
f 30/97/17 36/98/17 31/99/17
f 31/99/17 36/98/17 26/100/17
f 32/101/18 33/102/18 34/103/18
f 34/103/18 33/102/18 1/104/18
f 28/105/19 29/106/19 37/107/19
f 37/107/19 29/106/19 38/108/19
f 35/109/20 3/110/20 24/111/20
f 24/111/20 3/110/20 25/112/20
f 10/113/21 2/114/21 30/115/21
f 30/115/21 2/114/21 36/116/21
f 37/117/22 38/118/22 39/119/22
f 39/119/22 38/118/22 40/120/22
