# Blender 3.6.23
# www.blender.org
mtllib Piramide.mtl
o SouvenirSand1__BodyMT
v 0.082726 -0.438936 -0.587747
v 0.082726 -0.476590 -0.594475
v 0.082726 -0.484948 -0.622604
v 0.722607 -0.505045 0.010776
v 0.361306 -0.518394 -0.614867
v 0.763201 -0.504596 0.010766
v 0.361306 -0.518394 -0.614867
v 0.381601 -0.518696 -0.650034
v 0.763201 -0.504596 0.010766
v 0.361303 -0.491696 0.636432
v 0.722607 -0.505045 0.010776
v 0.381601 -0.490497 0.671566
v 0.722607 -0.505045 0.010776
v 0.763201 -0.504596 0.010766
v 0.381601 -0.490497 0.671566
v 0.905794 -0.664356 0.014175
v 0.452902 -0.647623 0.798438
v 0.954207 -0.718596 0.015332
v 0.477107 -0.700969 0.841514
v 0.452897 -0.681090 -0.770088
v 0.905794 -0.664356 0.014175
v 0.477104 -0.736224 -0.810849
v 0.954207 -0.718596 0.015332
v 0.476641 -0.864335 0.844196
v 0.450256 -0.863360 0.889880
v 0.476641 -0.849260 0.843875
v 0.450256 -0.848285 0.889558
v 0.450256 -0.863360 0.889880
v 0.476641 -0.862385 0.935573
v 0.450256 -0.848285 0.889558
v 0.476641 -0.847310 0.935251
v 0.476641 -0.862385 0.935573
v 0.529408 -0.862385 0.935573
v 0.476641 -0.847310 0.935251
v 0.529408 -0.847310 0.935251
v 0.529408 -0.862385 0.935573
v 0.555793 -0.863360 0.889880
v 0.529408 -0.847310 0.935251
v 0.555793 -0.848285 0.889558
v 0.555793 -0.863360 0.889880
v 0.529408 -0.864335 0.844196
v 0.555793 -0.848285 0.889558
v 0.529408 -0.849260 0.843875
v 0.529408 -0.864335 0.844196
v 0.476641 -0.864335 0.844196
v 0.529408 -0.849260 0.843875
v 0.476641 -0.849260 0.843875
v 0.000000 -0.623000 0.817024
v 0.000000 -0.655422 0.777309
v 0.117620 -0.585616 0.786515
v 0.117620 -0.618038 0.746796
v 0.117620 -0.468798 0.691163
v 0.117620 -0.501220 0.651443
v -0.117620 -0.468798 0.691163
v -0.117620 -0.501220 0.651443
v -0.117620 -0.468798 0.691163
v -0.117620 -0.501220 0.651443
v -0.117620 -0.585616 0.786515
v -0.117620 -0.618038 0.746796
v -0.117620 -0.618038 0.746796
v 0.000000 -0.655422 0.777309
v -0.117620 -0.585616 0.786515
v 0.000000 -0.623000 0.817024
v 0.117620 -0.585616 0.786515
v 0.117620 -0.618038 0.746796
v 0.117620 -0.468798 0.691163
v 0.117620 -0.501220 0.651443
v -0.476641 -0.864335 0.844196
v -0.529408 -0.864335 0.844196
v -0.476641 -0.849260 0.843875
v -0.529408 -0.849260 0.843875
v -0.529408 -0.864335 0.844196
v -0.555793 -0.863360 0.889880
v -0.529408 -0.849260 0.843875
v -0.555793 -0.848285 0.889558
v -0.555793 -0.863360 0.889880
v -0.529408 -0.862385 0.935573
v -0.555793 -0.848285 0.889558
v -0.529408 -0.847310 0.935251
v -0.529408 -0.862385 0.935573
v -0.476641 -0.862385 0.935573
v -0.529408 -0.847310 0.935251
v -0.476641 -0.847310 0.935251
v -0.476641 -0.862385 0.935573
v -0.450256 -0.863360 0.889880
v -0.476641 -0.847310 0.935251
v -0.450256 -0.848285 0.889558
v -0.450256 -0.863360 0.889880
v -0.476641 -0.864335 0.844196
v -0.450256 -0.848285 0.889558
v -0.476641 -0.849260 0.843875
v -0.695896 -0.631571 0.415341
v -0.660909 -0.663562 0.395820
v -0.611356 -0.591697 0.501517
v -0.576370 -0.623688 0.481999
v -0.530960 -0.473888 0.452576
v -0.495968 -0.505879 0.433053
v -0.648577 -0.478234 0.248899
v -0.613590 -0.510225 0.229376
v -0.648577 -0.478234 0.248899
v -0.613590 -0.510225 0.229376
v -0.728979 -0.596043 0.297843
v -0.693987 -0.628034 0.278320
v -0.693987 -0.628034 0.278320
v -0.660909 -0.663562 0.395820
v -0.728979 -0.596043 0.297843
v -0.695896 -0.631571 0.415341
v -0.611356 -0.591697 0.501517
v -0.576370 -0.623688 0.481999
v -0.530960 -0.473888 0.452576
v -0.495968 -0.505879 0.433053
v -0.953283 -0.881945 0.018817
v -0.979659 -0.882920 -0.026870
v -0.953283 -0.866870 0.018496
v -0.979659 -0.867845 -0.027192
v -0.979659 -0.882920 -0.026870
v -1.032430 -0.882920 -0.026870
v -0.979659 -0.867845 -0.027192
v -1.032430 -0.867845 -0.027192
v -1.032430 -0.882920 -0.026870
v -1.058816 -0.881945 0.018817
v -1.032430 -0.867845 -0.027192
v -1.058816 -0.866870 0.018496
v -1.058816 -0.881945 0.018817
v -1.032430 -0.880971 0.064505
v -1.058816 -0.866870 0.018496
v -1.032430 -0.865895 0.064184
v -1.032430 -0.880971 0.064505
v -0.979659 -0.880971 0.064505
v -1.032430 -0.865895 0.064184
v -0.979659 -0.865895 0.064184
v -0.979659 -0.880971 0.064505
v -0.953283 -0.881945 0.018817
v -0.979659 -0.865895 0.064184
v -0.953283 -0.866870 0.018496
v -0.695896 -0.648712 -0.388024
v -0.660909 -0.679841 -0.367157
v -0.728979 -0.608204 -0.272148
v -0.693987 -0.639334 -0.251279
v -0.648577 -0.488415 -0.228274
v -0.613590 -0.519544 -0.207404
v -0.530960 -0.492761 -0.431951
v -0.495968 -0.523890 -0.411081
v -0.530960 -0.492761 -0.431951
v -0.495968 -0.523890 -0.411081
v -0.611356 -0.612550 -0.475823
v -0.576370 -0.643679 -0.454957
v -0.576370 -0.643679 -0.454957
v -0.660909 -0.679841 -0.367157
v -0.611356 -0.612550 -0.475823
v -0.695896 -0.648712 -0.388024
v -0.728979 -0.608204 -0.272148
v -0.693987 -0.639334 -0.251279
v -0.648577 -0.488415 -0.228274
v -0.613590 -0.519544 -0.207404
v -0.476641 -0.899556 -0.806561
v -0.450256 -0.900531 -0.852245
v -0.476641 -0.884481 -0.806883
v -0.450256 -0.885456 -0.852566
v -0.450256 -0.900531 -0.852245
v -0.476641 -0.901506 -0.897937
v -0.450256 -0.885456 -0.852566
v -0.476641 -0.886431 -0.898259
v -0.476641 -0.901506 -0.897937
v -0.529408 -0.901506 -0.897937
v -0.476641 -0.886431 -0.898259
v -0.529408 -0.886431 -0.898259
v -0.529408 -0.901506 -0.897937
v -0.555793 -0.900531 -0.852245
v -0.529408 -0.886431 -0.898259
v -0.555793 -0.885456 -0.852566
v -0.555793 -0.900531 -0.852245
v -0.529408 -0.899556 -0.806561
v -0.555793 -0.885456 -0.852566
v -0.529408 -0.884481 -0.806883
v -0.529408 -0.899556 -0.806561
v -0.476641 -0.899556 -0.806561
v -0.529408 -0.884481 -0.806883
v -0.476641 -0.884481 -0.806883
v 0.000000 -0.657282 -0.789707
v 0.000000 -0.687981 -0.748645
v -0.117620 -0.618631 -0.760821
v -0.117620 -0.649329 -0.719754
v -0.117620 -0.497852 -0.670538
v -0.117620 -0.528550 -0.629471
v 0.117620 -0.497852 -0.670538
v 0.117620 -0.528550 -0.629471
v 0.117620 -0.497852 -0.670538
v 0.117620 -0.528550 -0.629471
v 0.117620 -0.618631 -0.760821
v 0.117620 -0.649329 -0.719754
v 0.117620 -0.649329 -0.719754
v 0.000000 -0.687981 -0.748645
v 0.117620 -0.618631 -0.760821
v 0.000000 -0.657282 -0.789707
v -0.117620 -0.618631 -0.760821
v -0.117620 -0.649329 -0.719754
v -0.117620 -0.497852 -0.670538
v -0.117620 -0.528550 -0.629471
v 0.361303 -0.491696 0.636432
v 0.381601 -0.490497 0.671566
v 0.361333 -0.649995 0.639810
v 0.452902 -0.647623 0.798438
v 0.361333 -0.649995 0.639810
v 0.722245 -0.663331 0.014777
v 0.361303 -0.491696 0.636432
v 0.722607 -0.505045 0.010776
v 0.722245 -0.663331 0.014777
v 0.905794 -0.664356 0.014175
v 0.361278 -0.676693 -0.611480
v 0.452897 -0.681090 -0.770088
v 0.722245 -0.663331 0.014777
v 0.361278 -0.676693 -0.611480
v 0.722607 -0.505045 0.010776
v 0.361306 -0.518394 -0.614867
v 0.905794 -0.664356 0.014175
v 0.722245 -0.663331 0.014777
v 0.452902 -0.647623 0.798438
v 0.361333 -0.649995 0.639810
v 0.361306 -0.518394 -0.614867
v 0.361278 -0.676693 -0.611480
v 0.381601 -0.518696 -0.650034
v 0.452897 -0.681090 -0.770088
v 0.953283 -0.881945 0.018818
v 0.979659 -0.880971 0.064505
v 0.953283 -0.866870 0.018496
v 0.979659 -0.865895 0.064184
v 0.979659 -0.880971 0.064505
v 1.032430 -0.880971 0.064505
v 0.979659 -0.865895 0.064184
v 1.032430 -0.865895 0.064184
v 1.032430 -0.880971 0.064505
v 1.058816 -0.881945 0.018818
v 1.032430 -0.865895 0.064184
v 1.058816 -0.866870 0.018496
v 1.058816 -0.881945 0.018818
v 1.032430 -0.882920 -0.026870
v 1.058816 -0.866870 0.018496
v 1.032430 -0.867845 -0.027192
v 1.032430 -0.882920 -0.026870
v 0.979659 -0.882920 -0.026870
v 1.032430 -0.867845 -0.027192
v 0.979659 -0.867845 -0.027192
v 0.979659 -0.882920 -0.026870
v 0.953283 -0.881945 0.018818
v 0.979659 -0.867845 -0.027192
v 0.953283 -0.866870 0.018496
v 0.476641 -0.899556 -0.806561
v 0.529408 -0.899556 -0.806561
v 0.476641 -0.884481 -0.806883
v 0.529408 -0.884481 -0.806883
v 0.529408 -0.899556 -0.806561
v 0.555793 -0.900531 -0.852245
v 0.529408 -0.884481 -0.806883
v 0.555793 -0.885456 -0.852566
v 0.555793 -0.900531 -0.852245
v 0.529408 -0.901506 -0.897937
v 0.555793 -0.885456 -0.852566
v 0.529408 -0.886431 -0.898259
v 0.529408 -0.901506 -0.897937
v 0.476641 -0.901506 -0.897937
v 0.529408 -0.886431 -0.898259
v 0.476641 -0.886431 -0.898259
v 0.476641 -0.901506 -0.897937
v 0.450256 -0.900531 -0.852245
v 0.476641 -0.886431 -0.898259
v 0.450256 -0.885456 -0.852566
v 0.450256 -0.900531 -0.852245
v 0.476641 -0.899556 -0.806561
v 0.450256 -0.885456 -0.852566
v 0.476641 -0.884481 -0.806883
v -0.468107 -0.778707 -0.794417
v 0.468925 -0.778684 -0.795718
v -0.495400 -0.779688 -0.841622
v 0.496199 -0.779718 -0.843004
v -0.542230 -0.884561 -0.920515
v 0.542230 -0.884561 -0.920515
v 0.468928 -0.744035 0.828208
v -0.468107 -0.744113 0.826909
v 0.496201 -0.743051 0.875495
v -0.495400 -0.743081 0.874113
v 0.542230 -0.844493 0.957407
v -0.542230 -0.844493 0.957407
v 0.493748 -0.862772 0.917422
v 0.492599 -0.880506 0.908588
v 0.512864 -0.875747 0.907195
v 0.531523 -0.863237 0.895628
v 0.524111 -0.880895 0.890391
v 0.117620 -0.585616 0.786515
v 0.117620 -0.468798 0.691163
v 0.000000 -0.623000 0.817024
v -0.117620 -0.468798 0.691163
v -0.117620 -0.585616 0.786515
v -0.531523 -0.863237 0.895628
v -0.524111 -0.880895 0.890391
v -0.512864 -0.875747 0.907195
v -0.493748 -0.862772 0.917422
v -0.492599 -0.880506 0.908588
v -0.611356 -0.591697 0.501517
v -0.530960 -0.473888 0.452576
v -0.695896 -0.631571 0.415341
v -0.648577 -0.478234 0.248899
v -0.728979 -0.596043 0.297843
v -1.025271 -0.882411 -0.002985
v -1.016710 -0.899871 0.001000
v -1.025728 -0.894696 0.019090
v -1.025271 -0.881480 0.040620
v -1.016710 -0.899095 0.037383
v -0.728979 -0.608204 -0.272148
v -0.648577 -0.488415 -0.228274
v -0.695896 -0.648712 -0.388024
v -0.530960 -0.492761 -0.431951
v -0.611356 -0.612550 -0.475823
v -0.493748 -0.901119 -0.879787
v -0.492599 -0.918460 -0.870204
v -0.512864 -0.913645 -0.869016
v -0.531523 -0.900653 -0.857993
v -0.524111 -0.918071 -0.852008
v -0.093385 0.009847 -0.245380
v 0.093385 0.009847 -0.245380
v -0.093385 0.009354 -0.268492
v 0.093385 0.009354 -0.268492
v -0.000000 0.007581 -0.351602
v 0.093385 -0.067221 -0.243735
v -0.093385 -0.067221 -0.243735
v 0.093385 -0.067715 -0.266847
v -0.093385 -0.067715 -0.266847
v -0.000000 -0.069068 -0.330265
v 0.093385 0.009847 -0.245380
v 0.093385 -0.067221 -0.243735
v 0.093385 0.009354 -0.268492
v 0.093385 -0.067715 -0.266847
v -0.000000 0.007581 -0.351602
v -0.000000 -0.069068 -0.330265
v -0.117620 -0.618631 -0.760821
v -0.117620 -0.497852 -0.670538
v 0.000000 -0.657282 -0.789707
v 0.117620 -0.497852 -0.670538
v 0.117620 -0.618631 -0.760821
v 0.531523 -0.900653 -0.857993
v 0.524111 -0.918071 -0.852008
v 0.512864 -0.913645 -0.869016
v 0.493748 -0.901119 -0.879787
v 0.492599 -0.918460 -0.870204
v 0.142795 0.008662 -0.247570
v -0.142795 0.008662 -0.247570
v 0.000000 0.316597 -0.006755
v -0.142811 -0.024409 -0.246892
v 0.142811 -0.024409 -0.246892
v -0.158398 -0.024985 -0.273883
v 0.158398 -0.024985 -0.273883
v -0.082726 -0.438915 -0.586772
v -0.343218 -0.438882 -0.585244
v 0.082726 -0.438936 -0.587747
v 0.345557 -0.438969 -0.589291
v -0.082726 -0.476535 -0.591899
v -0.347037 -0.476518 -0.591106
v 0.082726 -0.476590 -0.594475
v 0.349502 -0.476607 -0.595276
v 0.082726 -0.484948 -0.622604
v 0.366360 -0.484985 -0.624350
v 0.381601 -0.518696 -0.650034
v 0.452897 -0.681090 -0.770088
v -0.082726 -0.484926 -0.621581
v 0.477104 -0.736224 -0.810849
v -0.363762 -0.484890 -0.619854
v -0.475973 -0.736183 -0.808894
v 0.142795 0.019214 0.246975
v 0.285590 0.013938 -0.000297
v 0.000000 0.316597 -0.006755
v 0.285622 -0.019133 0.000408
v 0.142811 -0.013856 0.247708
v 0.316795 -0.019133 0.000408
v 0.158398 -0.013280 0.274699
v 0.691113 -0.426201 0.009094
v 0.345557 -0.413434 0.607478
v 0.698977 -0.463695 0.009894
v 0.349502 -0.450782 0.615063
v 0.732721 -0.471449 0.010059
v 0.366360 -0.457913 0.644469
v 0.381601 -0.490497 0.671566
v 0.763201 -0.504596 0.010766
v 0.285590 0.013938 -0.000297
v 0.142795 0.008662 -0.247570
v 0.000000 0.316597 -0.006755
v 0.142811 -0.024409 -0.246892
v 0.285622 -0.019133 0.000408
v 0.158398 -0.024985 -0.273883
v 0.316795 -0.019133 0.000408
v 0.345557 -0.438969 -0.589291
v 0.691113 -0.426201 0.009094
v 0.349502 -0.476607 -0.595276
v 0.698977 -0.463695 0.009894
v 0.366360 -0.484985 -0.624350
v 0.732721 -0.471449 0.010059
v 0.763201 -0.504596 0.010766
v 0.381601 -0.518696 -0.650034
v -0.142795 0.008662 -0.247570
v -0.285590 0.013938 -0.000297
v 0.000000 0.316597 -0.006755
v -0.285622 -0.019133 0.000408
v -0.142811 -0.024409 -0.246892
v -0.316795 -0.019133 0.000408
v -0.158398 -0.024985 -0.273883
v -0.686435 -0.426201 0.009094
v -0.343218 -0.438882 -0.585244
v -0.694102 -0.463695 0.009894
v -0.347037 -0.476518 -0.591106
v -0.727523 -0.471449 0.010059
v -0.363762 -0.484890 -0.619854
v -0.951946 -0.718596 0.015332
v -0.475973 -0.736183 -0.808894
v -0.285590 0.013938 -0.000297
v -0.142795 0.019214 0.246975
v 0.000000 0.316597 -0.006755
v -0.142811 -0.013856 0.247708
v -0.285622 -0.019133 0.000408
v -0.158398 -0.013280 0.274699
v -0.316795 -0.019133 0.000408
v -0.343218 -0.413520 0.603432
v -0.686435 -0.426201 0.009094
v -0.347037 -0.450871 0.610894
v -0.694102 -0.463695 0.009894
v -0.363762 -0.458009 0.639972
v -0.727523 -0.471449 0.010059
v -0.475973 -0.701010 0.839559
v -0.951946 -0.718596 0.015332
v -0.142795 0.019214 0.246975
v 0.142795 0.019214 0.246975
v 0.000000 0.316597 -0.006755
v 0.142811 -0.013856 0.247708
v -0.142811 -0.013856 0.247708
v 0.158398 -0.013280 0.274699
v -0.158398 -0.013280 0.274699
v -0.082726 -0.413487 0.604959
v -0.343218 -0.413520 0.603432
v 0.082726 -0.413467 0.605934
v 0.345557 -0.413434 0.607478
v -0.082726 -0.450854 0.611686
v -0.347037 -0.450871 0.610894
v -0.082726 -0.457972 0.641700
v -0.363762 -0.458009 0.639972
v 0.082726 -0.450800 0.614262
v 0.349502 -0.450782 0.615063
v -0.475973 -0.701010 0.839559
v 0.477107 -0.700969 0.841514
v 0.452902 -0.647623 0.798438
v 0.381601 -0.490497 0.671566
v 0.082726 -0.457951 0.642722
v 0.366360 -0.457913 0.644469
v 0.477104 -0.736224 -0.810849
v -0.467953 -0.735913 -0.795013
v -0.475973 -0.736183 -0.808894
v 0.469075 -0.735901 -0.796938
v -0.468107 -0.778707 -0.794417
v 0.468925 -0.778684 -0.795718
v 0.477107 -0.700969 0.841514
v 0.938122 -0.718544 0.015331
v 0.954207 -0.718596 0.015332
v 0.469078 -0.701239 0.827602
v 0.937796 -0.761334 0.016244
v 0.468928 -0.744035 0.828208
v 0.954207 -0.718596 0.015332
v 0.469075 -0.735901 -0.796938
v 0.477104 -0.736224 -0.810849
v 0.938122 -0.718544 0.015331
v 0.468925 -0.778684 -0.795718
v 0.937796 -0.761334 0.016244
v -0.475973 -0.736183 -0.808894
v -0.935933 -0.718649 0.015334
v -0.951946 -0.718596 0.015332
v -0.467953 -0.735913 -0.795013
v -0.936269 -0.761435 0.016247
v -0.468107 -0.778707 -0.794417
v -0.951946 -0.718596 0.015332
v -0.467953 -0.701333 0.825679
v -0.475973 -0.701010 0.839559
v -0.935933 -0.718649 0.015334
v -0.468107 -0.744113 0.826909
v -0.936269 -0.761435 0.016247
v -0.475973 -0.701010 0.839559
v 0.469078 -0.701239 0.827602
v 0.477107 -0.700969 0.841514
v -0.467953 -0.701333 0.825679
v 0.468928 -0.744035 0.828208
v -0.468107 -0.744113 0.826909
v 0.477108 -0.905288 -0.815523
v 0.509623 -0.899697 -0.813170
v 0.465875 -0.900236 -0.838423
v 0.484272 -0.905199 -0.811386
v 0.476042 -0.929824 -0.813150
v 0.473496 -0.931434 -0.836677
v 0.483206 -0.929736 -0.809012
v 0.504881 -0.931048 -0.818563
v 0.509623 -0.899697 -0.813170
v 0.484272 -0.905199 -0.811386
v 0.524111 -0.918071 -0.852008
v 0.531523 -0.900653 -0.857993
v 0.516284 -0.937701 -0.847102
v 0.492631 -0.937992 -0.860758
v 0.492599 -0.918460 -0.870204
v 0.465875 -0.900236 -0.838423
v 0.477108 -0.905288 -0.815523
v 0.493748 -0.901119 -0.879787
v 0.937796 -0.761334 0.016244
v 0.468928 -0.744035 0.828208
v 0.992398 -0.761385 0.016245
v 0.496201 -0.743051 0.875495
v 0.542230 -0.844493 0.957407
v 1.084459 -0.864527 0.018446
v 0.468925 -0.778684 -0.795718
v 0.937796 -0.761334 0.016244
v 0.496199 -0.779718 -0.843004
v 0.992398 -0.761385 0.016245
v 1.084459 -0.864527 0.018446
v 0.542230 -0.884561 -0.920515
v -0.936269 -0.761435 0.016247
v -0.468107 -0.778707 -0.794417
v -0.990800 -0.761385 0.016245
v -0.495400 -0.779688 -0.841622
v -0.542230 -0.884561 -0.920515
v -1.084459 -0.864527 0.018446
v -0.468107 -0.744113 0.826909
v -0.936269 -0.761435 0.016247
v -0.495400 -0.743081 0.874113
v -0.990800 -0.761385 0.016245
v -1.084459 -0.864527 0.018446
v -0.542230 -0.844493 0.957407
v 0.484272 -0.869767 0.849257
v 0.465875 -0.863655 0.876059
v 0.509623 -0.864194 0.850805
v 0.477108 -0.869679 0.853395
v 0.483206 -0.894383 0.847933
v 0.504881 -0.895286 0.857531
v 0.476042 -0.894295 0.852070
v 0.473496 -0.894900 0.875645
v 0.465875 -0.863655 0.876059
v 0.477108 -0.869679 0.853395
v 0.492599 -0.880506 0.908588
v 0.493748 -0.862772 0.917422
v 0.492631 -0.900424 0.899984
v 0.516284 -0.900715 0.886327
v 0.524111 -0.880895 0.890391
v 0.509623 -0.864194 0.850805
v 0.484272 -0.869767 0.849257
v 0.531523 -0.863237 0.895628
v -0.477108 -0.869679 0.853395
v -0.509623 -0.864194 0.850805
v -0.465875 -0.863655 0.876059
v -0.484272 -0.869767 0.849257
v -0.476042 -0.894295 0.852070
v -0.473496 -0.894900 0.875645
v -0.483206 -0.894383 0.847933
v -0.504881 -0.895286 0.857531
v -0.509623 -0.864194 0.850805
v -0.484272 -0.869767 0.849257
v -0.524111 -0.880895 0.890391
v -0.531523 -0.863237 0.895628
v -0.516284 -0.900715 0.886327
v -0.492631 -0.900424 0.899984
v -0.492599 -0.880506 0.908588
v -0.465875 -0.863655 0.876059
v -0.477108 -0.869679 0.853395
v -0.493748 -0.862772 0.917422
v -0.961376 -0.887395 0.023071
v -0.975502 -0.882484 -0.006437
v -0.975502 -0.881407 0.044072
v -0.961376 -0.887571 0.014800
v -0.959243 -0.911971 0.023596
v -0.978377 -0.912780 0.037600
v -0.959243 -0.912148 0.015324
v -0.978377 -0.913554 0.001368
v -0.975502 -0.882484 -0.006437
v -0.961376 -0.887571 0.014800
v -1.016710 -0.899871 0.001000
v -1.025271 -0.882411 -0.002985
v -1.008910 -0.919499 0.005958
v -1.008910 -0.918917 0.033267
v -1.016710 -0.899095 0.037383
v -0.975502 -0.881407 0.044072
v -0.961376 -0.887395 0.023071
v -1.025271 -0.881480 0.040620
v -0.484272 -0.905199 -0.811386
v -0.465875 -0.900236 -0.838423
v -0.509623 -0.899697 -0.813170
v -0.477108 -0.905288 -0.815523
v -0.483206 -0.929736 -0.809012
v -0.504881 -0.931048 -0.818563
v -0.476042 -0.929824 -0.813150
v -0.473496 -0.931434 -0.836677
v -0.465875 -0.900236 -0.838423
v -0.477108 -0.905288 -0.815523
v -0.492599 -0.918460 -0.870204
v -0.493748 -0.901119 -0.879787
v -0.492631 -0.937992 -0.860758
v -0.516284 -0.937701 -0.847102
v -0.524111 -0.918071 -0.852008
v -0.509623 -0.899697 -0.813170
v -0.484272 -0.905199 -0.811386
v -0.531523 -0.900653 -0.857993
v -0.093385 -0.067221 -0.243735
v -0.093385 0.009847 -0.245380
v -0.093385 -0.067715 -0.266847
v -0.093385 0.009354 -0.268492
v -0.000000 0.007581 -0.351602
v -0.000000 -0.069068 -0.330265
v 0.450256 -0.863360 0.889880
v 0.503022 -0.863360 0.889880
v 0.476641 -0.862385 0.935573
v 0.476641 -0.864335 0.844196
v 0.529408 -0.862385 0.935573
v 0.529408 -0.864335 0.844196
v 0.555793 -0.863360 0.889880
v -0.529408 -0.864335 0.844196
v -0.503022 -0.863360 0.889880
v -0.555793 -0.863360 0.889880
v -0.476641 -0.864335 0.844196
v -0.529408 -0.862385 0.935573
v -0.450256 -0.863360 0.889880
v -0.476641 -0.862385 0.935573
v -0.979659 -0.882920 -0.026870
v -1.006045 -0.881945 0.018817
v -1.032430 -0.882920 -0.026870
v -0.953283 -0.881945 0.018817
v -1.058816 -0.881945 0.018817
v -0.979659 -0.880971 0.064505
v -1.032430 -0.880971 0.064505
v -0.450256 -0.900531 -0.852245
v -0.503022 -0.900531 -0.852245
v -0.476641 -0.901506 -0.897937
v -0.476641 -0.899556 -0.806561
v -0.529408 -0.901506 -0.897937
v -0.529408 -0.899556 -0.806561
v -0.555793 -0.900531 -0.852245
v 0.979659 -0.880971 0.064505
v 1.006045 -0.881945 0.018818
v 1.032430 -0.880971 0.064505
v 0.953283 -0.881945 0.018818
v 1.058816 -0.881945 0.018818
v 0.979659 -0.882920 -0.026870
v 1.032430 -0.882920 -0.026870
v 0.529408 -0.899556 -0.806561
v 0.503022 -0.900531 -0.852245
v 0.555793 -0.900531 -0.852245
v 0.476641 -0.899556 -0.806561
v 0.529408 -0.901506 -0.897937
v 0.450256 -0.900531 -0.852245
v 0.476641 -0.901506 -0.897937
v 0.487266 -0.917646 0.903556
v 0.492631 -0.900424 0.899984
v 0.521740 -0.918071 0.883657
v 0.486785 -0.898375 0.912321
v 0.516284 -0.900715 0.886327
v 0.492599 -0.880506 0.908588
v 0.529925 -0.898906 0.887424
v 0.517039 -0.880003 0.933476
v 0.524111 -0.880895 0.890391
v 0.512864 -0.875747 0.907195
v 0.533454 -0.880205 0.924003
v -0.521740 -0.918071 0.883657
v -0.516284 -0.900715 0.886327
v -0.487266 -0.917646 0.903556
v -0.529925 -0.898906 0.887424
v -0.492631 -0.900424 0.899984
v -0.524111 -0.880895 0.890391
v -0.486785 -0.898375 0.912321
v -0.533454 -0.880205 0.924003
v -0.492599 -0.880506 0.908588
v -0.512864 -0.875747 0.907195
v -0.517039 -0.880003 0.933476
v -1.009002 -0.936923 0.000082
v -1.008910 -0.919499 0.005958
v -1.009002 -0.936074 0.039881
v -1.016710 -0.917955 -0.005326
v -1.008910 -0.918917 0.033267
v -1.016710 -0.899871 0.001000
v -1.016710 -0.916892 0.044476
v -1.050493 -0.899713 0.009718
v -1.016710 -0.899095 0.037383
v -1.025728 -0.894696 0.019090
v -1.050493 -0.899308 0.028667
v -0.487266 -0.955351 -0.863593
v -0.492631 -0.937992 -0.860758
v -0.521740 -0.954926 -0.843694
v -0.486785 -0.936471 -0.873172
v -0.516284 -0.937701 -0.847102
v -0.492599 -0.918460 -0.870204
v -0.529925 -0.935940 -0.848275
v -0.517039 -0.919018 -0.895091
v -0.524111 -0.918071 -0.852008
v -0.512864 -0.913645 -0.869016
v -0.533454 -0.918816 -0.885618
v 0.521740 -0.954926 -0.843694
v 0.516284 -0.937701 -0.847102
v 0.487266 -0.955351 -0.863593
v 0.529925 -0.935940 -0.848275
v 0.492631 -0.937992 -0.860758
v 0.524111 -0.918071 -0.852008
v 0.486785 -0.936471 -0.873172
v 0.533454 -0.918816 -0.885618
v 0.492599 -0.918460 -0.870204
v 0.512864 -0.913645 -0.869016
v 0.517039 -0.919018 -0.895091
v 0.283024 -0.847177 -0.472250
v -0.283026 -0.847177 -0.472250
v 0.542230 -0.884561 -0.920515
v 1.084459 -0.864527 0.018446
v -0.542230 -0.884561 -0.920515
v 0.566052 -0.836720 0.017853
v -0.566052 -0.836720 0.017853
v 0.542230 -0.844493 0.957407
v -1.084459 -0.864527 0.018446
v 0.283026 -0.826263 0.507955
v -0.283024 -0.826263 0.507955
v -0.542230 -0.844493 0.957407
v 0.517039 -0.880003 0.933476
v 0.521603 -0.906612 0.935738
v 0.533454 -0.880205 0.924003
v 0.486785 -0.898375 0.912321
v 0.532640 -0.906748 0.929367
v 0.529925 -0.898906 0.887424
v 0.500898 -0.918990 0.915224
v 0.487266 -0.917646 0.903556
v 0.512951 -0.929061 0.908479
v 0.521740 -0.918071 0.883657
v 0.525004 -0.919287 0.901311
v -0.533454 -0.880205 0.924003
v -0.532640 -0.906748 0.929367
v -0.517039 -0.880003 0.933476
v -0.529925 -0.898906 0.887424
v -0.521603 -0.906612 0.935738
v -0.486785 -0.898375 0.912321
v -0.525004 -0.919287 0.901311
v -0.521740 -0.918071 0.883657
v -0.512951 -0.929061 0.908479
v -0.487266 -0.917646 0.903556
v -0.500898 -0.918990 0.915224
v -1.050493 -0.899713 0.009718
v -1.054238 -0.926291 0.013389
v -1.050493 -0.899308 0.028667
v -1.016710 -0.917955 -0.005326
v -1.054238 -0.926019 0.026133
v -1.016710 -0.916892 0.044476
v -1.025902 -0.938388 0.006100
v -1.009002 -0.936923 0.000082
v -1.025902 -0.948013 0.020227
v -1.009002 -0.936074 0.039881
v -1.025902 -0.937794 0.033931
v -0.517039 -0.919018 -0.895091
v -0.521603 -0.945699 -0.896216
v -0.533454 -0.918816 -0.885618
v -0.486785 -0.936471 -0.873172
v -0.532640 -0.945563 -0.889845
v -0.529925 -0.935940 -0.848275
v -0.500898 -0.957192 -0.875193
v -0.487266 -0.955351 -0.863593
v -0.512951 -0.966965 -0.868025
v -0.521740 -0.954926 -0.843694
v -0.525004 -0.956895 -0.861280
v 0.533454 -0.918816 -0.885618
v 0.532640 -0.945563 -0.889845
v 0.517039 -0.919018 -0.895091
v 0.529925 -0.935940 -0.848275
v 0.521603 -0.945699 -0.896216
v 0.486785 -0.936471 -0.873172
v 0.525004 -0.956895 -0.861280
v 0.521740 -0.954926 -0.843694
v 0.512951 -0.966965 -0.868025
v 0.487266 -0.955351 -0.863593
v 0.500898 -0.957192 -0.875193
v 0.566052 -0.836720 0.017853
v 0.283026 -0.826263 0.507955
v 0.305433 -0.950539 0.020281
v 0.152717 -0.956182 -0.244173
v 0.283024 -0.847177 -0.472250
v 0.152717 -0.944897 0.284735
v -0.283024 -0.826263 0.507955
v 0.000000 -0.950539 0.020281
v -0.152717 -0.956182 -0.244173
v -0.283026 -0.847177 -0.472250
v -0.152717 -0.944897 0.284735
v -0.566052 -0.836720 0.017853
v -0.305433 -0.950539 0.020281
vn -0.0020 0.5876 -0.8092
vn 0.0391 0.6127 -0.7893
vn -0.0039 0.6054 -0.7959
vn 0.9431 -0.3326 0.0071
vn 0.8271 -0.3073 -0.4706
vn 0.9298 0.3680 -0.0078
vn 0.0273 0.5974 -0.8015
vn 0.9298 0.3680 -0.0079
vn 0.8302 -0.2736 0.4857
vn 0.9431 -0.3326 0.0070
vn 0.0274 0.6311 0.7753
vn 0.9431 -0.3325 0.0093
vn 0.5050 0.8629 -0.0184
vn 0.0842 0.6911 0.7178
vn 0.7461 0.6657 -0.0142
vn 0.1370 0.6635 0.7355
vn 0.0841 0.6671 -0.7402
vn 0.1370 0.6316 -0.7631
vn -0.1975 -0.9264 -0.3207
vn -0.3932 -0.9193 0.0196
vn -0.4989 -0.0185 -0.8665
vn -1.0000 -0.0000 -0.0000
vn -0.3932 -0.9192 0.0196
vn -0.1976 -0.9118 0.3599
vn -0.5004 0.0184 0.8656
vn -0.1975 -0.9119 0.3599
vn 0.1975 -0.9119 0.3599
vn 0.5004 0.0184 0.8656
vn 0.1976 -0.9118 0.3599
vn 0.3932 -0.9192 0.0196
vn 0.5003 0.0184 0.8656
vn 1.0000 -0.0000 -0.0000
vn 0.3932 -0.9193 0.0196
vn 0.1975 -0.9264 -0.3207
vn 0.4989 -0.0185 -0.8665
vn 0.1975 -0.9264 -0.3206
vn -0.1975 -0.9264 -0.3206
vn -0.0000 0.4167 0.9090
vn -0.0000 -0.7746 0.6324
vn 0.4065 0.3716 0.8346
vn 0.8609 -0.3943 0.3216
vn 0.1956 0.8251 0.5301
vn 0.5399 0.6519 -0.5325
vn -0.1956 0.8251 0.5301
vn -0.5399 0.6519 -0.5324
vn -0.5399 0.6518 -0.5326
vn -0.4065 0.3716 0.8347
vn -0.8609 -0.3943 0.3215
vn -0.8609 -0.3943 0.3216
vn -0.0000 -0.7746 0.6325
vn -0.4065 0.3716 0.8346
vn 0.4065 0.3716 0.8347
vn 0.8609 -0.3941 0.3218
vn 0.5399 0.6519 -0.5324
vn -0.7950 0.4072 0.4496
vn -0.5324 -0.7820 0.3240
vn -0.5264 0.3706 0.7652
vn 0.1585 -0.3818 0.9105
vn -0.3758 0.8235 0.4249
vn 0.7186 0.6680 0.1933
vn -0.5714 0.8161 0.0863
vn 0.1782 0.6481 -0.7404
vn 0.1782 0.6480 -0.7405
vn -0.9328 0.3553 0.0609
vn -0.7020 -0.4133 -0.5799
vn -0.7020 -0.4134 -0.5800
vn -0.5264 0.3707 0.7652
vn 0.1587 -0.3820 0.9104
vn 0.7186 0.6680 0.1934
vn 0.5003 -0.0185 -0.8656
vn 0.5004 -0.0185 -0.8656
vn -0.1975 -0.9118 0.3599
vn -0.4989 0.0185 0.8665
vn -0.7950 0.3876 -0.4666
vn -0.5324 -0.7952 -0.2904
vn -0.9328 0.3524 -0.0760
vn -0.7020 -0.3882 0.5970
vn -0.5714 0.8117 -0.1210
vn 0.1783 0.6790 0.7122
vn -0.3758 0.8046 -0.4597
vn 0.7186 0.6592 -0.2216
vn -0.3758 0.8047 -0.4597
vn -0.5264 0.3376 -0.7804
vn 0.1585 -0.4203 -0.8934
vn 0.1586 -0.4204 -0.8933
vn -0.5324 -0.7951 -0.2904
vn -0.5264 0.3376 -0.7803
vn -0.7950 0.3877 -0.4666
vn -0.7020 -0.3883 0.5971
vn 0.1782 0.6791 0.7121
vn 0.1975 -0.9118 0.3599
vn 0.4989 0.0185 0.8665
vn 0.1976 -0.9264 -0.3207
vn -0.5004 -0.0185 -0.8656
vn -0.1976 -0.9264 -0.3207
vn -0.5003 -0.0185 -0.8656
vn -0.0000 0.3776 -0.9260
vn -0.0000 -0.8009 -0.5988
vn -0.4065 0.3357 -0.8497
vn -0.8609 -0.4076 -0.3044
vn -0.1956 0.8017 -0.5648
vn -0.5399 0.6740 0.5042
vn 0.1956 0.8017 -0.5648
vn 0.5399 0.6741 0.5041
vn 0.5399 0.6739 0.5043
vn 0.4065 0.3356 -0.8498
vn 0.8609 -0.4077 -0.3044
vn 0.8609 -0.4076 -0.3044
vn -0.0000 -0.8008 -0.5989
vn 0.4065 0.3357 -0.8497
vn -0.4065 0.3356 -0.8498
vn -0.8609 -0.4075 -0.3047
vn -0.5399 0.6741 0.5041
vn 0.8667 -0.0106 -0.4987
vn 0.8667 -0.0106 -0.4988
vn 0.8666 -0.0106 -0.4988
vn 0.8667 -0.0107 -0.4987
vn 0.5222 0.8041 0.2841
vn 0.5064 0.8621 -0.0165
vn 0.8304 -0.2736 0.4853
vn 0.9431 -0.3325 0.0071
vn 0.5064 0.8620 -0.0228
vn 0.5049 0.8630 -0.0184
vn 0.4541 0.8457 -0.2804
vn 0.5064 0.8621 -0.0164
vn 0.4542 0.8457 -0.2802
vn 0.0843 0.6911 0.7178
vn 0.5222 0.8042 0.2841
vn 0.8667 0.0106 0.4988
vn 0.8661 0.0105 0.4997
vn 0.8660 0.0106 0.4999
vn -0.5003 0.0184 0.8656
vn -0.0000 0.9998 -0.0211
vn -0.0000 0.9998 -0.0214
vn -0.3248 0.7489 -0.5776
vn 0.3249 0.7472 -0.5797
vn -0.3717 0.6571 -0.6558
vn 0.3677 0.6631 -0.6520
vn 0.3249 0.7713 0.5474
vn -0.3248 0.7729 0.5451
vn 0.3717 0.6807 0.6312
vn -0.3717 0.6845 0.6272
vn -0.4557 -0.2793 0.8452
vn -0.7561 0.0002 0.6544
vn 0.3678 0.6903 0.6231
vn 0.9544 -0.2967 0.0318
vn 0.9444 -0.0207 -0.3281
vn -0.9544 -0.2967 0.0318
vn -0.9444 -0.0207 -0.3281
vn -0.3678 0.6903 0.6231
vn 0.4557 -0.2793 0.8452
vn 0.7561 0.0002 0.6544
vn -0.4989 -0.3147 -0.8075
vn -0.1878 -0.0346 -0.9816
vn -0.7358 0.6770 -0.0144
vn -0.4989 -0.2800 0.8201
vn -0.1878 0.0073 0.9822
vn -0.5714 0.8117 -0.1211
vn 0.4557 -0.3151 -0.8325
vn 0.7561 -0.0277 -0.6538
vn -0.3678 0.6631 -0.6520
vn -0.9544 -0.2978 -0.0191
vn -0.9444 -0.0067 0.3287
vn -0.3819 0.9240 -0.0197
vn 0.3819 0.9240 -0.0197
vn -0.5166 0.7161 -0.4693
vn 0.5166 0.7161 -0.4693
vn -0.0000 0.7336 -0.6796
vn 0.3819 -0.9240 0.0197
vn -0.3819 -0.9240 0.0197
vn 0.5421 -0.6780 -0.4964
vn -0.5421 -0.6780 -0.4964
vn -0.0000 -0.7805 -0.6252
vn 0.3819 0.9240 -0.0200
vn 0.5166 0.7161 -0.4694
vn 0.5421 -0.6781 -0.4964
vn 0.9544 -0.2978 -0.0191
vn 0.9444 -0.0067 0.3287
vn 0.3678 0.6631 -0.6520
vn -0.4557 -0.3151 -0.8325
vn -0.7561 -0.0277 -0.6538
vn 0.4033 0.5781 -0.7094
vn -0.4033 0.5781 -0.7094
vn 0.0001 0.9998 -0.0213
vn -0.3015 0.7874 -0.5376
vn 0.3015 0.7874 -0.5377
vn -0.5032 0.6659 -0.5508
vn 0.5009 0.6694 -0.5486
vn -0.0039 0.5853 -0.8108
vn -0.5935 0.5918 -0.5455
vn 0.5894 0.5976 -0.5436
vn -0.0470 0.6113 -0.7900
vn -0.4680 0.7357 -0.4896
vn 0.0391 0.6128 -0.7893
vn 0.4640 0.7395 -0.4877
vn -0.0039 0.6055 -0.7959
vn 0.0783 0.6455 -0.7597
vn 0.0274 0.5974 -0.8015
vn -0.3676 0.6708 -0.6441
vn 0.4032 0.6078 0.6841
vn 0.8049 0.5932 -0.0126
vn -0.0000 0.9998 -0.0213
vn 0.6025 0.7979 -0.0170
vn 0.3015 0.8096 0.5036
vn 0.7273 0.6861 -0.0146
vn 0.5009 0.6922 0.5195
vn 0.7749 0.6319 -0.0135
vn 0.5894 0.6202 0.5176
vn 0.6501 0.7596 -0.0162
vn 0.4640 0.7597 0.4557
vn 0.6103 0.7920 -0.0169
vn 0.0783 0.6773 0.7315
vn 0.0274 0.6311 0.7752
vn 0.9298 0.3679 -0.0079
vn 0.8049 0.5933 -0.0126
vn 0.4032 0.5781 -0.7094
vn 0.9298 0.3679 -0.0078
vn -0.4032 0.5781 -0.7094
vn -0.8049 0.5932 -0.0127
vn -0.6025 0.7979 -0.0170
vn -0.7311 0.6821 -0.0145
vn -0.7793 0.6265 -0.0134
vn -0.6554 0.7551 -0.0161
vn -0.7226 0.6911 -0.0148
vn -0.7406 0.6718 -0.0143
vn -0.8049 0.5933 -0.0127
vn -0.4032 0.6078 0.6841
vn -0.3015 0.8096 0.5036
vn -0.5032 0.6888 0.5219
vn -0.5935 0.6145 0.5198
vn -0.4679 0.7559 0.4578
vn -0.3676 0.6977 0.6149
vn -0.7406 0.6718 -0.0144
vn -0.4033 0.6078 0.6840
vn 0.4033 0.6078 0.6841
vn -0.0001 0.9998 -0.0213
vn 0.5009 0.6922 0.5196
vn -0.0039 0.6194 0.7851
vn -0.0020 0.6215 0.7834
vn -0.0470 0.6445 0.7632
vn -0.4680 0.7559 0.4578
vn -0.0039 0.6389 0.7693
vn 0.0391 0.6458 0.7625
vn -0.0000 -0.9998 0.0213
vn -0.4480 -0.4625 -0.7651
vn 0.4447 -0.4708 -0.7620
vn -0.5012 -0.0145 -0.8652
vn 0.4989 -0.0224 -0.8664
vn 0.0001 -0.9998 0.0214
vn 0.8889 -0.4580 0.0098
vn 0.4447 -0.4379 0.7813
vn 1.0000 -0.0078 0.0001
vn 0.4989 0.0146 0.8666
vn 0.4447 -0.4708 -0.7619
vn 0.8889 -0.4581 0.0098
vn 1.0000 -0.0078 0.0002
vn -0.8968 -0.4424 0.0094
vn -1.0000 0.0078 -0.0002
vn 0.0001 -0.9998 0.0213
vn -0.4480 -0.4294 0.7841
vn -0.5012 0.0223 0.8650
vn -1.0000 0.0078 -0.0001
vn -0.0000 -0.9998 0.0214
vn -0.5012 0.0224 0.8651
vn -0.6807 0.5675 0.4633
vn 0.6514 -0.0758 0.7549
vn -0.9832 -0.0585 -0.1731
vn 0.0372 0.1229 0.9917
vn -0.9134 -0.2276 0.3374
vn -0.7437 -0.6548 -0.1348
vn 0.1095 -0.6592 0.7439
vn 0.4701 -0.6796 0.5631
vn 0.6514 -0.0759 0.7549
vn 0.0901 -0.5903 0.8022
vn -0.7637 -0.5920 0.2575
vn 0.6522 0.7578 -0.0162
vn 0.3249 0.7712 0.5474
vn -0.0001 0.9998 -0.0214
vn 0.0005 0.9998 -0.0211
vn -0.6481 0.7614 -0.0162
vn -0.3248 0.7729 0.5452
vn -0.6480 0.7614 -0.0162
vn -0.0704 0.5396 -0.8390
vn -0.9783 -0.0880 0.1877
vn 0.6417 -0.0711 -0.7637
vn -0.8804 0.0898 -0.4657
vn 0.1684 -0.2553 -0.9521
vn 0.5010 -0.6637 -0.5555
vn -0.6867 -0.6806 -0.2555
vn -0.7105 -0.6880 0.1478
vn -0.9783 -0.0879 0.1878
vn -0.8804 0.0899 -0.4657
vn -0.7285 -0.6137 -0.3042
vn 0.1702 -0.6131 -0.7714
vn 0.6417 -0.0711 -0.7636
vn 0.6807 0.5472 -0.4871
vn -0.6514 -0.1080 -0.7510
vn 0.9832 -0.0511 0.1754
vn -0.0372 0.0805 -0.9961
vn 0.9134 -0.2418 -0.3274
vn 0.7437 -0.6484 0.1626
vn -0.1095 -0.6903 -0.7151
vn -0.4701 -0.7030 -0.5336
vn -0.0901 -0.6239 -0.7763
vn 0.7637 -0.6024 -0.2320
vn 0.7515 0.5652 0.3403
vn 0.3265 -0.1119 -0.9385
vn 0.3403 -0.0347 0.9397
vn 0.8416 0.0904 -0.5324
vn 0.7445 -0.2217 0.6298
vn 0.2427 -0.6364 0.7322
vn 0.5771 -0.6846 -0.4452
vn 0.2409 -0.7055 -0.6665
vn 0.3266 -0.1120 -0.9385
vn 0.8416 0.0905 -0.5325
vn -0.4990 -0.3147 -0.8075
vn 0.6382 -0.6168 -0.4607
vn 0.5944 -0.5847 0.5522
vn -0.4990 -0.2800 0.8201
vn 0.0704 0.5749 0.8152
vn 0.9783 -0.0959 -0.1838
vn -0.6417 -0.0385 0.7660
vn 0.8804 0.1096 0.4614
vn -0.1684 -0.2145 0.9621
vn -0.5010 -0.6394 0.5833
vn 0.6867 -0.6690 0.2843
vn 0.7105 -0.6936 -0.1183
vn 0.9783 -0.0959 -0.1839
vn 0.7285 -0.6002 0.3301
vn -0.1702 -0.5797 0.7969
vn -0.6417 -0.0384 0.7660
vn -0.3819 -0.9240 0.0194
vn -0.3819 0.9240 -0.0198
vn -0.5421 -0.6781 -0.4964
vn -0.1976 -0.9264 -0.3206
vn 0.1976 -0.9264 -0.3206
vn -0.7322 -0.5319 -0.4253
vn 0.0411 -0.5816 -0.8124
vn -0.8049 0.0205 0.5931
vn 0.1702 -0.6132 -0.7714
vn -0.7561 0.0003 0.6544
vn 0.9160 -0.0007 -0.4013
vn -0.2604 0.4431 0.8578
vn 0.8839 0.4322 0.1785
vn 0.0137 -0.5412 -0.8408
vn 0.7343 -0.5719 -0.3658
vn -0.9160 -0.0007 -0.4013
vn 0.7638 -0.6024 -0.2320
vn 0.8049 0.0205 0.5931
vn -0.8811 0.4292 0.1984
vn 0.7562 0.0003 0.6544
vn 0.2798 0.4468 0.8497
vn 0.7443 -0.5317 -0.4040
vn 0.6933 -0.5544 0.4604
vn -0.1115 -0.0134 -0.9937
vn 0.5944 -0.5846 0.5522
vn -0.1115 0.0290 0.9933
vn -0.6203 0.4105 -0.6683
vn -0.6047 0.4428 0.6620
vn 0.7322 -0.5133 0.4476
vn -0.0411 -0.5464 0.8365
vn 0.8049 -0.0048 -0.5934
vn 0.7561 -0.0276 -0.6538
vn -0.9160 0.0164 0.4010
vn 0.2604 0.4062 -0.8759
vn -0.8839 0.4242 -0.1968
vn -0.0137 -0.5048 0.8631
vn 0.0901 -0.5902 0.8022
vn -0.7343 -0.5558 0.3899
vn 0.9160 0.0164 0.4010
vn -0.7638 -0.5919 0.2575
vn -0.8049 -0.0048 -0.5934
vn 0.8811 0.4204 -0.2166
vn -0.7562 -0.0276 -0.6538
vn -0.2798 0.4101 -0.8680
vn 0.0078 -1.0000 0.0037
vn -0.0098 -0.9999 0.0057
vn -0.0313 -0.9973 0.0663
vn -0.0529 -0.9984 0.0174
vn 0.0235 -0.9973 0.0702
vn 0.0176 -0.9997 0.0194
vn -0.0176 -0.9996 0.0233
vn -0.0235 -0.9993 -0.0276
vn 0.0529 -0.9983 0.0252
vn 0.0098 -0.9993 0.0370
vn -0.0078 -0.9992 0.0389
vn 0.0313 -0.9992 -0.0237
vn -0.2603 0.4432 0.8578
vn -0.1958 -0.2795 0.9400
vn 0.9104 -0.3074 0.2768
vn 0.9160 -0.0008 -0.4013
vn -0.4857 -0.5277 0.6969
vn -0.7322 -0.5319 -0.4254
vn -0.0117 -0.9999 0.0017
vn 0.8369 -0.5432 -0.0666
vn -0.9065 -0.2931 0.3039
vn 0.2798 0.4468 0.8498
vn -0.9160 -0.0008 -0.4013
vn 0.2230 -0.2932 0.9297
vn -0.8369 -0.5432 -0.0666
vn 0.0137 -0.5411 -0.8408
vn 0.0117 -0.9999 0.0017
vn 0.4857 -0.5277 0.6969
vn -0.6203 0.4105 -0.6684
vn -0.7099 -0.3128 -0.6310
vn -0.6889 -0.2991 0.6602
vn -0.3505 -0.5585 -0.7518
vn 0.7443 -0.5317 -0.4041
vn 0.0235 -0.9995 0.0213
vn -0.3504 -0.5259 0.7750
vn 0.2603 0.4062 -0.8759
vn 0.1958 -0.3194 -0.9272
vn -0.9104 -0.3189 -0.2634
vn 0.4857 -0.5570 -0.6737
vn 0.7322 -0.5133 0.4477
vn 0.0117 -0.9991 0.0409
vn -0.8369 -0.5399 0.0898
vn 0.8811 0.4204 -0.2165
vn 0.9065 -0.3058 -0.2911
vn -0.2230 -0.3326 -0.9163
vn 0.8369 -0.5399 0.0898
vn -0.0137 -0.5048 0.8632
vn -0.0117 -0.9991 0.0409
vn -0.7343 -0.5557 0.3899
vn -0.4857 -0.5570 -0.6737
vn 0.2877 -0.9559 0.0596
vn 0.1781 -0.9617 -0.2085
vn 0.1096 -0.9512 0.2885
vn -0.0078 -0.9992 0.0390
vn -0.1096 -0.9626 -0.2477
vn -0.1781 -0.9519 0.2493
vn -0.2877 -0.9575 -0.0187
vt 0.743923 0.875181
vt 0.736110 0.875197
vt 0.730694 0.875242
vt 0.092241 0.590021
vt 0.092317 0.838987
vt 0.080110 0.582971
vt 0.080278 0.845899
vt 0.125597 0.596613
vt 0.125353 0.831815
vt 0.114153 0.589990
vt 0.113893 0.838422
vt 0.307088 0.807218
vt 0.558587 0.807218
vt 0.300359 0.826261
vt 0.565301 0.826261
vt 0.304067 0.913374
vt 0.565225 0.913374
vt 0.297093 0.933150
vt 0.572198 0.933150
vt 0.458518 0.636438
vt 0.410864 0.636622
vt 0.458396 0.624399
vt 0.410956 0.623621
vt 0.458793 0.598871
vt 0.414252 0.598611
vt 0.458885 0.585870
vt 0.414328 0.585641
vt 0.459007 0.561975
vt 0.412528 0.561532
vt 0.459068 0.549004
vt 0.412604 0.548898
vt 0.396368 0.599344
vt 0.354833 0.598718
vt 0.396445 0.586709
vt 0.354894 0.586847
vt 0.395499 0.563806
vt 0.353872 0.563531
vt 0.395575 0.551949
vt 0.353933 0.551782
vt 0.394858 0.635599
vt 0.354223 0.635264
vt 0.394934 0.623850
vt 0.354315 0.623712
vt 0.122881 0.466743
vt 0.122896 0.487678
vt 0.070909 0.466804
vt 0.070924 0.487755
vt 0.163088 0.930739
vt 0.163088 0.910445
vt 0.266300 0.930739
vt 0.266300 0.910445
vt 0.093111 0.511467
vt 0.093126 0.534081
vt 0.026612 0.511498
vt 0.026627 0.534111
vt 0.224811 0.493172
vt 0.172854 0.493233
vt 0.224781 0.472221
vt 0.172824 0.472282
vt 0.139208 0.536278
vt 0.139193 0.513680
vt 0.205707 0.536248
vt 0.205692 0.513634
vt 0.068162 0.447883
vt 0.067933 0.434516
vt 0.120317 0.447562
vt 0.120287 0.387213
vt 0.162371 0.872282
vt 0.163210 0.644831
vt 0.212253 0.872465
vt 0.213107 0.644785
vt 0.467399 0.483406
vt 0.493690 0.528618
vt 0.261967 0.483406
vt 0.235431 0.528283
vt 0.463462 0.450248
vt 0.258030 0.450248
vt 0.463645 0.405188
vt 0.257313 0.405249
vt 0.057069 0.854063
vt 0.008103 0.825574
vt 0.057084 0.574502
vt 0.008133 0.602777
vt 0.228626 0.447913
vt 0.176715 0.447120
vt 0.228549 0.434440
vt 0.176516 0.388159
vt 0.251545 0.627008
vt 0.204181 0.626856
vt 0.251560 0.613993
vt 0.204257 0.613581
vt 0.247517 0.598642
vt 0.202975 0.598383
vt 0.247593 0.585641
vt 0.203037 0.585412
vt 0.248844 0.566506
vt 0.202380 0.566079
vt 0.248920 0.553536
vt 0.202441 0.553445
vt 0.189197 0.627970
vt 0.147646 0.627344
vt 0.189258 0.615335
vt 0.147723 0.615473
vt 0.188159 0.566903
vt 0.146517 0.566629
vt 0.188235 0.555047
vt 0.146593 0.554879
vt 0.187518 0.597513
vt 0.146883 0.597177
vt 0.187594 0.585763
vt 0.146975 0.585641
vt 0.645899 0.742962
vt 0.646647 0.970443
vt 0.615747 0.732357
vt 0.616785 0.981125
vt 0.637980 0.054505
vt 0.404471 0.051331
vt 0.649271 0.023957
vt 0.393881 0.020264
vt 0.454841 0.670024
vt 0.450721 0.690043
vt 0.429938 0.684581
vt 0.405051 0.670024
vt 0.409171 0.690043
vt 0.030564 0.945571
vt 0.030564 0.879774
vt 0.081880 0.966613
vt 0.133196 0.879774
vt 0.133196 0.945571
vt 0.718227 0.409247
vt 0.828977 0.409262
vt 0.718379 0.423239
vt 0.828824 0.423255
vt 0.773587 0.472389
vt 0.812406 0.389334
vt 0.676234 0.389349
vt 0.803052 0.378912
vt 0.685496 0.378912
vt 0.744152 0.366400
vt 0.724483 0.455390
vt 0.724102 0.496742
vt 0.712062 0.455314
vt 0.711605 0.496574
vt 0.645563 0.454795
vt 0.651576 0.496742
vt 0.872953 0.888426
vt 0.872679 0.822904
vt 0.962493 0.855299
vt 0.866819 0.822934
vt 0.867094 0.888457
vt 0.862867 0.819379
vt 0.863172 0.892042
vt 0.743908 0.837232
vt 0.743877 0.777478
vt 0.743954 0.935470
vt 0.736309 0.837232
vt 0.736171 0.776608
vt 0.736263 0.936400
vt 0.730709 0.940307
vt 0.721004 0.943847
vt 0.674739 0.960388
vt 0.730678 0.837278
vt 0.659037 0.966003
vt 0.730648 0.772808
vt 0.658412 0.747372
vt 0.132982 0.217609
vt 0.068879 0.217746
vt 0.100740 0.129946
vt 0.068894 0.223484
vt 0.132998 0.223346
vt 0.065400 0.227344
vt 0.136507 0.227192
vt 0.023651 0.344243
vt 0.178759 0.343908
vt 0.022782 0.351782
vt 0.179660 0.351431
vt 0.019013 0.357244
vt 0.183459 0.356878
vt 0.186893 0.366384
vt 0.015610 0.366751
vt 0.830259 0.714214
vt 0.830167 0.783886
vt 0.734844 0.748928
vt 0.836393 0.783902
vt 0.836484 0.714214
vt 0.840589 0.787701
vt 0.840681 0.710414
vt 0.967498 0.833524
vt 0.967697 0.664912
vt 0.975677 0.834485
vt 0.975891 0.663966
vt 0.981598 0.838605
vt 0.981826 0.659861
vt 0.992157 0.656153
vt 0.991943 0.842344
vt 0.398444 0.109560
vt 0.332952 0.109728
vt 0.365484 0.019989
vt 0.332952 0.115587
vt 0.398459 0.115419
vt 0.329397 0.119524
vt 0.402045 0.119356
vt 0.287297 0.238407
vt 0.444709 0.238026
vt 0.286427 0.246098
vt 0.445609 0.245716
vt 0.282612 0.251621
vt 0.449455 0.251209
vt 0.257053 0.323797
vt 0.475349 0.323262
vt 0.182422 0.277470
vt 0.249622 0.277882
vt 0.215442 0.369650
vt 0.249653 0.271870
vt 0.182452 0.271458
vt 0.253361 0.267857
vt 0.178821 0.267399
vt 0.297612 0.146273
vt 0.136095 0.145251
vt 0.298558 0.138369
vt 0.135241 0.137346
vt 0.302525 0.132754
vt 0.131350 0.131685
vt 0.329397 0.058930
vt 0.105409 0.057527
vt 0.484138 0.284993
vt 0.551400 0.285969
vt 0.516426 0.377539
vt 0.551476 0.279942
vt 0.484230 0.278981
vt 0.555215 0.275959
vt 0.480613 0.274876
vt 0.500206 0.152941
vt 0.438850 0.152285
vt 0.539162 0.153368
vt 0.601068 0.154040
vt 0.500297 0.145159
vt 0.438041 0.144366
vt 0.500389 0.139361
vt 0.434211 0.138659
vt 0.539269 0.145342
vt 0.602090 0.146136
vt 0.408850 0.064225
vt 0.633295 0.067185
vt 0.627375 0.083238
vt 0.609888 0.130556
vt 0.539361 0.139773
vt 0.606165 0.140490
vt 0.295064 0.841291
vt 0.570596 0.841291
vt 0.291600 0.948760
vt 0.577691 0.948760
vt 0.252628 0.336278
vt 0.479835 0.335744
vt 0.334051 0.046143
vt 0.100923 0.044678
vt 0.304784 0.672679
vt 0.282780 0.657893
vt 0.317342 0.657542
vt 0.295750 0.672740
vt 0.304067 0.696193
vt 0.322805 0.710979
vt 0.296574 0.695766
vt 0.277699 0.710765
vt 0.238117 0.713756
vt 0.244572 0.685252
vt 0.264088 0.758785
vt 0.244312 0.770657
vt 0.285054 0.747631
vt 0.314717 0.748135
vt 0.335622 0.759670
vt 0.363043 0.714946
vt 0.357443 0.685802
vt 0.355016 0.772457
vt 0.583368 0.877516
vt 0.282292 0.877501
vt 0.590951 0.986374
vt 0.278340 0.986374
vt 0.490654 0.365805
vt 0.241962 0.366400
vt 0.090089 0.013733
vt 0.345251 0.015335
vt 0.720317 0.554528
vt 0.719829 0.513359
vt 0.732769 0.554330
vt 0.732204 0.513237
vt 0.798444 0.512520
vt 0.792569 0.554330
vt 0.516457 0.572900
vt 0.516457 0.613672
vt 0.481147 0.593286
vt 0.551782 0.593286
vt 0.481147 0.634073
vt 0.551782 0.634073
vt 0.516457 0.654460
vt 0.301411 0.554437
vt 0.301411 0.595209
vt 0.266102 0.574823
vt 0.336721 0.574823
vt 0.266102 0.615595
vt 0.336721 0.615595
vt 0.301411 0.635981
vt 0.410071 0.770825
vt 0.418204 0.753521
vt 0.455207 0.771008
vt 0.407202 0.746288
vt 0.447105 0.753643
vt 0.422049 0.742153
vt 0.458076 0.746685
vt 0.423743 0.714672
vt 0.443381 0.742260
vt 0.432914 0.733791
vt 0.442603 0.715023
vt 0.806699 0.347952
vt 0.677363 0.347952
vt 0.866148 0.245060
vt 0.990250 0.460029
vt 0.617929 0.245060
vt 0.871351 0.459953
vt 0.612711 0.459953
vt 0.866133 0.674968
vt 0.493828 0.460029
vt 0.806699 0.571954
vt 0.677363 0.571954
vt 0.617929 0.674968
vt 0.552575 0.674540
vt 0.544381 0.702770
vt 0.520653 0.673732
vt 0.588327 0.727367
vt 0.528008 0.703960
vt 0.483375 0.725826
vt 0.555520 0.735851
vt 0.566842 0.758328
vt 0.535653 0.739696
vt 0.503914 0.757427
vt 0.515892 0.735073
vt 0.983795 0.112291
vt 0.922301 0.218830
vt 0.924254 0.112291
vt 0.892531 0.057328
vt 0.922301 0.005768
vt 0.892531 0.167254
vt 0.799298 0.218830
vt 0.860792 0.112291
vt 0.829068 0.057328
vt 0.799298 0.005768
vt 0.829068 0.167254
vt 0.737789 0.112291
vt 0.797330 0.112291
s 1
usemtl BodyMT
f 1/1/1 2/2/2 3/3/3
f 4/4/4 5/5/5 6/6/6
f 7/5/5 8/7/7 9/6/8
f 10/8/9 11/9/10 12/10/11
f 13/9/12 14/11/6 15/10/11
f 16/12/13 17/13/14 18/14/15
f 17/13/14 19/15/16 18/14/15
f 20/16/17 21/17/13 22/18/18
f 21/17/13 23/19/15 22/18/18
f 24/20/19 25/21/20 26/22/21
f 25/21/20 27/23/22 26/22/21
f 28/24/23 29/25/24 30/26/22
f 29/25/24 31/27/25 30/26/22
f 32/28/26 33/29/27 34/30/25
f 33/29/27 35/31/28 34/30/25
f 36/32/29 37/33/30 38/34/31
f 37/33/30 39/35/32 38/34/31
f 40/36/33 41/37/34 42/38/32
f 41/37/34 43/39/35 42/38/32
f 44/40/36 45/41/37 46/42/35
f 45/41/37 47/43/21 46/42/35
f 48/44/38 49/45/39 50/46/40
f 49/45/39 51/47/41 50/46/40
f 52/48/42 53/49/43 54/50/44
f 53/49/43 55/51/45 54/50/44
f 56/52/44 57/53/46 58/54/47
f 57/53/46 59/55/48 58/54/47
f 60/56/49 61/57/50 62/58/51
f 61/57/50 63/59/38 62/58/51
f 64/60/52 65/61/53 66/62/42
f 65/61/53 67/63/54 66/62/42
f 68/20/36 69/21/37 70/22/35
f 69/21/37 71/23/21 70/22/35
f 72/24/19 73/25/20 74/26/21
f 73/25/20 75/27/22 74/26/21
f 76/28/23 77/29/24 78/30/22
f 77/29/24 79/31/25 78/30/22
f 80/32/26 81/33/27 82/34/25
f 81/33/27 83/35/28 82/34/25
f 84/36/29 85/37/30 86/38/31
f 85/37/30 87/39/32 86/38/31
f 88/40/33 89/41/34 90/42/32
f 89/41/34 91/43/35 90/42/32
f 92/44/55 93/45/56 94/46/57
f 93/45/56 95/47/58 94/46/57
f 96/48/59 97/49/60 98/50/61
f 97/49/60 99/51/62 98/50/61
f 100/52/61 101/53/63 102/54/64
f 101/53/63 103/55/65 102/54/64
f 104/56/66 105/57/56 106/58/64
f 105/57/56 107/59/55 106/58/64
f 108/60/67 109/61/68 110/62/59
f 109/61/68 111/63/69 110/62/59
f 112/20/30 113/21/34 114/22/32
f 113/21/34 115/23/70 114/22/32
f 116/24/36 117/25/37 118/26/71
f 117/25/37 119/27/21 118/26/71
f 120/28/19 121/29/20 122/30/21
f 121/29/20 123/31/22 122/30/21
f 124/32/20 125/33/72 126/34/22
f 125/33/72 127/35/73 126/34/22
f 128/36/26 129/37/27 130/38/73
f 129/37/27 131/39/28 130/38/73
f 132/40/29 133/41/30 134/42/31
f 133/41/30 135/43/32 134/42/31
f 136/44/74 137/45/75 138/46/76
f 137/45/75 139/47/77 138/46/76
f 140/48/78 141/49/79 142/50/80
f 141/49/79 143/51/81 142/50/80
f 144/52/82 145/53/81 146/54/83
f 145/53/81 147/55/84 146/54/83
f 148/56/85 149/57/86 150/58/87
f 149/57/86 151/59/88 150/58/87
f 152/60/76 153/61/89 154/62/78
f 153/61/89 155/63/90 154/62/78
f 156/20/91 157/21/30 158/22/92
f 157/21/30 159/23/32 158/22/92
f 160/24/30 161/25/93 162/26/32
f 161/25/93 163/27/71 162/26/32
f 164/28/36 165/29/37 166/30/71
f 165/29/37 167/31/94 166/30/71
f 168/32/95 169/33/23 170/34/96
f 169/33/23 171/35/22 170/34/96
f 172/36/20 173/37/72 174/38/22
f 173/37/72 175/39/73 174/38/22
f 176/40/26 177/41/27 178/42/73
f 177/41/27 179/43/92 178/42/73
f 180/44/97 181/45/98 182/46/99
f 181/45/98 183/47/100 182/46/99
f 184/48/101 185/49/102 186/50/103
f 185/49/102 187/51/104 186/50/103
f 188/52/103 189/53/105 190/54/106
f 189/53/105 191/55/107 190/54/106
f 192/56/108 193/57/109 194/58/110
f 193/57/109 195/59/97 194/58/110
f 196/60/111 197/61/112 198/62/101
f 197/61/112 199/63/113 198/62/101
s 0
f 200/64/114 201/65/115 202/66/116
f 201/65/117 203/67/117 202/66/117
s 1
f 204/68/118 205/69/119 206/70/120
f 205/69/119 207/71/121 206/70/120
f 208/72/122 209/73/123 210/74/124
f 209/73/123 211/75/17 210/74/124
f 212/76/125 213/77/126 214/78/121
f 213/77/126 215/79/5 214/78/121
f 216/80/13 217/81/125 218/82/127
f 217/81/125 219/83/128 218/82/127
s 0
f 220/84/129 221/85/130 222/86/130
f 221/85/131 223/87/131 222/86/131
s 1
f 224/88/23 225/89/72 226/90/22
f 225/89/72 227/91/132 226/90/22
f 228/92/26 229/93/27 230/94/25
f 229/93/27 231/95/92 230/94/25
f 232/96/91 233/97/30 234/98/92
f 233/97/30 235/99/32 234/98/92
f 236/100/33 237/101/34 238/102/32
f 237/101/34 239/103/35 238/102/32
f 240/104/36 241/105/37 242/106/35
f 241/105/37 243/107/94 242/106/35
f 244/108/95 245/109/23 246/110/96
f 245/109/23 247/111/22 246/110/96
f 248/20/26 249/21/27 250/22/73
f 249/21/27 251/23/92 250/22/73
f 252/24/91 253/25/30 254/26/92
f 253/25/30 255/27/32 254/26/92
f 256/28/30 257/29/93 258/30/32
f 257/29/93 259/31/71 258/30/32
f 260/32/36 261/33/37 262/34/71
f 261/33/37 263/35/94 262/34/71
f 264/36/95 265/37/23 266/38/96
f 265/37/23 267/39/22 266/38/96
f 268/40/20 269/41/72 270/42/22
f 269/41/72 271/43/73 270/42/22
f 272/112/133 273/113/134 274/112/135
f 273/113/134 275/113/136 274/112/135
f 274/112/135 275/113/136 276/114/137
f 275/113/136 277/115/138 276/114/137
f 278/116/133 279/117/134 280/116/139
f 279/117/134 281/117/140 280/116/139
f 280/116/139 281/117/140 282/118/141
f 281/117/140 283/119/142 282/118/141
f 284/120/143 285/121/144 286/122/145
f 284/120/143 286/122/145 287/123/146
f 286/122/145 288/124/147 287/123/146
f 289/125/40 290/126/42 291/127/38
f 290/126/42 292/128/44 291/127/38
f 291/127/38 292/128/44 293/129/51
f 294/120/148 295/121/149 296/122/150
f 294/120/148 296/122/150 297/123/151
f 296/122/150 298/124/152 297/123/151
f 299/125/57 300/126/59 301/127/55
f 300/126/59 302/128/61 301/127/55
f 301/127/55 302/128/61 303/129/64
f 304/120/153 305/121/154 306/122/155
f 304/120/153 306/122/155 307/123/156
f 306/122/155 308/124/157 307/123/156
f 309/125/76 310/126/158 311/127/88
f 310/126/158 312/128/82 311/127/88
f 311/127/88 312/128/82 313/129/87
f 314/120/159 315/121/160 316/122/161
f 314/120/159 316/122/161 317/123/162
f 316/122/161 318/124/163 317/123/162
f 319/130/164 320/131/165 321/132/166
f 320/131/165 322/133/167 321/132/166
f 321/132/166 322/133/167 323/134/168
f 324/135/169 325/136/170 326/137/171
f 325/136/170 327/138/172 326/137/171
f 326/137/171 327/138/172 328/139/173
f 329/140/174 330/141/169 331/142/175
f 330/141/169 332/143/176 331/142/175
f 331/142/175 332/143/176 333/144/168
f 332/143/176 334/145/173 333/144/168
f 335/125/99 336/126/101 337/127/97
f 336/126/101 338/128/103 337/127/97
f 337/127/97 338/128/103 339/129/110
f 340/120/177 341/121/178 342/122/179
f 340/120/177 342/122/179 343/123/180
f 342/122/179 344/124/181 343/123/180
f 345/146/182 346/147/183 347/148/184
f 348/149/185 346/147/183 345/146/182
f 349/150/186 348/149/185 345/146/182
f 350/151/187 348/149/185 349/150/186
f 351/152/188 350/151/187 349/150/186
f 351/152/188 352/153/189 350/151/187
f 352/153/189 353/154/190 350/151/187
f 354/1/1 352/153/189 351/152/188
f 355/155/191 354/1/1 351/152/188
f 352/153/189 356/156/192 353/154/190
f 356/156/192 357/157/193 353/154/190
f 358/2/194 354/1/1 355/155/191
f 358/2/194 355/155/191 359/158/195
f 358/2/194 359/158/195 360/3/196
f 359/158/195 361/159/197 360/3/196
f 360/3/196 361/159/197 362/160/198
f 360/3/196 362/160/198 363/161/17
f 354/1/1 360/3/196 364/162/196
f 360/3/196 363/161/17 364/162/196
f 354/1/1 364/162/196 352/153/189
f 364/162/196 356/156/192 352/153/189
f 364/162/196 357/157/193 356/156/192
f 364/162/196 363/161/17 365/163/18
f 364/162/196 366/164/199 357/157/193
f 364/162/196 365/163/18 366/164/199
f 365/163/18 367/165/137 366/164/199
f 368/166/200 369/167/201 370/168/202
f 371/169/203 369/167/201 368/166/200
f 372/170/204 371/169/203 368/166/200
f 372/170/204 373/171/205 371/169/203
f 372/170/204 374/172/206 373/171/205
f 373/171/205 374/172/206 375/173/207
f 374/172/206 376/174/208 375/173/207
f 375/173/207 376/174/208 377/175/209
f 376/174/208 378/176/210 377/175/209
f 377/175/209 378/176/210 379/177/211
f 378/176/210 380/178/212 379/177/211
f 379/177/211 380/178/212 381/179/213
f 379/177/211 381/179/213 382/180/214
f 383/181/215 384/182/216 385/183/134
f 386/184/186 384/182/216 383/181/215
f 387/185/203 386/184/186 383/181/215
f 387/185/203 388/186/188 386/184/186
f 387/185/203 389/187/205 388/186/188
f 388/186/188 389/187/205 390/188/191
f 389/187/205 391/189/207 390/188/191
f 390/188/191 391/189/207 392/190/195
f 391/189/207 393/191/209 392/190/195
f 392/190/195 393/191/209 394/192/197
f 393/191/209 395/193/211 394/192/197
f 394/192/197 395/193/211 396/194/217
f 394/192/197 396/194/217 397/195/198
f 398/196/218 399/197/219 400/198/134
f 401/199/220 399/197/219 398/196/218
f 402/200/185 401/199/220 398/196/218
f 402/200/185 403/201/221 401/199/220
f 402/200/185 404/202/187 403/201/221
f 403/201/221 404/202/187 405/203/222
f 404/202/187 406/204/190 405/203/222
f 405/203/222 406/204/190 407/205/223
f 406/204/190 408/206/193 407/205/223
f 407/205/223 408/206/193 409/207/224
f 408/206/193 410/208/199 409/207/224
f 409/207/224 410/208/199 411/209/225
f 410/208/199 412/210/137 411/209/225
f 413/211/226 414/212/227 415/213/202
f 416/214/228 414/212/227 413/211/226
f 417/215/220 416/214/228 413/211/226
f 417/215/220 418/216/229 416/214/228
f 417/215/220 419/217/221 418/216/229
f 418/216/229 419/217/221 420/218/230
f 419/217/221 421/219/222 420/218/230
f 420/218/230 421/219/222 422/220/231
f 421/219/222 423/221/223 422/220/231
f 422/220/231 423/221/223 424/222/232
f 423/221/223 425/223/224 424/222/232
f 424/222/232 425/223/224 426/224/142
f 425/223/224 427/225/233 426/224/142
f 428/226/234 429/227/235 430/228/236
f 431/229/204 429/227/235 428/226/234
f 432/230/228 431/229/204 428/226/234
f 432/230/228 433/231/237 431/229/204
f 432/230/228 434/232/229 433/231/237
f 433/231/237 434/232/229 435/233/238
f 434/232/229 436/234/230 435/233/238
f 433/231/237 435/233/238 437/235/239
f 433/231/237 437/235/239 438/236/208
f 435/233/238 436/234/230 439/237/240
f 436/234/230 440/238/241 439/237/240
f 435/233/238 439/237/240 441/239/242
f 441/239/242 439/237/240 440/238/241
f 437/235/239 435/233/238 441/239/242
f 441/239/242 440/238/241 442/240/232
f 437/235/239 443/241/243 438/236/208
f 438/236/208 443/241/243 444/242/210
f 442/240/232 445/243/142 446/244/16
f 447/245/14 442/240/232 446/244/16
f 441/239/242 442/240/232 447/245/14
f 441/239/242 447/245/14 448/246/213
f 443/241/243 449/247/242 444/242/210
f 437/235/239 449/247/242 443/241/243
f 437/235/239 441/239/242 449/247/242
f 441/239/242 448/246/213 449/247/242
f 449/247/242 450/248/212 444/242/210
f 449/247/242 448/246/213 450/248/212
f 451/163/244 452/165/245 453/165/244
f 451/163/244 454/163/246 452/165/245
f 452/165/245 454/163/246 455/112/247
f 454/163/246 456/113/248 455/112/247
f 457/15/249 458/14/250 459/14/244
f 457/15/249 460/15/251 458/14/250
f 458/14/250 460/15/251 461/249/252
f 460/15/251 462/250/253 461/249/252
f 463/19/244 464/18/254 465/18/244
f 463/19/244 466/19/255 464/18/254
f 464/18/254 466/19/255 467/251/248
f 466/19/255 468/252/256 467/251/248
f 469/210/244 470/209/257 471/209/244
f 469/210/244 472/210/245 470/209/257
f 470/209/257 472/210/245 473/253/258
f 472/210/245 474/254/247 473/253/258
f 475/225/259 476/224/260 477/224/244
f 475/225/259 478/225/257 476/224/260
f 476/224/260 478/225/257 479/255/261
f 478/225/257 480/256/262 479/255/261
f 481/243/244 482/244/251 483/244/263
f 481/243/244 484/243/260 482/244/251
f 482/244/251 484/243/260 485/116/253
f 484/243/260 486/117/264 485/116/253
f 487/257/265 488/258/266 489/259/267
f 487/257/265 490/260/268 488/258/266
f 491/261/269 490/260/268 487/257/265
f 492/262/270 491/261/269 487/257/265
f 491/261/269 493/263/271 490/260/268
f 492/262/270 493/263/271 491/261/269
f 494/264/272 490/260/268 493/263/271
f 492/262/270 494/264/272 493/263/271
f 494/264/272 495/265/273 496/266/268
f 497/267/178 498/268/177 495/265/273
f 494/264/272 497/267/178 495/265/273
f 499/269/274 497/267/178 494/264/272
f 492/262/270 499/269/274 494/264/272
f 492/262/270 500/270/275 499/269/274
f 492/262/270 501/271/181 500/270/275
f 492/262/270 502/272/267 501/271/181
f 492/262/270 503/273/265 502/272/267
f 502/272/267 504/274/180 501/271/181
f 505/249/202 506/250/184 507/249/276
f 506/250/184 508/250/277 507/249/276
f 507/249/276 508/250/277 509/275/141
f 507/249/276 509/275/141 510/276/15
f 511/251/236 512/252/202 513/251/136
f 512/252/202 514/252/276 513/251/136
f 513/251/136 514/252/276 515/277/15
f 513/251/136 515/277/15 516/278/138
f 517/253/278 518/254/279 519/253/280
f 518/254/279 520/254/135 519/253/280
f 519/253/280 520/254/135 521/279/137
f 519/253/280 521/279/137 522/280/225
f 523/255/202 524/256/236 525/255/281
f 524/256/236 526/256/282 525/255/281
f 525/255/281 526/256/282 527/281/233
f 525/255/281 527/281/233 528/282/142
f 529/257/283 530/258/284 531/259/285
f 529/257/283 532/260/286 530/258/284
f 533/261/287 532/260/286 529/257/283
f 534/262/288 533/261/287 529/257/283
f 533/261/287 535/263/289 532/260/286
f 534/262/288 535/263/289 533/261/287
f 536/264/290 532/260/286 535/263/289
f 534/262/288 536/264/290 535/263/289
f 536/264/290 537/265/291 538/266/292
f 539/267/144 540/268/143 537/265/291
f 536/264/290 539/267/144 537/265/291
f 541/269/293 539/267/144 536/264/290
f 534/262/288 541/269/293 536/264/290
f 534/262/288 542/270/294 541/269/293
f 534/262/288 543/271/147 542/270/294
f 544/272/295 543/271/147 534/262/288
f 545/273/283 544/272/295 534/262/288
f 544/272/295 546/274/146 543/271/147
f 547/257/296 548/258/297 549/259/298
f 547/257/296 550/260/299 548/258/297
f 551/261/300 550/260/299 547/257/296
f 552/262/301 551/261/300 547/257/296
f 551/261/300 553/263/302 550/260/299
f 552/262/301 553/263/302 551/261/300
f 554/264/303 550/260/299 553/263/302
f 552/262/301 554/264/303 553/263/302
f 554/264/303 555/265/297 556/266/299
f 557/267/149 558/268/148 555/265/297
f 554/264/303 557/267/149 555/265/297
f 559/269/304 557/267/149 554/264/303
f 552/262/301 559/269/304 554/264/303
f 552/262/301 560/270/305 559/269/304
f 552/262/301 561/271/152 560/270/305
f 562/272/298 561/271/152 552/262/301
f 563/273/296 562/272/298 552/262/301
f 562/272/298 564/274/151 561/271/152
f 565/257/306 566/258/307 567/259/308
f 565/257/306 568/260/309 566/258/307
f 569/261/310 568/260/309 565/257/306
f 570/262/311 569/261/310 565/257/306
f 569/261/310 571/263/312 568/260/309
f 570/262/311 571/263/312 569/261/310
f 572/264/313 568/260/309 571/263/312
f 570/262/311 572/264/313 571/263/312
f 572/264/313 573/265/314 574/266/315
f 575/267/154 576/268/316 573/265/314
f 572/264/313 575/267/154 573/265/314
f 577/269/317 575/267/154 572/264/313
f 570/262/311 577/269/317 572/264/313
f 570/262/311 578/270/318 577/269/317
f 570/262/311 579/271/157 578/270/318
f 580/272/308 579/271/157 570/262/311
f 581/273/306 580/272/308 570/262/311
f 580/272/308 582/274/319 579/271/157
f 583/257/320 584/258/321 585/259/322
f 583/257/320 586/260/323 584/258/321
f 587/261/324 586/260/323 583/257/320
f 588/262/325 587/261/324 583/257/320
f 587/261/324 589/263/326 586/260/323
f 588/262/325 589/263/326 587/261/324
f 590/264/327 586/260/323 589/263/326
f 588/262/325 590/264/327 589/263/326
f 590/264/327 591/265/328 592/266/323
f 593/267/160 594/268/159 591/265/328
f 590/264/327 593/267/160 591/265/328
f 595/269/329 593/267/160 590/264/327
f 588/262/325 595/269/329 590/264/327
f 588/262/325 596/270/330 595/269/329
f 588/262/325 597/271/163 596/270/330
f 598/272/331 597/271/163 588/262/325
f 599/273/320 598/272/331 588/262/325
f 598/272/331 600/274/162 597/271/163
f 601/283/332 602/284/333 603/285/334
f 602/284/333 604/286/166 603/285/334
f 603/285/334 604/286/166 605/287/168
f 603/285/334 605/287/168 606/288/173
f 607/289/23 608/290/244 609/291/24
f 607/289/23 610/292/335 608/290/244
f 608/290/244 611/293/29 609/291/24
f 608/290/244 610/292/335 612/294/336
f 608/290/244 613/295/30 611/293/29
f 608/290/244 612/294/336 613/295/30
f 614/289/335 615/290/244 616/291/23
f 614/289/335 617/292/336 615/290/244
f 615/290/244 618/293/24 616/291/23
f 615/290/244 617/292/336 619/294/30
f 615/290/244 620/295/29 618/293/24
f 615/290/244 619/294/30 620/295/29
f 621/289/34 622/290/244 623/291/335
f 621/289/34 624/292/30 622/290/244
f 622/290/244 625/293/23 623/291/335
f 622/290/244 624/292/30 626/294/91
f 622/290/244 627/295/24 625/293/23
f 622/290/244 626/294/91 627/295/24
f 628/289/30 629/290/244 630/291/336
f 628/289/30 631/292/29 629/290/244
f 629/290/244 632/293/335 630/291/336
f 629/290/244 631/292/29 633/294/24
f 629/290/244 634/295/23 632/293/335
f 629/290/244 633/294/24 634/295/23
f 635/296/72 636/297/244 637/298/29
f 635/296/72 638/299/23 636/297/244
f 636/297/244 639/300/30 637/298/29
f 636/297/244 638/299/23 640/301/19
f 636/297/244 641/302/336 639/300/30
f 636/297/244 640/301/19 641/302/336
f 642/289/29 643/290/244 644/291/30
f 642/289/29 645/292/24 643/290/244
f 643/290/244 646/293/336 644/291/30
f 643/290/244 645/292/24 647/294/23
f 643/290/244 648/295/335 646/293/336
f 643/290/244 647/294/23 648/295/335
f 649/303/337 650/304/293 651/305/338
f 649/303/337 652/306/339 650/304/293
f 650/304/293 653/307/340 651/305/338
f 652/306/339 654/308/341 650/304/293
f 651/305/338 653/307/340 655/309/342
f 652/306/339 656/310/343 654/308/341
f 653/307/340 657/311/147 655/309/342
f 656/310/343 658/312/145 654/308/341
f 655/309/342 657/311/147 659/313/344
f 656/310/343 659/313/344 658/312/145
f 658/312/145 659/313/344 657/311/147
f 660/303/345 661/304/304 662/305/346
f 660/303/345 663/306/347 661/304/304
f 661/304/304 664/307/348 662/305/346
f 663/306/347 665/308/149 661/304/304
f 662/305/346 664/307/348 666/309/349
f 663/306/347 667/310/350 665/308/149
f 664/307/348 668/311/351 666/309/349
f 667/310/350 669/312/150 665/308/149
f 666/309/349 668/311/351 670/313/352
f 667/310/350 670/313/352 669/312/150
f 669/312/150 670/313/352 668/311/351
f 671/303/353 672/304/317 673/305/354
f 671/303/353 674/306/355 672/304/317
f 672/304/317 675/307/356 673/305/354
f 674/306/355 676/308/154 672/304/317
f 673/305/354 675/307/356 677/309/357
f 674/306/355 678/310/358 676/308/154
f 675/307/356 679/311/157 677/309/357
f 678/310/358 680/312/155 676/308/154
f 677/309/357 679/311/157 681/313/359
f 678/310/358 681/313/359 680/312/155
f 680/312/155 681/313/359 679/311/157
f 682/303/360 683/304/329 684/305/361
f 682/303/360 685/306/362 683/304/329
f 683/304/329 686/307/330 684/305/361
f 685/306/362 687/308/363 683/304/329
f 684/305/361 686/307/330 688/309/364
f 685/306/362 689/310/365 687/308/363
f 686/307/330 690/311/163 688/309/364
f 689/310/365 691/312/161 687/308/363
f 688/309/364 690/311/163 692/313/366
f 689/310/365 692/313/366 691/312/161
f 691/312/161 692/313/366 690/311/163
f 693/303/367 694/304/368 695/305/369
f 693/303/367 696/306/370 694/304/368
f 694/304/368 697/307/371 695/305/369
f 696/306/370 698/308/178 694/304/368
f 695/305/369 697/307/371 699/309/372
f 696/306/370 700/310/373 698/308/178
f 697/307/371 701/311/374 699/309/372
f 700/310/373 702/312/179 698/308/178
f 699/309/372 701/311/374 703/313/375
f 700/310/373 703/313/375 702/312/179
f 702/312/179 703/313/375 701/311/374
f 704/314/376 705/315/377 706/316/378
f 704/314/376 706/316/378 707/317/379
f 705/315/377 708/318/380 706/316/378
f 704/314/376 707/317/379 709/319/381
f 705/315/377 710/320/382 708/318/380
f 707/317/379 711/321/383 709/319/381
f 710/320/382 712/322/384 708/318/380
f 709/319/381 711/321/383 713/323/385
f 710/320/382 714/324/386 712/322/384
f 711/321/383 715/325/387 713/323/385
f 714/324/386 715/325/387 712/322/384
f 713/323/385 715/325/387 714/324/386
f 716/326/388 717/327/389 718/328/344
f 716/326/388 719/329/339 717/327/389
f 717/327/389 720/330/390 718/328/344
f 718/328/344 720/330/390 721/331/391
f 717/327/389 719/329/339 722/332/392
f 719/329/339 723/333/393 722/332/392
f 717/327/389 722/332/392 724/334/394
f 722/332/392 723/333/393 724/334/394
f 717/327/389 724/334/394 720/330/390
f 724/334/394 723/333/393 725/335/338
f 720/330/390 726/336/395 721/331/391
f 724/334/394 726/336/395 720/330/390
f 721/331/391 726/336/395 725/335/338
f 724/334/394 725/335/338 726/336/395
f 727/326/350 728/327/396 729/328/397
f 727/326/350 730/329/398 728/327/396
f 728/327/396 731/330/399 729/328/397
f 729/328/397 731/330/399 732/331/349
f 728/327/396 730/329/398 733/332/400
f 730/329/398 734/333/401 733/332/400
f 728/327/396 733/332/400 735/334/402
f 733/332/400 734/333/401 735/334/402
f 728/327/396 735/334/402 731/330/399
f 735/334/402 734/333/401 736/335/346
f 731/330/399 737/336/403 732/331/349
f 735/334/402 737/336/403 731/330/399
f 732/331/349 737/336/403 736/335/346
f 735/334/402 736/335/346 737/336/403
f 738/326/404 739/327/405 740/328/359
f 738/326/404 741/329/355 739/327/405
f 739/327/405 742/330/406 740/328/359
f 740/328/359 742/330/406 743/331/357
f 739/327/405 741/329/355 744/332/407
f 741/329/355 745/333/408 744/332/407
f 739/327/405 744/332/407 746/334/409
f 744/332/407 745/333/408 746/334/409
f 739/327/405 746/334/409 742/330/406
f 746/334/409 745/333/408 747/335/354
f 742/330/406 748/336/410 743/331/357
f 746/334/409 748/336/410 742/330/406
f 743/331/357 748/336/410 747/335/354
f 746/334/409 747/335/354 748/336/410
f 749/326/411 750/327/412 751/328/366
f 749/326/411 752/329/362 750/327/412
f 750/327/412 753/330/413 751/328/366
f 751/328/366 753/330/413 754/331/364
f 750/327/412 752/329/362 755/332/414
f 752/329/362 756/333/415 755/332/414
f 750/327/412 755/332/414 757/334/416
f 755/332/414 756/333/415 757/334/416
f 750/327/412 757/334/416 753/330/413
f 757/334/416 756/333/415 758/335/361
f 753/330/413 759/336/417 754/331/364
f 757/334/416 759/336/417 753/330/413
f 754/331/364 759/336/417 758/335/361
f 757/334/416 758/335/361 759/336/417
f 760/326/418 761/327/419 762/328/375
f 760/326/418 763/329/370 761/327/419
f 761/327/419 764/330/420 762/328/375
f 762/328/375 764/330/420 765/331/372
f 761/327/419 763/329/370 766/332/421
f 763/329/370 767/333/422 766/332/421
f 761/327/419 766/332/421 768/334/423
f 766/332/421 767/333/422 768/334/423
f 761/327/419 768/334/423 764/330/420
f 768/334/423 767/333/422 769/335/424
f 764/330/420 770/336/425 765/331/372
f 768/334/423 770/336/425 764/330/420
f 765/331/372 770/336/425 769/335/424
f 768/334/423 769/335/424 770/336/425
f 771/337/381 772/338/385 773/339/426
f 771/337/381 773/339/426 774/340/427
f 771/337/381 774/340/427 775/341/376
f 773/339/426 772/338/385 776/342/428
f 772/338/385 777/343/429 776/342/428
f 774/340/427 773/339/426 778/344/244
f 773/339/426 776/342/428 778/344/244
f 774/340/427 779/345/430 775/341/376
f 774/340/427 778/344/244 779/345/430
f 775/341/376 779/345/430 780/346/377
f 776/342/428 777/343/429 781/347/431
f 778/344/244 776/342/428 781/347/431
f 777/343/429 782/348/382 781/347/431
f 778/344/244 783/349/432 779/345/430
f 778/344/244 781/347/431 783/349/432
f 779/345/430 783/349/432 780/346/377
f 781/347/431 782/348/382 783/349/432
f 780/346/377 783/349/432 782/348/382
