# Blender 4.5.0
# www.blender.org
mtllib tunel_structure.mtl
o tunnel_structure
v 8.511022 2.704271 -9.302556
v 8.545572 2.669721 -9.302556
v 8.545572 2.796217 -9.302556
v 8.511022 2.761666 -9.302556
v 8.545572 2.669721 -13.075885
v 8.511022 2.704271 -13.075885
v 8.511022 2.761666 -13.075885
v 8.545572 2.796217 -13.075885
v 8.602967 2.669721 -9.302556
v 8.637518 2.704271 -9.302556
v 8.637518 2.761666 -9.302556
v 8.602967 2.796217 -9.302556
v 8.637518 2.704271 -13.075885
v 8.602967 2.669721 -13.075885
v 8.602967 2.796217 -13.075885
v 8.637518 2.761666 -13.075885
v 8.171719 2.704271 -9.302556
v 8.206268 2.669720 -9.302556
v 8.206268 2.796216 -9.302556
v 8.171719 2.761666 -9.302556
v 8.206268 2.669720 -13.075885
v 8.171719 2.704271 -13.075885
v 8.171719 2.761666 -13.075885
v 8.206268 2.796216 -13.075885
v 8.263664 2.669720 -9.302556
v 8.298214 2.704271 -9.302556
v 8.298214 2.761666 -9.302556
v 8.263664 2.796216 -9.302556
v 8.298214 2.704271 -13.075885
v 8.263664 2.669720 -13.075885
v 8.263664 2.796216 -13.075885
v 8.298214 2.761666 -13.075885
v 9.217134 2.704271 -9.302556
v 9.251685 2.669721 -9.302556
v 9.251685 2.796217 -9.302556
v 9.217134 2.761666 -9.302556
v 9.251685 2.669721 -13.075885
v 9.217134 2.704271 -13.075885
v 9.217134 2.761666 -13.075885
v 9.251685 2.796217 -13.075885
v 9.309080 2.669721 -9.302556
v 9.343631 2.704271 -9.302556
v 9.343631 2.761666 -9.302556
v 9.309080 2.796217 -9.302556
v 9.343631 2.704271 -13.075885
v 9.309080 2.669721 -13.075885
v 9.309080 2.796217 -13.075885
v 9.343631 2.761666 -13.075885
v 8.877831 2.704271 -9.302556
v 8.912382 2.669720 -9.302556
v 8.912382 2.796216 -9.302556
v 8.877831 2.761666 -9.302556
v 8.912382 2.669720 -13.075885
v 8.877831 2.704271 -13.075885
v 8.877831 2.761666 -13.075885
v 8.912382 2.796216 -13.075885
v 8.969777 2.669720 -9.302556
v 9.004328 2.704271 -9.302556
v 9.004328 2.761666 -9.302556
v 8.969777 2.796216 -9.302556
v 9.004328 2.704271 -13.075885
v 8.969777 2.669720 -13.075885
v 8.969777 2.796216 -13.075885
v 9.004328 2.761666 -13.075885
v 7.779934 2.704271 -9.302556
v 7.814484 2.669721 -9.302556
v 7.814484 2.796217 -9.302556
v 7.779934 2.761666 -9.302556
v 7.814484 2.669721 -13.075885
v 7.779934 2.704271 -13.075885
v 7.779934 2.761666 -13.075885
v 7.814484 2.796217 -13.075885
v 7.871880 2.669721 -9.302556
v 7.906430 2.704271 -9.302556
v 7.906430 2.761666 -9.302556
v 7.871880 2.796217 -9.302556
v 7.906430 2.704271 -13.075885
v 7.871880 2.669721 -13.075885
v 7.871880 2.796217 -13.075885
v 7.906430 2.761666 -13.075885
v 7.440630 2.704271 -9.302556
v 7.475181 2.669720 -9.302556
v 7.475181 2.796216 -9.302556
v 7.440630 2.761666 -9.302556
v 7.475181 2.669720 -13.075885
v 7.440630 2.704271 -13.075885
v 7.440630 2.761666 -13.075885
v 7.475181 2.796216 -13.075885
v 7.532576 2.669720 -9.302556
v 7.567126 2.704271 -9.302556
v 7.567126 2.761666 -9.302556
v 7.532576 2.796216 -9.302556
v 7.567126 2.704271 -13.075885
v 7.532576 2.669720 -13.075885
v 7.532576 2.796216 -13.075885
v 7.567126 2.761666 -13.075885
v 10.460935 2.614487 -9.371554
v 10.460935 2.579937 -9.406105
v 10.460935 2.706433 -9.406105
v 10.460935 2.671882 -9.371554
v 6.687605 2.579937 -9.406105
v 6.687605 2.614487 -9.371554
v 6.687605 2.671882 -9.371554
v 6.687605 2.706433 -9.406105
v 10.460935 2.579937 -9.463500
v 10.460935 2.614487 -9.498051
v 10.460935 2.671882 -9.498051
v 10.460935 2.706433 -9.463500
v 6.687605 2.614487 -9.498051
v 6.687606 2.579937 -9.463500
v 6.687606 2.706433 -9.463500
v 6.687605 2.671882 -9.498051
v 10.463369 2.614441 -10.403317
v 10.463369 2.579891 -10.437868
v 10.463369 2.706387 -10.437868
v 10.463369 2.671836 -10.403317
v 6.690041 2.579891 -10.437868
v 6.690041 2.614441 -10.403317
v 6.690041 2.671836 -10.403317
v 6.690041 2.706387 -10.437868
v 10.463369 2.579891 -10.495263
v 10.463369 2.614441 -10.529814
v 10.463369 2.671836 -10.529814
v 10.463369 2.706387 -10.495263
v 6.690041 2.614441 -10.529814
v 6.690041 2.579891 -10.495263
v 6.690041 2.706387 -10.495263
v 6.690041 2.671836 -10.529814
v 10.471080 2.614324 -11.628333
v 10.471080 2.579773 -11.662883
v 10.471080 2.706269 -11.662883
v 10.471080 2.671719 -11.628333
v 6.697751 2.579773 -11.662883
v 6.697751 2.614324 -11.628332
v 6.697751 2.671719 -11.628332
v 6.697751 2.706269 -11.662883
v 10.471080 2.579773 -11.720279
v 10.471080 2.614324 -11.754828
v 10.471080 2.671719 -11.754828
v 10.471080 2.706269 -11.720279
v 6.697751 2.614324 -11.754828
v 6.697752 2.579773 -11.720278
v 6.697752 2.706269 -11.720278
v 6.697751 2.671719 -11.754828
v 9.243114 0.756357 -9.382028
v 9.208564 0.756357 -9.416577
v 9.335060 0.756357 -9.416577
v 9.300509 0.756357 -9.382028
v 9.208564 3.823168 -9.416577
v 9.243114 3.823167 -9.382027
v 9.300509 3.823167 -9.382027
v 9.335060 3.823168 -9.416577
v 9.208564 0.756357 -9.473973
v 9.243114 0.756357 -9.508523
v 9.300509 0.756357 -9.508523
v 9.335060 0.756357 -9.473973
v 9.243114 3.823167 -9.508523
v 9.208564 3.823167 -9.473972
v 9.335060 3.823167 -9.473972
v 9.300509 3.823167 -9.508523
v 7.464706 0.756357 -9.382028
v 7.430155 0.756357 -9.416577
v 7.556652 0.756357 -9.416577
v 7.522101 0.756357 -9.382028
v 7.430156 3.823168 -9.416577
v 7.464706 3.823167 -9.382027
v 7.522101 3.823167 -9.382027
v 7.556652 3.823168 -9.416577
v 7.430155 0.756357 -9.473973
v 7.464706 0.756357 -9.508523
v 7.522101 0.756357 -9.508523
v 7.556652 0.756357 -9.473973
v 7.464706 3.823167 -9.508523
v 7.430156 3.823167 -9.473972
v 7.556652 3.823167 -9.473972
v 7.522101 3.823167 -9.508523
v 9.243114 0.756357 -10.384574
v 9.208564 0.756357 -10.419125
v 9.335060 0.756357 -10.419125
v 9.300509 0.756357 -10.384574
v 9.208564 4.312559 -10.419125
v 9.243114 4.312558 -10.384574
v 9.300509 4.312558 -10.384574
v 9.335060 4.312559 -10.419125
v 9.208564 0.756357 -10.476520
v 9.243114 0.756357 -10.511070
v 9.300509 0.756357 -10.511070
v 9.335060 0.756357 -10.476520
v 9.243114 4.312558 -10.511070
v 9.208564 4.312558 -10.476520
v 9.335060 4.312558 -10.476520
v 9.300509 4.312558 -10.511070
v 7.464706 0.756357 -10.384574
v 7.430155 0.756357 -10.419125
v 7.556652 0.756357 -10.419125
v 7.522101 0.756357 -10.384574
v 7.430156 4.312559 -10.419125
v 7.464706 4.312558 -10.384574
v 7.522101 4.312558 -10.384574
v 7.556652 4.312559 -10.419125
v 7.430155 0.756357 -10.476520
v 7.464706 0.756357 -10.511070
v 7.522101 0.756357 -10.511070
v 7.556652 0.756357 -10.476520
v 7.464706 4.312558 -10.511070
v 7.430156 4.312558 -10.476520
v 7.556652 4.312558 -10.476520
v 7.522101 4.312558 -10.511070
v 9.243114 0.756357 -11.595201
v 9.208564 0.756357 -11.629752
v 9.335060 0.756357 -11.629752
v 9.300509 0.756357 -11.595201
v 9.208564 4.312559 -11.629752
v 9.243114 4.312558 -11.595201
v 9.300509 4.312558 -11.595201
v 9.335060 4.312559 -11.629752
v 9.208564 0.756357 -11.687147
v 9.243114 0.756357 -11.721698
v 9.300509 0.756357 -11.721698
v 9.335060 0.756357 -11.687147
v 9.243114 4.312558 -11.721698
v 9.208564 4.312558 -11.687147
v 9.335060 4.312558 -11.687147
v 9.300509 4.312558 -11.721698
v 7.464706 0.756357 -11.595201
v 7.430155 0.756357 -11.629752
v 7.556652 0.756357 -11.629752
v 7.522101 0.756357 -11.595201
v 7.430156 4.312559 -11.629752
v 7.464706 4.312558 -11.595201
v 7.522101 4.312558 -11.595201
v 7.556652 4.312559 -11.629752
v 7.430155 0.756357 -11.687147
v 7.464706 0.756357 -11.721698
v 7.522101 0.756357 -11.721698
v 7.556652 0.756357 -11.687147
v 7.464706 4.312558 -11.721698
v 7.430156 4.312558 -11.687147
v 7.556652 4.312558 -11.687147
v 7.522101 4.312558 -11.721698
v 7.219689 2.071741 -10.338778
v 7.219689 2.175271 -10.338778
v 7.219689 2.071741 -10.392911
v 7.219689 2.175271 -10.392911
v 9.596685 2.071741 -10.338778
v 9.596685 2.175271 -10.338778
v 9.596685 2.071741 -10.392911
v 9.596685 2.175271 -10.392911
v 7.249359 1.947197 -10.338778
v 7.249359 2.050726 -10.338778
v 7.249359 1.947197 -10.392911
v 7.249359 2.050726 -10.392911
v 9.539577 1.947197 -10.338778
v 9.539577 2.050726 -10.338778
v 9.539577 1.947197 -10.392911
v 9.539577 2.050726 -10.392911
v 7.219479 1.822233 -10.338778
v 7.219479 1.925762 -10.338778
v 7.219479 1.822233 -10.392911
v 7.219479 1.925762 -10.392911
v 9.680040 1.822233 -10.338778
v 9.680040 1.925762 -10.338778
v 9.680040 1.822233 -10.392911
v 9.680040 1.925762 -10.392911
v 7.281015 1.697688 -10.338778
v 7.281015 1.801218 -10.338778
v 7.281015 1.697688 -10.392911
v 7.281015 1.801218 -10.392911
v 9.680040 1.697688 -10.338778
v 9.680040 1.801218 -10.338778
v 9.680040 1.697688 -10.392911
v 9.680040 1.801218 -10.392911
v 7.298146 1.568003 -10.338778
v 7.298146 1.671532 -10.338778
v 7.298146 1.568003 -10.392911
v 7.298146 1.671532 -10.392911
v 9.680040 1.568003 -10.338778
v 9.680040 1.671532 -10.338778
v 9.680040 1.568003 -10.392911
v 9.680040 1.671532 -10.392911
v 7.453300 1.445936 -10.338778
v 7.457371 1.549385 -10.338778
v 7.453300 1.445936 -10.392911
v 7.457371 1.549385 -10.392911
v 9.449129 1.367406 -10.338778
v 9.453199 1.470856 -10.338778
v 9.449129 1.367406 -10.392911
v 9.453199 1.470856 -10.392911
v 7.191652 2.318701 -10.338778
v 7.191652 2.422230 -10.338778
v 7.191652 2.318701 -10.392911
v 7.191652 2.422230 -10.392911
v 9.612200 2.318701 -10.338778
v 9.612200 2.422230 -10.338778
v 9.612200 2.318701 -10.392911
v 9.612200 2.422230 -10.392911
v 7.202513 2.194157 -10.338778
v 7.202513 2.297686 -10.338778
v 7.202513 2.194157 -10.392911
v 7.202513 2.297686 -10.392911
v 9.588982 2.194157 -10.338778
v 9.588982 2.297686 -10.338778
v 9.588982 2.194157 -10.392911
v 9.588982 2.297686 -10.392911
v 7.219479 2.558266 -10.338778
v 7.219479 2.661796 -10.338778
v 7.219479 2.558266 -10.392911
v 7.219479 2.661796 -10.392911
v 9.514227 2.558266 -10.338778
v 9.514227 2.661796 -10.338778
v 9.514227 2.558266 -10.392911
v 9.514227 2.661796 -10.392911
v 7.219479 2.433722 -10.338778
v 7.219479 2.537251 -10.338778
v 7.219479 2.433722 -10.392911
v 7.219479 2.537251 -10.392911
v 9.635424 2.433722 -10.338778
v 9.635424 2.537251 -10.338778
v 9.635424 2.433722 -10.392911
v 9.635424 2.537251 -10.392911
v 7.968878 1.568003 -10.392911
v 8.795972 1.568003 -10.392911
v 8.795972 1.671532 -10.392911
v 7.968878 1.671532 -10.392911
v 8.795972 1.568003 -10.338778
v 7.968878 1.568003 -10.338778
v 7.968878 1.671532 -10.338778
v 8.795972 1.671532 -10.338778
v 8.449759 1.682147 -10.392911
v 8.449759 1.785676 -10.392911
v 8.449759 1.682147 -10.338778
v 8.449759 1.785676 -10.338778
v 9.064899 1.826149 -10.392911
v 8.449759 1.816418 -10.392911
v 7.834619 1.835467 -10.392911
v 7.834619 1.938997 -10.392911
v 8.449759 1.919948 -10.392911
v 9.064899 1.929678 -10.392911
v 7.834619 1.835467 -10.338778
v 8.449759 1.816418 -10.338778
v 9.064899 1.826149 -10.338778
v 9.064899 1.929678 -10.338778
v 8.449759 1.919948 -10.338778
v 7.834619 1.938997 -10.338778
v 8.449759 1.937410 -10.392911
v 8.449759 2.040939 -10.392911
v 8.449759 1.937410 -10.338778
v 8.449759 2.040939 -10.338778
v 8.859853 2.307361 -10.392911
v 8.039666 2.318701 -10.392911
v 8.039666 2.422230 -10.392911
v 8.859853 2.410890 -10.392911
v 8.039666 2.318701 -10.338778
v 8.859853 2.307361 -10.338778
v 8.859853 2.410890 -10.338778
v 8.039666 2.422230 -10.338778
v 8.449759 2.448400 -10.392911
v 8.449759 2.551929 -10.392911
v 8.449759 2.448400 -10.338778
v 8.449759 2.551929 -10.338778
v 8.449759 2.552802 -10.392911
v 8.449759 2.656331 -10.392911
v 8.449759 2.552802 -10.338778
v 8.449759 2.656331 -10.338778
v 9.002436 2.071741 -10.392911
v 8.408187 2.071741 -10.392911
v 8.408187 2.175271 -10.392911
v 9.002436 2.175271 -10.392911
v 8.408187 2.071741 -10.338778
v 9.002436 2.071741 -10.338778
v 9.002436 2.175271 -10.338778
v 8.408187 2.175271 -10.338778
v 7.580410 2.071741 -10.392911
v 7.580410 2.175271 -10.338778
v 7.580410 2.175271 -10.392911
v 7.580410 2.071741 -10.338778
v 8.111062 2.071741 -10.392911
v 8.111062 2.175271 -10.392911
v 8.111062 2.071741 -10.338778
v 8.111062 2.175271 -10.338778
vn -0.0000 -0.0000 1.0000
vn 1.0000 -0.0000 -0.0000
vn -0.0000 1.0000 -0.0000
vn -1.0000 -0.0000 -0.0000
vn -0.0000 -0.0000 -1.0000
vn -0.7071 -0.7071 -0.0000
vn -0.7071 0.7071 -0.0000
vn 0.7071 -0.7071 -0.0000
vn 0.7071 0.7071 -0.0000
vn -0.0000 -1.0000 -0.0000
vn -0.0000 -0.7071 0.7071
vn -0.0000 0.7071 0.7071
vn -0.0000 -0.7071 -0.7071
vn -0.0000 0.7071 -0.7071
vn -0.7071 -0.0000 0.7071
vn 0.7071 -0.0000 0.7071
vn -0.7071 -0.0000 -0.7071
vn 0.7071 -0.0000 -0.7071
vn 0.0090 -1.0000 -0.0000
vn 0.0082 1.0000 -0.0000
vn -0.0064 -1.0000 -0.0000
vn -0.0215 0.9998 -0.0000
vn 0.0126 -0.9999 -0.0000
vn 0.0133 0.9999 -0.0000
vn -0.9992 0.0393 -0.0000
vn 0.9992 -0.0393 -0.0000
vn -0.0393 -0.9992 -0.0000
vn 0.0393 0.9992 -0.0000
vn 0.0151 -0.9999 -0.0000
vn 0.0051 -1.0000 -0.0000
vn 0.0044 1.0000 -0.0000
vn -0.0124 -0.9999 -0.0000
vn -0.0119 0.9999 -0.0000
vn -0.0126 0.9999 -0.0000
vn -0.0133 -0.9999 -0.0000
vn 0.0064 1.0000 -0.0000
vn -0.0158 0.9999 -0.0000
vn 0.0310 0.9995 -0.0000
vn 0.0215 -0.9998 -0.0000
vn -0.0310 -0.9995 -0.0000
vn 0.0158 -0.9999 -0.0000
vn -0.0090 1.0000 -0.0000
vn -0.0082 -1.0000 -0.0000
vn -0.0151 0.9999 -0.0000
vn 0.0138 0.9999 -0.0000
vn -0.0138 -0.9999 -0.0000
vn 0.0124 0.9999 -0.0000
vn 0.0119 -0.9999 -0.0000
vn -0.0051 1.0000 -0.0000
vn -0.0044 -1.0000 -0.0000
vt 0.460144 0.839324
vt 0.451766 0.847703
vt 0.437847 0.847703
vt 0.429468 0.839324
vt 0.429468 0.825405
vt 0.437847 0.817026
vt 0.451766 0.817026
vt 0.460144 0.825405
vt 0.756000 0.733604
vt 0.769918 0.733604
vt 0.769918 0.806905
vt 0.756000 0.806905
vt 0.681885 0.821844
vt 0.667966 0.821844
vt 0.667966 0.748543
vt 0.681885 0.748543
vt 0.747609 0.733604
vt 0.733690 0.733604
vt 0.733690 0.660303
vt 0.747609 0.660303
vt 0.490821 0.839324
vt 0.482442 0.847703
vt 0.468523 0.847703
vt 0.468523 0.817026
vt 0.482442 0.817026
vt 0.490821 0.825405
vt 0.844360 0.703096
vt 0.844360 0.776397
vt 0.835973 0.776397
vt 0.835973 0.703096
vt 0.725299 0.733604
vt 0.725299 0.660303
vt 0.747609 0.806905
vt 0.690272 0.748543
vt 0.690272 0.821844
vt 0.858279 0.703096
vt 0.858279 0.776397
vt 0.521497 0.839324
vt 0.513118 0.847703
vt 0.499199 0.847703
vt 0.490821 0.839324
vt 0.490821 0.825405
vt 0.499199 0.817026
vt 0.513118 0.817026
vt 0.521497 0.825405
vt 0.443387 0.817026
vt 0.429468 0.817026
vt 0.429468 0.743725
vt 0.443387 0.743725
vt 0.849892 0.629795
vt 0.835973 0.629795
vt 0.835973 0.556494
vt 0.849892 0.556494
vt 0.574483 0.757596
vt 0.560564 0.757596
vt 0.560564 0.684295
vt 0.574483 0.684295
vt 0.778285 0.829202
vt 0.769906 0.837581
vt 0.755987 0.837581
vt 0.747609 0.829202
vt 0.747609 0.815283
vt 0.755987 0.806905
vt 0.769906 0.806905
vt 0.778285 0.815283
vt 0.844360 0.629795
vt 0.844360 0.703096
vt 0.835973 0.703096
vt 0.552173 0.757596
vt 0.552173 0.684295
vt 0.451778 0.743725
vt 0.451778 0.817026
vt 0.858279 0.556494
vt 0.858279 0.629795
vt 0.858279 0.629795
vt 0.858279 0.703096
vt 0.437847 0.878379
vt 0.429468 0.870000
vt 0.429468 0.856081
vt 0.437847 0.847703
vt 0.451766 0.847703
vt 0.460144 0.856081
vt 0.460144 0.870000
vt 0.451766 0.878379
vt 0.465697 0.817026
vt 0.465697 0.743725
vt 0.566092 0.830897
vt 0.552173 0.830897
vt 0.552173 0.757596
vt 0.566092 0.757596
vt 0.496397 0.817026
vt 0.482478 0.817026
vt 0.482478 0.743725
vt 0.496397 0.743725
vt 0.468523 0.878379
vt 0.460144 0.870000
vt 0.460144 0.856081
vt 0.468523 0.847703
vt 0.482442 0.847703
vt 0.490821 0.856081
vt 0.490821 0.870000
vt 0.482442 0.878379
vt 0.618602 0.796175
vt 0.618602 0.869476
vt 0.610215 0.869476
vt 0.610215 0.796175
vt 0.474088 0.817026
vt 0.474088 0.743725
vt 0.474087 0.817026
vt 0.574479 0.757596
vt 0.574479 0.830897
vt 0.632521 0.796175
vt 0.632521 0.869476
vt 0.552173 0.839324
vt 0.543794 0.847703
vt 0.529876 0.847703
vt 0.521497 0.839324
vt 0.521497 0.825405
vt 0.529876 0.817026
vt 0.543794 0.817026
vt 0.552173 0.825405
vt 0.588402 0.757596
vt 0.574483 0.757596
vt 0.574483 0.684295
vt 0.588402 0.684295
vt 0.588402 0.830897
vt 0.574483 0.830897
vt 0.574483 0.757596
vt 0.588402 0.757596
vt 0.769918 0.660303
vt 0.756000 0.660303
vt 0.756000 0.587002
vt 0.769918 0.587002
vt 0.698643 0.844142
vt 0.690264 0.852521
vt 0.676345 0.852521
vt 0.667966 0.844142
vt 0.667966 0.830223
vt 0.676345 0.821844
vt 0.690264 0.821844
vt 0.698643 0.830223
vt 0.640908 0.796175
vt 0.640908 0.869476
vt 0.632521 0.869476
vt 0.632521 0.796175
vt 0.747609 0.660303
vt 0.747609 0.587002
vt 0.596793 0.684295
vt 0.596793 0.757596
vt 0.596789 0.757596
vt 0.596789 0.830897
vt 0.654827 0.796175
vt 0.654826 0.869476
vt 0.499199 0.878379
vt 0.490821 0.870000
vt 0.490821 0.856081
vt 0.499199 0.847703
vt 0.521497 0.856081
vt 0.521497 0.870000
vt 0.513118 0.878379
vt 0.756000 0.660303
vt 0.769918 0.660303
vt 0.756000 0.733604
vt 0.704191 0.821844
vt 0.690272 0.821844
vt 0.704191 0.748543
vt 0.747609 0.660303
vt 0.733690 0.660303
vt 0.733690 0.587002
vt 0.747609 0.587002
vt 0.529876 0.878379
vt 0.521497 0.870000
vt 0.521497 0.856081
vt 0.552173 0.856081
vt 0.552173 0.870000
vt 0.543794 0.878379
vt 0.844360 0.849698
vt 0.835973 0.849698
vt 0.725299 0.660303
vt 0.725299 0.587002
vt 0.747609 0.733604
vt 0.747609 0.660303
vt 0.712578 0.748543
vt 0.712578 0.821844
vt 0.858279 0.849698
vt 0.582849 0.853194
vt 0.574471 0.861573
vt 0.560552 0.861573
vt 0.552173 0.853194
vt 0.552173 0.839276
vt 0.560552 0.830897
vt 0.574471 0.830897
vt 0.582849 0.839276
vt 0.739218 0.806905
vt 0.725299 0.806905
vt 0.725299 0.733604
vt 0.739218 0.733604
vt 0.532626 0.817026
vt 0.518707 0.817026
vt 0.518707 0.743725
vt 0.532626 0.743725
vt 0.518707 0.817026
vt 0.504788 0.817026
vt 0.504788 0.743725
vt 0.518707 0.743725
vt 0.778285 0.859878
vt 0.769906 0.868257
vt 0.755987 0.868257
vt 0.747609 0.859878
vt 0.747609 0.845960
vt 0.755987 0.837581
vt 0.769906 0.837581
vt 0.778285 0.845960
vt 0.733686 0.806905
vt 0.733686 0.880206
vt 0.725299 0.880206
vt 0.725299 0.806905
vt 0.496397 0.817026
vt 0.496397 0.743725
vt 0.541013 0.743725
vt 0.541013 0.817026
vt 0.747605 0.806905
vt 0.747605 0.880206
vt 0.599921 0.714971
vt 0.599250 0.706592
vt 0.599250 0.692674
vt 0.599921 0.684295
vt 0.601036 0.684295
vt 0.601707 0.692674
vt 0.601707 0.706592
vt 0.601036 0.714971
vt 0.022298 0.915062
vt 0.008379 0.915062
vt 0.008379 0.000000
vt 0.022298 0.000000
vt 0.964157 0.000000
vt 0.965272 0.000000
vt 0.965272 0.915061
vt 0.964157 0.915061
vt 0.052974 0.915062
vt 0.039055 0.915062
vt 0.039055 0.000000
vt 0.052974 0.000000
vt 0.597464 0.714971
vt 0.596793 0.706592
vt 0.596793 0.692674
vt 0.597464 0.684295
vt 0.598579 0.684295
vt 0.598579 0.714971
vt 0.061353 0.000000
vt 0.061353 0.915062
vt 0.030676 0.915062
vt 0.030676 0.000000
vt 0.030676 0.000000
vt 0.030676 0.915062
vt 0.000000 0.915062
vt 0.000000 0.000000
vt 0.966387 0.000000
vt 0.967502 0.000000
vt 0.967502 0.915061
vt 0.966387 0.915061
vt 0.603058 0.719522
vt 0.602386 0.711143
vt 0.602386 0.697225
vt 0.603058 0.688846
vt 0.604173 0.688846
vt 0.604844 0.697225
vt 0.604844 0.711143
vt 0.604173 0.719522
vt 0.175679 0.915062
vt 0.161760 0.915062
vt 0.161760 0.000000
vt 0.175679 0.000000
vt 0.968617 0.000000
vt 0.969732 0.000000
vt 0.969732 0.915061
vt 0.968617 0.915061
vt 0.083650 0.915062
vt 0.069731 0.915062
vt 0.069731 0.000000
vt 0.083650 0.000000
vt 0.605515 0.719522
vt 0.605515 0.688846
vt 0.606630 0.688846
vt 0.607301 0.697225
vt 0.607301 0.711143
vt 0.606630 0.719522
vt 0.092029 0.000000
vt 0.092029 0.915062
vt 0.061353 0.915062
vt 0.061353 0.000000
vt 0.184058 0.000000
vt 0.184058 0.915062
vt 0.153382 0.915062
vt 0.153382 0.000000
vt 0.967502 0.000000
vt 0.968617 0.000000
vt 0.968617 0.915061
vt 0.967502 0.915061
vt 0.607972 0.719522
vt 0.607301 0.711143
vt 0.607972 0.688846
vt 0.609087 0.688846
vt 0.609758 0.697225
vt 0.609758 0.711143
vt 0.609087 0.719522
vt 0.145003 0.915062
vt 0.131084 0.915062
vt 0.131084 0.000000
vt 0.145003 0.000000
vt 0.965272 0.000000
vt 0.966387 0.000000
vt 0.114327 0.915062
vt 0.100408 0.915062
vt 0.100408 0.000000
vt 0.114327 0.000000
vt 0.718851 0.616562
vt 0.718180 0.608183
vt 0.718180 0.594264
vt 0.718851 0.585885
vt 0.719966 0.585885
vt 0.720637 0.594264
vt 0.720637 0.608183
vt 0.719966 0.616562
vt 0.122705 0.000000
vt 0.122705 0.915062
vt 0.092029 0.915062
vt 0.092029 0.000000
vt 0.153382 0.000000
vt 0.153382 0.915061
vt 0.122705 0.915061
vt 0.122705 0.000000
vt 0.969732 -0.000000
vt 0.970847 0.000000
vt 0.970847 0.915061
vt 0.606630 0.658170
vt 0.607301 0.666548
vt 0.607301 0.680467
vt 0.606630 0.688846
vt 0.605515 0.688846
vt 0.604844 0.680467
vt 0.604844 0.666548
vt 0.605515 0.658170
vt 0.529876 0.000000
vt 0.543794 0.000000
vt 0.543794 0.743725
vt 0.529876 0.743725
vt 0.979767 0.000000
vt 0.980882 -0.000000
vt 0.980882 0.743725
vt 0.979767 0.743725
vt 0.513118 0.743725
vt 0.499199 0.743725
vt 0.499199 0.000000
vt 0.513118 0.000000
vt 0.719966 0.647238
vt 0.720637 0.655617
vt 0.720637 0.669535
vt 0.719966 0.677914
vt 0.718851 0.677914
vt 0.718180 0.669535
vt 0.718180 0.655617
vt 0.718851 0.647238
vt 0.521497 0.000000
vt 0.521497 0.743725
vt 0.490821 0.743725
vt 0.490821 0.000000
vt 0.521497 0.743725
vt 0.521497 0.000000
vt 0.552173 0.000000
vt 0.552173 0.743725
vt 0.980882 0.000000
vt 0.981997 0.000000
vt 0.981997 0.743725
vt 0.980882 0.743725
vt 0.609087 0.596817
vt 0.609758 0.605196
vt 0.609758 0.619115
vt 0.609087 0.627493
vt 0.607972 0.627493
vt 0.607301 0.619115
vt 0.607301 0.605196
vt 0.607972 0.596817
vt 0.437847 0.000000
vt 0.451766 0.000000
vt 0.451766 0.743725
vt 0.437847 0.743725
vt 0.981997 0.000000
vt 0.983112 -0.000000
vt 0.983112 0.743725
vt 0.981997 0.743725
vt 0.482442 0.743725
vt 0.468523 0.743725
vt 0.468523 0.000000
vt 0.482442 0.000000
vt 0.719966 0.616562
vt 0.720637 0.624940
vt 0.720637 0.638859
vt 0.719966 0.647238
vt 0.718851 0.647238
vt 0.718180 0.638859
vt 0.718180 0.624940
vt 0.718851 0.616562
vt 0.490821 0.000000
vt 0.490821 0.743725
vt 0.460144 0.743725
vt 0.460144 0.000000
vt 0.429468 0.743725
vt 0.429468 0.000000
vt 0.460144 0.000000
vt 0.460144 0.743725
vt 0.983112 0.000000
vt 0.984227 0.000000
vt 0.984227 0.743725
vt 0.609087 0.658170
vt 0.609758 0.666548
vt 0.609758 0.680467
vt 0.609087 0.688846
vt 0.607972 0.688846
vt 0.607972 0.658170
vt 0.315142 0.000000
vt 0.329061 0.000000
vt 0.329061 0.862406
vt 0.315142 0.862406
vt 0.970847 0.000000
vt 0.971962 -0.000000
vt 0.971962 0.862406
vt 0.970847 0.862406
vt 0.206355 0.862407
vt 0.192437 0.862407
vt 0.192437 0.000000
vt 0.206356 0.000000
vt 0.604173 0.596817
vt 0.604844 0.605196
vt 0.604844 0.619115
vt 0.604173 0.627493
vt 0.603058 0.627493
vt 0.602387 0.619115
vt 0.602387 0.605196
vt 0.603058 0.596817
vt 0.214734 0.000000
vt 0.214734 0.862407
vt 0.184058 0.862407
vt 0.184058 0.000000
vt 0.306763 0.862406
vt 0.306763 0.000000
vt 0.337439 0.000000
vt 0.337439 0.862406
vt 0.971962 0.000000
vt 0.973077 0.000000
vt 0.973077 0.862406
vt 0.604173 0.627493
vt 0.604844 0.635872
vt 0.604844 0.649791
vt 0.604173 0.658170
vt 0.603058 0.658170
vt 0.602386 0.649791
vt 0.602386 0.635872
vt 0.603058 0.627493
vt 0.345818 0.000000
vt 0.359737 0.000000
vt 0.359737 0.862406
vt 0.345818 0.862406
vt 0.973077 0.000000
vt 0.974192 -0.000000
vt 0.974192 0.862406
vt 0.237032 0.862407
vt 0.223113 0.862407
vt 0.223113 0.000000
vt 0.237032 0.000000
vt 0.606630 0.596817
vt 0.607301 0.605196
vt 0.607301 0.619115
vt 0.606630 0.627493
vt 0.605515 0.627493
vt 0.605515 0.596817
vt 0.245411 0.000000
vt 0.245411 0.862407
vt 0.214734 0.000000
vt 0.337439 0.862406
vt 0.337439 0.000000
vt 0.368116 0.000000
vt 0.368116 0.862406
vt 0.974192 0.000000
vt 0.975307 0.000000
vt 0.975307 0.862406
vt 0.666421 0.669260
vt 0.667092 0.677639
vt 0.667092 0.691557
vt 0.666421 0.699936
vt 0.665306 0.699936
vt 0.664635 0.691557
vt 0.664635 0.677639
vt 0.665306 0.669260
vt 0.376494 0.000000
vt 0.390413 0.000000
vt 0.390413 0.862406
vt 0.376494 0.862406
vt 0.975307 0.000000
vt 0.976422 -0.000000
vt 0.976422 0.862406
vt 0.267708 0.862407
vt 0.253789 0.862407
vt 0.253789 0.000000
vt 0.267708 0.000000
vt 0.606630 0.627493
vt 0.607301 0.635872
vt 0.607301 0.649791
vt 0.606630 0.658170
vt 0.605515 0.658170
vt 0.604844 0.649791
vt 0.604844 0.635872
vt 0.605515 0.627493
vt 0.276087 0.000000
vt 0.276087 0.862407
vt 0.245411 0.862407
vt 0.245411 0.000000
vt 0.368116 0.862406
vt 0.368116 0.000000
vt 0.398792 0.000000
vt 0.398792 0.862406
vt 0.976422 0.000000
vt 0.977537 0.000000
vt 0.977537 0.862406
vt 0.976422 0.862406
vt 0.609758 0.635872
vt 0.609758 0.649791
vt 0.609087 0.658170
vt 0.607972 0.658170
vt 0.607301 0.649791
vt 0.607301 0.635872
vt 0.407171 0.000000
vt 0.421089 0.000000
vt 0.421089 0.862406
vt 0.407171 0.862406
vt 0.977537 0.000000
vt 0.978652 -0.000000
vt 0.978652 0.862406
vt 0.977537 0.862406
vt 0.298384 0.862407
vt 0.284466 0.862407
vt 0.284466 0.000000
vt 0.298384 0.000000
vt 0.604173 0.658170
vt 0.604844 0.666548
vt 0.604844 0.680467
vt 0.604173 0.688846
vt 0.603058 0.688846
vt 0.602386 0.680467
vt 0.602386 0.666548
vt 0.603058 0.658170
vt 0.306763 0.000000
vt 0.306763 0.862407
vt 0.276087 0.000000
vt 0.398792 0.862406
vt 0.398792 0.000000
vt 0.429468 0.000000
vt 0.429468 0.862406
vt 0.978652 0.000000
vt 0.979767 0.000000
vt 0.979767 0.862406
vt 0.978652 0.862406
vt 0.720637 0.636099
vt 0.720637 0.610992
vt 0.721689 0.610992
vt 0.721689 0.636099
vt 0.806119 0.699506
vt 0.781012 0.699506
vt 0.781012 0.555396
vt 0.806119 0.555396
vt 0.720637 0.661205
vt 0.720637 0.636099
vt 0.721689 0.636099
vt 0.721689 0.661205
vt 0.577280 0.684295
vt 0.552173 0.684295
vt 0.552173 0.596817
vt 0.577280 0.596817
vt 0.833329 0.771561
vt 0.833329 0.915671
vt 0.832277 0.915671
vt 0.832277 0.771561
vt 0.664635 0.669260
vt 0.664635 0.581782
vt 0.665686 0.581782
vt 0.665686 0.669260
vt 0.721334 0.703021
vt 0.721334 0.677914
vt 0.722386 0.677914
vt 0.722386 0.703021
vt 0.835973 0.264289
vt 0.810866 0.264289
vt 0.808493 0.000000
vt 0.833599 0.000000
vt 0.721689 0.585885
vt 0.722740 0.585885
vt 0.722740 0.610992
vt 0.808493 0.291107
vt 0.783386 0.291107
vt 0.781013 0.000000
vt 0.806119 0.000000
vt 0.998949 0.291109
vt 0.998949 0.555395
vt 0.997897 0.555395
vt 0.997897 0.291109
vt 0.996845 0.291109
vt 0.996845 -0.000000
vt 0.997897 -0.000000
vt 0.997897 0.291109
vt 0.722740 0.610992
vt 0.722740 0.636099
vt 0.555238 0.447638
vt 0.580344 0.447519
vt 0.580100 0.596698
vt 0.554993 0.596817
vt 0.721689 0.661205
vt 0.722740 0.636099
vt 0.722740 0.661205
vt 0.606300 0.149278
vt 0.581194 0.149159
vt 0.585109 0.000000
vt 0.610215 0.000119
vt 0.986330 0.447528
vt 0.986330 0.596705
vt 0.985278 0.596705
vt 0.985278 0.447528
vt 0.984227 0.149173
vt 0.984227 0.000000
vt 0.985278 0.000000
vt 0.985278 0.149173
vt 0.722386 0.703021
vt 0.722386 0.677914
vt 0.723438 0.677914
vt 0.723438 0.703021
vt 0.667966 0.298353
vt 0.642860 0.298353
vt 0.639091 -0.000000
vt 0.664197 -0.000000
vt 0.664635 0.725043
vt 0.664635 0.699936
vt 0.665686 0.699936
vt 0.665686 0.725043
vt 0.639091 0.283430
vt 0.613984 0.283430
vt 0.610215 0.000000
vt 0.635322 0.000000
vt 0.992639 0.283433
vt 0.992639 0.581782
vt 0.991588 0.581782
vt 0.991588 0.283433
vt 0.990536 0.283433
vt 0.990536 0.000000
vt 0.991588 0.000000
vt 0.991588 0.283433
vt 0.722740 0.585885
vt 0.723792 0.585885
vt 0.723792 0.610992
vt 0.662531 0.744440
vt 0.662531 0.581782
vt 0.663583 0.581782
vt 0.663583 0.744440
vt 0.723792 0.636099
vt 0.664635 0.581782
vt 0.664635 0.744440
vt 0.663583 0.744440
vt 0.661480 0.796175
vt 0.661480 0.581782
vt 0.662532 0.581782
vt 0.662532 0.796175
vt 0.665686 0.725025
vt 0.665686 0.699936
vt 0.666738 0.699936
vt 0.666738 0.725025
vt 0.939051 -0.000000
vt 0.964157 -0.000000
vt 0.964157 0.484378
vt 0.939051 0.484378
vt 0.666738 0.725025
vt 0.666738 0.699936
vt 0.667789 0.699936
vt 0.667789 0.725025
vt 0.964157 0.968757
vt 0.939050 0.968757
vt 0.939050 0.484378
vt 0.964157 0.484378
vt 1.000000 0.000000
vt 1.000000 0.484023
vt 0.998948 0.484023
vt 0.998948 0.000000
vt 0.998949 0.968045
vt 0.998949 0.484023
vt 1.000000 0.484023
vt 1.000000 0.968045
vt 0.666738 0.606889
vt 0.666738 0.581782
vt 0.667789 0.581782
vt 0.667789 0.606889
vt 0.753156 0.182450
vt 0.728049 0.182450
vt 0.725299 -0.000000
vt 0.750406 -0.000000
vt 0.666738 0.631995
vt 0.667789 0.631995
vt 0.778262 0.205650
vt 0.753156 0.205650
vt 0.753156 -0.000000
vt 0.778262 -0.000000
vt 0.988433 0.404554
vt 0.988433 0.587001
vt 0.987381 0.587001
vt 0.987381 0.404554
vt 0.986330 0.205650
vt 0.986330 0.000000
vt 0.987381 0.000000
vt 0.987381 0.205650
vt 0.666738 0.657102
vt 0.667789 0.657102
vt 0.913944 0.578737
vt 0.888837 0.578737
vt 0.888837 0.000000
vt 0.913944 0.000000
vt 0.722740 0.661205
vt 0.723792 0.661205
vt 0.939050 0.578737
vt 0.913944 0.578737
vt 0.913944 0.000000
vt 0.939050 0.000000
vt 0.993691 0.000000
vt 0.993691 0.578737
vt 0.992639 0.578737
vt 0.992639 0.000000
vt 0.993691 0.000000
vt 0.994742 0.000000
vt 0.994742 0.578737
vt 0.720283 0.703021
vt 0.720283 0.677914
vt 0.721335 0.677914
vt 0.721335 0.703021
vt 0.862405 0.258142
vt 0.837298 0.258142
vt 0.835973 0.000000
vt 0.861080 0.000000
vt 0.720637 0.610992
vt 0.720637 0.585885
vt 0.721689 0.585885
vt 0.721689 0.610992
vt 0.888837 0.298353
vt 0.863730 0.298353
vt 0.862405 0.000000
vt 0.887512 0.000000
vt 0.995794 0.298354
vt 0.995794 0.556494
vt 0.994742 0.556494
vt 0.994742 0.298354
vt 0.995794 0.298354
vt 0.995794 0.000000
vt 0.996845 0.000000
vt 0.996845 0.298354
vt 0.718180 0.703021
vt 0.718180 0.677914
vt 0.719231 0.677914
vt 0.719231 0.703021
vt 0.671526 0.298353
vt 0.696633 0.298353
vt 0.693073 0.585885
vt 0.667966 0.585885
vt 0.719231 0.703021
vt 0.719231 0.677914
vt 0.720283 0.677914
vt 0.720283 0.703021
vt 0.700192 0.287533
vt 0.725299 0.287533
vt 0.721739 0.585885
vt 0.696633 0.585885
vt 0.990536 0.298349
vt 0.990536 0.585885
vt 0.989485 0.585885
vt 0.989485 0.298349
vt 0.988433 0.298349
vt 0.988433 0.000000
vt 0.989484 0.000000
vt 0.989484 0.298349
vt 0.635322 0.796175
vt 0.610215 0.796175
vt 0.610215 0.581782
vt 0.635322 0.581782
vt 0.660428 0.796175
vt 0.635322 0.796175
vt 0.635322 0.581782
vt 0.660428 0.581782
vt 0.693073 0.748543
vt 0.667966 0.748543
vt 0.667966 0.585885
vt 0.693073 0.585885
vt 0.660428 0.796175
vt 0.660428 0.581782
vt 0.723438 0.677914
vt 0.724489 0.677914
vt 0.724489 0.703021
vt 0.723438 0.703021
vt 0.724843 0.585885
vt 0.724843 0.610992
vt 0.718180 0.748543
vt 0.718180 0.585885
vt 0.990536 0.581782
vt 0.991588 0.581782
vt 0.992639 -0.000000
vt 0.991588 -0.000000
vt 0.635322 0.581782
vt 0.610215 0.581782
vt 0.664197 0.581782
vt 0.639091 0.581782
vt 0.984227 0.596705
vt 0.984227 0.447528
vt 0.985278 0.447528
vt 0.984227 0.298354
vt 0.985278 0.298354
vt 0.986330 0.000000
vt 0.986330 0.149173
vt 0.985278 0.149173
vt 0.985278 0.000000
vt 0.986330 0.298354
vt 0.607395 0.596817
vt 0.582288 0.596698
vt 0.582044 0.447519
vt 0.607150 0.447638
vt 0.585109 0.298356
vt 0.610215 0.298475
vt 0.552173 0.000119
vt 0.577280 -0.000000
vt 0.581194 0.149159
vt 0.556088 0.149278
vt 0.577280 0.298356
vt 0.552173 0.298475
vt 0.996845 0.555395
vt 0.997897 0.555395
vt 0.998949 0.000000
vt 0.997897 0.000000
vt 0.833599 0.555396
vt 0.808493 0.555396
vt 0.986330 0.587001
vt 0.986330 0.404554
vt 0.987381 0.404554
vt 0.987381 0.587001
vt 0.988433 0.000000
vt 0.988433 0.205650
vt 0.987381 0.205650
vt 0.987381 0.000000
vt 0.778262 0.587002
vt 0.753156 0.587002
vt 0.755906 0.404552
vt 0.781012 0.404552
vt 0.750406 0.587002
vt 0.725299 0.587002
vt 0.725299 0.381352
vt 0.750406 0.381352
vt 0.988433 0.585885
vt 0.989484 0.585885
vt 0.990536 0.000000
vt 0.989485 0.000000
vt 0.696633 0.000000
vt 0.721739 0.000000
vt 0.667966 0.000000
vt 0.693073 0.000000
vt 0.996845 0.556494
vt 0.995794 0.000000
vt 0.994742 0.000000
vt 0.887512 0.556494
vt 0.862405 0.556494
vt 0.861080 0.556494
vt 0.835973 0.556494
vt 0.831226 0.915671
vt 0.831226 0.771561
vt 0.832278 0.771561
vt 0.832278 0.915671
vt 0.831226 0.627451
vt 0.832278 0.627451
vt 0.833329 0.555396
vt 0.833329 0.627451
vt 0.832277 0.627451
vt 0.832277 0.555396
vt 0.831226 0.915671
vt 0.806119 0.915671
vt 0.806119 0.771561
vt 0.831226 0.771561
vt 0.806119 0.627451
vt 0.831226 0.627451
vt 0.724843 0.636099
vt 0.723792 0.636099
vt 0.723792 0.610992
vt 0.724843 0.610992
vt 0.806119 0.915671
vt 0.781012 0.915671
vt 0.781012 0.843616
vt 0.806119 0.843616
vt 0.602386 0.684295
vt 0.577280 0.684295
vt 0.577280 0.596817
vt 0.602386 0.596817
vt 0.666738 0.669260
vt 0.665686 0.669260
vt 0.665686 0.581782
vt 0.723792 0.661205
vt 0.723792 0.636099
vt 0.724843 0.636099
vt 0.724843 0.661205
vt 0.806119 0.555396
vt 0.831226 0.555396
vt 0.831226 0.555396
vt 0.832278 0.555396
s 0
usemtl tunelstructure_color
f 9/1/1 10/2/1 11/3/1 12/4/1 3/5/1 4/6/1 1/7/1 2/8/1
f 13/9/2 16/10/2 11/11/2 10/12/2
f 15/13/3 8/14/3 3/15/3 12/16/3
f 1/17/4 4/18/4 7/19/4 6/20/4
f 5/21/5 6/22/5 7/23/5 8/1/5 15/8/5 16/24/5 13/25/5 14/26/5
f 5/27/6 2/28/6 1/29/6 6/30/6
f 3/31/7 8/32/7 7/19/7 4/18/7
f 9/33/8 14/17/8 13/9/8 10/12/8
f 15/13/9 12/16/9 11/34/9 16/35/9
f 5/27/10 14/36/10 9/37/10 2/28/10
f 25/38/1 26/39/1 27/40/1 28/41/1 19/42/1 20/43/1 17/44/1 18/45/1
f 29/46/2 32/47/2 27/48/2 26/49/2
f 31/50/3 24/51/3 19/52/3 28/53/3
f 17/54/4 20/55/4 23/56/4 22/57/4
f 21/58/5 22/59/5 23/60/5 24/61/5 31/62/5 32/63/5 29/64/5 30/65/5
f 21/66/6 18/67/6 17/68/6 22/51/6
f 19/69/7 24/70/7 23/56/7 20/55/7
f 25/71/8 30/72/8 29/46/8 26/49/8
f 31/50/9 28/53/9 27/73/9 32/74/9
f 21/66/10 30/75/10 25/76/10 18/67/10
f 41/77/1 42/78/1 43/79/1 44/80/1 35/81/1 36/82/1 33/83/1 34/84/1
f 45/85/2 48/72/2 43/71/2 42/86/2
f 47/87/3 40/88/3 35/89/3 44/90/3
f 33/91/4 36/92/4 39/93/4 38/94/4
f 37/95/5 38/96/5 39/97/5 40/98/5 47/99/5 48/100/5 45/101/5 46/102/5
f 37/103/6 34/104/6 33/105/6 38/106/6
f 35/107/7 40/108/7 39/93/7 36/92/7
f 41/108/8 46/109/8 45/85/8 42/86/8
f 47/87/9 44/90/9 43/110/9 48/111/9
f 37/103/10 46/112/10 41/113/10 34/104/10
f 57/114/1 58/115/1 59/116/1 60/117/1 51/118/1 52/119/1 49/120/1 50/121/1
f 61/122/2 64/123/2 59/124/2 58/125/2
f 63/126/3 56/127/3 51/128/3 60/129/3
f 49/130/4 52/131/4 55/132/4 54/133/4
f 53/134/5 54/135/5 55/136/5 56/137/5 63/138/5 64/139/5 61/140/5 62/141/5
f 53/142/6 50/143/6 49/144/6 54/145/6
f 51/146/7 56/147/7 55/132/7 52/131/7
f 57/148/8 62/149/8 61/122/8 58/125/8
f 63/126/9 60/129/9 59/150/9 64/151/9
f 53/142/10 62/152/10 57/153/10 50/143/10
f 73/154/1 74/155/1 75/156/1 76/157/1 67/39/1 68/158/1 65/159/1 66/160/1
f 77/161/2 80/162/2 75/10/2 74/163/2
f 79/164/3 72/165/3 67/34/3 76/166/3
f 65/167/4 68/168/4 71/169/4 70/170/4
f 69/171/5 70/172/5 71/173/5 72/116/5 79/115/5 80/174/5 77/175/5 78/176/5
f 69/28/6 66/177/6 65/178/6 70/29/6
f 67/179/7 72/180/7 71/169/7 68/168/7
f 73/181/8 78/182/8 77/161/8 74/163/8
f 79/164/9 76/166/9 75/183/9 80/184/9
f 69/28/10 78/37/10 73/185/10 66/177/10
f 89/186/1 90/187/1 91/188/1 92/189/1 83/190/1 84/191/1 81/192/1 82/193/1
f 93/194/2 96/195/2 91/196/2 90/197/2
f 95/198/3 88/199/3 83/200/3 92/201/3
f 81/202/4 84/203/4 87/204/4 86/205/4
f 85/206/5 86/207/5 87/208/5 88/209/5 95/210/5 96/211/5 93/212/5 94/213/5
f 85/214/6 82/215/6 81/216/6 86/217/6
f 83/218/7 88/219/7 87/204/7 84/203/7
f 89/17/8 94/33/8 93/194/8 90/197/8
f 95/198/9 92/201/9 91/220/9 96/221/9
f 85/214/10 94/222/10 89/223/10 82/215/10
f 105/224/2 106/225/2 107/226/2 108/227/2 99/228/2 100/229/2 97/230/2 98/231/2
f 109/232/5 112/233/5 107/234/5 106/235/5
f 111/236/3 104/237/3 99/238/3 108/239/3
f 97/240/1 100/241/1 103/242/1 102/243/1
f 101/244/4 102/245/4 103/246/4 104/247/4 111/248/4 112/226/4 109/225/4 110/249/4
f 101/250/11 98/251/11 97/240/11 102/243/11
f 99/252/12 104/253/12 103/242/12 100/241/12
f 105/254/13 110/255/13 109/232/13 106/235/13
f 111/256/14 108/257/14 107/234/14 112/233/14
f 101/258/10 110/259/10 105/260/10 98/261/10
f 121/262/2 122/263/2 123/264/2 124/265/2 115/266/2 116/267/2 113/268/2 114/269/2
f 125/270/5 128/271/5 123/272/5 122/273/5
f 127/274/3 120/275/3 115/276/3 124/277/3
f 113/278/1 116/279/1 119/280/1 118/281/1
f 117/282/4 118/268/4 119/267/4 120/283/4 127/284/4 128/285/4 125/286/4 126/287/4
f 117/288/11 114/289/11 113/278/11 118/281/11
f 115/290/12 120/291/12 119/280/12 116/279/12
f 121/292/13 126/293/13 125/270/13 122/273/13
f 127/294/14 124/295/14 123/272/14 128/271/14
f 117/296/10 126/297/10 121/298/10 114/299/10
f 137/300/2 138/301/2 139/285/2 140/302/2 131/303/2 132/304/2 129/305/2 130/306/2
f 141/307/5 144/308/5 139/309/5 138/310/5
f 143/311/3 136/312/3 131/261/3 140/238/3
f 129/313/1 132/314/1 135/315/1 134/316/1
f 133/317/4 134/318/4 135/319/4 136/320/4 143/321/4 144/322/4 141/323/4 142/324/4
f 133/325/11 130/326/11 129/313/11 134/316/11
f 131/327/12 136/328/12 135/315/12 132/314/12
f 137/329/13 142/330/13 141/307/13 138/310/13
f 143/331/14 140/332/14 139/309/14 144/308/14
f 133/333/10 142/334/10 137/335/10 130/276/10
f 153/336/10 154/337/10 155/338/10 156/339/10 147/340/10 148/341/10 145/342/10 146/343/10
f 157/344/5 160/345/5 155/346/5 154/347/5
f 159/348/2 152/349/2 147/350/2 156/351/2
f 145/352/1 148/353/1 151/354/1 150/355/1
f 149/356/3 150/357/3 151/358/3 152/359/3 159/360/3 160/361/3 157/362/3 158/363/3
f 149/364/15 146/365/15 145/352/15 150/355/15
f 147/366/16 152/367/16 151/354/16 148/353/16
f 153/368/17 158/369/17 157/344/17 154/347/17
f 159/370/18 156/371/18 155/346/18 160/345/18
f 149/372/4 158/373/4 153/374/4 146/375/4
f 169/376/10 170/377/10 171/378/10 172/379/10 163/380/10 164/381/10 161/382/10 162/383/10
f 173/384/5 176/385/5 171/386/5 170/387/5
f 175/388/2 168/389/2 163/390/2 172/391/2
f 161/392/1 164/393/1 167/394/1 166/395/1
f 165/396/3 166/397/3 167/398/3 168/399/3 175/400/3 176/401/3 173/402/3 174/403/3
f 165/404/15 162/405/15 161/392/15 166/395/15
f 163/406/16 168/407/16 167/394/16 164/393/16
f 169/408/17 174/409/17 173/384/17 170/387/17
f 175/410/18 172/411/18 171/386/18 176/385/18
f 165/412/4 174/413/4 169/414/4 162/390/4
f 185/415/10 186/416/10 187/417/10 188/418/10 179/419/10 180/338/10 177/337/10 178/420/10
f 189/421/5 192/422/5 187/423/5 186/424/5
f 191/425/2 184/426/2 179/427/2 188/428/2
f 177/429/1 180/430/1 183/431/1 182/432/1
f 181/433/3 182/434/3 183/435/3 184/436/3 191/437/3 192/438/3 189/439/3 190/440/3
f 181/441/15 178/442/15 177/429/15 182/432/15
f 179/443/16 184/444/16 183/431/16 180/430/16
f 185/445/17 190/446/17 189/421/17 186/424/17
f 191/447/18 188/448/18 187/423/18 192/422/18
f 181/449/4 190/450/4 185/451/4 178/427/4
f 201/452/10 202/453/10 203/454/10 204/455/10 195/456/10 196/457/10 193/458/10 194/459/10
f 205/460/5 208/461/5 203/462/5 202/463/5
f 207/464/2 200/465/2 195/466/2 204/451/2
f 193/467/1 196/468/1 199/469/1 198/470/1
f 197/471/3 198/472/3 199/473/3 200/474/3 207/475/3 208/435/3 205/434/3 206/476/3
f 197/477/15 194/478/15 193/467/15 198/470/15
f 195/442/16 200/479/16 199/469/16 196/468/16
f 201/480/17 206/481/17 205/460/17 202/463/17
f 207/482/18 204/483/18 203/462/18 208/461/18
f 197/484/4 206/485/4 201/486/4 194/466/4
f 217/487/10 218/488/10 219/489/10 220/490/10 211/491/10 212/492/10 209/493/10 210/494/10
f 221/495/5 224/496/5 219/497/5 218/498/5
f 223/499/2 216/500/2 211/501/2 220/486/2
f 209/502/1 212/503/1 215/504/1 214/505/1
f 213/506/3 214/507/3 215/508/3 216/509/3 223/510/3 224/511/3 221/512/3 222/513/3
f 213/514/15 210/515/15 209/502/15 214/505/15
f 211/516/16 216/517/16 215/504/16 212/503/16
f 217/518/17 222/519/17 221/495/17 218/498/17
f 223/520/18 220/521/18 219/497/18 224/496/18
f 213/522/4 222/523/4 217/524/4 210/525/4
f 233/379/10 234/526/10 235/527/10 236/528/10 227/529/10 228/530/10 225/531/10 226/380/10
f 237/532/5 240/533/5 235/534/5 234/535/5
f 239/536/2 232/537/2 227/538/2 236/539/2
f 225/540/1 228/541/1 231/542/1 230/543/1
f 229/544/3 230/545/3 231/546/3 232/547/3 239/548/3 240/549/3 237/550/3 238/551/3
f 229/552/15 226/553/15 225/540/15 230/543/15
f 227/515/16 232/554/16 231/542/16 228/541/16
f 233/555/17 238/556/17 237/532/17 234/535/17
f 239/557/18 236/558/18 235/534/18 240/533/18
f 229/559/4 238/560/4 233/561/4 226/562/4
f 241/563/4 242/564/4 244/565/4 243/566/4
f 365/567/5 368/568/5 248/569/5 247/570/5
f 247/571/2 248/572/2 246/573/2 245/574/2
f 376/575/1 374/576/1 242/577/1 241/578/1
f 365/579/10 247/580/10 245/581/10 370/582/10
f 375/583/3 244/584/3 242/585/3 374/586/3
f 249/587/4 250/588/4 252/589/4 251/590/4
f 345/591/5 346/592/5 256/593/5 255/594/5
f 255/565/2 256/595/2 254/596/2 253/597/2
f 347/598/1 348/599/1 250/600/1 249/601/1
f 345/602/19 255/603/19 253/604/19 347/605/19
f 346/606/20 252/607/20 250/608/20 348/609/20
f 257/566/4 258/565/4 260/610/4 259/611/4
f 333/612/5 338/613/5 264/614/5 263/615/5
f 263/616/2 264/566/2 262/617/2 261/618/2
f 339/619/1 344/620/1 258/621/1 257/622/1
f 333/623/21 263/624/21 261/625/21 341/626/21
f 336/627/22 260/628/22 258/629/22 344/630/22
f 265/631/4 266/632/4 268/633/4 267/634/4
f 329/635/5 330/636/5 272/637/5 271/638/5
f 271/639/2 272/640/2 270/641/2 269/642/2
f 331/643/1 332/644/1 266/645/1 265/646/1
f 329/647/23 271/648/23 269/649/23 331/650/23
f 330/651/24 268/652/24 266/653/24 332/654/24
f 273/610/4 274/655/4 276/656/4 275/657/4
f 324/658/3 276/659/3 274/660/3 327/661/3
f 279/611/2 280/610/2 278/657/2 277/662/2
f 275/663/10 321/664/10 326/665/10 273/660/10
f 280/666/3 323/667/3 328/668/3 278/669/3
f 281/670/25 282/671/25 284/672/25 283/673/25
f 283/674/5 284/675/5 288/676/5 287/677/5
f 287/678/26 288/679/26 286/680/26 285/681/26
f 285/682/1 286/683/1 282/684/1 281/685/1
f 283/686/27 287/687/27 285/688/27 281/689/27
f 288/690/28 284/691/28 282/692/28 286/693/28
f 289/694/4 290/695/4 292/696/4 291/697/4
f 349/698/5 352/699/5 296/700/5 295/701/5
f 295/702/2 296/694/2 294/697/2 293/703/2
f 353/704/1 356/705/1 290/706/1 289/707/1
f 349/708/29 295/709/29 293/710/29 354/711/29
f 351/712/3 292/713/3 290/714/3 356/715/3
f 297/716/4 298/702/4 300/703/4 299/717/4
f 299/718/5 300/719/5 304/720/5 303/721/5
f 303/722/2 304/611/2 302/662/2 301/723/2
f 301/724/1 302/725/1 298/726/1 297/727/1
f 299/728/10 303/729/10 301/730/10 297/731/10
f 304/729/3 300/732/3 298/733/3 302/734/3
f 305/735/4 306/736/4 308/737/4 307/738/4
f 361/739/5 362/740/5 312/741/5 311/742/5
f 311/743/2 312/744/2 310/745/2 309/746/2
f 363/747/1 364/748/1 306/749/1 305/750/1
f 361/751/30 311/752/30 309/753/30 363/754/30
f 362/755/31 308/756/31 306/757/31 364/758/31
f 313/759/4 314/760/4 316/761/4 315/762/4
f 357/763/5 358/764/5 320/765/5 319/766/5
f 319/767/2 320/768/2 318/769/2 317/770/2
f 359/771/1 360/772/1 314/773/1 313/774/1
f 357/775/32 319/776/32 317/777/32 359/778/32
f 358/779/33 316/780/33 314/781/33 360/782/33
f 277/783/1 278/784/1 328/785/1 325/786/1
f 322/787/5 323/788/5 280/789/5 279/790/5
f 326/791/1 327/792/1 274/793/1 273/794/1
f 322/667/10 279/666/10 277/795/10 325/796/10
f 324/797/2 327/798/2 326/799/2 321/800/2
f 328/656/4 323/801/4 322/802/4 325/657/4
f 275/803/5 276/791/5 324/794/5 321/804/5
f 272/805/34 330/651/34 332/654/34 270/806/34
f 267/807/35 329/647/35 331/650/35 265/808/35
f 269/809/1 270/810/1 332/644/1 331/643/1
f 267/811/5 268/812/5 330/636/5 329/635/5
f 264/813/36 338/814/36 342/815/36 262/625/36
f 338/814/37 337/816/37 343/817/37 342/815/37
f 337/816/38 336/627/38 344/630/38 343/817/38
f 259/818/39 335/819/39 339/820/39 257/821/39
f 335/819/40 334/822/40 340/817/40 339/820/40
f 334/822/41 333/623/41 341/626/41 340/817/41
f 261/823/1 262/824/1 342/825/1 341/826/1
f 341/826/1 342/825/1 343/827/1 340/828/1
f 340/828/1 343/827/1 344/620/1 339/619/1
f 259/829/5 260/830/5 336/831/5 335/832/5
f 335/832/5 336/831/5 337/833/5 334/834/5
f 334/834/5 337/833/5 338/613/5 333/612/5
f 256/835/42 346/606/42 348/609/42 254/836/42
f 251/837/43 345/602/43 347/605/43 249/838/43
f 253/570/1 254/569/1 348/599/1 347/598/1
f 251/839/5 252/840/5 346/592/5 345/591/5
f 296/841/44 352/842/44 355/843/44 294/844/44
f 352/842/45 351/712/45 356/715/45 355/843/45
f 291/845/10 350/846/10 353/847/10 289/848/10
f 350/846/46 349/708/46 354/711/46 353/847/46
f 293/849/1 294/850/1 355/851/1 354/852/1
f 354/852/1 355/851/1 356/705/1 353/704/1
f 291/853/5 292/854/5 351/855/5 350/856/5
f 350/856/5 351/855/5 352/699/5 349/698/5
f 320/857/47 358/779/47 360/782/47 318/858/47
f 315/859/48 357/775/48 359/778/48 313/860/48
f 317/861/1 318/862/1 360/772/1 359/771/1
f 315/863/5 316/864/5 358/764/5 357/763/5
f 312/752/49 362/755/49 364/758/49 310/865/49
f 307/866/50 361/751/50 363/754/50 305/867/50
f 309/868/1 310/869/1 364/748/1 363/747/1
f 307/870/5 308/871/5 362/740/5 361/739/5
f 248/872/3 368/873/3 371/874/3 246/875/3
f 368/873/3 367/876/3 372/877/3 371/874/3
f 377/878/10 366/879/10 369/880/10 379/881/10
f 366/879/10 365/579/10 370/582/10 369/880/10
f 245/882/1 246/883/1 371/884/1 370/885/1
f 370/885/1 371/884/1 372/886/1 369/887/1
f 377/888/4 379/889/4 380/890/4 378/891/4
f 377/892/5 378/893/5 367/894/5 366/895/5
f 366/895/5 367/894/5 368/568/5 365/567/5
f 243/896/5 244/897/5 375/898/5 373/899/5
f 243/695/10 373/900/10 376/901/10 241/902/10
f 373/903/2 375/904/2 374/905/2 376/906/2
f 369/887/1 372/886/1 380/907/1 379/908/1
f 367/876/3 378/909/3 380/910/3 372/877/3
