# Blender v2.79 (sub 0) OBJ File: ''
# www.blender.org
mtllib LargePillar.mtl
o mesh_88
v -0.708899 0.950564 -0.664918
v -0.032991 0.950563 -0.947097
v -1.396501 0.818249 -1.578305
v -0.032991 0.950563 -0.947097
v -0.029465 0.818249 -1.666775
v -0.032991 0.950563 -0.947097
v 1.300673 0.818249 -1.588823
v 0.637450 0.950564 -0.666336
v 1.633121 0.818249 0.008771
v 0.912996 0.950564 0.006265
v 1.633121 0.818249 0.008771
v 0.646213 0.950564 0.665739
v 1.333956 0.818249 1.578612
v -1.333088 -0.016824 -1.506292
v -1.621081 -0.016824 0.035622
v -1.382619 0.122694 -1.546247
v -1.621081 -0.016824 0.035622
v -1.698665 0.122694 0.037017
v -1.265872 -0.016824 1.551712
v -1.314119 0.122694 1.592666
v 0.003798 -0.016824 1.590246
v 0.006310 0.122694 1.668272
v 1.270557 -0.016824 1.506769
v 1.320104 0.122694 1.546694
v -1.396501 0.818249 -1.578305
v -1.382619 0.122694 -1.546247
v -1.695405 0.818249 0.035421
v -1.698665 0.122694 0.037017
v -1.695405 0.818249 0.035421
v -1.314119 0.122694 1.592666
v -1.321576 0.818249 1.623842
v -1.314119 0.122694 1.592666
v 0.010138 0.818249 1.667220
v 0.006310 0.122694 1.668272
v 0.010138 0.818249 1.667220
v 1.320104 0.122694 1.546694
v 1.333956 0.818249 1.578612
v 1.680926 6.654455 -0.092625
v 1.266803 6.290563 0.000631
v 0.897165 6.156288 -0.901620
v 0.829673 5.372531 -0.826323
v 0.033939 5.337993 -1.149369
v 0.584620 5.147826 -0.579538
v 0.046598 5.129143 -0.804734
v 0.744125 3.978882 -0.931436
v -0.065610 4.003172 -1.267740
v 0.881309 6.431243 0.894988
v 0.757841 5.436131 0.773633
v 1.134993 5.418677 -0.032286
v 0.512420 5.196085 0.533737
v 0.805129 5.194778 -0.041769
v 0.839356 3.979199 0.916821
v 1.078815 3.917760 0.034225
v 1.443675 3.091084 0.096575
v 1.078815 3.917760 0.034225
v 1.055543 2.999074 -1.103470
v 0.744125 3.978882 -0.931436
v 0.076806 2.916030 -1.521993
v -0.065610 4.003172 -1.267740
v 0.076806 2.916030 -1.521993
v -1.116288 2.994071 -1.038482
v -1.096671 1.921525 -1.045740
v 0.744125 3.978882 -0.931436
v 0.584620 5.147826 -0.579538
v 1.078815 3.917760 0.034225
v 0.584620 5.147826 -0.579538
v 0.805129 5.194778 -0.041769
v 0.829673 5.372531 -0.826323
v 1.134993 5.418677 -0.032286
v 1.266803 6.290563 0.000631
v 0.881309 6.431243 0.894988
v 1.680926 6.654455 -0.092625
v 1.389495 6.782239 1.561801
v 1.680926 6.654455 -0.092625
v 1.642016 8.864218 1.740824
v 2.008424 8.865501 0.000563
v 1.440459 9.102744 1.623076
v 2.008424 8.865501 0.000563
v 1.811095 9.126025 -0.000534
v 2.008424 8.865501 0.000563
v 1.434834 9.115424 -1.612744
v 1.638557 8.836530 -1.765870
v 1.434834 9.115424 -1.612744
v -0.036726 8.767279 -1.877251
v -0.038220 9.049016 -1.693607
v -0.036726 8.767279 -1.877251
v -1.550680 9.041321 -1.597054
v -0.036726 8.767279 -1.877251
v -1.653784 8.702154 -1.765736
v -0.026072 6.498082 -1.654876
v -1.492260 6.633821 -1.523345
v -0.014937 6.160830 -1.274576
v -0.966864 6.177961 -0.870024
v -0.884972 5.465796 -0.785677
v 2.008424 8.865501 0.000563
v 1.680926 6.654455 -0.092625
v 1.638557 8.836530 -1.765870
v 1.680926 6.654455 -0.092625
v 1.401617 6.518265 -1.580446
v 0.897165 6.156288 -0.901620
v -0.014937 6.160830 -1.274576
v 0.033939 5.337993 -1.149369
v -0.884972 5.465796 -0.785677
v 0.046598 5.129143 -0.804734
v -0.574135 5.196085 -0.531145
v -0.065610 4.003172 -1.267740
v -0.821075 3.852702 -0.821083
v -1.116288 2.994071 -1.038482
v -0.032991 0.950563 -0.947097
v -0.037084 1.921525 -1.488133
v 0.637450 0.950564 -0.666336
v 1.017025 1.921525 -1.046704
v 0.637450 0.950564 -0.666336
v 1.450256 1.921525 0.010802
v 0.912996 0.950564 0.006265
v 1.450256 1.921525 0.010802
v 0.646213 0.950564 0.665739
v 1.450256 1.921525 0.010802
v 1.033919 1.921525 1.046401
v 1.450256 1.921525 0.010802
v 1.162068 2.890598 1.090285
v 1.443675 3.091084 0.096575
v 0.839356 3.979199 0.916821
v -0.708899 0.950564 -0.664918
v -1.096671 1.921525 -1.045740
v -0.032991 0.950563 -0.947097
v -1.096671 1.921525 -1.045740
v -0.037084 1.921525 -1.488133
v 0.076806 2.916030 -1.521993
v 1.017025 1.921525 -1.046704
v 1.055543 2.999074 -1.103470
v 1.450256 1.921525 0.010802
v 1.443675 3.091084 0.096575
v 0.646213 0.950564 0.665739
v -0.005029 0.950564 0.947693
v 1.333956 0.818249 1.578612
v -0.005029 0.950564 0.947693
v 0.010138 0.818249 1.667220
v -0.005029 0.950564 0.947693
v -1.321576 0.818249 1.623842
v -0.682536 0.950564 0.684440
v -1.695405 0.818249 0.035421
v -0.975458 0.950564 0.019222
v -1.695405 0.818249 0.035421
v -0.708899 0.950564 -0.664918
v -1.396501 0.818249 -1.578305
v 1.270557 -0.016824 1.506769
v 1.558798 -0.016824 0.006668
v 1.320104 0.122694 1.546694
v 1.558798 -0.016824 0.006668
v 1.636421 0.122694 0.007260
v 1.243084 -0.016824 -1.518136
v 1.292409 0.122694 -1.557851
v -0.025156 -0.016824 -1.589633
v -0.025611 0.122694 -1.667727
v -1.333088 -0.016824 -1.506292
v -1.382619 0.122694 -1.546247
v 1.333956 0.818249 1.578612
v 1.320104 0.122694 1.546694
v 1.633121 0.818249 0.008771
v 1.636421 0.122694 0.007260
v 1.633121 0.818249 0.008771
v 1.292409 0.122694 -1.557851
v 1.300673 0.818249 -1.588823
v 1.292409 0.122694 -1.557851
v -0.029465 0.818249 -1.666775
v -0.025611 0.122694 -1.667727
v -0.029465 0.818249 -1.666775
v -1.382619 0.122694 -1.546247
v -1.396501 0.818249 -1.578305
v -0.006371 9.042377 1.694400
v 1.440459 9.102744 1.623076
v -0.035274 9.153578 0.000688
v 1.811095 9.126025 -0.000534
v -0.035274 9.153578 0.000688
v 1.434834 9.115424 -1.612744
v -0.038220 9.049016 -1.693607
v -0.038220 9.049016 -1.693607
v -1.550680 9.041321 -1.597054
v -0.035274 9.153578 0.000688
v -1.873077 9.126025 0.049345
v -0.035274 9.153578 0.000688
v -1.503035 9.041321 1.638148
v -0.006371 9.042377 1.694400
v 1.033919 1.921525 1.046401
v 1.162068 2.890598 1.090285
v -0.099857 2.916030 1.525247
v 1.162068 2.890598 1.090285
v 0.035545 4.003172 1.267526
v 0.839356 3.979199 0.916821
v 0.035545 4.003172 1.267526
v 0.512420 5.196085 0.533737
v 0.035545 4.003172 1.267526
v -0.088604 5.129143 0.807174
v 0.035545 4.003172 1.267526
v -0.782652 3.978881 0.952366
v -0.099857 2.916030 1.525247
v -0.782652 3.978881 0.952366
v -1.089134 2.999074 1.132285
v -1.138490 3.917760 0.065536
v -1.089134 2.999074 1.132285
v -1.508304 3.091084 -0.057274
v -1.089134 2.999074 1.132285
v -1.512654 1.921525 0.028641
v -1.089134 2.999074 1.132285
v -1.052104 1.921525 1.074538
v -0.099857 2.916030 1.525247
v 0.013115 1.921525 1.488440
v 1.033919 1.921525 1.046401
v 0.013115 1.921525 1.488440
v 0.646213 0.950564 0.665739
v 0.013115 1.921525 1.488440
v -0.005029 0.950564 0.947693
v -1.052104 1.921525 1.074538
v -0.682536 0.950564 0.684440
v -1.052104 1.921525 1.074538
v -0.975458 0.950564 0.019222
v -1.512654 1.921525 0.028641
v -0.708899 0.950564 -0.664918
v -1.512654 1.921525 0.028641
v -1.096671 1.921525 -1.045740
v -1.508304 3.091084 -0.057274
v -1.116288 2.994071 -1.038482
v -1.508304 3.091084 -0.057274
v -0.821075 3.852702 -0.821083
v -1.138490 3.917760 0.065536
v -0.866694 5.194778 0.064167
v -0.632293 5.147826 0.596027
v -0.870853 5.372531 0.849094
v -0.066997 5.337993 1.151364
v -0.936052 6.156288 0.926391
v -0.014572 6.160830 1.275531
v -1.422768 6.518265 1.618157
v 0.006373 6.498082 1.655481
v 0.022863 8.767279 1.877437
v -0.821075 3.852702 -0.821083
v -0.866694 5.194778 0.064167
v -0.574135 5.196085 -0.531145
v -0.866694 5.194778 0.064167
v -0.884972 5.465796 -0.785677
v -0.866694 5.194778 0.064167
v -1.196693 5.418677 0.063254
v -0.870853 5.372531 0.849094
v -1.173877 6.192780 0.034647
v -0.936052 6.156288 0.926391
v -1.742838 6.654455 0.037887
v -1.422768 6.518265 1.618157
v -2.070368 8.865501 0.053373
v -1.422768 6.518265 1.618157
v -1.654748 8.836530 1.809604
v 0.022863 8.767279 1.877437
v -1.503035 9.041321 1.638148
v 0.022863 8.767279 1.877437
v -0.006371 9.042377 1.694400
v 0.022863 8.767279 1.877437
v 1.440459 9.102744 1.623076
v 0.022863 8.767279 1.877437
v 1.642016 8.864218 1.740824
v 0.006373 6.498082 1.655481
v 1.389495 6.782239 1.561801
v 0.006373 6.498082 1.655481
v 0.881309 6.431243 0.894988
v -0.014572 6.160830 1.275531
v 0.757841 5.436131 0.773633
v -0.066997 5.337993 1.151364
v 0.512420 5.196085 0.533737
v -0.066997 5.337993 1.151364
v -0.088604 5.129143 0.807174
v -0.632293 5.147826 0.596027
v -0.782652 3.978881 0.952366
v -1.138490 3.917760 0.065536
v -1.196693 5.418677 0.063254
v -1.173877 6.192780 0.034647
v -0.884972 5.465796 -0.785677
v -1.173877 6.192780 0.034647
v -0.966864 6.177961 -0.870024
v -1.742838 6.654455 0.037887
v -1.492260 6.633821 -1.523345
v -1.742838 6.654455 0.037887
v -1.653784 8.702154 -1.765736
v -2.070368 8.865501 0.053373
v -1.550680 9.041321 -1.597054
v -2.070368 8.865501 0.053373
v -1.873077 9.126025 0.049345
v -2.070368 8.865501 0.053373
v -1.503035 9.041321 1.638148
v -1.654748 8.836530 1.809604
v -0.014937 6.160830 -1.274576
v -0.026072 6.498082 -1.654876
v 1.401617 6.518265 -1.580446
v -0.026072 6.498082 -1.654876
v 1.638557 8.836530 -1.765870
v -0.036726 8.767279 -1.877251
vt 0.826496 0.004679
vt 0.826496 0.202745
vt 0.904799 0.004580
vt 0.826496 0.202745
vt 0.904799 0.232033
vt 0.826496 0.202745
vt 0.904799 0.445068
vt 0.826496 0.451372
vt 0.904799 0.719778
vt 0.826496 0.733516
vt 0.904799 0.719778
vt 0.826496 0.994235
vt 0.904799 0.994241
vt 1.000675 0.994240
vt 1.000675 0.721123
vt 0.963567 0.994242
vt 1.000675 0.721123
vt 0.963567 0.719457
vt 1.000675 0.443331
vt 0.963567 0.446837
vt 1.000675 0.228813
vt 0.963567 0.232715
vt 1.000675 0.004585
vt 0.963567 0.004583
vt 0.904799 0.994241
vt 0.963567 0.994242
vt 0.904799 0.719778
vt 0.963567 0.719457
vt 0.904799 0.719778
vt 0.963567 0.446837
vt 0.904799 0.445068
vt 0.963567 0.446837
vt 0.904799 0.232033
vt 0.963567 0.232715
vt 0.904799 0.232033
vt 0.963567 0.004583
vt 0.904799 0.004580
vt 0.163740 0.721049
vt 0.231099 0.722774
vt 0.242444 0.466687
vt 0.285306 0.456782
vt 0.287554 0.214966
vt 0.314221 0.440428
vt 0.315437 0.195300
vt 0.446036 0.426258
vt 0.444185 0.207012
vt 0.202683 0.994247
vt 0.276582 0.994242
vt 0.282304 0.723092
vt 0.308060 0.994232
vt 0.311166 0.729122
vt 0.455651 0.994245
vt 0.450694 0.690491
vt 0.583063 0.741098
vt 0.450694 0.690491
vt 0.590837 0.464020
vt 0.446036 0.426258
vt 0.597854 0.248711
vt 0.444185 0.207012
vt 0.597854 0.248711
vt 0.600002 0.004648
vt 0.697015 0.004644
vt 0.446036 0.426258
vt 0.314221 0.440428
vt 0.450694 0.690491
vt 0.314221 0.440428
vt 0.311166 0.729122
vt 0.285306 0.456782
vt 0.282304 0.723092
vt 0.231099 0.722774
vt 0.202683 0.994247
vt 0.163740 0.721049
vt 0.154171 0.994247
vt 0.163740 0.721049
vt 0.017101 0.994255
vt 0.016992 0.715441
vt -0.003053 0.994249
vt 0.016992 0.715441
vt -0.005020 0.716555
vt 0.016992 0.715441
vt -0.004124 0.458139
vt 0.019440 0.465697
vt -0.004124 0.458139
vt 0.025291 0.235008
vt 0.001487 0.231134
vt 0.025291 0.235008
vt 0.007326 0.004605
vt 0.025291 0.235008
vt 0.030793 0.004594
vt 0.175450 0.227588
vt 0.158546 0.004585
vt 0.237685 0.223986
vt 0.197751 0.004651
vt 0.283566 0.004657
vt 0.016992 0.715441
vt 0.163740 0.721049
vt 0.019440 0.465697
vt 0.163740 0.721049
vt 0.173939 0.455256
vt 0.242444 0.466687
vt 0.237685 0.223986
vt 0.287554 0.214966
vt 0.283566 0.004657
vt 0.315437 0.195300
vt 0.307538 0.004681
vt 0.444185 0.207012
vt 0.446012 0.004635
vt 0.600002 0.004648
vt 0.826496 0.202745
vt 0.697015 0.226173
vt 0.826496 0.451372
vt 0.697015 0.465649
vt 0.826496 0.451372
vt 0.697015 0.722383
vt 0.826496 0.733516
vt 0.697015 0.722383
vt 0.826496 0.994235
vt 0.697015 0.722383
vt 0.697015 0.994248
vt 0.697015 0.722383
vt 0.579085 0.994249
vt 0.583063 0.741098
vt 0.455651 0.994245
vt 0.826496 0.004679
vt 0.697015 0.004644
vt 0.826496 0.202745
vt 0.697015 0.004644
vt 0.697015 0.226173
vt 0.597854 0.248711
vt 0.697015 0.465649
vt 0.590837 0.464020
vt 0.697015 0.722383
vt 0.583063 0.741098
vt 0.826496 0.004679
vt 0.826496 0.202745
vt 0.904799 0.004580
vt 0.826496 0.202745
vt 0.904799 0.232033
vt 0.826496 0.202745
vt 0.904799 0.445068
vt 0.826496 0.451372
vt 0.904799 0.719778
vt 0.826496 0.733516
vt 0.904799 0.719778
vt 0.826496 0.994235
vt 0.904799 0.994241
vt 1.000675 0.994240
vt 1.000675 0.721123
vt 0.963567 0.994242
vt 1.000675 0.721123
vt 0.963567 0.719457
vt 1.000675 0.443331
vt 0.963567 0.446837
vt 1.000675 0.228813
vt 0.963567 0.232715
vt 1.000675 0.004585
vt 0.963567 0.004583
vt 0.904799 0.994241
vt 0.963567 0.994242
vt 0.904799 0.719778
vt 0.963567 0.719457
vt 0.904799 0.719778
vt 0.963567 0.446837
vt 0.904799 0.445068
vt 0.963567 0.446837
vt 0.904799 0.232033
vt 0.963567 0.232715
vt 0.904799 0.232033
vt 0.963567 0.004583
vt 0.904799 0.004580
vt 0.053109 1.000000
vt 0.000000 1.000000
vt 0.053109 0.499988
vt 0.000000 0.498499
vt 0.053109 0.499988
vt 0.000000 0.000000
vt 0.053109 0.000000
vt 0.057087 1.000000
vt 0.000000 1.000000
vt 0.057087 0.500012
vt 0.000000 0.493016
vt 0.057087 0.500012
vt 0.000000 0.000000
vt 0.057087 0.000000
vt 0.697015 0.004644
vt 0.600002 0.004648
vt 0.597854 0.248711
vt 0.600002 0.004648
vt 0.444185 0.207012
vt 0.446012 0.004635
vt 0.444185 0.207012
vt 0.307538 0.004681
vt 0.444185 0.207012
vt 0.315437 0.195300
vt 0.444185 0.207012
vt 0.446036 0.426258
vt 0.597854 0.248711
vt 0.446036 0.426258
vt 0.590837 0.464020
vt 0.450694 0.690491
vt 0.590837 0.464020
vt 0.583063 0.741098
vt 0.590837 0.464020
vt 0.697015 0.722383
vt 0.590837 0.464020
vt 0.697015 0.465649
vt 0.597854 0.248711
vt 0.697015 0.226173
vt 0.697015 0.004644
vt 0.697015 0.226173
vt 0.826496 0.004679
vt 0.697015 0.226173
vt 0.826496 0.202745
vt 0.697015 0.465649
vt 0.826496 0.451372
vt 0.697015 0.465649
vt 0.826496 0.733516
vt 0.697015 0.722383
vt 0.826496 0.994235
vt 0.697015 0.722383
vt 0.697015 0.994248
vt 0.583063 0.741098
vt 0.579085 0.994249
vt 0.583063 0.741098
vt 0.455651 0.994245
vt 0.450694 0.690491
vt 0.311166 0.729122
vt 0.314221 0.440428
vt 0.285306 0.456782
vt 0.287554 0.214966
vt 0.242444 0.466687
vt 0.237685 0.223986
vt 0.173939 0.455256
vt 0.175450 0.227588
vt 0.025291 0.235008
vt 0.455651 0.994245
vt 0.311166 0.729122
vt 0.308060 0.994232
vt 0.311166 0.729122
vt 0.276582 0.994242
vt 0.311166 0.729122
vt 0.282304 0.723092
vt 0.285306 0.456782
vt 0.231099 0.722774
vt 0.242444 0.466687
vt 0.163740 0.721049
vt 0.173939 0.455256
vt 0.016992 0.715441
vt 0.173939 0.455256
vt 0.019440 0.465697
vt 0.025291 0.235008
vt -0.004124 0.458139
vt 0.025291 0.235008
vt 0.001487 0.231134
vt 0.025291 0.235008
vt 0.007326 0.004605
vt 0.025291 0.235008
vt 0.030793 0.004594
vt 0.175450 0.227588
vt 0.158546 0.004585
vt 0.175450 0.227588
vt 0.197751 0.004651
vt 0.237685 0.223986
vt 0.283566 0.004657
vt 0.287554 0.214966
vt 0.307538 0.004681
vt 0.287554 0.214966
vt 0.315437 0.195300
vt 0.314221 0.440428
vt 0.446036 0.426258
vt 0.450694 0.690491
vt 0.282304 0.723092
vt 0.231099 0.722774
vt 0.276582 0.994242
vt 0.231099 0.722774
vt 0.202683 0.994247
vt 0.163740 0.721049
vt 0.154171 0.994247
vt 0.163740 0.721049
vt 0.017101 0.994255
vt 0.016992 0.715441
vt -0.003053 0.994249
vt 0.016992 0.715441
vt -0.005020 0.716555
vt 0.016992 0.715441
vt -0.004124 0.458139
vt 0.019440 0.465697
vt 0.237685 0.223986
vt 0.175450 0.227588
vt 0.173939 0.455256
vt 0.175450 0.227588
vt 0.019440 0.465697
vt 0.025291 0.235008
vn -0.0457 0.9929 -0.1094
vn -0.0224 0.4876 0.8728
vn -0.0284 0.9890 -0.1455
vn -0.0042 0.3550 0.9348
vn -0.0005 0.9835 -0.1808
vn 0.0218 0.8342 0.5510
vn 0.0847 0.9919 -0.0946
vn 0.1082 0.9914 -0.0739
vn 0.1109 0.6629 0.7404
vn 0.1807 0.9835 -0.0007
vn 0.1060 0.6379 0.7628
vn 0.1599 0.9862 0.0416
vn 0.1517 0.9880 0.0289
vn -0.9122 -0.3726 -0.1704
vn -0.0549 -0.0224 0.9982
vn -0.9090 -0.3803 -0.1706
vn -0.7777 -0.4327 0.4559
vn -0.8755 -0.4828 0.0149
vn -0.5461 -0.4078 0.7317
vn -0.5883 -0.4184 0.6919
vn 0.0042 -0.4817 0.8763
vn 0.0052 -0.4816 0.8763
vn 0.0859 -0.3154 0.9450
vn 0.0878 -0.3027 0.9490
vn -0.9829 -0.0280 -0.1820
vn -0.9824 -0.0199 -0.1855
vn -0.7728 -0.0033 0.6346
vn -0.9997 0.0047 0.0229
vn -0.6174 -0.0010 0.7866
vn -0.6276 -0.0091 0.7785
vn -0.6271 -0.0416 0.7778
vn -0.0201 -0.0154 0.9997
vn -0.0248 -0.0063 0.9997
vn 0.0173 0.0014 0.9998
vn 0.0423 -0.0069 0.9991
vn 0.0745 -0.0323 0.9967
vn 0.0667 -0.0471 0.9966
vn 0.6341 -0.7592 -0.1468
vn 0.7525 -0.6223 -0.2156
vn 0.8118 -0.2427 -0.5311
vn 0.5238 -0.4001 -0.7520
vn 0.3177 -0.6204 -0.7170
vn 0.3669 -0.3934 -0.8430
vn 0.3771 -0.3356 -0.8632
vn 0.3673 0.3190 -0.8737
vn 0.3714 0.3212 -0.8711
vn 0.8924 -0.1621 0.4211
vn 0.7909 -0.4793 0.3805
vn 0.7240 -0.5919 0.3541
vn 0.8505 -0.3023 0.4304
vn 0.8505 -0.3624 0.3812
vn 0.9112 0.3116 0.2695
vn 0.7581 0.2629 0.5968
vn 0.9098 0.3911 -0.1387
vn 0.8019 0.3183 0.5056
vn 0.6803 0.3380 -0.6503
vn 0.6700 0.3245 -0.6677
vn 0.7749 0.5591 0.2947
vn 0.0887 0.2378 -0.9672
vn -0.8943 0.2622 -0.3626
vn -0.3716 0.0596 -0.9265
vn -0.3756 -0.0006 -0.9268
vn 0.9261 0.2188 -0.3071
vn 0.4642 0.1097 0.8789
vn 0.9212 0.2050 -0.3306
vn 0.7998 -0.5048 0.3247
vn 0.8459 -0.4314 -0.3137
vn 0.7569 -0.6028 -0.2523
vn 0.9032 -0.4032 -0.1471
vn 0.8650 -0.4019 0.3004
vn 0.6237 -0.7353 0.2650
vn 0.3268 -0.4361 0.8384
vn 0.8819 -0.4321 0.1887
vn 0.6102 -0.0892 0.7872
vn 0.9431 0.2706 0.1932
vn 0.6541 -0.0439 0.7551
vn 0.7242 0.6718 0.1553
vn 0.2746 0.2083 0.9387
vn 0.7971 0.6038 -0.0005
vn 0.5860 0.4511 0.6731
vn 0.6297 0.5307 0.5673
vn 0.4897 0.6665 -0.5621
vn 0.0678 0.9771 -0.2015
vn 0.0409 0.9355 0.3511
vn -0.0171 0.5459 -0.8376
vn -0.0343 0.3325 0.9425
vn -0.0768 0.4732 -0.8776
vn -0.5772 -0.1763 -0.7973
vn -0.0819 0.1607 -0.9836
vn -0.1146 -0.4699 -0.8752
vn -0.1428 -0.4256 -0.8936
vn -0.2275 -0.6664 -0.7100
vn -0.3196 -0.6084 -0.7264
vn -0.3889 -0.1523 -0.9086
vn 0.9702 -0.1352 -0.2009
vn 0.4351 -0.0606 0.8983
vn 0.9734 -0.1270 -0.1903
vn 0.6645 -0.3211 0.6748
vn 0.7841 -0.5860 -0.2043
vn 0.3903 -0.8339 -0.3900
vn 0.1064 -0.3479 -0.9314
vn -0.1897 -0.4477 -0.8738
vn -0.3649 -0.5943 -0.7167
vn -0.4131 -0.3013 -0.8593
vn -0.4427 -0.3891 -0.8078
vn -0.4912 0.3258 -0.8078
vn -0.5282 0.3313 -0.7818
vn -0.5260 0.3742 -0.7637
vn 0.3438 -0.4560 -0.8209
vn 0.5970 -0.7918 0.1288
vn 0.6207 -0.4842 -0.6166
vn 0.7543 -0.4159 0.5080
vn 0.6677 -0.3682 0.6470
vn 0.8750 -0.4841 -0.0031
vn 0.1268 -0.0704 0.9894
vn 0.8242 -0.4583 0.3324
vn 0.2049 -0.1141 0.9721
vn 0.8871 -0.2929 0.3566
vn 0.5687 -0.0446 0.8213
vn 0.9411 0.0946 0.3246
vn 0.9487 0.1193 0.2929
vn 0.8943 0.3156 0.3171
vn -0.3424 -0.4584 -0.8201
vn -0.1511 -0.2023 0.9676
vn -0.7670 -0.5366 0.3518
vn -0.1336 -0.1745 -0.9755
vn 0.1599 -0.0468 -0.9860
vn 0.7127 -0.0656 -0.6983
vn 0.7386 -0.0394 -0.6730
vn 0.9399 -0.0085 -0.3412
vn 0.9504 0.0280 -0.3095
vn 0.0470 0.9930 0.1085
vn 0.0215 0.4534 0.8910
vn 0.0290 0.9889 0.1458
vn 0.0038 0.3085 0.9512
vn 0.0031 0.9835 0.1808
vn -0.0160 0.7196 0.6942
vn -0.0822 0.9919 0.0967
vn -0.1063 0.9914 0.0767
vn -0.1045 0.6296 0.7698
vn -0.1807 0.9835 0.0038
vn -0.1112 0.6627 0.7406
vn -0.1607 0.9862 -0.0401
vn -0.1525 0.9879 -0.0282
vn 0.9109 -0.3736 0.1750
vn 0.0551 -0.0226 0.9982
vn 0.9075 -0.3815 0.1755
vn 0.7859 -0.4372 0.4373
vn 0.8756 -0.4830 -0.0006
vn 0.5648 -0.4080 -0.7172
vn 0.6061 -0.4186 -0.6763
vn 0.0080 -0.4820 -0.8761
vn 0.0074 -0.4820 -0.8761
vn -0.0832 -0.3144 -0.9456
vn -0.0850 -0.3021 -0.9495
vn 0.9819 -0.0281 0.1871
vn 0.9814 -0.0197 0.1908
vn 0.6340 -0.0028 0.7733
vn 0.9999 0.0047 -0.0071
vn 0.7781 -0.0013 0.6281
vn 0.7865 -0.0114 0.6175
vn 0.6471 -0.0416 -0.7613
vn 0.9058 -0.4222 -0.0352
vn 0.9828 -0.1649 0.0826
vn -0.0027 0.0013 -1.0000
vn -0.9864 -0.1639 -0.0023
vn -0.0719 -0.0329 -0.9969
vn -0.0645 -0.0472 -0.9968
vn -0.0383 0.9971 0.0661
vn -0.0106 0.9991 0.0409
vn -0.0067 0.6889 0.7248
vn 0.0149 0.9999 0.0038
vn -0.0084 0.7192 0.6948
vn -0.0121 0.9993 -0.0347
vn -0.0416 0.9972 -0.0615
vn -0.0090 0.9980 -0.0616
vn -0.0128 0.9982 -0.0579
vn -0.0095 0.7327 0.6805
vn -0.0150 0.9999 0.0012
vn -0.0058 0.6830 0.7304
vn -0.0085 0.9981 0.0608
vn -0.0031 0.9978 0.0656
vn 0.3231 -0.0854 0.9425
vn 0.1591 -0.0420 0.9864
vn 0.3260 0.0953 0.9405
vn 0.1661 0.1000 0.9810
vn 0.1914 0.1157 0.9747
vn 0.3882 0.3074 0.8688
vn 0.1003 0.0973 0.9902
vn 0.3597 0.3803 0.8520
vn 0.0448 0.0502 0.9977
vn 0.1557 0.3885 0.9082
vn -0.2333 0.1910 0.9534
vn -0.2037 0.1692 0.9643
vn -0.3439 0.2647 0.9009
vn -0.4898 0.2232 0.8427
vn -0.3378 0.1895 0.9219
vn -0.8793 0.3400 0.3334
vn -0.1762 0.0688 0.9819
vn -0.9224 0.1846 0.3393
vn -0.2188 0.0065 0.9757
vn -0.9306 -0.0085 0.3658
vn -0.3648 -0.0384 0.9303
vn -0.6944 -0.0656 0.7166
vn -0.1410 -0.0475 0.9889
vn 0.0305 -0.0206 0.9993
vn 0.3773 -0.3133 0.8715
vn 0.0796 -0.1039 0.9914
vn 0.3526 -0.4601 0.8148
vn -0.0807 -0.2652 0.9608
vn 0.0148 -0.4867 0.8734
vn -0.1580 -0.2235 0.9618
vn -0.6052 -0.4841 0.6319
vn -0.4624 -0.2578 0.8483
vn -0.8748 -0.4841 0.0194
vn -0.5995 -0.3329 0.7278
vn -0.8294 -0.4565 -0.3221
vn -0.9254 -0.1875 0.3293
vn -0.9066 -0.2305 -0.3536
vn -0.8201 -0.0167 0.5719
vn -0.9093 0.1700 -0.3799
vn -0.7543 0.3633 0.5469
vn -0.8744 0.3323 -0.3534
vn -0.9164 0.3059 -0.2581
vn -0.9746 0.0031 0.2240
vn -0.6389 -0.6514 0.4091
vn -0.4052 -0.5678 0.7165
vn -0.3456 -0.3021 0.8884
vn -0.2730 -0.6305 0.7266
vn -0.2086 -0.5613 0.8008
vn -0.0745 -0.5505 0.8315
vn -0.0296 -0.4478 0.8936
vn -0.0273 -0.0971 0.9949
vn -0.8688 0.2517 -0.4264
vn -0.6161 0.1785 0.7671
vn -0.8352 -0.3651 -0.4112
vn -0.0936 -0.1516 0.9840
vn -0.5211 -0.8163 -0.2491
vn -0.4935 -0.7275 0.4766
vn -0.8177 -0.5558 0.1500
vn -0.9224 -0.2386 0.3036
vn -0.8465 -0.4739 0.2425
vn -0.8056 -0.5712 0.1568
vn -0.8671 -0.4733 0.1552
vn -0.5679 -0.3728 0.7338
vn -0.9692 -0.1270 0.2110
vn -0.2733 -0.0545 0.9604
vn -0.5031 0.1349 0.8536
vn -0.0169 0.0086 0.9998
vn -0.0072 0.6348 0.7727
vn -0.0093 0.1626 0.9866
vn -0.0080 0.5533 0.8329
vn 0.0056 0.1750 0.9845
vn 0.0430 0.4818 0.8752
vn 0.0460 -0.0202 0.9987
vn 0.0737 0.1489 0.9861
vn 0.0410 -0.0450 0.9981
vn 0.1492 -0.4334 0.8887
vn 0.2195 -0.4790 0.8499
vn 0.3692 -0.6632 0.6510
vn 0.4596 -0.4256 0.7795
vn 0.4139 -0.4636 0.7834
vn 0.2384 -0.1906 0.9522
vn 0.3171 -0.8150 0.4850
vn 0.0345 -0.4839 0.8744
vn -0.0647 -0.6856 0.7251
vn -0.5611 0.1084 0.8206
vn -0.8199 0.2608 0.5096
vn -0.9098 0.2236 0.3496
vn -0.9389 0.0150 -0.3439
vn -0.5667 0.0090 0.8238
vn -0.9588 -0.0706 -0.2751
vn -0.6854 -0.5625 0.4624
vn -0.8103 -0.5640 -0.1588
vn -0.4360 -0.5607 0.7039
vn -0.9130 -0.3826 -0.1415
vn -0.7732 -0.0925 0.6273
vn -0.9717 0.0939 -0.2167
vn -0.7899 -0.0626 0.6099
vn -0.8819 0.4091 -0.2341
vn -0.3206 0.2416 0.9159
vn -0.7970 0.6038 0.0144
vn -0.4766 0.3724 0.7964
vn -0.7189 0.6705 0.1830
vn -0.7124 0.6783 0.1798
vn 0.0451 -0.7468 -0.6635
vn 0.0541 -0.8946 0.4436
vn 0.0538 -0.2064 -0.9770
vn 0.5528 -0.8295 0.0792
vn 0.0639 -0.0926 -0.9936
vn 0.0700 -0.0970 -0.9928
usemtl 000000002A9781B8.png
s 1
f 1/1/1 2/2/2 3/3/3
f 2/2/2 4/4/4 3/3/3
f 3/3/3 4/4/4 5/5/5
f 4/4/4 6/6/6 5/5/5
f 5/5/5 6/6/6 7/7/7
f 6/6/6 8/8/8 7/7/7
f 7/7/7 8/8/8 9/9/9
f 8/8/8 10/10/10 9/9/9
f 9/9/9 10/10/10 11/11/11
f 10/10/10 12/12/12 11/11/11
f 11/11/11 12/12/12 13/13/13
f 14/14/14 15/15/15 16/16/16
f 15/15/15 17/17/17 16/16/16
f 16/16/16 17/17/17 18/18/18
f 17/17/17 19/19/19 18/18/18
f 18/18/18 19/19/19 20/20/20
f 19/19/19 21/21/21 20/20/20
f 20/20/20 21/21/21 22/22/22
f 21/21/21 23/23/23 22/22/22
f 22/22/22 23/23/23 24/24/24
f 25/25/25 26/26/26 27/27/27
f 26/26/26 28/28/28 27/27/27
f 27/27/27 28/28/28 29/29/29
f 28/28/28 30/30/30 29/29/29
f 29/29/29 30/30/30 31/31/31
f 30/30/30 32/32/32 31/31/31
f 31/31/31 32/32/32 33/33/33
f 32/32/32 34/34/34 33/33/33
f 33/33/33 34/34/34 35/35/35
f 34/34/34 36/36/36 35/35/35
f 35/35/35 36/36/36 37/37/37
f 38/38/38 39/39/39 40/40/40
f 39/39/39 41/41/41 40/40/40
f 40/40/40 41/41/41 42/42/42
f 41/41/41 43/43/43 42/42/42
f 42/42/42 43/43/43 44/44/44
f 43/43/43 45/45/45 44/44/44
f 44/44/44 45/45/45 46/46/46
f 47/47/47 48/48/48 49/49/49
f 48/48/48 50/50/50 49/49/49
f 49/49/49 50/50/50 51/51/51
f 50/50/50 52/52/52 51/51/51
f 51/51/51 52/52/52 53/53/53
f 52/52/52 54/54/54 53/53/53
f 53/53/53 54/54/54 55/55/55
f 54/54/54 56/56/56 55/55/55
f 55/55/55 56/56/56 57/57/57
f 56/56/56 58/58/58 57/57/57
f 57/57/57 58/58/58 59/59/59
f 58/58/58 60/60/60 59/59/59
f 59/59/59 60/60/60 61/61/61
f 60/60/60 62/62/62 61/61/61
f 63/63/63 64/64/64 65/65/65
f 64/64/64 66/66/66 65/65/65
f 65/65/65 66/66/66 67/67/67
f 66/66/66 68/68/68 67/67/67
f 67/67/67 68/68/68 69/69/69
f 68/68/68 70/70/70 69/69/69
f 69/69/69 70/70/70 71/71/71
f 70/70/70 72/72/72 71/71/71
f 71/71/71 72/72/72 73/73/73
f 72/72/72 74/74/74 73/73/73
f 73/73/73 74/74/74 75/75/75
f 74/74/74 76/76/76 75/75/75
f 75/75/75 76/76/76 77/77/77
f 76/76/76 78/78/78 77/77/77
f 77/77/77 78/78/78 79/79/79
f 78/78/78 80/80/80 79/79/79
f 79/79/79 80/80/80 81/81/81
f 80/80/80 82/82/82 81/81/81
f 81/81/81 82/82/82 83/83/83
f 82/82/82 84/84/84 83/83/83
f 83/83/83 84/84/84 85/85/85
f 84/84/84 86/86/86 85/85/85
f 85/85/85 86/86/86 87/87/87
f 86/86/86 88/88/88 87/87/87
f 87/87/87 88/88/88 89/89/89
f 88/88/88 90/90/90 89/89/89
f 89/89/89 90/90/90 91/91/91
f 90/90/90 92/92/92 91/91/91
f 91/91/91 92/92/92 93/93/93
f 92/92/92 94/94/94 93/93/93
f 95/95/95 96/96/96 97/97/97
f 96/96/96 98/98/98 97/97/97
f 97/97/97 98/98/98 99/99/99
f 98/98/98 100/100/100 99/99/99
f 99/99/99 100/100/100 101/101/101
f 100/100/100 102/102/102 101/101/101
f 101/101/101 102/102/102 103/103/103
f 102/102/102 104/104/104 103/103/103
f 103/103/103 104/104/104 105/105/105
f 104/104/104 106/106/106 105/105/105
f 105/105/105 106/106/106 107/107/107
f 106/106/106 108/108/108 107/107/107
f 109/109/109 110/110/109 111/111/110
f 110/110/109 112/112/111 111/111/110
f 111/111/110 112/112/111 113/113/112
f 112/112/111 114/114/113 113/113/112
f 113/113/112 114/114/113 115/115/114
f 114/114/113 116/116/115 115/115/114
f 115/115/114 116/116/115 117/117/116
f 116/116/115 118/118/117 117/117/116
f 117/117/116 118/118/117 119/119/118
f 118/118/117 120/120/119 119/119/118
f 119/119/118 120/120/119 121/121/120
f 120/120/119 122/122/121 121/121/120
f 121/121/120 122/122/121 123/123/122
f 124/124/123 125/125/124 126/126/123
f 125/125/124 127/127/125 126/126/123
f 126/126/123 127/127/125 128/128/126
f 127/127/125 129/129/127 128/128/126
f 128/128/126 129/129/127 130/130/128
f 129/129/127 131/131/129 130/130/128
f 130/130/128 131/131/129 132/132/130
f 131/131/129 133/133/131 132/132/130
f 134/134/132 135/135/133 136/136/134
f 135/135/133 137/137/135 136/136/134
f 136/136/134 137/137/135 138/138/136
f 137/137/135 139/139/137 138/138/136
f 138/138/136 139/139/137 140/140/138
f 139/139/137 141/141/139 140/140/138
f 140/140/138 141/141/139 142/142/140
f 141/141/139 143/143/141 142/142/140
f 142/142/140 143/143/141 144/144/142
f 143/143/141 145/145/143 144/144/142
f 144/144/142 145/145/143 146/146/144
f 147/147/145 148/148/146 149/149/147
f 148/148/146 150/150/148 149/149/147
f 149/149/147 150/150/148 151/151/149
f 150/150/148 152/152/150 151/151/149
f 151/151/149 152/152/150 153/153/151
f 152/152/150 154/154/152 153/153/151
f 153/153/151 154/154/152 155/155/153
f 154/154/152 156/156/154 155/155/153
f 155/155/153 156/156/154 157/157/155
f 158/158/156 159/159/157 160/160/158
f 159/159/157 161/161/159 160/160/158
f 160/160/158 161/161/159 162/162/160
f 161/161/159 163/163/161 162/162/160
f 162/162/160 163/163/161 164/164/162
f 163/163/161 165/165/163 164/164/162
f 164/164/162 165/165/163 166/166/164
f 165/165/163 167/167/165 166/166/164
f 166/166/164 167/167/165 168/168/166
f 167/167/165 169/169/167 168/168/166
f 168/168/166 169/169/167 170/170/168
f 171/171/169 172/172/170 173/173/171
f 172/172/170 174/174/172 173/173/171
f 173/173/171 174/174/172 175/175/173
f 174/174/172 176/176/174 175/175/173
f 175/175/173 176/176/174 177/177/175
f 178/178/176 179/179/177 180/180/178
f 179/179/177 181/181/179 180/180/178
f 180/180/178 181/181/179 182/182/180
f 181/181/179 183/183/181 182/182/180
f 182/182/180 183/183/181 184/184/182
f 185/185/183 186/186/184 187/187/185
f 186/186/184 188/188/186 187/187/185
f 187/187/185 188/188/186 189/189/187
f 188/188/186 190/190/188 189/189/187
f 189/189/187 190/190/188 191/191/189
f 190/190/188 192/192/190 191/191/189
f 191/191/189 192/192/190 193/193/191
f 192/192/190 194/194/192 193/193/191
f 193/193/191 194/194/192 195/195/193
f 194/194/192 196/196/194 195/195/193
f 195/195/193 196/196/194 197/197/195
f 196/196/194 198/198/196 197/197/195
f 197/197/195 198/198/196 199/199/197
f 198/198/196 200/200/198 199/199/197
f 199/199/197 200/200/198 201/201/199
f 200/200/198 202/202/200 201/201/199
f 201/201/199 202/202/200 203/203/201
f 202/202/200 204/204/202 203/203/201
f 203/203/201 204/204/202 205/205/203
f 204/204/202 206/206/204 205/205/203
f 205/205/203 206/206/204 207/207/205
f 206/206/204 208/208/206 207/207/205
f 207/207/205 208/208/206 209/209/207
f 208/208/206 210/210/208 209/209/207
f 209/209/207 210/210/208 211/211/209
f 210/210/208 212/212/210 211/211/209
f 211/211/209 212/212/210 213/213/211
f 212/212/210 214/214/212 213/213/211
f 213/213/211 214/214/212 215/215/213
f 214/214/212 216/216/214 215/215/213
f 215/215/213 216/216/214 217/217/215
f 216/216/214 218/218/216 217/217/215
f 217/217/215 218/218/216 219/219/217
f 218/218/216 220/220/218 219/219/217
f 219/219/217 220/220/218 221/221/219
f 220/220/218 222/222/220 221/221/219
f 221/221/219 222/222/220 223/223/221
f 222/222/220 224/224/222 223/223/221
f 223/223/221 224/224/222 225/225/223
f 224/224/222 226/226/224 225/225/223
f 225/225/223 226/226/224 227/227/225
f 226/226/224 228/228/226 227/227/225
f 227/227/225 228/228/226 229/229/227
f 228/228/226 230/230/228 229/229/227
f 229/229/227 230/230/228 231/231/229
f 230/230/228 232/232/230 231/231/229
f 231/231/229 232/232/230 233/233/231
f 232/232/230 234/234/232 233/233/231
f 233/233/231 234/234/232 235/235/233
f 236/236/234 237/237/235 238/238/236
f 237/237/235 239/239/237 238/238/236
f 238/238/236 239/239/237 240/240/238
f 239/239/237 241/241/239 240/240/238
f 240/240/238 241/241/239 242/242/240
f 241/241/239 243/243/241 242/242/240
f 242/242/240 243/243/241 244/244/242
f 243/243/241 245/245/243 244/244/242
f 244/244/242 245/245/243 246/246/244
f 245/245/243 247/247/245 246/246/244
f 246/246/244 247/247/245 248/248/246
f 247/247/245 249/249/247 248/248/246
f 248/248/246 249/249/247 250/250/248
f 249/249/247 251/251/249 250/250/248
f 250/250/248 251/251/249 252/252/250
f 251/251/249 253/253/251 252/252/250
f 252/252/250 253/253/251 254/254/252
f 253/253/251 255/255/253 254/254/252
f 254/254/252 255/255/253 256/256/254
f 255/255/253 257/257/255 256/256/254
f 256/256/254 257/257/255 258/258/256
f 257/257/255 259/259/257 258/258/256
f 258/258/256 259/259/257 260/260/258
f 259/259/257 261/261/259 260/260/258
f 260/260/258 261/261/259 262/262/260
f 261/261/259 263/263/261 262/262/260
f 262/262/260 263/263/261 264/264/262
f 263/263/261 265/265/263 264/264/262
f 264/264/262 265/265/263 266/266/264
f 265/265/263 267/267/265 266/266/264
f 266/266/264 267/267/265 268/268/266
f 267/267/265 269/269/267 268/268/266
f 268/268/266 269/269/267 270/270/268
f 269/269/267 271/271/269 270/270/268
f 272/272/270 273/273/271 274/274/272
f 273/273/271 275/275/273 274/274/272
f 274/274/272 275/275/273 276/276/274
f 275/275/273 277/277/275 276/276/274
f 276/276/274 277/277/275 278/278/276
f 277/277/275 279/279/277 278/278/276
f 278/278/276 279/279/277 280/280/278
f 279/279/277 281/281/279 280/280/278
f 280/280/278 281/281/279 282/282/280
f 281/281/279 283/283/281 282/282/280
f 282/282/280 283/283/281 284/284/282
f 283/283/281 285/285/283 284/284/282
f 284/284/282 285/285/283 286/286/284
f 285/285/283 287/287/285 286/286/284
f 288/288/286 289/289/287 290/290/288
f 289/289/287 291/291/289 290/290/288
f 290/290/288 291/291/289 292/292/290
f 291/291/289 293/293/291 292/292/290
