# Blender 3.4.1
# www.blender.org
mtllib Card Guards - Weapon A.mtl
o CardGuardWeapenA.001
v 0.026109 1.115341 0.002933
v 0.011438 1.116414 0.007907
v 0.011438 1.076126 0.002933
v 0.026109 1.115341 0.002933
v 0.019923 1.126037 0.002933
v 0.018556 1.142653 0.002933
v 0.011438 1.151145 0.006323
v 0.022734 1.159636 0.002933
v 0.011438 1.213139 0.009366
v 0.022734 1.159636 0.002933
v 0.053207 1.186094 0.002933
v 0.084016 1.184511 0.002933
v 0.032791 1.178295 0.002933
v 0.071043 1.204625 0.002933
v -0.048167 1.204625 0.002933
v -0.061141 1.184511 0.002933
v -0.030332 1.186094 0.002933
v -0.023728 1.241859 0.006155
v 0.011438 1.237140 0.002933
v -0.062124 1.272535 0.002933
v -0.044225 1.223294 0.002933
v -0.048167 1.204625 0.002933
v -0.045794 1.243646 0.002933
v -0.044225 1.223294 0.002933
v -0.062124 1.272535 0.002933
v 0.071043 1.204625 0.002933
v 0.067101 1.223294 0.002933
v 0.046604 1.241859 0.006155
v 0.084999 1.272535 0.002933
v 0.068670 1.243646 0.002933
v 0.067101 1.223294 0.002933
v 0.046604 1.241859 -0.000288
v 0.068670 1.243646 0.002933
v 0.067101 1.223294 0.002933
v 0.084999 1.272535 0.002933
v 0.011438 1.237140 0.002933
v -0.044225 1.223294 0.002933
v -0.045794 1.243646 0.002933
v -0.023728 1.241859 -0.000288
v -0.062124 1.272535 0.002933
v 0.011438 1.213139 -0.003499
v 0.067101 1.223294 0.002933
v 0.071043 1.204625 0.002933
v 0.084016 1.184511 0.002933
v 0.053207 1.186094 0.002933
v 0.032791 1.178295 0.002933
v -0.048167 1.204625 0.002933
v -0.061141 1.184511 0.002933
v 0.004319 1.142653 0.002933
v 0.011438 1.151145 -0.000457
v 0.011438 1.116414 -0.002041
v 0.000141 1.159636 0.002933
v -0.009916 1.178295 0.002933
v -0.030332 1.186094 0.002933
v -0.061141 1.184511 0.002933
v 0.022734 1.159636 0.002933
v 0.018556 1.142653 0.002933
v 0.019923 1.126037 0.002933
v 0.026109 1.115341 0.002933
v 0.011438 1.076126 0.002933
v -0.003233 1.115341 0.002933
v 0.002953 1.126037 0.002933
v 0.093246 1.072666 0.008391
v 0.093246 1.072666 -0.002797
v 0.142198 1.042296 0.001500
v 0.142198 1.042296 0.004093
v 0.156970 1.033132 0.002797
v 0.147161 1.050726 0.002797
v 0.111228 1.115182 0.002797
v 0.142198 1.042296 0.004093
v 0.156970 1.033132 0.002797
v 0.147161 1.050726 0.002797
v 0.156970 1.033132 0.002797
v 0.142198 1.042296 0.001500
v 0.111228 1.115182 0.002797
v 0.262127 1.191194 0.001619
v 0.277802 1.193042 0.002797
v 0.262127 1.191194 0.003974
v 0.203327 1.184262 -0.002797
v 0.203327 1.184262 0.008391
v 0.264047 1.198690 0.002797
v 0.190903 1.228722 0.002797
v 0.262127 1.191194 0.003974
v 0.264047 1.198690 0.002797
v 0.277802 1.193042 0.002797
v 0.190903 1.228722 0.002797
v 0.264047 1.198690 0.002797
v 0.262127 1.191194 0.001619
v 0.277802 1.193042 0.002797
v -0.007447 -1.086549 0.044400
v -0.046264 -1.130537 0.067733
v -0.008276 -1.130537 0.088971
v -0.053266 -1.130537 0.041167
v -0.033321 -1.086272 0.000000
v -0.015735 -1.164243 0.058339
v 0.016134 -1.130537 0.081235
v 0.043891 -1.086108 0.044777
v 0.034827 -0.842943 0.029079
v 0.051616 -0.842943 0.000000
v 0.042490 -0.429077 0.000000
v 0.044476 -1.130537 0.089145
v 0.089343 -1.130537 0.038968
v 0.070704 -1.086535 -0.000130
v 0.082022 -1.130537 0.067468
v 0.051682 -1.164243 0.058271
v 0.016134 -1.164243 0.062087
v 0.072760 -1.164243 0.029394
v 0.085448 -1.164243 -0.000080
v 0.108247 -1.130537 0.021696
v 0.108849 -1.130537 -0.021821
v 0.089343 -1.130537 -0.041167
v 0.043763 -1.086320 -0.044573
v 0.034827 -0.842943 -0.029079
v 0.078886 -1.130537 -0.069665
v 0.047809 -1.130537 -0.087040
v 0.019943 -1.130537 -0.081235
v 0.051812 -1.164243 -0.058339
v 0.072760 -1.164243 -0.031593
v 0.019943 -1.164243 -0.062087
v -0.015604 -1.164243 -0.058271
v -0.008398 -1.130537 -0.089145
v -0.053266 -1.130537 -0.038968
v -0.033321 -1.086272 0.000000
v -0.007869 -1.086705 -0.044874
v -0.074146 -1.130537 -0.020345
v -0.055916 -1.164243 0.000000
v -0.036683 -1.164243 -0.029394
v -0.045945 -1.130537 -0.067468
v 0.001250 -0.842943 -0.029079
v 0.005813 -0.429077 -0.021176
v 0.030265 -0.429077 -0.021176
v 0.031084 -0.095211 -0.022596
v 0.004993 -0.095211 -0.022596
v -0.008053 -0.095211 0.000000
v -0.006413 -0.429077 0.000000
v -0.015539 -0.842943 0.000000
v -0.009692 0.238654 0.000000
v 0.030265 -0.429077 0.021176
v 0.044130 -0.095211 0.000000
v 0.031904 0.238654 -0.024015
v 0.004173 0.238654 -0.024015
v -0.001048 0.295672 -0.032400
v 0.018039 0.285131 -0.029087
v 0.037125 0.295672 -0.032400
v 0.045769 0.238654 0.000000
v 0.031084 -0.095211 0.022596
v 0.005813 -0.429077 0.021176
v 0.001250 -0.842943 0.029079
v 0.056212 0.291083 0.000000
v 0.031904 0.238654 0.024015
v 0.004993 -0.095211 0.022596
v -0.006413 -0.429077 0.000000
v -0.015539 -0.842943 0.000000
v 0.004173 0.238654 0.024015
v 0.018039 0.285131 0.029087
v -0.001048 0.295672 0.032400
v -0.009692 0.238654 0.000000
v -0.008053 -0.095211 0.000000
v -0.020134 0.291083 0.000000
v -0.001048 0.299555 0.000000
v 0.018039 0.291063 0.000000
v 0.037125 0.300361 0.000000
v 0.037125 0.295672 0.032400
v -0.020134 0.291083 0.000000
v -0.001048 0.299555 0.000000
v 0.018039 0.291063 0.000000
v 0.037125 0.300361 0.000000
v 0.174117 1.355367 0.003938
v 0.176482 1.370489 0.002797
v 0.164773 1.355467 0.002797
v 0.164895 1.296399 0.008391
v 0.118732 1.296399 0.002797
v 0.164895 1.296399 -0.002797
v 0.174117 1.355367 0.001655
v 0.174117 1.355367 0.003938
v 0.176482 1.370489 0.002797
v 0.118732 1.296399 0.002797
v 0.164773 1.355467 0.002797
v 0.174117 1.355367 0.001655
v 0.176482 1.370489 0.002797
v -0.036683 -1.164243 -0.029394
v -0.015604 -1.164243 -0.058271
v -0.013096 -1.164243 -0.053927
v -0.036683 -1.164243 0.031593
v -0.055916 -1.164243 0.000000
v 0.016134 -1.164243 0.062087
v 0.051682 -1.164243 0.058271
v 0.049173 -1.164243 0.053927
v -0.015735 -1.164243 0.058339
v -0.015604 -1.164243 -0.058271
v 0.019943 -1.164243 -0.062087
v 0.051812 -1.164243 -0.058339
v 0.072760 -1.164243 -0.031593
v 0.072760 -1.164243 0.029394
v 0.051682 -1.164243 0.058271
v 0.085448 -1.164243 -0.000080
v 0.045994 -1.382270 -0.000000
v 0.032375 -1.382270 -0.026153
v 0.041467 -1.356176 -0.043613
v 0.064177 -1.356176 -0.000000
v 0.064177 -1.328421 -0.000000
v -0.026665 -1.328421 -0.000000
v -0.010245 -1.306040 -0.000000
v 0.003897 -1.306040 -0.024495
v -0.003955 -1.328421 -0.043613
v 0.032181 -1.306040 -0.024495
v 0.041467 -1.328421 -0.043613
v 0.046323 -1.306040 -0.000000
v -0.003955 -1.356176 -0.043613
v 0.005137 -1.382270 -0.026154
v 0.045994 -1.382270 -0.000000
v -0.008482 -1.382270 -0.000000
v -0.008482 -1.382270 -0.000000
v -0.026665 -1.356176 -0.000000
v -0.016266 -1.159658 -0.059417
v -0.050571 -1.159658 -0.000000
v -0.016266 -1.159658 0.059417
v 0.052343 -1.159658 -0.059417
v 0.052343 -1.159658 0.059417
v 0.086648 -1.159658 0.000000
v 0.043646 0.815353 -0.068288
v 0.009366 0.848343 -0.042976
v 0.070658 0.869371 -0.026435
v 0.108633 0.832369 -0.038883
v 0.101817 0.828115 0.010728
v 0.092582 0.779606 0.012566
v 0.078049 0.870349 0.003820
v 0.047403 0.852414 0.002930
v 0.009366 0.840867 0.002930
v -0.028670 0.848077 0.002930
v -0.028670 0.854065 -0.035595
v -0.075932 0.833723 0.029028
v -0.075932 0.827519 -0.023590
v -0.051479 0.795960 -0.050668
v 0.053614 0.753263 -0.039697
v 0.076035 0.756516 0.013636
v 0.062784 0.651972 0.009167
v -0.083172 0.789378 -0.023791
v -0.004258 0.744866 -0.031068
v 0.046596 0.652119 -0.033266
v 0.043150 0.484874 -0.027876
v 0.056011 0.484901 0.006314
v 0.061225 0.364359 0.007354
v 0.046463 0.366501 -0.027760
v 0.053837 0.313963 -0.047580
v 0.001929 0.323460 -0.031388
v 0.080531 0.334249 0.020140
v 0.091195 0.307632 0.015089
v 0.055995 0.285698 -0.014794
v -0.000617 0.294562 -0.014216
v -0.047717 0.332958 -0.033747
v -0.043077 0.293890 -0.019215
v -0.049978 0.332958 0.045727
v -0.043076 0.297030 0.016229
v 0.059148 0.280095 0.025815
v 0.005924 0.301278 0.031702
v -0.014770 0.287914 0.032632
v 0.001563 0.373016 0.035685
v 0.030539 0.326434 0.056961
v 0.037131 0.367855 0.030382
v -0.014770 0.287914 0.032632
v 0.005924 0.301278 0.031702
v 0.059148 0.280095 0.025815
v 0.091195 0.307632 0.015089
v 0.080531 0.334249 0.020140
v 0.061225 0.364359 0.007354
v 0.056011 0.484901 0.006314
v 0.031592 0.484890 0.029919
v 0.003418 0.484867 0.034618
v -0.000677 0.652308 0.036134
v 0.037815 0.652089 0.031460
v -0.006722 0.744509 0.038687
v 0.050636 0.752831 0.034489
v 0.017021 0.815353 0.059051
v 0.077047 0.779652 0.045402
v -0.029480 0.806845 0.077391
v 0.062784 0.651972 0.009167
v 0.076035 0.756516 0.013636
v 0.092582 0.779606 0.012566
v 0.076716 0.823861 0.072191
v 0.047403 0.852301 0.041456
v 0.009366 0.848343 0.048836
v 0.101817 0.828115 0.010728
v 0.085440 0.871327 0.034076
v 0.047403 0.852414 0.002930
v 0.078049 0.870349 0.003820
v 0.009366 0.840867 0.002930
v -0.028670 0.848077 0.002930
v -0.028670 0.851520 0.041456
v -0.081200 0.789378 0.045522
v -0.027686 0.741467 -0.006405
v 0.006858 0.651965 -0.027026
v -0.017119 0.651990 -0.003724
v 0.014804 0.484882 -0.023176
v -0.009568 0.484883 0.000397
v 0.010517 0.371716 -0.022400
v -0.013209 0.375159 0.000547
v 0.049173 -1.164243 0.053927
v -0.013096 -1.164243 -0.053927
v -0.015604 -1.164243 -0.058271
v -0.036683 -1.164243 0.031593
v -0.055916 -1.164243 0.000000
v -0.073699 -1.130537 0.017865
v -0.074146 -1.130537 -0.020345
v -0.068670 1.072948 0.008391
v -0.084030 1.116480 0.002797
v -0.125729 1.051351 0.002797
v -0.123615 1.043332 0.003735
v -0.134683 1.037367 0.002797
v -0.123615 1.043332 0.003735
v -0.134683 1.037367 0.002797
v -0.123615 1.043332 0.001859
v -0.068670 1.072948 -0.002797
v -0.084030 1.116480 0.002797
v -0.123615 1.043332 0.001859
v -0.125729 1.051351 0.002797
v -0.134683 1.037367 0.002797
v -0.165134 1.179932 0.002933
v -0.110787 1.126069 0.010448
v -0.121547 1.167036 0.002933
v -0.097182 1.165324 0.002933
v -0.078047 1.171188 0.002933
v -0.076836 1.145760 0.002933
v -0.069896 1.119841 0.002933
v -0.052114 1.076244 0.002933
v 0.100923 1.171188 0.002933
v 0.099712 1.145760 0.002933
v 0.133662 1.126069 0.010448
v 0.092772 1.119841 0.002933
v 0.074990 1.076244 0.002933
v 0.188009 1.179932 0.002930
v 0.144422 1.167036 0.002933
v 0.120057 1.165324 0.002933
v 0.100923 1.171188 0.002933
v 0.041467 -1.356176 0.043613
v 0.041467 -1.328421 0.043613
v -0.003955 -1.328421 0.043613
v -0.003955 -1.356176 0.043613
v 0.005137 -1.382270 0.026153
v -0.008482 -1.382270 -0.000000
v -0.026665 -1.356176 -0.000000
v -0.026665 -1.328421 -0.000000
v -0.010245 -1.306040 -0.000000
v 0.003897 -1.306040 0.024495
v 0.032181 -1.306040 0.024495
v 0.064177 -1.328421 -0.000000
v 0.064177 -1.356176 -0.000000
v 0.046323 -1.306040 -0.000000
v 0.032375 -1.382270 0.026153
v 0.045994 -1.382270 -0.000000
v 0.045994 -1.382270 -0.000000
v -0.008482 -1.382270 -0.000000
v 0.003897 -1.287605 -0.024495
v -0.010245 -1.287605 -0.000000
v -0.029316 -1.267687 -0.000000
v 0.032181 -1.287605 -0.024495
v -0.005639 -1.267687 -0.041010
v -0.012869 -1.250420 -0.000000
v 0.046323 -1.287605 -0.000000
v 0.041716 -1.267687 -0.041010
v 0.002585 -1.250420 -0.026767
v -0.020329 -1.212268 0.000000
v 0.003897 -1.306040 -0.024495
v -0.010245 -1.306040 -0.000000
v 0.032181 -1.306040 -0.024495
v 0.046323 -1.306040 -0.000000
v 0.032181 -1.306040 0.024495
v 0.032181 -1.287605 0.024495
v 0.003897 -1.306040 0.024495
v 0.003897 -1.287605 0.024495
v -0.010245 -1.306040 -0.000000
v -0.010245 -1.287605 -0.000000
v -0.005639 -1.267687 0.041010
v -0.029316 -1.267687 -0.000000
v 0.002585 -1.250420 0.026767
v -0.012869 -1.250420 -0.000000
v -0.001145 -1.212268 0.033227
v -0.020329 -1.212268 0.000000
v -0.058767 -1.186256 -0.000000
v -0.020364 -1.186257 0.066516
v -0.016266 -1.159658 0.059417
v -0.050571 -1.159658 -0.000000
v 0.041716 -1.267687 0.041010
v 0.033493 -1.250420 0.026767
v 0.037222 -1.212268 0.033227
v 0.056442 -1.186257 0.066516
v 0.056406 -1.212267 0.000000
v 0.094845 -1.186256 -0.000000
v 0.052343 -1.159658 0.059417
v 0.086648 -1.159658 0.000000
v 0.052343 -1.159658 -0.059417
v 0.056442 -1.186256 -0.066516
v -0.016266 -1.159658 -0.059417
v -0.020364 -1.186256 -0.066516
v -0.050571 -1.159658 -0.000000
v 0.037222 -1.212267 -0.033227
v -0.001145 -1.212267 -0.033227
v 0.048947 -1.250420 -0.000000
v 0.033493 -1.250420 -0.026767
v 0.065393 -1.267687 -0.000000
v -0.058767 -1.186256 -0.000000
v -0.165134 1.179932 0.002933
v -0.121547 1.167036 0.002933
v -0.110787 1.126069 -0.004582
v -0.097182 1.165324 0.002933
v -0.078047 1.171188 0.002933
v -0.076836 1.145760 0.002933
v -0.069896 1.119841 0.002933
v -0.052114 1.076244 0.002933
v -0.236147 1.199758 0.002797
v -0.252504 1.193042 0.002797
v -0.235584 1.191047 0.004068
v -0.165605 1.228722 0.002797
v -0.178028 1.184262 0.008391
v -0.235584 1.191047 0.004068
v -0.252504 1.193042 0.002797
v -0.235584 1.191047 0.001526
v -0.178028 1.184262 -0.002797
v -0.165605 1.228722 0.002797
v -0.235584 1.191047 0.001526
v -0.236147 1.199758 0.002797
v -0.252504 1.193042 0.002797
v 0.133662 1.126069 -0.004582
v 0.074990 1.076244 0.002933
v 0.092772 1.119841 0.002933
v 0.099712 1.145760 0.002933
v 0.100923 1.171188 0.002933
v 0.188009 1.179932 0.002936
v 0.144422 1.167036 0.002933
v 0.120057 1.165324 0.002933
v 0.100923 1.171188 0.002933
v -0.009916 1.178295 0.002933
v 0.000141 1.159636 0.002933
v 0.004319 1.142653 0.002933
v 0.002953 1.126037 0.002933
v -0.003233 1.115341 0.002933
v 0.011438 1.076126 0.002933
v -0.139182 1.355091 0.002797
v -0.151184 1.370489 0.002797
v -0.147881 1.349370 0.004391
v -0.093433 1.296399 0.002797
v -0.139596 1.296399 0.008391
v -0.139596 1.296399 -0.002797
v -0.147881 1.349370 0.004391
v -0.147881 1.349370 0.001202
v -0.151184 1.370489 0.002797
v -0.093433 1.296399 0.002797
v -0.147881 1.349370 0.001202
v -0.139182 1.355091 0.002797
v -0.151184 1.370489 0.002797
v -0.068770 1.051897 0.002933
v -0.043278 1.021388 0.002933
v -0.025848 1.033315 0.026600
v -0.129850 1.163529 0.002933
v -0.144820 1.147968 0.026539
v -0.110792 1.114940 0.026541
v -0.123579 1.098853 0.002933
v -0.094194 1.074751 0.002933
v -0.079552 1.089110 0.026544
v -0.053750 1.066204 0.026546
v -0.008418 1.045243 0.002933
v -0.038729 1.080510 0.002933
v -0.064909 1.103469 0.002933
v -0.098005 1.131027 0.002933
v -0.150527 1.256649 0.002933
v -0.134505 1.273569 0.002933
v -0.145150 1.290442 0.026913
v -0.168201 1.268128 0.026886
v -0.157394 1.232753 0.002933
v -0.178453 1.237463 0.026815
v -0.155466 1.207654 0.002933
v -0.177089 1.206120 0.026808
v -0.149340 1.188145 0.002933
v -0.167197 1.177092 0.026740
v -0.159790 1.132406 0.002933
v -0.185055 1.166039 0.002933
v -0.198712 1.204586 0.002933
v -0.199512 1.242172 0.002933
v -0.185485 1.279444 0.002933
v -0.155830 1.307381 0.002933
v -0.116767 1.323491 0.002933
v -0.113079 1.303199 0.026883
v -0.079653 1.321515 0.002933
v -0.082878 1.302539 0.026614
v -0.046660 1.309842 0.002933
v -0.057738 1.292627 0.026663
v -0.020289 1.290815 0.002933
v -0.034885 1.275398 0.026791
v 0.000414 1.269354 0.002933
v -0.014824 1.255131 0.027011
v 0.012649 1.248015 0.002933
v -0.049505 1.259979 0.002933
v -0.030062 1.240908 0.002933
v -0.068789 1.275455 0.002933
v -0.086104 1.283562 0.002933
v -0.109390 1.282908 0.002933
v 0.108177 1.302539 0.026614
v 0.104951 1.321515 0.002933
v 0.071958 1.309842 0.002933
v 0.083036 1.292627 0.026663
v 0.045587 1.290815 0.002933
v 0.060184 1.275398 0.026791
v 0.024884 1.269354 0.002933
v 0.040122 1.255131 0.027011
v 0.012649 1.213011 0.027679
v 0.012649 1.178008 0.002933
v 0.055360 1.240908 0.002933
v 0.074803 1.259979 0.002933
v 0.094087 1.275455 0.002933
v 0.111402 1.283562 0.002933
v 0.134688 1.282908 0.002933
v 0.202387 1.206120 0.026807
v 0.224011 1.204586 0.002933
v 0.224810 1.242172 0.002933
v 0.203752 1.237463 0.026815
v 0.210783 1.279444 0.002933
v 0.193499 1.268128 0.026886
v 0.181128 1.307381 0.002933
v 0.170448 1.290442 0.026912
v 0.142066 1.323491 0.002933
v 0.138377 1.303199 0.026883
v 0.134688 1.282908 0.002933
v 0.159803 1.273569 0.002933
v 0.175825 1.256649 0.002933
v 0.182693 1.232753 0.002933
v 0.180764 1.207654 0.002933
v 0.174638 1.188145 0.002933
v 0.192496 1.177092 0.026740
v 0.155149 1.163529 0.002933
v 0.090208 1.103469 0.002933
v 0.064028 1.080510 0.002933
v 0.079048 1.066204 0.026546
v 0.104850 1.089110 0.026544
v 0.123303 1.131027 0.002933
v 0.136090 1.114940 0.026541
v 0.170119 1.147968 0.026539
v 0.210353 1.166039 0.002933
v 0.185089 1.132406 0.002933
v 0.148878 1.098853 0.002933
v 0.119493 1.074751 0.002933
v 0.094068 1.051897 0.002933
v 0.051147 1.033315 0.026600
v 0.033716 1.045243 0.002933
v 0.068577 1.021388 0.002933
v 0.104951 1.321515 0.002933
v 0.142066 1.323491 0.002933
v 0.138377 1.303199 -0.021016
v 0.012649 1.248015 0.002933
v 0.024884 1.269354 0.002933
v 0.040122 1.255131 -0.021144
v 0.060184 1.275398 -0.020924
v 0.045587 1.290815 0.002933
v 0.083036 1.292627 -0.020797
v 0.071958 1.309842 0.002933
v 0.108177 1.302539 -0.020748
v 0.134688 1.282908 0.002933
v 0.159803 1.273569 0.002933
v 0.055360 1.240908 0.002933
v 0.012649 1.178008 0.002933
v 0.012649 1.213011 -0.021812
v 0.074803 1.259979 0.002933
v 0.094087 1.275455 0.002933
v 0.111402 1.283562 0.002933
v 0.134688 1.282908 0.002933
v 0.012649 1.248015 0.002933
v -0.082878 1.302539 -0.020748
v -0.079653 1.321515 0.002933
v -0.046660 1.309842 0.002933
v -0.057738 1.292627 -0.020797
v -0.020289 1.290815 0.002933
v -0.034886 1.275398 -0.020924
v 0.000414 1.269354 0.002933
v -0.014824 1.255131 -0.021144
v -0.030062 1.240908 0.002933
v -0.113079 1.303199 -0.021016
v -0.109390 1.282908 0.002933
v -0.134505 1.273569 0.002933
v -0.086104 1.283562 0.002933
v -0.068789 1.275455 0.002933
v -0.049505 1.259979 0.002933
v -0.167197 1.177092 -0.020874
v -0.149340 1.188145 0.002933
v -0.129850 1.163529 0.002933
v -0.177089 1.206120 -0.020941
v -0.155466 1.207654 0.002933
v -0.178453 1.237463 -0.020949
v -0.157394 1.232753 0.002933
v -0.168201 1.268128 -0.021020
v -0.150527 1.256649 0.002933
v -0.145150 1.290442 -0.021046
v -0.198712 1.204586 0.002933
v -0.199512 1.242172 0.002933
v -0.185485 1.279444 0.002933
v -0.155830 1.307381 0.002933
v -0.116767 1.323491 0.002933
v -0.064909 1.103469 0.002933
v -0.038729 1.080510 0.002933
v -0.053750 1.066204 -0.020679
v -0.079552 1.089110 -0.020677
v -0.098005 1.131027 0.002933
v -0.110792 1.114940 -0.020675
v -0.144820 1.147968 -0.020673
v -0.185055 1.166039 0.002933
v -0.159790 1.132406 0.002933
v -0.123579 1.098853 0.002933
v -0.094194 1.074751 0.002933
v -0.068770 1.051897 0.002933
v -0.025848 1.033315 -0.020733
v -0.008418 1.045243 0.002933
v -0.043278 1.021388 0.002933
v 0.079048 1.066204 -0.020679
v 0.051147 1.033315 -0.020733
v 0.033716 1.045243 0.002933
v 0.064028 1.080510 0.002933
v 0.090208 1.103469 0.002933
v 0.104850 1.089110 -0.020677
v 0.123303 1.131027 0.002933
v 0.136090 1.114940 -0.020675
v 0.155149 1.163529 0.002933
v 0.170119 1.147968 -0.020672
v 0.192496 1.177092 -0.020874
v 0.174638 1.188145 0.002933
v 0.224011 1.204586 0.002933
v 0.210353 1.166039 0.002933
v 0.185089 1.132406 0.002933
v 0.148878 1.098853 0.002933
v 0.119493 1.074751 0.002933
v 0.094068 1.051897 0.002933
v 0.068577 1.021388 0.002933
v 0.202387 1.206120 -0.020941
v 0.180764 1.207654 0.002933
v 0.203752 1.237463 -0.020948
v 0.182693 1.232753 0.002933
v 0.193499 1.268128 -0.021020
v 0.175825 1.256649 0.002933
v 0.170448 1.290442 -0.021046
v 0.181128 1.307381 0.002933
v 0.210783 1.279444 0.002933
v 0.224810 1.242172 0.002933
v -0.025848 1.033315 0.026600
v -0.043278 1.021388 0.002933
v -0.027529 0.990001 0.002933
v -0.027529 0.990001 0.002933
v -0.043278 1.021388 0.002933
v -0.025848 1.033315 -0.020733
v -0.008418 1.045243 0.002933
v 0.012649 1.014686 0.002933
v 0.033716 1.045243 0.002933
v 0.051147 1.033315 -0.020733
v 0.012649 0.990001 -0.021210
v -0.027529 0.990001 0.002933
v 0.068577 1.021388 0.002933
v 0.052827 0.990001 0.002933
v 0.045385 0.969327 0.002933
v 0.012649 0.969327 -0.021210
v 0.045028 0.943691 0.002933
v -0.020087 0.969327 0.002933
v 0.012649 0.943691 -0.021210
v 0.012649 0.919004 -0.021210
v 0.055547 0.919004 0.002933
v 0.033632 0.908668 -0.020652
v -0.030249 0.919004 0.002933
v -0.019730 0.943691 0.002933
v -0.020052 0.885002 -0.020093
v -0.039944 0.888192 0.002933
v -0.008333 0.908668 -0.020652
v 0.012649 0.905659 0.002933
v 0.045351 0.885002 -0.020093
v 0.065243 0.888192 0.002933
v 0.090073 0.867024 -0.014270
v 0.084317 0.867596 0.002933
v -0.064775 0.867024 -0.014270
v -0.033677 0.862969 -0.031469
v -0.004566 0.854861 0.002933
v -0.000161 0.881811 0.002933
v 0.058976 0.862969 -0.031469
v 0.088748 0.845492 -0.012056
v 0.079284 0.847737 0.002933
v 0.065129 0.843247 -0.027048
v 0.029864 0.854861 0.002933
v 0.025459 0.881811 0.002933
v 0.050974 0.838756 0.002933
v -0.063450 0.845492 -0.012056
v -0.039831 0.843247 -0.027048
v -0.025676 0.838756 0.002933
v -0.053986 0.847737 0.002933
v -0.059019 0.867596 0.002933
v -0.053986 0.847737 0.002933
v -0.063450 0.845492 0.017922
v -0.064775 0.867024 0.020137
v -0.059019 0.867596 0.002933
v -0.039944 0.888192 0.002933
v -0.039831 0.843247 0.032914
v -0.025676 0.838756 0.002933
v -0.004566 0.854861 0.002933
v -0.033677 0.862969 0.037336
v -0.020052 0.885002 0.025959
v -0.030249 0.919004 0.002933
v -0.008333 0.908668 0.026518
v 0.012649 0.919004 0.027077
v -0.000161 0.881811 0.002933
v 0.012649 0.905659 0.002933
v 0.012649 0.905659 0.002933
v 0.033632 0.908668 0.026518
v 0.055547 0.919004 0.002933
v 0.045351 0.885002 0.025959
v 0.065243 0.888192 0.002933
v 0.090073 0.867024 0.020137
v 0.084317 0.867596 0.002933
v 0.079284 0.847737 0.002933
v 0.088748 0.845492 0.017923
v 0.065129 0.843247 0.032914
v 0.058976 0.862969 0.037336
v 0.012649 0.905659 0.002933
v 0.029864 0.854861 0.002933
v 0.025459 0.881811 0.002933
v 0.050974 0.838756 0.002933
v 0.045028 0.943691 0.002933
v 0.012649 0.943691 0.027077
v 0.012649 0.969327 0.027077
v -0.020087 0.969327 0.002933
v 0.012649 0.990001 0.027077
v -0.027529 0.990001 0.002933
v 0.012649 1.014686 0.002933
v -0.008418 1.045243 0.002933
v 0.045385 0.969327 0.002933
v 0.052827 0.990001 0.002933
v 0.051147 1.033315 0.026600
v 0.033716 1.045243 0.002933
v 0.068577 1.021388 0.002933
v -0.019730 0.943691 0.002933
v -0.030249 0.919004 0.002933
vn 0.9939 0.1105 -0.0000
vn -0.0000 0.0393 0.9992
vn -0.0000 -1.0000 -0.0000
vn 0.9939 0.1104 -0.0079
vn 0.9633 0.2685 -0.0000
vn 1.0000 -0.0079 -0.0000
vn -0.0000 -0.0393 0.9992
vn 0.9658 -0.2592 -0.0000
vn -0.0000 -0.0315 0.9995
vn 0.9658 -0.2592 -0.0078
vn 0.1018 -0.9948 -0.0000
vn 0.5088 -0.8609 -0.0078
vn 0.6750 -0.7378 -0.0000
vn 0.9658 -0.2591 -0.0000
vn 0.9183 0.3958 -0.0000
vn -0.9195 0.3930 -0.0079
vn -0.5145 -0.8575 -0.0078
vn -0.1096 -0.9939 -0.0078
vn -0.0393 0.0706 0.9967
vn -0.0000 1.0000 -0.0000
vn -0.1733 0.9848 -0.0079
vn -0.9975 -0.0702 -0.0000
vn -0.9196 0.3929 -0.0000
vn -0.0392 0.0707 0.9967
vn -0.9502 -0.3116 -0.0078
vn -0.9975 -0.0701 -0.0078
vn -0.1733 0.9849 -0.0000
vn 0.9183 0.3958 -0.0079
vn 0.9975 -0.0706 -0.0000
vn 0.0314 0.0707 0.9970
vn 0.1657 0.9862 -0.0000
vn 0.9495 -0.3139 -0.0000
vn 0.9975 -0.0706 -0.0078
vn 0.0312 0.0701 -0.9971
vn -0.9975 -0.0701 -0.0000
vn -0.0389 0.0701 -0.9968
vn -0.1734 0.9849 -0.0000
vn -0.0000 -0.0312 -0.9995
vn 0.9975 -0.0707 -0.0078
vn 0.9183 0.3959 -0.0000
vn 0.5087 -0.8609 -0.0078
vn -0.9195 0.3930 -0.0000
vn -0.5146 -0.8575 0.0001
vn -0.9999 -0.0078 -0.0078
vn -0.0000 -0.0390 -0.9992
vn -0.0000 0.0390 -0.9992
vn -0.9663 -0.2572 -0.0078
vn -0.6793 -0.7339 -0.0000
vn -0.0001 -1.0000 -0.0000
vn -0.9940 0.1095 -0.0078
vn -0.9638 0.2664 -0.0078
vn -0.3053 -0.5949 0.7436
vn -0.3035 -0.5914 -0.7471
vn -0.3511 -0.9363 -0.0000
vn 0.5287 0.2920 0.7970
vn 0.3615 0.1964 -0.9114
vn -0.3510 -0.9364 -0.0000
vn 0.3614 0.1964 -0.9115
vn 0.1251 -0.6489 -0.7505
vn 0.3045 -0.9525 -0.0000
vn 0.1337 -0.8022 0.5820
vn 0.1250 -0.6489 -0.7505
vn 0.1100 -0.3378 0.9348
vn 0.3795 0.9252 -0.0000
vn 0.3796 0.9251 -0.0079
vn 0.3044 -0.9525 -0.0000
vn 0.3796 0.9252 -0.0000
vn -0.3613 0.5263 0.7697
vn -0.7841 0.0392 0.6194
vn -0.1259 0.0393 0.9913
vn -0.8600 -0.0469 0.5082
vn -0.8481 0.5261 0.0628
vn -0.3219 -0.7536 0.5731
vn -0.0000 -0.0629 0.9980
vn 0.4823 0.5218 0.7037
vn 0.4964 0.0473 0.8668
vn 0.9989 0.0472 -0.0000
vn 0.9999 0.0079 -0.0079
vn 0.1413 0.0314 0.9895
vn 0.8602 -0.0710 0.5050
vn 0.8476 0.5259 -0.0706
vn 0.7881 0.0315 0.6148
vn 0.3303 -0.7551 0.5663
vn -0.0078 -0.9471 0.3209
vn 0.2817 -0.9467 0.1565
vn 0.6585 -0.7525 0.0078
vn 0.9191 0.0314 0.3928
vn 0.9312 0.0316 -0.3631
vn 0.8481 -0.0628 -0.5261
vn 0.3530 0.5099 -0.7845
vn 0.4931 0.0470 -0.8687
vn 0.7486 0.0394 -0.6619
vn 0.1567 0.0392 -0.9869
vn 0.0156 -0.0624 -0.9979
vn 0.3282 -0.7345 -0.5939
vn 0.3377 -0.9188 -0.2042
vn -0.0000 -0.9447 -0.3279
vn -0.2881 -0.8177 -0.4984
vn -0.1479 0.0311 -0.9885
vn -0.8414 -0.0545 -0.5376
vn -0.4922 0.5235 -0.6954
vn -0.9174 0.0855 -0.3887
vn -0.6872 -0.7263 -0.0156
vn -0.2730 -0.9436 -0.1872
vn -0.7873 0.0312 -0.6158
vn -0.4989 0.0468 -0.8654
vn -0.4995 0.0079 -0.8663
vn 0.4936 0.0078 -0.8697
vn 0.4936 -0.0078 -0.8697
vn -0.4995 -0.0078 -0.8663
vn -1.0000 -0.0078 -0.0000
vn -1.0000 0.0078 -0.0000
vn -0.9989 0.0468 -0.0000
vn -0.9948 -0.1018 -0.0000
vn 0.4970 0.0079 0.8677
vn 0.9999 -0.0079 -0.0079
vn 0.4765 -0.0859 -0.8749
vn -0.4069 -0.1017 -0.9078
vn -0.2816 0.6257 -0.7274
vn -0.0078 0.6585 -0.7526
vn 0.5024 0.4239 -0.7536
vn 0.9947 -0.1026 -0.0079
vn 0.4970 -0.0079 0.8677
vn -0.5028 0.0079 0.8644
vn -0.5023 0.0471 0.8634
vn 0.9286 0.3462 0.1338
vn 0.4033 -0.1028 0.9093
vn -0.5029 -0.0079 0.8643
vn -0.4859 -0.0862 0.8698
vn -0.0079 0.6624 0.7491
vn -0.5107 0.4400 0.7386
vn -0.9224 0.3596 -0.1407
vn 0.1810 0.9835 -0.0000
vn -0.0236 0.9997 -0.0000
vn -0.1885 0.9821 -0.0000
vn 0.2844 0.6161 0.7345
vn 0.6617 -0.0472 0.7483
vn 0.9992 0.0393 0.0001
vn -0.7914 0.6112 -0.0078
vn 0.6616 -0.0473 0.7483
vn -0.7915 0.6111 -0.0078
vn 0.6617 -0.0473 0.7483
vn 0.3511 0.0078 -0.9363
vn 0.8026 -0.0866 -0.5902
vn 0.9992 0.0393 -0.0000
vn -0.7915 0.6112 -0.0079
vn -0.7914 0.6112 -0.0079
vn 0.9992 0.0393 -0.0001
vn -0.2880 -0.8177 -0.4985
vn -0.3290 -0.9166 0.2272
vn 0.0001 -1.0000 -0.0000
vn -0.2882 -0.8177 -0.4984
vn 0.3282 -0.7346 -0.5939
vn 0.3304 -0.7551 0.5663
vn 0.6585 -0.7526 0.0079
vn 0.3691 -0.9267 -0.0707
vn 0.2179 -0.7704 -0.5992
vn 0.6418 -0.3209 -0.6965
vn 0.9384 -0.3076 0.1577
vn 0.9404 0.3398 -0.0158
vn -0.9471 0.3209 0.0078
vn -0.9326 0.3213 0.1645
vn -0.6240 0.3432 -0.7020
vn -0.5087 0.3756 -0.7747
vn 0.3048 0.3752 -0.8754
vn 0.4560 0.3695 -0.8097
vn 0.9218 0.3466 -0.1733
vn -0.3267 -0.3267 -0.8869
vn -0.3592 -0.8512 -0.3826
vn -0.5309 -0.8431 0.0859
vn -0.5308 -0.8431 0.0859
vn -0.9381 -0.3049 -0.1642
vn -0.2278 0.7304 -0.6440
vn -0.8094 0.5658 -0.1572
vn -0.3698 0.8262 0.4249
vn 0.3618 0.8258 -0.4326
vn 0.2214 0.7354 0.6405
vn 0.8077 0.5701 0.1504
vn 0.0784 0.1804 -0.9805
vn -0.1412 0.8077 -0.5724
vn -0.0552 0.9618 -0.2680
vn 0.8910 0.1577 -0.4258
vn 0.9733 0.1583 0.1662
vn 0.8722 -0.4479 0.1964
vn 0.3699 0.9288 -0.0236
vn -0.3695 0.9276 0.0550
vn -0.1180 0.9910 0.0629
vn 0.0157 0.9998 0.0157
vn -0.2568 0.9288 -0.2672
vn -0.6975 0.6975 0.1646
vn -0.6511 0.3766 -0.6590
vn -0.3428 -0.0935 -0.9348
vn 0.5336 -0.3845 -0.7533
vn 0.8743 -0.3229 0.3623
vn 0.9890 -0.0785 0.1256
vn -0.8554 -0.3422 -0.3888
vn -0.3589 -0.3667 -0.8583
vn 0.2586 -0.0627 -0.9640
vn 0.6992 -0.0079 -0.7149
vn 0.9404 0.0079 0.3398
vn 0.9369 0.2834 0.2047
vn 0.4383 0.2583 -0.8609
vn 0.3590 -0.2264 -0.9055
vn -0.1406 -0.2032 -0.9690
vn 0.8507 0.4568 0.2600
vn 0.9824 -0.1808 0.0472
vn 0.0779 -0.9038 -0.4207
vn 0.0781 -0.8436 -0.5312
vn -0.6496 0.2661 -0.7122
vn -0.6174 -0.7346 -0.2813
vn -0.7054 -0.1254 0.6976
vn -0.7100 -0.6554 0.2575
vn 0.1882 -0.8705 0.4548
vn -0.0313 -0.8458 0.5326
vn -0.0470 -0.9157 0.3991
vn -0.4706 0.4470 0.7608
vn 0.2921 0.0474 0.9552
vn 0.4573 0.1577 0.8752
vn -0.0469 -0.9157 0.3991
vn 0.1882 -0.8705 0.4549
vn 0.8507 0.4569 0.2599
vn 0.4345 -0.0079 0.9006
vn -0.5937 -0.0000 0.8047
vn -0.3629 -0.0395 0.9310
vn 0.3950 -0.0632 0.9165
vn -0.2986 -0.3693 0.8800
vn 0.3774 -0.3695 0.8491
vn 0.0393 0.0236 0.9989
vn 0.4013 -0.5508 0.7318
vn -0.0868 0.0553 0.9947
vn 0.5187 0.1022 0.8488
vn -0.1967 0.7946 0.5743
vn -0.0316 0.9482 0.3161
vn 0.1967 0.9286 0.3148
vn 0.3700 0.9287 -0.0236
vn -0.2371 0.7508 0.6165
vn -0.7656 -0.2656 0.5859
vn -0.8044 -0.5389 -0.2499
vn -0.5072 -0.0780 -0.8583
vn -0.9909 -0.0780 -0.1093
vn -0.4060 -0.0234 -0.9136
vn -0.9388 -0.0078 -0.3442
vn -0.3671 0.2109 -0.9060
vn -0.9543 0.2972 -0.0313
vn -0.2882 -0.8176 -0.4984
vn -0.9338 0.0941 0.3453
vn 0.2593 -0.6129 0.7464
vn -0.3529 0.2195 -0.9095
vn -0.5179 0.3218 0.7926
vn 0.2902 -0.9570 -0.0000
vn 0.2578 -0.6093 -0.7499
vn -0.3528 0.2195 -0.9096
vn 0.2831 0.9591 -0.0000
vn 0.0949 0.1186 0.9884
vn 0.1809 0.9835 -0.0000
vn -0.1337 0.9910 -0.0000
vn 0.5547 0.8321 -0.0000
vn 0.9888 0.1491 -0.0000
vn 0.9487 0.3163 -0.0000
vn 0.9263 0.3768 -0.0000
vn -0.5601 0.8284 -0.0000
vn -0.9890 0.1479 -0.0078
vn -0.1027 0.1185 0.9876
vn -0.9494 0.3139 -0.0078
vn -0.9274 0.3740 -0.0078
vn -0.0632 0.1897 0.9798
vn -0.1886 0.9821 -0.0000
vn 0.1260 0.9920 -0.0000
vn -0.5601 0.8284 -0.0079
vn 0.3220 -0.3298 0.8874
vn 0.5044 0.3861 0.7723
vn -0.4739 0.3554 0.8057
vn -0.6498 -0.3210 0.6890
vn -0.1799 -0.8603 0.4771
vn -0.9326 0.3213 0.1646
vn -0.3150 0.3701 0.8740
vn 0.6244 0.3556 0.6955
vn 0.9384 -0.3075 0.1577
vn 0.9218 0.3467 -0.1733
vn 0.4381 -0.7667 0.4694
vn 0.3691 -0.9267 -0.0706
vn -0.4429 -0.3885 -0.8080
vn -0.9205 -0.3901 -0.0234
vn 0.4760 -0.3902 -0.7881
vn -0.9568 0.2902 0.0157
vn 0.9194 -0.3929 0.0157
vn 0.4936 -0.0078 -0.8696
vn -0.4984 0.2881 -0.8177
vn -0.8121 -0.5622 -0.1562
vn 0.6244 0.3557 0.6955
vn 0.4394 -0.3923 0.8081
vn -0.4850 -0.3911 0.7822
vn -0.9205 -0.3900 -0.0234
vn -0.5029 -0.0078 0.8643
vn -0.4652 0.2917 0.8357
vn -0.5479 -0.5635 0.6183
vn -0.9180 -0.3578 0.1711
vn -0.3137 -0.3607 0.8783
vn -0.8094 0.5658 -0.1571
vn 0.4957 0.2911 0.8183
vn 0.2676 -0.5667 0.7792
vn 0.6110 -0.3603 0.7049
vn 0.8104 -0.5665 0.1495
vn 0.9155 -0.3599 -0.1799
vn 0.2214 0.7353 0.6405
vn 0.8077 0.5701 0.1505
vn 0.3045 -0.3591 -0.8822
vn -0.2277 0.7304 -0.6440
vn -0.6125 -0.3566 -0.7055
vn 0.5397 -0.5632 -0.6257
vn -0.2732 -0.5621 -0.7807
vn 0.9560 0.2923 -0.0237
vn 0.4559 0.2909 -0.8411
vn -0.9180 -0.3579 0.1712
vn 0.0942 0.1177 -0.9886
vn -0.3863 0.9224 -0.0000
vn -0.3116 -0.9502 -0.0078
vn -0.1258 -0.4718 0.8727
vn -0.3862 0.9224 -0.0000
vn -0.1408 -0.8759 0.4614
vn -0.3115 -0.9502 -0.0078
vn -0.1328 -0.6482 -0.7498
vn -0.1328 -0.6483 -0.7498
vn -0.1327 -0.6482 -0.7498
vn -0.1019 0.1176 -0.9878
vn -0.9890 0.1480 -0.0078
vn -0.0627 0.1882 -0.9801
vn -0.5602 0.8284 -0.0079
vn -0.9939 0.1096 -0.0078
vn 0.7885 0.6150 -0.0079
vn -0.9992 0.0390 -0.0000
vn -0.6660 -0.0470 0.7444
vn -0.8762 -0.1095 -0.4694
vn -0.6661 -0.0470 0.7444
vn -0.4843 -0.0156 -0.8748
vn -0.8762 -0.1096 -0.4694
vn -0.4842 -0.0156 -0.8748
vn -0.7187 -0.6953 -0.0000
vn -0.8368 -0.5475 -0.0000
vn -0.1103 -0.0551 0.9924
vn 0.7491 0.6624 -0.0079
vn -0.2665 -0.2430 0.9327
vn 0.0079 -0.0236 0.9997
vn -0.6711 -0.7414 -0.0000
vn -0.6463 -0.7631 -0.0078
vn -0.0079 -0.0000 1.0000
vn 0.2518 0.2440 0.9365
vn 0.7816 0.6237 -0.0079
vn 0.7110 0.7031 -0.0079
vn 0.6540 0.7564 -0.0079
vn 0.6624 0.7492 -0.0000
vn 0.8148 -0.5798 -0.0078
vn 0.4876 -0.8731 -0.0000
vn 0.0628 0.0393 0.9973
vn 0.0395 0.0869 0.9954
vn 0.9835 -0.1810 -0.0000
vn -0.0000 0.0785 0.9969
vn 0.9910 0.1337 -0.0000
vn -0.0157 0.0472 0.9988
vn 0.9082 0.4185 -0.0079
vn -0.0315 0.0472 0.9984
vn -0.7414 -0.6711 -0.0000
vn -0.8519 -0.5236 -0.0000
vn -0.9724 -0.2334 -0.0000
vn -0.9955 0.0940 -0.0078
vn -0.8815 0.4722 -0.0000
vn -0.6025 0.7981 -0.0000
vn -0.2444 0.9696 -0.0079
vn 0.0785 0.0078 0.9969
vn 0.1337 0.9910 -0.0078
vn 0.0707 -0.0157 0.9974
vn 0.4250 0.9052 -0.0079
vn 0.0236 -0.0315 0.9992
vn 0.6371 0.7708 -0.0079
vn 0.0079 -0.0157 0.9998
vn 0.7708 0.6370 -0.0078
vn 0.0315 -0.0314 0.9990
vn -0.6792 -0.7339 -0.0000
vn -0.7944 -0.6074 -0.0000
vn -0.5529 -0.8332 -0.0000
vn -0.2572 -0.9664 -0.0000
vn 0.1173 -0.9931 -0.0000
vn -0.0785 -0.0157 0.9968
vn -0.1414 0.9900 -0.0000
vn -0.4314 0.9021 -0.0000
vn -0.0315 -0.0315 0.9990
vn -0.6417 0.7669 -0.0000
vn -0.0157 -0.0157 0.9998
vn -0.7740 0.6332 -0.0000
vn -0.0393 -0.0314 0.9987
vn -0.0000 -0.2202 0.9754
vn 0.7915 -0.6112 -0.0000
vn 0.6750 -0.7378 -0.0079
vn 0.5474 -0.8368 -0.0078
vn 0.2499 -0.9683 -0.0000
vn -0.1250 -0.9921 -0.0078
vn 0.0079 0.0472 0.9989
vn 0.9720 -0.2351 -0.0000
vn 0.9955 0.0948 -0.0000
vn -0.0079 0.0785 0.9969
vn 0.8797 0.4755 -0.0079
vn -0.0474 0.0869 0.9951
vn 0.5974 0.8019 -0.0079
vn -0.0706 0.0392 0.9967
vn 0.2369 0.9715 -0.0079
vn -0.0863 0.0078 0.9962
vn -0.1250 -0.9922 -0.0000
vn -0.4936 -0.8697 -0.0000
vn -0.8174 -0.5761 -0.0000
vn -0.9837 -0.1796 -0.0000
vn -0.9911 0.1327 -0.0078
vn -0.9095 0.4156 -0.0078
vn 0.0236 0.0472 0.9986
vn -0.7526 0.6585 -0.0000
vn -0.6585 0.7526 -0.0000
vn -0.7149 0.6992 -0.0000
vn -0.2592 0.2435 0.9346
vn -0.0000 -0.0000 1.0000
vn -0.6668 0.7452 -0.0000
vn -0.0158 -0.0236 0.9996
vn 0.2592 -0.2435 0.9346
vn 0.8498 -0.5272 -0.0000
vn 0.7378 -0.6750 -0.0000
vn 0.6668 -0.7452 -0.0078
vn 0.6417 -0.7669 -0.0078
vn 0.7149 -0.6992 -0.0000
vn 0.1024 -0.0552 0.9932
vn -0.7847 0.6199 -0.0000
vn 0.8344 -0.5511 -0.0000
vn 0.2370 0.9715 -0.0079
vn -0.0856 0.0078 -0.9963
vn -0.0390 -0.0312 -0.9988
vn -0.0156 -0.0156 -0.9998
vn -0.0312 -0.0312 -0.9990
vn -0.0779 -0.0156 -0.9968
vn -0.0000 -0.2186 -0.9758
vn 0.6750 -0.7378 -0.0078
vn 0.0701 -0.0156 -0.9974
vn 0.1337 0.9910 -0.0079
vn 0.4250 0.9051 -0.0079
vn 0.0234 -0.0312 -0.9992
vn 0.6370 0.7708 -0.0079
vn 0.0078 -0.0156 -0.9998
vn 0.7708 0.6371 -0.0079
vn 0.0312 -0.0312 -0.9990
vn 0.0779 0.0078 -0.9969
vn -0.0312 0.0468 -0.9984
vn -0.0156 0.0468 -0.9988
vn -0.0000 0.0779 -0.9970
vn 0.0392 0.0862 -0.9955
vn 0.8148 -0.5797 -0.0078
vn 0.0623 0.0389 -0.9973
vn -0.2444 0.9697 -0.0079
vn 0.2500 0.2422 -0.9375
vn -0.0078 -0.0000 -1.0000
vn 0.0078 -0.0234 -0.9997
vn -0.2645 -0.2412 -0.9337
vn -0.6463 -0.7630 -0.0078
vn -0.1094 -0.0547 -0.9925
vn -0.2573 0.2417 -0.9356
vn 0.1017 -0.0547 -0.9933
vn -0.0000 -0.0000 -1.0000
vn -0.0156 -0.0234 -0.9996
vn 0.2573 -0.2417 -0.9356
vn 0.0234 0.0468 -0.9986
vn 0.6668 -0.7452 -0.0079
vn 0.0078 0.0468 -0.9989
vn -0.0078 0.0779 -0.9969
vn -0.0470 0.0862 -0.9952
vn -0.0701 0.0389 -0.9968
vn -0.1102 -0.0551 0.9924
vn -0.8369 -0.5474 -0.0000
vn -0.8716 -0.4902 -0.0000
vn -0.8716 -0.4902 -0.0078
vn 0.1017 -0.0548 -0.9933
vn -0.0078 -0.0156 -0.9998
vn 0.8345 -0.5511 -0.0000
vn 0.8697 -0.4936 -0.0000
vn 0.9930 -0.1182 -0.0000
vn 0.1403 -0.0078 -0.9901
vn 0.9969 0.0785 -0.0000
vn -0.9963 -0.0856 -0.0078
vn -0.1480 -0.0078 -0.9890
vn -0.0078 0.0235 -0.9997
vn 0.8404 0.5419 -0.0000
vn -0.0311 -0.0779 -0.9965
vn -0.8427 0.5384 -0.0000
vn 0.1413 0.1805 -0.9734
vn -0.7339 0.6792 -0.0000
vn 0.0234 -0.0778 -0.9967
vn -0.0000 -1.0000 -0.0078
vn -0.1490 0.1804 -0.9723
vn 0.7303 0.6832 -0.0000
vn 0.8814 0.4092 -0.2361
vn 0.9678 0.2518 -0.0000
vn -0.8831 0.4064 -0.2344
vn 0.0078 -0.0078 -0.9999
vn 0.8944 -0.4472 -0.0000
vn 0.9439 -0.3304 -0.0000
vn -0.0156 -0.0078 -0.9998
vn 0.7693 -0.4710 -0.4318
vn 0.6831 -0.7303 -0.0000
vn -0.1167 -0.8638 -0.4902
vn -0.8960 -0.4441 -0.0078
vn -0.9447 -0.3279 -0.0078
vn -0.1556 -0.9878 -0.0000
vn -0.7724 -0.4681 -0.4292
vn 0.1090 -0.8645 -0.4906
vn 0.1479 -0.9890 -0.0000
vn -0.6873 -0.7263 -0.0078
vn -0.9683 0.2499 -0.0000
vn -0.7750 -0.4697 0.4227
vn -0.8847 0.4071 0.2270
vn 0.1095 -0.8678 0.4847
vn 0.0079 -0.0079 0.9999
vn 0.1424 0.1819 0.9729
vn 0.0235 -0.0785 0.9966
vn -0.0079 0.0236 0.9997
vn -0.0314 -0.0785 0.9964
vn -0.1501 0.1817 0.9718
vn 0.8830 0.4100 0.2286
vn 0.7719 -0.4726 0.4253
vn -0.1172 -0.8670 0.4843
vn -0.0157 -0.0079 0.9998
vn -0.0000 -1.0000 -0.0079
vn -0.8959 -0.4441 -0.0078
vn -0.1491 -0.0078 0.9888
vn 0.1414 -0.0078 0.9899
vn -0.0079 -0.0157 0.9998
vn -0.8715 -0.4903 -0.0078
vn 0.1025 -0.0552 0.9932
vn -0.8426 0.5384 -0.0078
vt 0.491211 0.821289
vt 0.491211 0.847534
vt 0.455322 0.847778
vt 0.491211 0.821289
vt 0.500977 0.829956
vt 0.515625 0.830200
vt 0.523438 0.847778
vt 0.530762 0.822266
vt 0.580078 0.847534
vt 0.530762 0.822266
vt 0.555664 0.767212
vt 0.554688 0.710938
vt 0.547852 0.804321
vt 0.572754 0.734863
vt 0.571777 0.952057
vt 0.553223 0.977020
vt 0.554688 0.921204
vt 0.605469 0.909607
vt 0.602539 0.847534
vt 0.633789 0.979233
vt 0.588379 0.945251
vt 0.571777 0.952057
vt 0.606934 0.948669
vt 0.588379 0.945251
vt 0.633789 0.979233
vt 0.572754 0.734863
vt 0.589355 0.742432
vt 0.606445 0.780396
vt 0.633789 0.710449
vt 0.607910 0.739746
vt 0.589355 0.742432
vt 0.606445 0.780396
vt 0.607910 0.739746
vt 0.589355 0.742432
vt 0.633789 0.710449
vt 0.602539 0.847534
vt 0.588379 0.945251
vt 0.606934 0.948669
vt 0.605469 0.909607
vt 0.633789 0.979233
vt 0.580078 0.847534
vt 0.589355 0.742432
vt 0.572754 0.734863
vt 0.554688 0.710938
vt 0.555664 0.767212
vt 0.547852 0.804321
vt 0.571777 0.952057
vt 0.553223 0.977020
vt 0.515625 0.865845
vt 0.523438 0.847534
vt 0.491211 0.847534
vt 0.531250 0.871826
vt 0.548340 0.886597
vt 0.554688 0.921204
vt 0.553223 0.977020
vt 0.530762 0.822266
vt 0.515625 0.830200
vt 0.500977 0.829956
vt 0.491211 0.821289
vt 0.455322 0.847778
vt 0.491211 0.877502
vt 0.500488 0.865356
vt 0.980469 0.811523
vt 0.980469 0.838135
vt 0.909180 0.829590
vt 0.909180 0.823486
vt 0.887695 0.827637
vt 0.906250 0.799683
vt 0.980469 0.696777
vt 0.908691 0.816162
vt 0.890625 0.820068
vt 0.905762 0.852539
vt 0.889648 0.833618
vt 0.906738 0.835205
vt 0.980469 0.952332
vt 0.907227 0.829346
vt 0.887695 0.827637
vt 0.907227 0.823853
vt 0.980469 0.838135
vt 0.980469 0.811523
vt 0.905273 0.800659
vt 0.980469 0.696777
vt 0.908691 0.816040
vt 0.905273 0.800659
vt 0.890625 0.820068
vt 0.980469 0.952332
vt 0.905762 0.851440
vt 0.906738 0.835205
vt 0.889648 0.833618
vt 0.066895 0.208496
vt 0.032166 0.216797
vt 0.028671 0.196777
vt 0.032196 0.224609
vt 0.066956 0.241699
vt 0.007202 0.207031
vt 0.032196 0.187012
vt 0.067017 0.167480
vt 0.224487 0.163574
vt 0.224487 0.125000
vt 0.493652 0.125977
vt 0.032196 0.176758
vt 0.032196 0.145020
vt 0.067383 0.124023
vt 0.028687 0.155762
vt 0.007202 0.166504
vt 0.007202 0.187012
vt 0.007202 0.145020
vt 0.007202 0.123047
vt 0.032196 0.134277
vt 0.028748 0.111816
vt 0.032196 0.101074
vt 0.067261 0.079590
vt 0.224487 0.086426
vt 0.032532 0.088379
vt 0.031891 0.070801
vt 0.032257 0.059570
vt 0.007206 0.079590
vt 0.007202 0.101074
vt 0.007217 0.059570
vt 0.007229 0.040039
vt 0.032349 0.049316
vt 0.032257 0.022949
vt 0.066956 0.006836
vt 0.066406 0.039551
vt 0.034302 0.014160
vt 0.007202 0.006836
vt 0.007217 0.022949
vt 0.028732 0.031250
vt 0.224487 0.049316
vt 0.493652 0.050781
vt 0.493652 0.087891
vt 0.713379 0.088867
vt 0.713379 0.051270
vt 0.713379 0.006836
vt 0.493652 0.006836
vt 0.224487 0.006836
vt 0.932129 0.006836
vt 0.493652 0.163574
vt 0.713379 0.126953
vt 0.932129 0.088379
vt 0.932129 0.050293
vt 0.970703 0.046387
vt 0.966309 0.068359
vt 0.969727 0.089844
vt 0.932129 0.127930
vt 0.713379 0.164551
vt 0.493652 0.201172
vt 0.224487 0.201660
vt 0.978516 0.131348
vt 0.932129 0.167480
vt 0.713379 0.201660
vt 0.493652 0.241699
vt 0.224487 0.241699
vt 0.932129 0.204590
vt 0.965820 0.191895
vt 0.970215 0.214355
vt 0.932129 0.241699
vt 0.713379 0.241699
vt 0.975586 0.260254
vt 0.989746 0.232910
vt 0.992676 0.196777
vt 0.991211 0.159668
vt 0.969238 0.170898
vt 0.976562 0.002441
vt 0.990234 0.029785
vt 0.993164 0.065918
vt 0.991211 0.103027
vt 0.908691 0.816040
vt 0.890625 0.820068
vt 0.906250 0.799561
vt 0.980469 0.811523
vt 0.980469 0.696777
vt 0.980469 0.838135
vt 0.906738 0.829346
vt 0.906738 0.823853
vt 0.887695 0.827637
vt 0.980469 0.952332
vt 0.905762 0.852661
vt 0.906738 0.835205
vt 0.889648 0.833618
vt 0.645996 0.578369
vt 0.640625 0.556885
vt 0.643066 0.547119
vt 0.671387 0.609619
vt 0.653809 0.609863
vt 0.696289 0.578369
vt 0.700684 0.557129
vt 0.697754 0.547363
vt 0.687500 0.604004
vt 0.640137 0.537354
vt 0.644531 0.516113
vt 0.652832 0.490723
vt 0.668945 0.485352
vt 0.694824 0.516113
vt 0.700195 0.537598
vt 0.685547 0.490234
vt 0.848633 0.611572
vt 0.848633 0.566406
vt 0.864258 0.566406
vt 0.864258 0.611572
vt 0.880859 0.611572
vt 0.880859 0.488281
vt 0.896973 0.488281
vt 0.896973 0.523438
vt 0.880859 0.523438
vt 0.896973 0.566406
vt 0.880859 0.566406
vt 0.896973 0.611572
vt 0.864258 0.523438
vt 0.848633 0.523438
vt 0.832520 0.596191
vt 0.832520 0.493652
vt 0.848633 0.488281
vt 0.864258 0.488281
vt 0.651367 0.485352
vt 0.687012 0.484863
vt 0.702637 0.547363
vt 0.638184 0.547119
vt 0.689453 0.609375
vt 0.653809 0.609863
vt 0.313965 0.727783
vt 0.339600 0.710449
vt 0.339600 0.778198
vt 0.314453 0.789062
vt 0.308838 0.826416
vt 0.282227 0.797607
vt 0.343262 0.812256
vt 0.359375 0.774536
vt 0.364502 0.721436
vt 0.362061 0.660400
vt 0.345703 0.673340
vt 0.352783 0.566895
vt 0.337402 0.625977
vt 0.316650 0.666016
vt 0.279541 0.722168
vt 0.271240 0.780151
vt 0.224854 0.734863
vt 0.318604 0.625977
vt 0.281250 0.653320
vt 0.229736 0.688721
vt 0.142090 0.677979
vt 0.142090 0.715332
vt 0.084106 0.748047
vt 0.082214 0.708496
vt 0.056702 0.717041
vt 0.055328 0.673096
vt 0.068115 0.777466
vt 0.047150 0.782471
vt 0.039703 0.731689
vt 0.034973 0.675293
vt 0.054657 0.636963
vt 0.037872 0.638428
vt 0.046234 0.580078
vt 0.027084 0.611572
vt 0.022842 0.751099
vt 0.011192 0.685303
vt 0.011322 0.650146
vt 0.079895 0.562012
vt 0.054749 0.512939
vt 0.080505 0.517822
vt 0.019592 0.563477
vt 0.030029 0.527100
vt 0.034515 0.462891
vt 0.055511 0.436035
vt 0.068726 0.458008
vt 0.083862 0.481934
vt 0.142090 0.508789
vt 0.142090 0.543213
vt 0.142090 0.572266
vt 0.231934 0.561279
vt 0.229126 0.520996
vt 0.282715 0.544922
vt 0.278564 0.479004
vt 0.318604 0.491699
vt 0.291260 0.444336
vt 0.322998 0.525391
vt 0.225586 0.487793
vt 0.273438 0.443848
vt 0.281006 0.413574
vt 0.313721 0.439941
vt 0.337646 0.446777
vt 0.340088 0.486328
vt 0.308350 0.377930
vt 0.332764 0.403809
vt 0.355713 0.427734
vt 0.341309 0.386719
vt 0.364502 0.472168
vt 0.368896 0.520752
vt 0.352295 0.521484
vt 0.325439 0.575684
vt 0.282715 0.607422
vt 0.231812 0.645508
vt 0.233032 0.607910
vt 0.142090 0.647705
vt 0.142090 0.611084
vt 0.083374 0.662598
vt 0.082336 0.614502
vt 0.697754 0.547363
vt 0.643066 0.547119
vt 0.640137 0.537354
vt 0.007202 0.224609
vt 0.007202 0.241699
vt 0.032379 0.235352
vt 0.034454 0.248047
vt 0.980469 0.838135
vt 0.980469 0.952332
vt 0.905762 0.851929
vt 0.906738 0.835205
vt 0.889648 0.833618
vt 0.903320 0.828979
vt 0.887695 0.827637
vt 0.903320 0.824463
vt 0.980469 0.811523
vt 0.980469 0.696777
vt 0.908691 0.816162
vt 0.905762 0.800171
vt 0.890625 0.820068
vt 0.501953 0.968048
vt 0.369629 0.968018
vt 0.434082 0.903503
vt 0.402832 0.846924
vt 0.386963 0.785522
vt 0.353516 0.842529
vt 0.312988 0.886536
vt 0.237671 0.968018
vt 0.386963 0.785522
vt 0.353516 0.842529
vt 0.369629 0.968018
vt 0.312988 0.886536
vt 0.237671 0.968018
vt 0.501953 0.968048
vt 0.434082 0.903503
vt 0.402832 0.846924
vt 0.386963 0.785522
vt 0.864258 0.523438
vt 0.880859 0.523438
vt 0.880859 0.566406
vt 0.864258 0.566406
vt 0.848633 0.566406
vt 0.848633 0.611572
vt 0.864258 0.611572
vt 0.880859 0.611572
vt 0.896973 0.611572
vt 0.896973 0.566406
vt 0.896973 0.523438
vt 0.880859 0.488281
vt 0.864258 0.488281
vt 0.896973 0.488281
vt 0.848633 0.523438
vt 0.848633 0.488281
vt 0.832520 0.493652
vt 0.832520 0.596191
vt 0.694336 0.208984
vt 0.694336 0.242676
vt 0.683105 0.242676
vt 0.694336 0.167480
vt 0.683105 0.208984
vt 0.672363 0.242676
vt 0.694336 0.124023
vt 0.683105 0.167480
vt 0.672363 0.208984
vt 0.656250 0.242676
vt 0.702637 0.208984
vt 0.702637 0.242676
vt 0.702637 0.167480
vt 0.702637 0.124023
vt 0.702637 0.080566
vt 0.694336 0.080566
vt 0.702637 0.040527
vt 0.694336 0.040527
vt 0.702637 0.007812
vt 0.694336 0.007812
vt 0.683105 0.040527
vt 0.683105 0.007812
vt 0.672363 0.040527
vt 0.672363 0.007812
vt 0.656250 0.040527
vt 0.655762 0.007812
vt 0.641602 0.007812
vt 0.641602 0.040527
vt 0.630859 0.040527
vt 0.630371 0.007812
vt 0.683105 0.080566
vt 0.672363 0.080566
vt 0.656250 0.080566
vt 0.641602 0.080566
vt 0.656250 0.124023
vt 0.641602 0.124023
vt 0.630859 0.080566
vt 0.630859 0.124023
vt 0.630859 0.167480
vt 0.641602 0.167480
vt 0.630859 0.208984
vt 0.641602 0.208984
vt 0.630859 0.242676
vt 0.656250 0.167480
vt 0.656250 0.208984
vt 0.672363 0.124023
vt 0.672363 0.167480
vt 0.683105 0.124023
vt 0.641602 0.242676
vt 0.501953 0.968048
vt 0.434082 0.903503
vt 0.369629 0.968018
vt 0.402832 0.846924
vt 0.386963 0.785522
vt 0.353516 0.842529
vt 0.312988 0.886536
vt 0.237671 0.968018
vt 0.905762 0.852173
vt 0.889648 0.833618
vt 0.906738 0.835205
vt 0.980469 0.952332
vt 0.980469 0.838135
vt 0.908691 0.829590
vt 0.887695 0.827637
vt 0.908691 0.823608
vt 0.980469 0.811523
vt 0.980469 0.696777
vt 0.908691 0.816162
vt 0.905762 0.800049
vt 0.890625 0.820068
vt 0.369629 0.968018
vt 0.238159 0.968018
vt 0.312988 0.886536
vt 0.353516 0.842529
vt 0.386963 0.785522
vt 0.501953 0.968048
vt 0.434082 0.903503
vt 0.402832 0.846924
vt 0.386963 0.785522
vt 0.548340 0.886597
vt 0.531250 0.871826
vt 0.515625 0.865845
vt 0.500488 0.865356
vt 0.491211 0.877502
vt 0.455322 0.847778
vt 0.905762 0.852173
vt 0.889648 0.833618
vt 0.906738 0.835205
vt 0.980469 0.952332
vt 0.980469 0.838135
vt 0.980469 0.811523
vt 0.914062 0.830322
vt 0.914062 0.822754
vt 0.887695 0.827637
vt 0.980469 0.696777
vt 0.908691 0.816162
vt 0.905762 0.800049
vt 0.890625 0.820068
vt 0.047333 0.368652
vt 0.007694 0.368652
vt 0.007694 0.318359
vt 0.158813 0.268066
vt 0.158813 0.318359
vt 0.115173 0.318359
vt 0.115173 0.368652
vt 0.078613 0.368652
vt 0.078613 0.318359
vt 0.047333 0.318359
vt 0.007694 0.268066
vt 0.047333 0.268066
vt 0.078613 0.268066
vt 0.115173 0.268066
vt 0.291260 0.268066
vt 0.324219 0.268066
vt 0.324219 0.318359
vt 0.291260 0.318359
vt 0.257080 0.268066
vt 0.257080 0.318359
vt 0.228882 0.268066
vt 0.228882 0.318359
vt 0.193359 0.268066
vt 0.193359 0.318359
vt 0.158813 0.368652
vt 0.193359 0.368652
vt 0.228882 0.368652
vt 0.257080 0.368652
vt 0.291260 0.368652
vt 0.324219 0.368652
vt 0.358887 0.368652
vt 0.358887 0.318359
vt 0.388428 0.368652
vt 0.388428 0.318359
vt 0.414307 0.368652
vt 0.414307 0.318359
vt 0.440186 0.368652
vt 0.440186 0.318359
vt 0.464600 0.368652
vt 0.464600 0.318359
vt 0.501953 0.368652
vt 0.440186 0.268066
vt 0.464600 0.268066
vt 0.414307 0.268066
vt 0.388428 0.268066
vt 0.358887 0.268066
vt 0.615723 0.318359
vt 0.615723 0.368652
vt 0.589844 0.368652
vt 0.589844 0.318359
vt 0.563477 0.368652
vt 0.563477 0.318359
vt 0.539551 0.368652
vt 0.539551 0.318359
vt 0.501953 0.318359
vt 0.501953 0.268066
vt 0.539551 0.268066
vt 0.563477 0.268066
vt 0.589844 0.268066
vt 0.615723 0.268066
vt 0.645020 0.268066
vt 0.774902 0.318359
vt 0.774902 0.368652
vt 0.747070 0.368652
vt 0.747070 0.318359
vt 0.712891 0.368652
vt 0.712891 0.318359
vt 0.679688 0.368652
vt 0.679688 0.318359
vt 0.645020 0.368652
vt 0.645020 0.318359
vt 0.645020 0.268066
vt 0.679688 0.268066
vt 0.712891 0.268066
vt 0.747070 0.268066
vt 0.774902 0.268066
vt 0.810547 0.268066
vt 0.810547 0.318359
vt 0.845215 0.268066
vt 0.925293 0.268066
vt 0.956543 0.268066
vt 0.956543 0.318359
vt 0.925293 0.318359
vt 0.888672 0.268066
vt 0.888672 0.318359
vt 0.845215 0.318359
vt 0.810547 0.368652
vt 0.845215 0.368652
vt 0.888672 0.368652
vt 0.925293 0.368652
vt 0.956543 0.368652
vt 0.996582 0.318359
vt 0.996582 0.268066
vt 0.996582 0.368652
vt 0.615723 0.368652
vt 0.645020 0.368652
vt 0.645020 0.318359
vt 0.501953 0.368652
vt 0.539551 0.368652
vt 0.539551 0.318359
vt 0.563477 0.318359
vt 0.563477 0.368652
vt 0.589844 0.318359
vt 0.589844 0.368652
vt 0.615723 0.318359
vt 0.645020 0.268066
vt 0.679688 0.268066
vt 0.539551 0.268066
vt 0.501953 0.268066
vt 0.501953 0.318359
vt 0.563477 0.268066
vt 0.589844 0.268066
vt 0.615723 0.268066
vt 0.645020 0.268066
vt 0.501953 0.368652
vt 0.388428 0.318359
vt 0.388428 0.368652
vt 0.414307 0.368652
vt 0.414307 0.318359
vt 0.440186 0.368652
vt 0.440186 0.318359
vt 0.464600 0.368652
vt 0.464600 0.318359
vt 0.464600 0.268066
vt 0.358887 0.318359
vt 0.358887 0.268066
vt 0.324219 0.268066
vt 0.388428 0.268066
vt 0.414307 0.268066
vt 0.440186 0.268066
vt 0.193359 0.318359
vt 0.193359 0.268066
vt 0.158813 0.268066
vt 0.228882 0.318359
vt 0.228882 0.268066
vt 0.257080 0.318359
vt 0.257080 0.268066
vt 0.291260 0.318359
vt 0.291260 0.268066
vt 0.324219 0.318359
vt 0.228882 0.368652
vt 0.257080 0.368652
vt 0.291260 0.368652
vt 0.324219 0.368652
vt 0.358887 0.368652
vt 0.078613 0.268066
vt 0.047333 0.268066
vt 0.047333 0.318359
vt 0.078613 0.318359
vt 0.115173 0.268066
vt 0.115173 0.318359
vt 0.158813 0.318359
vt 0.193359 0.368652
vt 0.158813 0.368652
vt 0.115173 0.368652
vt 0.078613 0.368652
vt 0.047333 0.368652
vt 0.007694 0.318359
vt 0.007694 0.268066
vt 0.007694 0.368652
vt 0.956543 0.318359
vt 0.996582 0.318359
vt 0.996582 0.268066
vt 0.956543 0.268066
vt 0.925293 0.268066
vt 0.925293 0.318359
vt 0.888672 0.268066
vt 0.888672 0.318359
vt 0.845215 0.268066
vt 0.845215 0.318359
vt 0.810547 0.318359
vt 0.810547 0.268066
vt 0.774902 0.368652
vt 0.810547 0.368652
vt 0.845215 0.368652
vt 0.888672 0.368652
vt 0.925293 0.368652
vt 0.956543 0.368652
vt 0.996582 0.368652
vt 0.774902 0.318359
vt 0.774902 0.268066
vt 0.747070 0.318359
vt 0.747070 0.268066
vt 0.712891 0.318359
vt 0.712891 0.268066
vt 0.679688 0.318359
vt 0.679688 0.368652
vt 0.712891 0.368652
vt 0.747070 0.368652
vt 0.440186 0.786621
vt 0.415039 0.786621
vt 0.432617 0.694580
vt 0.432617 0.694580
vt 0.415039 0.786621
vt 0.440186 0.786621
vt 0.465088 0.786621
vt 0.473633 0.759766
vt 0.482178 0.786621
vt 0.506836 0.786621
vt 0.473633 0.703125
vt 0.432617 0.694580
vt 0.532227 0.786621
vt 0.514648 0.694580
vt 0.507812 0.659668
vt 0.473633 0.662354
vt 0.506348 0.570557
vt 0.439453 0.659668
vt 0.473633 0.565674
vt 0.473633 0.518555
vt 0.515137 0.533447
vt 0.497559 0.492188
vt 0.431885 0.533447
vt 0.440430 0.570557
vt 0.433105 0.464844
vt 0.415039 0.498535
vt 0.449219 0.489746
vt 0.473633 0.466797
vt 0.514160 0.464844
vt 0.532227 0.498535
vt 0.556641 0.483398
vt 0.560059 0.495117
vt 0.390381 0.483398
vt 0.413086 0.447754
vt 0.428955 0.385254
vt 0.451660 0.430176
vt 0.534180 0.447754
vt 0.562988 0.454102
vt 0.570801 0.447754
vt 0.546875 0.431641
vt 0.518066 0.385254
vt 0.495605 0.430176
vt 0.550293 0.388672
vt 0.384033 0.454102
vt 0.400391 0.431641
vt 0.396729 0.388672
vt 0.376465 0.447754
vt 0.386963 0.495117
vt 0.376465 0.447754
vt 0.384033 0.454102
vt 0.390381 0.483398
vt 0.386963 0.495117
vt 0.415039 0.498535
vt 0.400391 0.431641
vt 0.396729 0.388672
vt 0.428955 0.385254
vt 0.413086 0.447754
vt 0.433105 0.464844
vt 0.431885 0.533447
vt 0.449219 0.489746
vt 0.473633 0.518555
vt 0.451660 0.430176
vt 0.473633 0.466797
vt 0.473633 0.466797
vt 0.497559 0.492188
vt 0.515137 0.533447
vt 0.514160 0.464844
vt 0.532227 0.498535
vt 0.556641 0.483398
vt 0.560059 0.495117
vt 0.570801 0.447754
vt 0.562988 0.454102
vt 0.546875 0.431641
vt 0.534180 0.447754
vt 0.473633 0.466797
vt 0.518066 0.385254
vt 0.495605 0.430176
vt 0.550293 0.388672
vt 0.506348 0.570557
vt 0.473633 0.565674
vt 0.473633 0.662354
vt 0.439453 0.659668
vt 0.473633 0.703125
vt 0.432617 0.694580
vt 0.473633 0.759766
vt 0.465088 0.786621
vt 0.507812 0.659668
vt 0.514648 0.694580
vt 0.506836 0.786621
vt 0.482178 0.786621
vt 0.532227 0.786621
vt 0.440430 0.570557
vt 0.431885 0.533447
s 1
usemtl CardGuardWeapon_XXX_Mat_INST_1
f 1/1/1 2/2/2 3/3/3
f 2/2/2 4/4/4 5/5/5
f 2/2/2 5/5/5 6/6/6
f 6/6/6 7/7/7 2/2/2
f 7/7/7 6/6/6 8/8/8
f 9/9/9 7/7/7 10/10/10
f 11/11/11 12/12/12 9/9/9
f 13/13/13 11/11/11 9/9/9
f 8/8/14 13/13/13 9/9/9
f 12/12/12 14/14/15 9/9/9
f 9/9/9 15/15/16 16/16/17
f 17/17/18 9/9/9 16/16/17
f 18/18/19 19/19/20 20/20/21
f 9/9/9 19/19/20 18/18/19
f 21/21/22 9/9/9 18/18/19
f 21/21/22 22/22/23 9/9/9
f 18/18/24 23/23/25 24/24/26
f 23/23/25 18/18/24 25/25/27
f 9/9/9 26/26/28 27/27/29
f 28/28/30 9/9/9 27/27/29
f 9/9/9 28/28/30 19/19/20
f 29/29/31 19/19/20 28/28/30
f 29/29/31 28/28/30 30/30/32
f 31/31/33 30/30/32 28/28/30
f 32/32/34 33/33/32 34/34/29
f 35/35/31 33/33/32 32/32/34
f 35/35/31 32/32/34 36/36/20
f 37/37/35 38/38/25 39/39/36
f 38/38/25 40/40/37 39/39/36
f 39/39/36 40/40/37 36/36/20
f 41/41/38 39/39/36 36/36/20
f 41/41/38 36/36/20 32/32/34
f 42/42/39 41/41/38 32/32/34
f 41/41/38 42/42/39 43/43/40
f 44/44/41 41/41/38 43/43/40
f 45/45/11 41/41/38 44/44/41
f 46/46/13 41/41/38 45/45/11
f 39/39/36 41/41/38 37/37/35
f 37/37/35 41/41/38 47/47/42
f 41/41/38 48/48/43 47/47/42
f 49/49/44 50/50/45 51/51/46
f 52/52/47 50/50/45 49/49/44
f 41/41/38 50/50/45 52/52/47
f 52/52/47 53/53/48 41/41/38
f 54/54/18 41/41/38 53/53/48
f 54/54/18 55/55/17 41/41/38
f 41/41/38 46/46/13 56/56/14
f 56/56/14 50/50/45 41/41/38
f 50/50/45 56/56/14 57/57/6
f 51/51/46 50/50/45 57/57/6
f 57/57/6 58/58/5 51/51/46
f 51/51/46 58/58/5 59/59/1
f 59/59/1 60/60/49 51/51/46
f 51/51/46 60/60/49 61/61/50
f 62/62/51 51/51/46 61/61/50
f 51/51/46 62/62/51 49/49/44
f 63/63/52 64/64/53 65/65/53
f 65/65/53 66/66/52 63/63/52
f 65/65/53 67/67/54 66/66/52
f 68/68/55 69/69/56 63/63/52
f 63/63/52 70/70/52 68/68/55
f 70/70/52 71/71/57 68/68/55
f 72/72/55 73/73/57 74/74/53
f 75/75/58 72/72/55 74/74/53
f 74/74/53 64/64/53 75/75/58
f 76/76/59 77/77/60 78/78/61
f 79/79/62 76/76/59 78/78/61
f 78/78/61 80/80/63 79/79/62
f 81/81/64 82/82/64 80/80/63
f 80/80/63 83/83/61 84/84/65
f 83/83/61 85/85/66 81/81/67
f 79/79/59 86/86/64 87/87/64
f 87/87/64 88/88/59 79/79/59
f 87/87/64 89/89/66 88/88/59
f 90/90/68 91/91/69 92/92/70
f 93/93/71 90/90/68 94/94/72
f 93/93/71 91/91/69 90/90/68
f 95/95/73 91/91/69 93/93/71
f 92/92/70 91/91/69 95/95/73
f 96/96/74 92/92/70 95/95/73
f 90/90/68 92/92/70 96/96/74
f 96/96/74 97/97/75 90/90/68
f 90/90/68 97/97/75 98/98/76
f 99/99/77 98/98/76 97/97/75
f 98/98/76 99/99/77 100/100/78
f 96/96/74 101/101/79 97/97/75
f 102/102/80 103/103/81 97/97/75
f 97/97/75 104/104/82 102/102/80
f 97/97/75 101/101/79 104/104/82
f 104/104/82 101/101/79 105/105/83
f 105/105/83 101/101/79 96/96/74
f 96/96/74 106/106/84 105/105/83
f 95/95/73 106/106/84 96/96/74
f 102/102/80 104/104/82 105/105/83
f 105/105/83 107/107/85 102/102/80
f 102/102/80 107/107/85 108/108/86
f 108/108/86 109/109/87 102/102/80
f 110/110/88 111/111/89 103/103/81
f 111/111/89 112/112/90 103/103/81
f 103/103/81 112/112/90 113/113/91
f 111/111/89 114/114/92 112/112/90
f 112/112/90 115/115/93 116/116/94
f 112/112/90 114/114/92 115/115/93
f 115/115/93 114/114/92 117/117/95
f 117/117/95 114/114/92 111/111/89
f 111/111/89 118/118/96 117/117/95
f 108/108/86 118/118/96 111/111/89
f 111/111/89 110/110/88 108/108/86
f 110/110/88 109/109/87 108/108/86
f 103/103/81 109/109/87 110/110/88
f 102/102/80 109/109/87 103/103/81
f 116/116/94 115/115/93 117/117/95
f 117/117/95 119/119/97 116/116/94
f 116/116/94 119/119/97 120/120/98
f 120/120/98 121/121/99 116/116/94
f 122/122/100 123/123/72 124/124/101
f 122/122/100 125/125/102 123/123/72
f 126/126/103 125/125/102 122/122/100
f 122/122/100 127/127/104 126/126/103
f 120/120/98 127/127/104 122/122/100
f 122/122/100 128/128/105 120/120/98
f 128/128/105 121/121/99 120/120/98
f 124/124/101 121/121/99 128/128/105
f 116/116/94 121/121/99 124/124/101
f 116/116/94 124/124/101 112/112/90
f 124/124/101 128/128/105 122/122/100
f 112/112/90 124/124/101 129/129/106
f 129/129/106 113/113/91 112/112/90
f 113/113/91 129/129/106 130/130/107
f 130/130/107 131/131/108 113/113/91
f 99/99/77 113/113/91 131/131/108
f 113/113/91 99/99/77 103/103/81
f 97/97/75 103/103/81 99/99/77
f 131/131/108 100/100/78 99/99/77
f 100/100/78 131/131/108 132/132/109
f 133/133/110 132/132/109 131/131/108
f 131/131/108 130/130/107 133/133/110
f 134/134/111 133/133/110 130/130/107
f 130/130/107 135/135/112 134/134/111
f 135/135/112 130/130/107 129/129/106
f 129/129/106 136/136/113 135/135/112
f 136/136/113 129/129/106 124/124/101
f 124/124/101 123/123/72 136/136/113
f 133/133/110 134/134/111 137/137/114
f 100/100/78 138/138/115 98/98/76
f 138/138/115 100/100/78 139/139/116
f 132/132/109 139/139/116 100/100/78
f 139/139/116 132/132/109 140/140/117
f 141/141/118 140/140/117 132/132/109
f 141/141/118 142/142/119 143/143/120
f 141/141/118 143/143/120 140/140/117
f 143/143/120 144/144/121 140/140/117
f 145/145/122 140/140/117 144/144/121
f 140/140/117 145/145/122 139/139/116
f 146/146/123 139/139/116 145/145/122
f 139/139/116 146/146/123 138/138/115
f 147/147/124 138/138/115 146/146/123
f 138/138/115 147/147/124 148/148/125
f 148/148/125 98/98/76 138/138/115
f 98/98/76 148/148/125 90/90/68
f 144/144/121 149/149/126 145/145/122
f 150/150/127 145/145/122 149/149/126
f 145/145/122 150/150/127 146/146/123
f 151/151/128 146/146/123 150/150/127
f 146/146/123 151/151/128 147/147/124
f 152/152/112 147/147/124 151/151/128
f 147/147/124 152/152/112 153/153/113
f 153/153/113 148/148/125 147/147/124
f 148/148/125 153/153/113 94/94/72
f 94/94/72 90/90/68 148/148/125
f 150/150/127 154/154/129 151/151/128
f 155/155/130 156/156/131 154/154/129
f 157/157/114 154/154/129 156/156/131
f 154/154/129 157/157/114 158/158/111
f 158/158/111 151/151/128 154/154/129
f 151/151/128 158/158/111 152/152/112
f 156/156/131 159/159/132 157/157/114
f 159/159/132 156/156/131 160/160/133
f 160/160/133 156/156/131 155/155/130
f 155/155/130 161/161/134 160/160/133
f 162/162/135 161/161/134 155/155/130
f 155/155/130 163/163/136 162/162/135
f 149/149/126 162/162/135 163/163/136
f 149/149/126 163/163/136 150/150/127
f 150/150/127 163/163/136 155/155/130
f 150/150/127 155/155/130 154/154/129
f 132/132/109 133/133/110 141/141/118
f 137/137/114 141/141/118 133/133/110
f 141/141/118 137/137/114 164/164/132
f 164/164/132 142/142/119 141/141/118
f 142/142/119 164/164/132 165/165/133
f 143/143/120 142/142/119 165/165/133
f 165/165/133 166/166/134 143/143/120
f 143/143/120 166/166/134 167/167/135
f 167/167/135 144/144/121 143/143/120
f 149/149/126 144/144/121 167/167/135
f 168/168/137 169/169/138 170/170/139
f 171/171/140 168/168/137 170/170/139
f 170/170/139 172/172/141 171/171/140
f 171/171/142 173/173/143 174/174/144
f 174/174/144 175/175/137 171/171/142
f 174/174/144 176/176/145 175/175/137
f 173/173/143 177/177/146 178/178/147
f 178/178/147 179/179/144 173/173/143
f 178/178/147 180/180/148 179/179/144
f 181/181/104 182/182/149 183/183/3
f 184/184/150 185/185/103 181/181/104
f 186/186/84 184/184/150 181/181/104
f 181/181/104 183/183/3 186/186/84
f 183/183/3 187/187/83 186/186/84
f 183/183/3 188/188/151 187/187/83
f 186/186/84 189/189/73 184/184/150
f 188/188/3 190/190/152 191/191/97
f 191/191/97 192/192/153 193/193/96
f 194/194/85 191/191/97 193/193/96
f 194/194/85 188/188/3 191/191/97
f 194/194/85 195/195/154 188/188/3
f 193/193/96 196/196/155 194/194/85
f 197/197/156 198/198/157 199/199/158
f 199/199/158 200/200/159 197/197/156
f 201/201/160 200/200/159 199/199/158
f 202/202/161 203/203/162 204/204/163
f 204/204/163 205/205/164 202/202/161
f 205/205/164 204/204/163 206/206/165
f 206/206/165 207/207/166 205/205/164
f 207/207/166 206/206/165 208/208/167
f 208/208/167 201/201/160 207/207/166
f 199/199/158 207/207/166 201/201/160
f 207/207/166 199/199/158 209/209/168
f 209/209/168 199/199/158 198/198/157
f 198/198/157 210/210/169 209/209/168
f 210/210/169 198/198/157 211/211/156
f 211/211/156 212/212/170 210/210/169
f 210/210/169 213/213/171 214/214/172
f 214/214/172 209/209/168 210/210/169
f 205/205/164 209/209/168 214/214/172
f 209/209/168 205/205/164 207/207/166
f 214/214/172 202/202/161 205/205/164
f 215/215/173 216/216/174 217/217/175
f 217/217/175 218/218/176 215/215/173
f 218/218/176 217/217/175 219/219/177
f 219/219/177 220/220/178 218/218/176
f 221/221/179 222/222/180 223/223/181
f 224/224/182 221/221/179 223/223/181
f 224/224/182 225/225/183 226/226/184
f 225/225/183 224/224/182 227/227/185
f 224/224/182 223/223/181 227/227/185
f 223/223/181 228/228/186 227/227/185
f 223/223/181 229/229/187 228/228/186
f 223/223/181 222/222/180 229/229/187
f 230/230/188 229/229/187 222/222/180
f 222/222/180 231/231/189 230/230/188
f 231/231/189 232/232/190 230/230/188
f 231/231/189 233/233/191 232/232/190
f 233/233/191 231/231/189 222/222/180
f 222/222/180 234/234/192 233/233/191
f 221/221/179 234/234/192 222/222/180
f 234/234/192 221/221/179 235/235/193
f 221/221/179 224/224/182 235/235/193
f 226/226/184 235/235/193 224/224/182
f 235/235/193 226/226/184 236/236/194
f 235/235/193 236/236/194 237/237/195
f 232/232/190 233/233/191 238/238/196
f 238/238/196 233/233/191 234/234/192
f 238/238/196 234/234/192 239/239/197
f 235/235/193 239/239/197 234/234/192
f 239/239/197 235/235/193 240/240/198
f 237/237/195 240/240/198 235/235/193
f 241/241/199 240/240/198 237/237/195
f 237/237/195 242/242/200 241/241/199
f 241/241/199 242/242/200 243/243/201
f 243/243/201 244/244/202 241/241/199
f 244/244/202 245/245/203 246/246/204
f 244/244/202 243/243/201 247/247/205
f 244/244/202 247/247/205 248/248/206
f 248/248/206 245/245/203 244/244/202
f 245/245/203 248/248/206 249/249/207
f 246/246/204 245/245/203 249/249/207
f 249/249/207 250/250/208 246/246/204
f 251/251/209 246/246/204 250/250/208
f 250/250/208 252/252/210 251/251/209
f 253/253/211 251/251/209 252/252/210
f 252/252/210 254/254/212 253/253/211
f 248/248/206 255/255/213 249/249/207
f 249/249/207 255/255/213 256/256/214
f 256/256/214 250/250/208 249/249/207
f 257/257/215 250/250/208 256/256/214
f 252/252/210 250/250/208 257/257/215
f 257/257/215 254/254/212 252/252/210
f 251/251/209 253/253/211 258/258/216
f 258/258/216 253/253/211 259/259/217
f 259/259/217 260/260/218 258/258/216
f 253/253/211 254/254/212 261/261/219
f 253/253/211 261/261/219 262/262/214
f 259/259/217 253/253/211 262/262/214
f 259/259/217 262/262/214 263/263/220
f 264/264/206 259/259/217 263/263/220
f 259/259/217 264/264/206 265/265/221
f 259/259/217 265/265/221 266/266/201
f 266/266/201 260/260/218 259/259/217
f 260/260/218 266/266/201 267/267/200
f 267/267/200 268/268/222 260/260/218
f 269/269/223 258/258/216 260/260/218
f 260/260/218 268/268/222 269/269/223
f 270/270/224 269/269/223 268/268/222
f 268/268/222 271/271/225 270/270/224
f 272/272/226 270/270/224 271/271/225
f 271/271/225 273/273/227 272/272/226
f 273/273/227 274/274/228 272/272/226
f 274/274/228 273/273/227 275/275/229
f 274/274/228 276/276/230 272/272/226
f 268/268/222 267/267/200 277/277/195
f 277/277/195 271/271/225 268/268/222
f 271/271/225 277/277/195 278/278/194
f 278/278/194 273/273/227 271/271/225
f 273/273/227 278/278/194 279/279/184
f 279/279/184 275/275/229 273/273/227
f 280/280/231 275/275/229 279/279/184
f 275/275/229 280/280/231 274/274/228
f 274/274/228 280/280/231 281/281/232
f 281/281/232 282/282/233 274/274/228
f 279/279/184 283/283/183 280/280/231
f 280/280/231 283/283/183 284/284/234
f 280/280/231 284/284/234 281/281/232
f 285/285/186 281/281/232 284/284/234
f 284/284/234 286/286/235 285/285/186
f 283/283/183 286/286/235 284/284/234
f 282/282/233 281/281/232 285/285/186
f 285/285/186 287/287/187 282/282/233
f 282/282/233 287/287/187 288/288/188
f 288/288/188 289/289/236 282/282/233
f 232/232/190 289/289/236 288/288/188
f 289/289/236 232/232/190 290/290/237
f 238/238/196 290/290/237 232/232/190
f 290/290/237 238/238/196 291/291/238
f 239/239/197 291/291/238 238/238/196
f 291/291/238 239/239/197 292/292/239
f 274/274/228 282/282/233 289/289/236
f 289/289/236 276/276/230 274/274/228
f 290/290/237 276/276/230 289/289/236
f 276/276/230 290/290/237 272/272/226
f 291/291/238 272/272/226 290/290/237
f 272/272/226 291/291/238 293/293/240
f 292/292/239 293/293/240 291/291/238
f 293/293/240 292/292/239 294/294/241
f 294/294/241 295/295/242 293/293/240
f 295/295/242 294/294/241 296/296/243
f 296/296/243 297/297/244 295/295/242
f 269/269/223 295/295/242 297/297/244
f 293/293/240 295/295/242 269/269/223
f 269/269/223 270/270/224 293/293/240
f 293/293/240 270/270/224 272/272/226
f 240/240/198 292/292/239 239/239/197
f 294/294/241 292/292/239 240/240/198
f 240/240/198 241/241/199 294/294/241
f 294/294/241 241/241/199 244/244/202
f 244/244/202 296/296/243 294/294/241
f 246/246/204 296/296/243 244/244/202
f 296/296/243 246/246/204 251/251/209
f 296/296/243 251/251/209 297/297/244
f 258/258/216 297/297/244 251/251/209
f 297/297/244 258/258/216 269/269/223
f 298/298/3 299/299/3 300/300/245
f 93/93/71 301/301/150 95/95/73
f 302/302/103 301/301/150 93/93/71
f 93/93/71 303/303/246 302/302/103
f 303/303/246 93/93/71 94/94/72
f 304/304/102 303/303/246 94/94/72
f 303/303/246 304/304/102 302/302/103
f 305/305/247 306/306/248 307/307/249
f 307/307/249 308/308/247 305/305/247
f 307/307/249 309/309/250 308/308/247
f 310/310/247 311/311/250 312/312/251
f 305/305/247 310/310/247 312/312/251
f 312/312/251 313/313/251 305/305/247
f 314/314/252 313/313/251 315/315/251
f 315/315/251 316/316/249 314/314/252
f 315/315/251 317/317/250 316/316/249
f 318/318/253 319/319/254 320/320/255
f 320/320/255 319/319/254 321/321/256
f 321/321/256 319/319/254 322/322/257
f 322/322/257 319/319/254 323/323/258
f 319/319/254 324/324/259 323/323/258
f 319/319/254 325/325/260 324/324/259
f 326/326/261 327/327/262 328/328/263
f 328/328/263 327/327/262 329/329/264
f 328/328/263 329/329/264 330/330/265
f 331/331/266 332/332/267 328/328/263
f 332/332/267 333/333/268 328/328/263
f 333/333/268 334/334/269 328/328/263
f 335/335/270 336/336/271 337/337/272
f 337/337/272 338/338/273 335/335/270
f 335/335/270 338/338/273 339/339/274
f 340/340/170 339/339/274 338/338/273
f 338/338/273 341/341/172 340/340/170
f 342/342/161 341/341/172 338/338/273
f 338/338/273 337/337/272 342/342/161
f 343/343/275 342/342/161 337/337/272
f 337/337/272 344/344/276 343/343/275
f 344/344/276 337/337/272 336/336/271
f 336/336/271 345/345/277 344/344/276
f 345/345/277 336/336/271 346/346/160
f 347/347/278 346/346/160 336/336/271
f 336/336/271 335/335/270 347/347/278
f 346/346/160 348/348/279 345/345/277
f 349/349/280 350/350/281 347/347/278
f 347/347/278 335/335/270 349/349/280
f 339/339/274 349/349/280 335/335/270
f 351/351/156 349/349/280 339/339/274
f 339/339/274 352/352/170 351/351/156
f 353/353/282 354/354/283 355/355/111
f 356/356/284 353/353/282 357/357/110
f 355/355/111 357/357/110 353/353/282
f 357/357/110 355/355/111 358/358/285
f 359/359/286 356/356/284 360/360/287
f 357/357/110 360/360/287 356/356/284
f 360/360/287 357/357/110 361/361/288
f 358/358/285 361/361/288 357/357/110
f 361/361/288 358/358/285 362/362/289
f 363/363/163 364/364/275 354/354/283
f 354/354/283 353/353/282 363/363/163
f 365/365/165 363/363/163 353/353/282
f 353/353/282 356/356/284 365/365/165
f 366/366/279 365/365/165 356/356/284
f 356/356/284 359/359/286 366/366/279
f 367/367/290 366/366/279 359/359/286
f 359/359/286 368/368/291 367/367/290
f 369/369/276 367/367/290 368/368/291
f 368/368/291 370/370/292 369/369/276
f 371/371/275 369/369/276 370/370/292
f 370/370/292 372/372/293 371/371/275
f 372/372/293 370/370/292 373/373/294
f 373/373/294 374/374/111 372/372/293
f 374/374/111 373/373/294 375/375/295
f 375/375/295 376/376/285 374/374/111
f 376/376/285 375/375/295 377/377/296
f 377/377/296 378/378/289 376/376/285
f 379/379/297 378/378/289 377/377/296
f 377/377/296 380/380/298 379/379/297
f 381/381/175 382/382/299 379/379/297
f 370/370/292 368/368/291 383/383/123
f 383/383/123 373/373/294 370/370/292
f 373/373/294 383/383/123 384/384/300
f 384/384/300 375/375/295 373/373/294
f 375/375/295 384/384/300 385/385/301
f 385/385/301 377/377/296 375/375/295
f 380/380/298 377/377/296 385/385/301
f 385/385/301 386/386/302 380/380/298
f 386/386/302 385/385/301 387/387/303
f 387/387/303 388/388/304 386/386/302
f 379/379/297 380/380/298 381/381/175
f 389/389/305 381/381/175 380/380/298
f 380/380/298 386/386/302 389/389/305
f 390/390/306 389/389/305 386/386/302
f 386/386/302 388/388/304 390/390/306
f 391/391/176 390/390/306 388/388/304
f 388/388/304 392/392/307 391/391/176
f 393/393/308 391/391/176 392/392/307
f 392/392/307 394/394/309 393/393/308
f 395/395/174 393/393/308 394/394/309
f 388/388/304 387/387/303 396/396/310
f 396/396/310 392/392/307 388/388/304
f 392/392/307 396/396/310 397/397/311
f 397/397/311 394/394/309 392/392/307
f 396/396/310 387/387/303 398/398/312
f 397/397/311 396/396/310 399/399/313
f 398/398/312 399/399/313 396/396/310
f 399/399/313 398/398/312 400/400/116
f 383/383/123 400/400/116 398/398/312
f 398/398/312 384/384/300 383/383/123
f 384/384/300 398/398/312 387/387/303
f 387/387/303 385/385/301 384/384/300
f 394/394/309 401/401/314 395/395/174
f 362/362/289 401/401/314 394/394/309
f 394/394/309 397/397/311 362/362/289
f 362/362/289 397/397/311 361/361/288
f 399/399/313 361/361/288 397/397/311
f 361/361/288 399/399/313 360/360/287
f 400/400/116 360/360/287 399/399/313
f 360/360/287 400/400/116 359/359/286
f 368/368/291 359/359/286 400/400/116
f 400/400/116 383/383/123 368/368/291
f 402/402/253 403/403/255 404/404/315
f 403/403/255 405/405/256 404/404/315
f 405/405/256 406/406/257 404/404/315
f 406/406/257 407/407/258 404/404/315
f 404/404/315 407/407/258 408/408/259
f 404/404/315 408/408/259 409/409/260
f 410/410/316 411/411/317 412/412/318
f 413/413/319 410/410/316 412/412/318
f 412/412/318 414/414/320 413/413/319
f 415/415/318 416/416/321 417/417/322
f 414/414/320 415/415/318 417/417/322
f 417/417/322 418/418/323 414/414/320
f 419/419/319 418/418/324 420/420/322
f 420/420/322 421/421/316 419/419/319
f 420/420/322 422/422/321 421/421/316
f 423/423/325 424/424/265 425/425/264
f 423/423/325 425/425/264 426/426/326
f 427/427/261 423/423/325 426/426/326
f 428/428/327 423/423/325 429/429/267
f 429/429/267 423/423/325 430/430/268
f 430/430/268 423/423/325 431/431/328
f 17/17/18 432/432/48 9/9/9
f 9/9/9 432/432/48 433/433/47
f 433/433/47 7/7/7 9/9/9
f 433/433/47 434/434/44 7/7/7
f 2/2/2 7/7/7 434/434/44
f 434/434/44 435/435/51 2/2/2
f 435/435/51 436/436/329 2/2/2
f 2/2/2 436/436/329 437/437/3
f 438/438/330 439/439/331 440/440/332
f 441/441/330 438/438/330 440/440/332
f 440/440/332 442/442/332 441/441/330
f 443/443/333 442/442/334 444/444/334
f 444/444/334 445/445/335 443/443/333
f 444/444/334 446/446/331 445/445/335
f 447/447/330 443/443/336 448/448/337
f 448/448/337 449/449/330 447/447/330
f 448/448/337 450/450/331 449/449/330
usemtl CardGuardWeapon_XXX_Mat_INST_2
f 451/451/338 452/452/339 453/453/340
f 454/454/341 455/455/342 456/456/343
f 457/457/344 456/456/343 455/455/342
f 456/456/343 457/457/344 458/458/345
f 458/458/345 459/459/346 456/456/343
f 459/459/346 458/458/345 451/451/338
f 451/451/338 460/460/347 459/459/346
f 453/453/340 460/460/347 451/451/338
f 460/460/347 453/453/340 461/461/348
f 461/461/348 462/462/349 460/460/347
f 460/460/347 462/462/349 463/463/350
f 463/463/350 459/459/346 460/460/347
f 459/459/346 463/463/350 464/464/351
f 464/464/351 456/456/343 459/459/346
f 456/456/343 464/464/351 454/454/341
f 465/465/352 466/466/353 467/467/354
f 467/467/354 468/468/355 465/465/352
f 469/469/356 465/465/352 468/468/355
f 468/468/355 470/470/357 469/469/356
f 471/471/358 469/469/356 470/470/357
f 470/470/357 472/472/359 471/471/358
f 473/473/360 471/471/358 472/472/359
f 472/472/359 474/474/361 473/473/360
f 454/454/341 473/473/360 474/474/361
f 474/474/361 455/455/342 454/454/341
f 455/455/342 475/475/362 457/457/344
f 476/476/363 475/475/362 455/455/342
f 455/455/342 474/474/361 476/476/363
f 477/477/364 476/476/363 474/474/361
f 474/474/361 472/472/359 477/477/364
f 478/478/365 477/477/364 472/472/359
f 472/472/359 470/470/357 478/478/365
f 479/479/366 478/478/365 470/470/357
f 470/470/357 468/468/355 479/479/366
f 480/480/367 479/479/366 468/468/355
f 468/468/355 467/467/354 480/480/367
f 481/481/368 480/480/367 467/467/354
f 467/467/354 482/482/369 481/481/368
f 483/483/370 481/481/368 482/482/369
f 482/482/369 484/484/371 483/483/370
f 485/485/372 483/483/370 484/484/371
f 484/484/371 486/486/373 485/485/372
f 487/487/374 485/485/372 486/486/373
f 486/486/373 488/488/375 487/487/374
f 489/489/376 487/487/374 488/488/375
f 488/488/375 490/490/377 489/489/376
f 491/491/20 489/489/376 490/490/377
f 492/492/378 493/493/379 490/490/377
f 490/490/377 488/488/375 492/492/378
f 494/494/380 492/492/378 488/488/375
f 488/488/375 486/486/373 494/494/380
f 495/495/381 494/494/380 486/486/373
f 486/486/373 484/484/371 495/495/381
f 496/496/382 495/495/381 484/484/371
f 484/484/371 482/482/369 496/496/382
f 466/466/353 496/496/382 482/482/369
f 482/482/369 467/467/354 466/466/353
f 497/497/383 498/498/384 499/499/385
f 499/499/385 500/500/386 497/497/383
f 500/500/386 499/499/385 501/501/387
f 501/501/387 502/502/388 500/500/386
f 502/502/388 501/501/387 503/503/389
f 503/503/389 504/504/390 502/502/388
f 504/504/390 503/503/389 491/491/20
f 491/491/20 505/505/391 504/504/390
f 490/490/377 505/505/391 491/491/20
f 505/505/391 490/490/377 493/493/379
f 493/493/379 506/506/49 505/505/391
f 505/505/391 506/506/49 507/507/392
f 507/507/392 504/504/390 505/505/391
f 504/504/390 507/507/392 508/508/393
f 508/508/393 502/502/388 504/504/390
f 502/502/388 508/508/393 509/509/394
f 509/509/394 500/500/386 502/502/388
f 500/500/386 509/509/394 510/510/395
f 510/510/395 497/497/383 500/500/386
f 497/497/383 510/510/395 511/511/396
f 512/512/397 513/513/398 514/514/399
f 514/514/399 515/515/400 512/512/397
f 515/515/400 514/514/399 516/516/401
f 516/516/401 517/517/402 515/515/400
f 517/517/402 516/516/401 518/518/403
f 518/518/403 519/519/404 517/517/402
f 519/519/404 518/518/403 520/520/405
f 520/520/405 521/521/406 519/519/404
f 521/521/406 520/520/405 498/498/384
f 498/498/384 497/497/383 521/521/406
f 522/522/407 521/521/406 497/497/383
f 521/521/406 522/522/407 523/523/408
f 523/523/408 519/519/404 521/521/406
f 519/519/404 523/523/408 524/524/409
f 524/524/409 517/517/402 519/519/404
f 517/517/402 524/524/409 525/525/410
f 525/525/410 515/515/400 517/517/402
f 515/515/400 525/525/410 526/526/411
f 526/526/411 512/512/397 515/515/400
f 512/512/397 526/526/411 527/527/412
f 527/527/412 528/528/413 512/512/397
f 528/528/413 527/527/412 529/529/414
f 530/530/415 531/531/416 532/532/417
f 532/532/417 533/533/418 530/530/415
f 534/534/419 530/530/415 533/533/418
f 533/533/418 535/535/420 534/534/419
f 529/529/414 534/534/419 535/535/420
f 535/535/420 536/536/421 529/529/414
f 529/529/414 536/536/421 528/528/413
f 537/537/422 528/528/413 536/536/421
f 528/528/413 537/537/422 513/513/398
f 513/513/398 512/512/397 528/528/413
f 536/536/421 538/538/423 537/537/422
f 539/539/424 538/538/423 536/536/421
f 536/536/421 535/535/420 539/539/424
f 540/540/425 539/539/424 535/535/420
f 535/535/420 533/533/418 540/540/425
f 541/541/426 540/540/425 533/533/418
f 533/533/418 532/532/417 541/541/426
f 541/541/426 532/532/417 542/542/427
f 543/543/428 542/542/427 532/532/417
f 532/532/417 531/531/416 543/543/428
f 542/542/427 544/544/429 541/541/426
f 545/545/384 546/546/430 547/547/431
f 548/548/20 549/549/389 550/550/432
f 551/551/433 550/550/432 549/549/389
f 549/549/389 552/552/387 551/551/433
f 553/553/434 551/551/433 552/552/387
f 552/552/387 554/554/385 553/553/434
f 555/555/435 553/553/434 554/554/385
f 554/554/385 545/545/384 555/555/435
f 547/547/431 555/555/435 545/545/384
f 555/555/435 547/547/431 556/556/396
f 557/557/408 556/556/396 547/547/431
f 558/558/392 559/559/49 560/560/436
f 560/560/436 550/550/432 558/558/392
f 561/561/437 558/558/392 550/550/432
f 550/550/432 551/551/433 561/561/437
f 562/562/394 561/561/437 551/551/433
f 551/551/433 553/553/434 562/562/394
f 563/563/395 562/562/394 553/553/434
f 553/553/434 555/555/435 563/563/395
f 564/564/407 563/563/395 555/555/435
f 550/550/432 560/560/436 565/565/20
f 566/566/438 567/567/439 568/568/440
f 568/568/440 569/569/441 566/566/438
f 569/569/441 568/568/440 570/570/442
f 570/570/442 571/571/443 569/569/441
f 571/571/443 570/570/442 572/572/444
f 572/572/444 573/573/445 571/571/443
f 573/573/445 572/572/444 548/548/20
f 548/548/20 560/560/436 573/573/445
f 574/574/379 573/573/445 560/560/436
f 560/560/436 559/559/49 574/574/379
f 575/575/446 576/576/382 577/577/353
f 576/576/382 575/575/446 566/566/438
f 566/566/438 578/578/381 576/576/382
f 578/578/381 566/566/438 569/569/441
f 569/569/441 579/579/380 578/578/381
f 579/579/380 569/569/441 571/571/443
f 571/571/443 580/580/378 579/579/380
f 580/580/378 571/571/443 573/573/445
f 573/573/445 574/574/379 580/580/378
f 581/581/447 582/582/360 583/583/341
f 582/582/360 581/581/447 584/584/448
f 584/584/448 585/585/358 582/582/360
f 585/585/358 584/584/448 586/586/449
f 586/586/449 587/587/356 585/585/358
f 587/587/356 586/586/449 588/588/450
f 588/588/450 589/589/451 587/587/356
f 589/589/451 588/588/450 590/590/452
f 590/590/452 577/577/353 589/589/451
f 577/577/353 590/590/452 575/575/446
f 584/584/448 591/591/364 592/592/365
f 592/592/365 586/586/449 584/584/448
f 586/586/449 592/592/365 593/593/366
f 593/593/366 588/588/450 586/586/449
f 588/588/450 593/593/366 594/594/367
f 594/594/367 590/590/452 588/588/450
f 590/590/452 594/594/367 595/595/453
f 595/595/453 575/575/446 590/590/452
f 575/575/446 595/595/453 567/567/439
f 567/567/439 566/566/438 575/575/446
f 596/596/350 597/597/349 598/598/454
f 598/598/454 599/599/455 596/596/350
f 600/600/351 596/596/350 599/599/455
f 599/599/455 601/601/456 600/600/351
f 583/583/341 600/600/351 601/601/456
f 601/601/456 602/602/457 583/583/341
f 583/583/341 602/602/457 581/581/447
f 603/603/363 581/581/447 602/602/457
f 581/581/447 603/603/363 591/591/364
f 591/591/364 584/584/448 581/581/447
f 602/602/457 604/604/362 603/603/363
f 605/605/344 604/604/362 602/602/457
f 602/602/457 601/601/456 605/605/344
f 606/606/458 605/605/344 601/601/456
f 601/601/456 599/599/455 606/606/458
f 607/607/338 606/606/458 599/599/455
f 599/599/455 598/598/454 607/607/338
f 607/607/338 598/598/454 608/608/459
f 609/609/348 608/608/459 598/598/454
f 598/598/454 597/597/349 609/609/348
f 608/608/459 610/610/339 607/607/338
f 611/611/460 612/612/461 613/613/428
f 613/613/428 614/614/416 611/611/460
f 611/611/460 614/614/416 615/615/415
f 615/615/415 616/616/462 611/611/460
f 616/616/462 615/615/415 617/617/419
f 617/617/419 618/618/463 616/616/462
f 618/618/463 617/617/419 619/619/414
f 619/619/414 620/620/464 618/618/463
f 621/621/465 620/620/464 619/619/414
f 619/619/414 622/622/412 621/621/465
f 623/623/398 624/624/422 621/621/465
f 620/620/464 621/621/465 624/624/422
f 624/624/422 625/625/423 620/620/464
f 620/620/464 625/625/423 626/626/466
f 626/626/466 618/618/463 620/620/464
f 618/618/463 626/626/466 627/627/425
f 627/627/425 616/616/462 618/618/463
f 616/616/462 627/627/425 628/628/426
f 628/628/426 611/611/460 616/616/462
f 612/612/461 611/611/460 628/628/426
f 628/628/426 629/629/429 612/612/461
f 630/630/467 621/621/465 622/622/412
f 622/622/412 631/631/411 630/630/467
f 632/632/468 630/630/467 631/631/411
f 631/631/411 633/633/410 632/632/468
f 634/634/469 632/632/468 633/633/410
f 633/633/410 635/635/409 634/634/469
f 636/636/470 634/634/469 635/635/409
f 635/635/409 557/557/408 636/636/470
f 547/547/431 636/636/470 557/557/408
f 636/636/470 547/547/431 546/546/430
f 546/546/430 637/637/403 636/636/470
f 634/634/469 636/636/470 637/637/403
f 637/637/403 638/638/401 634/634/469
f 632/632/468 634/634/469 638/638/401
f 638/638/401 639/639/399 632/632/468
f 630/630/467 632/632/468 639/639/399
f 639/639/399 623/623/398 630/630/467
f 621/621/465 630/630/467 623/623/398
f 640/640/471 641/641/472 642/642/473
f 643/643/474 644/644/472 645/645/459
f 645/645/459 646/646/348 647/647/20
f 647/647/20 648/648/428 649/649/475
f 649/649/475 650/650/476 647/647/20
f 647/647/20 650/650/476 645/645/459
f 645/645/459 650/650/476 651/651/473
f 649/649/475 652/652/477 653/653/478
f 653/653/478 650/650/476 649/649/475
f 650/650/476 653/653/478 654/654/479
f 654/654/479 655/655/480 650/650/476
f 655/655/480 654/654/479 656/656/481
f 657/657/482 643/643/474 650/650/476
f 650/650/476 655/655/480 657/657/482
f 657/657/482 655/655/480 658/658/483
f 656/656/481 658/658/483 655/655/480
f 659/659/484 658/658/483 656/656/481
f 656/656/481 660/660/485 659/659/484
f 659/659/484 660/660/485 661/661/486
f 659/659/484 662/662/487 663/663/329
f 663/663/329 658/658/483 659/659/484
f 658/658/483 663/663/329 657/657/482
f 664/664/488 665/665/489 662/662/487
f 662/662/487 666/666/490 664/664/488
f 659/659/484 666/666/490 662/662/487
f 667/667/491 666/666/490 659/659/484
f 667/667/491 659/659/484 661/661/486
f 667/667/491 661/661/486 668/668/492
f 668/668/492 661/661/486 660/660/485
f 660/660/485 669/669/493 668/668/492
f 670/670/494 668/668/492 669/669/493
f 669/669/493 671/671/495 670/670/494
f 672/672/496 664/664/488 673/673/497
f 674/674/498 673/673/497 664/664/488
f 664/664/488 675/675/499 674/674/498
f 667/667/491 675/675/499 664/664/488
f 664/664/488 666/666/490 667/667/491
f 670/670/494 676/676/500 668/668/492
f 676/676/500 670/670/494 677/677/501
f 670/670/494 671/671/495 678/678/502
f 678/678/502 677/677/501 670/670/494
f 679/679/503 677/677/501 678/678/502
f 677/677/501 679/679/503 676/676/500
f 680/680/504 676/676/500 679/679/503
f 668/668/492 676/676/500 680/680/504
f 680/680/504 681/681/505 668/668/492
f 668/668/492 681/681/505 667/667/491
f 678/678/502 682/682/506 679/679/503
f 679/679/503 682/682/506 680/680/504
f 683/683/507 672/672/496 673/673/497
f 673/673/497 684/684/508 683/683/507
f 684/684/508 673/673/497 674/674/498
f 674/674/498 685/685/509 684/684/508
f 684/684/508 685/685/509 686/686/510
f 686/686/510 683/683/507 684/684/508
f 672/672/496 683/683/507 686/686/510
f 686/686/510 687/687/511 672/672/496
f 672/672/496 687/687/511 665/665/489
f 665/665/489 664/664/488 672/672/496
f 688/688/510 689/689/512 690/690/513
f 690/690/513 691/691/511 688/688/510
f 692/692/489 691/691/511 690/690/513
f 693/693/514 694/694/509 695/695/498
f 688/688/510 694/694/509 693/693/514
f 693/693/514 689/689/512 688/688/510
f 689/689/512 693/693/514 696/696/515
f 696/696/515 690/690/513 689/689/512
f 690/690/513 696/696/515 697/697/516
f 690/690/513 697/697/516 692/692/489
f 698/698/487 692/692/489 697/697/516
f 697/697/516 699/699/517 698/698/487
f 700/700/518 698/698/487 699/699/517
f 697/697/516 701/701/499 702/702/3
f 695/695/498 701/701/499 697/697/516
f 697/697/516 696/696/515 695/695/498
f 695/695/498 696/696/515 693/693/514
f 703/703/491 699/699/517 697/697/516
f 703/703/491 700/700/518 699/699/517
f 703/703/491 704/704/519 700/700/518
f 700/700/518 704/704/519 705/705/485
f 705/705/485 704/704/519 706/706/520
f 706/706/520 707/707/493 705/705/485
f 707/707/493 706/706/520 708/708/521
f 708/708/521 709/709/495 707/707/493
f 710/710/502 709/709/495 708/708/521
f 708/708/521 711/711/522 710/710/502
f 710/710/502 711/711/522 712/712/523
f 711/711/522 708/708/521 713/713/524
f 708/708/521 706/706/520 713/713/524
f 706/706/520 704/704/519 714/714/525
f 713/713/524 712/712/523 711/711/522
f 712/712/523 713/713/524 715/715/526
f 715/715/526 713/713/524 706/706/520
f 706/706/520 716/716/505 715/715/526
f 703/703/491 716/716/505 706/706/520
f 715/715/526 717/717/506 712/712/523
f 712/712/523 717/717/506 710/710/502
f 700/700/518 705/705/485 718/718/481
f 718/718/481 719/719/527 700/700/518
f 720/720/528 719/719/527 718/718/481
f 719/719/527 720/720/528 721/721/482
f 721/721/482 720/720/528 722/722/529
f 722/722/529 723/723/530 721/721/482
f 723/723/530 722/722/529 640/640/471
f 640/640/471 722/722/529 724/724/20
f 724/724/20 725/725/348 640/640/471
f 718/718/481 726/726/479 720/720/528
f 722/722/529 720/720/528 726/726/479
f 726/726/479 727/727/478 722/722/529
f 728/728/531 722/722/529 727/727/478
f 724/724/20 722/722/529 728/728/531
f 728/728/531 729/729/428 724/724/20
f 727/727/478 730/730/477 728/728/531
f 721/721/482 731/731/329 719/719/527
f 700/700/518 719/719/527 731/731/329
f 731/731/329 732/732/532 700/700/518
