# Blender 5.0.1
# www.blender.org
mtllib Gravity Glove.mtl
o studio_w_gra_reference.smd
v 2.538578 3.533998 -0.359363
v 2.517783 3.416724 -0.401174
v 2.499708 3.470545 -0.350369
v 2.161204 3.537671 0.152796
v 2.128011 3.520730 0.214378
v 2.111355 3.461703 0.191596
v 2.187346 3.463869 0.133026
v 2.137475 3.422907 0.283865
v 2.111355 3.461703 0.191596
v 2.106768 3.686438 0.111581
v 2.114736 3.713394 0.051497
v 2.209434 3.782977 0.070315
v 2.158022 3.726359 0.138448
v 2.189424 3.676253 0.201745
v 2.283582 3.692895 0.177105
v 2.215816 3.607304 0.243689
v 2.300648 3.592999 0.202919
v 2.323988 3.513298 0.278268
v 2.352915 3.437697 0.244574
v 2.313015 3.433841 0.324254
v 2.300233 3.376884 0.306819
v 2.240360 3.447064 0.348357
v 2.226614 3.387044 0.329436
v 2.156990 3.483420 0.305253
v 2.137738 3.546618 0.207489
v 2.117363 3.626546 0.150507
v 2.154261 3.609099 0.139995
v 2.114736 3.713394 0.051497
v 2.106768 3.686438 0.111581
v 2.236067 3.530948 0.305758
v 2.117363 3.626546 0.150507
v 2.108301 3.740819 -0.021253
v 2.340535 3.394635 0.228192
v 2.238128 3.745713 0.116601
v 2.285463 3.749079 0.105949
v 2.332697 3.688837 0.146671
v 2.335788 3.503444 0.140829
v 2.340750 3.475279 0.148020
v 2.328921 3.431530 0.132137
v 2.261294 3.451889 0.111075
v 2.298248 3.503326 0.117429
v 2.332697 3.688837 0.146671
v 2.324111 3.615109 0.108918
v -2.538578 3.533998 -0.359363
v -2.574791 3.394091 -0.376525
v -2.499708 3.470545 -0.350369
v -2.576472 3.540807 -0.292503
v -2.538578 3.533998 -0.359363
v -2.542161 3.566329 -0.395570
v -2.595340 3.569063 -0.219390
v -2.512301 3.455352 -0.199443
v -2.562672 3.463979 -0.218695
v -2.535727 3.419860 -0.140622
v -2.500169 3.448464 -0.091048
v -2.555676 3.449165 -0.074825
v -2.544744 3.226282 0.127430
v -2.587419 3.257964 0.122606
v -2.563489 3.230696 0.056386
v -2.506895 3.543192 -0.432096
v -2.426242 3.535095 -0.476314
v -2.411641 3.563535 -0.476716
v -2.542161 3.566329 -0.395570
v -2.658818 3.357434 -0.077992
v -2.627746 3.343841 -0.148109
v -2.606887 3.182936 -0.150597
v -2.640479 3.193540 -0.083468
v -2.555676 3.449165 -0.074825
v -2.535727 3.419860 -0.140622
v -2.666259 3.355909 -0.228675
v -2.642178 3.206220 -0.225717
v -2.562672 3.463979 -0.218695
v -2.439102 3.404770 -0.441543
v -2.499708 3.470545 -0.350369
v -2.419109 3.455275 -0.410503
v -2.517783 3.416724 -0.401174
v -2.443028 3.315079 -0.477195
v -2.501151 3.297372 -0.450961
v -2.295776 3.573453 0.061786
v -2.210424 3.533099 0.082928
v -2.257053 3.556745 -0.091934
v -2.188817 3.617558 -0.141070
v -2.154261 3.609099 0.139995
v -2.161204 3.537671 0.152796
v -2.187347 3.463869 0.133026
v -2.261295 3.451889 0.111075
v -2.295776 3.573453 0.061786
v -2.298249 3.503326 0.117429
v -2.324111 3.615109 0.108918
v -2.471196 3.454327 -0.011149
v -2.501180 3.526511 0.065929
v -2.500169 3.448464 -0.091048
v -2.512301 3.455352 -0.199443
v -2.461206 3.447769 -0.324626
v -2.397501 3.489157 -0.394375
v -2.323305 3.560381 -0.423822
v -2.168206 3.774325 -0.403495
v -2.101518 3.719450 -0.137688
v -2.108301 3.740819 -0.021253
v -2.411641 3.563535 -0.476716
v -2.229660 3.826859 -0.418758
v -2.168206 3.774325 -0.403495
v -2.680846 3.260676 0.039842
v -2.614936 3.226456 -0.008014
v -2.617370 3.376157 -0.044380
v -2.684542 3.433964 0.003213
v -2.639256 3.546922 -0.033235
v -2.574634 3.521080 -0.076296
v -2.673990 3.144970 0.149320
v -2.659316 3.273505 0.109654
v -2.629561 3.192244 0.164004
v -2.654152 3.442815 0.080447
v -2.684542 3.433964 0.003213
v -2.638481 3.131370 0.000679
v -2.581460 3.196772 -0.011600
v -2.670045 3.162514 0.006697
v -2.701025 3.128796 0.063352
v -2.644555 3.114752 0.149785
v -2.593567 3.165633 0.161019
v -2.587419 3.257964 0.122606
v -2.562612 3.399961 0.096258
v -2.654152 3.442815 0.080447
v -2.610393 3.555070 0.045391
v -2.530677 3.488180 0.073338
v -2.673638 3.097646 0.060711
v -2.544744 3.226282 0.127430
v -2.639256 3.546922 -0.033235
v -2.574634 3.521080 -0.076296
v -2.602488 3.554342 -0.010788
v -2.610393 3.555070 0.045391
v -2.530677 3.488180 0.073338
v -2.574791 3.394091 -0.376525
v -2.585248 3.251611 -0.397553
v -2.577321 3.233546 -0.321495
v -2.553621 3.359711 -0.300146
v -2.604605 3.371086 -0.243509
v -2.632113 3.240430 -0.267681
v -2.562672 3.463979 -0.218695
v -2.520574 3.437752 -0.277065
v -2.499708 3.470545 -0.350369
v -2.603395 3.569767 -0.081240
v -2.574634 3.521080 -0.076296
v -2.615438 3.552082 -0.150713
v -2.615438 3.552082 -0.150713
v -2.574634 3.521080 -0.076296
v -2.639584 3.563633 -0.106505
v -2.642236 3.569239 -0.190428
v -2.577747 3.540452 -0.214642
v -2.636540 3.134323 -0.269232
v -2.662995 3.087309 -0.318269
v -2.675886 3.156904 -0.278772
v -2.593349 3.205928 -0.255184
v -2.632113 3.240430 -0.267681
v -2.538578 3.533998 -0.359363
v -2.613448 3.539836 -0.339889
v -2.656713 3.439067 -0.364861
v -2.574791 3.394091 -0.376525
v -2.585248 3.251611 -0.397553
v -2.678684 3.262907 -0.388840
v -2.630840 3.180549 -0.435872
v -2.675971 3.127543 -0.414424
v -2.642384 3.100402 -0.410336
v -2.696368 3.114861 -0.326072
v -2.696029 3.251483 -0.314347
v -2.604605 3.371086 -0.243509
v -2.679435 3.424863 -0.285745
v -2.630678 3.533232 -0.258102
v -2.577747 3.540452 -0.214642
v -2.562672 3.463979 -0.218695
v -2.592280 3.155135 -0.432045
v -2.552955 3.223689 -0.396019
v -2.576472 3.540807 -0.292503
v -2.577747 3.540452 -0.214642
v -2.630678 3.533232 -0.258102
v -2.613448 3.539836 -0.339889
v -2.679435 3.424863 -0.285745
v -2.656713 3.439067 -0.364861
v -2.538578 3.533998 -0.359363
v -2.501151 3.297372 -0.450961
v -2.443028 3.315079 -0.477195
v -2.461280 3.275808 -0.431618
v -2.642236 3.569239 -0.190428
v -2.639584 3.563633 -0.106505
v -2.736423 3.382833 -0.104885
v -2.744173 3.389211 -0.190401
v -2.722658 3.220933 -0.191677
v -2.722705 3.212804 -0.118163
v -2.555676 3.449165 -0.074825
v -2.639584 3.563633 -0.106505
v -2.574634 3.521080 -0.076296
v -2.736423 3.382833 -0.104885
v -2.658818 3.357434 -0.077992
v -2.640479 3.193540 -0.083468
v -2.732694 3.076790 -0.116928
v -2.734402 3.083109 -0.208252
v -2.691663 3.130037 -0.243994
v -2.642178 3.206220 -0.225717
v -2.744173 3.389211 -0.190401
v -2.666259 3.355909 -0.228675
v -2.642236 3.569239 -0.190428
v -2.577747 3.540452 -0.214642
v -2.656880 3.101731 -0.248062
v -2.603470 3.167208 -0.227957
v -2.642178 3.206220 -0.225717
v -2.704575 3.053710 -0.210694
v -2.702004 3.047016 -0.115714
v -2.697177 3.118633 -0.079350
v -2.659631 3.093059 -0.078305
v -2.607857 3.160173 -0.080604
v -1.969137 3.982401 -0.406127
v -1.905753 3.930117 -0.186911
v -1.957067 3.911322 -0.180950
v -2.013838 3.960827 -0.380883
v -2.098094 4.105654 -0.381815
v -2.059442 4.030380 -0.437351
v -2.072585 3.993867 -0.430046
v -2.152458 4.086761 -0.303889
v -2.126932 4.134010 -0.306211
v -2.144032 4.082768 -0.121953
v -2.128585 4.128538 -0.110370
v -2.059483 4.055174 0.017614
v -2.080114 4.021654 -0.007542
v -1.934747 3.940452 -0.025607
v -1.977636 3.921844 -0.045418
v -2.220781 3.832894 -0.212109
v -2.266410 3.851048 -0.201976
v -2.072585 3.993867 -0.430046
v -2.035038 4.001333 -0.435800
v -2.266410 3.851048 -0.201976
v -2.072585 3.993867 -0.430046
v -2.225178 3.849940 -0.167177
v -2.266410 3.851048 -0.201976
v -2.240361 3.447064 0.348357
v -2.236067 3.530948 0.305758
v -2.156990 3.483420 0.305253
v -2.215816 3.607304 0.243689
v -2.300648 3.592999 0.202919
v -2.283582 3.692895 0.177105
v -2.189424 3.676253 0.201745
v -2.238128 3.745713 0.116601
v -2.158022 3.726359 0.138448
v -2.111355 3.461703 0.191596
v -2.137475 3.422907 0.283865
v -2.226614 3.387044 0.329436
v -2.313015 3.433841 0.324254
v -2.323988 3.513298 0.278268
v -2.335788 3.503444 0.140829
v -2.332697 3.688837 0.146671
v -2.285463 3.749079 0.105949
v -2.209435 3.782977 0.070315
v -2.106768 3.686438 0.111581
v -2.117364 3.626546 0.150507
v -2.114736 3.713394 0.051497
v -2.340750 3.475279 0.148020
v -2.352915 3.437697 0.244574
v -2.300233 3.376884 0.306819
v -2.340536 3.394635 0.228192
v -2.328921 3.431530 0.132137
v -2.298249 3.503326 0.117429
v -2.324111 3.615109 0.108918
v -2.332697 3.688837 0.146671
v -2.261295 3.451889 0.111075
v -2.137738 3.546618 0.207489
v -2.128011 3.520730 0.214378
v -2.114736 3.713394 0.051497
v -2.117364 3.626546 0.150507
v -2.106768 3.686438 0.111581
v -2.154261 3.609099 0.139995
v -2.161204 3.537671 0.152796
v -2.187347 3.463869 0.133026
v -2.111355 3.461703 0.191596
v -2.108301 3.740819 -0.021253
v -2.595340 3.569063 -0.219390
v -2.577747 3.540452 -0.214642
v -2.576472 3.540807 -0.292503
v 2.256694 3.848636 0.022369
v 2.209434 3.782977 0.070315
v 2.182498 3.794728 0.034706
v 2.108301 3.740819 -0.021253
v 2.114736 3.713394 0.051497
v 2.555676 3.449165 -0.074825
v 2.535727 3.419860 -0.140622
v 2.500169 3.448464 -0.091048
v 2.512301 3.455352 -0.199443
v 2.562672 3.463979 -0.218696
v -2.076150 3.991360 -0.442997
v -2.072585 3.993867 -0.430046
v -2.059442 4.030380 -0.437351
v 2.461280 3.275808 -0.431618
v 2.398296 3.324045 -0.543605
v 2.443028 3.315079 -0.477195
v 2.417443 3.265491 -0.583577
v 2.482175 3.212937 -0.465916
v 2.453243 3.210580 -0.585654
v 2.486061 3.180312 -0.518309
v 2.439101 3.404770 -0.441543
v 2.426242 3.535095 -0.476314
v 2.419109 3.455275 -0.410503
v 2.445653 3.452613 -0.505052
v 2.440143 3.345667 -0.554782
v 2.443028 3.315079 -0.477195
v 2.517783 3.416724 -0.401174
v 2.419109 3.455275 -0.410503
v 2.499708 3.470545 -0.350369
v 2.439101 3.404770 -0.441543
v 2.501151 3.297372 -0.450961
v 2.443028 3.315079 -0.477195
v 2.544744 3.226282 0.127430
v 2.581460 3.196772 -0.011600
v 2.563489 3.230696 0.056386
v 2.638481 3.131370 0.000679
v 2.593567 3.165633 0.161019
v 2.673638 3.097646 0.060711
v 2.644555 3.114752 0.149785
v 2.562113 3.541971 -0.419226
v 2.538578 3.533998 -0.359363
v 2.506895 3.543192 -0.432096
v 2.517253 3.556173 -0.484165
v 2.426242 3.535095 -0.476314
v -2.577747 3.540452 -0.214642
v -2.666259 3.355909 -0.228675
v -2.562672 3.463979 -0.218695
v 2.607857 3.160173 -0.080604
v 2.603470 3.167208 -0.227957
v 2.606887 3.182936 -0.150597
v 2.656880 3.101731 -0.248062
v 2.659631 3.093059 -0.078305
v 2.704575 3.053709 -0.210694
v 2.702004 3.047016 -0.115714
v -2.542161 3.566329 -0.395570
v -2.538578 3.533998 -0.359363
v -2.506895 3.543192 -0.432096
v 2.323305 3.560381 -0.423822
v 2.168206 3.774325 -0.403495
v 2.101518 3.719450 -0.137688
v 2.188817 3.617558 -0.141070
v 2.154261 3.609099 0.139995
v 2.210423 3.533099 0.082928
v 2.187346 3.463869 0.133026
v 2.261294 3.451889 0.111075
v 2.295776 3.573453 0.061786
v 2.298248 3.503326 0.117429
v 2.324111 3.615109 0.108918
v 2.108301 3.740819 -0.021253
v 2.161204 3.537671 0.152796
v 2.501180 3.526511 0.065929
v 2.471195 3.454327 -0.011149
v 2.295776 3.573453 0.061786
v 2.257052 3.556745 -0.091934
v 2.397501 3.489157 -0.394375
v 2.411640 3.563535 -0.476716
v 2.229660 3.826859 -0.418758
v 2.168206 3.774325 -0.403495
v 2.500169 3.448464 -0.091048
v 2.512301 3.455352 -0.199443
v 2.461206 3.447769 -0.324626
v 2.673638 3.097646 0.060711
v 2.670044 3.162514 0.006697
v 2.638481 3.131370 0.000679
v 2.581460 3.196772 -0.011600
v 2.614936 3.226456 -0.008014
v 2.684541 3.433964 0.003213
v 2.639256 3.546922 -0.033235
v 2.574634 3.521080 -0.076296
v 2.617370 3.376157 -0.044380
v 2.680846 3.260676 0.039842
v 2.701025 3.128796 0.063352
v 2.673990 3.144970 0.149320
v 2.644555 3.114752 0.149785
v 2.629560 3.192244 0.164004
v 2.593567 3.165633 0.161019
v 2.544744 3.226282 0.127430
v 2.587419 3.257964 0.122606
v 2.659315 3.273505 0.109654
v 2.654152 3.442815 0.080447
v 2.562611 3.399961 0.096258
v 2.530676 3.488180 0.073338
v 2.610393 3.555070 0.045391
v 2.610393 3.555070 0.045391
v 2.530676 3.488180 0.073338
v 2.602488 3.554342 -0.010788
v 2.639256 3.546922 -0.033235
v 2.654152 3.442815 0.080447
v 2.684541 3.433964 0.003213
v 2.574634 3.521080 -0.076296
v 2.144608 4.082747 -0.401874
v 2.257525 3.927592 -0.388721
v 2.297123 3.954216 -0.280508
v 2.177755 4.120076 -0.316966
v 2.189511 3.867229 -0.416799
v 2.076150 3.991360 -0.442997
v 2.059442 4.030380 -0.437351
v 2.098093 4.105654 -0.381815
v 2.126932 4.134010 -0.306211
v 1.969137 3.982401 -0.406127
v 2.076150 3.991360 -0.442997
v 2.035037 4.001333 -0.435800
v 1.993300 3.945606 -0.425517
v 1.905753 3.930117 -0.186911
v 1.917321 3.878078 -0.182182
v 2.074577 3.751486 -0.143258
v 1.948932 3.891773 -0.014231
v 2.091832 3.771560 -0.023734
v 2.154805 3.829805 0.023339
v 2.097023 4.035727 0.039493
v 2.217779 3.888051 0.002117
v 2.307908 3.956241 -0.119516
v 2.177897 4.119305 -0.106984
v 2.128585 4.128538 -0.110370
v 2.059483 4.055174 0.017614
v 1.934747 3.940452 -0.025607
v 2.132550 3.813456 -0.402586
v 2.189511 3.867229 -0.416799
v 2.604605 3.371086 -0.243509
v 2.520574 3.437752 -0.277065
v 2.562672 3.463979 -0.218696
v 2.553621 3.359711 -0.300146
v 2.632113 3.240430 -0.267681
v 2.577321 3.233546 -0.321495
v 2.585248 3.251611 -0.397553
v 2.574791 3.394091 -0.376525
v 2.499708 3.470545 -0.350369
v 2.696367 3.114861 -0.326072
v 2.675885 3.156904 -0.278772
v 2.696029 3.251483 -0.314347
v 2.678684 3.262907 -0.388840
v 2.656713 3.439067 -0.364861
v 2.679435 3.424863 -0.285745
v 2.630678 3.533232 -0.258102
v 2.613448 3.539836 -0.339889
v 2.576472 3.540807 -0.292503
v 2.538578 3.533998 -0.359363
v 2.675971 3.127543 -0.414424
v 2.577747 3.540452 -0.214642
v 2.613448 3.539836 -0.339889
v 2.538578 3.533998 -0.359363
v 2.574791 3.394091 -0.376525
v 2.656713 3.439067 -0.364861
v 2.585248 3.251611 -0.397553
v 2.630840 3.180549 -0.435872
v 2.642384 3.100402 -0.410336
v 2.662995 3.087309 -0.318269
v 2.636540 3.134323 -0.269232
v 2.632113 3.240430 -0.267681
v 2.593349 3.205928 -0.255184
v 2.592280 3.155135 -0.432045
v 2.552955 3.223689 -0.396019
v 2.679435 3.424863 -0.285745
v 2.604605 3.371086 -0.243509
v 2.577747 3.540452 -0.214642
v 2.562672 3.463979 -0.218696
v 2.630678 3.533232 -0.258102
v 2.639584 3.563633 -0.106505
v 2.642236 3.569239 -0.190428
v 2.744172 3.389211 -0.190401
v 2.736423 3.382833 -0.104885
v 2.722705 3.212804 -0.118163
v 2.722658 3.220933 -0.191677
v 2.732694 3.076790 -0.116928
v 2.734402 3.083109 -0.208252
v 2.704575 3.053709 -0.210694
v 2.691663 3.130037 -0.243994
v 2.656880 3.101731 -0.248062
v 2.603470 3.167208 -0.227957
v 2.642177 3.206220 -0.225717
v 2.642177 3.206220 -0.225717
v 2.744172 3.389211 -0.190401
v 2.666259 3.355909 -0.228675
v 2.577747 3.540452 -0.214642
v 2.642236 3.569239 -0.190428
v 2.702004 3.047016 -0.115714
v 2.697177 3.118633 -0.079350
v 2.640479 3.193540 -0.083468
v 2.736423 3.382833 -0.104885
v 2.658817 3.357434 -0.077992
v 2.639584 3.563633 -0.106505
v 2.574634 3.521080 -0.076296
v 2.555676 3.449165 -0.074825
v 2.659631 3.093059 -0.078305
v 2.607857 3.160173 -0.080604
v 1.977635 3.921844 -0.045418
v 2.059483 4.055174 0.017614
v 1.934747 3.940452 -0.025607
v 1.957067 3.911322 -0.180950
v 1.905753 3.930117 -0.186911
v 2.013837 3.960827 -0.380883
v 1.969137 3.982401 -0.406127
v 2.152458 4.086761 -0.303889
v 2.266410 3.851048 -0.201976
v 2.072585 3.993867 -0.430046
v 2.144031 4.082768 -0.121953
v 2.128585 4.128538 -0.110370
v 2.080113 4.021654 -0.007542
v 2.225178 3.849940 -0.167177
v 2.220780 3.832894 -0.212109
v 2.266410 3.851048 -0.201976
v 2.072585 3.993867 -0.430046
v 2.035037 4.001333 -0.435800
v 2.266410 3.851048 -0.201976
v 2.126932 4.134010 -0.306211
v 2.098093 4.105654 -0.381815
v 2.072585 3.993867 -0.430046
v 2.059442 4.030380 -0.437351
v -2.593349 3.205928 -0.255184
v -2.632113 3.240430 -0.267681
v -2.577321 3.233546 -0.321495
v -2.544430 3.379438 0.019268
v -2.530677 3.488180 0.073338
v -2.508827 3.439341 -0.001008
v -2.562612 3.399961 0.096258
v -2.563489 3.230696 0.056386
v -2.587419 3.257964 0.122606
v -2.486061 3.180312 -0.518309
v -2.453243 3.210580 -0.585654
v -2.481453 3.227789 -0.593140
v -2.514755 3.199538 -0.528594
v -2.541476 3.311814 -0.504166
v -2.515556 3.228640 -0.480036
v -2.482175 3.212937 -0.465916
v -2.461280 3.275808 -0.431618
v -2.501151 3.297372 -0.450961
v -2.517783 3.416724 -0.401174
v -2.566525 3.453362 -0.461129
v -2.538578 3.533998 -0.359363
v -2.562113 3.541971 -0.419226
v -2.525537 3.473136 -0.516929
v -2.514498 3.335736 -0.555545
v -2.440143 3.345667 -0.554783
v -2.470906 3.285397 -0.592527
v -2.417443 3.265491 -0.583577
v -2.453243 3.210580 -0.585654
v -2.566525 3.453362 -0.461129
v -2.562113 3.541971 -0.419226
v -2.517253 3.556173 -0.484165
v -2.398296 3.324045 -0.543605
v -2.445653 3.452613 -0.505052
v -2.517253 3.556173 -0.484165
v -2.426242 3.535095 -0.476314
v 2.562611 3.399961 0.096258
v 2.508826 3.439341 -0.001008
v 2.530676 3.488180 0.073338
v 2.544430 3.379438 0.019268
v 2.587419 3.257964 0.122606
v 2.563489 3.230696 0.056386
v -2.602488 3.554342 -0.010788
v -2.603395 3.569767 -0.081240
v -2.578223 3.570460 0.022242
v -2.530677 3.488180 0.073338
v -2.501180 3.526511 0.065929
v -2.440143 3.345667 -0.554783
v -2.398296 3.324045 -0.543605
v -2.443028 3.315079 -0.477195
v 2.397501 3.489157 -0.394375
v 2.461206 3.447769 -0.324626
v 2.419109 3.455275 -0.410503
v 2.426242 3.535095 -0.476314
v 2.411640 3.563535 -0.476716
v 2.512301 3.455352 -0.199443
v 2.562672 3.463979 -0.218696
v 2.520574 3.437752 -0.277065
v 2.461206 3.447769 -0.324626
v 2.499708 3.470545 -0.350369
v -2.606887 3.182936 -0.150597
v -2.607857 3.160173 -0.080604
v -2.640479 3.193540 -0.083468
v -2.603470 3.167208 -0.227957
v -2.642178 3.206220 -0.225717
v -2.585248 3.251611 -0.397553
v -2.552955 3.223689 -0.396019
v -2.577321 3.233546 -0.321495
v 2.566525 3.453362 -0.461129
v 2.541476 3.311814 -0.504166
v 2.501151 3.297372 -0.450961
v 2.517783 3.416724 -0.401174
v 2.562113 3.541971 -0.419226
v 2.538578 3.533998 -0.359363
v 2.566525 3.453362 -0.461129
v 2.562113 3.541971 -0.419226
v 2.517253 3.556173 -0.484165
v 2.525537 3.473136 -0.516929
v 2.514498 3.335736 -0.555545
v 2.440143 3.345667 -0.554782
v 2.470906 3.285397 -0.592527
v 2.398296 3.324045 -0.543605
v 2.417443 3.265491 -0.583577
v 2.453243 3.210580 -0.585654
v 2.481452 3.227789 -0.593140
v 2.514755 3.199538 -0.528594
v 2.515556 3.228640 -0.480036
v 2.482175 3.212937 -0.465916
v 2.461280 3.275808 -0.431618
v 2.486061 3.180312 -0.518309
v 2.453243 3.210580 -0.585654
v 2.445653 3.452613 -0.505052
v 2.426242 3.535095 -0.476314
v 2.517253 3.556173 -0.484165
v -2.602488 3.554342 -0.010788
v -2.574634 3.521080 -0.076296
v -2.603395 3.569767 -0.081240
v -2.324111 3.615109 0.108918
v -2.295776 3.573453 0.061786
v -2.501180 3.526511 0.065929
v -2.332697 3.688837 0.146671
v -2.598822 3.605840 0.025034
v -2.578223 3.570460 0.022242
v -2.603395 3.569767 -0.081240
v -2.598969 3.615155 -0.224717
v -2.595340 3.569063 -0.219390
v -2.603395 3.569767 -0.081240
v -2.542161 3.566329 -0.395570
v -2.548377 3.606767 -0.403093
v -2.571752 3.689823 -0.310512
v -2.571860 3.690404 -0.006076
v -2.420632 3.774303 0.046021
v -2.285463 3.749079 0.105949
v -2.256694 3.848636 0.022369
v -2.209435 3.782977 0.070315
v -2.411641 3.563535 -0.476716
v -2.542161 3.566329 -0.395570
v -2.446635 3.650062 -0.477340
v -2.354943 3.916259 -0.259082
v -2.347648 3.902512 -0.104512
v -2.229660 3.826859 -0.418758
v -2.293462 3.877790 -0.390225
v -2.419109 3.455275 -0.410503
v -2.499708 3.470545 -0.350369
v -2.461206 3.447769 -0.324626
v 2.571860 3.690404 -0.006076
v 2.571752 3.689823 -0.310512
v 2.598821 3.605840 0.025034
v 2.332697 3.688837 0.146671
v 2.501180 3.526511 0.065929
v 2.324111 3.615109 0.108918
v 2.295776 3.573453 0.061786
v 2.578223 3.570460 0.022242
v 2.603395 3.569767 -0.081240
v 2.446634 3.650062 -0.477340
v 2.548376 3.606767 -0.403093
v 2.598969 3.615155 -0.224717
v 2.595340 3.569063 -0.219390
v 2.603395 3.569767 -0.081240
v 2.542160 3.566329 -0.395570
v 2.285463 3.749079 0.105949
v 2.209434 3.782977 0.070315
v 2.256694 3.848636 0.022369
v 2.420631 3.774303 0.046021
v 2.347648 3.902512 -0.104512
v 2.354943 3.916259 -0.259082
v 2.293462 3.877790 -0.390225
v 2.229660 3.826859 -0.418758
v 2.411640 3.563535 -0.476716
v 2.542160 3.566329 -0.395570
v -2.574634 3.521080 -0.076296
v -2.617370 3.376157 -0.044380
v -2.555676 3.449165 -0.074825
v 2.132550 3.813456 -0.402586
v 2.168206 3.774325 -0.403495
v 2.229660 3.826859 -0.418758
v 2.189511 3.867229 -0.416799
v 2.257525 3.927592 -0.388721
v 2.293462 3.877790 -0.390225
v 2.297123 3.954216 -0.280508
v 2.354943 3.916259 -0.259082
v 2.307908 3.956241 -0.119516
v 2.347648 3.902512 -0.104512
v 2.217779 3.888051 0.002117
v 2.256694 3.848636 0.022369
v 2.154805 3.829805 0.023339
v 2.182498 3.794728 0.034706
v 2.091832 3.771560 -0.023734
v 2.108301 3.740819 -0.021253
v 2.101518 3.719450 -0.137688
v 2.074577 3.751486 -0.143258
v 2.132550 3.813456 -0.402586
v 2.168206 3.774325 -0.403495
v -2.595340 3.569063 -0.219390
v -2.603395 3.569767 -0.081240
v -2.615438 3.552082 -0.150713
v -1.948932 3.891773 -0.014231
v -1.905753 3.930117 -0.186911
v -1.917321 3.878078 -0.182182
v -1.934747 3.940452 -0.025607
v -2.097023 4.035727 0.039493
v -2.059483 4.055174 0.017614
v -2.128585 4.128538 -0.110370
v -2.177897 4.119305 -0.106984
v -2.126932 4.134010 -0.306211
v -2.177755 4.120076 -0.316966
v -2.098094 4.105654 -0.381815
v -2.144608 4.082747 -0.401874
v -2.059442 4.030380 -0.437351
v -2.076150 3.991360 -0.442997
v -2.257525 3.927592 -0.388721
v -2.189511 3.867229 -0.416799
v -2.297123 3.954216 -0.280508
v -2.307908 3.956241 -0.119516
v -2.217779 3.888051 0.002117
v -2.154806 3.829805 0.023339
v -2.091832 3.771560 -0.023734
v -2.074578 3.751486 -0.143258
v -2.132550 3.813456 -0.402586
v -1.993300 3.945606 -0.425517
v -2.076150 3.991360 -0.442997
v -2.035038 4.001333 -0.435800
v -1.969137 3.982401 -0.406127
v -2.189511 3.867229 -0.416799
v -2.182498 3.794728 0.034706
v -2.108301 3.740819 -0.021253
v -2.114736 3.713394 0.051497
v -2.209435 3.782977 0.070315
v -2.256694 3.848636 0.022369
v -2.074578 3.751486 -0.143258
v -2.132550 3.813456 -0.402586
v -2.168206 3.774325 -0.403495
v -2.101518 3.719450 -0.137688
v -2.108301 3.740819 -0.021253
v -2.091832 3.771560 -0.023734
v -2.154806 3.829805 0.023339
v -2.182498 3.794728 0.034706
v -2.217779 3.888051 0.002117
v -2.256694 3.848636 0.022369
v -2.307908 3.956241 -0.119516
v -2.347648 3.902512 -0.104512
v -2.297123 3.954216 -0.280508
v -2.354943 3.916259 -0.259082
v -2.257525 3.927592 -0.388721
v -2.293462 3.877790 -0.390225
v -2.189511 3.867229 -0.416799
v -2.229660 3.826859 -0.418758
v -2.168206 3.774325 -0.403495
v -2.132550 3.813456 -0.402586
v -2.577747 3.540452 -0.214642
v -2.595340 3.569063 -0.219390
v -2.615438 3.552082 -0.150713
v 2.603395 3.569767 -0.081240
v 2.602488 3.554342 -0.010788
v 2.578223 3.570460 0.022242
v 2.530676 3.488180 0.073338
v 2.501180 3.526511 0.065929
v -2.417443 3.265491 -0.583577
v -2.453243 3.210580 -0.585654
v -2.486061 3.180312 -0.518309
v -2.482175 3.212937 -0.465916
v -2.398296 3.324045 -0.543605
v -2.461280 3.275808 -0.431618
v -2.443028 3.315079 -0.477195
v 2.555676 3.449165 -0.074825
v 2.500169 3.448464 -0.091048
v 2.508826 3.439341 -0.001008
v 2.471195 3.454327 -0.011149
v 2.530676 3.488180 0.073338
v 2.501180 3.526511 0.065929
v -2.563489 3.230696 0.056386
v -2.614936 3.226456 -0.008014
v -2.581460 3.196772 -0.011600
v -2.562672 3.463979 -0.218695
v -2.512301 3.455352 -0.199443
v -2.520574 3.437752 -0.277065
v -2.461206 3.447769 -0.324626
v -2.499708 3.470545 -0.350369
v -2.592280 3.155135 -0.432045
v -2.642384 3.100402 -0.410336
v -2.662995 3.087309 -0.318269
v -2.636540 3.134323 -0.269232
v -2.552955 3.223689 -0.396019
v -2.593349 3.205928 -0.255184
v -2.577321 3.233546 -0.321495
v -2.461206 3.447769 -0.324626
v -2.397501 3.489157 -0.394375
v -2.419109 3.455275 -0.410503
v -2.426242 3.535095 -0.476314
v -2.411641 3.563535 -0.476716
v -2.508827 3.439341 -0.001008
v -2.530677 3.488180 0.073338
v -2.501180 3.526511 0.065929
v -2.471196 3.454327 -0.011149
v -2.500169 3.448464 -0.091048
v -2.555676 3.449165 -0.074825
v -2.445653 3.452613 -0.505052
v -2.440143 3.345667 -0.554783
v -2.443028 3.315079 -0.477195
v -2.439102 3.404770 -0.441543
v -2.419109 3.455275 -0.410503
v -2.426242 3.535095 -0.476314
v 2.617370 3.376157 -0.044380
v 2.555676 3.449165 -0.074825
v 2.508826 3.439341 -0.001008
v 2.544430 3.379438 0.019268
v 2.563489 3.230696 0.056386
v 2.614936 3.226456 -0.008014
v -2.638481 3.131370 0.000679
v -2.673638 3.097646 0.060711
v -2.644555 3.114752 0.149785
v -2.593567 3.165633 0.161019
v -2.581460 3.196772 -0.011600
v -2.544744 3.226282 0.127430
v -2.563489 3.230696 0.056386
v -2.555676 3.449165 -0.074825
v -2.544430 3.379438 0.019268
v -2.508827 3.439341 -0.001008
v -2.617370 3.376157 -0.044380
v -2.614936 3.226456 -0.008014
v -2.563489 3.230696 0.056386
v -2.072585 3.993867 -0.430046
v -2.076150 3.991360 -0.442997
v -2.035038 4.001333 -0.435800
v 2.187346 3.463869 0.133026
v 2.328921 3.431530 0.132137
v 2.261294 3.451889 0.111075
v 2.111355 3.461703 0.191596
v 2.340535 3.394635 0.228192
v 2.137475 3.422907 0.283865
v 2.300233 3.376884 0.306819
v 2.226614 3.387044 0.329436
v -2.538578 3.533998 -0.359363
v -2.562113 3.541971 -0.419226
v -2.506895 3.543192 -0.432096
v -2.517253 3.556173 -0.484165
v -2.426242 3.535095 -0.476314
v 2.574634 3.521080 -0.076296
v 2.615438 3.552082 -0.150713
v 2.639584 3.563633 -0.106505
v 2.642236 3.569239 -0.190428
v 2.577747 3.540452 -0.214642
v 2.076150 3.991360 -0.442997
v 2.072585 3.993867 -0.430046
v 2.035037 4.001333 -0.435800
v -2.656880 3.101731 -0.248062
v -2.704575 3.053710 -0.210694
v -2.702004 3.047016 -0.115714
v -2.659631 3.093059 -0.078305
v -2.603470 3.167208 -0.227957
v -2.607857 3.160173 -0.080604
v -2.606887 3.182936 -0.150597
v 2.642384 3.100402 -0.410336
v 2.636540 3.134323 -0.269232
v 2.662995 3.087309 -0.318269
v 2.592280 3.155135 -0.432045
v 2.593349 3.205928 -0.255184
v 2.552955 3.223689 -0.396019
v 2.577321 3.233546 -0.321495
v -2.340536 3.394635 0.228192
v -2.300233 3.376884 0.306819
v -2.226614 3.387044 0.329436
v -2.137475 3.422907 0.283865
v -2.328921 3.431530 0.132137
v -2.111355 3.461703 0.191596
v -2.261295 3.451889 0.111075
v -2.187347 3.463869 0.133026
v -2.517783 3.416724 -0.401174
v -2.538578 3.533998 -0.359363
v -2.499708 3.470545 -0.350369
v 2.614936 3.226456 -0.008014
v 2.563489 3.230696 0.056386
v 2.581460 3.196772 -0.011600
v 2.574791 3.394091 -0.376525
v 2.538578 3.533998 -0.359363
v 2.499708 3.470545 -0.350369
v 2.555676 3.449165 -0.074825
v 2.627745 3.343841 -0.148109
v 2.535727 3.419860 -0.140622
v 2.562672 3.463979 -0.218696
v 2.666259 3.355909 -0.228675
v 2.642177 3.206220 -0.225717
v 2.606887 3.182936 -0.150597
v 2.640479 3.193540 -0.083468
v 2.658817 3.357434 -0.077992
v 2.426242 3.535095 -0.476314
v 2.506895 3.543192 -0.432096
v 2.411640 3.563535 -0.476716
v 2.542160 3.566329 -0.395570
v 2.606887 3.182936 -0.150597
v 2.603470 3.167208 -0.227957
v 2.642177 3.206220 -0.225717
v 2.607857 3.160173 -0.080604
v 2.640479 3.193540 -0.083468
v 2.595340 3.569063 -0.219390
v 2.577747 3.540452 -0.214642
v 2.615438 3.552082 -0.150713
v 2.587419 3.257964 0.122606
v 2.544744 3.226282 0.127430
v 2.563489 3.230696 0.056386
v 2.538578 3.533998 -0.359363
v 2.576472 3.540807 -0.292503
v 2.542160 3.566329 -0.395570
v 2.595340 3.569063 -0.219390
v 2.603395 3.569767 -0.081240
v 2.595340 3.569063 -0.219390
v 2.615438 3.552082 -0.150713
v 2.574634 3.521080 -0.076296
v 2.603395 3.569767 -0.081240
v 2.615438 3.552082 -0.150713
v 2.617370 3.376157 -0.044380
v 2.574634 3.521080 -0.076296
v 2.555676 3.449165 -0.074825
v 2.443028 3.315079 -0.477195
v 2.501151 3.297372 -0.450961
v 2.461280 3.275808 -0.431618
v 2.499708 3.470545 -0.350369
v 2.419109 3.455275 -0.410503
v 2.461206 3.447769 -0.324626
v 2.577747 3.540452 -0.214642
v 2.595340 3.569063 -0.219390
v 2.576472 3.540807 -0.292503
v 2.574634 3.521080 -0.076296
v 2.602488 3.554342 -0.010788
v 2.603395 3.569767 -0.081240
v 2.072585 3.993867 -0.430046
v 2.076150 3.991360 -0.442997
v 2.059442 4.030380 -0.437351
v 2.552955 3.223689 -0.396019
v 2.585248 3.251611 -0.397553
v 2.577321 3.233546 -0.321495
v 2.666259 3.355909 -0.228675
v 2.577747 3.540452 -0.214642
v 2.562672 3.463979 -0.218696
v 2.398296 3.324045 -0.543605
v 2.440143 3.345667 -0.554782
v 2.443028 3.315079 -0.477195
v 2.538578 3.533998 -0.359363
v 2.542160 3.566329 -0.395570
v 2.506895 3.543192 -0.432096
v 2.632113 3.240430 -0.267681
v 2.593349 3.205928 -0.255184
v 2.577321 3.233546 -0.321495
vn -0.5176 0.7382 0.4326
vn 0.7536 -0.5256 -0.3947
vn 0.8682 -0.3256 -0.3745
vn 0.7608 -0.5197 -0.3888
vn -0.3527 0.8660 0.3545
vn -0.0340 0.0596 -0.9976
vn 0.1449 0.1333 -0.9804
vn 0.2598 0.0580 -0.9639
vn -0.9549 0.1695 0.2437
vn -0.9234 0.3791 -0.0596
vn -0.6469 0.7543 0.1117
vn -0.9202 -0.2756 0.2780
vn -0.9133 -0.3649 -0.1808
vn -0.8770 -0.1808 0.4451
vn 0.8617 -0.5006 0.0835
vn 0.8520 -0.5136 -0.1015
vn 0.8505 -0.5257 -0.0163
vn 0.8221 -0.5369 -0.1892
vn 0.3603 -0.8973 -0.2550
vn -0.0761 0.7401 0.6682
vn 0.3349 -0.1074 -0.9361
vn 0.4597 -0.0645 -0.8857
vn 0.5285 -0.1037 -0.8426
vn 0.8416 -0.4702 0.2656
vn 0.8617 -0.5005 0.0835
vn 0.7320 0.6797 -0.0462
vn 0.9101 -0.2126 -0.3556
vn 0.9508 0.1122 -0.2887
vn -0.6005 0.7922 -0.1092
vn 0.7684 -0.5316 -0.3563
vn 0.8221 -0.5369 -0.1893
vn -0.8424 0.4177 0.3405
vn -0.8913 0.4520 0.0366
vn -0.6851 0.6899 0.2339
vn -0.8544 0.4427 -0.2720
vn -0.7022 0.7031 -0.1119
vn -0.8913 0.4520 0.0365
vn 0.4577 0.3572 -0.8142
vn 0.4536 0.4869 -0.7464
vn 0.4519 0.2198 -0.8646
vn -0.9410 -0.3384 -0.0103
vn -0.8201 -0.3298 0.4677
vn -0.5733 -0.6946 0.4345
vn -0.8424 0.4176 0.3406
vn -0.8913 0.4519 0.0366
vn -0.8544 0.4426 -0.2720
vn -0.8364 -0.2664 -0.4790
vn -0.6246 -0.6185 -0.4768
vn -0.6738 -0.7385 -0.0238
vn -0.2901 0.0422 -0.9561
vn -0.0851 0.1298 -0.9879
vn -0.0366 0.1369 -0.9899
vn -0.5507 0.6796 -0.4847
vn -0.7086 0.2667 -0.6532
vn -0.7068 -0.3454 0.6174
vn -0.7943 -0.2978 0.5296
vn -0.7998 -0.3009 0.5194
vn 0.2150 -0.9336 -0.2867
vn 0.2151 -0.9336 -0.2867
vn 0.2161 -0.9270 -0.3065
vn 0.2161 -0.9270 -0.3066
vn 0.2171 -0.9222 -0.3200
vn 0.2172 -0.9222 -0.3200
vn 0.2171 -0.9244 -0.3136
vn -0.9457 0.1469 0.2898
vn -0.9471 -0.2119 0.2411
vn -0.9471 -0.2118 0.2411
vn -0.8023 -0.5805 0.1386
vn -0.8024 -0.5805 0.1386
vn -0.7784 -0.6169 0.1161
vn -0.7785 -0.6169 0.1161
vn 0.9978 0.0572 0.0324
vn 0.9535 -0.3014 0.0104
vn 0.9535 -0.3013 0.0103
vn 0.7539 -0.6565 -0.0264
vn 0.7217 -0.6910 -0.0396
vn 0.7217 -0.6911 -0.0396
vn 0.1433 0.9554 0.2583
vn 0.0875 0.9276 0.3631
vn 0.2124 0.9686 -0.1290
vn -0.4349 0.8956 0.0935
vn -0.4851 0.8719 0.0671
vn -0.4645 0.8829 0.0680
vn -0.5095 0.8588 0.0539
vn -0.5254 0.8483 0.0653
vn 0.1196 0.9687 0.2177
vn 0.0825 0.9786 0.1885
vn 0.2049 0.9585 0.1982
vn 0.0208 0.9830 0.1825
vn 0.0081 0.9916 0.1289
vn -0.2172 -0.9244 -0.3137
vn -0.2172 -0.9222 -0.3200
vn -0.2172 -0.9244 -0.3136
vn -0.2171 -0.9222 -0.3200
vn -0.2161 -0.9270 -0.3066
vn -0.2161 -0.9270 -0.3065
vn -0.2151 -0.9336 -0.2867
vn -0.1433 0.9554 0.2583
vn -0.2124 0.9686 -0.1290
vn -0.0875 0.9276 0.3631
vn 0.7086 0.2668 -0.6532
vn 0.7086 0.2667 -0.6533
vn 0.6591 -0.4260 -0.6198
vn 0.5747 -0.6231 -0.5305
vn 0.9669 -0.0009 -0.2552
vn 0.9203 -0.3514 -0.1717
vn 0.9203 -0.3514 -0.1716
vn 0.7192 -0.6923 -0.0594
vn 0.6842 -0.7273 -0.0532
vn -0.7086 0.2667 -0.6533
vn -0.6591 -0.4260 -0.6198
vn -0.5747 -0.6231 -0.5305
vn -0.5747 -0.6232 -0.5304
vn 0.9510 -0.1638 -0.2624
vn 0.9871 -0.0750 -0.1415
vn 0.9997 0.0156 -0.0173
vn 0.3369 -0.9257 0.1717
vn -0.0432 -0.9936 -0.1048
vn 0.1593 -0.9836 -0.0843
vn 0.5136 -0.8011 0.3072
vn 0.5809 -0.5272 0.6202
vn 0.8014 -0.3560 -0.4807
vn 0.7698 -0.4023 -0.4956
vn 0.8450 -0.4792 -0.2374
vn 0.8583 -0.5056 -0.0877
vn 0.7306 -0.6110 0.3047
vn 0.9457 0.1469 0.2898
vn 0.9471 -0.2118 0.2411
vn 0.8023 -0.5805 0.1386
vn 0.7784 -0.6169 0.1161
vn -0.0593 -0.9982 -0.0107
vn -0.2132 -0.8678 -0.4489
vn 0.0487 -0.9879 -0.1473
vn 0.0260 -0.9755 0.2184
vn -0.2521 -0.9376 0.2395
vn 0.5507 0.6796 -0.4847
vn -0.5809 -0.5272 0.6202
vn -0.5136 -0.8011 0.3072
vn -0.3369 -0.9257 0.1717
vn -0.1593 -0.9836 -0.0843
vn 0.0432 -0.9936 -0.1048
vn 0.7748 0.2912 0.5612
vn 0.8857 -0.0860 0.4562
vn 0.8428 -0.4798 0.2439
vn 0.8428 -0.4798 0.2438
vn 0.8339 -0.5097 0.2115
vn 0.5726 0.1675 0.8025
vn 0.6704 0.3880 0.6324
vn 0.2792 0.3849 0.8797
vn 0.8278 0.3540 0.4353
vn 0.6904 0.7048 0.1632
vn -0.7684 -0.5316 -0.3563
vn -0.8221 -0.5369 -0.1893
vn -0.0368 0.0597 -0.9975
vn 0.1490 -0.1066 -0.9831
vn -0.4776 0.4486 -0.7554
vn -0.6911 0.6890 -0.2184
vn -0.6014 0.7191 0.3481
vn -0.2104 0.5138 0.8317
vn 0.2984 0.0996 0.9492
vn 0.2984 0.0995 0.9492
vn 0.7287 -0.3875 0.5646
vn 0.7287 -0.3875 0.5647
vn 0.7880 -0.6120 -0.0674
vn 0.7039 -0.6394 -0.3094
vn 0.5424 0.6774 0.4969
vn 0.0081 0.7331 0.6800
vn 0.3614 0.7748 0.5187
vn 0.6307 0.6953 0.3446
vn 0.6493 0.6291 0.4274
vn 0.2515 -0.4539 -0.8548
vn -0.1476 -0.0734 -0.9863
vn -0.0815 0.0166 -0.9965
vn 0.9602 -0.2676 -0.0799
vn 0.8334 -0.5465 -0.0825
vn 0.6823 -0.1269 -0.7199
vn 0.5453 -0.3540 -0.7598
vn 0.3303 0.0738 -0.9410
vn 0.6285 -0.7740 -0.0773
vn 0.5035 -0.6332 0.5879
vn 0.5930 -0.3268 0.7359
vn 0.0662 -0.1851 0.9805
vn -0.1010 0.2940 0.9505
vn -0.4992 0.2240 0.8370
vn -0.5038 0.7977 0.3314
vn -0.7705 0.5446 0.3313
vn -0.4727 0.8328 -0.2880
vn -0.7967 0.5545 -0.2405
vn -0.5010 0.2607 -0.8253
vn -0.3344 0.5184 -0.7870
vn -0.0816 0.0167 -0.9965
vn -0.1477 -0.0733 -0.9863
vn -0.1035 0.4370 -0.8935
vn -0.1175 0.8134 -0.5697
vn -0.1990 0.9599 -0.1977
vn -0.1791 0.9405 0.2887
vn 0.1767 0.5413 0.8220
vn 0.7847 -0.0569 0.6173
vn -0.7320 0.6798 -0.0461
vn -0.7039 -0.6394 -0.3094
vn -0.7880 -0.6120 -0.0674
vn -0.7287 -0.3875 0.5647
vn -0.7287 -0.3875 0.5646
vn -0.2984 0.0995 0.9492
vn -0.2984 0.0996 0.9492
vn 0.2104 0.5138 0.8317
vn 0.2105 0.5138 0.8317
vn 0.6014 0.7191 0.3481
vn 0.6015 0.7191 0.3481
vn 0.6911 0.6890 -0.2184
vn 0.6911 0.6890 -0.2185
vn 0.4776 0.4486 -0.7554
vn 0.0368 0.0597 -0.9975
vn 0.0367 0.0597 -0.9975
vn -0.1490 -0.1066 -0.9831
vn -0.3349 -0.1074 -0.9361
vn -0.5285 -0.1038 -0.8426
vn -0.4597 -0.0645 -0.8857
vn 0.5307 0.7817 0.3277
vn -0.0081 0.7331 0.6800
vn 0.3544 0.6740 0.6481
vn 0.7758 -0.2286 -0.5882
vn -0.0101 -0.2763 -0.9610
vn 0.8270 -0.0421 -0.5606
vn 0.4192 0.3792 -0.8249
vn -0.2151 0.0703 -0.9741
vn 0.3859 0.5445 -0.7447
vn 0.6487 0.6780 -0.3457
vn 0.8540 0.4567 -0.2492
vn 0.6994 0.5733 0.4268
vn 0.4551 0.2899 0.8419
vn 0.1324 0.7079 0.6938
vn -0.3613 0.7749 0.5187
vn 0.9893 0.0531 -0.1360
vn 0.9875 -0.0236 -0.1556
vn 0.7758 -0.2286 -0.5881
vn 0.9254 0.0535 0.3751
vn 0.9895 -0.1184 0.0828
vn 0.7532 -0.4745 0.4555
vn 0.9895 -0.1185 0.0828
vn 0.2303 -0.4331 0.8714
vn -0.0924 -0.5780 0.8108
vn -0.1708 -0.6851 0.7082
vn -0.3603 -0.8973 -0.2550
vn -0.6487 0.6780 -0.3457
vn -0.3859 0.5445 -0.7447
vn -0.4192 0.3792 -0.8249
vn 0.2151 0.0702 -0.9741
vn 0.0101 -0.2763 -0.9610
vn -0.5307 0.7817 0.3277
vn -0.3544 0.6740 0.6481
vn -0.6994 0.5733 0.4268
vn -0.8540 0.4567 -0.2492
vn -0.8270 -0.0421 -0.5606
vn -0.7758 -0.2287 -0.5882
vn -0.1324 0.7079 0.6938
vn 0.3613 0.7749 0.5187
vn -0.4551 0.2900 0.8419
vn -0.9255 0.0535 0.3750
vn -0.9893 0.0531 -0.1360
vn -0.9875 -0.0236 -0.1556
vn -0.7758 -0.2286 -0.5881
vn -0.9895 -0.1184 0.0828
vn -0.7532 -0.4745 0.4555
vn -0.9895 -0.1185 0.0828
vn -0.2303 -0.4331 0.8714
vn 0.0924 -0.5780 0.8108
vn 0.1708 -0.6851 0.7082
vn -0.8617 -0.5005 0.0834
vn -0.8617 -0.5006 0.0834
vn -0.8520 -0.5136 -0.1015
vn -0.1842 0.3151 -0.9310
vn 0.3019 0.3143 -0.9000
vn -0.1841 0.3152 -0.9310
vn -0.2116 0.3681 -0.9054
vn -0.1280 0.4205 -0.8982
vn 0.4655 -0.2435 -0.8509
vn 0.8263 -0.5454 -0.1406
vn 0.3402 -0.7844 -0.5186
vn 0.5567 -0.8196 0.1355
vn 0.7355 -0.4291 0.5243
vn 0.5410 -0.5004 0.6760
vn 0.5074 -0.2596 0.8217
vn 0.7251 -0.2210 0.6522
vn 0.9858 -0.1605 0.0484
vn 0.5364 0.1992 -0.8201
vn -0.0232 0.2148 -0.9764
vn -0.1910 -0.0450 -0.9806
vn -0.2582 0.1796 -0.9493
vn -0.3539 0.4033 -0.8439
vn 0.8408 0.1622 -0.5165
vn 0.8179 0.2793 -0.5031
vn 0.8179 0.2793 -0.5030
vn 0.7943 -0.2978 0.5295
vn 0.7998 -0.3009 0.5194
vn 0.8678 -0.2449 0.4323
vn 0.8403 -0.2763 0.4664
vn 0.9549 0.1695 0.2437
vn 0.6469 0.7543 0.1117
vn 0.9234 0.3791 -0.0596
vn 0.8544 0.4427 -0.2720
vn 0.8913 0.4520 0.0365
vn 0.7022 0.7031 -0.1119
vn 0.8424 0.4177 0.3405
vn 0.6851 0.6899 0.2339
vn 0.8913 0.4519 0.0366
vn 0.0593 -0.9982 -0.0107
vn -0.0487 -0.9879 -0.1473
vn 0.2132 -0.8678 -0.4489
vn -0.0260 -0.9755 0.2184
vn 0.2521 -0.9376 0.2395
vn -0.8014 -0.3560 -0.4807
vn -0.8450 -0.4792 -0.2375
vn -0.7698 -0.4023 -0.4956
vn -0.8583 -0.5056 -0.0877
vn -0.7306 -0.6110 0.3047
vn 0.3527 0.8660 0.3545
vn -0.5726 0.1675 0.8025
vn -0.2792 0.3849 0.8797
vn -0.6704 0.3880 0.6324
vn -0.8278 0.3540 0.4354
vn -0.6903 0.7048 0.1632
vn -0.9493 -0.0767 0.3048
vn -0.9220 -0.1870 0.3389
vn -0.8818 -0.2947 0.3683
vn -0.8818 -0.2946 0.3683
vn 0.1841 0.3151 -0.9310
vn 0.1842 0.3151 -0.9310
vn 0.2116 0.3681 -0.9054
vn -0.3020 0.3143 -0.9000
vn 0.1280 0.4205 -0.8982
vn 0.3540 0.4033 -0.8439
vn 0.2582 0.1796 -0.9493
vn -0.8179 0.2793 -0.5030
vn -0.8179 0.2794 -0.5030
vn -0.8408 0.1622 -0.5165
vn -0.5365 0.1992 -0.8201
vn -0.9858 -0.1605 0.0484
vn -0.4655 -0.2435 -0.8509
vn 0.0232 0.2147 -0.9764
vn 0.1910 -0.0450 -0.9806
vn -0.7943 -0.2978 0.5295
vn -0.8679 -0.2448 0.4323
vn -0.8403 -0.2763 0.4664
vn -0.7251 -0.2210 0.6522
vn -0.7355 -0.4291 0.5243
vn -0.5074 -0.2596 0.8217
vn -0.5410 -0.5004 0.6760
vn -0.5567 -0.8196 0.1355
vn -0.8263 -0.5454 -0.1406
vn -0.3403 -0.7844 -0.5186
vn 0.9493 -0.0767 0.3048
vn 0.9221 -0.1870 0.3389
vn 0.8818 -0.2947 0.3683
vn 0.5176 0.7382 0.4326
vn -0.8771 -0.1808 0.4451
vn -0.7945 -0.1987 0.5739
vn -0.9202 -0.2756 0.2781
vn -0.8948 -0.3055 0.3256
vn -0.8819 -0.4164 0.2210
vn -0.9148 -0.2790 -0.2920
vn -0.3419 0.7178 -0.6065
vn -0.2898 0.9039 -0.3146
vn -0.0372 0.9814 0.1886
vn -0.9583 -0.2846 -0.0261
vn -0.8985 -0.2993 -0.3210
vn -0.5740 0.2179 -0.7894
vn 0.1433 0.9554 0.2584
vn 0.1716 0.8694 0.4634
vn 0.0548 0.8353 0.5470
vn -0.2004 0.6832 0.7022
vn 0.3002 0.9505 0.0798
vn 0.0463 0.8330 -0.5514
vn -0.5801 0.2142 -0.7859
vn 0.3250 0.9413 0.0915
vn 0.0984 0.8258 -0.5553
vn 0.3211 0.0541 0.9455
vn 0.0108 0.0533 0.9985
vn 0.3370 -0.1488 0.9297
vn 0.1653 -0.1884 0.9681
vn 0.5344 -0.5731 0.6212
vn 0.2459 0.1267 0.9610
vn 0.3153 0.0194 0.9488
vn 0.8507 0.0223 0.5251
vn 0.8228 -0.2596 0.5055
vn 0.5431 -0.5076 -0.6689
vn 0.1450 0.1333 -0.9804
vn 0.3184 0.2019 -0.9262
vn 0.3992 0.0220 -0.9166
vn 0.2599 0.0580 -0.9639
vn 0.2791 0.1199 -0.9528
vn 0.8113 0.1124 -0.5737
vn 0.3638 0.0224 -0.9312
vn 0.8468 -0.2444 -0.4725
vn 0.2790 0.1200 -0.9528
vn -0.0952 0.1954 -0.9761
vn 0.1429 -0.0666 -0.9875
vn 0.9782 0.1970 0.0661
vn 0.8724 0.4810 0.0876
vn 0.5601 -0.0391 0.8275
vn 0.5609 -0.0157 0.8277
vn 0.4409 -0.0642 0.8952
vn 0.4816 -0.0638 0.8741
vn 0.3115 -0.1114 0.9437
vn 0.4716 0.0407 0.8809
vn 0.9250 0.0587 0.3753
vn 0.5987 -0.1816 0.7801
vn -0.0360 0.2767 -0.9603
vn 0.1091 0.0783 -0.9909
vn -0.2961 0.3023 -0.9060
vn -0.1069 0.0068 -0.9942
vn 0.3007 -0.5071 -0.8078
vn 0.2733 -0.0027 0.9619
vn 0.3855 -0.2630 0.8844
vn 0.6073 -0.6632 0.4375
vn 0.9056 -0.3799 0.1883
vn 0.6804 -0.2719 -0.6806
vn 0.6218 0.2243 -0.7504
vn 0.0858 0.1683 -0.9820
vn 0.1242 0.2108 -0.9696
vn 0.4220 0.9057 -0.0388
vn 0.0597 0.9982 -0.0021
vn 0.1370 0.9906 0.0023
vn 0.3573 0.9316 -0.0666
vn -0.0601 0.9959 -0.0673
vn 0.9364 0.2895 -0.1985
vn -0.8104 -0.5374 0.2333
vn -0.8303 -0.5079 -0.2296
vn -0.8906 -0.3758 0.2562
vn -0.9241 -0.3063 -0.2287
vn -0.9234 0.3792 -0.0597
vn -0.9549 0.1696 0.2436
vn -0.6763 -0.2572 0.6902
vn -0.6496 -0.3561 0.6717
vn -0.6158 -0.4511 0.6459
vn -0.2515 -0.4539 -0.8548
vn 0.0815 0.0166 -0.9965
vn 0.1476 -0.0733 -0.9863
vn -0.5453 -0.3539 -0.7598
vn -0.6285 -0.7740 -0.0773
vn -0.9602 -0.2676 -0.0800
vn -0.8334 -0.5465 -0.0825
vn -0.7847 -0.0569 0.6173
vn -0.5930 -0.3268 0.7359
vn -0.1767 0.5413 0.8220
vn 0.1010 0.2940 0.9505
vn 0.5038 0.7977 0.3315
vn 0.1791 0.9405 0.2887
vn 0.1990 0.9599 -0.1976
vn 0.4728 0.8328 -0.2880
vn 0.7967 0.5545 -0.2405
vn 0.7705 0.5446 0.3313
vn 0.4992 0.2240 0.8370
vn -0.0662 -0.1851 0.9805
vn -0.5035 -0.6332 0.5879
vn -0.6823 -0.1269 -0.7200
vn -0.3304 0.0738 -0.9410
vn 0.1175 0.8134 -0.5697
vn 0.3344 0.5184 -0.7870
vn 0.1035 0.4370 -0.8935
vn 0.0816 0.0167 -0.9965
vn 0.5010 0.2606 -0.8253
vn -0.1920 0.9713 -0.1403
vn 0.3813 0.9216 -0.0727
vn -0.0774 0.9019 -0.4250
vn 0.1247 0.1938 0.9731
vn 0.7086 -0.0901 0.6999
vn 0.6062 0.3004 0.7364
vn 0.9522 -0.2692 -0.1446
vn 0.9347 0.0863 -0.3448
vn 0.9177 0.2518 0.3071
vn 0.1822 0.9729 0.1423
vn -0.6247 0.7770 0.0778
vn 0.0801 0.2408 0.9673
vn 0.0539 0.2961 0.9536
vn -0.0363 0.3726 0.9273
vn -0.2446 0.3585 0.9009
vn -0.1046 0.0980 0.9897
vn 0.3378 -0.3636 0.8682
vn 0.7130 -0.6117 -0.3428
vn 0.6111 -0.1613 -0.7749
vn 0.4609 0.0025 -0.8875
vn 0.6166 -0.1001 -0.7809
vn 0.5285 -0.1037 -0.8425
vn 0.5754 -0.0204 -0.8177
vn 0.1858 -0.0437 -0.9816
vn 0.4218 -0.2853 -0.8606
vn -0.4111 -0.9106 -0.0431
vn -0.5376 -0.7902 -0.2942
vn -0.4087 -0.9102 0.0677
vn -0.3550 -0.9341 0.0380
vn -0.4049 -0.9098 -0.0916
vn -0.3802 -0.8744 0.3016
vn -0.2152 0.0702 -0.9741
vn -0.5907 -0.5641 -0.5770
vn -0.1991 -0.0514 -0.9786
vn -0.0101 -0.2764 -0.9610
vn -0.7127 -0.6775 -0.1815
vn -0.4534 -0.6862 -0.5688
vn -0.0885 -0.9327 0.3497
vn -0.1709 -0.6851 0.7081
vn -0.8121 -0.1580 -0.5617
vn -0.8931 -0.4106 -0.1841
vn -0.5977 -0.3384 -0.7268
vn -0.8626 -0.4955 -0.1022
vn -0.9707 -0.2200 0.0969
vn 0.8183 -0.3393 -0.4640
vn 0.5916 -0.3925 -0.7042
vn 0.9108 -0.2365 -0.3385
vn 0.1189 -0.4780 -0.8703
vn -0.7715 -0.5710 -0.2806
vn -0.7536 -0.5256 -0.3947
vn -0.7607 -0.5197 -0.3888
vn -0.8682 -0.3256 -0.3745
vn -0.7217 -0.6910 -0.0396
vn -0.7539 -0.6565 -0.0264
vn -0.9535 -0.3014 0.0104
vn -0.9978 0.0572 0.0324
vn 0.0340 0.0596 -0.9976
vn -0.2598 0.0579 -0.9639
vn -0.1449 0.1333 -0.9804
vn -0.1196 0.9687 0.2177
vn -0.2049 0.9585 0.1982
vn -0.0825 0.9786 0.1885
vn -0.0208 0.9830 0.1825
vn -0.0081 0.9916 0.1289
vn -0.6842 -0.7273 -0.0532
vn -0.7192 -0.6923 -0.0594
vn -0.9203 -0.3514 -0.1717
vn -0.9203 -0.3514 -0.1716
vn -0.9669 -0.0008 -0.2552
vn -0.4256 -0.3201 0.8464
vn -0.3801 -0.4965 0.7804
vn -0.3204 -0.6543 0.6850
vn -0.9997 0.0155 -0.0173
vn -0.9871 -0.0750 -0.1415
vn -0.9997 0.0156 -0.0173
vn -0.9510 -0.1638 -0.2623
vn -0.9510 -0.1638 -0.2624
vn -0.8339 -0.5097 0.2115
vn -0.8428 -0.4798 0.2439
vn -0.8857 -0.0860 0.4562
vn -0.7748 0.2912 0.5612
vn 0.9202 -0.2756 0.2781
vn 0.8770 -0.1808 0.4451
vn 0.9133 -0.3649 -0.1808
vn -0.3388 -0.9379 -0.0746
vn -0.4173 -0.8420 -0.3418
vn -0.0445 -0.8631 -0.5031
vn -0.4620 -0.8703 0.1708
vn -0.1153 -0.8939 0.4331
vn -0.6307 0.6953 0.3446
vn -0.6492 0.6292 0.4274
vn -0.5424 0.6774 0.4969
vn -0.8505 -0.5257 -0.0163
vn -0.8221 -0.5369 -0.1892
vn 0.7515 -0.5121 -0.4160
vn 0.9106 -0.4069 -0.0728
vn 0.8065 -0.4958 -0.3220
vn 0.7432 0.1554 -0.6507
vn 0.7433 0.1554 -0.6507
vn 0.9591 0.2703 -0.0846
vn 0.8287 -0.0025 -0.5597
vn 0.9342 0.2858 0.2135
vn 0.7366 -0.4790 -0.4775
vn 0.9026 -0.3352 -0.2701
vn 0.6628 0.3095 0.6818
vn 0.9268 0.1538 0.3427
vn 0.0494 0.5417 0.8391
vn 0.6571 0.2963 0.6931
vn -0.4228 -0.0050 -0.9062
vn -0.7777 -0.1128 -0.6184
vn -0.6121 -0.0674 -0.7879
vn -0.8347 -0.0689 -0.5464
vn -0.9749 0.0697 -0.2113
vn -0.8211 -0.0470 -0.5688
vn -0.9906 0.0184 0.1359
vn -0.9535 -0.2842 0.1006
vn -0.6699 -0.0315 0.7418
vn -0.5975 -0.3734 0.7096
vn 0.1423 -0.2620 0.9545
vn -0.7106 0.4386 0.5502
vn 0.6808 0.5819 0.4448
vn 0.4011 0.5066 0.7632
vn 0.3603 0.7439 0.5628
vn -0.0842 0.7798 0.6204
vn -0.2866 0.5594 0.7778
vn -0.4552 0.2900 0.8419
vn -0.6975 0.3509 0.6248
vn 0.0195 0.5777 0.8161
vn 0.0501 0.1083 0.9929
vn 0.7664 0.0035 0.6423
vn 0.3419 0.7178 -0.6065
vn 0.0372 0.9814 0.1886
vn 0.2898 0.9039 -0.3146
vn -0.0463 0.8329 -0.5514
vn 0.5740 0.2179 -0.7894
vn 0.9583 -0.2846 -0.0260
vn 0.8986 -0.2993 -0.3210
vn 0.8948 -0.3055 0.3256
vn 0.8771 -0.1808 0.4451
vn -0.1716 0.8694 0.4634
vn -0.1433 0.9554 0.2584
vn -0.0548 0.8353 0.5470
vn 0.2004 0.6832 0.7022
vn -0.3002 0.9505 0.0798
vn -0.3250 0.9413 0.0915
vn -0.0986 0.8258 -0.5553
vn 0.5801 0.2142 -0.7859
vn 0.9148 -0.2790 -0.2920
vn 0.8819 -0.4164 0.2210
vn 0.7945 -0.1987 0.5739
vn -0.3370 -0.1489 0.9296
vn -0.5344 -0.5731 0.6212
vn -0.1654 -0.1884 0.9681
vn -0.0108 0.0534 0.9985
vn -0.3211 0.0541 0.9455
vn -0.8228 -0.2596 0.5055
vn -0.8468 -0.2443 -0.4726
vn -0.5431 -0.5076 -0.6689
vn -0.3638 0.0224 -0.9312
vn -0.1429 -0.0667 -0.9875
vn -0.2790 0.1199 -0.9528
vn 0.0952 0.1954 -0.9761
vn -0.1450 0.1333 -0.9804
vn -0.2599 0.0580 -0.9639
vn -0.3184 0.2019 -0.9262
vn -0.3992 0.0220 -0.9166
vn -0.2791 0.1199 -0.9528
vn -0.8113 0.1124 -0.5737
vn -0.8507 0.0223 0.5251
vn -0.3153 0.0194 0.9488
vn -0.2459 0.1267 0.9610
vn -0.9782 0.1970 0.0661
vn -0.8724 0.4810 0.0876
vn 0.0761 0.7401 0.6682
vn -0.0597 0.9982 -0.0021
vn 0.0601 0.9959 -0.0673
vn -0.3573 0.9316 -0.0666
vn -0.9057 -0.3799 0.1883
vn -0.9250 0.0587 0.3753
vn -0.6804 -0.2719 -0.6806
vn -0.6218 0.2243 -0.7504
vn -0.9364 0.2895 -0.1985
vn -0.9364 0.2896 -0.1985
vn -0.4221 0.9057 -0.0388
vn -0.1370 0.9906 0.0023
vn 0.1069 0.0069 -0.9942
vn -0.3007 -0.5071 -0.8077
vn -0.1091 0.0783 -0.9909
vn 0.0360 0.2767 -0.9603
vn 0.2961 0.3023 -0.9060
vn -0.4816 -0.0638 0.8741
vn -0.3115 -0.1114 0.9437
vn -0.4410 -0.0642 0.8952
vn -0.5609 -0.0157 0.8277
vn -0.5601 -0.0391 0.8275
vn -0.4716 0.0408 0.8808
vn -0.5987 -0.1817 0.7801
vn -0.6073 -0.6632 0.4375
vn -0.0858 0.1683 -0.9820
vn 0.0366 0.1369 -0.9899
vn 0.0850 0.1298 -0.9879
vn -0.1243 0.2108 -0.9696
vn -0.2733 -0.0027 0.9619
vn -0.3856 -0.2630 0.8844
vn 0.4349 0.8956 0.0935
vn 0.4645 0.8830 0.0680
vn 0.4851 0.8719 0.0671
vn 0.5095 0.8588 0.0539
vn 0.5254 0.8483 0.0653
vn -0.8416 -0.4702 0.2656
vn -0.8617 -0.5005 0.0836
vn 0.8302 -0.5079 -0.2296
vn 0.8104 -0.5374 0.2333
vn 0.9241 -0.3063 -0.2287
vn 0.8906 -0.3757 0.2561
vn 0.6160 -0.4510 0.6459
vn 0.6496 -0.3561 0.6717
vn 0.9549 0.1695 0.2436
vn 0.6763 -0.2572 0.6902
vn 0.9234 0.3791 -0.0597
vn 0.1920 0.9713 -0.1403
vn -0.1822 0.9729 0.1423
vn 0.6247 0.7770 0.0778
vn -0.9177 0.2518 0.3071
vn -0.3813 0.9216 -0.0727
vn 0.0774 0.9019 -0.4250
vn 0.1046 0.0981 0.9897
vn 0.2446 0.3585 0.9009
vn 0.0363 0.3726 0.9273
vn -0.4218 -0.2853 -0.8606
vn -0.7147 -0.6098 -0.3427
vn -0.6111 -0.1613 -0.7749
vn -0.9522 -0.2692 -0.1446
vn -0.3377 -0.3636 0.8682
vn -0.0801 0.2408 0.9673
vn -0.0539 0.2961 0.9536
vn -0.6062 0.3004 0.7364
vn -0.1247 0.1939 0.9731
vn -0.7085 -0.0901 0.6999
vn -0.9347 0.0863 -0.3448
vn -0.4609 0.0025 -0.8874
vn -0.1859 -0.0437 -0.9816
vn -0.5286 -0.1037 -0.8425
vn -0.5753 -0.0204 -0.8177
vn -0.6166 -0.1001 -0.7809
vn 0.1991 -0.0514 -0.9786
vn 0.5907 -0.5641 -0.5770
vn 0.0101 -0.2764 -0.9610
vn 0.5376 -0.7902 -0.2942
vn 0.8625 -0.4955 -0.1022
vn 0.9707 -0.2200 0.0969
vn 0.8931 -0.4106 -0.1841
vn 0.7127 -0.6776 -0.1815
vn 0.7715 -0.5710 -0.2805
vn 0.4111 -0.9106 -0.0431
vn 0.4087 -0.9102 0.0677
vn 0.3550 -0.9341 0.0380
vn 0.4049 -0.9098 -0.0917
vn 0.3802 -0.8744 0.3016
vn 0.0885 -0.9327 0.3497
vn 0.1709 -0.6851 0.7081
vn -0.8183 -0.3393 -0.4640
vn -0.9108 -0.2365 -0.3385
vn -0.5916 -0.3925 -0.7042
vn -0.1189 -0.4780 -0.8703
vn 0.4534 -0.6862 -0.5688
vn 0.5977 -0.3384 -0.7268
vn 0.8121 -0.1580 -0.5617
vn 0.4256 -0.3201 0.8464
vn 0.3801 -0.4965 0.7804
vn 0.3204 -0.6543 0.6850
vn 0.8364 -0.2664 -0.4790
vn 0.6246 -0.6185 -0.4768
vn 0.6738 -0.7385 -0.0238
vn 0.8913 0.4519 0.0365
vn 0.9410 -0.3384 -0.0103
vn 0.8201 -0.3298 0.4677
vn 0.5733 -0.6946 0.4345
vn 0.8424 0.4176 0.3406
vn -0.4577 0.3572 -0.8142
vn -0.4536 0.4869 -0.7464
vn -0.4577 0.3571 -0.8142
vn -0.4519 0.2198 -0.8646
vn 0.6005 0.7922 -0.1092
vn 0.4620 -0.8703 0.1708
vn 0.1153 -0.8939 0.4331
vn 0.3389 -0.9379 -0.0746
vn 0.4173 -0.8420 -0.3419
vn 0.0445 -0.8631 -0.5031
vn -0.9101 -0.2126 -0.3556
vn -0.9508 0.1122 -0.2887
vn -0.7608 -0.5197 -0.3888
vn 0.2901 0.0422 -0.9561
vn 0.0851 0.1298 -0.9879
vn 0.4552 0.2900 0.8419
vn 0.0842 0.7798 0.6204
vn 0.8346 -0.0689 -0.5465
vn 0.8347 -0.0689 -0.5464
vn 0.6121 -0.0674 -0.7879
vn 0.9749 0.0698 -0.2113
vn 0.8211 -0.0470 -0.5688
vn 0.4228 -0.0050 -0.9062
vn 0.7777 -0.1128 -0.6184
vn 0.9535 -0.2842 0.1006
vn 0.9905 0.0184 0.1359
vn 0.6975 0.3509 0.6248
vn 0.2866 0.5594 0.7778
vn -0.3603 0.7439 0.5628
vn -0.0195 0.5777 0.8160
vn 0.7106 0.4386 0.5502
vn -0.0494 0.5417 0.8391
vn 0.5975 -0.3734 0.7096
vn -0.7515 -0.5121 -0.4159
vn -0.8065 -0.4958 -0.3220
vn -0.9106 -0.4069 -0.0728
vn -0.4011 0.5066 0.7632
vn -0.6808 0.5819 0.4448
vn -0.6571 0.2963 0.6931
vn -0.9342 0.2858 0.2135
vn -0.6628 0.3095 0.6819
vn -0.0501 0.1083 0.9929
vn 0.6699 -0.0315 0.7418
vn -0.9026 -0.3352 -0.2701
vn -0.7366 -0.4790 -0.4775
vn -0.8287 -0.0025 -0.5597
vn -0.9591 0.2703 -0.0846
vn -0.7664 0.0035 0.6423
vn -0.1423 -0.2620 0.9545
vn -0.9268 0.1538 0.3427
vn -0.7432 0.1554 -0.6507
vn -0.7433 0.1554 -0.6507
vn 0.7068 -0.3454 0.6174
vn 0.7943 -0.2978 0.5296
vt 0.854265 0.906065
vt 0.909308 0.882123
vt 0.888697 0.923229
vt 0.404669 0.935764
vt 0.419285 0.972586
vt 0.446319 0.936814
vt 0.797010 0.916841
vt 0.791263 0.884532
vt 0.069577 0.807573
vt 0.080962 0.765026
vt 0.065757 0.874965
vt 0.253885 0.045905
vt 0.243716 0.101088
vt 0.248123 0.072185
vt 0.265149 0.938099
vt 0.292207 0.975577
vt 0.245843 0.975913
vt 0.353394 0.938218
vt 0.416202 0.977774
vt 0.485932 0.938218
vt 0.263473 0.973484
vt 0.285686 0.936662
vt 0.263473 0.936662
vt 0.365437 0.939323
vt 0.289989 0.977774
vt 0.253142 0.937743
vt 0.440091 0.977774
vt 0.290499 0.977774
vt 0.253757 0.938218
vt 0.489053 0.940170
vt 0.360803 0.973531
vt 0.360019 0.935764
vt 0.032818 0.871194
vt 0.001757 0.867702
vt 0.002164 0.805097
vt 0.002852 0.987448
vt 0.034744 0.981296
vt 0.064490 0.985675
vt 0.033551 0.827853
vt 0.008598 0.796068
vt 0.002411 0.767003
vt 0.813366 0.908491
vt 0.859369 0.906003
vt 0.910136 0.856273
vt 0.777757 0.859884
vt 0.910469 0.728505
vt 0.785277 0.732032
vt 0.865972 0.640319
vt 0.820168 0.644411
vt 0.783976 0.757661
vt 0.915380 0.757928
vt 0.813766 0.664664
vt 0.887523 0.664327
vt 0.687945 0.050693
vt 0.696466 0.071833
vt 0.700377 0.098534
vt 0.230789 0.168861
vt 0.238671 0.246681
vt 0.230789 0.210661
vt 0.230789 0.282284
vt 0.230789 0.306325
vt 0.230789 0.322976
vt 0.407937 0.973227
vt 0.470767 0.973227
vt 0.453609 0.956670
vt 0.407937 0.940113
vt 0.349228 0.937428
vt 0.349228 0.973227
vt 0.294767 0.973484
vt 0.338998 0.938218
vt 0.467750 0.938218
vt 0.443360 0.977774
vt 0.255435 0.977774
vt 0.255435 0.938218
vt 0.307188 0.937763
vt 0.640248 0.930529
vt 0.613635 0.934665
vt 0.613635 0.981639
vt 0.639250 0.982145
vt 0.669535 0.982145
vt 0.671325 0.931477
vt 0.749574 0.982145
vt 0.733380 0.931158
vt 0.821326 0.982145
vt 0.815718 0.929534
vt 0.878366 0.982145
vt 0.882743 0.931883
vt 0.683277 0.981892
vt 0.685396 0.944936
vt 0.488187 0.981639
vt 0.488050 0.957988
vt 0.520098 0.943749
vt 0.518371 0.981639
vt 0.160444 0.141967
vt 0.204713 0.144133
vt 0.210460 0.071515
vt 0.137202 0.040044
vt 0.116174 0.139801
vt 0.662883 0.360075
vt 0.703476 0.360075
vt 0.594993 0.005751
vt 0.592253 0.065622
vt 0.662883 0.014691
vt 0.662883 0.067622
vt 0.578775 0.360075
vt 0.545511 0.360075
vt 0.543607 0.064575
vt 0.506801 0.360075
vt 0.472678 0.059178
vt 0.468091 0.360075
vt 0.391588 0.061436
vt 0.391588 0.360075
vt 0.318583 0.069636
vt 0.329727 0.360075
vt 0.286984 0.360075
vt 0.286984 0.072218
vt 0.242940 0.360075
vt 0.286984 0.012401
vt 0.318583 0.007226
vt 0.391588 0.008293
vt 0.472678 0.007600
vt 0.543227 0.007600
vt 0.623413 0.372311
vt 0.688173 0.376498
vt 0.697830 0.574043
vt 0.479628 0.912799
vt 0.411035 0.912799
vt 0.481114 0.884622
vt 0.459889 0.767943
vt 0.434652 0.372311
vt 0.470072 0.372311
vt 0.541951 0.372311
vt 0.518501 0.770420
vt 0.668315 0.768887
vt 0.754342 0.577141
vt 0.738925 0.467113
vt 0.737383 0.418173
vt 0.562880 0.884622
vt 0.571521 0.912799
vt 0.509373 0.912799
vt 0.680075 0.884622
vt 0.629561 0.912799
vt 0.697034 0.901871
vt 0.651646 0.912799
vt 0.742422 0.890943
vt 0.777890 0.602483
vt 0.800158 0.641972
vt 0.167625 0.210661
vt 0.173849 0.168861
vt 0.095780 0.168861
vt 0.018777 0.191115
vt 0.017338 0.301527
vt 0.007268 0.168570
vt 0.007794 0.317249
vt 0.043982 0.349557
vt 0.039068 0.374888
vt 0.087241 0.356094
vt 0.100758 0.322976
vt 0.074215 0.282284
vt 0.074017 0.210661
vt 0.042980 0.140577
vt 0.035312 0.124469
vt 0.090032 0.136552
vt 0.168519 0.282284
vt 0.175609 0.322976
vt 0.964815 0.004059
vt 0.998563 0.092356
vt 0.980444 0.013569
vt 0.966108 0.155609
vt 0.998563 0.155609
vt 0.998563 0.301747
vt 0.918485 0.517588
vt 0.918777 0.217967
vt 0.918777 0.761133
vt 0.970274 0.301747
vt 0.971421 0.464068
vt 0.980181 0.910844
vt 0.997835 0.848123
vt 0.964815 0.926064
vt 0.966403 0.848123
vt 0.968147 0.703425
vt 0.968679 0.606048
vt 0.998563 0.464068
vt 0.998563 0.708911
vt 0.998563 0.605289
vt 0.209915 0.322976
vt 0.167459 0.282284
vt 0.074440 0.282284
vt 0.165681 0.210661
vt 0.075297 0.210661
vt 0.033590 0.127177
vt 0.168992 0.282284
vt 0.204493 0.329335
vt 0.074633 0.282284
vt 0.033323 0.127596
vt 0.074210 0.210661
vt 0.169255 0.210661
vt 0.038519 0.829888
vt 0.014785 0.825134
vt 0.076793 0.282284
vt 0.075948 0.210661
vt 0.166724 0.210661
vt 0.166467 0.282284
vt 0.033674 0.127044
vt 0.151581 0.630619
vt 0.311439 0.867137
vt 0.294869 0.911105
vt 0.235979 0.956020
vt 0.167329 0.983492
vt 0.122227 0.968315
vt 0.368410 0.380855
vt 0.360475 0.746024
vt 0.332649 0.374827
vt 0.395737 0.866584
vt 0.181872 0.523056
vt 0.078097 0.604585
vt 0.097799 0.695290
vt 0.067259 0.936948
vt 0.002843 0.633009
vt 0.037513 0.483086
vt 0.039605 0.717366
vt 0.176818 0.356861
vt 0.112682 0.349172
vt 0.079189 0.750952
vt 0.089035 0.729591
vt 0.055223 0.741460
vt 0.274817 0.975051
vt 0.430718 0.936698
vt 0.460176 0.972841
vt 0.274421 0.938696
vt 0.238102 0.975956
vt 0.910057 0.171238
vt 0.910911 0.089559
vt 0.875837 0.022982
vt 0.914172 0.376786
vt 0.913606 0.346132
vt 0.898039 0.358180
vt 0.910311 0.325419
vt 0.883135 0.340545
vt 0.904256 0.171310
vt 0.872947 0.028277
vt 0.892897 0.497430
vt 0.859665 0.340047
vt 0.750155 0.351346
vt 0.754327 0.319675
vt 0.736211 0.151877
vt 0.738477 0.184143
vt 0.780753 0.334706
vt 0.766644 0.350011
vt 0.769593 0.492580
vt 0.754453 0.489273
vt 0.801576 0.585145
vt 0.798909 0.622595
vt 0.868810 0.623113
vt 0.802025 0.491718
vt 0.783604 0.007398
vt 0.862117 0.200583
vt 0.844235 0.101601
vt 0.789921 0.101935
vt 0.747175 0.052385
vt 0.777118 0.205112
vt 0.802868 0.335131
vt 0.858822 0.496634
vt 0.858373 0.592237
vt 0.908429 0.508747
s 1
usemtl V_Gravity_Glove_b
f 924/1/1 923/2/1 922/3/1
f 921/4/2 920/5/3 919/6/4
f 918/1/5 917/7/5 916/8/5
f 915/9/6 914/10/7 913/11/8
f 912/1/9 911/7/10 910/8/11
f 909/12/12 908/13/13 907/14/14
f 906/15/15 905/16/16 904/17/15
f 903/18/17 902/19/18 901/20/18
f 900/21/19 899/22/19 898/23/19
f 897/2/20 896/3/20 895/1/20
f 894/9/21 893/10/22 892/11/23
f 891/24/24 890/25/25 889/26/25
f 888/24/26 887/27/26 886/25/26
f 883/18/27 884/28/3 885/19/28
f 884/28/3 883/18/27 882/29/4
f 881/1/29 880/2/29 879/3/29
f 878/24/30 877/30/31 876/27/31
f 875/3/32 871/1/33 874/2/34
f 873/7/35 872/8/36 871/1/37
f 868/4/38 869/31/38 870/5/39
f 869/31/38 868/4/38 867/32/40
f 859/33/41 866/34/42 858/35/43
f 865/36/44 866/34/42 859/33/41
f 864/37/45 865/36/44 859/33/41
f 863/38/46 864/37/45 859/33/41
f 862/11/47 863/38/46 859/33/41
f 862/11/47 859/33/41 861/9/48
f 859/33/41 860/39/49 861/9/48
f 860/39/49 859/33/41 858/35/43
f 857/9/50 856/10/51 855/11/52
f 854/8/53 853/1/54 852/7/54
f 851/40/55 850/41/56 849/34/57
f 847/42/58 848/43/59 846/44/60
f 845/45/61 847/42/58 846/44/60
f 845/45/61 846/44/60 844/46/62
f 841/47/63 845/45/61 844/46/62
f 844/46/62 843/48/64 841/47/63
f 843/48/64 842/49/64 841/47/63
f 840/1/65 839/8/66 838/2/67
f 838/2/67 839/8/66 837/50/68
f 835/51/69 838/2/67 837/50/68
f 835/51/69 837/50/68 834/52/70
f 836/53/71 835/51/69 834/52/70
f 833/1/72 832/2/73 831/8/74
f 832/2/73 830/51/75 831/8/74
f 830/51/75 827/50/75 831/8/74
f 830/51/75 829/53/76 827/50/75
f 829/53/76 828/52/77 827/50/75
f 826/54/78 825/55/79 824/56/80
f 823/57/81 820/58/82 822/59/83
f 822/59/83 820/58/82 821/60/84
f 821/60/84 820/58/82 819/61/85
f 817/59/86 816/58/87 818/57/88
f 816/58/87 817/59/86 815/60/89
f 816/58/87 815/60/89 814/62/90
f 813/48/91 811/46/92 812/49/93
f 811/46/92 810/47/94 812/49/93
f 810/47/94 811/46/92 809/44/95
f 807/45/96 810/47/94 809/44/95
f 807/45/96 809/44/95 806/43/97
f 808/42/97 807/45/96 806/43/97
f 805/54/98 804/56/99 803/55/100
f 802/37/101 801/38/102 798/33/103
f 801/38/102 800/11/103 798/33/103
f 798/33/103 800/11/103 797/9/104
f 799/39/104 798/33/103 797/9/104
f 796/1/105 795/2/106 794/8/107
f 794/8/107 795/2/106 793/51/108
f 790/50/108 794/8/107 793/51/108
f 793/51/108 792/53/109 790/50/108
f 792/53/109 791/52/109 790/50/108
f 789/38/54 788/37/110 784/11/111
f 788/37/110 787/33/111 784/11/111
f 787/33/111 786/39/112 784/11/111
f 786/39/112 785/9/113 784/11/111
f 783/10/114 782/39/114 778/11/115
f 782/39/114 781/33/115 778/11/115
f 781/33/115 780/37/116 778/11/115
f 780/37/116 779/38/116 778/11/115
f 772/63/117 777/64/118 776/65/119
f 776/65/119 775/66/120 772/63/117
f 775/66/120 774/67/121 772/63/117
f 774/67/121 773/68/121 772/63/117
f 770/32/122 771/31/123 768/69/124
f 768/69/124 769/22/125 770/32/122
f 769/22/125 768/69/124 767/21/126
f 766/1/127 765/2/128 764/8/128
f 765/2/128 763/51/129 764/8/128
f 763/51/129 760/50/129 764/8/128
f 763/51/129 762/53/130 760/50/129
f 762/53/130 761/52/130 760/50/129
f 757/70/131 759/71/132 758/72/133
f 757/70/131 758/72/133 756/73/134
f 757/70/131 756/73/134 755/74/135
f 754/8/136 753/7/101 752/1/101
f 751/67/137 749/66/138 750/68/137
f 749/66/138 748/63/139 750/68/137
f 747/65/140 748/63/139 749/66/138
f 748/63/139 747/65/140 746/64/141
f 745/1/142 744/2/143 743/8/143
f 744/2/143 742/51/144 743/8/143
f 742/51/144 739/50/145 743/8/143
f 742/51/144 741/53/146 739/50/145
f 741/53/146 740/52/146 739/50/145
f 737/68/147 736/75/148 738/67/149
f 736/75/148 737/68/147 735/16/150
f 736/75/148 735/16/150 734/15/151
f 733/24/152 732/27/153 731/30/153
f 727/76/154 730/77/155 729/78/155
f 728/79/154 727/76/154 729/78/155
f 727/76/154 728/79/154 726/80/156
f 725/81/156 727/76/154 726/80/156
f 725/81/156 726/80/156 724/82/157
f 723/83/157 725/81/156 724/82/157
f 723/83/157 724/82/157 722/84/158
f 721/85/158 723/83/157 722/84/158
f 722/84/158 720/86/159 721/85/158
f 720/86/159 719/87/159 721/85/158
f 719/87/159 720/86/159 718/88/160
f 717/89/161 719/87/159 718/88/160
f 718/88/160 715/90/162 717/89/161
f 715/90/162 716/91/163 717/89/161
f 716/91/163 715/90/162 711/92/164
f 715/90/162 714/93/164 711/92/164
f 714/93/164 713/78/165 711/92/164
f 713/78/165 712/77/165 711/92/164
f 706/94/166 710/95/167 709/96/168
f 709/96/168 708/97/169 706/94/166
f 708/97/169 707/98/170 706/94/166
f 700/99/171 705/100/172 702/56/173
f 679/101/174 680/102/175 704/103/176
f 680/102/175 701/104/177 704/103/176
f 703/54/178 704/103/176 701/104/177
f 702/56/173 703/54/178 701/104/177
f 701/104/177 700/99/171 702/56/173
f 701/104/177 680/102/175 700/99/171
f 680/102/175 699/105/179 700/99/171
f 698/106/180 699/105/179 680/102/175
f 678/107/181 698/106/180 680/102/175
f 697/108/182 698/106/180 678/107/181
f 697/108/182 678/107/181 682/109/183
f 682/109/183 696/110/184 697/108/182
f 682/109/183 685/111/185 696/110/184
f 685/111/185 695/112/186 696/110/184
f 695/112/186 685/111/185 687/113/187
f 694/114/188 695/112/186 687/113/187
f 694/114/188 687/113/187 692/115/189
f 687/113/187 689/116/190 692/115/189
f 691/13/191 693/117/192 692/115/189
f 691/13/191 692/115/189 689/116/190
f 691/13/191 689/116/190 690/12/193
f 688/118/194 690/12/193 689/116/190
f 688/118/194 689/116/190 687/113/187
f 687/113/187 686/119/195 688/118/194
f 686/119/195 687/113/187 685/111/185
f 684/120/196 686/119/195 685/111/185
f 685/111/185 682/109/183 684/120/196
f 682/109/183 683/121/197 684/120/196
f 681/122/198 683/121/197 682/109/183
f 678/107/181 681/122/198 682/109/183
f 679/101/174 681/122/198 678/107/181
f 680/102/175 679/101/174 678/107/181
f 677/24/199 676/25/199 675/27/199
f 674/78/200 671/93/201 673/77/200
f 671/93/201 672/92/201 673/77/200
f 669/91/202 672/92/201 671/93/201
f 670/90/203 669/91/202 671/93/201
f 670/90/203 668/88/204 669/91/202
f 668/88/204 667/89/205 669/91/202
f 667/89/205 668/88/204 666/86/206
f 665/87/207 667/89/205 666/86/206
f 666/86/206 664/84/208 665/87/207
f 664/84/208 663/85/209 665/87/207
f 663/85/209 664/84/208 662/82/210
f 661/83/211 663/85/209 662/82/210
f 661/83/211 662/82/210 660/80/212
f 659/81/212 661/83/211 660/80/212
f 659/81/212 660/80/212 657/79/213
f 658/76/214 659/81/212 657/79/213
f 658/76/214 657/79/213 655/77/215
f 657/79/213 656/78/215 655/77/215
f 654/9/216 653/11/217 652/10/218
f 646/123/219 644/124/220 645/125/221
f 651/126/222 650/127/223 637/128/224
f 636/129/225 637/128/224 650/127/223
f 636/129/225 650/127/223 649/130/226
f 636/129/225 649/130/226 648/131/227
f 647/132/228 636/129/225 648/131/227
f 647/132/228 628/133/229 636/129/225
f 647/132/228 646/123/219 628/133/229
f 646/123/219 627/134/230 628/133/229
f 627/134/230 646/123/219 645/125/221
f 630/135/231 627/134/230 645/125/221
f 645/125/221 642/136/232 630/135/231
f 644/124/220 642/136/232 645/125/221
f 644/124/220 643/137/233 642/136/232
f 638/138/234 639/139/235 637/128/224
f 637/128/224 639/139/235 641/140/236
f 629/141/237 640/142/238 639/139/235
f 639/139/235 638/138/234 629/141/237
f 638/138/234 628/133/229 629/141/237
f 628/133/229 638/138/234 637/128/224
f 637/128/224 636/129/225 628/133/229
f 634/143/239 635/144/240 629/141/237
f 634/143/239 629/141/237 631/145/241
f 631/145/241 632/146/242 633/147/243
f 632/146/242 631/145/241 630/135/231
f 629/141/237 630/135/231 631/145/241
f 630/135/231 629/141/237 627/134/230
f 629/141/237 628/133/229 627/134/230
f 626/21/244 625/23/244 624/22/244
f 620/132/245 623/131/246 619/129/247
f 619/129/247 623/131/246 622/130/248
f 619/129/247 622/130/248 617/127/249
f 621/123/250 613/125/251 615/124/167
f 612/134/252 613/125/251 621/123/250
f 621/123/250 620/132/245 612/134/252
f 620/132/245 611/133/253 612/134/252
f 620/132/245 619/129/247 611/133/253
f 610/128/254 611/133/253 619/129/247
f 619/129/247 617/127/249 610/128/254
f 618/126/255 610/128/254 617/127/249
f 615/124/167 614/136/256 616/137/257
f 615/124/167 613/125/251 614/136/256
f 613/125/251 602/135/258 614/136/256
f 602/135/258 613/125/251 612/134/252
f 602/135/258 612/134/252 603/141/259
f 603/141/259 612/134/252 611/133/253
f 606/138/260 603/141/259 611/133/253
f 611/133/253 610/128/254 606/138/260
f 606/138/260 610/128/254 607/139/261
f 610/128/254 609/140/262 607/139/261
f 603/141/259 607/139/261 608/142/263
f 607/139/261 603/141/259 606/138/260
f 604/143/264 603/141/259 605/144/265
f 604/143/264 601/145/266 603/141/259
f 603/141/259 601/145/266 602/135/258
f 599/146/267 602/135/258 601/145/266
f 601/145/266 600/147/268 599/146/267
f 598/15/269 597/17/270 596/16/271
f 595/59/272 579/148/273 594/57/274
f 579/148/273 593/149/275 594/57/274
f 579/148/273 581/150/276 593/149/275
f 586/151/277 587/152/278 592/153/279
f 587/152/278 591/154/280 592/153/279
f 587/152/278 588/155/281 591/154/280
f 588/155/281 589/156/282 591/154/280
f 590/157/283 589/156/282 572/158/284
f 589/156/282 588/155/281 572/158/284
f 571/159/285 572/158/284 588/155/281
f 571/159/285 588/155/281 587/152/278
f 571/159/285 587/152/278 580/160/286
f 587/152/278 586/151/277 580/160/286
f 582/161/287 580/160/286 586/151/277
f 582/161/287 586/151/277 585/153/288
f 584/162/289 582/161/287 585/153/288
f 582/161/287 584/162/289 583/163/290
f 581/150/276 582/161/287 583/163/290
f 580/160/286 582/161/287 581/150/276
f 581/150/276 579/148/273 580/160/286
f 580/160/286 579/148/273 571/159/285
f 579/148/273 576/164/291 571/159/285
f 579/148/273 578/59/292 576/164/291
f 578/59/292 577/60/293 576/164/291
f 575/62/294 573/165/295 574/60/296
f 573/165/295 570/164/297 574/60/296
f 573/165/295 572/158/284 570/164/297
f 572/158/284 571/159/285 570/164/297
f 569/1/298 568/8/299 567/7/300
f 566/7/301 562/1/302 565/8/303
f 564/3/304 563/2/305 562/1/306
f 559/70/307 560/72/308 561/71/309
f 559/70/307 557/73/310 560/72/308
f 559/70/307 558/74/311 557/73/310
f 555/32/312 552/69/313 556/31/314
f 552/69/313 555/32/312 554/22/315
f 554/22/315 553/21/316 552/69/313
f 551/1/317 550/8/317 549/7/317
f 547/68/318 548/67/319 546/75/320
f 546/75/320 544/16/321 547/68/318
f 546/75/320 545/15/322 544/16/321
f 543/37/323 542/36/323 541/33/324
f 542/36/323 538/34/324 541/33/324
f 539/39/325 541/33/324 538/34/324
f 540/41/326 539/39/325 538/34/324
f 536/59/327 537/57/328 535/149/329
f 525/148/330 536/59/327 535/149/329
f 525/148/330 535/149/329 527/150/331
f 527/150/331 534/163/332 529/162/333
f 533/59/334 525/148/330 532/60/335
f 525/148/330 531/164/336 532/60/335
f 525/148/330 526/160/337 531/164/336
f 526/160/337 516/159/338 531/164/336
f 516/159/338 526/160/337 514/151/339
f 528/161/340 514/151/339 526/160/337
f 528/161/340 530/153/341 514/151/339
f 529/162/333 530/153/341 528/161/340
f 528/161/340 527/150/331 529/162/333
f 526/160/337 527/150/331 528/161/340
f 527/150/331 526/160/337 525/148/330
f 523/62/342 524/60/343 522/164/344
f 521/165/57 523/62/342 522/164/344
f 521/165/57 522/164/344 516/159/338
f 520/158/345 521/165/57 516/159/338
f 516/159/338 517/155/346 520/158/345
f 519/157/347 520/158/345 517/155/346
f 518/156/348 519/157/347 517/155/346
f 517/155/346 512/154/349 518/156/348
f 515/152/350 512/154/349 517/155/346
f 516/159/338 515/152/350 517/155/346
f 515/152/350 516/159/338 514/151/339
f 515/152/350 514/151/339 512/154/349
f 514/151/339 513/153/351 512/154/349
f 511/36/352 510/37/352 509/34/353
f 510/37/352 506/33/353 509/34/353
f 507/41/354 509/34/353 506/33/353
f 508/39/354 507/41/354 506/33/353
f 505/1/355 504/3/355 503/2/355
f 501/166/356 500/167/357 502/168/358
f 500/167/357 501/166/356 487/169/359
f 500/167/357 487/169/359 499/170/360
f 499/170/360 487/169/359 491/171/361
f 493/172/362 498/173/363 494/174/364
f 488/173/365 493/172/362 490/175/366
f 493/172/362 492/176/367 490/175/366
f 497/177/368 486/178/369 496/179/79
f 486/178/369 485/180/370 496/179/79
f 485/180/370 495/173/371 496/179/79
f 485/180/370 494/174/364 495/173/371
f 485/180/370 483/181/372 494/174/364
f 493/172/362 494/174/364 483/181/372
f 480/182/373 493/172/362 483/181/372
f 493/172/362 480/182/373 492/176/367
f 481/183/374 492/176/367 480/182/373
f 481/183/374 491/171/361 492/176/367
f 491/171/361 490/175/366 492/176/367
f 487/169/359 490/175/366 491/171/361
f 488/173/365 490/175/366 487/169/359
f 489/179/356 488/173/365 487/169/359
f 485/180/370 486/178/369 484/184/375
f 483/181/372 485/180/370 484/184/375
f 483/181/372 484/184/375 482/185/376
f 480/182/373 483/181/372 482/185/376
f 482/185/376 481/183/374 480/182/373
f 472/158/377 479/157/378 471/155/379
f 479/157/378 478/156/380 471/155/379
f 471/155/379 478/156/380 470/154/381
f 476/61/382 477/186/382 474/165/383
f 475/60/382 476/61/382 474/165/383
f 473/187/383 475/60/382 474/165/383
f 474/165/383 472/158/377 473/187/383
f 472/158/377 456/188/384 473/187/383
f 456/188/384 472/158/377 471/155/379
f 458/152/385 456/188/384 471/155/379
f 458/152/385 471/155/379 470/154/381
f 458/152/385 470/154/381 460/153/386
f 468/57/387 469/59/388 466/189/389
f 467/149/390 468/57/387 466/189/389
f 466/189/389 465/150/391 467/149/390
f 465/150/391 466/189/389 457/190/392
f 465/150/391 457/190/392 461/161/393
f 461/161/393 457/190/392 459/151/394
f 464/162/395 461/161/393 463/163/396
f 461/161/393 462/191/397 463/163/396
f 462/191/397 461/161/393 460/153/386
f 461/161/393 459/151/394 460/153/386
f 459/151/394 458/152/385 460/153/386
f 459/151/394 457/190/392 458/152/385
f 457/190/392 456/188/384 458/152/385
f 456/188/384 457/190/392 454/189/398
f 455/187/398 456/188/384 454/189/398
f 455/187/398 454/189/398 452/60/399
f 454/189/398 453/59/399 452/60/399
f 447/192/400 451/60/401 449/62/402
f 448/165/403 449/62/402 450/193/404
f 448/165/403 447/192/400 449/62/402
f 448/165/403 443/158/405 447/192/400
f 443/158/405 424/194/406 447/192/400
f 424/194/406 443/158/405 423/155/407
f 438/150/408 439/161/409 446/163/410
f 439/161/409 445/195/411 446/163/410
f 445/195/411 439/161/409 440/153/412
f 444/157/413 442/156/414 443/158/405
f 442/156/414 423/155/407 443/158/405
f 423/155/407 442/156/414 441/154/415
f 422/152/416 423/155/407 441/154/415
f 422/152/416 441/154/415 440/153/412
f 432/151/417 422/152/416 440/153/412
f 439/161/409 432/151/417 440/153/412
f 439/161/409 425/196/418 432/151/417
f 425/196/418 439/161/409 438/150/408
f 438/150/408 437/197/419 425/196/418
f 437/197/419 438/150/408 436/149/52
f 437/197/419 436/149/52 434/59/420
f 436/149/52 435/57/51 434/59/420
f 428/60/421 430/58/422 433/62/423
f 422/152/416 432/151/417 425/196/418
f 430/58/422 429/59/424 431/57/425
f 430/58/422 428/60/421 429/59/424
f 426/197/426 429/59/424 428/60/421
f 427/192/426 426/197/426 428/60/421
f 426/197/426 427/192/426 424/194/406
f 425/196/418 426/197/426 424/194/406
f 424/194/406 422/152/416 425/196/418
f 424/194/406 423/155/407 422/152/416
f 414/198/427 421/9/428 416/33/429
f 421/9/428 420/11/430 416/33/429
f 416/33/429 420/11/430 419/38/431
f 418/37/432 416/33/429 419/38/431
f 418/37/432 417/36/433 416/33/429
f 417/36/433 413/34/434 416/33/429
f 414/198/427 416/33/429 413/34/434
f 415/199/435 414/198/427 413/34/434
f 411/99/436 395/56/437 412/100/438
f 397/104/439 395/56/437 411/99/436
f 397/104/439 411/99/436 400/105/440
f 398/101/441 399/102/442 410/122/443
f 399/102/442 401/107/444 410/122/443
f 410/122/443 401/107/444 409/121/445
f 401/107/444 404/109/446 409/121/445
f 404/109/446 407/111/447 409/121/445
f 407/111/447 408/120/448 409/121/445
f 393/119/449 408/120/448 388/113/450
f 408/120/448 407/111/447 388/113/450
f 387/114/451 388/113/450 407/111/447
f 406/112/452 387/114/451 407/111/447
f 407/111/447 404/109/446 406/112/452
f 404/109/446 405/110/453 406/112/452
f 404/109/446 403/108/454 405/110/453
f 403/108/454 404/109/446 401/107/444
f 403/108/454 401/107/444 402/106/455
f 402/106/455 401/107/444 400/105/440
f 401/107/444 399/102/442 400/105/440
f 399/102/442 397/104/439 400/105/440
f 399/102/442 398/101/441 397/104/439
f 398/101/441 394/103/456 397/104/439
f 395/56/437 397/104/439 394/103/456
f 396/54/457 395/56/437 394/103/456
f 388/113/450 392/118/458 393/119/449
f 392/118/458 388/113/450 385/116/459
f 392/118/458 385/116/459 391/12/460
f 390/13/461 391/12/460 385/116/459
f 390/13/461 385/116/459 386/115/462
f 390/13/461 386/115/462 389/117/438
f 388/113/450 387/114/451 385/116/459
f 387/114/451 386/115/462 385/116/459
f 380/58/463 381/59/464 384/57/465
f 369/155/466 367/152/467 373/200/468
f 373/200/468 367/152/467 366/151/469
f 365/201/470 373/200/468 366/151/469
f 365/201/470 383/202/471 373/200/468
f 383/202/471 382/203/471 373/200/468
f 382/203/471 383/202/471 381/59/464
f 378/60/472 382/203/471 381/59/464
f 380/58/463 378/60/472 381/59/464
f 380/58/463 379/62/473 378/60/472
f 374/203/474 377/60/475 376/62/475
f 375/165/474 374/203/474 376/62/475
f 375/165/474 372/158/476 374/203/474
f 372/158/476 373/200/468 374/203/474
f 369/155/466 373/200/468 372/158/476
f 369/155/466 372/158/476 371/157/477
f 370/156/478 369/155/466 371/157/477
f 369/155/466 370/156/478 368/154/479
f 367/152/467 369/155/466 368/154/479
f 368/154/479 356/153/480 367/152/467
f 356/153/480 366/151/469 367/152/467
f 357/161/481 366/151/469 356/153/480
f 357/161/481 365/201/470 366/151/469
f 365/201/470 357/161/481 360/150/482
f 361/202/483 365/201/470 360/150/482
f 364/149/484 361/202/483 360/150/482
f 364/149/484 363/57/22 361/202/483
f 363/57/22 362/59/485 361/202/483
f 360/150/482 357/161/481 359/163/486
f 357/161/481 358/204/487 359/163/486
f 358/204/487 357/161/481 356/153/480
f 348/205/488 349/206/489 355/207/490
f 348/205/488 355/207/490 354/208/491
f 348/205/488 354/208/491 353/209/492
f 348/205/488 353/209/492 346/210/493
f 351/211/494 332/212/495 352/213/496
f 332/212/495 351/211/494 350/214/497
f 350/214/497 349/206/489 332/212/495
f 348/205/488 332/212/495 349/206/489
f 335/215/498 332/212/495 348/205/488
f 348/205/488 337/216/499 335/215/498
f 348/205/488 347/217/500 337/216/499
f 347/217/500 348/205/488 346/210/493
f 347/217/500 346/210/493 345/218/501
f 344/219/502 336/220/503 338/221/504
f 334/222/505 336/220/503 343/223/506
f 341/224/507 340/217/508 342/225/509
f 340/217/508 341/224/507 339/226/510
f 339/226/510 337/216/499 340/217/508
f 339/226/510 338/221/504 337/216/499
f 336/220/503 337/216/499 338/221/504
f 336/220/503 335/215/498 337/216/499
f 336/220/503 334/222/505 335/215/498
f 335/215/498 334/222/505 332/212/495
f 334/222/505 333/213/511 332/212/495
f 331/4/512 330/6/513 329/5/514
f 328/53/515 326/51/516 327/52/515
f 326/51/516 325/50/516 327/52/515
f 326/51/516 322/2/517 325/50/516
f 322/2/517 323/8/517 325/50/516
f 324/1/518 323/8/517 322/2/517
f 321/9/519 320/11/520 319/10/521
f 317/59/522 318/57/523 316/58/524
f 316/58/524 314/60/525 317/59/522
f 316/58/524 315/62/526 314/60/525
f 313/53/527 311/51/528 312/52/527
f 311/51/528 310/50/528 312/52/527
f 310/50/528 311/51/528 307/2/529
f 308/8/530 310/50/528 307/2/529
f 309/1/531 308/8/530 307/2/529
f 306/37/532 305/36/532 304/33/533
f 305/36/532 301/34/533 304/33/533
f 302/39/534 304/33/533 301/34/533
f 303/40/534 302/39/534 301/34/533
f 300/37/535 295/33/536 299/38/537
f 295/33/536 298/11/536 299/38/537
f 296/10/538 298/11/536 295/33/536
f 297/39/539 296/10/538 295/33/536
f 294/53/540 292/51/541 293/52/540
f 292/51/541 291/50/541 293/52/540
f 292/51/541 288/2/542 291/50/541
f 288/2/542 289/8/542 291/50/541
f 290/1/543 289/8/542 288/2/542
f 287/12/544 286/14/545 285/13/546
f 281/227/547 283/228/548 284/229/549
f 281/227/547 282/230/550 283/228/548
f 282/230/550 281/227/547 280/231/551
f 279/97/552 276/96/233 278/98/553
f 276/96/233 277/94/554 278/98/553
f 277/94/554 276/96/233 275/95/220
f 274/18/555 273/20/556 272/19/556
f 267/232/557 271/233/558 264/234/559
f 270/235/560 269/236/561 263/237/562
f 269/236/561 268/238/563 263/237/562
f 268/238/563 262/239/564 263/237/562
f 268/238/563 267/232/557 262/239/564
f 267/232/557 265/240/565 262/239/564
f 267/232/557 264/234/559 265/240/565
f 266/241/566 265/240/565 264/234/559
f 263/237/562 234/242/567 241/235/568
f 234/242/567 263/237/562 262/239/564
f 262/239/564 235/243/569 234/242/567
f 235/243/569 262/239/564 251/240/570
f 261/42/571 257/244/572 258/245/573
f 260/246/574 259/247/574 246/248/575
f 259/247/574 258/245/573 246/248/575
f 253/249/576 246/248/575 258/245/573
f 257/244/572 253/249/576 258/245/573
f 253/249/576 257/244/572 254/250/577
f 257/244/572 256/251/578 254/250/577
f 244/252/579 254/250/577 256/251/578
f 255/253/580 244/252/579 256/251/578
f 244/252/579 255/253/580 243/254/581
f 254/250/577 244/252/579 245/255/582
f 254/250/577 245/255/582 246/248/575
f 254/250/577 246/248/575 253/249/576
f 249/256/257 250/241/583 252/234/169
f 238/257/584 235/243/569 251/240/570
f 238/257/584 251/240/570 250/241/583
f 250/241/583 240/258/585 238/257/584
f 249/256/257 240/258/585 250/241/583
f 240/258/585 249/256/257 239/259/586
f 248/260/256 239/259/586 249/256/257
f 237/261/587 239/259/586 248/260/256
f 247/246/588 237/261/587 248/260/256
f 236/262/589 237/261/587 247/246/588
f 247/246/588 246/248/575 236/262/589
f 245/255/582 236/262/589 246/248/575
f 245/255/582 233/263/590 236/262/589
f 245/255/582 244/252/579 233/263/590
f 244/252/579 232/264/591 233/263/590
f 232/264/591 244/252/579 243/254/581
f 232/264/591 243/254/581 234/242/567
f 243/254/581 242/265/592 234/242/567
f 234/242/567 242/265/592 241/235/568
f 240/258/585 239/259/586 238/257/584
f 239/259/586 237/261/587 238/257/584
f 235/243/569 238/257/584 237/261/587
f 235/243/569 237/261/587 236/262/589
f 233/263/590 235/243/569 236/262/589
f 235/243/569 233/263/590 234/242/567
f 234/242/567 233/263/590 232/264/591
f 230/172/593 224/174/594 231/173/595
f 230/172/593 223/182/596 224/174/594
f 230/172/593 221/176/597 223/182/596
f 230/172/593 228/173/598 221/176/597
f 228/173/598 218/175/599 221/176/597
f 228/173/598 216/169/600 218/175/599
f 229/179/601 216/169/600 228/173/598
f 209/178/602 227/177/603 212/180/604
f 227/177/603 226/179/100 212/180/604
f 212/180/604 226/179/100 225/173/605
f 212/180/604 225/173/605 224/174/594
f 212/180/604 224/174/594 211/181/606
f 223/182/596 211/181/606 224/174/594
f 211/181/606 223/182/596 210/184/607
f 223/182/596 222/185/608 210/184/607
f 222/185/608 223/182/596 221/176/597
f 220/183/609 222/185/608 221/176/597
f 220/183/609 221/176/597 218/175/599
f 219/171/610 220/183/609 218/175/599
f 217/170/611 219/171/610 218/175/599
f 216/169/600 217/170/611 218/175/599
f 213/167/612 217/170/611 216/169/600
f 213/167/612 216/169/600 215/166/601
f 215/166/601 214/168/544 213/167/612
f 212/180/604 211/181/606 209/178/602
f 211/181/606 210/184/607 209/178/602
f 206/155/613 205/154/614 207/156/615
f 208/157/616 192/158/617 207/156/615
f 192/158/617 206/155/613 207/156/615
f 193/152/618 206/155/613 192/158/617
f 193/152/618 205/154/614 206/155/613
f 193/152/618 194/151/619 205/154/614
f 194/151/619 204/153/620 205/154/614
f 195/161/621 204/153/620 194/151/619
f 201/191/622 204/153/620 195/161/621
f 195/161/621 203/162/623 201/191/622
f 203/162/623 202/163/624 201/191/622
f 200/57/625 198/149/626 199/59/627
f 198/149/626 197/189/628 199/59/627
f 197/189/628 198/149/626 196/150/629
f 196/150/629 185/190/630 197/189/628
f 196/150/629 195/161/621 185/190/630
f 195/161/621 194/151/619 185/190/630
f 185/190/630 194/151/619 186/188/631
f 194/151/619 193/152/618 186/188/631
f 186/188/631 193/152/618 192/158/617
f 192/158/617 191/165/632 186/188/631
f 191/165/632 190/187/632 186/188/631
f 190/187/632 191/165/632 187/186/633
f 188/60/633 190/187/632 187/186/633
f 189/61/633 188/60/633 187/186/633
f 186/188/631 183/187/634 185/190/630
f 183/187/634 184/189/634 185/190/630
f 184/189/634 183/187/634 181/59/635
f 183/187/634 182/60/635 181/59/635
f 180/2/636 179/1/636 178/3/636
f 171/58/637 177/57/638 174/59/639
f 162/152/640 163/194/641 160/151/642
f 163/194/641 158/196/643 160/151/642
f 158/196/643 163/194/641 175/192/644
f 176/197/645 158/196/643 175/192/644
f 176/197/645 175/192/644 174/59/639
f 175/192/644 173/60/646 174/59/639
f 171/58/637 174/59/639 173/60/646
f 173/60/646 172/62/647 171/58/637
f 169/195/648 161/153/649 159/161/650
f 159/161/650 157/150/651 169/195/648
f 157/150/651 170/163/652 169/195/648
f 164/165/653 168/193/654 167/62/655
f 164/165/653 167/62/655 166/60/656
f 165/192/657 164/165/653 166/60/656
f 164/165/653 165/192/657 163/194/641
f 152/158/658 164/165/653 163/194/641
f 163/194/641 150/155/659 152/158/658
f 163/194/641 162/152/640 150/155/659
f 162/152/640 149/154/660 150/155/659
f 162/152/640 160/151/642 149/154/660
f 160/151/642 161/153/649 149/154/660
f 159/161/650 161/153/649 160/151/642
f 159/161/650 160/151/642 158/196/643
f 158/196/643 157/150/651 159/161/650
f 157/150/651 158/196/643 155/197/661
f 155/197/661 156/149/662 157/150/651
f 156/149/662 155/197/661 153/57/663
f 155/197/661 154/59/664 153/57/663
f 151/157/665 152/158/658 150/155/659
f 148/156/666 151/157/665 150/155/659
f 150/155/659 149/154/660 148/156/666
f 147/57/667 146/59/668 143/58/669
f 146/59/668 145/60/670 143/58/669
f 145/60/670 144/61/671 143/58/669
f 142/24/672 141/26/673 140/25/673
f 139/9/674 138/198/675 131/11/676
f 138/198/675 134/33/677 131/11/676
f 138/198/675 137/199/678 134/33/677
f 137/199/678 135/34/679 134/33/677
f 133/37/680 134/33/677 135/34/679
f 136/36/681 133/37/680 135/34/679
f 134/33/677 133/37/680 131/11/676
f 133/37/680 132/38/682 131/11/676
f 128/58/683 129/60/684 130/62/685
f 111/203/686 129/60/684 112/202/686
f 129/60/684 126/59/687 112/202/686
f 128/58/683 126/59/687 129/60/684
f 128/58/683 127/57/688 126/59/687
f 118/156/689 125/157/690 119/158/691
f 113/204/692 124/153/693 115/161/694
f 115/161/694 124/153/693 116/151/695
f 124/153/693 117/154/696 116/151/695
f 120/165/697 123/62/698 122/60/698
f 121/203/697 120/165/697 122/60/698
f 120/165/697 121/203/697 109/200/699
f 119/158/691 120/165/697 109/200/699
f 110/155/700 119/158/691 109/200/699
f 110/155/700 118/156/689 119/158/691
f 110/155/700 117/154/696 118/156/689
f 108/152/701 117/154/696 110/155/700
f 117/154/696 108/152/701 116/151/695
f 102/201/702 116/151/695 108/152/701
f 115/161/694 116/151/695 102/201/702
f 102/201/702 103/150/703 115/161/694
f 115/161/694 103/150/703 113/204/692
f 103/150/703 114/163/704 113/204/692
f 112/202/686 102/201/702 111/203/686
f 102/201/702 109/200/699 111/203/686
f 109/200/699 102/201/702 108/152/701
f 110/155/700 109/200/699 108/152/701
f 107/57/218 104/149/705 106/59/706
f 104/149/705 105/202/707 106/59/706
f 105/202/707 104/149/705 102/201/702
f 104/149/705 103/150/703 102/201/702
f 100/211/248 101/213/708 95/212/709
f 95/212/709 99/214/710 100/211/248
f 99/214/710 95/212/709 94/206/711
f 97/222/712 98/223/713 82/220/714
f 82/220/714 81/215/715 97/222/712
f 97/222/712 81/215/715 96/213/716
f 81/215/715 95/212/709 96/213/716
f 81/215/715 80/205/717 95/212/709
f 80/205/717 94/206/711 95/212/709
f 80/205/717 93/207/718 94/206/711
f 80/205/717 92/208/719 93/207/718
f 80/205/717 91/209/720 92/208/719
f 80/205/717 89/210/721 91/209/720
f 78/217/722 89/210/721 80/205/717
f 78/217/722 90/218/723 89/210/721
f 87/224/724 88/225/725 86/217/726
f 86/217/726 85/226/727 87/224/724
f 85/226/727 86/217/726 79/216/728
f 85/226/727 79/216/728 84/221/729
f 83/219/730 84/221/729 79/216/728
f 82/220/714 83/219/730 79/216/728
f 82/220/714 79/216/728 81/215/715
f 80/205/717 81/215/715 79/216/728
f 80/205/717 79/216/728 78/217/722
f 77/36/731 76/37/731 75/34/732
f 76/37/731 72/33/732 75/34/732
f 73/40/733 75/34/732 72/33/732
f 74/39/733 73/40/733 72/33/732
f 69/11/734 71/9/735 68/39/736
f 70/38/301 69/11/734 65/37/737
f 69/11/734 64/33/738 65/37/737
f 64/33/738 69/11/734 68/39/736
f 64/33/738 68/39/736 63/34/739
f 68/39/736 67/35/740 63/34/739
f 66/36/741 65/37/737 63/34/739
f 65/37/737 64/33/738 63/34/739
f 59/4/742 62/5/743 61/31/744
f 61/31/744 60/32/745 59/4/742
f 58/1/746 57/3/746 56/2/746
f 54/230/747 55/231/748 53/227/749
f 53/227/749 51/228/750 54/230/747
f 53/227/749 52/229/751 51/228/750
f 47/18/752 50/19/753 49/28/514
f 49/28/514 48/29/754 47/18/752
f 46/9/755 45/11/662 44/10/756
f 36/246/757 35/260/232 34/259/758
f 43/247/759 42/246/760 41/245/761
f 42/246/760 37/248/762 41/245/761
f 38/249/763 41/245/761 37/248/762
f 40/42/764 41/245/761 38/249/763
f 39/244/765 40/42/764 38/249/763
f 39/244/765 38/249/763 33/251/766
f 38/249/763 19/250/767 33/251/766
f 19/250/767 38/249/763 37/248/762
f 19/250/767 37/248/762 17/262/768
f 36/246/757 17/262/768 37/248/762
f 17/262/768 36/246/757 15/261/769
f 15/261/769 36/246/757 34/259/758
f 34/259/758 13/258/770 15/261/769
f 13/258/770 34/259/758 12/256/233
f 35/260/232 12/256/233 34/259/758
f 30/263/771 18/255/772 16/243/773
f 21/253/774 33/251/766 19/250/767
f 27/232/775 28/234/776 32/233/777
f 14/257/778 10/241/779 31/240/780
f 14/257/778 31/240/780 25/239/781
f 16/243/773 14/257/778 25/239/781
f 16/243/773 25/239/781 30/263/771
f 25/239/781 24/242/782 30/263/771
f 24/242/782 22/264/783 30/263/771
f 18/255/772 30/263/771 22/264/783
f 20/252/784 18/255/772 22/264/783
f 29/241/785 28/234/776 26/240/786
f 27/232/775 26/240/786 28/234/776
f 27/232/775 4/238/787 26/240/786
f 4/238/787 25/239/781 26/240/786
f 4/238/787 5/237/788 25/239/781
f 24/242/782 25/239/781 5/237/788
f 24/242/782 5/237/788 8/265/789
f 22/264/783 24/242/782 8/265/789
f 23/254/790 22/264/783 8/265/789
f 22/264/783 23/254/790 21/253/774
f 20/252/784 22/264/783 21/253/774
f 20/252/784 21/253/774 19/250/767
f 19/250/767 18/255/772 20/252/784
f 18/255/772 19/250/767 17/262/768
f 18/255/772 17/262/768 16/243/773
f 16/243/773 17/262/768 15/261/769
f 16/243/773 15/261/769 14/257/778
f 13/258/770 14/257/778 15/261/769
f 10/241/779 14/257/778 13/258/770
f 12/256/233 10/241/779 13/258/770
f 12/256/233 11/234/552 10/241/779
f 5/237/788 9/235/791 8/265/789
f 7/236/792 6/235/793 4/238/787
f 6/235/793 5/237/788 4/238/787
f 3/40/794 2/34/295 1/41/795
