mtllib HAUROB.mtl
o Object_0
v -1726 4754 -4038
v -576 4754 -4038
v 576 4754 -4038
v 1726 4754 -4038
v -1726 4892 -1018
v -576 4892 -1018
v 576 4892 -1018
v 1726 4892 -1018
v -1726 4926 3904
v -576 4926 3904
v 576 4926 3904
v 1726 4926 3904
v -1726 4920 6924
v -576 4920 6924
v 576 4920 6924
v 1726 4920 6924
v -1726 -640 16144
v -576 -640 16144
v 576 -640 16144
v 1726 -640 16144
v -1726 832 15782
v -576 832 12970
v 576 832 12970
v 1726 832 15782
v -1726 2430 15292
v -1726 4364 12964
v -1726 4818 9944
v -576 2430 15292
v -576 4364 12964
v -576 4818 9944
v 576 2430 15292
v 576 4364 12964
v 576 4818 9944
v 1726 2430 15292
v 1726 4364 12964
v 1726 4818 9944
v 1726 3732 14338
v 576 3732 14338
v -576 3732 14338
v -1726 3732 14338
v 576 -2208 16466
v 1726 -2208 16466
v -576 -2208 16466
v -1726 -2208 16466
v 2866 798 -1010
v -2846 798 -1010
v 2866 -674 -1006
v 2866 -664 3914
v 2866 -658 6934
v 2866 -652 9954
v 2866 -646 12974
v -2846 -646 12974
v -2846 -652 9954
v -2846 -658 6934
v -2846 -664 3914
v -2846 -674 -1006
v -2846 826 12972
v 2866 826 12972
v -2846 820 9952
v 2866 820 9952
v -2846 814 6932
v 2866 814 6932
v -2846 808 3912
v 2866 808 3912
v 2866 2392 -4032
v -2846 2392 -4032
v 2866 2398 -1012
v -2846 2398 -1012
v 2866 2408 3908
v -2846 2408 3908
v 2866 2414 6928
v -2846 2414 6928
v 2866 2420 9948
v -2846 2420 9948
v 2866 2426 12968
v -2846 2426 12968
v 2866 3730 12966
v -2846 3730 12966
v -2846 3724 9946
v 2866 3774 9946
v -2846 3718 6926
v 2866 3718 6926
v -2846 3712 3906
v 2866 3712 3906
v -2846 3702 -1016
v 2866 3702 -1016
v -2846 3696 -4036
v 2866 3696 -4036
v -1726 4926 1440
v -576 4926 1440
v 576 4926 1440
v -2846 3708 1442
v 1726 4926 1440
v -2846 2404 1444
v 2866 3708 1442
v 2866 2404 1444
v -2846 804 1448
v 2866 804 1448
v -2846 -670 1450
v 2866 -670 1450
v 2866 -2232 3918
v 2866 -2238 1454
v 2866 4926 1440
v 2866 4926 3904
v 2866 792 -4030
v 2866 -680 -4026
v 2866 4892 -1018
v 2866 4754 -4038
v 2866 -2248 -4024
v 2866 -2242 -1004
v 2866 -2226 6938
v 2866 832 15782
v 2866 2430 15292
v 2866 4920 6924
v 2866 4364 12964
v 2866 4818 9944
v 2866 3732 14338
v 2866 -2220 9958
v 2866 -2214 12978
v 2866 -2208 16466
v 2866 -640 16144
v -2846 -2238 1454
v -2846 -2232 3918
v -2846 4926 3904
v -2846 4926 1440
v -2846 -2242 -1004
v -2846 4892 -1018
v -2846 4754 -4038
v -2846 -2226 6938
v -2846 4920 6924
v -2846 4818 9944
v -2846 4364 12964
v -2846 2430 15292
v -2846 832 15782
v -2846 3732 14338
v -2846 -2214 12978
v -2846 -2220 9958
v -2846 -2248 -4024
v -2846 -680 -4026
v -2846 792 -4030
v -2846 -640 16144
v -2846 -2208 16466
v -576 2430 12964
v 576 2430 12964
v -1726 2430 12964
v -1726 832 12970
v 1726 2430 12964
v 1726 832 12970
v -1726 -640 12964
v -576 -640 12964
v 576 -640 12964
v 1726 -640 12964
vt 0.046875 0.984375
vt 0.359375 0.984375
vt 0.359375 0.671875
vt 0.0625 0.671875
vt 0.0625 0.96875
vt 0.359375 0.96875
vt 0.359375 0.984375
vt 0.046875 0.984375
vt 0.359375 0.984375
vt 0.046875 0.984375
vt 0.0625 0.671875
vt 0.359375 0.625
vt 0.0625 0.96875
vt 0.359375 0.96875
vt 0.359375 0.984375
vt 0.046875 0.984375
vt 0.046875 0.984375
vt 0.359375 0.984375
vt 0.359375 0.671875
vt 0.0625 0.671875
vt 0.046875 0.984375
vt 0.359375 0.984375
vt 0.359375 0.671875
vt 0.0625 0.671875
vt 0.046875 0.984375
vt 0.359375 0.984375
vt 0.359375 0.625
vt 0.0625 0.671875
vt 0.0625 0.96875
vt 0.359375 0.96875
vt 0.359375 0.984375
vt 0.046875 0.984375
vt 0.0625 0.96875
vt 0.359375 0.96875
vt 0.359375 0.984375
vt 0.046875 0.984375
vt 0.0625 0.96875
vt 0.359375 0.96875
vt 0.359375 0.984375
vt 0.046875 0.984375
vt 0.046875 0.984375
vt 0.359375 0.984375
vt 0.359375 0.671875
vt 0.0625 0.671875
vt 0.046875 0.984375
vt 0.359375 0.984375
vt 0.359375 0.671875
vt 0.0625 0.671875
vt 0.359375 0.984375
vt 0.046875 0.984375
vt 0.0625 0.59375
vt 0.359375 0.625
vt 0.046875 0.984375
vt 0.359375 0.984375
vt 0.359375 0.671875
vt 0.0625 0.671875
vt 0.046875 0.984375
vt 0.359375 0.984375
vt 0.359375 0.625
vt 0.0625 0.59375
vt 0.0625 0.96875
vt 0.359375 0.96875
vt 0.359375 0.984375
vt 0.046875 0.984375
vt 0.953125 0.515625
vt 0.953125 0.015625
vt 0.46875 0.015625
vt 0.859375 0.515625
vt 0.953125 0.96875
vt 0.015625 0.96875
vt 0.015625 0.515625
vt 0.953125 0.53125
vt 0.953125 0.96875
vt 0.015625 0.96875
vt 0.015625 0.515625
vt 0.953125 0.53125
vt 0.0625 0.515625
vt 0.953125 0.53125
vt 0.953125 0.96875
vt 0.0625 0.96875
vt 0.0625 0.515625
vt 0.0625 0.96875
vt 0.953125 0.96875
vt 0.953125 0.53125
vt 0.015625 0.484375
vt 0.015625 0.96875
vt 0.953125 0.96875
vt 0.953125 0.484375
vt 0.953125 0.515625
vt 0.546875 0.515625
vt 0.546875 0.015625
vt 0.953125 0.015625
vt 0.015625 0.484375
vt 0.953125 0.484375
vt 0.953125 0.96875
vt 0.015625 0.96875
vt 0.546875 0.515625
vt 0.546875 0.015625
vt 0.953125 0.015625
vt 0.953125 0.515625
vt 0.015625 0.515625
vt 0.953125 0.53125
vt 0.953125 0.96875
vt 0.015625 0.96875
vt 0.015625 0.96875
vt 0.015625 0.515625
vt 0.953125 0.515625
vt 0.953125 0.96875
vt 0.953125 0.53125
vt 0.0625 0.515625
vt 0.0625 0.96875
vt 0.953125 0.96875
vt 0.546875 0.515625
vt 0.546875 0.015625
vt 0.953125 0.015625
vt 0.953125 0.515625
vt 0.0625 0.515625
vt 0.953125 0.53125
vt 0.953125 0.96875
vt 0.0625 0.96875
vt 0.953125 0.515625
vt 0.953125 0.96875
vt 0.015625 0.96875
vt 0.015625 0.515625
vt 0.0625 0.96875
vt 0.953125 0.96875
vt 0.953125 0.53125
vt 0.0625 0.515625
vt 0.953125 0.484375
vt 0.015625 0.484375
vt 0.015625 0.96875
vt 0.953125 0.96875
vt 0.953125 0.96875
vt 0.015625 0.96875
vt 0.015625 0.515625
vt 0.953125 0.53125
vt 0.546875 0.015625
vt 0.546875 0.515625
vt 0.953125 0.515625
vt 0.953125 0.015625
vt 0.953125 0.515625
vt 0.953125 0.015625
vt 0.546875 0.015625
vt 0.546875 0.515625
vt 0.546875 0.515625
vt 0.546875 0.015625
vt 0.953125 0.015625
vt 0.953125 0.515625
vt 0.546875 0.515625
vt 0.953125 0.515625
vt 0.953125 0.015625
vt 0.546875 0.015625
vt 0.953125 0.015625
vt 0.015625 0.015625
vt 0.015625 0.515625
vt 0.953125 0.515625
vt 0.953125 0.53125
vt 0.015625 0.515625
vt 0.015625 0.96875
vt 0.953125 0.96875
vt 0.953125 0.484375
vt 0.953125 0.96875
vt 0.015625 0.96875
vt 0.015625 0.484375
vt 0.015625 0.515625
vt 0.015625 0.96875
vt 0.953125 0.96875
vt 0.953125 0.515625
vt 0.859375 0.515625
vt 0.46875 0.015625
vt 0.953125 0.015625
vt 0.953125 0.515625
vt 0.953125 0.53125
vt 0.953125 0.96875
vt 0.0625 0.96875
vt 0.0625 0.515625
vt 0.0625 0.515625
vt 0.0625 0.96875
vt 0.953125 0.96875
vt 0.953125 0.53125
vt 0.953125 0.015625
vt 0.546875 0.015625
vt 0.546875 0.515625
vt 0.953125 0.515625
vt 0.953125 0.515625
vt 0.015625 0.515625
vt 0.015625 0.015625
vt 0.953125 0.015625
vt 0.046875 0.515625
vt 0.046875 0.96875
vt 0.953125 0.96875
vt 0.953125 0.53125
vt 0.578125 0.515625
vt 0.578125 0.015625
vt 0.953125 0.015625
vt 0.953125 0.515625
vt 0.0625 0.515625
vt 0.953125 0.53125
vt 0.953125 0.96875
vt 0.0625 0.96875
vt 0.953125 0.515625
vt 0.953125 0.015625
vt 0.546875 0.015625
vt 0.546875 0.515625
vt 0.953125 0.515625
vt 0.953125 0.96875
vt 0.015625 0.96875
vt 0.015625 0.515625
vt 0.546875 0.515625
vt 0.546875 0.015625
vt 0.953125 0.015625
vt 0.953125 0.515625
vt 0.015625 0.515625
vt 0.953125 0.515625
vt 0.953125 0.96875
vt 0.015625 0.96875
vt 0.953125 0.96875
vt 0.015625 0.96875
vt 0.015625 0.515625
vt 0.953125 0.53125
vt 0.953125 0.53125
vt 0.0625 0.515625
vt 0.0625 0.96875
vt 0.953125 0.96875
vt 0.546875 0.515625
vt 0.953125 0.515625
vt 0.953125 0.015625
vt 0.546875 0.015625
vt 0.046875 0.515625
vt 0.046875 0.96875
vt 0.953125 0.96875
vt 0.953125 0.53125
vt 0.0625 0.515625
vt 0.953125 0.53125
vt 0.953125 0.96875
vt 0.0625 0.96875
vt 0.953125 0.96875
vt 0.953125 0.515625
vt 0.015625 0.515625
vt 0.015625 0.96875
vt 0.015625 0.96875
vt 0.015625 0.515625
vt 0.953125 0.515625
vt 0.953125 0.96875
vt 0.953125 0.96875
vt 0.015625 0.96875
vt 0.015625 0.515625
vt 0.953125 0.53125
vt 0.953125 0.53125
vt 0.953125 0.96875
vt 0.015625 0.96875
vt 0.015625 0.53125
vt 0.953125 0.515625
vt 0.953125 0.96875
vt 0.015625 0.96875
vt 0.015625 0.515625
vt 0.953125 0.53125
vt 0.953125 0.96875
vt 0.015625 0.96875
vt 0.015625 0.53125
vt 0.953125 0.53125
vt 0.0625 0.515625
vt 0.0625 0.96875
vt 0.953125 0.96875
vt 0.953125 0.96875
vt 0.953125 0.515625
vt 0.015625 0.515625
vt 0.015625 0.96875
vt 0.953125 0.53125
vt 0.953125 0.96875
vt 0.015625 0.96875
vt 0.015625 0.53125
vt 0.953125 0.96875
vt 0.078125 0.96875
vt 0.078125 0.515625
vt 0.953125 0.53125
vt 0.953125 0.515625
vt 0.953125 0.96875
vt 0.015625 0.96875
vt 0.015625 0.515625
vt 0.953125 0.53125
vt 0.953125 0.96875
vt 0.0625 0.96875
vt 0.0625 0.515625
vt 0.953125 0.53125
vt 0.0625 0.515625
vt 0.0625 0.96875
vt 0.953125 0.96875
vt 0.546875 0.515625
vt 0.953125 0.515625
vt 0.953125 0.015625
vt 0.546875 0.015625
vt 0.015625 0.96875
vt 0.015625 0.03125
vt 0.953125 0.03125
vt 0.953125 0.96875
vt 0.953125 0.96875
vt 0.953125 0.03125
vt 0.015625 0.03125
vt 0.015625 0.96875
vt 0.9791666666666666 0.6666666666666667
vt 0.5833333333333334 1
vt 0.7708333333333334 1
vt 0 0.6666666666666667
vt 0.1875 1
vt 0.375 1
vt 0.7708333333333334 1
vt 0.9791666666666666 1
vt 0.9791666666666666 0.6666666666666667
vt 0 0.35416666666666663
vt 0 0.02083333333333337
vt 0.9791666666666666 0.02083333333333337
vt 0.9791666666666666 0.35416666666666663
vt 0.9791666666666666 0.35416666666666663
vt 0.9791666666666666 0.02083333333333337
vt 0 0.02083333333333337
vt 0 0.35416666666666663
vt 0 0.35416666666666663
vt 0 0.02083333333333337
vt 0.9791666666666666 0.02083333333333337
vt 0.9791666666666666 0.35416666666666663
vt 0.9791666666666666 0.35416666666666663
vt 0.9791666666666666 0.02083333333333337
vt 0 0.02083333333333337
vt 0 0.35416666666666663
vt 0 0.6666666666666667
vt 0 1
vt 0.1875 1
vt 0.9791666666666666 0.6666666666666667
vt 0 0.6666666666666667
vt 0.375 1
vt 0.5833333333333334 1
vt 0.734375 0.5
vt 0.734375 0.09375
vt 0.28125 0.09375
vt 0.34375 0.5
vt 0.734375 0.5
vt 0.734375 0.09375
vt 0.28125 0.09375
vt 0.34375 0.5
vt 0.703125 0.03125
vt 0.1875 0.03125
vt 0.1875 0.484375
vt 0.703125 0.484375
vt 0.953125 0.03125
vt 0.953125 0.484375
vt 0.453125 0.484375
vt 0.453125 0.03125
vt 0.5625 0.484375
vt 0.5625 0.03125
vt 0.015625 0.03125
vt 0.015625 0.484375
vt 0.0625 0.53125
vt 0.0625 0.96875
vt 0.390625 0.96875
vt 0.390625 0.53125
vt 0.546875 0.96875
vt 0.546875 0.5
vt 0.015625 0.5
vt 0.0625 0.96875
vt 0.953125 0.96875
vt 0.953125 0.5
vt 0.015625 0.5
vt 0.015625 0.96875
vt 0.953125 0.96875
vt 0.953125 0.5
vt 0.46875 0.5
vt 0.46875 0.96875
vt 0.015625 0.96875
vt 0.015625 0.5
vt 0.5625 0.5
vt 0.5625 0.96875
vt 0.5625 0.96875
vt 0.5625 0.5
vt 0.015625 0.5
vt 0.015625 0.96875
vt 0.875 0.546875
vt 0.578125 0.875
vt 0.578125 0.546875
vt 0.5625 0.96875
vt 0.5625 0.5
vt 0.015625 0.5
vt 0.015625 0.96875
vt 0.953125 0.484375
vt 0.953125 0.03125
vt 0.453125 0.03125
vt 0.453125 0.484375
vt 0.953125 0.5
vt 0.953125 0.96875
vt 0.46875 0.96875
vt 0.46875 0.5
vt 0.75 0.03125
vt 0.25 0.03125
vt 0.25 0.484375
vt 0.75 0.484375
vt 0.953125 0.484375
vt 0.953125 0.03125
vt 0.453125 0.03125
vt 0.453125 0.484375
vt 0.734375 0.5
vt 0.734375 0.09375
vt 0.328125 0.09375
vt 0.328125 0.5
vt 0.953125 0.5
vt 0.953125 0.09375
vt 0.234375 0.09375
vt 0.234375 0.5
vt 0.390625 0.484375
vt 0.390625 0.03125
vt 0.921875 0.03125
vt 0.921875 0.484375
vt 0.015625 0.96875
vt 0.015625 0.5
vt 0.5625 0.5
vt 0.5625 0.96875
vt 0.734375 0.09375
vt 0.734375 0.5
vt 0.28125 0.5
vt 0.28125 0.09375
vt 0.5625 0.484375
vt 0.5625 0.03125
vt 0.015625 0.03125
vt 0.015625 0.484375
vt 0.578125 0.546875
vt 0.578125 0.875
vt 0.875 0.546875
vt 0.921875 0.484375
vt 0.921875 0.03125
vt 0.390625 0.03125
vt 0.390625 0.484375
vt 0.28125 0.5
vt 0.28125 0.09375
vt 0.734375 0.09375
vt 0.734375 0.5
vt 0.234375 0.5
vt 0.234375 0.09375
vt 0.953125 0.09375
vt 0.953125 0.5
vt 0.953125 0.96875
vt 0.953125 0.5
vt 0.46875 0.5
vt 0.46875 0.96875
vt 0.453125 0.03125
vt 0.953125 0.03125
vt 0.953125 0.484375
vt 0.453125 0.484375
vt 0.390625 0.53125
vt 0.0625 0.53125
vt 0.0625 0.96875
vt 0.390625 0.96875
vt 0.0625 0.96875
vt 0.015625 0.5
vt 0.546875 0.5
vt 0.546875 0.96875
vt 0.015625 0.96875
vt 0.015625 0.5
vt 0.953125 0.5
vt 0.953125 0.96875
vt 0.46875 0.96875
vt 0.46875 0.5
vt 0.953125 0.5
vt 0.953125 0.96875
vt 0.734375 0.5
vt 0.734375 0.09375
vt 0.28125 0.09375
vt 0.28125 0.5
vt 0.734375 0.5
vt 0.734375 0.09375
vt 0.28125 0.09375
vt 0.28125 0.5
vt 0.0625 0.53125
vt 0.0625 0.96875
vt 0.390625 0.96875
vt 0.390625 0.53125
vt 0.390625 0.53125
vt 0.0625 0.53125
vt 0.0625 0.96875
vt 0.390625 0.96875
vt 0.390625 0.53125
vt 0.0625 0.53125
vt 0.0625 0.96875
vt 0.390625 0.96875
vt 0.953125 0.03125
vt 0.453125 0.03125
vt 0.453125 0.484375
vt 0.953125 0.484375
vt 0.734375 0.5
vt 0.734375 0.09375
vt 0.328125 0.09375
vt 0.328125 0.5
vt 0.453125 0.484375
vt 0.453125 0.03125
vt 0.953125 0.03125
vt 0.953125 0.484375
vt 0.265625 0.484375
vt 0.265625 0.03125
vt 0.921875 0.03125
vt 0.921875 0.484375
vt 0.75 0.484375
vt 0.25 0.484375
vt 0.25 0.03125
vt 0.75 0.03125
vt 0.921875 0.484375
vt 0.921875 0.03125
vt 0.265625 0.03125
vt 0.265625 0.484375
vt 0.96875 0.96875
vt 0.96875 0.03125
vt 0 0.03125
vt 0 0.96875
vt 0 0.96875
vt 0 0.03125
vt 0.96875 0.03125
vt 0.96875 0.96875
vt 0.96875 0.484375
vt 0 0.484375
vt 0 0.015625
vt 0.96875 0.015625
vt 0.96875 0.984375
vt 0 0.984375
vt 0 0.484375
vt 0.96875 0.484375
vt 0.96875 0.984375
vt 0 0.984375
vt 0 0.484375
vt 0.96875 0.484375
vt 0.96875 0.484375
vt 0 0.484375
vt 0 0.015625
vt 0.96875 0.015625
vt 0.96875 0.015625
vt 0 0.015625
vt 0 0.484375
vt 0.96875 0.484375
vt 0.96875 0.484375
vt 0 0.484375
vt 0 0.984375
vt 0.96875 0.984375
vt 0.96875 0.015625
vt 0 0.015625
vt 0 0.484375
vt 0.96875 0.484375
vt 0.96875 0.484375
vt 0 0.484375
vt 0 0.984375
vt 0.96875 0.984375
vt 0 0.015625
vt 0 0.984375
vt 0.9375 0.984375
vt 0.9375 0.015625
vt 0.9375 0.015625
vt 0.9375 0.984375
vt 0 0.984375
vt 0 0.015625
vt 0 0.0625
vt 0.96875 0.0625
vt 0.96875 0.9375
vt 0 0.9375
vt 0 0.9375
vt 0.96875 0.9375
vt 0.96875 0.0625
vt 0 0.0625
vt 0 0.96875
vt 0 0.03125
vt 0.96875 0.03125
vt 0.96875 0.96875
vt 0.96875 0.96875
vt 0.96875 0.03125
vt 0 0.03125
vt 0 0.96875
usemtl tex_0
f 151/1 152/2 20/3 19/4
f 152/5 151/6 23/7 148/8
f 148/9 147/10 34/11 24/12
f 148/13 23/14 144/15 147/16
f 147/17 144/18 31/19 34/20
f 150/21 151/22 19/23 18/24
f 145/25 146/26 21/27 25/28
f 151/29 150/30 22/31 23/32
f 22/33 146/34 145/35 143/36
f 23/37 22/38 143/39 144/40
f 144/41 143/42 28/43 31/44
f 143/45 145/46 25/47 28/48
f 146/49 149/50 17/51 21/52
f 149/53 150/54 18/55 17/56
f 152/57 148/58 24/59 20/60
f 150/61 149/62 146/63 22/64
usemtl tex_1
f 77/65 75/66 113/67 117/68
f 90/69 6/70 7/71 91/72
f 125/73 127/74 5/75 89/76
f 104/77 114/78 16/79 12/80
f 79/81 131/82 132/83 78/84
f 86/85 107/86 108/87 88/88
f 92/89 83/90 70/91 94/92
f 127/93 128/94 1/95 5/96
f 81/97 72/98 70/99 83/100
f 107/101 103/102 93/103 8/104
f 29/105 26/106 27/107 30/108
f 132/109 131/110 27/111 26/112
f 79/113 74/114 72/115 81/116
f 103/117 104/118 12/119 93/120
f 13/121 14/122 30/123 27/124
f 125/125 124/126 83/127 92/128
f 108/129 107/130 8/131 4/132
f 89/133 5/134 6/135 90/136
f 133/137 135/138 40/139 25/140
f 78/141 76/142 74/143 79/144
f 117/145 113/146 34/147 37/148
f 38/149 37/150 34/151 31/152
f 94/153 68/154 85/155 92/156
f 92/157 85/158 127/159 125/160
f 87/161 128/162 127/163 85/164
f 35/165 32/166 33/167 36/168
f 135/169 133/170 76/171 78/172
f 77/173 115/174 116/175 80/176
f 81/177 130/178 131/179 79/180
f 96/181 69/182 84/183 95/184
f 95/185 86/186 67/187 96/188
f 82/189 114/190 104/191 84/192
f 84/193 69/194 71/195 82/196
f 116/197 115/198 35/199 36/200
f 82/201 71/202 73/203 80/204
f 9/205 10/206 14/207 13/208
f 80/209 73/210 75/211 77/212
f 91/213 11/214 10/215 90/216
f 91/217 7/218 8/219 93/220
f 131/221 130/222 13/223 27/224
f 39/225 38/226 31/227 28/228
f 83/229 124/230 130/231 81/232
f 114/233 116/234 36/235 16/236
f 11/237 12/238 16/239 15/240
f 32/241 29/242 30/243 33/244
f 103/245 107/246 86/247 95/248
f 1/249 2/250 6/251 5/252
f 10/253 11/254 15/255 14/256
f 2/257 3/258 7/259 6/260
f 130/261 124/262 9/263 13/264
f 15/265 16/266 36/267 33/268
f 3/269 4/270 8/271 7/272
f 124/273 125/274 89/275 9/276
f 14/277 15/278 33/279 30/280
f 80/281 116/282 114/283 82/284
f 95/285 84/286 104/287 103/288
f 40/289 39/290 28/291 25/292
usemtl tex_11_additive
f 54/293 129/294 123/295 55/296
f 48/297 101/298 111/299 49/300
usemtl tex_12
f 87/301 2/302 1/303
f 88/304 4/305 3/306
f 1/307 128/308 87/309
f 87/310 66/311 65/312 88/313
f 66/314 140/315 105/316 65/317
f 140/318 139/319 106/320 105/321
f 139/322 138/323 109/324 106/325
f 88/326 108/327 4/328
f 87/329 88/330 3/331 2/332
usemtl tex_2
f 75/333 58/334 112/335 113/336
f 133/337 134/338 57/339 76/340
f 41/341 43/342 18/343 19/344
f 142/345 141/346 17/347 44/348
f 141/349 142/350 136/351 52/352
f 135/353 132/354 26/355 40/356
f 58/357 51/358 121/359 112/360
f 65/361 105/362 45/363 67/364
f 60/365 50/366 51/367 58/368
f 61/369 54/370 55/371 63/372
f 62/373 49/374 50/375 60/376
f 78/377 132/378 135/379
f 64/380 48/381 49/382 62/383
f 50/384 118/385 119/386 51/387
f 141/388 134/389 21/390 17/391
f 102/392 101/393 48/394 100/395
f 121/396 120/397 42/398 20/399
f 71/400 62/401 60/402 73/403
f 69/404 64/405 62/406 71/407
f 53/408 137/409 129/410 54/411
f 59/412 53/413 54/414 61/415
f 134/416 133/417 25/418 21/419
f 51/420 119/421 120/422 121/423
f 117/424 115/425 77/426
f 49/427 111/428 118/429 50/430
f 76/431 57/432 59/433 74/434
f 72/435 61/436 63/437 70/438
f 112/439 121/440 20/441 24/442
f 43/443 44/444 17/445 18/446
f 37/447 38/448 32/449 35/450
f 134/451 141/452 52/453 57/454
f 68/455 46/456 140/457 66/458
f 57/459 52/460 53/461 59/462
f 73/463 60/464 58/465 75/466
f 113/467 112/468 24/469 34/470
f 115/471 117/472 37/473 35/474
f 38/475 39/476 29/477 32/478
f 39/479 40/480 26/481 29/482
f 42/483 41/484 19/485 20/486
f 74/487 59/488 61/489 72/490
f 52/491 136/492 137/493 53/494
f 56/495 126/496 138/497 139/498
f 99/499 55/500 123/501 122/502
f 106/503 109/504 110/505 47/506
usemtl tex_3
f 105/507 106/508 47/509 45/510
f 46/511 56/512 139/513 140/514
usemtl tex_4
f 98/515 45/516 47/517 100/518
f 96/519 67/520 45/521 98/522
f 94/523 70/524 63/525 97/526
f 97/527 63/528 55/529 99/530
f 99/531 56/532 46/533 97/534
f 98/535 64/536 69/537 96/538
f 100/539 48/540 64/541 98/542
f 97/543 46/544 68/545 94/546
usemtl tex_5
f 90/547 10/548 9/549 89/550
f 93/551 12/552 11/553 91/554
usemtl tex_7_additive
f 122/555 126/556 56/557 99/558
f 100/559 47/560 110/561 102/562
usemtl tex_9_additive
f 85/563 68/564 66/565 87/566
f 88/567 65/568 67/569 86/570
o Object_1
v -1554 2400 -16639
v -518 2400 -16639
v 518 2400 -16639
v 1554 2400 -16639
v -1726 -2240 -4027
v -1012 -2240 -5771
v 1012 -2240 -5771
v 1726 -2240 -4027
v -1726 -2240 -1007
v -576 -3698 -1007
v 576 -3698 -1007
v 1726 -2240 -1007
v -1726 -2240 3913
v -576 -2240 3913
v 576 -2240 3913
v 1726 -2240 3913
v -1726 -2240 6933
v -576 -2240 6933
v 576 -2240 6933
v 1726 -2240 6933
v -1726 -2240 12973
v -1726 -2240 9953
v -576 -2240 12973
v -576 -2240 9953
v 576 -2240 12973
v 576 -2240 9953
v 518 1600 -15881
v -1554 1600 -15881
v 1726 -2240 12973
v 1554 1600 -15881
v 1726 -2240 9953
v -518 1600 -15881
v 576 -2240 16461
v 1726 -2240 16461
v -576 -2240 16461
v -1726 -2240 16461
v -1726 -672 -4027
v 1668 1600 -13493
v -1668 1600 -13493
v -1726 1600 -7047
v 1724 1600 -10287
v -1724 1600 -10287
v 1726 1600 -7047
v 1726 -672 -4027
v 1726 800 -4027
v -1726 800 -4027
v 1012 -672 -5771
v -1012 -672 -5771
v 576 1600 -10287
v -576 1600 -10287
v 556 1600 -13493
v -556 1600 -13493
v 1726 2400 -7047
v -1726 2400 -7047
v 1724 2400 -10287
v -1724 2400 -10287
v 1668 2400 -13493
v -1668 2400 -13493
v -1726 -2240 1449
v -576 -2240 1449
v 576 -2240 1449
v 1726 -2240 1449
v 2866 -2240 3913
v 2866 -2240 1449
v 2866 -2240 -4027
v 2866 -2240 -1007
v 2866 -2240 6933
v 2866 -2240 9953
v 2866 -2240 12973
v 2866 -2240 16461
v -2846 -2240 1449
v -2846 -2240 3913
v -2846 -2240 -1007
v -2846 -2240 6933
v -2846 -2240 12973
v -2846 -2240 9953
v -2846 -2240 -4027
v -2846 -2240 16461
v 1012 -3698 -9115
v -576 -3154 1449
v -576 -3154 3913
v 576 -3154 1449
v 576 -3154 3913
v -628 -4380 -9115
v 628 -4380 -9115
v -1012 -2240 -9115
v -1012 800 -9115
v -1726 1966 -5191
v -1012 -3698 -9115
v -576 -3154 6279
v 576 -3154 6279
v -1726 -3160 -1007
v -1726 -3160 -4027
v -576 -3698 -4027
v 1726 -3160 1449
v 576 -3698 1449
v 1726 -3160 -1007
v 1726 -3160 -4027
v 576 -3698 -4027
v -1726 -3160 1449
v -576 -3698 1449
v -1012 -672 -9115
v -1726 -3160 -5771
v -1012 -3698 -5771
v 1012 -3698 -5771
v 1012 -2240 -9115
v 1726 -2240 -5771
v -1726 -2240 -5771
v 1726 -3160 -5771
v -1012 800 -5771
v 1012 800 -5771
v 1726 800 -5771
v 1726 -672 -5771
v -1726 -672 -5771
v -1726 800 -5771
v 1012 -672 -9115
v -1012 -2240 -7413
v 1012 800 -9115
v 1012 -2240 -7413
v -1012 -672 -7413
v 1012 -672 -7413
v -1012 800 -7413
v 1012 800 -7413
v 1012 -3698 -7413
v -1012 -3698 -7413
v -628 -4380 -5771
v -628 -4380 -7413
v 628 -4380 -5771
v 628 -4380 -7413
v 356 -4380 -4027
v -356 -4380 -4027
v -356 -4380 -1007
v 356 -4380 -1007
v -356 -4380 1449
v 356 -4380 1449
v 1726 1966 -5191
vt 0.484375 0.921875
vt 0.0625 0.671875
vt 0.953125 0.5625
vt 0.0625 0.953125
vt 0.0625 0.5
vt 0.953125 0.5
vt 0.9375 0.953125
vt 0.0625 0.671875
vt 0.953125 0.5625
vt 0.484375 0.921875
vt 0.15625 0.5
vt 0.578125 0.765625
vt 0.84375 0.015625
vt 0.84375 0.015625
vt 0.578125 0.765625
vt 0.15625 0.5
vt 0.84375 0.015625
vt 0.4375 0.015625
vt 0.15625 0.5
vt 0.0625 0.953125
vt 0.0625 0.5
vt 0.953125 0.5
vt 0.9375 0.953125
vt 0.15625 0.5
vt 0.4375 0.015625
vt 0.84375 0.015625
vt 0.71875 0.125
vt 0.046875 0.125
vt 0.046875 0.875
vt 0.71875 0.875
vt 0.71875 0.875
vt 0.046875 0.875
vt 0.046875 0.125
vt 0.71875 0.125
vt 0.71875 0.875
vt 0.71875 0.125
vt 0.046875 0.125
vt 0.046875 0.875
vt 0.71875 0.125
vt 0.71875 0.875
vt 0.046875 0.875
vt 0.046875 0.125
vt 0.859375 0.875
vt 0.1875 0.125
vt 0.1875 0.875
vt 0.1875 0.875
vt 0.1875 0.125
vt 0.859375 0.875
vt 0.953125 0.84375
vt 0.359375 0.84375
vt 0.359375 0.0625
vt 0.953125 0.03125
vt 0.3125 0.59375
vt 0.3125 0.96875
vt 0.859375 0.96875
vt 0.015625 0.96875
vt 0.015625 0.5625
vt 0.953125 0.5625
vt 0.953125 0.96875
vt 0.953125 0.03125
vt 0.953125 0.84375
vt 0.359375 0.84375
vt 0.359375 0.0625
vt 0.890625 0.96875
vt 0.703125 0.5625
vt 0.296875 0.5625
vt 0.3125 0.59375
vt 0.3125 0.96875
vt 0.859375 0.96875
vt 0.953125 0.03125
vt 0.359375 0.0625
vt 0.359375 0.84375
vt 0.953125 0.84375
vt 0.890625 0.96875
vt 0.703125 0.5625
vt 0.296875 0.5625
vt 0.953125 0.03125
vt 0.359375 0.0625
vt 0.359375 0.84375
vt 0.953125 0.84375
vt 0.015625 0.96875
vt 0.015625 0.5625
vt 0.953125 0.5625
vt 0.953125 0.96875
vt 0.96875 0.484375
vt 0.96875 0.03125
vt 0.515625 0.03125
vt 0.515625 0.484375
vt 0.828125 0.65625
vt 0.515625 0.109375
vt 0.828125 0.328125
vt 0.515625 0.03125
vt 0.96875 0.03125
vt 0.96875 0.484375
vt 0.515625 0.484375
vt 0.828125 0.65625
vt 0.515625 0.109375
vt 0.515625 0.984375
vt 0.96875 0.484375
vt 0.96875 0.984375
vt 0.515625 0.984375
vt 0.515625 0.484375
vt 0.515625 0.453125
vt 0.515625 0.21875
vt 0.8125 0.03125
vt 0.8125 0.546875
vt 0.515625 0.15625
vt 0.515625 0.625
vt 0 0.625
vt 0 0.15625
vt 0.96875 0.484375
vt 0.96875 0.03125
vt 0.515625 0.03125
vt 0.515625 0.484375
vt 0.75 0.296875
vt 0.765625 0.515625
vt 0.546875 0.578125
vt 0.546875 0.234375
vt 0.96875 0.578125
vt 0.96875 0.890625
vt 0.53125 0.890625
vt 0.53125 0.578125
vt 0.96875 0.984375
vt 0.96875 0.484375
vt 0.515625 0.484375
vt 0.515625 0.984375
vt 0.515625 0.03125
vt 0.515625 0.5
vt 0 0.5
vt 0 0.03125
vt 0.515625 0.625
vt 0.515625 0.15625
vt 0 0.15625
vt 0 0.625
vt 0.96875 0.03125
vt 0.96875 0.484375
vt 0.515625 0.484375
vt 0.515625 0.03125
vt 0.515625 0.5
vt 0.515625 0.96875
vt 0 0.96875
vt 0 0.5
vt 0.515625 0.984375
vt 0.828125 0.96875
vt 0.828125 0.65625
vt 0.515625 0.96875
vt 0.515625 0.5
vt 0 0.5
vt 0 0.96875
vt 0.515625 0.421875
vt 0.515625 0.03125
vt 0.8125 0.234375
vt 0.171875 0.03125
vt 0.515625 0.03125
vt 0.515625 0.21875
vt 0.171875 0.21875
vt 0.828125 0.328125
vt 0.515625 0.109375
vt 0.828125 0.65625
vt 0 0.5
vt 0.515625 0.5
vt 0.515625 0.03125
vt 0 0.03125
vt 0.515625 0.984375
vt 0.515625 0.109375
vt 0.828125 0.65625
vt 0 0.5
vt 0.515625 0.5
vt 0.515625 0.71875
vt 0 0.71875
vt 0.515625 0.5
vt 0 0.5
vt 0 0.71875
vt 0.515625 0.71875
vt 0.515625 0.25
vt 0.515625 0.4375
vt 0 0.4375
vt 0 0.25
vt 0.515625 0.421875
vt 0.515625 0.03125
vt 0.8125 0.234375
vt 0.96875 0.890625
vt 0.96875 0.578125
vt 0.53125 0.578125
vt 0.53125 0.890625
vt 0.96875 0.484375
vt 0.96875 0.03125
vt 0.515625 0.03125
vt 0.515625 0.484375
vt 0.828125 0.65625
vt 0.828125 0.96875
vt 0.515625 0.984375
vt 0.703125 0.96875
vt 0.03125 0.96875
vt 0.03125 0.0625
vt 0.703125 0.0625
vt 0.9375 0.96875
vt 0.25 0.96875
vt 0.25 0.03125
vt 0.9375 0.03125
vt 0.125 0.96875
vt 0.953125 0.96875
vt 0.953125 0.03125
vt 0.125 0.03125
vt 0.953125 0.96875
vt 0.125 0.96875
vt 0.125 0.03125
vt 0.953125 0.03125
vt 0.25 0.96875
vt 0.9375 0.96875
vt 0.9375 0.03125
vt 0.25 0.03125
vt 0.03125 0.90625
vt 0.703125 0.90625
vt 0.703125 0.0625
vt 0.03125 0.0625
vt 0.609375 0.96875
vt 0.609375 0.03125
vt 0 0.03125
vt 0 0.96875
vt 0 0.5
vt 0 0.96875
vt 0.609375 0.96875
vt 0.609375 0.5
vt 0.609375 0.5
vt 0.609375 0.96875
vt 0 0.96875
vt 0 0.5
vt 0.8125 0.96875
vt 0.8125 0.03125
vt 0.359375 0.03125
vt 0.359375 0.96875
vt 0 0.5
vt 0 0.96875
vt 0.609375 0.96875
vt 0.609375 0.5
vt 0 0.96875
vt 0 0.03125
vt 0.609375 0.03125
vt 0.609375 0.96875
vt 0.03125 0.0625
vt 0.703125 0.0625
vt 0.703125 0.90625
vt 0.03125 0.90625
vt 0.03125 0.96875
vt 0.703125 0.96875
vt 0.703125 0.03125
vt 0.03125 0.03125
vt 0.609375 0.5
vt 0.609375 0.96875
vt 0 0.96875
vt 0 0.5
vt 0.546875 0.03125
vt 0 0.03125
vt 0 0.875
vt 0.546875 0.875
vt 0 0.03125
vt 0 0.9375
vt 0.3125 0.9375
vt 0.3125 0.03125
vt 0.96875 0.90625
vt 0.96875 0.125
vt 0.203125 0.125
vt 0.203125 0.90625
vt 0 0.9375
vt 0 0.03125
vt 0.3125 0.03125
vt 0.3125 0.9375
vt 0.546875 0.03125
vt 0 0.03125
vt 0 0.96875
vt 0.546875 0.96875
vt 0 0.96875
vt 0 0.15625
vt 0.96875 0.15625
vt 0.96875 0.15625
vt 0 0.15625
vt 0 0.96875
vt 0 0.03125
vt 0.546875 0.03125
vt 0.546875 0.96875
vt 0 0.96875
vt 0.546875 0.03125
vt 0 0.03125
vt 0 0.96875
vt 0.546875 0.96875
vt 0.5 0.96875
vt 0.5 0.03125
vt 0.359375 0.03125
vt 0.359375 0.96875
vt 0.96875 0.125
vt 0.203125 0.125
vt 0 0.96875
vt 0.96875 0.96875
vt 0.546875 0.03125
vt 0.546875 0.875
vt 0 0.875
vt 0 0.03125
vt 0.203125 0.125
vt 0.96875 0.125
vt 0.96875 0.96875
vt 0 0.96875
vt 0 0.96875
vt 0.96875 0.96875
vt 0.96875 0.15625
vt 0 0.03125
vt 0.546875 0.03125
vt 0.546875 0.96875
vt 0 0.96875
vt 0.96875 0.90625
vt 0.96875 0.09375
vt 0 0.21875
vt 0 0.8125
vt 0.96875 0.15625
vt 0.96875 0.96875
vt 0 0.96875
vt 0.03125 0.4375
vt 0.90625 0.4375
vt 0.90625 0.84375
vt 0.03125 0.84375
vt 0.78125 0.90625
vt 0.15625 0.90625
vt 0.03125 0.5625
vt 0.90625 0.5625
vt 0.03125 0.5625
vt 0.90625 0.5625
vt 0.90625 0.4375
vt 0.03125 0.4375
vt 0.03125 0.4375
vt 0.90625 0.4375
vt 0.90625 0.5625
vt 0.03125 0.5625
vt 0.578125 0.96875
vt 0.578125 0.515625
vt 0.96875 0.515625
vt 0.65625 0.328125
vt 0.359375 0.328125
vt 0.359375 0.921875
vt 0.65625 0.921875
vt 0.65625 0.53125
vt 0.359375 0.53125
vt 0.359375 0.984375
vt 0.65625 0.984375
vt 0.359375 0.984375
vt 0.359375 0.53125
vt 0.65625 0.53125
vt 0.65625 0.984375
vt 0.96875 0.515625
vt 0.578125 0.515625
vt 0.578125 0.96875
vt 0.65625 0.96875
vt 0.65625 0.53125
vt 0.359375 0.53125
vt 0.359375 0.96875
vt 0.015625 0.140625
vt 0.421875 0.140625
vt 0.421875 0.734375
vt 0.015625 0.734375
vt 0.65625 0.96875
vt 0.65625 0.265625
vt 0.359375 0.265625
vt 0.359375 0.96875
vt 0.78125 0.90625
vt 0.96875 0.5
vt 0.4375 0.5
vt 0.453125 0.90625
vt 0.96875 0.515625
vt 0.578125 0.96875
vt 0.578125 0.515625
vt 0.734375 0.140625
vt 0.265625 0.140625
vt 0.265625 0.734375
vt 0.734375 0.734375
vt 0.65625 0.921875
vt 0.65625 0.328125
vt 0.359375 0.328125
vt 0.359375 0.921875
vt 0.015625 0.140625
vt 0.421875 0.140625
vt 0.421875 0.734375
vt 0.015625 0.734375
vt 0.65625 0.328125
vt 0.359375 0.328125
vt 0.359375 0.921875
vt 0.65625 0.921875
vt 0.5625 0.828125
vt 0.5625 0.296875
vt 0.265625 0.296875
vt 0.265625 0.828125
vt 0.578125 0.515625
vt 0.578125 0.96875
vt 0.96875 0.515625
vt 0.359375 0.53125
vt 0.359375 0.984375
vt 0.65625 0.984375
vt 0.65625 0.53125
vt 0.578125 0.96875
vt 0.578125 0.515625
vt 0.96875 0.515625
vt 0.359375 0.53125
vt 0.359375 0.96875
vt 0.65625 0.96875
vt 0.65625 0.53125
vt 0.359375 0.96875
vt 0.65625 0.96875
vt 0.65625 0.265625
vt 0.359375 0.265625
vt 0.359375 0.328125
vt 0.359375 0.921875
vt 0.65625 0.921875
vt 0.65625 0.328125
vt 0.65625 0.53125
vt 0.359375 0.53125
vt 0.359375 0.96875
vt 0.65625 0.96875
vt 0.65625 0.53125
vt 0.359375 0.53125
vt 0.359375 0.984375
vt 0.65625 0.984375
vt 0.265625 0.140625
vt 0.734375 0.140625
vt 0.734375 0.734375
vt 0.265625 0.734375
vt 0.359375 0.984375
vt 0.65625 0.984375
vt 0.65625 0.53125
vt 0.359375 0.53125
vt 0.65625 0.53125
vt 0.359375 0.53125
vt 0.359375 0.96875
vt 0.65625 0.96875
vt 0.65625 0.328125
vt 0.359375 0.328125
vt 0.359375 0.921875
vt 0.65625 0.921875
vt 0.359375 0.96875
vt 0.65625 0.96875
vt 0.65625 0.265625
vt 0.359375 0.265625
vt 0.96875 0.515625
vt 0.578125 0.515625
vt 0.578125 0.96875
vt 0.65625 0.53125
vt 0.359375 0.53125
vt 0.359375 0.96875
vt 0.65625 0.96875
vt 0.5625 0.1875
vt 0.5625 0.78125
vt 0.265625 0.78125
vt 0.265625 0.1875
vt 0.5625 0.78125
vt 0.5625 0.1875
vt 0.265625 0.1875
vt 0.265625 0.78125
vt 0.359375 0.984375
vt 0.65625 0.984375
vt 0.65625 0.53125
vt 0.359375 0.53125
vt 0.359375 0.984375
vt 0.65625 0.984375
vt 0.65625 0.53125
vt 0.359375 0.53125
vt 0.359375 0.921875
vt 0.65625 0.921875
vt 0.65625 0.328125
vt 0.359375 0.328125
vt 0.359375 0.984375
vt 0.65625 0.984375
vt 0.65625 0.53125
vt 0.359375 0.53125
vt 0.65625 0.328125
vt 0.359375 0.328125
vt 0.359375 0.921875
vt 0.65625 0.921875
vt 0.359375 0.265625
vt 0.359375 0.96875
vt 0.65625 0.96875
vt 0.65625 0.265625
vt 0.5625 0.296875
vt 0.5625 0.828125
vt 0.265625 0.828125
vt 0.265625 0.296875
vt 0.96875 0.5
vt 0.78125 0.90625
vt 0.453125 0.90625
vt 0.4375 0.5
vt 0 0.96875
vt 0.9375 0.96875
vt 0.9375 0.015625
vt 0 0.015625
vt 0.9375 0.96875
vt 0.9375 0.015625
vt 0 0.015625
vt 0 0.96875
usemtl tex_1
f 205/571 195/572 288/573
f 206/574 192/575 194/576 208/577
f 240/578 192/579 206/580
f 192/581 240/582 198/583
f 197/584 288/585 195/586
f 198/587 267/588 192/589
f 207/590 193/591 195/592 205/593
f 195/594 264/595 197/596
usemtl tex_13
f 253/597 162/598 244/599 252/600
f 247/601 249/602 163/603 248/604
f 250/605 251/606 163/607 249/608
f 246/609 245/610 244/611 162/612
f 247/613 248/614 234/615
f 232/616 253/617 252/618
usemtl tex_14
f 160/619 259/620 261/621 250/622
f 153/623 210/624 191/625
f 209/626 190/627 193/628 207/629
f 252/630 211/631 212/632 232/633
f 156/634 182/635 190/636
f 190/637 209/638 156/639
f 247/640 234/641 213/642 214/643
f 191/644 180/645 153/646
f 245/647 255/648 260/649 157/650
f 208/651 194/652 191/653 210/654
usemtl tex_15
f 268/655 258/656 271/657 273/658
f 275/659 193/660 270/661
f 277/662 241/663 238/664 269/665
f 274/666 194/667 192/668
f 254/669 239/670 274/671 272/672
f 201/673 202/674 239/675 270/676
f 269/677 272/678 200/679 158/680
f 258/681 231/682 276/683 271/684
f 287/685 286/686 253/687 248/688
f 236/689 241/690 277/691 279/692
f 270/693 268/694 273/695 275/696
f 277/697 269/698 158/699 256/700
f 273/701 271/702 159/703 199/704
f 238/705 254/706 272/707 269/708
f 272/709 274/710 262/711 200/712
f 192/713 262/714 274/715
f 275/716 273/717 199/718 263/719
f 202/720 194/721 239/722
f 248/723 253/724 232/725 234/726
f 239/727 194/728 274/729
f 159/730 271/731 276/732 257/733
f 195/734 193/735 275/736
f 278/737 279/738 277/739 256/740
f 281/741 280/742 257/743 276/744
f 281/745 279/746 278/747 280/748
f 193/749 201/750 270/751
f 231/752 237/753 281/754 276/755
f 237/756 236/757 279/758 281/759
f 275/760 263/761 195/762
usemtl tex_16
f 215/763 216/764 214/765 168/766
f 225/767 223/768 211/769 161/770
f 218/771 217/772 160/773 164/774
f 229/775 225/776 161/777 157/778
f 216/779 218/780 164/781 214/782
f 213/783 167/784 168/785 214/786
f 184/787 154/788 153/789 180/790
f 262/791 267/792 266/793 200/794
f 200/795 266/796 260/797 158/798
f 179/799 155/800 154/801 184/802
f 159/803 259/804 265/805 199/806
f 182/807 156/808 155/809 179/810
f 211/811 165/812 166/813 212/814
f 223/815 224/816 165/817 211/818
f 199/819 265/820 264/821 263/822
usemtl tex_17
f 232/823 233/824 235/825 234/826
f 286/827 284/828 162/829 253/830
f 235/831 233/832 242/833 243/834
f 285/835 287/836 248/837 163/838
f 282/839 285/840 163/841 251/842
f 246/843 283/844 278/845
f 280/846 282/847 251/848
f 284/849 283/850 246/851 162/852
f 234/853 235/854 167/855 213/856
f 243/857 242/858 170/859 171/860
f 235/861 243/862 171/863 167/864
f 282/865 283/866 284/867 285/868
f 242/869 233/870 166/871 170/872
f 251/873 257/874 280/875
f 233/876 232/877 212/878 166/879
f 280/880 278/881 283/882 282/883
f 278/884 256/885 246/886
usemtl tex_18
f 254/887 268/888 270/889 239/890
f 236/891 237/892 231/893 241/894
f 238/895 258/896 268/897 254/898
f 241/899 231/900 258/901 238/902
usemtl tex_2
f 245/903 246/904 256/905
f 166/906 165/907 169/908 170/909
f 204/910 203/911 179/912 184/913
f 222/914 221/915 181/916 186/917
f 256/918 255/919 245/920
f 220/921 219/922 172/923 183/924
f 249/925 247/926 214/927 164/928
f 221/929 220/930 183/931 181/932
f 255/933 256/934 158/935 260/936
f 195/937 263/938 264/939
f 250/940 249/941 164/942 160/943
f 219/944 215/945 168/946 172/947
f 252/948 244/949 161/950 211/951
f 168/952 167/953 171/954 172/955
f 266/956 267/957 198/958 189/959
f 267/960 262/961 192/962
f 227/963 230/964 188/965 173/966
f 250/967 261/968 257/969
f 226/970 228/971 174/972 169/973
f 173/974 175/975 176/976 174/977
f 224/978 226/979 169/980 165/981
f 170/982 169/983 174/984 176/985
f 203/986 190/987 182/988 179/989
f 244/990 245/991 157/992 161/993
f 188/994 187/995 175/996 173/997
f 171/998 170/999 176/1000 178/1001
f 201/1002 193/1003 190/1004 203/1005
f 177/1006 181/1007 183/1008 178/1009
f 257/1010 251/1011 250/1012
f 172/1013 171/1014 178/1015 183/1016
f 260/1017 266/1018 189/1019 157/1020
f 265/1021 259/1022 160/1023 196/1024
f 187/1025 185/1026 177/1027 175/1028
f 184/1029 180/1030 191/1031 204/1032
f 204/1033 191/1034 194/1035 202/1036
f 185/1037 186/1038 181/1039 177/1040
f 202/1041 201/1042 203/1043 204/1044
f 228/1045 227/1046 173/1047 174/1048
f 264/1049 265/1050 196/1051 197/1052
f 257/1053 261/1054 259/1055 159/1056
usemtl tex_5
f 175/1057 177/1058 178/1059 176/1060
f 287/1061 285/1062 284/1063 286/1064
o Object_2
v 277 -2252 11549
v 208 -2426 11549
v 138 -2252 11789
v 104 -2426 11729
v -138 -2252 11789
v -104 -2426 11729
v -277 -2252 11549
v -208 -2426 11549
v -138 -2252 11309
v -104 -2426 11369
v 138 -2252 11309
v 104 -2426 11369
vt 0.890625 0.359375
vt 0.65625 0.359375
vt 0.953125 0.09375
vt 0.765625 0.21875
vt 0.765625 0.21875
vt 0.765625 0.21875
vt 0.890625 0.359375
vt 0.90625 0.984375
vt 0.671875 0.984375
vt 0.609375 0.640625
vt 0.96875 0.640625
vt 0.265625 0.375
vt 0.0625 0.375
vt 0 0.03125
vt 0.3125 0.03125
vt 0.65625 0.984375
vt 0.125 0.984375
vt 0.03125 0.640625
vt 0.734375 0.640625
vt 0.671875 0.984375
vt 0.90625 0.984375
vt 0.96875 0.640625
vt 0.609375 0.640625
vt 0.65625 0.359375
vt 0.59375 0.09375
vt 0.953125 0.09375
vt 0.671875 0.984375
vt 0.90625 0.984375
vt 0.96875 0.640625
vt 0.609375 0.640625
vt 0.890625 0.375
vt 0.53125 0.375
vt 0.453125 0.03125
vt 0.96875 0.03125
usemtl tex_19
f 294/1065 292/1066 300/1067 298/1068
f 298/1069 296/1070 294/1071
f 294/1072 296/1073 295/1074 293/1075
f 296/1076 298/1077 297/1078 295/1079
f 292/1080 294/1081 293/1082 291/1083
f 298/1084 300/1085 299/1086 297/1087
f 292/1088 290/1089 300/1090
f 290/1091 292/1092 291/1093 289/1094
f 300/1095 290/1096 289/1097 299/1098
o Object_3
v 277 -4403 273
v 208 -4577 273
v 138 -4403 513
v 104 -4577 453
v -138 -4403 513
v -104 -4577 453
v -277 -4403 273
v -208 -4577 273
v -138 -4403 33
v -104 -4577 93
v 138 -4403 33
v 104 -4577 93
vt 0.890625 0.359375
vt 0.65625 0.359375
vt 0.953125 0.09375
vt 0.765625 0.21875
vt 0.765625 0.21875
vt 0.765625 0.21875
vt 0.890625 0.359375
vt 0.90625 0.984375
vt 0.671875 0.984375
vt 0.609375 0.640625
vt 0.96875 0.640625
vt 0.265625 0.375
vt 0.0625 0.375
vt 0 0.03125
vt 0.3125 0.03125
vt 0.65625 0.984375
vt 0.125 0.984375
vt 0.03125 0.640625
vt 0.734375 0.640625
vt 0.671875 0.984375
vt 0.90625 0.984375
vt 0.96875 0.640625
vt 0.609375 0.640625
vt 0.65625 0.359375
vt 0.59375 0.09375
vt 0.953125 0.09375
vt 0.671875 0.984375
vt 0.90625 0.984375
vt 0.96875 0.640625
vt 0.609375 0.640625
vt 0.890625 0.375
vt 0.53125 0.375
vt 0.453125 0.03125
vt 0.96875 0.03125
f 306/1099 304/1100 312/1101 310/1102
f 310/1103 308/1104 306/1105
f 306/1106 308/1107 307/1108 305/1109
f 308/1110 310/1111 309/1112 307/1113
f 304/1114 306/1115 305/1116 303/1117
f 310/1118 312/1119 311/1120 309/1121
f 304/1122 302/1123 312/1124
f 302/1125 304/1126 303/1127 301/1128
f 312/1129 302/1130 301/1131 311/1132
o Object_4
v 1012 -3698 -9116
v -628 -4379 -9116
v 628 -4379 -9116
v -1013 -2240 -9116
v -1012 801 -9116
v -1013 -3698 -9116
v -1013 -672 -9116
v 1012 -2240 -9116
v 1013 -672 -9116
v 1013 801 -9116
v 1013 801 -10268
v -1012 801 -10268
v -1013 -672 -10268
v 1013 -672 -10268
v -1013 -2240 -10268
v 1012 -2240 -10268
v -628 -4379 -10268
v 628 -4379 -10268
v -1013 -3698 -10268
v 1012 -3698 -10268
vt 0.40625 0.015625
vt 0.125 0.015625
vt 0.125 1
vt 0.40625 1
vt 0.796875 0.015625
vt 0.171875 0.015625
vt 0.171875 1
vt 0.796875 1
vt 0.125 0.015625
vt 0.40625 0.015625
vt 0.40625 1
vt 0.125 1
vt 0.40625 1
vt 0.125 1
vt 0.125 0.015625
vt 0.40625 0.015625
vt 0.125 0.015625
vt 0 0.015625
vt 0 1
vt 0.125 1
vt 0.125 1
vt 0 1
vt 0 0.015625
vt 0.125 0.015625
vt 0 0.015625
vt 0.125 0.015625
vt 0.125 1
vt 0 1
vt 0 1
vt 0.984375 1
vt 0.984375 0.015625
vt 0 0.015625
vt 0 0.015625
vt 0.984375 0.015625
vt 0.984375 1
vt 0 1
vt 0.984375 1
vt 0.703125 1
vt 0.703125 0.015625
vt 0.984375 0.015625
vt 0.703125 1
vt 0.40625 1
vt 0.40625 0.015625
vt 0.703125 0.015625
vt 0.703125 0.015625
vt 0.40625 0.015625
vt 0.40625 1
vt 0.703125 1
vt 0.40625 0.015625
vt 0.703125 0.015625
vt 0.703125 1
vt 0.40625 1
vt 0.984375 0.015625
vt 0.703125 0.015625
vt 0.703125 1
vt 0.984375 1
vt 0.703125 0.015625
vt 0.984375 0.015625
vt 0.984375 1
vt 0.703125 1
vt 0.796875 1
vt 0.171875 1
vt 0.171875 0.015625
vt 0.796875 0.015625
vt 0.40625 1
vt 0.703125 1
vt 0.703125 0.015625
vt 0.40625 0.015625
vt 0.703125 1
vt 0.984375 1
vt 0.984375 0.015625
vt 0.703125 0.015625
vt 0 1
vt 0.125 1
vt 0.125 0.015625
vt 0 0.015625
vt 0.125 1
vt 0.40625 1
vt 0.40625 0.015625
vt 0.125 0.015625
usemtl tex_20_transparent
f 328/1133 332/1134 313/1135 320/1136
f 330/1137 329/1138 314/1139 315/1140
f 331/1141 327/1142 316/1143 318/1144
f 320/1145 313/1146 332/1147 328/1148
f 332/1149 330/1150 315/1151 313/1152
f 313/1153 315/1154 330/1155 332/1156
f 329/1157 331/1158 318/1159 314/1160
f 317/1161 322/1162 323/1163 324/1164
f 324/1165 323/1166 322/1167 317/1168
f 322/1169 321/1170 326/1171 323/1172
f 321/1173 320/1174 328/1175 326/1176
f 326/1177 328/1178 320/1179 321/1180
f 327/1181 325/1182 319/1183 316/1184
f 323/1185 326/1186 321/1187 322/1188
f 325/1189 324/1190 317/1191 319/1192
f 315/1193 314/1194 329/1195 330/1196
f 316/1197 319/1198 325/1199 327/1200
f 319/1201 317/1202 324/1203 325/1204
f 314/1205 318/1206 331/1207 329/1208
f 318/1209 316/1210 327/1211 331/1212
o Object_5
v -1553 2400 -16639
v -1726 4209 -10287
v -1726 4531 -7048
v -518 2400 -16639
v -575 4209 -10287
v -575 4531 -7048
v 518 2400 -16639
v 575 4209 -10287
v 575 4531 -7048
v 1553 2400 -16639
v 1726 4209 -10287
v 1726 4531 -7048
v -1726 -2240 -4028
v 1726 -2240 -4028
v -1726 4763 -4028
v -575 4763 -4028
v 575 4763 -4028
v 1726 4763 -4028
v -1381 2400 -19370
v -1381 3005 -19370
v -460 2400 -19370
v -460 3005 -19370
v 556 3849 -13494
v 1669 3849 -13494
v -556 3849 -13494
v -1669 3849 -13494
v -1553 3440 -16639
v -518 3440 -16639
v 518 3440 -16639
v 1553 3440 -16639
v 1381 3005 -19370
v 1381 2400 -19370
v 460 3005 -19370
v 460 2400 -19370
v -1726 -672 -4028
v 1726 -672 -4028
v 1726 800 -4028
v -1726 800 -4028
v 2866 2400 -4028
v -2847 2400 -4028
v -2847 3705 -4028
v 2866 3705 -4028
v -2847 3705 -7048
v 2867 3705 -7048
v -2846 3704 -10287
v 2865 3704 -10287
v 1727 2400 -7048
v -1727 2400 -7048
v 1724 2401 -10287
v -1724 2401 -10287
v 1668 2401 -13494
v -1668 2401 -13494
v 2771 2401 -13494
v 2865 2401 -10287
v 2867 2400 -7048
v 2866 800 -4028
v 2866 -672 -4028
v 2866 4763 -4028
v 2866 -2240 -4028
v 2866 4209 -10287
v 2772 3849 -13494
v 2866 4531 -7048
v 2293 2400 -19370
v 2580 2400 -16639
v 2580 3440 -16639
v 2293 3005 -19370
v -2845 2401 -10287
v -2752 2401 -13494
v -2848 2400 -7048
v -2753 3849 -13494
v -2847 4209 -10287
v -2847 4763 -4028
v -2847 4531 -7048
v -2562 2400 -16639
v -2562 3440 -16639
v -2277 2400 -19370
v -2277 3005 -19370
v -2847 -2240 -4028
v -2846 -672 -4028
v -2846 800 -4028
v -2847 1966 -5191
v -1726 1966 -5191
v 2867 1966 -5191
v 1726 1966 -5191
v 460 2400 -20364
v -460 2400 -20364
v 460 3005 -20364
v -460 3005 -20364
v -460 2400 -20965
v -460 3005 -20965
v 460 2400 -20965
v 460 3005 -20965
v 1334 3005 -21186
v 1334 3005 -20586
v 1334 2400 -21186
v 1334 2400 -20586
v -1334 3005 -20586
v -1334 3005 -21186
v -1334 2400 -21186
v -1334 2400 -20586
v 1872 2400 -20730
v 1872 2400 -21186
v 1872 3005 -20730
v 1872 3005 -21186
v -1861 3005 -20730
v -1861 3005 -21186
v -1861 2400 -20730
v -1861 2400 -21186
v -1861 2400 -22094
v -1334 2400 -22096
v -1334 3005 -22096
v -1861 3005 -22094
v 1872 3005 -22094
v 1334 3005 -22096
v 1334 2400 -22096
v 1872 2400 -22094
vt 0.921875 0.921875
vt 0.125 0.53125
vt 0.125 0.921875
vt 0.015625 0.9375
vt 0.015625 0.5
vt 0.953125 0.5
vt 0.953125 0.9375
vt 0.125 0.921875
vt 0.125 0.53125
vt 0.921875 0.921875
vt 0.015625 0.5
vt 0.953125 0.5
vt 0.953125 0.96875
vt 0.015625 0.96875
vt 0.015625 0.53125
vt 0.015625 0.734375
vt 0.953125 0.9375
vt 0.953125 0.53125
vt 0.953125 0.5
vt 0.953125 0.9375
vt 0.015625 0.734375
vt 0.015625 0.5
vt 0.015625 0.5
vt 0.953125 0.5
vt 0.953125 0.96875
vt 0.015625 0.96875
vt 0.015625 0.9375
vt 0.015625 0.5
vt 0.953125 0.5
vt 0.953125 0.9375
vt 0.015625 0.53125
vt 0.953125 0.53125
vt 0.953125 0.9375
vt 0.015625 0.734375
vt 0.953125 0.5
vt 0.015625 0.5
vt 0.015625 0.96875
vt 0.953125 0.96875
vt 0.046875 0.5
vt 0.046875 0.75
vt 0.953125 0.953125
vt 0.953125 0.5
vt 0.015625 0.53125
vt 0.015625 0.734375
vt 0.953125 0.9375
vt 0.953125 0.53125
vt 0.015625 0.734375
vt 0.015625 0.53125
vt 0.953125 0.53125
vt 0.953125 0.9375
vt 0.953125 0.5
vt 0.953125 0.953125
vt 0.046875 0.75
vt 0.046875 0.5
vt 0.953125 0.9375
vt 0.015625 0.734375
vt 0.015625 0.53125
vt 0.953125 0.53125
vt 0.953125 0.9375
vt 0.953125 0.5
vt 0.015625 0.5
vt 0.015625 0.9375
vt 0.953125 0.9375
vt 0.953125 0.5
vt 0.015625 0.5
vt 0.015625 0.9375
vt 0.953125 0.9375
vt 0.953125 0.5
vt 0.015625 0.5
vt 0.015625 0.9375
vt 0.953125 0.53125
vt 0.953125 0.9375
vt 0.015625 0.734375
vt 0.015625 0.53125
vt 0.953125 0.96875
vt 0.015625 0.96875
vt 0.015625 0.5
vt 0.953125 0.5
vt 0.015625 0.5
vt 0.015625 0.734375
vt 0.953125 0.9375
vt 0.953125 0.5
vt 0.015625 0.734375
vt 0.015625 0.53125
vt 0.953125 0.53125
vt 0.953125 0.9375
vt 0.015625 0.9375
vt 0.015625 0.5
vt 0.953125 0.5
vt 0.953125 0.9375
vt 0 0.03125
vt 0 0.96875
vt 0.96875 0.96875
vt 0.96875 0.03125
vt 0 0.03125
vt 0 0.96875
vt 0.96875 0.96875
vt 0.96875 0.03125
vt 0.203125 0.03125
vt 0.5 0.03125
vt 0.5 0.40625
vt 0.203125 0.40625
vt 0.953125 0.265625
vt 0.953125 0.734375
vt 0.515625 0.734375
vt 0.515625 0.265625
vt 0.8125 0.734375
vt 0.515625 0.734375
vt 0.515625 0.265625
vt 0.8125 0.265625
vt 0.515625 0.984375
vt 0.8125 0.984375
vt 0.8125 0.515625
vt 0.515625 0.515625
vt 0.59375 0.984375
vt 0.359375 0.984375
vt 0.3125 0.5
vt 0.59375 0.5
vt 0.515625 0.515625
vt 0.8125 0.515625
vt 0.8125 0.984375
vt 0.515625 0.984375
vt 0.5625 0.671875
vt 0.578125 0.96875
vt 0.109375 0.96875
vt 0.109375 0.671875
vt 0.953125 0.265625
vt 0.953125 0.734375
vt 0.515625 0.734375
vt 0.515625 0.265625
vt 0.5625 0.671875
vt 0.578125 0.96875
vt 0.109375 0.96875
vt 0.109375 0.671875
vt 0.953125 0.265625
vt 0.953125 0.734375
vt 0.515625 0.734375
vt 0.515625 0.265625
vt 0.359375 0.984375
vt 0.59375 0.984375
vt 0.59375 0.5
vt 0.3125 0.5
vt 0.8125 0.984375
vt 0.515625 0.984375
vt 0.515625 0.515625
vt 0.8125 0.515625
vt 0.8125 0.265625
vt 0.8125 0.734375
vt 0.515625 0.734375
vt 0.515625 0.265625
vt 0.515625 0.265625
vt 0.8125 0.265625
vt 0.8125 0.734375
vt 0.515625 0.734375
vt 0.8125 0.734375
vt 0.515625 0.734375
vt 0.515625 0.265625
vt 0.8125 0.265625
vt 0.8125 0.265625
vt 0.8125 0.734375
vt 0.515625 0.734375
vt 0.515625 0.265625
vt 0.515625 0.265625
vt 0.8125 0.265625
vt 0.8125 0.734375
vt 0.515625 0.734375
vt 0.953125 0.265625
vt 0.953125 0.734375
vt 0.515625 0.734375
vt 0.515625 0.265625
vt 0.953125 0.265625
vt 0.953125 0.734375
vt 0.515625 0.734375
vt 0.515625 0.265625
vt 0.953125 0.265625
vt 0.953125 0.734375
vt 0.515625 0.734375
vt 0.515625 0.265625
vt 0.59375 0.984375
vt 0.359375 0.984375
vt 0.3125 0.5
vt 0.59375 0.5
vt 0.359375 0.984375
vt 0.59375 0.984375
vt 0.59375 0.5
vt 0.3125 0.5
vt 0.203125 0.03125
vt 0.5 0.03125
vt 0.5 0.40625
vt 0.203125 0.40625
vt 0.8125 0.515625
vt 0.515625 0.515625
vt 0.515625 0.984375
vt 0.8125 0.984375
vt 0.8125 0.265625
vt 0.515625 0.265625
vt 0.515625 0.734375
vt 0.8125 0.734375
vt 0.515625 0.265625
vt 0.8125 0.265625
vt 0.8125 0.734375
vt 0.515625 0.734375
vt 0.8125 0.265625
vt 0.515625 0.265625
vt 0.515625 0.734375
vt 0.8125 0.734375
vt 0.953125 0.265625
vt 0.953125 0.734375
vt 0.515625 0.734375
vt 0.515625 0.265625
vt 0.953125 0.265625
vt 0.953125 0.734375
vt 0.515625 0.734375
vt 0.515625 0.265625
vt 0.515625 0.734375
vt 0.8125 0.734375
vt 0.8125 0.265625
vt 0.515625 0.265625
vt 0.890625 0.296875
vt 0.015625 0.296875
vt 0.015625 0.40625
vt 0.890625 0.40625
vt 0.421875 0.953125
vt 0.75 0.953125
vt 0.75 0.5
vt 0.421875 0.5
vt 0.875 0.9375
vt 0.875 0.65625
vt 0 0.65625
vt 0 0.9375
vt 0 0.546875
vt 0 0.90625
vt 0.875 0.828125
vt 0.875 0.546875
vt 0.421875 0.53125
vt 0.421875 0.953125
vt 0.75 0.953125
vt 0.75 0.53125
vt 0.375 0.765625
vt 0 0.5
vt 0 0.984375
vt 0.421875 0.53125
vt 0.421875 0.953125
vt 0.75 0.953125
vt 0.75 0.53125
vt 0.875 0.734375
vt 0.875 0.546875
vt 0 0.546875
vt 0 0.734375
vt 0.71875 0.359375
vt 0.296875 0.359375
vt 0.296875 0.140625
vt 0.734375 0.140625
vt 0.875 0.546875
vt 0 0.546875
vt 0 0.734375
vt 0.875 0.734375
vt 0.75 0.984375
vt 0.421875 0.984375
vt 0.421875 0.53125
vt 0.75 0.53125
vt 0.96875 0.984375
vt 0 0.984375
vt 0.375 0.765625
vt 0.75 0.53125
vt 0.75 0.953125
vt 0.421875 0.953125
vt 0.421875 0.53125
vt 0 0.984375
vt 0 0.5
vt 0.375 0.765625
vt 0.421875 0.53125
vt 0.421875 0.984375
vt 0.75 0.984375
vt 0.75 0.53125
vt 0.953125 0.5
vt 0.953125 0.984375
vt 0.609375 0.984375
vt 0.609375 0.5
vt 0.015625 0.296875
vt 0.890625 0.296875
vt 0.890625 0.40625
vt 0.015625 0.40625
vt 0.421875 0.984375
vt 0.75 0.984375
vt 0.75 0.53125
vt 0.421875 0.53125
vt 0.296875 0.140625
vt 0.296875 0.359375
vt 0.71875 0.359375
vt 0.734375 0.140625
vt 0.875 0.546875
vt 0.875 0.828125
vt 0 0.90625
vt 0 0.546875
vt 0.421875 0.53125
vt 0.421875 0.953125
vt 0.75 0.953125
vt 0.75 0.53125
vt 0.75 0.984375
vt 0.75 0.53125
vt 0.421875 0.53125
vt 0.421875 0.984375
vt 0.90625 0.484375
vt 0.90625 0.03125
vt 0.21875 0.03125
vt 0.21875 0.484375
vt 0.75 0.5
vt 0.421875 0.5
vt 0.421875 0.953125
vt 0.75 0.953125
vt 0 0.734375
vt 0.875 0.734375
vt 0.875 0.546875
vt 0 0.546875
vt 0.015625 0.40625
vt 0.015625 0.296875
vt 0.890625 0.296875
vt 0.890625 0.40625
vt 0.75 0.53125
vt 0.75 0.953125
vt 0.421875 0.953125
vt 0.421875 0.53125
vt 0.375 0.765625
vt 0 0.984375
vt 0.96875 0.984375
vt 0.71875 0.359375
vt 0.296875 0.359375
vt 0.296875 0.140625
vt 0.734375 0.140625
vt 0.421875 0.53125
vt 0.421875 0.953125
vt 0.75 0.953125
vt 0.75 0.53125
vt 0.890625 0.421875
vt 0.015625 0.34375
vt 0.015625 0.171875
vt 0.890625 0.125
vt 0.421875 0.96875
vt 0.421875 0.5
vt 0.015625 0.5
vt 0.015625 0.96875
vt 0.890625 0.125
vt 0.015625 0.171875
vt 0.015625 0.34375
vt 0.890625 0.421875
vt 0.875 0.546875
vt 0.875 0.734375
vt 0 0.734375
vt 0 0.546875
vt 0.015625 0.40625
vt 0.015625 0.296875
vt 0.890625 0.296875
vt 0.890625 0.40625
vt 0.90625 0.03125
vt 0.90625 0.484375
vt 0.21875 0.484375
vt 0.21875 0.03125
vt 0.71875 0.359375
vt 0.734375 0.140625
vt 0.296875 0.140625
vt 0.296875 0.359375
vt 0.96875 0.6875
vt 0.765625 0.6875
vt 0.765625 0.3125
vt 0.96875 0.3125
vt 0.71875 0.875
vt 0.71875 0.25
vt 0 0.25
vt 0 0.875
vt 0 0.25
vt 0 0.875
vt 0.71875 0.875
vt 0.71875 0.25
vt 0.71875 0.875
vt 0.71875 0.25
vt 0 0.25
vt 0 0.875
vt 0.71875 0.25
vt 0.71875 0.875
vt 0 0.875
vt 0 0.25
vt 0 0.03125
vt 0 0.96875
vt 0.96875 0.96875
vt 0.96875 0.03125
vt 0 0.03125
vt 0 0.96875
vt 0.96875 0.96875
vt 0.96875 0.03125
vt 0.765625 0.96875
vt 0.765625 0.03125
vt 0.203125 0.03125
vt 0.203125 0.96875
vt 0.203125 0.96875
vt 0.203125 0.03125
vt 0.765625 0.03125
vt 0.765625 0.96875
usemtl tex_1
f 402/1213 403/1214 377/1215
f 334/1216 337/1217 338/1218 335/1219
f 378/1220 392/1221 393/1222
f 404/1223 405/1224 335/1225 347/1226
f 400/1227 402/1228 377/1229 399/1230
f 376/1231 394/1232 392/1233 378/1234
f 392/1235 394/1236 344/1237 343/1238
f 340/1239 343/1240 344/1241 341/1242
f 393/1243 392/1244 343/1245 356/1246
f 394/1247 390/1248 350/1249 344/1250
f 374/1251 390/1252 394/1253 376/1254
f 357/1255 355/1256 340/1257 337/1258
f 355/1259 356/1260 343/1261 340/1262
f 375/1263 405/1264 404/1265 373/1266
f 403/1267 402/1268 358/1269 334/1270
f 335/1271 338/1272 348/1273 347/1274
f 338/1275 341/1276 349/1277 348/1278
f 341/1279 344/1280 350/1281 349/1282
f 386/1283 378/1284 393/1285 385/1286
f 405/1287 403/1288 334/1289 335/1290
f 377/1291 403/1292 405/1293 375/1294
f 358/1295 357/1296 337/1297 334/1298
f 337/1299 340/1300 341/1301 338/1302
usemtl tex_14
f 387/1303 376/1304 378/1305 386/1306
f 401/1307 375/1308 373/1309 372/1310
usemtl tex_15
f 420/1311 419/1312 365/1313 354/1314
f 447/1315 446/1316 425/1317 427/1318
f 439/1319 437/1320 429/1321 432/1322
f 430/1323 431/1324 421/1325 422/1326
f 437/1327 438/1328 430/1329 429/1330
f 426/1331 428/1332 417/1333 419/1334
f 354/1335 365/1336 361/1337 360/1338
f 443/1339 442/1340 431/1341 430/1342
f 366/1343 353/1344 336/1345 339/1346
f 444/1347 443/1348 430/1349 438/1350
f 436/1351 435/1352 426/1353 425/1354
f 427/1355 425/1356 424/1357 423/1358
f 423/1359 421/1360 418/1361 417/1362
f 428/1363 427/1364 423/1365 417/1366
f 440/1367 438/1368 437/1369 439/1370
f 422/1371 424/1372 419/1373 420/1374
f 435/1375 433/1376 428/1377 426/1378
f 448/1379 447/1380 427/1381 434/1382
f 445/1383 448/1384 434/1385 436/1386
f 441/1387 444/1388 438/1389 440/1390
f 433/1391 434/1392 427/1393 428/1394
f 440/1395 439/1396 432/1397 431/1398
f 417/1399 418/1400 353/1401 366/1402
f 432/1403 429/1404 420/1405 418/1406
f 431/1407 432/1408 418/1409 421/1410
f 429/1411 430/1412 422/1413 420/1414
f 425/1415 426/1416 419/1417 424/1418
f 442/1419 441/1420 440/1421 431/1422
f 446/1423 445/1424 436/1425 425/1426
f 436/1427 434/1428 433/1429 435/1430
usemtl tex_2
f 407/1431 409/1432 352/1433 359/1434
f 380/1435 401/1436 413/1437 414/1438
f 360/1439 361/1440 355/1441 357/1442
f 385/1443 393/1444 397/1445 396/1446
f 387/1447 386/1448 381/1449 379/1450
f 415/1451 388/1452 371/1453
f 386/1454 385/1455 383/1456 381/1457
f 361/1458 362/1459 356/1460 355/1461
f 363/1462 365/1463 366/1464 364/1465
f 397/1466 393/1467 356/1468 362/1469
f 353/1470 351/1471 333/1472 336/1473
f 401/1474 372/1475 413/1476
f 400/1477 399/1478 382/1479 384/1480
f 372/1481 412/1482 413/1483
f 396/1484 395/1485 364/1486 342/1487
f 389/1488 388/1489 369/1490 368/1491
f 398/1492 397/1493 362/1494 363/1495
f 364/1496 366/1497 339/1498 342/1499
f 395/1500 398/1501 363/1502 364/1503
f 406/1504 407/1505 402/1506 400/1507
f 385/1508 396/1509 342/1510 383/1511
f 408/1512 406/1513 333/1514 351/1515
f 411/1516 410/1517 345/1518 367/1519
f 416/1520 415/1521 387/1522 379/1523
f 402/1524 407/1525 359/1526 358/1527
f 352/1528 354/1529 360/1530 359/1531
f 406/1532 400/1533 384/1534 333/1535
f 415/1536 371/1537 387/1538
f 354/1539 352/1540 351/1541 353/1542
f 399/1543 401/1544 380/1545 382/1546
f 397/1547 398/1548 395/1549 396/1550
f 412/1551 411/1552 367/1553 370/1554
f 406/1555 408/1556 409/1557 407/1558
f 359/1559 360/1560 357/1561 358/1562
f 365/1563 363/1564 362/1565 361/1566
f 391/1567 389/1568 368/1569 346/1570
f 409/1571 408/1572 351/1573 352/1574
usemtl tex_21
f 424/1575 422/1576 421/1577 423/1578
f 419/1579 417/1580 366/1581 365/1582
f 448/1583 445/1584 446/1585 447/1586
f 444/1587 441/1588 442/1589 443/1590
f 418/1591 420/1592 354/1593 353/1594
usemtl tex_23_additive
f 371/1595 374/1596 376/1597 387/1598
f 399/1599 377/1600 375/1601 401/1602
usemtl tex_3
f 416/1603 369/1604 388/1605 415/1606
f 413/1607 412/1608 370/1609 414/1610
o Object_6
v -1432 4953 2727
v -1363 5127 2727
v -1293 4953 2967
v -1259 5127 2907
v -1017 4953 2967
v -1051 5127 2907
v -878 4953 2727
v -947 5127 2727
v -1017 4953 2487
v -1051 5127 2547
v -1293 4953 2487
v -1259 5127 2547
vt 0.890625 0.359375
vt 0.65625 0.359375
vt 0.953125 0.09375
vt 0.765625 0.21875
vt 0.765625 0.21875
vt 0.765625 0.21875
vt 0.890625 0.359375
vt 0.90625 0.984375
vt 0.671875 0.984375
vt 0.609375 0.640625
vt 0.96875 0.640625
vt 0.265625 0.375
vt 0.0625 0.375
vt 0 0.03125
vt 0.3125 0.03125
vt 0.65625 0.984375
vt 0.125 0.984375
vt 0.03125 0.640625
vt 0.734375 0.640625
vt 0.671875 0.984375
vt 0.90625 0.984375
vt 0.96875 0.640625
vt 0.609375 0.640625
vt 0.65625 0.359375
vt 0.59375 0.09375
vt 0.953125 0.09375
vt 0.671875 0.984375
vt 0.90625 0.984375
vt 0.96875 0.640625
vt 0.609375 0.640625
vt 0.890625 0.375
vt 0.53125 0.375
vt 0.453125 0.03125
vt 0.96875 0.03125
usemtl tex_19
f 454/1611 452/1612 460/1613 458/1614
f 458/1615 456/1616 454/1617
f 454/1618 456/1619 455/1620 453/1621
f 456/1622 458/1623 457/1624 455/1625
f 452/1626 454/1627 453/1628 451/1629
f 458/1630 460/1631 459/1632 457/1633
f 452/1634 450/1635 460/1636
f 450/1637 452/1638 451/1639 449/1640
f 460/1641 450/1642 449/1643 459/1644
o Object_7
v 874 4953 2727
v 943 5127 2727
v 1013 4953 2967
v 1047 5127 2907
v 1289 4953 2967
v 1255 5127 2907
v 1428 4953 2727
v 1359 5127 2727
v 1289 4953 2487
v 1255 5127 2547
v 1013 4953 2487
v 1047 5127 2547
vt 0.890625 0.359375
vt 0.65625 0.359375
vt 0.953125 0.09375
vt 0.765625 0.21875
vt 0.765625 0.21875
vt 0.765625 0.21875
vt 0.890625 0.359375
vt 0.90625 0.984375
vt 0.671875 0.984375
vt 0.609375 0.640625
vt 0.96875 0.640625
vt 0.265625 0.375
vt 0.0625 0.375
vt 0 0.03125
vt 0.3125 0.03125
vt 0.65625 0.984375
vt 0.125 0.984375
vt 0.03125 0.640625
vt 0.734375 0.640625
vt 0.671875 0.984375
vt 0.90625 0.984375
vt 0.96875 0.640625
vt 0.609375 0.640625
vt 0.65625 0.359375
vt 0.59375 0.09375
vt 0.953125 0.09375
vt 0.671875 0.984375
vt 0.90625 0.984375
vt 0.96875 0.640625
vt 0.609375 0.640625
vt 0.890625 0.375
vt 0.53125 0.375
vt 0.453125 0.03125
vt 0.96875 0.03125
f 466/1645 464/1646 472/1647 470/1648
f 470/1649 468/1650 466/1651
f 466/1652 468/1653 467/1654 465/1655
f 468/1656 470/1657 469/1658 467/1659
f 464/1660 466/1661 465/1662 463/1663
f 470/1664 472/1665 471/1666 469/1667
f 464/1668 462/1669 472/1670
f 462/1671 464/1672 463/1673 461/1674
f 472/1675 462/1676 461/1677 471/1678
