# Blender 4.5.0
# www.blender.org
mtllib barra_madera.mtl
o Cube.006
v -5.267404 2.996644 -0.519463
v -5.499944 3.519223 -0.354872
v -5.306832 2.989380 -0.552106
v -5.539372 3.511960 -0.387515
v -5.240752 3.020300 -0.556920
v -5.473292 3.542881 -0.392328
v -5.280180 3.013037 -0.589563
v -5.512721 3.535616 -0.424971
v -4.741025 4.026456 -1.124191
v -4.903956 4.517030 -0.829156
v -4.786084 4.026735 -1.149540
v -4.949015 4.517309 -0.854504
v -4.719994 4.055730 -1.161254
v -4.882925 4.546304 -0.866218
v -4.765053 4.056010 -1.186602
v -4.927984 4.546584 -0.891567
v -3.917813 4.939411 -1.743543
v -3.912075 5.479539 -1.493574
v -3.949685 4.956787 -1.780357
v -3.943946 5.496915 -1.530388
v -3.877108 4.952442 -1.772634
v -3.871369 5.492569 -1.522665
v -3.908980 4.969818 -1.809448
v -3.903241 5.509945 -1.559479
v -3.596704 5.463878 -2.519490
v -3.589621 6.046766 -2.399300
v -3.638460 5.470521 -2.549244
v -3.631376 6.053409 -2.429054
v -3.566224 5.471956 -2.560462
v -3.559140 6.054844 -2.440272
v -3.607980 5.478599 -2.590216
v -3.600896 6.061487 -2.470026
v -3.185383 6.064637 -3.552481
v -3.178299 6.647525 -3.432291
v -3.227139 6.071280 -3.582235
v -3.220055 6.654168 -3.462045
v -3.154903 6.072715 -3.593452
v -3.147819 6.655603 -3.473262
v -3.196658 6.079357 -3.623206
v -3.189575 6.662246 -3.503016
v -1.728858 6.189848 -4.625444
v -1.721774 6.772737 -4.505254
v -1.770614 6.196491 -4.655198
v -1.763530 6.779379 -4.535008
v -1.698378 6.197926 -4.666415
v -1.691294 6.780814 -4.546225
v -1.740134 6.204568 -4.696169
v -1.733050 6.787457 -4.575979
v -4.839553 4.367697 -0.956843
v -4.868237 4.486675 -0.873371
v -3.856371 5.380713 -1.604112
v -3.873973 5.474933 -1.522202
v -3.561503 5.915865 -2.479891
v -3.555136 6.038252 -2.450271
v -3.144464 6.505427 -3.522409
v -3.138098 6.627814 -3.492789
v -1.661001 6.615001 -4.580608
v -1.654635 6.737389 -4.550988
v -5.469155 3.315049 -0.369003
v -5.541984 3.432235 -0.315061
v -4.809072 4.361434 -0.935663
v -4.837757 4.480412 -0.852191
v -3.843493 5.468671 -1.501022
v -3.825891 5.374451 -1.582932
v -3.524656 6.031990 -2.429091
v -3.531023 5.909602 -2.458711
v -3.107617 6.621552 -3.471609
v -3.113984 6.499165 -3.501229
v -1.624155 6.731126 -4.529808
v -1.630521 6.608739 -4.559428
v -5.438674 3.308786 -0.347823
v -5.511503 3.425972 -0.293881
vn -0.5155 -0.4576 0.7245
vn -0.7626 -0.1405 -0.6314
vn 0.5155 0.4576 -0.7245
vn 0.7626 0.1405 0.6314
vn 0.3907 -0.8780 -0.2765
vn -0.3907 0.8780 0.2765
vn -0.4068 -0.5662 0.7169
vn -0.8715 0.0054 -0.4903
vn 0.4068 0.5662 -0.7169
vn 0.8715 -0.0054 0.4903
vn 0.2737 -0.8242 -0.4957
vn -0.2737 0.8242 0.4957
vn -0.7873 -0.2520 0.5627
vn -0.6165 0.3361 -0.7121
vn 0.7873 0.2520 -0.5627
vn 0.6165 -0.3361 0.7121
vn -0.0096 -0.9075 -0.4200
vn 0.0096 0.9075 0.4200
vn -0.5896 -0.1562 0.7925
vn -0.8076 0.1285 -0.5755
vn 0.5896 0.1562 -0.7925
vn 0.8076 -0.1285 0.5755
vn -0.0119 -0.9793 -0.2019
vn 0.0119 0.9793 0.2019
vn -0.7235 0.3181 -0.6126
vn -0.9583 0.0900 -0.2713
vn -0.9435 0.1235 -0.3076
vn -0.5772 0.2203 -0.7863
vn -0.7294 0.0817 -0.6792
vn 0.7235 -0.3181 0.6126
vn 0.9583 -0.0900 0.2713
vn 0.9435 -0.1235 0.3076
vn 0.5772 -0.2203 0.7863
vn 0.5853 0.1618 -0.7945
vn 0.7294 -0.0817 0.6792
vn -0.1298 0.8844 0.4483
vn -0.5347 -0.6042 0.5908
vn 0.1298 -0.8844 -0.4483
vn 0.3021 -0.7039 -0.6429
vn 0.3636 -0.6104 -0.7037
vn -0.2948 0.7137 0.6353
vn -0.3655 0.6071 0.7055
vn 0.0662 0.9787 0.1941
vn -0.0662 -0.9787 -0.1941
vn -0.1514 0.8672 0.4744
vn 0.1537 -0.8653 -0.4770
vt 0.484922 0.895035
vt 0.484922 0.805996
vt 0.492716 0.806033
vt 0.492716 0.895073
vt 0.492721 0.884480
vt 0.492722 0.798015
vt 0.500502 0.798162
vt 0.500502 0.884626
vt 0.492722 0.088069
vt 0.492722 0.000023
vt 0.500521 0.000000
vt 0.500521 0.088046
vt 0.492722 0.618442
vt 0.492722 0.531265
vt 0.500447 0.531008
vt 0.500447 0.618185
vt 0.500521 0.248781
vt 0.500521 0.241059
vt 0.508028 0.241357
vt 0.508028 0.249079
vt 0.508028 0.233038
vt 0.508028 0.240760
vt 0.500521 0.241059
vt 0.500521 0.233337
vt 0.492722 0.971817
vt 0.492722 0.884626
vt 0.500423 0.884922
vt 0.500423 0.972113
vt 0.484922 0.984790
vt 0.484922 0.895073
vt 0.492616 0.895126
vt 0.492616 0.984843
vt 0.500521 0.175108
vt 0.500521 0.089665
vt 0.508230 0.089299
vt 0.508230 0.174742
vt 0.492722 0.442004
vt 0.492722 0.352210
vt 0.500320 0.352204
vt 0.500320 0.441997
vt 0.500521 0.296081
vt 0.508060 0.295932
vt 0.508060 0.303710
vt 0.500521 0.303859
vt 0.500521 0.303859
vt 0.508059 0.304008
vt 0.508059 0.311786
vt 0.500521 0.311637
vt 0.492722 0.797990
vt 0.492722 0.708202
vt 0.500226 0.708228
vt 0.500226 0.798015
vt 0.500521 0.089018
vt 0.500521 -0.000000
vt 0.508020 0.000281
vt 0.508020 0.089299
vt 0.492722 0.708079
vt 0.492722 0.618442
vt 0.500240 0.618565
vt 0.500240 0.708202
vt 0.492722 0.531008
vt 0.492722 0.442247
vt 0.500354 0.442004
vt 0.500354 0.530765
vt 0.500521 0.225189
vt 0.500521 0.217391
vt 0.508246 0.217417
vt 0.508246 0.225215
vt 0.508246 0.225215
vt 0.508246 0.233012
vt 0.500521 0.233038
vt 0.500521 0.225241
vt 0.492722 0.264159
vt 0.492722 0.176132
vt 0.500521 0.176114
vt 0.500521 0.264141
vt 0.484922 0.089794
vt 0.484922 -0.000000
vt 0.492722 0.000000
vt 0.492722 0.089794
vt 0.484922 0.716912
vt 0.484922 0.627845
vt 0.492722 0.627853
vt 0.492722 0.716920
vt 0.484922 0.448971
vt 0.484922 0.359178
vt 0.492697 0.359180
vt 0.492697 0.448973
vt 0.500521 0.272514
vt 0.508205 0.272505
vt 0.508205 0.280305
vt 0.500521 0.280314
vt 0.500521 0.249079
vt 0.508206 0.249088
vt 0.508206 0.256888
vt 0.500521 0.256879
vt 0.492722 0.352204
vt 0.492722 0.264177
vt 0.500521 0.264159
vt 0.500521 0.352186
vt 0.484922 0.179588
vt 0.484922 0.089794
vt 0.492722 0.089794
vt 0.492722 0.179588
vt 0.484922 0.805987
vt 0.484922 0.716920
vt 0.492722 0.716929
vt 0.492721 0.805996
vt 0.484922 0.538767
vt 0.484922 0.448973
vt 0.492697 0.448976
vt 0.492697 0.538769
vt 0.500521 0.288132
vt 0.508205 0.288123
vt 0.508205 0.295923
vt 0.500521 0.295932
vt 0.500521 0.264696
vt 0.508206 0.264705
vt 0.508206 0.272505
vt 0.500521 0.272496
vt 0.492721 0.176114
vt 0.492721 0.088087
vt 0.500521 0.088069
vt 0.500521 0.176096
vt 0.484922 0.269381
vt 0.484922 0.179588
vt 0.492721 0.179588
vt 0.492721 0.269382
vt 0.484922 0.627836
vt 0.484922 0.538769
vt 0.492722 0.538778
vt 0.492722 0.627845
vt 0.484922 0.359175
vt 0.484922 0.269382
vt 0.492697 0.269384
vt 0.492697 0.359178
vt 0.500521 0.280323
vt 0.508205 0.280314
vt 0.508205 0.288114
vt 0.500521 0.288123
vt 0.500521 0.256888
vt 0.508206 0.256897
vt 0.508206 0.264696
vt 0.500521 0.264687
vt 0.018603 0.581275
vt 0.071225 0.805645
vt 0.048980 0.807251
vt 0.000000 0.583684
vt 0.004838 0.421782
vt 0.022521 0.428729
vt 0.017666 0.238256
vt 0.035349 0.245203
vt 0.126595 -0.000000
vt 0.144279 0.006947
vt 0.144279 0.997363
vt 0.123030 0.999897
vt 0.268717 0.578726
vt 0.287201 0.580901
vt 0.239521 0.806908
vt 0.217339 0.805428
vt 0.266673 0.429855
vt 0.284323 0.422841
vt 0.255783 0.250138
vt 0.273432 0.243124
vt 0.144279 0.007014
vt 0.161928 0.000000
vt 0.500521 0.217391
vt 0.500521 0.198513
vt 0.506199 0.198453
vt 0.506199 0.217331
vt 0.165730 1.000000
vt 0.144279 0.997081
vt 0.386468 0.252335
vt 0.340743 0.436352
vt 0.335073 0.436522
vt 0.380798 0.252505
vt 0.505869 0.175108
vt 0.505869 0.196545
vt 0.500521 0.198453
vt 0.500521 0.177016
vt 0.432783 0.436489
vt 0.386468 0.252609
vt 0.392138 0.252760
vt 0.438454 0.436641
vt 0.429364 0.795520
vt 0.479251 0.588210
vt 0.484922 0.588362
vt 0.435034 0.795672
vt 0.418970 0.967963
vt 0.424641 0.968115
vt 0.292871 0.597628
vt 0.345091 0.804636
vt 0.339420 0.804806
vt 0.287201 0.597798
vt 0.363967 0.977414
vt 0.358297 0.977584
vt 0.292871 0.000000
vt 0.287201 0.000170
vt 0.479251 0.000000
vt 0.484922 0.000152
s 0
usemtl barra_madera
f 1/1/1 2/2/1 4/3/1 3/4/1
f 3/5/2 4/6/2 8/7/2 7/8/2
f 7/9/3 8/10/3 6/11/3 5/12/3
f 5/13/4 6/14/4 2/15/4 1/16/4
f 3/17/5 7/18/5 5/19/5 1/20/5
f 8/21/6 4/22/6 2/23/6 6/24/6
f 9/25/7 10/26/7 12/27/7 11/28/7
f 11/29/8 12/30/8 16/31/8 15/32/8
f 15/33/9 16/34/9 14/35/9 13/36/9
f 13/37/10 14/38/10 10/39/10 9/40/10
f 11/41/11 15/42/11 13/43/11 9/44/11
f 16/45/12 12/46/12 10/47/12 14/48/12
f 17/49/13 18/50/13 20/51/13 19/52/13
f 19/53/14 20/54/14 24/55/14 23/56/14
f 23/57/15 24/58/15 22/59/15 21/60/15
f 21/61/16 22/62/16 18/63/16 17/64/16
f 19/65/17 23/66/17 21/67/17 17/68/17
f 24/69/18 20/70/18 18/71/18 22/72/18
f 25/73/19 26/74/19 28/75/19 27/76/19
f 27/77/20 28/78/20 32/79/20 31/80/20
f 31/81/21 32/82/21 30/83/21 29/84/21
f 29/85/22 30/86/22 26/87/22 25/88/22
f 27/89/23 31/90/23 29/91/23 25/92/23
f 32/93/24 28/94/24 26/95/24 30/96/24
f 33/97/19 34/98/19 36/99/19 35/100/19
f 35/101/20 36/102/20 40/103/20 39/104/20
f 39/105/21 40/106/21 38/107/21 37/108/21
f 37/109/22 38/110/22 34/111/22 33/112/22
f 35/113/23 39/114/23 37/115/23 33/116/23
f 40/117/24 36/118/24 34/119/24 38/120/24
f 41/121/19 42/122/19 44/123/19 43/124/19
f 43/125/20 44/126/20 48/127/20 47/128/20
f 47/129/21 48/130/21 46/131/21 45/132/21
f 45/133/22 46/134/22 42/135/22 41/136/22
f 43/137/23 47/138/23 45/139/23 41/140/23
f 48/141/24 44/142/24 42/143/24 46/144/24
f 51/145/25 49/146/25 50/147/25 52/148/25
f 52/148/26 54/149/26 53/150/26 51/145/26
f 54/149/27 56/151/27 55/152/27 53/150/27
f 56/151/28 58/153/28 57/154/28 55/152/28
f 49/146/29 59/155/29 60/156/29 50/147/29
f 64/157/30 63/158/30 62/159/30 61/160/30
f 63/158/31 64/157/31 66/161/31 65/162/31
f 65/162/32 66/161/32 68/163/32 67/164/32
f 67/164/33 68/163/33 70/165/33 69/166/33
f 57/167/34 58/168/34 69/169/34 70/170/34
f 61/160/35 62/159/35 72/171/35 71/172/35
f 56/173/36 54/174/36 65/175/36 67/176/36
f 60/177/37 59/178/37 71/179/37 72/180/37
f 53/181/38 55/182/38 68/183/38 66/184/38
f 49/185/39 51/186/39 64/187/39 61/188/39
f 59/189/40 49/185/40 61/188/40 71/190/40
f 52/191/41 50/192/41 62/193/41 63/194/41
f 50/192/42 60/195/42 72/196/42 62/193/42
f 58/197/43 56/173/43 67/176/43 69/198/43
f 55/182/44 57/199/44 70/200/44 68/183/44
f 54/174/45 52/191/45 63/194/45 65/175/45
f 51/186/46 53/181/46 66/184/46 64/187/46
