# Blender v2.79 (sub 0) OBJ File: ''
# www.blender.org
mtllib BlueDartPlate.mtl
o mesh_189
v 0.430361 0.032625 -0.337106
v 0.355216 0.052304 0.324922
v 0.462523 0.032625 0.326618
v 0.355216 0.052304 0.324922
v 0.406969 0.032625 0.447904
v -0.378452 0.052304 0.313327
v -0.412818 0.032625 0.447904
v -0.378452 0.052304 0.313327
v -0.462524 0.032625 0.311998
v -0.395897 0.052304 -0.364163
v -0.462524 0.032625 -0.366345
v -0.395897 0.052304 -0.364163
v -0.404046 0.032625 -0.447905
v -0.395897 0.052304 -0.364163
v 0.351416 0.032625 -0.444981
v 0.349662 0.052304 -0.339748
v 0.430361 0.032625 -0.337106
v 0.349662 0.052304 -0.339748
v 0.355216 0.052304 0.324922
v -0.395897 0.052304 -0.364163
v -0.378452 0.052304 0.313327
v 0.510527 -0.052304 0.551462
v -0.412818 0.032625 0.447904
v -0.461148 -0.052304 0.493948
v -0.412818 0.032625 0.447904
v -0.566081 -0.052304 0.341237
v -0.462524 0.032625 0.311998
v -0.566081 -0.052304 -0.375116
v -0.462524 0.032625 -0.366345
v -0.507604 -0.052304 -0.551462
v -0.404046 0.032625 -0.447905
v 0.412189 -0.052304 -0.510507
v 0.351416 0.032625 -0.444981
v 0.533919 -0.052304 -0.392660
v 0.430361 0.032625 -0.337106
v 0.566081 -0.052304 0.338313
v 0.462523 0.032625 0.326618
v 0.510527 -0.052304 0.551462
v 0.406969 0.032625 0.447904
v -0.412818 0.032625 0.447904
vt 0.880123 0.805647
vt 0.813750 0.205399
vt 0.908531 0.203862
vt 0.813750 0.205399
vt 0.859462 0.093894
vt 0.165727 0.215912
vt 0.135373 0.093894
vt 0.165727 0.215912
vt 0.091469 0.217117
vt 0.150318 0.830179
vt 0.091469 0.832158
vt 0.150318 0.830179
vt 0.143120 0.906106
vt 0.150318 0.830179
vt 0.810393 0.903455
vt 0.808844 0.808043
vt 0.880123 0.805647
vt 0.808844 0.808043
vt 0.813750 0.205399
vt 0.150318 0.830179
vt 0.165727 0.215912
vt 0.950931 0.000000
vt 0.135373 0.093894
vt 0.092684 0.052147
vt 0.135373 0.093894
vt 0.000000 0.190607
vt 0.091469 0.217117
vt 0.000000 0.840111
vt 0.091469 0.832158
vt 0.051651 1.000000
vt 0.143120 0.906106
vt 0.864073 0.962867
vt 0.810393 0.903455
vt 0.971592 0.856017
vt 0.880123 0.805647
vt 1.000000 0.193258
vt 0.908531 0.203862
vt 0.950931 0.000000
vt 0.859462 0.093894
vt 0.135373 0.093894
vn 0.1805 0.9835 -0.0087
vn 0.1239 0.6749 0.7274
vn 0.1798 0.9832 0.0307
vn 0.0542 0.8395 0.5407
vn 0.0733 0.9893 0.1263
vn -0.0002 0.6972 0.7169
vn -0.0729 0.9893 0.1262
vn -0.1964 0.8365 0.5115
vn -0.2304 0.9723 0.0393
vn -0.2006 0.6907 0.6948
vn -0.2801 0.9568 -0.0775
vn -0.1185 0.4107 0.9040
vn -0.0918 0.9713 -0.2191
vn 0.0011 0.8119 0.5837
vn 0.0762 0.9799 -0.1844
vn 0.1183 0.9406 0.3182
vn 0.2385 0.9687 -0.0684
vn 0.1039 0.8875 0.4489
vn 0.0177 0.9998 -0.0001
vn 0.0000 1.0000 0.0000
vn -0.0512 0.4983 0.8654
vn -0.0290 0.2824 0.9588
vn -0.4191 0.6053 0.6767
vn -0.4111 0.4483 0.7937
vn -0.6341 0.7572 0.1565
vn -0.6134 0.7831 0.1023
vn -0.6261 0.7736 -0.0977
vn -0.5779 0.8045 -0.1370
vn -0.3100 0.8402 -0.4449
vn -0.1704 0.8345 -0.5239
vn 0.2965 0.7152 -0.6328
vn 0.2288 0.7153 -0.6603
vn 0.5613 0.7928 -0.2375
vn 0.5649 0.8053 -0.1801
vn 0.6276 0.7757 0.0656
vn 0.6022 0.7942 0.0809
vn 0.3481 0.8500 0.3954
vn 0.2306 0.8527 0.4687
vn 0.0000 0.7732 0.6341
usemtl 000000002A77E278.png
s 1
f 1/1/1 2/2/2 3/3/3
f 2/2/2 4/4/4 3/3/3
f 3/3/3 4/4/4 5/5/5
f 4/4/4 6/6/6 5/5/5
f 5/5/5 6/6/6 7/7/7
f 6/6/6 8/8/8 7/7/7
f 7/7/7 8/8/8 9/9/9
f 8/8/8 10/10/10 9/9/9
f 9/9/9 10/10/10 11/11/11
f 10/10/10 12/12/12 11/11/11
f 11/11/11 12/12/12 13/13/13
f 12/12/12 14/14/14 13/13/13
f 13/13/13 14/14/14 15/15/15
f 14/14/14 16/16/16 15/15/15
f 15/15/15 16/16/16 17/17/17
f 16/16/16 18/18/18 17/17/17
f 17/17/17 18/18/18 19/19/19
f 18/18/18 20/20/20 19/19/19
f 19/19/19 20/20/20 21/21/20
f 22/22/21 23/23/22 24/24/23
f 23/23/22 25/25/24 24/24/23
f 24/24/23 25/25/24 26/26/25
f 25/25/24 27/27/26 26/26/25
f 26/26/25 27/27/26 28/28/27
f 27/27/26 29/29/28 28/28/27
f 28/28/27 29/29/28 30/30/29
f 29/29/28 31/31/30 30/30/29
f 30/30/29 31/31/30 32/32/31
f 31/31/30 33/33/32 32/32/31
f 32/32/31 33/33/32 34/34/33
f 33/33/32 35/35/34 34/34/33
f 34/34/33 35/35/34 36/36/35
f 35/35/34 37/37/36 36/36/35
f 36/36/35 37/37/36 38/38/37
f 37/37/36 39/39/38 38/38/37
f 38/38/37 39/39/38 40/40/39
