# Blender 4.5.0
# www.blender.org
mtllib bush.mtl
o bush.001
v 10.463918 4.300663 -8.037153
v 10.451204 4.290141 -8.013921
v 10.436627 4.314439 -8.010892
v 10.449340 4.324962 -8.034124
v 10.082050 4.152960 -8.349771
v 10.022375 4.161439 -8.334952
v 10.026668 4.224799 -8.351519
v 10.089952 4.216585 -8.366866
v 10.161297 4.373817 -7.819783
v 10.152279 4.385797 -7.834104
v 10.170947 4.391842 -7.840801
v 10.179964 4.379863 -7.826480
v 10.224669 4.216753 -7.781838
v 10.206913 4.220091 -7.777958
v 10.209733 4.238162 -7.780599
v 10.227489 4.234824 -7.784480
v 10.379745 4.194979 -8.011024
v 10.358748 4.197030 -8.005136
v 10.360970 4.218818 -8.004807
v 10.381966 4.216766 -8.010696
v 10.402344 4.236145 -7.875792
v 10.390413 4.237153 -7.873686
v 10.390828 4.248858 -7.876937
v 10.402759 4.247851 -7.879043
v 9.980286 4.262983 -7.979375
v 9.961268 4.281013 -7.990613
v 9.982025 4.299998 -7.995277
v 10.001041 4.281969 -7.984040
v 10.029053 4.343620 -7.865969
v 10.018551 4.355639 -7.869066
v 10.029705 4.362998 -7.878325
v 10.040207 4.350980 -7.875228
v 10.099149 4.314679 -8.007299
v 10.069007 4.337881 -8.028490
v 10.100176 4.363679 -8.044580
v 10.130318 4.340477 -8.023389
v 10.155263 4.197968 -8.109923
v 10.101787 4.204040 -8.091931
v 10.107371 4.253825 -8.080406
v 10.164693 4.253408 -8.103364
v 10.175572 4.189009 -8.026166
v 10.134269 4.193699 -8.012269
v 10.141239 4.236516 -8.006001
v 10.182544 4.231826 -8.019897
v 10.380868 4.254000 -8.109913
v 10.364184 4.244234 -8.079033
v 10.343929 4.272646 -8.074368
v 10.361136 4.286889 -8.105814
v 10.098331 4.159691 -8.300150
v 10.030410 4.173959 -8.284230
v 10.041006 4.236371 -8.301608
v 10.109297 4.222782 -8.318287
v 10.114084 4.176739 -8.251595
v 10.052006 4.186303 -8.236090
v 10.060390 4.249124 -8.254932
v 10.119525 4.239832 -8.270609
v 10.128808 4.190158 -8.202854
v 10.065559 4.200511 -8.186598
v 10.071000 4.263604 -8.205612
v 10.134249 4.253251 -8.221869
v 10.180427 4.231223 -8.184902
v 10.172142 4.201625 -8.133740
v 10.173384 4.283012 -8.156082
v 10.301324 4.238004 -8.153485
v 10.294924 4.215137 -8.113959
v 10.289483 4.255147 -8.091695
v 10.295883 4.278013 -8.131220
v 10.163406 4.228162 -7.934833
v 10.145727 4.246292 -7.956755
v 10.176929 4.256397 -7.967948
v 10.195318 4.230148 -7.943994
v 10.193456 4.190722 -7.939121
v 10.160833 4.196855 -7.931993
v 10.199162 4.195480 -7.910370
v 10.169256 4.201102 -7.903835
v 10.174006 4.231537 -7.908284
v 10.203911 4.225915 -7.914819
v 10.220924 4.213630 -7.800710
v 10.201385 4.217303 -7.796440
v 10.204488 4.237189 -7.799347
v 10.224028 4.233516 -7.803617
v 10.358128 4.215792 -8.089707
v 10.325544 4.218413 -8.077037
v 10.332124 4.251332 -8.066928
v 10.365684 4.208368 -8.061985
v 10.337639 4.210625 -8.051079
v 10.343302 4.238957 -8.042378
v 10.371346 4.236701 -8.053284
v 10.372343 4.201826 -8.037550
v 10.348299 4.203760 -8.028200
v 10.353154 4.228051 -8.020741
v 10.377198 4.226117 -8.030090
v 10.384646 4.202818 -7.983135
v 10.364884 4.204487 -7.979647
v 10.365572 4.223879 -7.985032
v 10.385334 4.222209 -7.988520
v 10.392236 4.217110 -7.937100
v 10.375833 4.218496 -7.934205
v 10.376403 4.234591 -7.938675
v 10.392806 4.233206 -7.941571
v 10.398507 4.228920 -7.899060
v 10.384879 4.230072 -7.896655
v 10.385354 4.243444 -7.900368
v 10.398981 4.242292 -7.902774
v 10.400452 4.232583 -7.887264
v 10.387685 4.233662 -7.885010
v 10.388129 4.246189 -7.888489
v 10.400896 4.245111 -7.890743
v 10.073262 4.216238 -8.092601
v 10.042079 4.246743 -8.124824
v 10.070033 4.284381 -8.109406
v 10.109282 4.312156 -8.127817
v 10.148769 4.281761 -8.100057
v 10.103346 4.282817 -8.041533
v 10.068741 4.309454 -8.065862
v 10.104526 4.339072 -8.084332
v 10.139131 4.312435 -8.060005
v 10.028551 4.317842 -7.853963
v 10.006269 4.361116 -7.846424
v 10.003623 4.312345 -7.896086
v 9.981340 4.355618 -7.888547
v 10.064718 4.340715 -7.878351
v 10.042435 4.383988 -7.870812
v 10.039790 4.335217 -7.920475
v 10.017507 4.378491 -7.912935
v 10.018294 4.320204 -7.848976
v 10.002778 4.350337 -7.843726
v 9.978520 4.344987 -7.884717
v 9.994038 4.314854 -7.889966
v 9.994480 4.319906 -7.917656
v 9.978963 4.350040 -7.912406
v 10.004148 4.365967 -7.929389
v 10.019665 4.335834 -7.934639
v 10.043281 4.345996 -7.923172
v 10.027763 4.376130 -7.917922
v 10.052021 4.381479 -7.876932
v 10.067537 4.351346 -7.882182
v 10.067095 4.346294 -7.854492
v 10.051578 4.376427 -7.849242
v 10.026393 4.360500 -7.832260
v 10.041910 4.330367 -7.837509
v 10.013478 4.308069 -7.900585
v 10.038663 4.323996 -7.917568
v 10.062920 4.329346 -7.876578
v 10.037735 4.313418 -7.859595
v 10.008323 4.382915 -7.907303
v 9.983138 4.366988 -7.890320
v 10.007396 4.372337 -7.849330
v 10.032580 4.388265 -7.866313
v 10.165689 4.363848 -7.835610
v 10.190160 4.409828 -7.800701
v 10.122622 4.403638 -7.857831
v 10.147094 4.449618 -7.822922
v 10.204136 4.379151 -7.882719
v 10.228607 4.425132 -7.847809
v 10.161071 4.418942 -7.904940
v 10.185542 4.464922 -7.870030
v 10.161874 4.368597 -7.822092
v 10.178914 4.400615 -7.797783
v 10.137008 4.439336 -7.819407
v 10.119967 4.407318 -7.843716
v 10.112739 4.430902 -7.869712
v 10.129779 4.462920 -7.845403
v 10.156552 4.473577 -7.878208
v 10.139511 4.441559 -7.902517
v 10.172316 4.428154 -7.907857
v 10.189356 4.460173 -7.883548
v 10.231263 4.421453 -7.861925
v 10.214223 4.389434 -7.886234
v 10.221451 4.365849 -7.860237
v 10.238492 4.397868 -7.835928
v 10.211719 4.387211 -7.803123
v 10.194678 4.355193 -7.827433
v 10.124616 4.397115 -7.870995
v 10.151388 4.407771 -7.903800
v 10.193295 4.369051 -7.882176
v 10.166522 4.358394 -7.849372
v 10.184708 4.470376 -7.856268
v 10.157934 4.459719 -7.823464
v 10.199841 4.420999 -7.801841
v 10.226615 4.431655 -7.834645
v 10.486847 4.260619 -7.995036
v 10.482616 4.342317 -7.961817
v 10.412778 4.275380 -8.040772
v 10.408546 4.357078 -8.007554
v 10.534719 4.290677 -8.062864
v 10.530489 4.372375 -8.029645
v 10.460650 4.305438 -8.108601
v 10.456420 4.387136 -8.075382
v 10.476554 4.267787 -7.978346
v 10.473608 4.324678 -7.955214
v 10.401531 4.339042 -7.999721
v 10.404477 4.282152 -8.022852
v 10.385973 4.299010 -8.066670
v 10.383027 4.355900 -8.043538
v 10.416364 4.376832 -8.090771
v 10.419310 4.319941 -8.113902
v 10.469659 4.323078 -8.115204
v 10.466713 4.379968 -8.092072
v 10.538790 4.365604 -8.047565
v 10.541736 4.308713 -8.070698
v 10.560240 4.291855 -8.026879
v 10.557294 4.348745 -8.003748
v 10.523957 4.327815 -7.956515
v 10.526903 4.270924 -7.979648
v 10.421806 4.264976 -8.056460
v 10.455143 4.285907 -8.103693
v 10.527221 4.271543 -8.059186
v 10.493884 4.250612 -8.011954
v 10.449383 4.397143 -8.058464
v 10.416046 4.376213 -8.011231
v 10.488124 4.361848 -7.966725
v 10.521460 4.382780 -8.013957
v 10.439329 4.206124 -7.848567
v 10.388752 4.274110 -7.823750
v 10.371346 4.171881 -7.893308
v 10.320769 4.239867 -7.868491
v 10.464153 4.250860 -7.920529
v 10.413577 4.318846 -7.895712
v 10.396171 4.216617 -7.965269
v 10.345593 4.284603 -7.940452
v 10.426249 4.207899 -7.832393
v 10.391029 4.255240 -7.815111
v 10.324875 4.221918 -7.858648
v 10.360094 4.174576 -7.875929
v 10.336752 4.173540 -7.920658
v 10.301533 4.220881 -7.903377
v 10.318819 4.252033 -7.953487
v 10.354038 4.204691 -7.970768
v 10.393893 4.235487 -7.973908
v 10.358674 4.282828 -7.956627
v 10.424829 4.316151 -7.913091
v 10.460048 4.268809 -7.930372
v 10.483390 4.269845 -7.885643
v 10.448171 4.317188 -7.868361
v 10.430884 4.286036 -7.818251
v 10.466104 4.238694 -7.835532
v 10.385172 4.166843 -7.908118
v 10.402459 4.197995 -7.958228
v 10.468614 4.231318 -7.914691
v 10.451327 4.200166 -7.864581
v 10.333595 4.290562 -7.924438
v 10.316309 4.259410 -7.874328
v 10.382464 4.292732 -7.830791
v 10.399751 4.323884 -7.880902
v 10.252509 4.172236 -7.734006
v 10.165343 4.186263 -7.732859
v 10.249834 4.162792 -7.821754
v 10.162668 4.176819 -7.820606
v 10.266326 4.258897 -7.743755
v 10.179160 4.272923 -7.742607
v 10.263651 4.249453 -7.831502
v 10.176485 4.263479 -7.830355
v 10.236741 4.158573 -7.733250
v 10.176044 4.168340 -7.732451
v 10.173440 4.159150 -7.817838
v 10.234138 4.149383 -7.818637
v 10.237490 4.173816 -7.862664
v 10.176792 4.183584 -7.861865
v 10.186414 4.243930 -7.868653
v 10.247111 4.234162 -7.869452
v 10.252951 4.267375 -7.831911
v 10.192252 4.277143 -7.831111
v 10.194856 4.286333 -7.745724
v 10.255553 4.276566 -7.746523
v 10.252201 4.252132 -7.702497
v 10.191504 4.261899 -7.701697
v 10.181882 4.201553 -7.694909
v 10.242580 4.191786 -7.695708
v 10.267725 4.173541 -7.822262
v 10.277347 4.233887 -7.829050
v 10.279950 4.243077 -7.743662
v 10.270329 4.182731 -7.736874
v 10.158665 4.252985 -7.827487
v 10.149044 4.192638 -7.820699
v 10.151647 4.201829 -7.735312
v 10.161268 4.262175 -7.742100
v 10.218500 4.337183 -7.923591
v 10.177199 4.456972 -7.915112
v 10.108294 4.302938 -7.976595
v 10.066994 4.422728 -7.968116
v 10.266212 4.361778 -8.038682
v 10.224911 4.481568 -8.030204
v 10.156006 4.327534 -8.091686
v 10.114705 4.447324 -8.083207
v 10.202123 4.350462 -7.902210
v 10.173363 4.433878 -7.896306
v 10.066121 4.400555 -7.947885
v 10.094881 4.317139 -7.953789
v 10.059527 4.309403 -8.016705
v 10.030767 4.392819 -8.010800
v 10.063992 4.409946 -8.090944
v 10.092751 4.326530 -8.096848
v 10.159842 4.350628 -8.110492
v 10.131083 4.434043 -8.104588
v 10.238324 4.467367 -8.053009
v 10.267084 4.383951 -8.058913
v 10.302438 4.391687 -7.995998
v 10.273678 4.475103 -7.990094
v 10.240454 4.457975 -7.909950
v 10.269214 4.374560 -7.915854
v 10.124487 4.285477 -7.994889
v 10.157710 4.302605 -8.075032
v 10.264952 4.335928 -8.023454
v 10.231729 4.318800 -7.943310
v 10.101477 4.465705 -8.063488
v 10.068254 4.448578 -7.983344
v 10.175495 4.481902 -7.931766
v 10.208718 4.499029 -8.011909
v 10.007848 4.306630 -8.360287
v 10.071754 4.297102 -8.374321
v 10.021053 4.325406 -8.312900
v 10.084960 4.315879 -8.326933
v 9.944208 4.409790 -8.480038
v 10.009171 4.402557 -8.490005
v 9.954006 4.438308 -8.436872
v 10.018970 4.431076 -8.446839
v 10.288442 4.083766 -8.327153
v 10.266251 4.020770 -8.318130
v 10.293303 4.017232 -8.273095
v 10.315325 4.077521 -8.282310
v 10.366605 3.992954 -8.338813
v 10.318304 3.946035 -8.336003
v 10.349769 3.914724 -8.307681
v 10.396498 3.959541 -8.311200
v 10.360263 3.952382 -8.371853
v 10.299536 3.924183 -8.364153
v 10.321983 3.878014 -8.352446
v 10.380358 3.904994 -8.360754
v 10.041437 4.104643 -8.264015
v 9.980412 4.114178 -8.257880
v 10.049686 4.105184 -8.212012
v 9.984643 4.119426 -8.205658
v 9.964220 4.048452 -8.255489
v 9.903574 4.060772 -8.260268
v 9.961628 4.041354 -8.203380
v 9.897158 4.058545 -8.208053
v 9.851008 4.004360 -8.408856
v 9.790376 4.016712 -8.413728
v 9.848320 3.997199 -8.356760
v 9.783865 4.014421 -8.361526
v 9.856997 4.037491 -8.534149
v 9.795878 4.048308 -8.533854
v 9.859551 4.033925 -8.481677
v 9.794514 4.049534 -8.481230
v 9.909140 4.221947 -8.247105
v 9.914625 4.284982 -8.264597
v 9.921804 4.237403 -8.196735
v 9.925283 4.300556 -8.216009
v 9.818395 4.224922 -8.258864
v 9.812533 4.286983 -8.279443
v 9.808985 4.243269 -8.208754
v 9.801870 4.304883 -8.231664
v 9.749561 4.219722 -8.276737
v 9.735662 4.278350 -8.302794
v 9.721904 4.235437 -8.232869
v 9.707630 4.293314 -8.261477
v 9.652083 4.175628 -8.346146
v 9.631987 4.225821 -8.383378
v 9.604843 4.179442 -8.319874
v 9.585773 4.228849 -8.359460
v 9.676845 4.138152 -8.386955
v 9.657030 4.182722 -8.430890
v 9.624778 4.132264 -8.373148
v 9.606678 4.176259 -8.419067
vn -0.3949 0.8215 0.4113
vn -0.1134 -0.2120 0.9707
vn -0.0345 -0.9926 0.1167
vn -0.3532 0.9233 -0.1511
vn -0.0427 0.9014 -0.4309
vn 0.9617 -0.1205 -0.2461
vn 0.0989 0.9683 0.2292
vn -0.0994 -0.9942 0.0400
vn -0.8995 0.0836 0.4289
vn 0.8714 -0.3238 0.3684
vn 0.3705 0.1004 0.9234
vn -0.1643 -0.9820 0.0930
vn -0.9398 -0.0217 -0.3410
vn -0.7656 0.6272 -0.1432
vn -0.6214 0.7645 -0.1714
vn -0.0914 0.6042 0.7916
vn 0.6805 0.4248 -0.5970
vn 0.3348 0.4986 0.7996
vn 0.1890 0.2565 0.9479
vn -0.0771 -0.9914 0.1053
vn -0.1384 -0.9863 0.0897
vn -0.3902 -0.9024 0.1829
vn -0.7719 -0.6137 0.1659
vn -0.9866 0.1519 0.0598
vn 0.5109 -0.2881 -0.8099
vn -0.7213 0.1211 0.6819
vn 0.2312 0.1053 0.9672
vn -0.0148 0.7623 0.6470
vn -0.2569 -0.2209 -0.9409
vn 0.7344 0.3696 0.5693
vn 0.3969 0.3442 -0.8509
vn 0.8652 0.4830 -0.1349
vn 0.9837 -0.0671 -0.1670
vn 0.9718 -0.1294 -0.1971
vn 0.4704 -0.6147 -0.6331
vn 0.0025 0.8478 -0.5303
vn 0.4856 0.8428 0.2321
vn -0.6775 -0.4258 0.5997
vn 0.2326 -0.9725 0.0155
vn -0.4037 0.4927 0.7709
vn 0.5211 -0.8477 -0.0988
vn -0.3829 -0.4089 0.8284
vn -0.4802 0.8675 0.1301
vn 0.4766 0.3845 -0.7906
vn -0.7676 0.6410 -0.0022
vn -0.9750 0.1951 0.1063
vn -0.2510 -0.1453 -0.9570
vn -0.5900 -0.7514 0.2954
vn -0.0575 -0.9360 0.3473
vn 0.3613 0.2233 0.9053
vn 0.1135 0.9454 -0.3055
vn 0.9777 -0.1332 -0.1621
vn -0.0758 -0.9553 0.2859
vn -0.9594 0.1905 0.2081
vn 0.0796 0.9517 -0.2965
vn 0.9566 -0.1566 -0.2459
vn 0.1713 -0.8646 -0.4724
vn -0.0729 -0.5124 0.8556
vn -0.0644 0.8683 0.4919
vn 0.1920 0.4970 -0.8462
vn -0.1366 -0.9880 -0.0726
vn -0.8493 -0.3255 0.4156
vn -0.4351 0.6059 -0.6660
vn 0.8881 0.3367 -0.3129
vn 0.4342 -0.5545 0.7099
vn -0.1414 -0.9718 0.1889
vn -0.9571 0.1032 0.2707
vn -0.0879 0.9920 -0.0910
vn 0.9528 -0.0811 -0.2924
vn -0.9488 0.1854 0.2559
vn 0.1634 0.9818 -0.0967
vn 0.9708 -0.1754 -0.1636
vn -0.1608 -0.9635 -0.2142
vn -0.9000 0.0468 0.4334
vn 0.3153 0.8974 0.3088
vn 0.9507 -0.0998 -0.2937
vn 0.2133 0.9080 0.3606
vn 0.9525 -0.1022 -0.2870
vn -0.1525 -0.9664 -0.2069
vn -0.8980 0.0850 0.4317
vn 0.2277 0.8868 0.4022
vn 0.9532 -0.1033 -0.2841
vn -0.0173 -0.9618 0.2734
vn -0.9738 0.0962 0.2063
vn 0.0365 0.9661 -0.2557
vn 0.9886 -0.0719 -0.1325
vn -0.0275 -0.9534 0.3005
vn -0.9741 0.0919 0.2064
vn 0.0408 0.9714 -0.2340
vn 0.9874 -0.0739 -0.1399
vn -0.6196 -0.7645 -0.1779
vn -0.5668 0.6356 -0.5241
vn 0.4715 0.8377 0.2756
vn 0.5783 -0.4681 0.6682
vn -0.7147 -0.3934 0.5783
vn -0.6298 0.7615 -0.1534
vn 0.6954 0.4668 -0.5464
vn 0.6853 -0.6995 0.2027
vn -0.7157 -0.5933 0.3684
vn -0.6982 0.6112 -0.3727
vn 0.7078 0.6327 -0.3142
vn 0.6291 -0.5366 0.5624
vn -0.7204 -0.5495 0.4231
vn -0.6969 0.5732 -0.4310
vn 0.6843 -0.4900 0.5400
vn -0.7343 -0.4644 0.4952
vn 0.4502 0.0769 0.8896
vn -0.8187 0.3741 0.4357
vn -0.5592 -0.1458 -0.8161
vn -0.1258 -0.9714 0.2012
vn -0.5061 -0.1116 -0.8552
vn -0.8573 -0.4757 0.1966
vn -0.5902 0.7971 -0.1276
vn 0.5346 0.4046 -0.7420
vn 0.2674 -0.8683 -0.4177
vn 0.7343 0.4644 -0.4952
vn -0.4502 -0.0769 -0.8896
vn 0.1258 0.9714 -0.2012
vn 0.5592 0.1458 0.8161
vn 0.8187 -0.3741 -0.4357
vn 0.5061 0.1116 0.8552
vn 0.8573 0.4757 -0.1966
vn -0.2674 0.8683 0.4177
vn -0.5346 -0.4046 0.7420
vn 0.5902 -0.7971 0.1276
vn 0.4524 -0.8786 -0.1531
vn -0.4712 -0.1765 -0.8642
vn 0.8532 -0.2094 -0.4776
vn 0.5383 0.0461 0.8415
vn -0.2713 -0.9206 0.2807
vn -0.4524 0.8786 0.1531
vn -0.5383 -0.0461 -0.8415
vn -0.8532 0.2094 0.4776
vn 0.4712 0.1765 0.8642
vn 0.2713 0.9206 -0.2807
vn -0.6132 -0.2441 0.7513
vn 0.6394 -0.6509 0.4091
vn -0.0955 0.4046 0.9095
vn -0.7304 0.6147 -0.2977
vn -0.6932 -0.7185 0.0568
vn -0.6868 0.6346 -0.3544
vn -0.8001 -0.0290 0.5991
vn 0.1509 0.8974 0.4147
vn 0.3622 0.4337 -0.8251
vn -0.5889 -0.4927 -0.6407
vn 0.6132 0.2441 -0.7513
vn -0.6394 0.6509 -0.4091
vn 0.6932 0.7185 -0.0568
vn 0.7304 -0.6147 0.2977
vn 0.0955 -0.4046 -0.9095
vn 0.6868 -0.6346 0.3544
vn 0.8001 0.0290 -0.5991
vn 0.5889 0.4927 0.6407
vn -0.3622 -0.4337 0.8251
vn -0.1509 -0.8974 -0.4147
vn -0.3903 -0.7333 -0.5567
vn -0.7139 0.5784 -0.3947
vn 0.2186 -0.2847 -0.9334
vn 0.6560 -0.6872 0.3121
vn -0.7205 -0.6585 0.2173
vn 0.3903 0.7333 0.5567
vn -0.6560 0.6872 -0.3121
vn -0.2186 0.2847 0.9334
vn 0.7139 -0.5784 0.3947
vn 0.7205 0.6585 -0.2173
vn -0.5422 -0.3404 0.7682
vn 0.7964 -0.1920 0.5736
vn -0.3854 0.4896 0.7821
vn -0.8768 0.1415 -0.4596
vn -0.3120 -0.9275 0.2059
vn -0.8389 0.1672 -0.5180
vn -0.7814 -0.2694 0.5630
vn -0.3129 0.9303 0.1914
vn 0.2464 0.3760 -0.8933
vn -0.2220 -0.8237 -0.5217
vn 0.5422 0.3404 -0.7682
vn -0.7963 0.1920 -0.5736
vn 0.3120 0.9275 -0.2059
vn 0.8768 -0.1415 0.4596
vn 0.3854 -0.4896 -0.7821
vn 0.8389 -0.1672 0.5180
vn 0.7814 0.2694 -0.5630
vn 0.2220 0.8237 0.5217
vn -0.2464 -0.3760 0.8933
vn 0.3129 -0.9303 -0.1914
vn 0.0479 -0.9253 -0.3762
vn -0.8330 0.0981 -0.5445
vn 0.4460 -0.3344 -0.8302
vn 0.8401 -0.2354 0.4887
vn -0.3844 -0.8558 0.3463
vn -0.0479 0.9253 0.3762
vn -0.8401 0.2354 -0.4887
vn -0.4460 0.3344 0.8302
vn 0.8330 -0.0981 0.5445
vn 0.3844 0.8558 -0.3463
vn -0.2812 -0.5067 0.8150
vn 0.7470 0.3492 0.5658
vn -0.6195 0.2638 0.7394
vn -0.7887 -0.4243 -0.4448
vn 0.2578 -0.9155 0.3089
vn -0.7700 -0.3878 -0.5067
vn -0.5120 -0.6039 0.6109
vn -0.7884 0.6062 0.1049
vn 0.0210 0.3566 -0.9340
vn 0.2974 -0.8535 -0.4280
vn 0.2812 0.5067 -0.8150
vn -0.7470 -0.3492 -0.5658
vn -0.2578 0.9155 -0.3089
vn 0.7887 0.4243 0.4449
vn 0.6195 -0.2638 -0.7394
vn 0.7700 0.3878 0.5067
vn 0.5120 0.6039 -0.6109
vn -0.2974 0.8535 0.4280
vn -0.0210 -0.3566 0.9340
vn 0.7884 -0.6062 -0.1048
vn 0.5728 -0.7700 -0.2811
vn -0.7253 -0.4439 -0.5262
vn 0.5837 -0.1072 -0.8049
vn 0.8103 0.3296 0.4845
vn 0.1531 -0.8832 0.4433
vn -0.5728 0.7700 0.2811
vn -0.8103 -0.3296 -0.4845
vn -0.5837 0.1072 0.8049
vn 0.7253 0.4439 0.5262
vn -0.1531 0.8832 -0.4433
vn -0.1565 -0.9815 0.1104
vn 0.0186 0.0339 0.9993
vn -0.8566 -0.5096 0.0810
vn -0.0418 -0.1795 -0.9829
vn 0.6553 -0.7529 0.0611
vn -0.0303 -0.1070 -0.9938
vn -0.1580 -0.9644 -0.2122
vn -0.9454 0.1165 -0.3045
vn 0.1387 0.8962 -0.4215
vn 0.9260 -0.1847 -0.3292
vn 0.1565 0.9815 -0.1104
vn -0.0186 -0.0339 -0.9993
vn -0.6553 0.7529 -0.0611
vn 0.0418 0.1795 0.9829
vn 0.8566 0.5096 -0.0810
vn 0.0303 0.1070 0.9938
vn 0.1580 0.9644 0.2122
vn -0.9260 0.1847 0.3292
vn -0.1387 -0.8962 0.4215
vn 0.9454 -0.1165 0.3045
vn 0.9872 -0.1589 -0.0130
vn 0.0430 -0.1185 -0.9920
vn 0.7547 0.6494 -0.0929
vn 0.1035 0.0949 0.9901
vn 0.5151 -0.8538 0.0762
vn -0.9872 0.1589 0.0130
vn -0.1035 -0.0949 -0.9901
vn -0.7547 -0.6494 0.0929
vn -0.0430 0.1185 0.9920
vn -0.5151 0.8538 -0.0762
vn -0.3757 -0.1937 0.9063
vn 0.8375 0.2545 0.4835
vn -0.4907 0.5978 0.6340
vn -0.8933 -0.2833 -0.3490
vn 0.0074 -0.8469 0.5317
vn -0.8678 -0.2697 -0.4174
vn -0.6328 -0.2695 0.7259
vn -0.5849 0.8081 -0.0698
vn 0.0794 0.0976 -0.9921
vn 0.0316 -0.9800 -0.1964
vn 0.3757 0.1937 -0.9063
vn -0.8375 -0.2545 -0.4835
vn -0.0074 0.8469 -0.5317
vn 0.8933 0.2833 0.3490
vn 0.4907 -0.5978 -0.6340
vn 0.8678 0.2697 0.4174
vn 0.6328 0.2695 -0.7259
vn -0.0316 0.9800 0.1964
vn -0.0794 -0.0976 0.9921
vn 0.5849 -0.8081 0.0698
vn 0.3252 -0.9433 -0.0668
vn -0.8413 -0.3389 -0.4212
vn 0.4969 -0.4583 -0.7369
vn 0.8895 0.1989 0.4113
vn -0.0785 -0.7550 0.6511
vn -0.3252 0.9433 0.0668
vn -0.8895 -0.1989 -0.4113
vn -0.4969 0.4583 0.7369
vn 0.8413 0.3389 0.4212
vn 0.0785 0.7550 -0.6511
vn 0.9252 0.1852 -0.3312
vn 0.2359 0.1741 0.9561
vn 0.9176 0.2085 -0.3383
vn -0.9332 -0.1814 0.3101
vn 0.0080 0.8335 -0.5525
vn -0.9249 -0.1850 0.3322
vn 0.1794 0.7737 0.6076
vn -0.2431 -0.7787 -0.5784
vn 0.3532 0.0140 0.9354
vn 0.0241 0.2723 0.9619
vn 0.0543 -0.1603 -0.9856
vn 0.5701 0.7553 -0.3234
vn -0.7553 -0.1923 0.6265
vn -0.7935 -0.5350 0.2901
vn 0.6949 0.6402 -0.3274
vn -0.1696 0.1159 -0.9787
vn -0.0147 -0.2339 -0.9722
vn 0.8049 0.2940 -0.5155
vn -0.4303 0.8292 -0.3568
vn 0.6275 -0.6170 0.4748
vn -0.5702 0.8207 -0.0363
vn 0.6530 -0.7489 -0.1127
vn 0.2976 0.7298 0.6155
vn -0.1823 -0.7909 -0.5842
vn -0.2610 -0.8592 0.4401
vn 0.5803 -0.8101 -0.0836
vn 0.0973 0.0004 0.9953
vn 0.0677 -0.0529 -0.9963
vn -0.2265 -0.9288 -0.2934
vn 0.2135 0.8859 -0.4119
vn -0.3580 0.9337 -0.0042
vn 0.4716 -0.8765 -0.0962
vn -0.2334 -0.9708 -0.0546
vn 0.1696 0.9512 0.2580
vn 0.9817 0.1407 0.1286
vn -0.8952 0.4396 0.0735
vn -0.0860 0.2952 0.9516
vn -0.3516 -0.2218 -0.9095
vn 0.2457 0.9061 -0.3443
vn -0.2522 -0.9041 0.3449
vn 0.3081 -0.3244 -0.8943
vn 0.1315 -0.3008 -0.9446
vn 0.0736 0.9449 -0.3190
vn -0.0737 -0.9409 0.3307
vn -0.1508 0.9015 -0.4056
vn -0.0063 0.9388 -0.3443
vn -0.0175 -0.9399 0.3409
vn -0.2795 0.3061 0.9100
vn -0.9230 -0.3847 -0.0047
vn 0.1235 -0.9069 0.4028
vn -0.6451 0.2048 0.7362
vn 0.6700 -0.2502 -0.6989
vn -0.1004 -0.7207 -0.6859
vn 0.9004 0.4260 0.0882
vn -0.3130 0.6551 -0.6877
vn 0.2654 -0.6245 0.7345
vn -0.2387 0.9270 0.2893
vn 0.9612 -0.1350 -0.2405
vn 0.1622 0.9748 0.1530
vn -0.9251 0.0160 0.3793
vn -0.9399 -0.1289 0.3161
vn 0.6556 -0.6948 -0.2958
vn -0.2650 -0.2271 -0.9371
vn 0.2555 0.4964 -0.8296
vn 0.1888 -0.8630 -0.4687
vn 0.1728 0.8547 -0.4895
vn 0.8270 0.4210 0.3727
vn -0.5065 -0.1590 0.8475
vn 0.8133 -0.2029 0.5453
vn 0.3730 0.1148 0.9207
vn 0.4948 -0.8690 -0.0075
vn -0.4293 -0.3607 0.8280
vn -0.7739 0.6324 -0.0335
vn -0.9606 0.1294 0.2460
vn -0.2341 -0.1566 -0.9595
vn -0.5900 -0.7514 0.2955
vn -0.1283 -0.9453 0.2999
vn 0.3560 0.2548 0.8991
vn 0.0552 0.9364 -0.3467
vn 0.9466 -0.2296 -0.2265
vn -0.0800 -0.9521 0.2952
vn -0.9761 0.1355 0.1702
vn 0.0744 0.9555 -0.2855
vn -0.0852 -0.4933 0.8657
vn -0.0572 0.8745 0.4816
vn -0.9005 -0.2775 0.3348
vn 0.8992 0.3199 -0.2985
vn 0.2579 -0.5800 0.7727
vn -0.9194 0.1935 0.3425
vn 0.2015 0.9760 0.0823
vn 0.1679 0.9578 0.2335
vn 0.9536 -0.0959 -0.2855
vn -0.1591 -0.9648 -0.2095
vn -0.8885 0.0371 0.4573
vn 0.1964 0.9013 0.3862
vn 0.9526 -0.0927 -0.2898
vn -0.0302 -0.9574 0.2873
vn -0.9748 0.0911 0.2035
vn 0.0269 0.9699 -0.2421
vn 0.9845 -0.0982 -0.1454
vn -0.5967 -0.7851 -0.1658
vn -0.6351 0.5650 -0.5267
vn 0.5476 0.7747 0.3163
vn 0.4369 -0.6107 0.6604
vn -0.6734 -0.4342 0.5983
vn -0.6846 0.7192 -0.1189
vn 0.7268 0.4356 -0.5310
vn 0.6579 -0.7203 0.2200
vn -0.7365 -0.5954 0.3210
vn -0.6468 0.6148 -0.4513
vn 0.6935 -0.5413 0.4755
vn -0.7343 -0.4644 0.4951
vn -0.6932 -0.7185 0.0569
vn -0.7964 0.1920 -0.5736
vn -0.7887 -0.4243 -0.4449
vn -0.7884 0.6062 0.1048
vn 0.1034 0.0949 0.9901
vn -0.1034 -0.0949 -0.9901
vn -0.0430 0.1184 0.9920
vn 0.9250 0.1847 -0.3320
vn 0.2637 0.1573 0.9517
vn 0.9079 0.1697 -0.3832
vn -0.9306 -0.1673 0.3256
vn -0.9251 -0.1856 0.3313
vn 0.2451 0.7630 0.5981
vn -0.1779 -0.7903 -0.5863
vn 0.2482 -0.1841 0.9510
vn -0.0211 0.1586 0.9871
vn 0.0181 -0.2615 -0.9650
vn 0.5869 0.7719 -0.2443
vn -0.7389 -0.1958 0.6447
vn -0.7130 -0.5880 0.3821
vn 0.7961 0.5853 -0.1535
vn -0.2181 -0.0627 -0.9739
vn -0.0198 -0.2548 -0.9668
vn 0.8238 0.2278 -0.5191
vn -0.5834 0.5657 -0.5827
vn 0.4310 -0.8103 0.3970
vn -0.5696 0.8211 -0.0350
vn 0.6596 -0.7453 -0.0969
vn 0.2235 0.7349 0.6403
vn -0.2516 -0.7874 -0.5628
vn -0.2620 -0.8588 0.4403
vn 0.5797 -0.8108 -0.0816
vn -0.0598 0.0467 0.9971
vn -0.1017 -0.0111 -0.9947
vn -0.2251 -0.9294 -0.2926
vn 0.2125 0.8862 -0.4116
vn -0.3583 0.9336 -0.0037
vn 0.4715 -0.8766 -0.0959
vn -0.1742 -0.9845 0.0184
vn 0.1727 0.9502 0.2595
vn 0.9972 -0.0692 0.0275
vn -0.9712 0.2377 -0.0174
vn -0.1069 0.3356 0.9359
vn -0.3565 -0.1939 -0.9139
vn 0.2456 0.9043 -0.3491
vn -0.2522 -0.9055 0.3413
vn 0.2610 -0.2815 -0.9234
vn 0.1147 -0.2749 -0.9546
vn 0.0674 0.9392 -0.3368
vn -0.0824 -0.9468 0.3112
vn -0.1326 0.8997 -0.4158
vn 0.0013 0.9365 -0.3506
vn -0.0074 -0.9429 0.3331
vn -0.3213 0.3547 0.8780
vn -0.9314 -0.3640 -0.0055
vn 0.1441 -0.9090 0.3911
vn -0.6866 0.2744 0.6733
vn 0.6248 -0.1886 -0.7577
vn -0.0648 -0.7332 -0.6769
vn 0.8736 0.4781 0.0910
vn -0.2520 0.6470 -0.7197
vn 0.3331 -0.6406 0.6919
vt 0.497514 0.726474
vt 0.525377 0.761394
vt 0.496575 0.766773
vt 0.962315 0.809181
vt 0.935471 0.830330
vt 0.928838 0.809181
vt 0.786467 0.840733
vt 0.796609 0.873411
vt 0.762259 0.840686
vt 0.135981 0.777643
vt 0.131955 0.741907
vt 0.155980 0.743940
vt 0.160966 0.783499
vt 0.611439 0.670638
vt 0.615383 0.600528
vt 0.637182 0.614536
vt 0.138206 0.827864
vt 0.175876 0.837189
vt 0.106658 0.169956
vt 0.077800 0.159966
vt 0.104233 0.102758
vt 0.117552 0.791600
vt 0.919143 0.879216
vt 0.904801 0.889725
vt 0.901755 0.871735
vt 0.929561 0.809181
vt 0.929998 0.786524
vt 0.967142 0.790864
vt 0.126040 0.112850
vt 0.378121 0.599905
vt 0.387108 0.551053
vt 0.406637 0.609963
vt 0.419768 0.540907
vt 0.453063 0.556386
vt 0.937411 0.724794
vt 0.958569 0.758150
vt 0.928838 0.751839
vt 0.929734 0.086158
vt 0.971548 0.086158
vt 0.963766 0.128117
vt 0.525377 0.817207
vt 0.535816 0.828390
vt 0.525377 0.828785
vt 0.464112 0.780130
vt 0.455510 0.788878
vt 0.455510 0.780220
vt 0.056584 0.216418
vt 0.093946 0.229352
vt 0.030848 0.280643
vt 0.073752 0.298816
vt 0.111846 0.242142
vt 0.122697 0.274127
vt 0.671198 0.959012
vt 0.638271 0.989322
vt 0.638271 0.942541
vt 0.309939 0.994835
vt 0.302473 0.973712
vt 0.309939 0.955428
vt 0.235219 0.799838
vt 0.248173 0.813157
vt 0.235219 0.813017
vt 0.866423 0.833849
vt 0.885109 0.826165
vt 0.880489 0.837216
vt 0.440673 0.224648
vt 0.400623 0.275472
vt 0.393827 0.229876
vt 0.234059 0.911958
vt 0.255280 0.898364
vt 0.254379 0.911958
vt 0.868466 0.341786
vt 0.838183 0.302443
vt 0.860699 0.287499
vt 0.632823 0.548652
vt 0.606802 0.560365
vt 0.656223 0.554046
vt 0.890148 0.303843
vt 0.437958 0.628885
vt 0.912132 0.677411
vt 0.890571 0.706336
vt 0.873679 0.667565
vt 0.630515 0.762989
vt 0.661913 0.783800
vt 0.636453 0.782819
vt 0.038727 0.222680
vt 0.651297 0.755543
vt 0.665729 0.744615
vt 0.475103 0.770568
vt 0.455510 0.703057
vt 0.469568 0.695885
vt 0.644374 0.732998
vt 0.676133 0.678585
vt 0.495263 0.639370
vt 0.523050 0.717290
vt 0.233704 0.977981
vt 0.261208 0.977981
vt 0.753399 0.467215
vt 0.726215 0.516438
vt 0.690956 0.504184
vt 0.767067 0.437505
vt 0.786951 0.484438
vt 0.340915 0.256338
vt 0.662587 0.191848
vt 0.583104 0.070512
vt 0.604952 0.040093
vt 0.057332 0.332728
vt 0.000000 0.348953
vt 0.015550 0.314639
vt 0.795253 0.000000
vt 0.776927 0.100482
vt 0.748509 0.005227
vt 0.391897 0.644400
vt 0.405811 0.695885
vt 0.372955 0.675919
vt 0.923886 0.926941
vt 0.888706 0.966527
vt 0.885716 0.929969
vt 0.361788 0.634127
vt 0.924820 0.889725
vt 0.886649 0.892753
vt 0.360396 0.903380
vt 0.330684 0.827577
vt 0.353638 0.819591
vt 0.643338 0.869608
vt 0.676133 0.871253
vt 0.514825 0.830588
vt 0.838183 0.433765
vt 0.871593 0.426300
vt 0.525377 0.743904
vt 0.543693 0.646052
vt 0.543693 0.753743
vt 0.161502 0.629277
vt 0.175876 0.630493
vt 0.556723 0.437505
vt 0.885109 0.923673
vt 0.134075 0.093225
vt 0.114084 0.083974
vt 0.901904 0.241605
vt 0.913632 0.258409
vt 0.899739 0.262289
vt 0.916982 0.238849
vt 0.934432 0.262289
vt 0.643009 0.529254
vt 0.151659 0.012330
vt 0.164721 0.018374
vt 0.910158 0.162711
vt 0.920011 0.160910
vt 0.930672 0.163250
vt 0.933300 0.242429
vt 0.674196 0.453533
vt 0.659956 0.533167
vt 0.169995 0.005493
vt 0.158125 -0.000000
vt 0.920532 0.147497
vt 0.911579 0.149134
vt 0.930220 0.149623
vt 0.676647 0.439828
vt 0.663123 0.450977
vt 0.666585 0.437505
vt 0.782965 0.820877
vt 0.762130 0.820837
vt 0.912532 0.118773
vt 0.899739 0.147497
vt 0.899776 0.130267
vt 0.893827 0.850839
vt 0.885716 0.870373
vt 0.922596 0.858451
vt 0.905409 0.852394
vt 0.779879 0.803376
vt 0.762016 0.803342
vt 0.899808 0.115080
vt 0.925492 0.110439
vt 0.910744 0.105226
vt 0.925640 0.840148
vt 0.910905 0.834955
vt 0.777001 0.785801
vt 0.761842 0.784289
vt 0.909296 0.095433
vt 0.899739 0.099756
vt 0.226583 0.815042
vt 0.235219 0.802656
vt 0.235219 0.820153
vt 0.915776 0.820381
vt 0.766998 0.764072
vt 0.902188 0.080471
vt 0.922264 0.082026
vt 0.910828 0.080613
vt 0.921836 0.800492
vt 0.910541 0.804748
vt 0.787540 0.733070
vt 0.780730 0.766869
vt 0.914004 0.046078
vt 0.923497 0.047251
vt 0.899895 0.771562
vt 0.909270 0.768029
vt 0.776142 0.730748
vt 0.793167 0.705140
vt 0.910671 0.017443
vt 0.916629 0.017541
vt 0.924515 0.018515
vt 0.891097 0.744137
vt 0.898886 0.741202
vt 0.794912 0.696479
vt 0.783698 0.703211
vt 0.786041 0.694672
vt 0.917443 0.008691
vt 0.911862 0.008600
vt 0.888369 0.735633
vt 0.788319 0.686368
vt 0.913019 -0.000000
vt 0.918234 0.000085
vt 0.924831 0.009604
vt 0.892535 0.724794
vt 0.885716 0.727363
vt 0.219032 0.218261
vt 0.228948 0.232981
vt 0.381455 0.450141
vt 0.226016 0.799838
vt 0.246274 0.722404
vt 0.265345 0.796389
vt 0.961127 0.888901
vt 0.945811 0.902327
vt 0.266067 0.139555
vt 0.432349 0.361882
vt 0.441378 0.369147
vt 0.254388 0.629277
vt 0.265345 0.632658
vt 0.210635 0.212049
vt 0.258823 0.133181
vt 0.737984 0.929957
vt 0.706048 0.955598
vt 0.706048 0.923437
vt 0.463829 0.523621
vt 0.431766 0.508588
vt 0.919194 0.641477
vt 0.885495 0.632849
vt 0.929392 0.768404
vt 0.735293 0.899532
vt 0.707476 0.893853
vt 0.473671 0.493667
vt 0.445744 0.480573
vt 0.896298 0.601111
vt 0.930538 0.902327
vt 0.963399 0.920531
vt 0.929257 0.920416
vt 0.175395 0.954739
vt 0.169323 0.982669
vt 0.169323 0.949059
vt 0.934998 0.988791
vt 0.928838 0.957936
vt 0.934998 0.955629
vt 0.065851 0.919221
vt 0.060151 0.891033
vt 0.065851 0.885147
vt 0.963924 0.928766
vt 0.928838 0.928648
vt 0.361788 0.981592
vt 0.384438 0.955538
vt 0.384438 0.979266
vt 0.311779 0.911466
vt 0.326333 0.937155
vt 0.309939 0.937443
vt 0.407247 0.951522
vt 0.423998 0.981355
vt 0.407247 0.986684
vt 0.288769 0.985344
vt 0.302473 0.955428
vt 0.302473 0.990609
vt 0.311779 0.961170
vt -0.000000 0.975166
vt 0.032879 0.950667
vt 0.032822 0.975166
vt 0.968125 0.203800
vt 0.974186 0.232207
vt 0.968125 0.237875
vt 0.175876 0.916789
vt 0.169323 0.947800
vt 0.169323 0.914638
vt 0.065866 0.952832
vt 0.060151 0.923488
vt 0.065866 0.919221
vt 0.035072 0.980559
vt 0.001343 0.980559
vt 0.266067 0.955428
vt 0.288769 0.981555
vt 0.266067 0.978832
vt 0.962315 0.867144
vt 0.979058 0.896989
vt 0.962315 0.902325
vt 0.384438 0.985003
vt 0.397619 0.955538
vt 0.397619 0.990700
vt 0.407247 0.927400
vt 0.424364 0.901817
vt 0.422524 0.927795
vt 0.424364 0.951522
vt 0.964681 0.953586
vt 0.929257 0.936948
vt 0.963399 0.937063
vt 0.980440 0.209225
vt 0.974186 0.236498
vt 0.974186 0.203800
vt 0.003302 0.986963
vt 0.967784 0.722229
vt 0.961901 0.695264
vt 0.967784 0.689394
vt 0.940102 0.986157
vt 0.964585 0.953585
vt 0.964585 0.985856
vt 0.073985 0.983946
vt 0.079986 0.957010
vt 0.079986 0.989708
vt 0.985240 0.871566
vt 0.979058 0.899979
vt 0.979058 0.867144
vt 0.955585 0.722216
vt 0.961901 0.690475
vt 0.961901 0.724204
vt 0.005745 0.929339
vt 0.042080 0.950286
vt 0.000000 0.950667
vt 0.533816 0.850054
vt 0.523890 0.872360
vt 0.513895 0.875823
vt 0.047825 0.928958
vt 0.004925 0.918786
vt 0.048168 0.918395
vt 0.741302 0.993228
vt 0.749415 0.956855
vt 0.749415 0.999845
vt 0.537762 0.908008
vt 0.528150 0.912456
vt 0.955585 0.689686
vt 0.925651 0.720566
vt 0.925651 0.689394
vt 0.972931 0.935005
vt 0.984198 0.955845
vt 0.964681 0.965633
vt 0.964681 0.902327
vt 0.989944 0.934517
vt 0.337387 0.944969
vt 0.349943 0.913717
vt 0.359569 0.944923
vt 0.330684 0.967342
vt 0.349943 0.977052
vt 0.802445 0.955224
vt 0.841552 0.929369
vt 0.845113 0.955224
vt 0.065914 0.957010
vt 0.073985 0.993225
vt 0.065914 1.000000
vt 0.842736 0.919203
vt 0.798885 0.929369
vt 0.798889 0.919203
vt 0.543617 0.394453
vt 0.538733 0.371280
vt 0.543617 0.361882
vt 0.534816 0.917624
vt 0.524269 0.959494
vt 0.524269 0.916823
vt 0.492553 0.837633
vt 0.504792 0.855412
vt 0.478681 0.855577
vt 0.825255 0.955224
vt 0.846519 0.986103
vt 0.825255 0.992705
vt 0.169299 0.947316
vt 0.141531 0.924426
vt 0.161049 0.914638
vt 0.141531 0.968509
vt 0.161049 0.977944
vt 0.476397 0.876060
vt 0.492553 0.916823
vt 0.504793 0.881010
vt 0.518664 0.916658
vt 0.117265 0.833999
vt 0.109663 0.795935
vt 0.117265 0.789234
vt 0.513751 0.917727
vt 0.478681 0.881175
vt 0.047825 0.907902
vt 0.000000 0.885527
vt 0.042080 0.885147
vt 0.999998 0.093011
vt 0.992057 0.130923
vt 0.992057 0.086158
vt 0.538733 0.422440
vt 0.542875 0.394453
vt 0.542875 0.431952
vt 0.799705 0.908688
vt 0.584198 0.734195
vt 0.566784 0.782077
vt 0.547350 0.733310
vt 0.597008 0.726796
vt 0.544093 0.725525
vt 0.616980 0.776911
vt 0.036124 0.986518
vt 0.047330 0.950667
vt 0.047330 0.994841
vt 0.601921 0.893554
vt 0.664102 0.878670
vt 0.664962 0.893554
vt 0.372942 0.901817
vt 0.413940 0.871179
vt 0.416693 0.901817
vt 0.705100 0.907406
vt 0.678008 0.933072
vt 0.676647 0.893853
vt 0.424616 0.844104
vt 0.370190 0.871179
vt 0.361788 0.844104
vt 0.993565 0.054469
vt 0.965436 0.002964
vt 0.993565 -0.000000
vt 0.706048 0.934716
vt 0.676647 0.982465
vt 0.068106 0.877051
vt 0.027094 0.832546
vt 0.068106 0.824451
vt 0.845113 0.908688
vt 0.856531 0.946572
vt 0.845113 0.952863
vt 0.014073 0.828099
vt 0.027094 0.885147
vt 0.014073 0.882153
vt 0.072969 0.816473
vt 0.965122 0.428141
vt 0.979629 0.377788
vt 0.979629 0.430680
vt 0.603632 0.671523
vt 0.547350 0.697288
vt 0.566784 0.670638
vt 0.019589 0.797330
vt 0.624917 0.688524
vt 0.601700 0.993383
vt 0.572884 0.946211
vt 0.601700 0.943971
vt 0.663377 0.942540
vt 0.602859 0.908142
vt 0.664204 0.908143
vt 0.997290 0.965155
vt 0.989943 0.912632
vt 0.997290 0.902327
vt 0.994497 0.430404
vt 0.406983 0.966529
vt 0.397619 0.993353
vt 0.397619 0.955538
vt 0.414415 0.835542
vt 0.374409 0.791569
vt 0.418160 0.791569
vt 0.370664 0.835542
vt 0.630515 0.770656
vt 0.630515 0.695238
vt -0.000000 0.878920
vt 0.691688 0.798785
vt 0.730601 0.837692
vt 0.676771 0.833443
vt 0.989891 0.526678
vt 0.997679 0.580786
vt 0.989891 0.588585
vt 0.981120 0.775710
vt 0.967142 0.729528
vt 0.981120 0.725729
vt 0.989964 0.862501
vt 0.996754 0.809181
vt 0.996754 0.868239
vt 0.676647 0.847899
vt 0.731965 0.852266
vt 0.736201 0.797496
vt 0.682518 0.770530
vt 0.723623 0.769242
vt 0.471005 0.806940
vt 0.424616 0.841339
vt 0.446037 0.791568
vt 0.965122 0.435071
vt 0.935238 0.386668
vt 0.965122 0.376672
vt 0.676647 0.742874
vt 0.735677 0.741023
vt 0.456088 0.841598
vt 0.446037 0.879831
vt 0.723623 0.733320
vt 0.695096 0.687656
vt 0.736201 0.686368
vt 0.175298 0.900424
vt 0.113500 0.914638
vt 0.113585 0.900424
vt 0.227796 0.890846
vt 0.175876 0.890963
vt 0.236833 0.880165
vt 0.748602 0.692773
vt 0.177825 0.863836
vt 0.220273 0.823598
vt 0.220273 0.856318
vt 0.967547 0.287499
vt 0.993164 0.342953
vt 0.967547 0.345898
vt 0.962315 0.862967
vt 0.989964 0.809181
vt 0.989964 0.867144
vt 0.236833 0.833178
vt 0.745518 0.893853
vt 0.676771 0.862799
vt 0.730601 0.867049
vt 0.761842 0.774455
vt 0.753740 0.781598
vt 0.761842 0.699247
vt 0.248071 0.838907
vt 0.115822 0.887189
vt 0.172378 0.846674
vt 0.175876 0.887189
vt 0.847069 0.985977
vt 0.856531 0.952863
vt 0.856531 0.997277
vt 0.995774 0.773431
vt 0.827219 0.314640
vt 0.838021 0.272289
vt 0.838021 0.319275
vt 0.860015 0.884613
vt 0.798885 0.841707
vt 0.860015 0.841031
vt 0.998362 0.287154
vt 0.987079 0.233648
vt 0.998362 0.224085
vt 0.799056 0.896204
vt 0.861875 0.895509
vt 0.676391 0.888251
vt 0.664962 0.941707
vt 0.664962 0.878670
vt 0.861875 0.832923
vt 0.799056 0.833618
vt 0.309939 0.911466
vt 0.266067 0.955428
vt 0.266067 0.911532
vt 0.857609 0.978604
vt 0.885109 0.924027
vt 0.885109 0.986614
vt 0.935238 0.333069
vt 0.967547 0.363189
vt 0.939193 0.376672
vt 0.967547 0.301094
vt 0.939193 0.287499
vt 0.967801 0.640741
vt 0.997598 0.601111
vt 0.997598 0.650584
vt 0.327930 0.851444
vt 0.269552 0.819591
vt 0.330684 0.819711
vt 0.993961 0.500542
vt 0.982611 0.447120
vt 0.993961 0.437505
vt 0.266797 0.851323
vt 0.328889 0.866247
vt 0.266067 0.866123
vt 0.536809 0.763320
vt 0.525377 0.816812
vt 0.525377 0.753743
vt 0.538239 0.940185
vt 0.553125 0.878670
vt 0.553125 0.940978
vt 0.109663 0.957010
vt 0.065914 0.913067
vt 0.109663 0.913092
vt 0.951503 0.482721
vt 0.982611 0.437505
vt 0.978656 0.483075
vt 0.982611 0.526678
vt 0.141531 0.925005
vt 0.112325 0.977224
vt 0.112325 0.914638
vt 0.967801 0.652385
vt 0.993813 0.685035
vt 0.967801 0.701858
vt 0.567736 0.939696
vt 0.601921 0.883339
vt 0.601921 0.943971
vt 0.980689 0.086158
vt 0.992057 0.139651
vt 0.980689 0.149160
vt 0.989891 0.589504
vt 0.978484 0.536149
vt 0.989891 0.526678
vt 0.861884 0.822797
vt 0.327929 0.881103
vt 0.269552 0.911345
vt 0.266797 0.880982
vt 0.741302 0.947312
vt 0.752725 0.893853
vt 0.752725 0.956855
vt 0.800754 0.908688
vt 0.992085 0.158617
vt 0.980689 0.211986
vt 0.980689 0.149160
vt 0.809506 0.761910
vt 0.877228 0.822797
vt 0.801018 0.822797
vt 0.048168 0.885147
vt 0.060151 0.959506
vt 0.048168 0.974821
vt 0.885716 0.761910
vt 0.802327 0.744268
vt 0.880643 0.744268
vt 0.467293 0.958151
vt 0.474787 0.879831
vt 0.474787 0.969026
vt 0.363572 0.717013
vt 0.446678 0.695885
vt 0.446364 0.717013
vt 0.083740 0.789234
vt 0.011802 0.756356
vt 0.073912 0.756356
vt 0.205837 0.898364
vt 0.233704 0.965657
vt 0.205837 0.986648
vt 0.796609 0.963788
vt 0.753428 0.887032
vt 0.796609 0.873411
vt 0.000000 0.714228
vt 0.089194 0.714228
vt 0.424616 0.879831
vt 0.467293 0.951050
vt 0.424616 0.960133
vt 0.011106 0.704651
vt 0.081588 0.629277
vt 0.073217 0.704651
vt 0.621151 0.878670
vt 0.541285 0.861080
vt 0.626488 0.861080
vt 0.825982 0.433765
vt 0.748509 0.420248
vt 0.838183 0.420248
vt 0.097797 0.636770
vt 0.828065 0.383791
vt 0.759625 0.334679
vt 0.822070 0.334679
vt 0.765621 0.383791
vt 0.934432 0.147497
vt 0.968125 0.226476
vt 0.934432 0.237875
vt 0.925651 0.678164
vt 0.967801 0.601111
vt 0.967801 0.689394
vt 0.175876 0.954282
vt 0.205837 0.900648
vt 0.205837 0.980949
vt 0.455510 0.791569
vt 0.361788 0.737221
vt 0.442354 0.737221
vt 0.107577 0.720355
vt 0.103308 0.761442
vt 0.745518 0.798785
vt 0.761375 0.861758
vt 0.745518 0.869837
vt 0.547603 0.845866
vt 0.628532 0.782963
vt 0.630515 0.845866
vt 0.972039 0.274089
vt 0.987079 0.237875
vt 0.987079 0.287154
vt 0.875095 0.724794
vt 0.249018 0.858882
vt 0.265345 0.799838
vt 0.265345 0.870890
vt 0.324760 0.472031
vt 0.302191 0.361882
vt 0.361788 0.473401
vt 0.226016 0.799803
vt 0.175876 0.755117
vt 0.217576 0.734772
vt 0.348480 0.538712
vt 0.909812 0.287499
vt 0.914511 0.336568
vt 0.890148 0.319831
vt 0.601921 0.979445
vt 0.638272 0.948569
vt 0.638272 0.985474
vt 0.935238 0.407263
vt 0.912566 0.433277
vt 0.183397 0.648839
vt 0.226016 0.629277
vt 0.346767 0.302563
vt 0.266067 0.315418
vt 0.518797 0.560352
vt 0.492783 0.639370
vt 0.476397 0.541890
vt 0.538733 0.388056
vt 0.499214 0.361882
vt 0.455833 0.070207
vt 0.503737 0.074798
vt 0.322758 0.685509
vt 0.313058 0.527460
vt 0.798885 0.955224
vt 0.825255 0.992400
vt 0.798885 0.988938
vt 0.544093 0.032217
vt 0.548488 -0.000000
vt 0.353360 0.706291
vt 0.299572 0.766109
vt 0.503503 0.000000
vt 0.544093 0.025329
vt 0.513751 0.918991
vt 0.476411 0.964962
vt 0.476397 0.916823
vt 0.312682 0.801283
vt 0.267834 0.782429
vt 0.951503 0.574203
vt 0.978484 0.546651
vt 0.972483 0.593810
vt 0.561314 0.949560
vt 0.538238 0.986733
vt 0.538238 0.943971
vt 0.676647 0.578978
vt 0.687970 0.211412
vt 0.633157 0.215260
vt 0.923982 0.467892
vt 0.873679 0.499252
vt 0.884608 0.437505
vt 0.446619 0.267779
vt 0.490384 0.246295
vt 0.494844 0.290347
vt 0.748509 0.283020
vt 0.651913 0.347887
vt 0.732815 0.237895
vt 0.719558 0.191721
vt 0.700163 0.251608
vt 0.912354 0.527011
vt 0.883237 0.576373
vt 0.542849 0.290158
vt 0.544093 0.334185
vt 0.667550 0.393032
vt 0.576486 0.380069
vt 0.923982 0.451206
vt 0.951503 0.564580
vt 0.923982 0.578342
vt 0.713844 0.582142
vt 0.761681 0.683284
vt 0.619261 0.361542
vt 0.595281 0.423934
vt 0.544093 0.396747
vt 0.072969 0.818167
vt 0.102565 0.913067
vt 0.072969 0.901912
vt 0.980689 0.120274
vt 0.971548 0.167042
vt 0.972249 0.086158
vt 0.102351 0.825678
vt 0.109662 0.877253
vt 0.823889 0.098747
vt 0.780993 0.180686
vt 0.827543 0.437505
vt 0.846264 0.533539
vt 0.799781 0.530575
vt 0.965436 0.079641
vt 0.930141 0.011285
vt 0.965436 -0.000000
vt 0.137702 0.400986
vt 0.046207 0.369362
vt 0.798885 0.602668
vt 0.847956 0.645781
vt 0.804068 0.656108
vt 0.844777 0.597717
vt 0.899739 0.028338
vt 0.843014 0.062245
vt 0.875604 -0.000000
vt 0.211984 0.422624
vt 0.182053 0.446933
vt 0.827219 0.122030
vt 0.867320 0.227791
vt 0.837053 0.240115
vt 0.860369 0.129233
vt 0.210235 0.486830
vt 0.827219 0.186355
vt 0.777517 0.241842
vt 0.260122 0.573698
vt 0.217846 0.629277
vt 0.216315 0.595082
vt 0.246719 0.473946
vt 0.223252 0.568181
vt 0.821801 0.252351
vt 0.748509 0.321289
vt 0.873679 0.710799
vt 0.834681 0.724794
vt 0.971636 0.276025
vt 0.934432 0.244318
vt 0.972039 0.237875
vt 0.405971 0.913207
vt 0.361788 0.950239
vt 0.361788 0.901817
vt 0.874270 0.272289
vt 0.184304 0.580449
vt 0.583122 0.653528
vt 0.119109 0.846674
vt 0.967142 0.731105
vt 0.535816 0.816812
vt 0.464112 0.788788
vt 0.117405 0.733928
vt 0.665482 0.985966
vt 0.248173 0.799977
vt 0.871043 0.822797
vt 0.234960 0.898364
vt 0.842656 0.347553
vt 0.888909 0.347720
vt 0.476397 0.585009
vt 0.925651 0.696433
vt 0.067628 0.208941
vt 0.455510 0.780130
vt 0.658051 0.670638
vt 0.476397 0.646155
vt 0.798885 0.457719
vt 0.421318 0.662403
vt 0.924820 0.964685
vt 0.330684 0.913718
vt 0.476397 0.837468
vt 0.533422 0.639370
vt 0.544093 0.445186
vt 0.861884 0.924027
vt 0.914560 0.134143
vt 0.929734 0.124854
vt 0.226016 0.799838
vt 0.928838 0.820253
vt 0.921681 0.098485
vt 0.906833 0.045961
vt 0.895666 0.732884
vt 0.796609 0.688056
vt 0.925138 0.000938
vt 0.361788 0.445788
vt 0.226278 0.721092
vt 0.250865 0.133665
vt 0.741302 0.964155
vt 0.963525 0.775650
vt 0.925651 0.608627
vt 0.964681 0.902442
vt 0.175395 0.978144
vt 0.928838 0.990206
vt 0.060151 0.914761
vt 0.361788 0.957864
vt 0.327615 0.919065
vt 0.423998 0.956870
vt 0.288769 0.960845
vt 0.327615 0.953677
vt 0.000057 0.950667
vt 0.974186 0.208479
vt 0.175876 0.949059
vt 0.060151 0.946892
vt 0.288769 0.958151
vt 0.979058 0.872490
vt 0.384438 0.960518
vt 0.408528 0.909310
vt 0.408528 0.943922
vt 0.930538 0.953471
vt 0.980440 0.231994
vt 0.036124 0.986963
vt 0.961901 0.718129
vt 0.940102 0.953886
vt 0.073985 0.961177
vt 0.985240 0.894431
vt 0.955585 0.689394
vt 0.537762 0.854416
vt 0.741302 0.963292
vt 0.955585 0.720858
vt 0.984198 0.911762
vt 0.330684 0.923239
vt 0.073985 0.963289
vt 0.538733 0.393961
vt 0.534816 0.959148
vt 0.518664 0.837468
vt 0.846519 0.960004
vt 0.147276 0.947181
vt 0.109663 0.827107
vt 0.513751 0.959250
vt 0.005745 0.908283
vt 0.999998 0.124183
vt 0.538733 0.396328
vt 0.842373 0.908688
vt 0.603632 0.782963
vt 0.036124 0.955757
vt 0.602756 0.878670
vt 0.965436 0.040893
vt 0.705100 0.969111
vt 0.856531 0.915810
vt 0.965122 0.376672
vt 0.584198 0.698173
vt 0.060601 0.789234
vt 0.572884 0.980619
vt 0.602031 0.942540
vt 0.989944 0.956383
vt 0.994497 0.378934
vt 0.406983 0.992862
vt 0.611080 0.721889
vt -0.000000 0.826320
vt 0.745518 0.803035
vt 0.997679 0.537677
vt 0.967142 0.778166
vt 0.989964 0.821375
vt 0.695096 0.798785
vt 0.935238 0.427335
vt 0.471005 0.868402
vt 0.682518 0.734609
vt 0.173553 0.914638
vt 0.185348 0.898364
vt 0.177825 0.831117
vt 0.993164 0.302287
vt 0.962315 0.822604
vt 0.691688 0.889603
vt 0.749264 0.746200
vt 0.248071 0.871626
vt 0.112325 0.846674
vt 0.847069 0.955049
vt 0.995774 0.724794
vt 0.827219 0.281921
vt 0.798885 0.885289
vt 0.987079 0.277566
vt 0.676391 0.932147
vt 0.309939 0.955362
vt 0.857609 0.935022
vt 0.964793 0.332826
vt 0.967801 0.606290
vt 0.982611 0.491016
vt 0.536809 0.807237
vt 0.538238 0.879554
vt 0.065914 0.956985
vt 0.954257 0.450988
vt 0.954257 0.513083
vt 0.141531 0.968588
vt 0.993813 0.650584
vt 0.567736 0.879064
vt 0.992057 0.095780
vt 0.978484 0.579898
vt 0.800754 0.823473
vt 0.330684 0.911466
vt 0.741302 0.903441
vt 0.861884 0.908012
vt 0.992085 0.202366
vt 0.060151 0.897062
vt 0.467293 0.896040
vt 0.366112 0.695885
vt 0.021629 0.789234
vt 0.233704 0.904180
vt 0.753428 0.949966
vt 0.467293 0.895132
vt 0.019478 0.629277
vt 0.538238 0.878670
vt 0.763537 0.433765
vt 0.968125 0.163541
vt 0.925651 0.616688
vt 0.175876 0.898364
vt 0.374944 0.791569
vt 0.117405 0.753232
vt 0.115949 0.644980
vt 0.761375 0.812281
vt 0.545620 0.782963
vt 0.972039 0.239774
vt 0.798885 0.724794
vt 0.249018 0.809405
vt 0.266067 0.368194
vt 0.182120 0.823598
vt 0.935238 0.306350
vt 0.601921 0.942541
vt 0.273205 0.361882
vt 0.538733 0.637095
vt 0.815627 0.956140
vt 0.513751 0.965309
vt 0.266067 0.819591
vt 0.951503 0.526678
vt 0.572884 0.987048
vt 0.923982 0.601111
vt 0.951494 0.437505
vt 0.798885 0.686368
vt 0.560889 0.437505
vt 0.980689 0.202358
vt 0.104945 0.789234
vt 0.873679 0.444121
vt 0.929734 0.086158
vt 0.155257 0.366967
vt 0.873744 0.081130
vt 0.266067 0.604744
vt 0.788300 0.334679
vt 0.934432 0.281193
vt 0.407247 0.955538
vt 0.899739 0.249939
s 0
usemtl bush
f 47/1/1 67/2/1 66/3/1
f 39/4/2 109/5/2 38/6/2
f 83/7/3 65/8/3 82/9/3
f 43/10/4 69/11/4 70/12/4
f 44/13/5 43/10/5 70/12/5
f 37/14/6 44/15/6 41/16/6
f 39/17/7 44/13/7 40/18/7
f 42/19/8 41/20/8 72/21/8
f 39/17/9 42/22/9 43/10/9
f 82/23/10 45/24/10 46/25/10
f 40/26/11 113/27/11 39/28/11
f 73/29/12 42/19/12 72/21/12
f 58/30/13 110/31/13 59/32/13
f 110/31/14 111/33/14 59/32/14
f 111/33/15 112/34/15 59/32/15
f 35/35/16 33/36/16 36/37/16
f 63/38/17 61/39/17 60/40/17
f 31/41/18 29/42/18 32/43/18
f 23/44/19 21/45/19 24/46/19
f 37/47/20 38/48/20 57/49/20
f 38/48/21 58/50/21 57/49/21
f 38/48/22 109/51/22 58/50/22
f 109/51/23 110/52/23 58/50/23
f 42/22/24 69/11/24 43/10/24
f 61/53/25 57/54/25 60/55/25
f 73/56/26 68/57/26 69/58/26
f 16/59/27 14/60/27 13/61/27
f 12/62/28 10/63/28 9/64/28
f 5/65/29 7/66/29 8/67/29
f 4/68/30 2/69/30 1/70/30
f 64/71/31 48/72/31 45/73/31
f 71/74/32 44/15/32 70/75/32
f 71/74/33 72/76/33 44/15/33
f 72/76/34 41/16/34 44/15/34
f 82/77/35 64/71/35 45/73/35
f 112/34/36 60/78/36 59/32/36
f 113/79/37 63/80/37 112/81/37
f 83/82/38 66/83/38 65/84/38
f 62/85/39 37/47/39 57/49/39
f 84/86/40 47/87/40 66/83/40
f 46/88/41 1/89/41 2/90/41
f 46/91/42 3/92/42 47/87/42
f 47/1/43 4/93/43 48/94/43
f 48/95/44 1/70/44 45/96/44
f 50/97/45 331/98/45 333/99/45
f 51/100/46 6/101/46 50/97/46
f 7/66/47 311/102/47 8/67/47
f 49/103/48 319/104/48 320/105/48
f 54/106/49 49/107/49 53/108/49
f 55/109/50 348/110/50 54/111/50
f 55/112/51 52/113/51 51/114/51
f 53/115/52 52/116/52 56/117/52
f 57/49/53 54/106/53 53/108/53
f 58/30/54 55/112/54 54/118/54
f 60/78/55 55/112/55 59/32/55
f 57/119/56 56/117/56 60/120/56
f 62/121/57 64/122/57 65/123/57
f 62/124/58 66/83/58 40/125/58
f 63/126/59 66/3/59 67/2/59
f 63/127/60 64/71/60 61/128/60
f 37/47/61 42/19/61 38/48/61
f 68/129/62 10/130/62 69/131/62
f 70/12/63 10/132/63 11/133/63
f 70/75/64 12/134/64 71/74/64
f 68/135/65 12/62/65 9/64/65
f 75/136/66 72/21/66 74/137/66
f 75/138/67 68/139/67 73/140/67
f 76/141/68 71/142/68 68/139/68
f 77/143/69 72/76/69 71/74/69
f 75/136/66 78/144/66 79/145/66
f 76/141/70 79/146/70 80/147/70
f 76/141/71 81/148/71 77/149/71
f 77/143/72 78/150/72 74/151/72
f 14/152/66 78/144/66 13/153/66
f 15/154/70 79/146/70 14/155/70
f 16/156/71 80/147/71 15/154/71
f 13/157/72 81/158/72 16/159/72
f 86/160/73 82/9/73 85/161/73
f 87/162/74 83/163/74 86/164/74
f 87/165/75 46/25/75 84/166/75
f 85/167/76 46/25/76 88/168/76
f 90/169/73 85/161/73 89/170/73
f 90/171/74 87/162/74 86/164/74
f 92/172/77 87/162/77 91/173/77
f 89/174/78 88/168/78 92/175/78
f 18/176/79 89/170/79 17/177/79
f 19/178/80 90/171/80 18/179/80
f 19/180/81 92/181/81 91/182/81
f 20/183/82 89/174/82 92/175/82
f 93/184/83 18/176/83 17/177/83
f 94/185/84 19/178/84 18/179/84
f 96/186/85 19/178/85 95/187/85
f 93/188/86 20/183/86 96/189/86
f 93/184/87 98/190/87 94/191/87
f 94/185/88 99/192/88 95/187/88
f 96/186/89 99/192/89 100/193/89
f 93/188/90 100/194/90 97/195/90
f 97/196/87 102/197/87 98/190/87
f 99/192/88 102/198/88 103/199/88
f 99/192/89 104/200/89 100/193/89
f 97/195/90 104/201/90 101/202/90
f 106/203/87 101/204/87 105/205/87
f 107/206/88 102/198/88 106/207/88
f 107/206/89 104/200/89 103/199/89
f 108/208/90 101/202/90 104/201/90
f 21/209/87 106/203/87 105/205/87
f 22/210/88 107/206/88 106/207/88
f 23/211/89 108/212/89 107/206/89
f 21/213/90 108/208/90 24/214/90
f 110/52/91 25/215/91 26/216/91
f 110/31/92 27/217/92 111/33/92
f 111/218/93 28/219/93 39/220/93
f 109/5/94 28/221/94 25/222/94
f 25/215/95 30/223/95 26/216/95
f 27/217/96 30/224/96 31/225/96
f 28/219/97 31/226/97 32/227/97
f 28/228/98 29/229/98 25/215/98
f 115/230/99 39/231/99 114/232/99
f 116/233/100 111/33/100 115/234/100
f 117/235/101 112/81/101 116/236/101
f 117/237/102 39/28/102 113/27/102
f 34/238/103 114/232/103 33/239/103
f 35/240/104 115/234/104 34/241/104
f 35/242/101 117/235/101 116/236/101
f 33/36/105 117/237/105 36/37/105
f 127/243/106 129/244/106 126/245/106
f 127/246/107 118/247/107 119/248/107
f 121/249/108 127/250/108 119/251/108
f 120/252/109 128/253/109 121/254/109
f 126/245/110 120/255/110 118/256/110
f 130/257/111 132/258/111 133/259/111
f 121/260/112 130/261/112 120/262/112
f 125/263/113 131/264/113 121/265/113
f 133/266/114 125/267/114 124/268/114
f 130/261/115 124/269/115 120/262/115
f 134/270/116 136/271/116 137/272/116
f 125/273/117 134/274/117 124/275/117
f 136/276/118 125/277/118 123/278/118
f 122/279/119 136/280/119 123/281/119
f 134/270/120 122/282/120 124/283/120
f 139/284/121 141/285/121 138/286/121
f 123/287/122 138/288/122 122/289/122
f 140/290/123 123/291/123 119/292/123
f 141/293/124 119/294/124 118/295/124
f 122/296/125 141/293/125 118/295/125
f 143/297/126 145/298/126 142/299/126
f 143/300/127 120/301/127 124/302/127
f 122/282/128 143/303/128 124/283/128
f 118/304/129 144/305/129 122/306/129
f 120/255/130 145/298/130 118/256/130
f 147/307/131 149/308/131 146/309/131
f 147/310/132 125/311/132 121/312/132
f 119/251/133 147/307/133 121/249/133
f 149/313/134 119/314/134 123/315/134
f 146/316/135 123/317/135 125/318/135
f 159/319/136 161/320/136 158/321/136
f 151/322/137 158/323/137 150/324/137
f 160/325/138 151/326/138 153/327/138
f 161/328/139 153/329/139 152/330/139
f 150/324/140 161/331/140 152/332/140
f 163/333/141 165/334/141 162/335/141
f 153/336/142 162/337/142 152/338/142
f 157/339/143 163/340/143 153/336/143
f 165/341/144 157/342/144 156/343/144
f 162/344/145 156/343/145 152/345/145
f 166/346/146 168/347/146 169/348/146
f 157/349/147 166/350/147 156/351/147
f 155/352/148 167/353/148 157/354/148
f 154/355/149 168/356/149 155/357/149
f 166/358/150 154/359/150 156/360/150
f 171/361/151 173/362/151 170/363/151
f 155/364/152 170/365/152 154/366/152
f 151/367/153 171/368/153 155/369/153
f 173/370/154 151/367/154 150/371/154
f 154/372/155 173/362/155 150/324/155
f 175/373/156 177/374/156 174/375/156
f 156/376/157 174/377/157 152/378/157
f 154/359/158 175/379/158 156/360/158
f 150/324/159 176/380/159 154/372/159
f 152/332/160 177/374/160 150/324/160
f 179/381/161 181/382/161 178/383/161
f 179/384/162 157/385/162 153/386/162
f 151/326/163 179/381/163 153/327/163
f 181/387/164 151/388/164 155/389/164
f 178/390/165 155/352/165 157/354/165
f 191/391/166 193/392/166 190/393/166
f 183/394/167 190/393/167 182/395/167
f 185/396/168 191/391/168 183/394/168
f 193/397/169 185/398/169 184/399/169
f 182/400/170 193/401/170 184/402/170
f 194/403/171 196/404/171 197/405/171
f 195/406/172 184/407/172 185/408/172
f 189/409/173 195/410/173 185/411/173
f 188/412/174 196/413/174 189/414/174
f 194/415/175 188/416/175 184/407/175
f 198/417/176 200/418/176 201/419/176
f 189/420/177 198/421/177 188/422/177
f 187/423/178 199/424/178 189/425/178
f 186/426/179 200/418/179 187/423/179
f 198/427/180 186/428/180 188/429/180
f 203/430/181 205/431/181 202/432/181
f 203/433/182 186/426/182 187/423/182
f 183/394/183 203/430/183 187/434/183
f 205/431/184 183/394/184 182/395/184
f 186/435/185 205/436/185 182/437/185
f 207/438/186 209/439/186 206/440/186
f 188/441/187 206/442/187 184/443/187
f 186/428/188 207/444/188 188/429/188
f 209/445/189 186/446/189 182/447/189
f 184/402/190 209/439/190 182/400/190
f 210/448/191 212/449/191 213/450/191
f 211/451/192 189/409/192 185/411/192
f 183/394/193 211/452/193 185/396/193
f 213/453/194 183/394/194 187/434/194
f 210/454/195 187/423/195 189/425/195
f 223/455/196 225/456/196 222/457/196
f 215/458/197 222/459/197 214/460/197
f 217/461/198 223/462/198 215/463/198
f 225/464/199 217/465/199 216/466/199
f 214/467/200 225/456/200 216/468/200
f 226/469/201 228/470/201 229/471/201
f 227/472/202 216/473/202 217/474/202
f 221/475/203 227/476/203 217/477/203
f 229/471/204 221/478/204 220/479/204
f 226/480/205 220/481/205 216/473/205
f 230/482/206 232/483/206 233/484/206
f 221/478/207 230/482/207 220/479/207
f 219/485/208 231/486/208 221/487/208
f 233/488/209 219/489/209 218/490/209
f 220/479/210 233/484/210 218/491/210
f 235/492/211 237/493/211 234/494/211
f 235/492/212 218/490/212 219/489/212
f 215/495/213 235/496/213 219/497/213
f 237/498/214 215/499/214 214/500/214
f 218/490/215 237/493/215 214/501/215
f 239/502/216 241/503/216 238/504/216
f 220/479/217 238/505/217 216/506/217
f 240/507/218 220/479/218 218/491/218
f 241/508/219 218/490/219 214/501/219
f 216/468/220 241/503/220 214/467/220
f 242/509/221 244/510/221 245/511/221
f 243/512/222 221/513/222 217/514/222
f 215/463/223 243/515/223 217/461/223
f 245/516/224 215/517/224 219/518/224
f 242/509/225 219/485/225 221/487/225
f 255/519/226 257/520/226 254/521/226
f 247/522/227 254/523/227 246/524/227
f 249/525/228 255/519/228 247/526/228
f 257/527/229 249/528/229 248/529/229
f 246/530/230 257/520/230 248/531/230
f 258/532/231 260/533/231 261/534/231
f 259/535/232 248/536/232 249/537/232
f 253/538/233 259/539/233 249/540/233
f 261/541/234 253/538/234 252/542/234
f 258/543/235 252/544/235 248/545/235
f 263/546/236 265/547/236 262/548/236
f 253/549/237 262/550/237 252/551/237
f 264/552/238 253/553/238 251/554/238
f 265/555/239 251/556/239 250/557/239
f 262/558/240 250/559/240 252/560/240
f 267/561/241 269/562/241 266/563/241
f 267/564/242 250/565/242 251/566/242
f 247/567/243 267/564/243 251/566/243
f 269/568/244 247/569/244 246/570/244
f 250/571/245 269/572/245 246/573/245
f 271/574/246 273/575/246 270/576/246
f 252/577/247 270/578/247 248/579/247
f 250/559/248 271/574/248 252/560/248
f 246/580/249 272/581/249 250/582/249
f 248/531/250 273/583/250 246/530/250
f 274/584/251 276/585/251 277/586/251
f 275/587/252 253/588/252 249/589/252
f 247/526/253 275/590/253 249/525/253
f 277/591/254 247/592/254 251/593/254
f 253/553/255 277/586/255 251/554/255
f 287/594/256 289/595/256 286/596/256
f 279/597/257 286/598/257 278/599/257
f 288/600/258 279/601/258 281/602/258
f 289/603/259 281/604/259 280/605/259
f 278/606/260 289/607/260 280/608/260
f 290/609/261 292/610/261 293/611/261
f 281/612/262 290/613/262 280/614/262
f 285/615/263 291/616/263 281/617/263
f 293/611/264 285/618/264 284/619/264
f 280/620/265 293/621/265 284/622/265
f 295/623/266 297/624/266 294/625/266
f 285/618/267 294/625/267 284/619/267
f 296/626/268 285/627/268 283/628/268
f 297/629/269 283/630/269 282/631/269
f 294/625/270 282/632/270 284/619/270
f 298/633/271 300/634/271 301/635/271
f 299/636/272 282/631/272 283/630/272
f 279/637/273 299/638/273 283/639/273
f 301/640/274 279/641/274 278/642/274
f 298/643/275 278/644/275 282/645/275
f 303/646/276 305/647/276 302/648/276
f 303/649/277 280/650/277 284/619/277
f 282/632/278 303/649/278 284/619/278
f 278/651/279 304/652/279 282/653/279
f 280/608/280 305/647/280 278/606/280
f 306/654/281 308/655/281 309/656/281
f 307/657/282 285/658/282 281/659/282
f 279/601/283 307/660/283 281/602/283
f 309/661/284 279/662/284 283/663/284
f 306/654/285 283/628/285 285/627/285
f 311/664/286 317/665/286 313/666/286
f 51/667/287 313/668/287 312/669/287
f 52/670/288 311/664/288 313/666/288
f 51/671/289 310/672/289 7/673/289
f 316/674/290 315/675/290 314/676/290
f 310/672/291 316/677/291 314/678/291
f 312/669/292 317/679/292 316/680/292
f 310/681/293 315/682/293 311/102/293
f 320/683/294 325/684/294 321/685/294
f 49/686/295 321/685/295 52/687/295
f 5/65/296 318/688/296 319/689/296
f 52/670/297 318/690/297 8/691/297
f 323/692/298 328/693/298 324/694/298
f 320/105/299 323/695/299 324/696/299
f 321/697/300 322/698/300 318/690/300
f 319/689/301 322/699/301 323/700/301
f 329/701/302 327/702/302 326/703/302
f 325/704/303 326/705/303 322/698/303
f 323/706/304 326/707/304 327/708/304
f 324/709/305 329/710/305 325/711/305
f 331/98/306 337/712/306 333/99/306
f 49/103/307 330/713/307 5/714/307
f 50/715/308 332/716/308 49/717/308
f 6/718/309 330/719/309 331/720/309
f 337/721/310 340/722/310 336/723/310
f 332/724/311 334/725/311 330/713/311
f 333/726/312 336/727/312 332/716/312
f 331/720/313 334/728/313 335/729/313
f 341/730/314 344/731/314 340/722/314
f 335/732/315 338/733/315 339/734/315
f 335/735/316 341/736/316 337/712/316
f 334/725/317 340/722/317 338/737/317
f 345/738/318 342/739/318 344/731/318
f 339/740/319 342/741/319 343/742/319
f 339/743/320 345/744/320 341/745/320
f 338/746/321 344/747/321 342/741/321
f 349/748/322 352/749/322 348/110/322
f 51/750/323 346/751/323 347/752/323
f 55/753/324 347/754/324 349/755/324
f 54/106/325 346/756/325 50/757/325
f 351/758/326 354/759/326 355/760/326
f 347/752/327 350/761/327 351/758/327
f 347/762/328 353/763/328 349/764/328
f 346/756/329 352/765/329 350/766/329
f 357/767/330 359/768/330 361/769/330
f 353/763/331 355/770/331 357/767/331
f 352/765/332 354/771/332 350/766/332
f 353/772/333 356/773/333 352/749/333
f 360/774/334 365/775/334 364/776/334
f 356/777/335 358/778/335 354/771/335
f 357/779/336 360/780/336 356/773/336
f 355/760/337 358/781/337 359/782/337
f 364/783/338 363/784/338 362/785/338
f 358/786/339 363/787/339 359/788/339
f 359/768/340 365/789/340 361/769/340
f 358/778/341 364/776/341 362/790/341
f 47/1/342 48/94/342 67/2/342
f 37/14/343 40/791/343 44/15/343
f 39/17/344 43/10/344 44/13/344
f 39/17/345 38/792/345 42/22/345
f 35/35/16 34/793/16 33/36/16
f 31/41/18 30/794/18 29/42/18
f 23/44/19 22/795/19 21/45/19
f 42/22/346 73/796/346 69/11/346
f 61/53/347 62/797/347 57/54/347
f 16/59/27 15/798/27 14/60/27
f 12/62/28 11/799/28 10/63/28
f 5/65/348 6/718/348 7/66/348
f 4/68/30 3/800/30 2/69/30
f 64/71/349 67/801/349 48/72/349
f 82/77/350 65/802/350 64/71/350
f 112/34/351 63/803/351 60/78/351
f 113/79/352 40/804/352 63/80/352
f 83/82/353 84/86/353 66/83/353
f 62/85/354 40/805/354 37/47/354
f 84/86/355 46/91/355 47/87/355
f 46/88/356 45/806/356 1/89/356
f 46/91/357 2/807/357 3/92/357
f 47/1/43 3/808/43 4/93/43
f 48/95/44 4/68/44 1/70/44
f 50/97/358 6/101/358 331/98/358
f 51/100/359 7/809/359 6/101/359
f 7/66/360 310/681/360 311/102/360
f 49/103/361 5/714/361 319/104/361
f 54/106/362 50/757/362 49/107/362
f 55/109/363 349/748/363 348/110/363
f 55/112/364 56/810/364 52/113/364
f 53/115/365 49/811/365 52/116/365
f 57/49/366 58/50/366 54/106/366
f 58/30/367 59/32/367 55/112/367
f 60/78/368 56/810/368 55/112/368
f 57/119/56 53/115/56 56/117/56
f 62/121/57 61/812/57 64/122/57
f 62/124/369 65/84/369 66/83/369
f 63/126/370 40/813/370 66/3/370
f 63/127/60 67/801/60 64/71/60
f 37/47/61 41/20/61 42/19/61
f 68/129/371 9/814/371 10/130/371
f 70/12/63 69/11/63 10/132/63
f 70/75/372 11/815/372 12/134/372
f 68/135/373 71/816/373 12/62/373
f 75/136/66 73/29/66 72/21/66
f 75/138/374 76/141/374 68/139/374
f 76/141/375 77/149/375 71/142/375
f 77/143/72 74/151/72 72/76/72
f 75/136/66 74/137/66 78/144/66
f 76/141/70 75/138/70 79/146/70
f 76/141/71 80/147/71 81/148/71
f 77/143/72 81/158/72 78/150/72
f 14/152/66 79/145/66 78/144/66
f 15/154/70 80/147/70 79/146/70
f 16/156/71 81/148/71 80/147/71
f 13/157/72 78/150/72 81/158/72
f 86/160/73 83/7/73 82/9/73
f 87/162/74 84/817/74 83/163/74
f 87/165/376 88/168/376 46/25/376
f 85/167/377 82/23/377 46/25/377
f 90/169/73 86/160/73 85/161/73
f 90/171/74 91/173/74 87/162/74
f 92/172/77 88/818/77 87/162/77
f 89/174/78 85/167/78 88/168/78
f 18/176/378 90/169/378 89/170/378
f 19/178/379 91/173/379 90/171/379
f 19/180/380 20/819/380 92/181/380
f 20/183/381 17/820/381 89/174/381
f 93/184/382 94/191/382 18/176/382
f 94/185/383 95/187/383 19/178/383
f 96/186/384 20/821/384 19/178/384
f 93/188/385 17/820/385 20/183/385
f 93/184/87 97/196/87 98/190/87
f 94/185/88 98/822/88 99/192/88
f 96/186/89 95/187/89 99/192/89
f 93/188/90 96/189/90 100/194/90
f 97/196/87 101/204/87 102/197/87
f 99/192/88 98/822/88 102/198/88
f 99/192/89 103/199/89 104/200/89
f 97/195/90 100/194/90 104/201/90
f 106/203/87 102/197/87 101/204/87
f 107/206/88 103/199/88 102/198/88
f 107/206/89 108/212/89 104/200/89
f 108/208/90 105/823/90 101/202/90
f 21/209/87 22/824/87 106/203/87
f 22/210/88 23/211/88 107/206/88
f 23/211/89 24/825/89 108/212/89
f 21/213/90 105/823/90 108/208/90
f 110/52/386 109/51/386 25/215/386
f 110/31/387 26/826/387 27/217/387
f 111/218/388 27/827/388 28/219/388
f 109/5/389 39/4/389 28/221/389
f 25/215/390 29/229/390 30/223/390
f 27/217/391 26/826/391 30/224/391
f 28/219/392 27/827/392 31/226/392
f 28/228/393 32/828/393 29/229/393
f 115/230/394 111/829/394 39/231/394
f 116/233/395 112/34/395 111/33/395
f 117/235/101 113/79/101 112/81/101
f 117/237/396 114/830/396 39/28/396
f 34/238/103 115/230/103 114/232/103
f 35/240/104 116/233/104 115/234/104
f 35/242/101 36/831/101 117/235/101
f 33/36/105 114/830/105 117/237/105
f 127/243/397 128/832/397 129/244/397
f 127/246/107 126/833/107 118/247/107
f 121/249/108 128/834/108 127/250/108
f 120/252/109 129/835/109 128/253/109
f 126/245/110 129/244/110 120/255/110
f 130/257/111 131/836/111 132/258/111
f 121/260/112 131/837/112 130/261/112
f 125/263/113 132/838/113 131/264/113
f 133/266/114 132/839/114 125/267/114
f 130/261/115 133/840/115 124/269/115
f 134/270/116 135/841/116 136/271/116
f 125/273/117 135/842/117 134/274/117
f 136/276/118 135/843/118 125/277/118
f 122/279/119 137/844/119 136/280/119
f 134/270/120 137/272/120 122/282/120
f 139/284/121 140/845/121 141/285/121
f 123/287/122 139/846/122 138/288/122
f 140/290/123 139/847/123 123/291/123
f 141/293/124 140/848/124 119/294/124
f 122/296/125 138/849/125 141/293/125
f 143/297/126 144/850/126 145/298/126
f 143/300/127 142/851/127 120/301/127
f 122/282/128 144/852/128 143/303/128
f 118/304/129 145/853/129 144/305/129
f 120/255/130 142/299/130 145/298/130
f 147/307/131 148/854/131 149/308/131
f 147/310/132 146/855/132 125/311/132
f 119/251/133 148/854/133 147/307/133
f 149/313/134 148/856/134 119/314/134
f 146/316/135 149/857/135 123/317/135
f 159/319/136 160/325/136 161/320/136
f 151/322/137 159/858/137 158/323/137
f 160/325/138 159/319/138 151/326/138
f 161/328/139 160/859/139 153/329/139
f 150/324/398 158/323/398 161/331/398
f 163/333/141 164/860/141 165/334/141
f 153/336/142 163/340/142 162/337/142
f 157/339/143 164/861/143 163/340/143
f 165/341/144 164/862/144 157/342/144
f 162/344/145 165/341/145 156/343/145
f 166/346/146 167/353/146 168/347/146
f 157/349/147 167/863/147 166/350/147
f 155/352/148 168/347/148 167/353/148
f 154/355/149 169/864/149 168/356/149
f 166/358/150 169/865/150 154/359/150
f 171/361/151 172/866/151 173/362/151
f 155/364/152 171/867/152 170/365/152
f 151/367/153 172/868/153 171/368/153
f 173/370/154 172/868/154 151/367/154
f 154/372/155 170/363/155 173/362/155
f 175/373/156 176/380/156 177/374/156
f 156/376/157 175/869/157 174/377/157
f 154/359/158 176/870/158 175/379/158
f 150/324/159 177/374/159 176/380/159
f 152/332/160 174/375/160 177/374/160
f 179/381/161 180/871/161 181/382/161
f 179/384/162 178/872/162 157/385/162
f 151/326/163 180/871/163 179/381/163
f 181/387/164 180/873/164 151/388/164
f 178/390/165 181/874/165 155/352/165
f 191/391/166 192/875/166 193/392/166
f 183/394/167 191/391/167 190/393/167
f 185/396/168 192/875/168 191/391/168
f 193/397/169 192/876/169 185/398/169
f 182/400/170 190/877/170 193/401/170
f 194/403/171 195/410/171 196/404/171
f 195/406/172 194/415/172 184/407/172
f 189/409/173 196/404/173 195/410/173
f 188/412/174 197/878/174 196/413/174
f 194/415/175 197/879/175 188/416/175
f 198/417/176 199/424/176 200/418/176
f 189/420/399 199/880/399 198/421/399
f 187/423/178 200/418/178 199/424/178
f 186/426/179 201/419/179 200/418/179
f 198/427/180 201/881/180 186/428/180
f 203/430/181 204/882/181 205/431/181
f 203/433/182 202/883/182 186/426/182
f 183/394/183 204/882/183 203/430/183
f 205/431/184 204/882/184 183/394/184
f 186/435/185 202/884/185 205/436/185
f 207/438/186 208/885/186 209/439/186
f 188/441/187 207/886/187 206/442/187
f 186/428/188 208/887/188 207/444/188
f 209/445/189 208/888/189 186/446/189
f 184/402/190 206/440/190 209/439/190
f 210/448/191 211/451/191 212/449/191
f 211/451/192 210/448/192 189/409/192
f 183/394/193 212/889/193 211/452/193
f 213/453/194 212/889/194 183/394/194
f 210/454/195 213/890/195 187/423/195
f 223/455/196 224/891/196 225/456/196
f 215/458/197 223/892/197 222/459/197
f 217/461/198 224/893/198 223/462/198
f 225/464/400 224/894/400 217/465/400
f 214/467/200 222/457/200 225/456/200
f 226/469/201 227/895/201 228/470/201
f 227/472/202 226/480/202 216/473/202
f 221/475/401 228/896/401 227/476/401
f 229/471/204 228/470/204 221/478/204
f 226/480/205 229/897/205 220/481/205
f 230/482/206 231/898/206 232/483/206
f 221/478/207 231/898/207 230/482/207
f 219/485/208 232/899/208 231/486/208
f 233/488/209 232/900/209 219/489/209
f 220/479/210 230/482/210 233/484/210
f 235/492/211 236/901/211 237/493/211
f 235/492/212 234/494/212 218/490/212
f 215/495/213 236/902/213 235/496/213
f 237/498/214 236/903/214 215/499/214
f 218/490/215 234/494/215 237/493/215
f 239/502/216 240/904/216 241/503/216
f 220/479/217 239/905/217 238/505/217
f 240/507/218 239/905/218 220/479/218
f 241/508/219 240/906/219 218/490/219
f 216/468/220 238/504/220 241/503/220
f 242/509/221 243/907/221 244/510/221
f 243/512/222 242/908/222 221/513/222
f 215/463/223 244/909/223 243/515/223
f 245/516/224 244/910/224 215/517/224
f 242/509/225 245/511/225 219/485/225
f 255/519/226 256/911/226 257/520/226
f 247/522/227 255/912/227 254/523/227
f 249/525/228 256/911/228 255/519/228
f 257/527/229 256/913/229 249/528/229
f 246/530/230 254/521/230 257/520/230
f 258/532/231 259/914/231 260/533/231
f 259/535/232 258/915/232 248/536/232
f 253/538/233 260/916/233 259/539/233
f 261/541/234 260/916/234 253/538/234
f 258/543/235 261/917/235 252/544/235
f 263/546/236 264/552/236 265/547/236
f 253/549/237 263/918/237 262/550/237
f 264/552/238 263/546/238 253/553/238
f 265/555/239 264/919/239 251/556/239
f 262/558/240 265/920/240 250/559/240
f 267/561/241 268/921/241 269/562/241
f 267/564/242 266/922/242 250/565/242
f 247/567/243 268/923/243 267/564/243
f 269/568/244 268/924/244 247/569/244
f 250/571/245 266/925/245 269/572/245
f 271/574/246 272/926/246 273/575/246
f 252/577/247 271/927/247 270/578/247
f 250/559/248 272/926/248 271/574/248
f 246/580/402 273/928/402 272/581/402
f 248/531/250 270/929/250 273/583/250
f 274/584/251 275/930/251 276/585/251
f 275/587/403 274/931/403 253/588/403
f 247/526/253 276/932/253 275/590/253
f 277/591/404 276/933/404 247/592/404
f 253/553/255 274/584/255 277/586/255
f 287/594/256 288/600/256 289/595/256
f 279/597/257 287/934/257 286/598/257
f 288/600/258 287/594/258 279/601/258
f 289/603/259 288/935/259 281/604/259
f 278/606/260 286/936/260 289/607/260
f 290/609/261 291/937/261 292/610/261
f 281/612/262 291/938/262 290/613/262
f 285/615/263 292/939/263 291/616/263
f 293/611/264 292/610/264 285/618/264
f 280/620/265 290/940/265 293/621/265
f 295/623/266 296/941/266 297/624/266
f 285/618/267 295/623/267 294/625/267
f 296/626/268 295/942/268 285/627/268
f 297/629/269 296/943/269 283/630/269
f 294/625/270 297/624/270 282/632/270
f 298/633/271 299/636/271 300/634/271
f 299/636/272 298/633/272 282/631/272
f 279/637/273 300/944/273 299/638/273
f 301/640/274 300/945/274 279/641/274
f 298/643/275 301/946/275 278/644/275
f 303/646/276 304/947/276 305/647/276
f 303/649/277 302/948/277 280/650/277
f 282/632/278 304/949/278 303/649/278
f 278/651/279 305/950/279 304/652/279
f 280/608/280 302/648/280 305/647/280
f 306/654/281 307/951/281 308/655/281
f 307/657/282 306/952/282 285/658/282
f 279/601/283 308/953/283 307/660/283
f 309/661/284 308/954/284 279/662/284
f 306/654/285 309/656/285 283/628/285
f 311/664/405 315/955/405 317/665/405
f 51/667/406 52/956/406 313/668/406
f 52/670/407 8/691/407 311/664/407
f 51/671/408 312/957/408 310/672/408
f 316/674/290 317/958/290 315/675/290
f 310/672/409 312/957/409 316/677/409
f 312/669/410 313/668/410 317/679/410
f 310/681/411 314/959/411 315/682/411
f 320/683/412 324/960/412 325/684/412
f 49/686/413 320/683/413 321/685/413
f 5/65/414 8/67/414 318/688/414
f 52/670/415 321/697/415 318/690/415
f 323/692/416 327/961/416 328/693/416
f 320/105/417 319/104/417 323/695/417
f 321/697/418 325/704/418 322/698/418
f 319/689/419 318/688/419 322/699/419
f 329/701/420 328/962/420 327/702/420
f 325/704/421 329/963/421 326/705/421
f 323/706/422 322/964/422 326/707/422
f 324/709/423 328/965/423 329/710/423
f 331/98/424 335/735/424 337/712/424
f 49/103/425 332/724/425 330/713/425
f 50/715/426 333/726/426 332/716/426
f 6/718/427 5/65/427 330/719/427
f 337/721/428 341/730/428 340/722/428
f 332/724/429 336/723/429 334/725/429
f 333/726/430 337/966/430 336/727/430
f 331/720/431 330/719/431 334/728/431
f 341/730/432 345/738/432 344/731/432
f 335/732/433 334/967/433 338/733/433
f 335/735/434 339/968/434 341/736/434
f 334/725/435 336/723/435 340/722/435
f 345/738/436 343/969/436 342/739/436
f 339/740/437 338/746/437 342/741/437
f 339/743/438 343/970/438 345/744/438
f 338/746/439 340/971/439 344/747/439
f 349/748/440 353/772/440 352/749/440
f 51/750/441 50/972/441 346/751/441
f 55/753/442 51/973/442 347/754/442
f 54/106/443 348/974/443 346/756/443
f 351/758/444 350/761/444 354/759/444
f 347/752/445 346/751/445 350/761/445
f 347/762/446 351/975/446 353/763/446
f 346/756/447 348/974/447 352/765/447
f 357/767/448 355/770/448 359/768/448
f 353/763/449 351/975/449 355/770/449
f 352/765/450 356/777/450 354/771/450
f 353/772/451 357/779/451 356/773/451
f 360/774/452 361/976/452 365/775/452
f 356/777/453 360/774/453 358/778/453
f 357/779/454 361/977/454 360/780/454
f 355/760/455 354/759/455 358/781/455
f 364/783/456 365/978/456 363/784/456
f 358/786/457 362/979/457 363/787/457
f 359/768/458 363/980/458 365/789/458
f 358/778/459 360/774/459 364/776/459
