# Blender 4.5.0
# www.blender.org
mtllib maderas_puente.mtl
o Cube.005
v 0.157959 6.780628 -7.876745
v 0.150815 6.663136 -7.904215
v 0.187557 6.752720 -7.762930
v 0.180639 6.635015 -7.789532
v 1.073948 6.780628 -8.114960
v 1.066804 6.663136 -8.142429
v 1.103547 6.752720 -8.001144
v 1.096628 6.635015 -8.027748
v 0.280197 6.670670 -7.406708
v 0.273812 6.552491 -7.431261
v 0.309946 6.645380 -7.292316
v 0.303713 6.527074 -7.316284
v 1.196186 6.670670 -7.644922
v 1.189801 6.552491 -7.669476
v 1.225935 6.645381 -7.530533
v 1.219702 6.527074 -7.554499
v 0.402999 6.571084 -6.934505
v 0.397204 6.452426 -6.956789
v 0.432847 6.547707 -6.819735
v 0.427189 6.428945 -6.841492
v 1.318989 6.571084 -7.172720
v 1.313193 6.452426 -7.195004
v 1.348836 6.547707 -7.057949
v 1.343178 6.428945 -7.079706
v 0.526253 6.480742 -6.460564
v 0.521003 6.361685 -6.480755
v 0.556201 6.459477 -6.345409
v 0.551080 6.340331 -6.365101
v 1.442243 6.480742 -6.698780
v 1.436992 6.361685 -6.718969
v 1.472190 6.459477 -6.583626
v 1.467070 6.340331 -6.603313
v 0.649899 6.399307 -5.985119
v 0.645180 6.279899 -6.003265
v 0.679946 6.380383 -5.869581
v 0.675356 6.260896 -5.887234
v 1.565888 6.399307 -6.223333
v 1.561169 6.279899 -6.241478
v 1.595935 6.380383 -6.107796
v 1.591345 6.260896 -6.125446
v 0.773877 6.326332 -5.508396
v 0.769692 6.206610 -5.524487
v 0.804020 6.310014 -5.392487
v 0.799967 6.190220 -5.408073
v 1.689866 6.326332 -5.746609
v 1.685682 6.206610 -5.762701
v 1.720010 6.310014 -5.630701
v 1.715956 6.190220 -5.646290
v 0.898134 6.261239 -5.030598
v 0.894494 6.141236 -5.044596
v 0.928368 6.247833 -4.914339
v 0.924865 6.127767 -4.927813
v 1.814124 6.261239 -5.268810
v 1.810483 6.141236 -5.282810
v 1.844358 6.247833 -5.152554
v 1.840854 6.127767 -5.166027
v 1.022699 6.206007 -4.551617
v 1.019622 6.085756 -4.563448
v 1.052947 6.193150 -4.435307
v 1.050008 6.072844 -4.446606
v 1.938689 6.206007 -4.789829
v 1.935612 6.085756 -4.801662
v 1.968936 6.193150 -4.673521
v 1.965998 6.072844 -4.684820
v 1.147529 6.161526 -4.071617
v 1.145046 6.041058 -4.081165
v 1.177844 6.151390 -3.955050
v 1.175506 6.030876 -3.964037
v 2.063518 6.161526 -4.309832
v 2.061035 6.041058 -4.319380
v 2.093833 6.151390 -4.193264
v 2.091496 6.030876 -4.202251
v 1.272516 6.124959 -3.591015
v 1.270652 6.004314 -3.598183
v 1.302894 6.118511 -3.474203
v 1.301188 5.997830 -3.480761
v 2.188505 6.124959 -3.829229
v 2.186641 6.004314 -3.836397
v 2.218884 6.118511 -3.712418
v 2.217178 5.997830 -3.718975
v 1.397675 6.098395 -3.109749
v 1.396465 5.977619 -3.114403
v 1.428065 6.093134 -2.992893
v 1.427014 5.972335 -2.996933
v 2.313664 6.098395 -3.347961
v 2.312454 5.977620 -3.352617
v 2.344054 6.093134 -3.231106
v 2.343003 5.972336 -3.235147
v 1.522964 6.086060 -2.627983
v 1.522420 5.965208 -2.630075
v 1.553380 6.083792 -2.511024
v 1.552999 5.962930 -2.512491
v 2.438953 6.086060 -2.866198
v 2.438409 5.965208 -2.868290
v 2.469370 6.083792 -2.749239
v 2.468988 5.962930 -2.750706
v 1.648282 6.081247 -2.146107
v 1.648391 5.960377 -2.145689
v 1.678701 6.083088 -2.029140
v 1.678956 5.962221 -2.028156
v 2.564271 6.081248 -2.384319
v 2.564380 5.960377 -2.383904
v 2.594690 6.083088 -2.267353
v 2.594945 5.962222 -2.266371
v 1.773606 6.088831 -1.664207
v 1.774320 5.967993 -1.661461
v 1.804024 6.090671 -1.547241
v 1.804886 5.969849 -1.543928
v 2.689595 6.088831 -1.902422
v 2.690310 5.967993 -1.899675
v 2.720014 6.090672 -1.785456
v 2.720875 5.969849 -1.782143
v 1.898856 6.106334 -1.182590
v 1.900124 5.985568 -1.177715
v 1.929250 6.111569 -1.065721
v 1.930646 5.990826 -1.060350
v 2.814846 6.106334 -1.420803
v 2.816113 5.985568 -1.415930
v 2.845239 6.111569 -1.303934
v 2.846636 5.990826 -1.298565
v 2.024043 6.130308 -0.701218
v 2.025834 6.009647 -0.694331
v 2.054394 6.138545 -0.584510
v 2.056304 6.017912 -0.577166
v 2.940032 6.130309 -0.939432
v 2.941823 6.009647 -0.932545
v 2.970384 6.138545 -0.822724
v 2.972294 6.017912 -0.815380
v 2.149090 6.164241 -0.220383
v 2.151371 6.043710 -0.211611
v 2.179441 6.172477 -0.103675
v 2.181842 6.051983 -0.094445
v 3.065079 6.164241 -0.458597
v 3.067361 6.043711 -0.449825
v 3.095431 6.172477 -0.341889
v 3.097831 6.051983 -0.332660
v 2.273975 6.206305 0.259829
v 2.276725 6.085928 0.270403
v 2.304273 6.217208 0.376329
v 2.307135 6.096872 0.387336
v 3.189964 6.206305 0.021614
v 3.192714 6.085929 0.032189
v 3.220262 6.217208 0.138115
v 3.223124 6.096873 0.149121
v 2.398712 6.254785 0.739472
v 2.401917 6.134586 0.751797
v 2.428950 6.268070 0.855742
v 2.432262 6.147917 0.868481
v 3.314702 6.254785 0.501258
v 3.317907 6.134586 0.513582
v 3.344939 6.268070 0.617528
v 3.348252 6.147918 0.630266
v 2.523270 6.310224 1.218426
v 2.526918 6.190225 1.232453
v 2.553443 6.325647 1.334449
v 2.557197 6.205700 1.348885
v 3.439259 6.310224 0.980212
v 3.442907 6.190225 0.994239
v 3.469432 6.325647 1.096234
v 3.473187 6.205700 1.110670
v 2.647584 6.373768 1.696442
v 2.651669 6.253991 1.712151
v 2.677715 6.390399 1.812304
v 2.681908 6.270681 1.828424
v 3.563573 6.373768 1.458228
v 3.567658 6.253991 1.473936
v 3.593705 6.390399 1.574091
v 3.597897 6.270681 1.590210
v 2.771649 6.444533 2.173502
v 2.776178 6.325008 2.190915
v 2.801725 6.462686 2.289150
v 2.806364 6.343228 2.306989
v 3.687639 6.444533 1.935287
v 3.692167 6.325009 1.952701
v 3.717714 6.462686 2.050937
v 3.722353 6.343229 2.068775
v 2.895450 6.522264 2.649544
v 2.900445 6.403032 2.668749
v 2.925429 6.542789 2.764823
v 2.930550 6.423643 2.784513
v 3.811439 6.522264 2.411329
v 3.816434 6.403032 2.430534
v 3.841419 6.542789 2.526608
v 3.846539 6.423643 2.546298
v 3.018879 6.608795 3.124159
v 3.024425 6.489949 3.145485
v 3.048787 6.630916 3.239161
v 3.054488 6.512186 3.261083
v 3.934869 6.608795 2.885944
v 3.940415 6.489950 2.907270
v 3.964777 6.630916 3.000948
v 3.970478 6.512186 3.022869
v 3.141832 6.705413 3.596939
v 3.148004 6.587056 3.620671
v 3.171621 6.729935 3.711486
v 3.177793 6.611578 3.735218
v 4.057821 6.705414 3.358725
v 4.063993 6.587056 3.382457
v 4.087610 6.729935 3.473271
v 4.093782 6.611578 3.497004
vn -0.9678 -0.0000 0.2517
vn 0.2451 -0.2274 0.9424
vn 0.9678 -0.0000 -0.2517
vn -0.2447 0.2348 -0.9407
vn 0.0581 0.9730 0.2235
vn -0.0581 -0.9730 -0.2235
vn 0.2464 -0.2049 0.9473
vn -0.2461 0.2099 -0.9462
vn 0.0527 0.9779 0.2025
vn -0.0527 -0.9779 -0.2025
vn 0.2473 -0.1860 0.9509
vn -0.2471 0.1905 -0.9501
vn 0.0487 0.9811 0.1872
vn -0.0487 -0.9811 -0.1872
vn 0.2481 -0.1683 0.9540
vn -0.2479 0.1726 -0.9533
vn 0.0443 0.9844 0.1703
vn -0.0443 -0.9844 -0.1703
vn 0.2488 -0.1509 0.9567
vn -0.2486 0.1551 -0.9561
vn 0.0394 0.9877 0.1515
vn -0.0394 -0.9877 -0.1515
vn 0.2494 -0.1333 0.9592
vn -0.2493 0.1375 -0.9586
vn 0.0340 0.9908 0.1307
vn -0.0340 -0.9908 -0.1307
vn 0.2500 -0.1152 0.9614
vn -0.2499 0.1197 -0.9609
vn 0.0279 0.9938 0.1073
vn -0.0279 -0.9938 -0.1074
vn 0.2505 -0.0966 0.9633
vn -0.2504 0.1011 -0.9628
vn 0.0268 0.9943 0.1030
vn -0.0268 -0.9943 -0.1029
vn 0.2509 -0.0768 0.9649
vn -0.2509 0.0816 -0.9646
vn 0.0211 0.9965 0.0812
vn -0.0211 -0.9965 -0.0811
vn 0.2513 -0.0561 0.9663
vn -0.2512 0.0613 -0.9660
vn 0.0134 0.9986 0.0516
vn -0.0134 -0.9986 -0.0517
vn 0.2515 -0.0345 0.9672
vn -0.2515 0.0398 -0.9670
vn 0.0110 0.9991 0.0421
vn -0.0109 -0.9991 -0.0421
vn 0.2517 -0.0125 0.9677
vn -0.2517 0.0179 -0.9677
vn 0.0047 0.9998 0.0182
vn -0.0047 -0.9998 -0.0181
vn 0.2517 0.0084 0.9678
vn -0.2517 -0.0036 -0.9678
vn -0.0038 0.9999 -0.0147
vn 0.0038 -0.9999 0.0147
vn 0.2516 0.0283 0.9674
vn -0.2516 -0.0235 -0.9675
vn 0.0038 -0.9999 0.0148
vn 0.2514 0.0459 0.9668
vn -0.2515 -0.0417 -0.9670
vn -0.0109 0.9991 -0.0419
vn 0.0109 -0.9991 0.0419
vn 0.2512 0.0628 0.9659
vn -0.2513 -0.0589 -0.9661
vn -0.0172 0.9977 -0.0659
vn 0.0171 -0.9977 0.0659
vn 0.2509 0.0789 0.9648
vn -0.2510 -0.0750 -0.9651
vn 0.0172 -0.9977 0.0660
vn 0.2506 0.0941 0.9635
vn -0.2507 -0.0904 -0.9638
vn -0.0227 0.9959 -0.0873
vn 0.0227 -0.9959 0.0873
vn 0.2502 0.1089 0.9621
vn -0.2503 -0.1053 -0.9624
vn -0.0277 0.9939 -0.1064
vn 0.0277 -0.9939 0.1064
vn 0.2498 0.1234 0.9604
vn -0.2499 -0.1199 -0.9608
vn -0.0321 0.9918 -0.1235
vn 0.0321 -0.9918 0.1235
vn 0.2493 0.1378 0.9586
vn -0.2494 -0.1343 -0.9590
vn -0.0346 0.9905 -0.1332
vn 0.0346 -0.9905 0.1332
vn 0.2487 0.1525 0.9565
vn -0.2489 -0.1489 -0.9570
vn -0.0378 0.9887 -0.1454
vn 0.0378 -0.9887 0.1454
vn 0.2481 0.1683 0.9540
vn -0.2483 -0.1642 -0.9547
vn -0.0427 0.9855 -0.1644
vn 0.0427 -0.9855 0.1643
vn 0.2472 0.1874 0.9507
vn -0.2475 -0.1823 -0.9516
vn -0.0461 0.9831 -0.1771
vn 0.0461 -0.9831 0.1771
vn 0.2465 0.2029 0.9477
vn -0.2465 -0.2029 -0.9477
vn -0.0511 0.9792 -0.1963
vn 0.0511 -0.9792 0.1963
vt 0.705083 0.382760
vt 0.684938 0.382760
vt 0.684938 0.362614
vt 0.705083 0.362614
vt 0.080581 0.666667
vt 0.060436 0.666667
vt 0.060436 0.333333
vt 0.080581 0.333333
vt 0.705083 0.402905
vt 0.684938 0.402905
vt 0.705083 0.382760
vt 0.100726 0.666667
vt 0.080581 0.666667
vt 0.080581 0.333333
vt 0.100726 0.333333
vt 0.120871 0.333333
vt 0.120871 0.666667
vt 0.100726 0.666667
vt 0.100726 0.333333
vt 0.141017 0.333333
vt 0.141017 0.666667
vt 0.120871 0.666667
vt 0.120871 0.333333
vt 0.684938 0.463340
vt 0.684938 0.443195
vt 0.705083 0.443195
vt 0.705083 0.463340
vt 0.161162 0.666667
vt 0.141017 0.666667
vt 0.141017 0.333333
vt 0.161162 0.333333
vt 0.684938 0.483486
vt 0.684938 0.463340
vt 0.705083 0.463340
vt 0.705083 0.483486
vt 0.181307 0.666667
vt 0.161162 0.666667
vt 0.161162 0.333333
vt 0.181307 0.333333
vt 0.100726 0.666667
vt 0.100726 1.000000
vt 0.080581 1.000000
vt 0.120871 0.666667
vt 0.120871 1.000000
vt 0.100726 1.000000
vt 0.100726 0.666667
vt 0.705083 0.423050
vt 0.684938 0.423050
vt 0.684938 0.402905
vt 0.705083 0.402905
vt 0.201452 0.666667
vt 0.181307 0.666667
vt 0.181307 0.333333
vt 0.201452 0.333333
vt 0.705083 0.443195
vt 0.684938 0.443195
vt 0.684938 0.423050
vt 0.705083 0.423050
vt 0.221597 0.666667
vt 0.201452 0.666667
vt 0.201452 0.333333
vt 0.221597 0.333333
vt 0.040290 0.333333
vt 0.040290 0.666667
vt 0.020145 0.666667
vt 0.020145 0.333333
vt 0.060436 0.333333
vt 0.060436 0.666667
vt 0.040290 0.666667
vt 0.040290 0.333333
vt 0.684938 0.503631
vt 0.684938 0.483486
vt 0.705083 0.483486
vt 0.705083 0.503631
vt 0.241743 0.666667
vt 0.221597 0.666667
vt 0.221597 0.333333
vt 0.241743 0.333333
vt 0.684938 0.523776
vt 0.684938 0.503631
vt 0.705083 0.503631
vt 0.705083 0.523776
vt 0.261888 0.666667
vt 0.241743 0.666667
vt 0.241743 0.333333
vt 0.261888 0.333333
vt 0.141017 0.666667
vt 0.141017 1.000000
vt 0.120871 1.000000
vt 0.120871 0.666667
vt 0.161162 0.666667
vt 0.161162 1.000000
vt 0.141017 1.000000
vt 0.705083 0.302179
vt 0.684938 0.302179
vt 0.684938 0.282034
vt 0.705083 0.282034
vt 0.282033 0.666667
vt 0.261888 0.666667
vt 0.261888 0.333333
vt 0.282033 0.333333
vt 0.705083 0.322324
vt 0.684938 0.322324
vt 0.684938 0.302179
vt 0.705083 0.302179
vt 0.302178 0.666667
vt 0.282033 0.666667
vt 0.282033 0.333333
vt 0.302178 0.333333
vt 0.342469 0.000000
vt 0.342469 0.333333
vt 0.322324 0.333333
vt 0.322324 0.000000
vt 0.020145 0.333333
vt 0.020145 0.666667
vt 0.000000 0.666667
vt 0.000000 0.333333
vt 0.684938 0.543921
vt 0.684938 0.523776
vt 0.705083 0.523776
vt 0.705083 0.543921
vt 0.322324 0.666667
vt 0.302178 0.333333
vt 0.322324 0.333333
vt 0.684938 0.564066
vt 0.705083 0.564066
vt 0.342469 0.666667
vt 0.322324 0.666667
vt 0.342469 0.333333
vt 0.221597 0.666667
vt 0.221597 1.000000
vt 0.201452 1.000000
vt 0.201452 0.666667
vt 0.241743 0.666667
vt 0.241743 1.000000
vt 0.684938 0.584212
vt 0.705083 0.584212
vt 0.362615 0.333333
vt 0.342469 0.333333
vt 0.342469 -0.000000
vt 0.362615 -0.000000
vt 0.684938 0.604357
vt 0.705083 0.604357
vt 0.362615 0.666667
vt 0.342469 0.666667
vt 0.342469 0.333333
vt 0.362615 0.333333
vt 0.261888 0.666667
vt 0.261888 1.000000
vt 0.282033 0.666667
vt 0.282033 1.000000
vt 0.684938 0.624502
vt 0.705083 0.624502
vt 0.382760 0.333333
vt 0.362615 -0.000000
vt 0.382760 -0.000000
vt 0.684938 0.644647
vt 0.705083 0.644647
vt 0.382760 0.666667
vt 0.362615 0.666667
vt 0.362615 0.333333
vt 0.382760 0.333333
vt 0.302178 0.666667
vt 0.302178 1.000000
vt 0.322323 0.666667
vt 0.322323 1.000000
vt 0.705083 0.342469
vt 0.684938 0.342469
vt 0.684938 0.322324
vt 0.705083 0.322324
vt 0.402905 0.333333
vt 0.382760 -0.000000
vt 0.402905 0.000000
vt 0.705083 0.362614
vt 0.684938 0.362614
vt 0.684938 0.342469
vt 0.705083 0.342469
vt 0.402905 0.666667
vt 0.382760 0.666667
vt 0.382760 0.333333
vt 0.402905 0.333333
vt 0.181307 0.666667
vt 0.181307 1.000000
vt 0.161162 1.000000
vt 0.161162 0.666667
vt 0.201452 0.666667
vt 0.201452 1.000000
vt 0.705083 0.100726
vt 0.684938 0.100726
vt 0.684938 0.080581
vt 0.705083 0.080581
vt 0.423050 0.333333
vt 0.402905 0.333333
vt 0.402905 0.000000
vt 0.423050 0.000000
vt 0.705083 0.120872
vt 0.684938 0.120872
vt 0.684938 0.100726
vt 0.705083 0.100726
vt 0.423050 0.666667
vt 0.423050 0.333333
vt 0.020145 0.000000
vt 0.020145 0.333333
vt -0.000000 0.333333
vt 0.000000 0.000000
vt 0.040291 -0.000000
vt 0.020145 -0.000000
vt 0.705083 0.141017
vt 0.684938 0.141017
vt 0.684938 0.120872
vt 0.705083 0.120872
vt 0.443195 0.333333
vt 0.423050 0.000000
vt 0.443195 0.000000
vt 0.705083 0.161162
vt 0.684938 0.161162
vt 0.443195 0.666667
vt 0.423050 0.666667
vt 0.423050 0.333333
vt 0.443195 0.333333
vt 0.060436 0.000000
vt 0.060436 0.333333
vt 0.040291 0.000000
vt 0.080581 0.000000
vt 0.080581 0.333333
vt 0.705083 0.181307
vt 0.684938 0.181307
vt 0.463341 0.333333
vt 0.443195 0.000000
vt 0.463341 0.000000
vt 0.705083 0.201453
vt 0.684938 0.201453
vt 0.463341 0.666667
vt 0.443195 0.666667
vt 0.443196 0.333333
vt 0.463341 0.333333
vt 0.100726 -0.000000
vt 0.100726 0.333333
vt 0.080581 -0.000000
vt 0.120872 -0.000000
vt 0.120872 0.333333
vt 0.705083 0.221598
vt 0.684938 0.221598
vt 0.483486 0.333333
vt 0.463341 0.333333
vt 0.463341 -0.000000
vt 0.483486 -0.000000
vt 0.705083 0.241743
vt 0.684938 0.241743
vt 0.483486 0.666667
vt 0.483486 0.333333
vt 0.141017 0.000000
vt 0.141017 0.333333
vt 0.120872 -0.000000
vt 0.161162 -0.000000
vt 0.161162 0.333333
vt 0.141017 -0.000000
vt 0.705083 0.261888
vt 0.684938 0.261888
vt 0.503631 0.333333
vt 0.483486 -0.000000
vt 0.503631 -0.000000
vt 0.705083 0.282034
vt 0.684938 0.282034
vt 0.503631 0.666667
vt 0.483486 0.666667
vt 0.483486 0.333333
vt 0.503631 0.333333
vt 0.181307 0.000000
vt 0.181307 0.333333
vt 0.161162 0.000000
vt 0.201453 0.000000
vt 0.201453 0.333333
vt 0.664790 0.686812
vt 0.644645 0.686812
vt 0.644645 0.666667
vt 0.664790 0.666667
vt 0.523776 0.333333
vt 0.503631 -0.000000
vt 0.523776 -0.000000
vt 0.684935 0.686812
vt 0.664790 0.686812
vt 0.664790 0.666667
vt 0.684935 0.666667
vt 0.523776 0.666667
vt 0.503631 0.666667
vt 0.221598 0.000000
vt 0.221598 0.333333
vt 0.241743 0.000000
vt 0.241743 0.333333
vt 0.705083 0.020145
vt 0.684938 0.020145
vt 0.684938 -0.000000
vt 0.705083 -0.000000
vt 0.543922 0.333333
vt 0.523776 -0.000000
vt 0.543922 0.000000
vt 0.705083 0.040290
vt 0.684938 0.040290
vt 0.543922 0.666667
vt 0.523776 0.333333
vt 0.543922 0.333333
vt 0.261888 -0.000000
vt 0.261888 0.333333
vt 0.241743 -0.000000
vt 0.282034 -0.000000
vt 0.282034 0.333333
vt 0.261888 -0.000000
vt 0.705083 0.060436
vt 0.684938 0.060436
vt 0.684938 0.040291
vt 0.705083 0.040291
vt 0.564067 0.333333
vt 0.543922 0.000000
vt 0.564067 0.000000
vt 0.684938 0.060436
vt 0.705083 0.060436
vt 0.564067 0.666667
vt 0.564067 0.333333
vt 0.302179 0.000000
vt 0.302179 0.333333
vt 0.282034 0.000000
vt 0.322324 0.000000
vt 0.322324 0.333333
vt 0.684938 0.664792
vt 0.684938 0.644647
vt 0.705083 0.664792
vt 0.584212 0.333333
vt 0.564067 0.000000
vt 0.584212 0.000000
vt 0.684938 0.684937
vt 0.705083 0.684937
vt 0.584212 0.666667
vt 0.564067 0.666667
vt 0.342468 0.666667
vt 0.342468 1.000000
vt 0.362613 0.666667
vt 0.362613 1.000000
vt 0.684938 0.705083
vt 0.705083 0.705083
vt 0.604357 0.333333
vt 0.584212 -0.000000
vt 0.604357 -0.000000
vt 0.684938 0.725228
vt 0.705083 0.725228
vt 0.604357 0.666667
vt 0.584212 0.333333
vt 0.604357 0.333333
vt 0.382759 0.666667
vt 0.382759 1.000000
vt 0.402904 0.666667
vt 0.402904 1.000000
vt 0.684938 0.745373
vt 0.705083 0.745373
vt 0.624502 0.333333
vt 0.604357 -0.000000
vt 0.624502 -0.000000
vt 0.684938 0.765518
vt 0.705083 0.765518
vt 0.624502 0.666667
vt 0.624502 0.333333
vt 0.423049 0.666667
vt 0.423049 1.000000
vt 0.402904 1.000000
vt 0.402904 0.666667
vt 0.443194 0.666667
vt 0.443194 1.000000
vt 0.684938 0.785663
vt 0.705083 0.785663
vt 0.644648 0.333333
vt 0.624502 -0.000000
vt 0.644648 -0.000000
vt 0.684938 0.805809
vt 0.705083 0.805809
vt 0.644648 0.666667
vt 0.624502 0.666667
vt 0.463339 0.666667
vt 0.463339 1.000000
vt 0.483484 0.666667
vt 0.483484 1.000000
vt 0.684938 0.825954
vt 0.705083 0.825954
vt 0.664793 0.333333
vt 0.644648 -0.000000
vt 0.664793 0.000000
vt 0.684938 0.846099
vt 0.705083 0.846099
vt 0.664793 0.666667
vt 0.644648 0.333333
vt 0.664793 0.333333
vt 0.503629 0.666667
vt 0.503629 1.000000
vt 0.523774 0.666667
vt 0.523774 1.000000
vt 0.684938 0.866244
vt 0.705083 0.866244
vt 0.684938 0.333333
vt 0.664793 0.000000
vt 0.684938 0.000000
vt 0.684938 0.886389
vt 0.705083 0.886389
vt 0.684938 0.666667
vt 0.664793 0.666667
vt 0.543919 0.666667
vt 0.543919 1.000000
vt 0.564064 0.666667
vt 0.564064 1.000000
vt 0.684938 0.906534
vt 0.705083 0.906534
vt 0.020145 1.000000
vt -0.000000 1.000000
vt 0.000000 0.666667
vt 0.020145 0.666667
vt 0.684938 0.926680
vt 0.705083 0.926680
vt 0.040290 1.000000
vt 0.020145 1.000000
vt 0.020145 0.666667
vt 0.040290 0.666667
vt 0.584210 0.666667
vt 0.584210 1.000000
vt 0.604355 0.666667
vt 0.604355 1.000000
vt 0.684938 0.946825
vt 0.705083 0.946825
vt 0.060436 1.000000
vt 0.040290 1.000000
vt 0.040290 0.666667
vt 0.060436 0.666667
vt 0.684938 0.966970
vt 0.684938 0.946825
vt 0.705083 0.946825
vt 0.705083 0.966970
vt 0.080581 1.000000
vt 0.060436 1.000000
vt 0.060436 0.666667
vt 0.080581 0.666667
vt 0.624500 0.666667
vt 0.624500 1.000000
vt 0.644645 0.666667
vt 0.644645 1.000000
s 0
usemtl maderaspuente_color
f 1/1/1 2/2/1 4/3/1 3/4/1
f 3/5/2 4/6/2 8/7/2 7/8/2
f 7/9/3 8/10/3 6/2/3 5/11/3
f 5/12/4 6/13/4 2/14/4 1/15/4
f 3/16/5 7/17/5 5/18/5 1/19/5
f 8/20/6 4/21/6 2/22/6 6/23/6
f 9/24/1 10/25/1 12/26/1 11/27/1
f 11/28/7 12/29/7 16/30/7 15/31/7
f 15/32/3 16/33/3 14/34/3 13/35/3
f 13/36/8 14/37/8 10/38/8 9/39/8
f 11/40/9 15/41/9 13/42/9 9/13/9
f 16/43/10 12/44/10 10/45/10 14/46/10
f 17/47/1 18/48/1 20/49/1 19/50/1
f 19/51/11 20/52/11 24/53/11 23/54/11
f 23/55/3 24/56/3 22/57/3 21/58/3
f 21/59/12 22/60/12 18/61/12 17/62/12
f 19/63/13 23/64/13 21/65/13 17/66/13
f 24/67/14 20/68/14 18/69/14 22/70/14
f 25/71/1 26/72/1 28/73/1 27/74/1
f 27/75/15 28/76/15 32/77/15 31/78/15
f 31/79/3 32/80/3 30/81/3 29/82/3
f 29/83/16 30/84/16 26/85/16 25/86/16
f 27/87/17 31/88/17 29/89/17 25/90/17
f 32/91/18 28/92/18 26/93/18 30/21/18
f 33/94/1 34/95/1 36/96/1 35/97/1
f 35/98/19 36/99/19 40/100/19 39/101/19
f 39/102/3 40/103/3 38/104/3 37/105/3
f 37/106/20 38/107/20 34/108/20 33/109/20
f 35/110/21 39/111/21 37/112/21 33/113/21
f 40/114/22 36/115/22 34/116/22 38/117/22
f 41/118/1 42/119/1 44/120/1 43/121/1
f 43/122/23 44/106/23 48/123/23 47/124/23
f 47/125/3 48/118/3 46/121/3 45/126/3
f 45/127/24 46/128/24 42/124/24 41/129/24
f 43/130/25 47/131/25 45/132/25 41/133/25
f 48/134/26 44/135/26 42/131/26 46/130/26
f 49/136/1 50/125/1 52/126/1 51/137/1
f 51/138/27 52/139/27 56/140/27 55/141/27
f 55/142/3 56/136/3 54/137/3 53/143/3
f 53/144/28 54/145/28 50/146/28 49/147/28
f 51/148/29 55/149/29 53/135/29 49/134/29
f 56/150/30 52/151/30 50/149/30 54/148/30
f 57/152/1 58/142/1 60/143/1 59/153/1
f 59/154/31 60/138/31 64/155/31 63/156/31
f 63/157/3 64/152/3 62/153/3 61/158/3
f 61/159/32 62/160/32 58/161/32 57/162/32
f 59/163/33 63/164/33 61/151/33 57/150/33
f 64/165/34 60/166/34 58/164/34 62/163/34
f 65/167/1 66/168/1 68/169/1 67/170/1
f 67/171/35 68/162/35 72/172/35 71/173/35
f 71/174/3 72/175/3 70/176/3 69/177/3
f 69/178/36 70/179/36 66/180/36 65/181/36
f 67/182/37 71/183/37 69/184/37 65/185/37
f 72/186/38 68/187/38 66/183/38 70/182/38
f 73/188/1 74/189/1 76/190/1 75/191/1
f 75/192/39 76/193/39 80/194/39 79/195/39
f 79/196/3 80/197/3 78/198/3 77/199/3
f 77/200/40 78/178/40 74/181/40 73/201/40
f 75/202/41 79/203/41 77/204/41 73/205/41
f 80/206/42 76/70/42 74/203/42 78/207/42
f 81/208/1 82/209/1 84/210/1 83/211/1
f 83/212/43 84/192/43 88/213/43 87/214/43
f 87/215/3 88/216/3 86/209/3 85/208/3
f 85/217/44 86/218/44 82/219/44 81/220/44
f 83/221/45 87/222/45 85/70/45 81/223/45
f 88/224/46 84/225/46 82/222/46 86/221/46
f 89/226/1 90/227/1 92/216/1 91/215/1
f 91/228/47 92/220/47 96/229/47 95/230/47
f 95/231/3 96/232/3 94/227/3 93/226/3
f 93/233/48 94/234/48 90/235/48 89/236/48
f 91/237/49 95/238/49 93/225/49 89/239/49
f 96/240/50 92/241/50 90/238/50 94/237/50
f 97/242/1 98/243/1 100/232/1 99/231/1
f 99/244/51 100/245/51 104/246/51 103/247/51
f 103/248/3 104/249/3 102/243/3 101/242/3
f 101/250/52 102/233/52 98/236/52 97/251/52
f 99/252/53 103/253/53 101/241/53 97/254/53
f 104/255/54 100/256/54 98/253/54 102/257/54
f 105/258/1 106/259/1 108/249/1 107/248/1
f 107/260/55 108/244/55 112/261/55 111/262/55
f 111/263/3 112/264/3 110/259/3 109/258/3
f 109/265/56 110/266/56 106/267/56 105/268/56
f 107/269/53 111/270/53 109/256/53 105/271/53
f 112/272/57 108/273/57 106/270/57 110/269/57
f 113/274/1 114/275/1 116/276/1 115/277/1
f 115/278/58 116/260/58 120/279/58 119/280/58
f 119/281/3 120/282/3 118/283/3 117/284/3
f 117/285/59 118/286/59 114/268/59 113/278/59
f 115/287/60 119/288/60 117/273/60 113/272/60
f 120/289/61 116/290/61 114/288/61 118/287/61
f 121/291/1 122/292/1 124/293/1 123/294/1
f 123/295/62 124/278/62 128/296/62 127/297/62
f 127/298/3 128/299/3 126/292/3 125/291/3
f 125/300/63 126/285/63 122/301/63 121/302/63
f 123/303/64 127/304/64 125/290/64 121/305/64
f 128/306/65 124/307/65 122/304/65 126/308/65
f 129/309/1 130/310/1 132/311/1 131/312/1
f 131/313/66 132/302/66 136/314/66 135/315/66
f 135/191/3 136/190/3 134/316/3 133/317/3
f 133/318/67 134/300/67 130/302/67 129/319/67
f 131/320/64 135/321/64 133/307/64 129/322/64
f 136/323/68 132/324/68 130/321/68 134/320/68
f 137/325/1 138/326/1 140/158/1 139/327/1
f 139/328/69 140/313/69 144/329/69 143/330/69
f 143/331/3 144/325/3 142/327/3 141/332/3
f 141/333/70 142/334/70 138/319/70 137/328/70
f 139/335/71 143/336/71 141/166/71 137/165/71
f 144/337/72 140/338/72 138/336/72 142/335/72
f 145/339/1 146/331/1 148/332/1 147/340/1
f 147/341/73 148/328/73 152/342/73 151/343/73
f 151/344/3 152/339/3 150/340/3 149/345/3
f 149/346/74 150/333/74 146/347/74 145/348/74
f 147/349/75 151/350/75 149/338/75 145/337/75
f 152/351/76 148/352/76 146/350/76 150/349/76
f 153/353/1 154/344/1 156/345/1 155/354/1
f 155/355/77 156/348/77 160/356/77 159/357/77
f 159/358/3 160/353/3 158/354/3 157/359/3
f 157/360/78 158/346/78 154/348/78 153/361/78
f 155/362/79 159/363/79 157/364/79 153/365/79
f 160/366/80 156/367/80 154/363/80 158/362/80
f 161/368/1 162/358/1 164/359/1 163/369/1
f 163/370/81 164/355/81 168/371/81 167/372/81
f 167/373/3 168/368/3 166/369/3 165/374/3
f 165/375/82 166/376/82 162/361/82 161/370/82
f 163/377/83 167/378/83 165/367/83 161/366/83
f 168/379/84 164/380/84 162/378/84 166/377/84
f 169/381/1 170/373/1 172/374/1 171/382/1
f 171/383/85 172/370/85 176/384/85 175/385/85
f 175/386/3 176/381/3 174/382/3 173/387/3
f 173/388/86 174/375/86 170/389/86 169/390/86
f 171/391/87 175/392/87 173/380/87 169/379/87
f 176/393/88 172/394/88 170/392/88 174/391/88
f 177/395/1 178/386/1 180/387/1 179/396/1
f 179/397/89 180/390/89 184/398/89 183/399/89
f 183/400/3 184/395/3 182/396/3 181/401/3
f 181/402/90 182/403/90 178/390/90 177/397/90
f 179/404/91 183/405/91 181/394/91 177/393/91
f 184/406/92 180/407/92 178/405/92 182/404/92
f 185/408/1 186/400/1 188/401/1 187/409/1
f 187/410/93 188/411/93 192/412/93 191/413/93
f 191/414/3 192/408/3 190/409/3 189/415/3
f 189/416/94 190/417/94 186/418/94 185/419/94
f 187/420/95 191/421/95 189/407/95 185/406/95
f 192/422/96 188/423/96 186/421/96 190/420/96
f 193/424/1 194/414/1 196/415/1 195/425/1
f 195/426/97 196/427/97 200/428/97 199/429/97
f 199/430/3 200/431/3 198/432/3 197/433/3
f 197/434/98 198/435/98 194/436/98 193/437/98
f 195/438/99 199/439/99 197/423/99 193/422/99
f 200/440/100 196/441/100 194/439/100 198/438/100
