# Blender 4.5.0
# www.blender.org
mtllib cart.mtl
o cart.001
v 8.240729 1.300733 -7.958766
v 8.279234 1.562130 -7.976698
v 8.210320 1.270582 -7.607638
v 8.198107 1.529108 -7.502094
v 8.251524 1.524161 -7.998830
v 8.210843 1.483825 -7.529097
v 8.219056 1.309997 -7.600064
v 8.241075 1.343708 -7.968341
v 8.249705 1.297754 -7.948382
v 8.220980 1.269272 -7.616690
v 8.250051 1.340729 -7.957958
v 8.208397 1.311307 -7.591012
v 8.242920 1.573542 -8.019553
v 8.241365 1.524582 -7.539426
v 8.200184 1.485136 -7.520046
v 8.242547 1.527140 -8.009214
v 8.251896 1.570562 -8.009170
v 8.208766 1.527797 -7.511145
v 8.270327 1.326845 -7.931283
v 8.243788 1.300531 -7.624846
v 8.241716 1.492136 -7.551796
v 8.277945 1.528057 -7.970121
v 8.212392 1.301564 -7.657425
v 8.164763 1.310281 -7.660801
v 8.208792 1.290063 -7.637895
v 8.161235 1.299011 -7.641663
v 8.204257 1.267745 -7.635059
v 8.156791 1.277141 -7.638884
v 8.202202 1.251417 -7.651054
v 8.154778 1.261140 -7.654558
v 8.204175 1.253373 -7.673834
v 8.156711 1.263057 -7.676881
v 8.208690 1.272141 -7.686246
v 8.161135 1.281449 -7.689044
v 8.212347 1.293588 -7.678944
v 8.164719 1.302465 -7.681888
v 8.163465 1.324813 -7.601838
v 8.173459 1.356742 -7.656059
v 8.150874 1.262855 -7.593966
v 8.145170 1.217524 -7.638371
v 8.150647 1.222955 -7.701614
v 8.163181 1.275058 -7.736073
v 8.173333 1.334599 -7.715799
v 8.162473 1.313342 -7.619544
v 8.169593 1.336086 -7.658167
v 8.153504 1.269207 -7.613936
v 8.149442 1.236915 -7.645567
v 8.153343 1.240784 -7.690619
v 8.162271 1.277899 -7.715165
v 8.169503 1.320312 -7.700723
v 8.142170 1.302716 -7.642995
v 8.145699 1.313986 -7.662134
v 8.137727 1.280846 -7.640217
v 8.135713 1.264845 -7.655891
v 8.137647 1.266762 -7.678215
v 8.142071 1.285153 -7.690378
v 8.145654 1.306170 -7.683221
v 8.220991 1.347505 -7.652735
v 8.210997 1.315577 -7.598515
v 8.198406 1.253619 -7.590643
v 8.192702 1.208288 -7.635047
v 8.198179 1.213719 -7.698291
v 8.210713 1.265822 -7.732749
v 8.220865 1.325362 -7.712475
v 8.233728 1.322719 -7.903795
v 8.186099 1.331437 -7.907171
v 8.230128 1.311219 -7.884265
v 8.182571 1.320167 -7.888033
v 8.225594 1.288901 -7.881429
v 8.178127 1.298297 -7.885254
v 8.223538 1.272573 -7.897424
v 8.176114 1.282296 -7.900928
v 8.225512 1.274529 -7.920205
v 8.178047 1.284213 -7.923252
v 8.230026 1.293296 -7.932617
v 8.182471 1.302604 -7.935415
v 8.233684 1.314743 -7.925314
v 8.186055 1.323621 -7.928258
v 8.184800 1.345968 -7.848208
v 8.194796 1.377897 -7.902429
v 8.172211 1.284011 -7.840336
v 8.166507 1.238680 -7.884741
v 8.171984 1.244110 -7.947985
v 8.184518 1.296213 -7.982443
v 8.194670 1.355754 -7.962169
v 8.183809 1.334497 -7.865914
v 8.190929 1.357241 -7.904537
v 8.174841 1.290362 -7.860306
v 8.170778 1.258071 -7.891938
v 8.174680 1.261940 -7.936988
v 8.183608 1.299055 -7.961535
v 8.190840 1.341468 -7.947093
v 8.163507 1.323871 -7.889366
v 8.167035 1.335141 -7.908504
v 8.159062 1.302001 -7.886587
v 8.157049 1.286000 -7.902261
v 8.158982 1.287917 -7.924584
v 8.163406 1.306309 -7.936748
v 8.166990 1.327325 -7.929591
v 8.242328 1.368661 -7.899106
v 8.232332 1.336732 -7.844885
v 8.219743 1.274775 -7.837013
v 8.214039 1.229443 -7.881418
v 8.219516 1.234874 -7.944661
v 8.232050 1.286977 -7.979120
v 8.242202 1.346518 -7.958846
v 8.279351 1.275927 -7.489530
v 8.268503 1.283976 -7.489778
v 8.271706 1.301081 -7.488032
v 8.270341 1.299729 -7.472280
v 8.294739 1.283990 -7.487505
v 8.293374 1.282637 -7.471753
v 8.295870 1.255422 -7.489860
v 8.294506 1.254069 -7.474108
v 8.274248 1.236890 -7.493324
v 8.272883 1.235538 -7.477572
v 8.246154 1.242350 -7.495288
v 8.244790 1.240997 -7.479536
v 8.232743 1.267689 -7.494274
v 8.231380 1.266336 -7.478521
v 8.244115 1.293827 -7.491045
v 8.242750 1.292474 -7.475292
v 8.279883 1.262473 -7.490639
v 8.269701 1.253746 -7.492270
v 8.256471 1.256317 -7.493196
v 8.250154 1.268250 -7.492718
v 8.255510 1.280560 -7.491197
v 8.266257 1.291216 -7.615300
v 8.279251 1.294633 -7.613881
v 8.260902 1.278907 -7.616821
v 8.267218 1.266973 -7.617299
v 8.280449 1.264402 -7.616374
v 8.290631 1.273130 -7.614742
v 8.290098 1.286583 -7.613633
v 8.321987 1.318201 -7.981845
v 8.311139 1.326251 -7.982093
v 8.314342 1.343356 -7.980347
v 8.315705 1.344709 -7.996099
v 8.337375 1.326264 -7.979820
v 8.338738 1.327617 -7.995572
v 8.338506 1.297696 -7.982175
v 8.339870 1.299049 -7.997927
v 8.316884 1.279165 -7.985639
v 8.318248 1.280517 -8.001391
v 8.288790 1.284624 -7.987603
v 8.290154 1.285977 -8.003355
v 8.275379 1.309963 -7.986589
v 8.276743 1.311316 -8.002341
v 8.286751 1.336101 -7.983359
v 8.288115 1.337454 -7.999112
v 8.322519 1.304748 -7.982954
v 8.312337 1.296020 -7.984585
v 8.299107 1.298591 -7.985510
v 8.292790 1.310525 -7.985033
v 8.298146 1.322834 -7.983512
v 8.295337 1.320049 -7.951078
v 8.308331 1.323466 -7.949660
v 8.289982 1.307739 -7.952600
v 8.296297 1.295806 -7.953077
v 8.309528 1.293235 -7.952152
v 8.319711 1.301963 -7.950521
v 8.319178 1.315416 -7.949412
v 8.480892 1.254065 -7.941974
v 8.545375 1.510415 -7.958091
v 8.450483 1.223914 -7.590847
v 8.543905 1.461913 -7.477917
v 8.559634 1.464289 -7.977288
v 8.518954 1.423954 -7.507555
v 8.456139 1.263927 -7.583488
v 8.497878 1.293807 -7.950387
v 8.470147 1.254918 -7.932970
v 8.441422 1.226436 -7.601277
v 8.487133 1.294659 -7.941382
v 8.465199 1.261406 -7.573057
v 8.588719 1.506347 -7.995376
v 8.507506 1.472867 -7.520818
v 8.528015 1.421432 -7.497125
v 8.570379 1.463436 -7.986293
v 8.339554 1.268869 -7.670050
v 8.577974 1.507200 -7.986371
v 8.339600 1.276845 -7.648531
v 8.335999 1.265344 -7.629001
v 8.534844 1.464435 -7.488347
v 8.459764 1.290034 -7.918038
v 8.331464 1.243027 -7.626165
v 8.329410 1.226699 -7.642160
v 8.433225 1.263720 -7.611601
v 8.331383 1.228655 -7.664940
v 8.335897 1.247422 -7.677352
v 8.496749 1.442579 -7.533965
v 8.532977 1.478500 -7.952290
v 8.466806 1.252127 -7.639637
v 8.514241 1.242371 -7.636367
v 8.463206 1.240626 -7.620107
v 8.510714 1.231101 -7.617228
v 8.458672 1.218308 -7.617271
v 8.506269 1.209231 -7.614450
v 8.456616 1.201980 -7.633266
v 8.504256 1.193231 -7.630123
v 8.458590 1.203936 -7.656046
v 8.506189 1.195148 -7.652447
v 8.463104 1.222704 -7.668458
v 8.510613 1.213539 -7.664610
v 8.466761 1.244151 -7.661156
v 8.514196 1.234555 -7.657454
v 8.512942 1.256903 -7.577404
v 8.522938 1.288832 -7.631624
v 8.500353 1.194945 -7.569532
v 8.494649 1.149614 -7.613936
v 8.500126 1.155045 -7.677180
v 8.512660 1.207148 -7.711638
v 8.522812 1.266689 -7.691364
v 8.511951 1.245432 -7.595109
v 8.519072 1.268176 -7.633733
v 8.502983 1.201297 -7.589502
v 8.498919 1.169006 -7.621133
v 8.502822 1.172874 -7.666184
v 8.511750 1.209989 -7.690730
v 8.518982 1.252403 -7.676288
v 8.529778 1.227397 -7.615895
v 8.533306 1.238667 -7.635034
v 8.525333 1.205527 -7.613116
v 8.523320 1.189526 -7.628790
v 8.525253 1.191443 -7.651114
v 8.529678 1.209834 -7.663277
v 8.533261 1.230851 -7.656121
v 8.475406 1.298068 -7.634947
v 8.465410 1.266139 -7.580727
v 8.452821 1.204182 -7.572855
v 8.447117 1.158851 -7.617260
v 8.452594 1.164281 -7.680503
v 8.465128 1.216384 -7.714962
v 8.475280 1.275925 -7.694687
v 8.359926 1.276336 -7.940676
v 8.414935 1.538881 -7.997770
v 8.331201 1.247854 -7.608984
v 8.371805 1.496116 -7.499746
v 8.364899 1.453889 -7.518326
v 8.405579 1.494225 -7.988059
v 8.368591 1.317694 -7.949670
v 8.337597 1.286962 -7.591775
v 8.360810 1.277399 -7.950370
v 8.330402 1.247248 -7.599243
v 8.369476 1.318757 -7.959364
v 8.336799 1.286356 -7.582035
v 8.415820 1.539944 -8.007464
v 8.371006 1.495510 -7.490005
v 8.364100 1.453284 -7.508585
v 8.406464 1.495288 -7.997754
v 8.412305 1.536273 -7.967394
v 8.374435 1.498724 -7.530122
v 8.365045 1.308439 -7.924660
v 8.338507 1.282126 -7.618224
v 8.405460 1.503278 -7.961206
v 8.369232 1.467357 -7.542881
v 8.360890 1.290025 -7.916420
v 8.360935 1.298001 -7.894901
v 8.357335 1.286500 -7.875371
v 8.352800 1.264183 -7.872535
v 8.350746 1.247854 -7.888530
v 8.352718 1.249810 -7.911311
v 8.357233 1.268578 -7.923723
v 8.488143 1.273282 -7.886007
v 8.535578 1.263527 -7.882737
v 8.484543 1.261781 -7.866477
v 8.532049 1.252257 -7.863598
v 8.480007 1.239464 -7.863641
v 8.527606 1.230387 -7.860820
v 8.477953 1.223135 -7.879636
v 8.525592 1.214386 -7.876493
v 8.479926 1.225092 -7.902417
v 8.527526 1.216303 -7.898817
v 8.484441 1.243859 -7.914829
v 8.531950 1.234694 -7.910980
v 8.488097 1.265306 -7.907526
v 8.535533 1.255711 -7.903824
v 8.534279 1.278059 -7.823774
v 8.544274 1.309987 -7.877994
v 8.521689 1.216101 -7.815902
v 8.515985 1.170770 -7.860307
v 8.521462 1.176201 -7.923550
v 8.533996 1.228304 -7.958009
v 8.544148 1.287844 -7.937735
v 8.533288 1.266587 -7.841479
v 8.540408 1.289332 -7.880103
v 8.524320 1.222452 -7.835872
v 8.520256 1.190161 -7.867503
v 8.524158 1.194030 -7.912554
v 8.533086 1.231145 -7.937100
v 8.540318 1.273558 -7.922658
v 8.551114 1.248552 -7.862265
v 8.554643 1.259822 -7.881404
v 8.546670 1.226682 -7.859487
v 8.544657 1.210682 -7.875161
v 8.546590 1.212598 -7.897484
v 8.551014 1.230990 -7.909647
v 8.554598 1.252006 -7.902491
v 8.496742 1.319224 -7.881318
v 8.486747 1.287295 -7.827097
v 8.474157 1.225337 -7.819225
v 8.468453 1.180006 -7.863630
v 8.473930 1.185437 -7.926873
v 8.486464 1.237540 -7.961332
v 8.496616 1.297081 -7.941058
v 8.373252 1.257680 -7.482965
v 8.386246 1.261097 -7.481546
v 8.389447 1.278202 -7.479800
v 8.388083 1.276849 -7.464048
v 8.361857 1.270947 -7.482812
v 8.360493 1.269595 -7.467060
v 8.350486 1.244809 -7.486042
v 8.349121 1.243457 -7.470289
v 8.363896 1.219470 -7.487056
v 8.362532 1.218117 -7.471304
v 8.391991 1.214011 -7.485092
v 8.390626 1.212658 -7.469339
v 8.413612 1.232543 -7.481628
v 8.412249 1.231190 -7.465876
v 8.412481 1.261110 -7.479273
v 8.411117 1.259758 -7.463521
v 8.367897 1.245371 -7.484486
v 8.374212 1.233437 -7.484963
v 8.387444 1.230866 -7.484038
v 8.397626 1.239594 -7.482407
v 8.397093 1.253047 -7.481298
v 8.407841 1.263704 -7.605401
v 8.396994 1.271753 -7.605649
v 8.408374 1.250250 -7.606510
v 8.398191 1.241523 -7.608141
v 8.384960 1.244094 -7.609066
v 8.378645 1.256027 -7.608588
v 8.384000 1.268337 -7.607068
v 8.415888 1.299955 -7.975280
v 8.428882 1.303371 -7.973861
v 8.432083 1.320477 -7.972115
v 8.433448 1.321829 -7.987867
v 8.404493 1.313222 -7.975127
v 8.405857 1.314574 -7.990880
v 8.393122 1.287084 -7.978356
v 8.394485 1.288436 -7.994109
v 8.406532 1.261745 -7.979371
v 8.407896 1.263097 -7.995123
v 8.434627 1.256285 -7.977407
v 8.435990 1.257638 -7.993159
v 8.456248 1.274817 -7.973943
v 8.457613 1.276170 -7.989695
v 8.455117 1.303385 -7.971588
v 8.456481 1.304737 -7.987340
v 8.410533 1.287645 -7.976800
v 8.416848 1.275712 -7.977278
v 8.430079 1.273141 -7.976353
v 8.440262 1.281868 -7.974722
v 8.439729 1.295322 -7.973613
v 8.436920 1.292537 -7.941179
v 8.426073 1.300586 -7.941428
v 8.437453 1.279083 -7.942288
v 8.427271 1.270356 -7.943920
v 8.414040 1.272927 -7.944845
v 8.407724 1.284860 -7.944367
v 8.413079 1.297170 -7.942846
vn -0.1378 -0.3799 0.9147
vn -0.9961 -0.0114 -0.0872
vn -0.1831 -0.9780 -0.0998
vn -0.0431 0.1345 0.9900
vn -0.1851 -0.9798 -0.0761
vn -0.2058 -0.9733 -0.1014
vn 0.1810 0.9757 0.1235
vn 0.2058 0.9733 0.1014
vn -0.0469 -0.5431 -0.8383
vn 0.1831 0.9780 0.0998
vn 0.2022 0.9181 -0.3407
vn -0.0316 0.1906 0.9812
vn 0.9962 -0.0214 0.0844
vn 0.1276 0.8442 0.5206
vn -0.1814 -0.6764 0.7138
vn 0.1245 0.3007 -0.9455
vn -0.9793 0.1903 -0.0685
vn 0.9793 -0.1903 0.0685
vn 0.1336 0.3543 -0.9255
vn -0.1810 -0.9757 -0.1235
vn 0.1851 0.9798 0.0761
vn 0.0259 -0.2176 -0.9757
vn -0.1813 -0.6764 0.7138
vn 0.5899 0.7986 0.1197
vn 0.0860 0.0852 -0.9926
vn -0.9140 0.4032 -0.0445
vn 0.9955 0.0321 0.0890
vn -0.2600 0.9637 0.0602
vn 0.6515 -0.7586 -0.0087
vn -0.8798 -0.4610 -0.1158
vn -0.0860 -0.0852 0.9926
vn 0.9221 -0.3842 0.0469
vn -0.1603 -0.9822 -0.0982
vn 0.1603 0.9822 0.0982
vn -0.9340 0.3537 -0.0505
vt 0.902817 0.803756
vt 0.935000 0.680366
vt 0.935000 0.803756
vt 0.453616 0.747590
vt 0.486684 0.373795
vt 0.486684 0.737084
vt 0.090393 0.637854
vt 0.007423 0.391517
vt 0.090393 0.391517
vt 0.953991 0.305879
vt 0.970652 0.210122
vt 0.970652 0.305879
vt 0.672739 0.673604
vt 0.803460 0.366278
vt 0.803460 0.632074
vt 0.507083 0.765463
vt 0.634306 0.676230
vt 0.634306 0.765463
vt 0.911498 0.211021
vt 0.941304 0.120629
vt 0.941304 0.211021
vt 0.243964 0.654801
vt 0.213338 0.384300
vt 0.243964 0.394030
vt 0.090393 0.645071
vt 0.007423 0.637854
vt 0.000000 0.384300
vt -0.000000 0.645071
vt 0.356960 0.643520
vt 0.267727 0.636303
vt 0.356960 0.636303
vt 0.260304 0.363289
vt 0.260304 0.643520
vt 0.130152 0.384300
vt 0.007423 0.377083
vt 0.130152 0.377083
vt 0.000000 0.000000
vt -0.000000 0.384300
vt 0.260304 0.000000
vt 0.267727 0.356072
vt 0.260304 0.363289
vt 0.383694 0.363289
vt 0.383694 0.356073
vt 0.977494 0.673604
vt 0.964806 0.769360
vt 0.964806 0.673604
vt 0.029982 0.029776
vt 0.130152 0.007217
vt 0.130152 0.029776
vt 0.029982 0.354524
vt 0.007423 0.007217
vt 0.071300 0.872652
vt 0.000000 0.645071
vt 0.071300 0.645071
vt 0.157844 0.645071
vt 0.142601 0.740828
vt 0.142601 0.645071
vt 0.284881 0.743690
vt 0.430011 0.672389
vt 0.430011 0.743690
vt 0.531443 0.007036
vt 0.675295 0.276164
vt 0.531443 0.317712
vt 0.507083 -0.000000
vt 0.507083 0.324748
vt 0.260304 0.743690
vt 0.284881 0.647700
vt 0.173087 0.645071
vt 0.157844 0.740828
vt 0.213338 0.706848
vt 0.249118 0.664531
vt 0.249118 0.706848
vt 0.501556 0.843860
vt 0.465776 0.890114
vt 0.465776 0.843860
vt 0.501556 0.890114
vt 0.465776 0.925336
vt 0.177558 0.815570
vt 0.213338 0.768601
vt 0.213338 0.815570
vt 0.107341 0.954128
vt 0.143121 0.918905
vt 0.143121 0.954128
vt 0.978680 0.583699
vt 0.964329 0.568762
vt 0.978680 0.568762
vt 0.107341 0.872652
vt 0.143121 0.872652
vt 0.213338 0.749166
vt 0.249118 0.749166
vt 0.875042 0.082913
vt 0.845001 0.052769
vt 0.860547 0.052769
vt 0.907611 0.090359
vt 0.865349 0.095086
vt 0.933730 0.069498
vt 0.911071 0.105538
vt 0.933730 0.036040
vt 0.947737 0.076253
vt 0.907611 0.015179
vt 0.947737 0.029285
vt 0.875042 0.022625
vt 0.911071 0.000000
vt 0.865349 0.010452
vt 0.879969 0.052769
vt 0.887151 0.067706
vt 0.916232 0.061059
vt 0.903290 0.071395
vt 0.916232 0.044480
vt 0.903290 0.034143
vt 0.887151 0.037832
vt 0.164758 0.953108
vt 0.193866 0.959706
vt 0.180912 0.986616
vt 0.687090 0.969373
vt 0.672739 0.981805
vt 0.672739 0.969373
vt 0.424439 0.965725
vt 0.438790 0.978158
vt 0.424439 0.978158
vt 0.978680 0.553824
vt 0.964329 0.553824
vt 0.672739 0.953046
vt 0.687090 0.953046
vt 0.258315 0.661429
vt 0.243964 0.644850
vt 0.258315 0.644850
vt 0.438790 0.949398
vt 0.438790 0.965725
vt 0.746965 0.244649
vt 0.778157 0.276599
vt 0.746965 0.261566
vt 0.741446 0.305872
vt 0.733742 0.272110
vt 0.717253 0.268341
vt 0.695668 0.295408
vt 0.709914 0.253097
vt 0.675294 0.253088
vt 0.717253 0.237857
vt 0.695668 0.210779
vt 0.741446 0.200341
vt 0.733742 0.234098
vt 0.778157 0.229633
vt 0.675295 0.100170
vt 0.699871 0.196160
vt 0.675295 0.200341
vt 0.503602 0.363289
vt 0.486684 0.459046
vt 0.486684 0.363289
vt 0.699871 0.100170
vt 0.845001 0.171471
vt 0.994154 0.673604
vt 0.977494 0.769360
vt 0.941304 0.305879
vt 0.953991 0.210122
vt 0.383694 0.000000
vt 0.267727 0.007217
vt 0.130152 0.000000
vt 0.356960 0.363289
vt 0.267727 0.370506
vt 0.090393 0.384300
vt 0.964806 0.860652
vt 0.935000 0.770259
vt 0.964806 0.770259
vt 0.799962 0.878804
vt 0.672739 0.789570
vt 0.799962 0.789570
vt 0.964329 0.578290
vt 0.932146 0.454900
vt 0.964329 0.454900
vt 0.977017 0.516261
vt 0.993677 0.420505
vt 0.993677 0.516261
vt 0.983339 0.114365
vt 0.970652 0.210122
vt 0.970652 0.114365
vt 0.896255 0.114365
vt 0.881012 0.210122
vt 0.881012 0.114365
vt 0.911498 0.114365
vt 0.896255 0.210122
vt 0.845001 0.147855
vt 0.880781 0.105538
vt 0.880781 0.147855
vt 0.035780 0.872652
vt 0.000000 0.918905
vt -0.000000 0.872652
vt 0.035780 0.954128
vt 0.000000 0.954128
vt 0.935000 0.913884
vt 0.970781 0.866915
vt 0.970781 0.913884
vt 0.578644 0.962906
vt 0.614424 0.927683
vt 0.614424 0.962906
vt 0.325589 0.979273
vt 0.311237 0.964335
vt 0.325589 0.964335
vt 0.578644 0.881430
vt 0.614424 0.881430
vt 0.880781 0.190173
vt 0.290345 0.926774
vt 0.260304 0.896629
vt 0.275851 0.896629
vt 0.326374 0.949398
vt 0.280652 0.938947
vt 0.349033 0.913358
vt 0.322915 0.934219
vt 0.363040 0.873145
vt 0.363040 0.920114
vt 0.349033 0.879900
vt 0.326374 0.843860
vt 0.322915 0.859040
vt 0.280652 0.854312
vt 0.290345 0.866485
vt 0.295272 0.896629
vt 0.318593 0.915256
vt 0.302454 0.911566
vt 0.331535 0.904919
vt 0.331535 0.888340
vt 0.318593 0.878003
vt 0.302454 0.881692
vt 0.230140 0.959747
vt 0.217194 0.986640
vt 0.193866 0.967991
vt 0.747723 0.969348
vt 0.733372 0.981780
vt 0.733372 0.969348
vt 0.438790 0.965725
vt 0.453141 0.978157
vt 0.438790 0.978157
vt 0.325589 0.949398
vt 0.311237 0.949398
vt 0.733372 0.953021
vt 0.747723 0.953021
vt 0.689646 0.322450
vt 0.675295 0.305871
vt 0.689646 0.305871
vt 0.453141 0.949398
vt 0.453141 0.965725
vt 0.839057 0.268352
vt 0.881012 0.253110
vt 0.860640 0.295427
vt 0.814865 0.305879
vt 0.822569 0.272117
vt 0.778157 0.276594
vt 0.809346 0.261569
vt 0.809346 0.244650
vt 0.778157 0.229625
vt 0.822569 0.234102
vt 0.814865 0.200341
vt 0.839057 0.237867
vt 0.860640 0.210792
vt 0.846395 0.253110
vt 0.503602 0.554803
vt 0.486684 0.650559
vt 0.486684 0.554803
vt 1.000000 0.210122
vt 0.983339 0.210122
vt 0.964329 0.516261
vt 0.977017 0.420505
vt 0.438984 0.735687
vt 0.430011 0.643520
vt 0.438984 0.643520
vt 0.816480 0.932163
vt 0.811567 0.950944
vt 0.799962 0.945362
vt 0.255663 0.587689
vt 0.243964 0.606743
vt 0.243964 0.587689
vt 0.983117 -0.000000
vt 0.973544 0.092167
vt 0.973544 -0.000000
vt 0.816480 0.979672
vt 0.829046 0.964877
vt 0.837077 0.974947
vt 0.799962 0.943101
vt 0.788263 0.963837
vt 0.788263 0.943101
vt 0.447957 0.643520
vt 0.447957 0.735687
vt 0.846244 0.955889
vt 0.833363 0.955901
vt 0.799962 0.963837
vt 0.788263 0.980013
vt 0.499162 0.747590
vt 0.489396 0.839757
vt 0.489396 0.747590
vt 0.829046 0.946934
vt 0.837077 0.936848
vt 0.211064 0.836718
vt 0.199365 0.815570
vt 0.211064 0.815570
vt 0.191582 0.815570
vt 0.199365 0.831717
vt 0.181877 0.835729
vt 0.811567 0.960901
vt 0.819346 0.967102
vt 0.157569 0.957094
vt 0.145870 0.939858
vt 0.157569 0.939858
vt 0.855439 0.889407
vt 0.892574 0.897835
vt 0.876047 0.932163
vt 0.506780 0.747590
vt 0.499162 0.839757
vt 0.145870 0.919531
vt 0.157569 0.919531
vt 0.965427 0.092167
vt 0.965427 -0.000000
vt 0.799962 0.966505
vt 0.255663 0.568635
vt 0.243964 0.568635
vt 0.819346 0.944728
vt 0.253924 0.384300
vt 0.243964 0.476468
vt 0.243964 0.384300
vt 0.260920 0.973485
vt 0.269894 0.949398
vt 0.269894 0.973485
vt 0.880945 0.950944
vt 0.876032 0.932163
vt 0.892550 0.945362
vt 0.255663 0.644850
vt 0.243964 0.625797
vt 0.255663 0.625797
vt 0.380098 0.949398
vt 0.389671 0.973485
vt 0.380098 0.973485
vt 0.863466 0.964877
vt 0.876032 0.979672
vt 0.855435 0.974947
vt 0.980159 0.653297
vt 0.968460 0.632561
vt 0.980159 0.632561
vt 0.251947 0.973485
vt 0.260920 0.949398
vt 0.846268 0.955889
vt 0.980159 0.669474
vt 0.968460 0.653297
vt 0.389671 0.949398
vt 0.399436 0.973485
vt 0.389671 0.973485
vt 0.863466 0.946934
vt 0.855435 0.936848
vt 0.947737 0.113316
vt 0.959435 0.092167
vt 0.959435 0.113316
vt 0.787143 0.934118
vt 0.779357 0.950264
vt 0.765326 0.939080
vt 0.880945 0.960901
vt 0.892550 0.966505
vt 0.964329 0.553824
vt 0.976028 0.536589
vt 0.976028 0.553824
vt 0.702503 0.953046
vt 0.672739 0.929263
vt 0.702503 0.905537
vt 0.407055 0.949398
vt 0.407055 0.973485
vt 0.964329 0.536589
vt 0.976028 0.516261
vt 0.371981 0.949398
vt 0.371981 0.973485
vt 0.243964 0.606743
vt 0.255663 0.606743
vt 0.249118 0.664531
vt 0.259078 0.688618
vt 0.249118 0.688618
vt 0.935000 0.927145
vt 0.213338 0.758095
vt 0.180785 0.384300
vt 0.213338 0.394806
vt 0.173363 0.391517
vt 0.953991 0.114365
vt 0.970652 0.114365
vt 0.932146 0.632074
vt 0.803460 0.324748
vt 0.932146 0.366278
vt 0.634306 0.854696
vt 0.941304 0.301414
vt 0.664455 0.919997
vt 0.634306 0.649496
vt 0.664455 0.659226
vt 0.173363 0.637854
vt 0.180785 0.645071
vt 0.180785 0.384300
vt 0.446193 0.636303
vt 0.453616 0.643520
vt 0.453616 0.363289
vt 0.252882 0.377083
vt 0.260304 0.384300
vt 0.252882 0.007217
vt 0.260304 0.000000
vt 0.499661 0.356073
vt 0.507083 0.000000
vt 0.507083 0.363289
vt 0.977494 0.865117
vt 0.964806 0.865117
vt 0.230322 0.029776
vt 0.230322 0.354524
vt 0.157844 0.836585
vt 0.142601 0.836585
vt 0.430011 0.814990
vt 0.284881 0.839679
vt 0.672739 0.373332
vt 0.531073 0.642460
vt 0.531073 0.331784
vt 0.507083 0.649496
vt 0.507083 0.324748
vt 0.260304 0.843860
vt 0.173087 0.836585
vt 0.453616 0.747590
vt 0.489396 0.789907
vt 0.453616 0.789907
vt 0.578644 0.927684
vt 0.542864 0.881430
vt 0.578644 0.881430
vt 0.578644 0.962906
vt 0.542864 0.927684
vt 0.935000 0.913884
vt 0.970780 0.960853
vt 0.935000 0.960853
vt 0.507083 0.962906
vt 0.542863 0.962906
vt 0.339940 0.964335
vt 0.325589 0.979273
vt 0.325589 0.964335
vt 0.507083 0.927684
vt 0.542863 0.881430
vt 0.453616 0.832225
vt 0.489396 0.832225
vt 0.799962 0.726373
vt 0.830038 0.696228
vt 0.815526 0.726373
vt 0.820334 0.684055
vt 0.862645 0.688783
vt 0.866109 0.673604
vt 0.888794 0.709644
vt 0.902817 0.702888
vt 0.888794 0.743101
vt 0.902817 0.749857
vt 0.862645 0.763962
vt 0.866109 0.779142
vt 0.830038 0.756517
vt 0.820334 0.768690
vt 0.834970 0.726373
vt 0.842161 0.711435
vt 0.858319 0.707746
vt 0.871276 0.718083
vt 0.871276 0.734662
vt 0.858319 0.744999
vt 0.842161 0.741310
vt 0.935000 0.944238
vt 0.922040 0.971152
vt 0.898687 0.952538
vt 0.687090 0.969373
vt 0.701441 0.981805
vt 0.687090 0.981805
vt 0.765326 0.979023
vt 0.779677 0.966590
vt 0.779677 0.979023
vt 0.325589 0.949398
vt 0.701441 0.953046
vt 0.687090 0.953046
vt 0.703997 0.305872
vt 0.689646 0.322451
vt 0.689646 0.305872
vt 0.765326 0.950264
vt 0.779677 0.950264
vt 0.239956 0.854312
vt 0.225727 0.896629
vt 0.218398 0.881386
vt 0.194235 0.843860
vt 0.201929 0.877622
vt 0.188722 0.888170
vt 0.188722 0.905088
vt 0.157569 0.873145
vt 0.201929 0.915637
vt 0.157569 0.920114
vt 0.239956 0.938947
vt 0.218398 0.911872
vt 0.260304 0.896629
vt 0.699871 0.004181
vt 0.675295 0.000000
vt 0.486684 0.554803
vt 0.845001 0.028870
vt 0.994154 0.865117
vt 0.941304 0.114365
vt 0.130152 0.354524
vt 0.499661 0.007217
vt 0.446193 0.370506
vt 0.964806 0.679867
vt 0.935000 0.673604
vt 0.799962 0.700337
vt 0.672739 0.673604
vt 0.964329 0.331511
vt 0.932146 0.324748
vt 0.977017 0.324748
vt 0.993677 0.324748
vt 0.983339 0.305879
vt 0.970652 0.305879
vt 0.896255 0.305879
vt 0.881012 0.305879
vt 0.911498 0.305879
vt 0.213338 0.749166
vt 0.249118 0.791483
vt 0.213338 0.791483
vt 0.107341 0.918905
vt 0.071561 0.872652
vt 0.107341 0.872652
vt 0.071561 0.954128
vt 0.071561 0.918905
vt 0.465776 0.925336
vt 0.501556 0.972305
vt 0.465776 0.972305
vt 0.035780 0.918905
vt 0.071561 0.954128
vt 0.035780 0.954128
vt 0.354291 0.964335
vt 0.339940 0.979273
vt 0.339940 0.964335
vt 0.071561 0.872652
vt 0.071561 0.918905
vt 0.213338 0.833801
vt 0.249118 0.833801
vt 0.799962 0.831911
vt 0.830038 0.801766
vt 0.815526 0.831911
vt 0.866109 0.779142
vt 0.862645 0.794321
vt 0.888794 0.815182
vt 0.902817 0.855395
vt 0.888794 0.848639
vt 0.866109 0.884680
vt 0.862645 0.869500
vt 0.820334 0.874228
vt 0.830038 0.862055
vt 0.834970 0.831911
vt 0.842161 0.816973
vt 0.858319 0.813284
vt 0.871276 0.823621
vt 0.871276 0.840200
vt 0.858319 0.850537
vt 0.842161 0.846848
vt 0.968460 0.642891
vt 0.955500 0.669805
vt 0.932146 0.651191
vt 0.747723 0.969348
vt 0.762074 0.981780
vt 0.747723 0.981780
vt 0.719020 0.981780
vt 0.733372 0.969348
vt 0.733372 0.981780
vt 0.339940 0.949398
vt 0.762074 0.953021
vt 0.747723 0.953021
vt 0.718348 0.305871
vt 0.703997 0.322450
vt 0.703997 0.305871
vt 0.719020 0.953021
vt 0.733372 0.953021
vt 0.423869 0.881386
vt 0.465776 0.896629
vt 0.431198 0.896629
vt 0.399706 0.843860
vt 0.407400 0.877622
vt 0.363040 0.873145
vt 0.394193 0.888170
vt 0.394193 0.905088
vt 0.399706 0.949398
vt 0.407400 0.915637
vt 0.445427 0.938947
vt 0.423869 0.911872
vt 0.503602 0.746316
vt 0.486684 0.746316
vt 1.000000 0.305879
vt 0.964329 0.324748
vt 0.438984 0.827854
vt 0.447957 0.735687
vt 0.447957 0.827854
vt 0.652850 0.948507
vt 0.647938 0.929726
vt 0.664455 0.942925
vt 0.145870 0.843860
vt 0.157569 0.862914
vt 0.145870 0.862914
vt 0.980546 0.959082
vt 0.970781 0.866915
vt 0.980546 0.866915
vt 0.635371 0.962440
vt 0.647938 0.977235
vt 0.627340 0.972510
vt 0.157569 0.902295
vt 0.145870 0.881968
vt 0.157569 0.881968
vt 0.430011 0.735687
vt 0.430011 0.827854
vt 0.618174 0.953452
vt 0.157569 0.919531
vt 0.145870 0.902295
vt 0.965427 0.092167
vt 0.955854 -0.000000
vt 0.965427 -0.000000
vt 0.635371 0.944497
vt 0.627340 0.934411
vt 0.464839 0.949398
vt 0.453141 0.970546
vt 0.453141 0.949398
vt 0.251947 0.960596
vt 0.237923 0.971760
vt 0.230140 0.955594
vt 0.652850 0.958464
vt 0.664455 0.964068
vt 0.287840 0.986311
vt 0.299539 0.970134
vt 0.299539 0.986311
vt 0.846268 0.897835
vt 0.829741 0.932163
vt 0.799962 0.908457
vt 0.955854 0.092167
vt 0.947737 -0.000000
vt 0.287840 0.970134
vt 0.299539 0.949398
vt 0.988164 0.959082
vt 0.988164 0.866915
vt 0.157569 0.881968
vt 0.145870 0.881968
vt 0.253924 0.568635
vt 0.243964 0.476468
vt 0.253924 0.476468
vt 0.287840 0.949398
vt 0.278867 0.973485
vt 0.278867 0.949398
vt 0.948664 0.585052
vt 0.943752 0.603833
vt 0.932146 0.598251
vt 0.614424 0.900484
vt 0.626123 0.881430
vt 0.626123 0.900484
vt 0.407055 0.973485
vt 0.416820 0.949398
vt 0.416820 0.973485
vt 0.948664 0.632561
vt 0.961231 0.617766
vt 0.969262 0.627836
vt 0.799962 0.905537
vt 0.788263 0.925865
vt 0.788263 0.905537
vt 0.978428 0.608778
vt 0.965548 0.608790
vt 0.799962 0.925865
vt 0.788263 0.943100
vt 0.362408 0.973485
vt 0.371981 0.949398
vt 0.371981 0.973485
vt 0.961231 0.599823
vt 0.969262 0.589737
vt 0.959436 0.092167
vt 0.971134 0.113315
vt 0.959436 0.113316
vt 0.787122 0.921710
vt 0.769643 0.925686
vt 0.769643 0.907744
vt 0.943752 0.613790
vt 0.951530 0.619991
vt 0.311237 0.986311
vt 0.299539 0.970134
vt 0.311237 0.970134
vt 0.728192 0.910264
vt 0.765326 0.918693
vt 0.748800 0.953021
vt 0.354291 0.973485
vt 0.362408 0.949398
vt 0.299539 0.949398
vt 0.311237 0.949398
vt 0.424438 0.949398
vt 0.424438 0.973485
vt 0.932146 0.619394
vt 0.614424 0.919537
vt 0.626123 0.919537
vt 0.951530 0.597617
vt 0.249118 0.712705
vt 0.902817 0.673604
vt 0.453616 0.363289
vt 0.672739 0.324748
vt 0.911498 0.114365
vt 0.213338 0.664531
vt -0.000000 0.872652
vt 0.675295 0.048584
vt 0.260304 0.643520
vt 0.173087 0.740828
vt 0.213338 0.664531
vt 0.501556 0.925336
vt 0.177558 0.768601
vt 0.107341 0.918905
vt 0.964329 0.583699
vt 0.164758 0.982954
vt 0.157569 0.968042
vt 0.180912 0.949398
vt 0.193866 0.976270
vt 0.243964 0.661429
vt 0.424438 0.949398
vt 0.503602 0.459046
vt 0.845001 0.100170
vt 0.994154 0.769360
vt 0.941304 0.210122
vt 0.383694 0.007217
vt 0.356960 0.370506
vt 0.935000 0.866915
vt 0.672739 0.905537
vt 0.932146 0.585052
vt 0.911498 0.210122
vt 0.845001 0.105538
vt 0.035780 0.918905
vt 0.578644 0.927683
vt 0.311237 0.979273
vt 0.845001 0.190173
vt 0.201050 0.953067
vt 0.217194 0.949398
vt 0.230140 0.976322
vt 0.201050 0.982933
vt 0.747723 0.981780
vt 0.675295 0.322450
vt 0.438790 0.949398
vt 0.503602 0.650559
vt 1.000000 0.114365
vt 0.964329 0.420505
vt 0.430011 0.735687
vt 0.255663 0.606743
vt 0.983117 0.092167
vt 0.799962 0.980013
vt 0.199365 0.836718
vt 0.177558 0.826768
vt 0.181877 0.817796
vt 0.199365 0.821765
vt 0.191582 0.837932
vt 0.145870 0.957094
vt 0.855439 0.927486
vt 0.846268 0.908457
vt 0.876047 0.884680
vt 0.892574 0.918968
vt 0.506780 0.839757
vt 0.253924 0.476468
vt 0.873166 0.944728
vt 0.243964 0.644850
vt 0.389671 0.949398
vt 0.873166 0.967102
vt 0.251947 0.949398
vt 0.859149 0.955901
vt 0.968460 0.669474
vt 0.399436 0.949398
vt 0.947737 0.092167
vt 0.769647 0.930120
vt 0.779357 0.927911
vt 0.787143 0.944066
vt 0.769647 0.948045
vt 0.719020 0.918736
vt 0.719020 0.939879
vt 0.681905 0.948321
vt 0.681905 0.910222
vt 0.964329 0.516261
vt 0.259078 0.664531
vt 0.902817 0.933908
vt 0.180785 0.768601
vt 0.803460 0.673604
vt 0.507083 0.881430
vt 0.911498 0.307677
vt 0.634306 0.929726
vt 0.142601 0.872652
vt 0.672739 0.600912
vt 0.489396 0.747590
vt 0.542864 0.962906
vt 0.970780 0.913884
vt 0.339940 0.979273
vt 0.507083 0.881430
vt 0.905879 0.937602
vt 0.922040 0.933908
vt 0.935000 0.960813
vt 0.905879 0.967470
vt 0.701441 0.969373
vt 0.765326 0.966590
vt 0.339940 0.949398
vt 0.703997 0.322451
vt 0.194235 0.949398
vt 0.249118 0.749166
vt 0.107341 0.954128
vt 0.501556 0.925336
vt 0.354291 0.979273
vt 0.035780 0.872652
vt 0.820334 0.789593
vt 0.902817 0.808426
vt 0.939339 0.636255
vt 0.955500 0.632561
vt 0.968460 0.659466
vt 0.939339 0.666123
vt 0.762074 0.969348
vt 0.719020 0.969348
vt 0.354291 0.949398
vt 0.718348 0.322450
vt 0.445427 0.854312
vt 0.363040 0.920114
vt 0.438984 0.735687
vt 0.645071 0.942291
vt 0.157569 0.843860
vt 0.970781 0.959082
vt 0.645071 0.964665
vt 0.631054 0.953464
vt 0.145870 0.919531
vt 0.464839 0.970546
vt 0.237923 0.949398
vt 0.247628 0.951624
vt 0.247628 0.969557
vt 0.230140 0.965546
vt 0.809133 0.889407
vt 0.829741 0.884680
vt 0.846268 0.918968
vt 0.809133 0.927486
vt 0.947737 0.092167
vt 0.287840 0.973485
vt 0.614424 0.881430
vt 0.407055 0.949398
vt 0.799962 0.943100
vt 0.971134 0.092167
vt 0.779343 0.905537
vt 0.787122 0.911753
vt 0.779343 0.927911
vt 0.765326 0.916711
vt 0.299539 0.986311
vt 0.728192 0.948344
vt 0.719020 0.929315
vt 0.748800 0.905537
vt 0.765326 0.939825
vt 0.259078 0.712705
s 0
usemtl cart_color
f 247/1/1 15/2/1 248/3/1
f 4/4/2 16/5/2 15/6/2
f 236/7/3 9/8/3 234/9/3
f 27/10/4 182/11/4 25/12/4
f 6/13/2 11/14/2 7/15/2
f 238/16/1 7/17/1 241/18/1
f 245/19/1 3/20/1 243/21/1
f 3/22/2 8/23/2 1/24/2
f 243/25/5 10/26/5 236/7/5
f 1/27/6 10/26/6 3/28/6
f 244/29/7 11/30/7 240/31/7
f 12/32/8 11/30/8 8/33/8
f 246/34/7 17/35/7 235/36/7
f 4/37/8 17/35/8 13/38/8
f 16/39/6 6/40/6 15/41/6
f 248/42/5 6/40/5 238/43/5
f 33/44/9 188/45/9 31/46/9
f 14/47/10 237/48/10 251/49/10
f 2/50/10 18/51/10 14/47/10
f 252/52/10 20/53/10 253/54/10
f 23/55/11 179/56/11 35/57/11
f 254/58/12 19/59/12 252/60/12
f 21/61/13 19/62/13 22/63/13
f 14/64/13 22/63/13 2/65/13
f 250/66/12 22/67/12 254/58/12
f 25/68/14 181/69/14 23/55/14
f 38/70/14 59/71/14 58/72/14
f 37/73/4 60/74/4 59/75/4
f 39/76/15 61/77/15 60/74/15
f 40/78/3 62/79/3 61/80/3
f 41/81/9 63/82/9 62/83/9
f 36/84/11 52/85/11 24/86/11
f 63/82/16 43/87/16 64/88/16
f 43/89/11 58/72/11 64/90/11
f 44/91/17 38/92/17 45/93/17
f 46/94/17 37/95/17 44/91/17
f 47/96/17 39/97/17 46/94/17
f 48/98/17 40/99/17 47/96/17
f 49/100/17 41/101/17 48/98/17
f 50/102/17 42/103/17 49/100/17
f 45/93/17 43/104/17 50/102/17
f 24/105/17 44/91/17 45/93/17
f 26/106/17 46/94/17 44/91/17
f 30/107/17 46/94/17 28/108/17
f 32/109/17 47/96/17 30/107/17
f 34/110/17 48/98/17 32/109/17
f 36/111/17 49/100/17 34/110/17
f 24/105/17 50/102/17 36/111/17
f 52/112/17 56/113/17 54/114/17
f 34/115/9 55/116/9 56/117/9
f 28/118/15 54/119/15 30/120/15
f 26/121/14 52/85/14 51/122/14
f 34/115/16 57/123/16 36/124/16
f 30/125/3 55/126/3 32/127/3
f 28/118/4 51/128/4 53/129/4
f 23/130/18 59/131/18 25/132/18
f 25/132/18 60/133/18 27/134/18
f 29/135/18 60/133/18 61/136/18
f 31/137/18 61/136/18 62/138/18
f 33/139/18 62/138/18 63/140/18
f 33/139/18 64/141/18 35/142/18
f 35/142/18 58/143/18 23/130/18
f 251/144/19 21/145/19 14/146/19
f 31/147/3 186/148/3 29/149/3
f 255/150/19 20/151/19 21/145/19
f 35/152/16 189/153/16 33/44/16
f 29/154/15 185/155/15 27/10/15
f 2/50/10 235/36/10 17/35/10
f 249/156/20 5/157/20 16/39/20
f 247/158/21 18/51/21 4/37/21
f 245/159/21 7/160/21 12/32/21
f 242/161/20 9/8/20 1/27/20
f 1/162/22 244/163/22 242/164/22
f 11/165/22 239/166/22 240/167/22
f 16/168/22 246/169/22 249/170/22
f 69/171/4 258/172/4 67/173/4
f 75/174/9 261/175/9 73/176/9
f 65/177/11 256/178/11 77/179/11
f 67/180/14 257/181/14 65/177/14
f 80/182/14 101/183/14 100/184/14
f 79/185/4 102/186/4 101/187/4
f 102/186/15 82/188/15 103/189/15
f 82/190/3 104/191/3 103/192/3
f 83/193/9 105/194/9 104/195/9
f 78/196/11 94/197/11 66/198/11
f 105/194/16 85/199/16 106/200/16
f 106/201/11 80/182/11 100/184/11
f 86/202/17 80/203/17 87/204/17
f 86/202/17 81/205/17 79/206/17
f 89/207/17 81/205/17 88/208/17
f 89/207/17 83/209/17 82/210/17
f 90/211/17 84/212/17 83/209/17
f 91/213/17 85/214/17 84/212/17
f 92/215/17 80/203/17 85/214/17
f 66/216/17 86/202/17 87/204/17
f 70/217/17 86/202/17 68/218/17
f 72/219/17 88/208/17 70/217/17
f 74/220/17 89/207/17 72/219/17
f 76/221/17 90/211/17 74/220/17
f 78/222/17 91/213/17 76/221/17
f 66/216/17 92/215/17 78/222/17
f 94/223/17 98/224/17 96/225/17
f 76/226/9 97/227/9 98/228/9
f 70/229/23 96/230/23 72/231/23
f 68/232/14 94/197/14 93/233/14
f 76/226/16 99/234/16 78/235/16
f 72/236/3 97/237/3 74/238/3
f 70/229/4 93/239/4 95/240/4
f 67/241/18 100/242/18 101/243/18
f 67/241/18 102/244/18 69/245/18
f 69/245/18 103/246/18 71/247/18
f 73/248/18 103/246/18 104/249/18
f 75/250/18 104/249/18 105/251/18
f 77/252/18 105/251/18 106/253/18
f 77/252/18 100/242/18 65/254/18
f 73/255/3 260/256/3 71/257/3
f 75/174/16 256/258/16 262/259/16
f 71/260/15 259/261/15 69/171/15
f 108/262/24 134/263/24 129/264/24
f 111/265/25 108/266/25 109/267/25
f 110/268/24 111/269/24 109/270/24
f 127/271/26 130/272/26 126/273/26
f 119/274/25 125/275/25 117/276/25
f 112/277/27 113/278/27 111/279/27
f 108/262/28 128/280/28 127/281/28
f 115/282/25 125/275/25 124/283/25
f 114/284/29 115/285/29 113/278/29
f 123/286/27 134/287/27 107/288/27
f 115/282/25 123/289/25 113/290/25
f 115/291/3 118/292/3 117/293/3
f 134/294/25 132/295/25 130/296/25
f 119/274/25 127/297/25 126/298/25
f 117/299/30 120/300/30 119/301/30
f 110/302/31 120/303/31 116/304/31
f 124/305/29 133/306/29 123/286/29
f 119/301/26 122/307/26 121/308/26
f 126/273/30 131/309/30 125/310/30
f 109/267/25 127/297/25 121/311/25
f 122/312/28 109/270/28 121/313/28
f 113/290/25 107/314/25 111/265/25
f 125/315/3 132/316/3 124/317/3
f 136/318/24 162/319/24 135/320/24
f 136/321/31 139/322/31 137/323/31
f 139/324/24 138/325/24 137/326/24
f 158/327/26 155/328/26 154/329/26
f 153/330/31 147/331/31 145/332/31
f 141/333/27 140/334/27 139/335/27
f 155/336/28 157/337/28 136/318/28
f 143/338/31 153/330/31 145/332/31
f 143/339/29 142/340/29 141/333/29
f 162/341/27 151/342/27 135/343/27
f 151/344/31 143/338/31 141/345/31
f 143/346/3 146/347/3 144/348/3
f 156/349/31 159/350/31 161/351/31
f 147/331/31 155/352/31 149/353/31
f 145/354/30 148/355/30 146/356/30
f 142/357/25 146/358/25 150/359/25
f 151/342/29 160/360/29 152/361/29
f 147/362/26 150/363/26 148/355/26
f 159/364/30 154/329/30 153/365/30
f 155/352/31 137/323/31 149/353/31
f 137/326/28 150/366/28 149/367/28
f 139/322/31 151/344/31 141/345/31
f 160/368/3 153/369/3 152/370/3
f 177/371/1 247/1/1 248/3/1
f 178/372/32 166/373/32 177/374/32
f 171/375/3 236/7/3 234/9/3
f 182/11/4 196/376/4 194/377/4
f 173/378/32 168/379/32 169/380/32
f 169/381/1 238/16/1 241/18/1
f 165/382/1 245/19/1 243/21/1
f 163/383/32 174/384/32 165/385/32
f 243/25/5 172/386/5 165/387/5
f 172/386/33 163/388/33 165/387/33
f 244/29/7 173/389/7 170/390/7
f 173/389/34 174/391/34 170/390/34
f 246/34/7 180/392/7 175/393/7
f 175/393/34 183/394/34 166/395/34
f 168/396/33 178/397/33 177/398/33
f 248/42/5 168/396/5 177/398/5
f 188/45/9 202/399/9 200/400/9
f 237/48/10 176/401/10 251/49/10
f 183/394/10 164/402/10 176/401/10
f 187/57/10 252/52/10 253/54/10
f 179/56/11 192/403/11 204/404/11
f 254/58/12 184/405/12 191/406/12
f 184/407/35 190/408/35 191/409/35
f 191/409/35 176/410/35 164/411/35
f 250/66/12 191/406/12 164/412/12
f 181/69/14 194/413/14 192/403/14
f 228/414/14 207/415/14 227/416/14
f 229/417/4 206/418/4 228/419/4
f 230/420/15 208/421/15 229/417/15
f 231/422/3 209/423/3 230/424/3
f 231/425/9 211/421/9 210/426/9
f 221/427/11 205/428/11 193/429/11
f 232/430/16 212/431/16 211/421/16
f 233/432/11 207/415/11 212/433/11
f 207/434/18 213/435/18 214/436/18
f 206/437/18 215/438/18 213/435/18
f 208/439/18 216/440/18 215/438/18
f 209/441/18 217/442/18 216/440/18
f 210/443/18 218/444/18 217/442/18
f 211/445/18 219/446/18 218/444/18
f 212/447/18 214/436/18 219/446/18
f 193/448/18 213/435/18 195/449/18
f 213/435/18 197/450/18 195/449/18
f 215/438/18 199/451/18 197/450/18
f 216/440/18 201/452/18 199/451/18
f 217/442/18 203/453/18 201/452/18
f 218/444/18 205/454/18 203/453/18
f 219/446/18 193/448/18 205/454/18
f 222/455/18 224/456/18 226/457/18
f 203/458/9 224/459/9 201/460/9
f 223/461/15 197/462/15 199/463/15
f 195/464/14 221/427/14 193/429/14
f 226/465/16 203/458/16 205/466/16
f 224/467/3 199/468/3 201/469/3
f 197/462/4 220/470/4 195/471/4
f 228/472/17 192/473/17 194/474/17
f 229/475/17 194/474/17 196/476/17
f 198/477/17 229/475/17 196/476/17
f 200/478/17 230/479/17 198/477/17
f 202/480/17 231/481/17 200/478/17
f 233/482/17 202/480/17 204/483/17
f 227/484/17 204/483/17 192/473/17
f 190/485/19 251/144/19 176/486/19
f 186/148/3 200/255/3 198/487/3
f 187/488/19 255/150/19 190/485/19
f 189/153/16 204/489/16 202/399/16
f 185/155/15 198/490/15 196/376/15
f 164/402/10 235/36/10 250/491/10
f 167/492/20 249/156/20 178/397/20
f 183/394/21 247/158/21 166/395/21
f 169/493/21 245/159/21 174/391/21
f 171/375/20 242/161/20 163/388/20
f 163/494/22 244/163/22 170/495/22
f 173/496/22 239/166/22 167/497/22
f 178/498/22 246/169/22 175/499/22
f 258/172/4 267/500/4 265/501/4
f 261/175/9 273/502/9 271/503/9
f 256/178/11 263/504/11 275/505/11
f 257/181/14 265/506/14 263/504/14
f 299/507/14 278/508/14 298/509/14
f 300/510/4 277/511/4 299/512/4
f 300/510/15 280/513/15 279/514/15
f 302/515/3 280/516/3 301/517/3
f 303/518/9 281/519/9 302/520/9
f 292/521/11 276/522/11 264/523/11
f 303/518/16 283/524/16 282/525/16
f 304/526/11 278/508/11 283/527/11
f 278/528/18 284/529/18 285/530/18
f 284/529/18 279/531/18 286/532/18
f 279/531/18 287/533/18 286/532/18
f 287/533/18 281/534/18 288/535/18
f 288/535/18 282/536/18 289/537/18
f 289/537/18 283/538/18 290/539/18
f 283/538/18 285/530/18 290/539/18
f 264/540/18 284/529/18 266/541/18
f 284/529/18 268/542/18 266/541/18
f 286/532/18 270/543/18 268/542/18
f 287/533/18 272/544/18 270/543/18
f 288/535/18 274/545/18 272/544/18
f 289/537/18 276/546/18 274/545/18
f 290/539/18 264/540/18 276/546/18
f 293/547/18 295/548/18 297/549/18
f 274/550/9 295/551/9 272/552/9
f 294/553/15 268/554/15 270/555/15
f 266/556/14 292/521/14 264/523/14
f 297/557/16 274/550/16 276/558/16
f 295/559/3 270/560/3 272/561/3
f 268/554/4 291/562/4 266/563/4
f 265/564/17 298/565/17 263/566/17
f 300/567/17 265/564/17 267/568/17
f 301/569/17 267/568/17 269/570/17
f 271/571/17 301/569/17 269/570/17
f 303/572/17 271/571/17 273/573/17
f 304/574/17 273/573/17 275/575/17
f 298/565/17 275/575/17 263/566/17
f 260/256/3 271/576/3 269/577/3
f 273/502/16 256/258/16 275/578/16
f 259/261/15 269/579/15 267/500/15
f 306/580/28 332/581/28 305/582/28
f 306/583/25 309/584/25 307/585/25
f 309/586/28 308/587/28 307/588/28
f 328/589/27 325/590/27 324/591/27
f 323/592/25 317/593/25 315/594/25
f 311/595/26 310/596/26 309/597/26
f 326/598/24 306/580/24 325/599/24
f 313/600/25 323/592/25 315/594/25
f 313/601/30 312/602/30 311/595/30
f 332/603/26 321/604/26 305/605/26
f 321/606/25 313/600/25 311/607/25
f 313/608/3 316/609/3 314/610/3
f 326/611/25 329/612/25 331/613/25
f 317/593/25 325/614/25 319/615/25
f 315/616/29 318/617/29 316/618/29
f 312/619/31 316/620/31 320/621/31
f 331/622/30 322/623/30 321/604/30
f 317/624/27 320/625/27 318/617/27
f 329/626/29 324/591/29 323/627/29
f 325/614/25 307/585/25 319/615/25
f 307/588/24 320/628/24 319/629/24
f 309/584/25 321/606/25 311/607/25
f 330/630/3 323/631/3 322/632/3
f 333/633/28 355/634/28 334/635/28
f 337/636/31 334/637/31 335/638/31
f 336/639/28 337/640/28 335/641/28
f 353/642/27 356/643/27 352/644/27
f 345/645/31 351/646/31 343/647/31
f 338/648/26 339/649/26 337/650/26
f 334/635/24 354/320/24 353/319/24
f 341/651/31 351/646/31 350/652/31
f 340/653/30 341/654/30 339/649/30
f 349/655/26 360/656/26 333/657/26
f 341/651/31 349/658/31 339/659/31
f 341/660/3 344/661/3 343/662/3
f 360/663/31 358/664/31 356/665/31
f 345/645/31 353/666/31 352/667/31
f 343/668/29 346/669/29 345/670/29
f 336/671/25 346/672/25 342/673/25
f 350/674/30 359/675/30 349/655/30
f 345/670/27 348/676/27 347/677/27
f 352/644/29 357/678/29 351/679/29
f 335/638/31 353/666/31 347/680/31
f 348/681/24 335/641/24 347/682/24
f 339/659/31 333/683/31 337/636/31
f 351/369/3 358/684/3 350/370/3
f 247/1/1 4/685/1 15/2/1
f 4/4/2 13/686/2 16/5/2
f 236/7/3 10/26/3 9/8/3
f 27/10/4 185/155/4 182/11/4
f 6/13/2 5/687/2 11/14/2
f 238/16/1 6/410/1 7/17/1
f 245/19/1 12/688/1 3/20/1
f 3/22/2 12/689/2 8/23/2
f 243/25/5 3/28/5 10/26/5
f 1/27/6 9/8/6 10/26/6
f 244/29/7 8/33/7 11/30/7
f 12/32/8 7/160/8 11/30/8
f 246/34/7 13/38/7 17/35/7
f 4/37/8 18/51/8 17/35/8
f 16/39/6 5/157/6 6/40/6
f 248/42/5 15/41/5 6/40/5
f 33/44/9 189/153/9 188/45/9
f 14/47/10 18/51/10 237/48/10
f 2/50/10 17/35/10 18/51/10
f 252/52/10 19/690/10 20/53/10
f 23/55/11 181/69/11 179/56/11
f 254/58/12 22/67/12 19/59/12
f 21/61/13 20/691/13 19/62/13
f 14/64/13 21/61/13 22/63/13
f 250/66/12 2/692/12 22/67/12
f 25/68/14 182/693/14 181/69/14
f 38/70/14 37/694/14 59/71/14
f 37/73/4 39/76/4 60/74/4
f 39/76/15 40/695/15 61/77/15
f 40/78/3 41/696/3 62/79/3
f 41/81/9 42/697/9 63/82/9
f 36/84/11 57/698/11 52/85/11
f 63/82/16 42/697/16 43/87/16
f 43/89/11 38/70/11 58/72/11
f 44/91/17 37/95/17 38/92/17
f 46/94/17 39/97/17 37/95/17
f 47/96/17 40/99/17 39/97/17
f 48/98/17 41/101/17 40/99/17
f 49/100/17 42/103/17 41/101/17
f 50/102/17 43/104/17 42/103/17
f 45/93/17 38/92/17 43/104/17
f 24/105/17 26/106/17 44/91/17
f 26/106/17 28/108/17 46/94/17
f 30/107/17 47/96/17 46/94/17
f 32/109/17 48/98/17 47/96/17
f 34/110/17 49/100/17 48/98/17
f 36/111/17 50/102/17 49/100/17
f 24/105/17 45/93/17 50/102/17
f 53/699/17 51/700/17 52/112/17
f 52/112/17 57/701/17 56/113/17
f 56/113/17 55/702/17 54/114/17
f 54/114/17 53/699/17 52/112/17
f 34/115/9 32/460/9 55/116/9
f 28/118/15 53/129/15 54/119/15
f 26/121/14 24/86/14 52/85/14
f 34/115/16 56/117/16 57/123/16
f 30/125/3 54/703/3 55/126/3
f 28/118/4 26/704/4 51/128/4
f 23/130/18 58/143/18 59/131/18
f 25/132/18 59/131/18 60/133/18
f 29/135/18 27/134/18 60/133/18
f 31/137/18 29/135/18 61/136/18
f 33/139/18 31/137/18 62/138/18
f 33/139/18 63/140/18 64/141/18
f 35/142/18 64/141/18 58/143/18
f 251/144/19 255/150/19 21/145/19
f 31/147/3 188/705/3 186/148/3
f 255/150/19 253/706/19 20/151/19
f 35/152/16 179/707/16 189/153/16
f 29/154/15 186/708/15 185/155/15
f 2/50/10 250/491/10 235/36/10
f 249/156/20 239/709/20 5/157/20
f 247/158/21 237/48/21 18/51/21
f 245/159/21 241/710/21 7/160/21
f 242/161/20 234/9/20 9/8/20
f 1/162/22 8/711/22 244/163/22
f 11/165/22 5/712/22 239/166/22
f 16/168/22 13/713/22 246/169/22
f 69/171/4 259/261/4 258/172/4
f 75/174/9 262/259/9 261/175/9
f 65/177/11 257/181/11 256/178/11
f 67/180/14 258/714/14 257/181/14
f 80/182/14 79/715/14 101/183/14
f 79/185/4 81/716/4 102/186/4
f 102/186/15 81/716/15 82/188/15
f 82/190/3 83/711/3 104/191/3
f 83/193/9 84/717/9 105/194/9
f 78/196/11 99/718/11 94/197/11
f 105/194/16 84/717/16 85/199/16
f 106/201/11 85/719/11 80/182/11
f 86/202/17 79/206/17 80/203/17
f 86/202/17 88/208/17 81/205/17
f 89/207/17 82/210/17 81/205/17
f 89/207/17 90/211/17 83/209/17
f 90/211/17 91/213/17 84/212/17
f 91/213/17 92/215/17 85/214/17
f 92/215/17 87/204/17 80/203/17
f 66/216/17 68/218/17 86/202/17
f 70/217/17 88/208/17 86/202/17
f 72/219/17 89/207/17 88/208/17
f 74/220/17 90/211/17 89/207/17
f 76/221/17 91/213/17 90/211/17
f 78/222/17 92/215/17 91/213/17
f 66/216/17 87/204/17 92/215/17
f 95/720/17 93/721/17 94/223/17
f 94/223/17 99/722/17 98/224/17
f 98/224/17 97/723/17 96/225/17
f 96/225/17 95/720/17 94/223/17
f 76/226/9 74/724/9 97/227/9
f 70/229/23 95/240/23 96/230/23
f 68/232/14 66/198/14 94/197/14
f 76/226/16 98/228/16 99/234/16
f 72/236/3 96/725/3 97/237/3
f 70/229/4 68/726/4 93/239/4
f 67/241/18 65/254/18 100/242/18
f 67/241/18 101/243/18 102/244/18
f 69/245/18 102/244/18 103/246/18
f 73/248/18 71/247/18 103/246/18
f 75/250/18 73/248/18 104/249/18
f 77/252/18 75/250/18 105/251/18
f 77/252/18 106/253/18 100/242/18
f 73/255/3 261/727/3 260/256/3
f 75/174/16 77/728/16 256/258/16
f 71/260/15 260/729/15 259/261/15
f 108/262/24 107/730/24 134/263/24
f 111/265/25 107/314/25 108/266/25
f 110/268/24 112/731/24 111/269/24
f 127/271/26 128/732/26 130/272/26
f 119/274/25 126/298/25 125/275/25
f 112/277/27 114/284/27 113/278/27
f 108/262/28 129/264/28 128/280/28
f 115/282/25 117/276/25 125/275/25
f 114/284/29 116/733/29 115/285/29
f 123/286/27 133/306/27 134/287/27
f 115/282/25 124/283/25 123/289/25
f 115/291/3 116/734/3 118/292/3
f 128/735/25 129/736/25 134/294/25
f 134/294/25 133/737/25 132/295/25
f 132/295/25 131/738/25 130/296/25
f 130/296/25 128/735/25 134/294/25
f 119/274/25 121/311/25 127/297/25
f 117/299/30 118/739/30 120/300/30
f 114/740/31 112/741/31 110/302/31
f 110/302/31 122/742/31 120/303/31
f 120/303/31 118/743/31 116/304/31
f 116/304/31 114/740/31 110/302/31
f 124/305/29 132/744/29 133/306/29
f 119/301/26 120/300/26 122/307/26
f 126/273/30 130/272/30 131/309/30
f 109/267/25 108/266/25 127/297/25
f 122/312/28 110/268/28 109/270/28
f 113/290/25 123/289/25 107/314/25
f 125/315/3 131/745/3 132/316/3
f 136/318/24 157/337/24 162/319/24
f 136/321/31 135/746/31 139/322/31
f 139/324/24 140/747/24 138/325/24
f 158/327/26 156/748/26 155/328/26
f 153/330/31 154/749/31 147/331/31
f 141/333/27 142/340/27 140/334/27
f 155/336/28 156/750/28 157/337/28
f 143/338/31 152/751/31 153/330/31
f 143/339/29 144/752/29 142/340/29
f 162/341/27 161/753/27 151/342/27
f 151/344/31 152/751/31 143/338/31
f 143/346/3 145/754/3 146/347/3
f 162/755/31 157/756/31 156/349/31
f 156/349/31 158/757/31 159/350/31
f 159/350/31 160/758/31 161/351/31
f 161/351/31 162/755/31 156/349/31
f 147/331/31 154/749/31 155/352/31
f 145/354/30 147/362/30 148/355/30
f 138/759/25 140/760/25 142/357/25
f 142/357/25 144/761/25 146/358/25
f 146/358/25 148/762/25 150/359/25
f 150/359/25 138/759/25 142/357/25
f 151/342/29 161/753/29 160/360/29
f 147/362/26 149/763/26 150/363/26
f 159/364/30 158/327/30 154/329/30
f 155/352/31 136/321/31 137/323/31
f 137/326/28 138/325/28 150/366/28
f 139/322/31 135/746/31 151/344/31
f 160/368/3 159/764/3 153/369/3
f 177/371/1 166/765/1 247/1/1
f 178/372/32 175/766/32 166/373/32
f 171/375/3 172/386/3 236/7/3
f 182/11/4 185/155/4 196/376/4
f 173/378/32 167/767/32 168/379/32
f 169/381/1 168/768/1 238/16/1
f 165/382/1 174/769/1 245/19/1
f 163/383/32 170/770/32 174/384/32
f 243/25/5 236/7/5 172/386/5
f 172/386/33 171/375/33 163/388/33
f 244/29/7 240/31/7 173/389/7
f 173/389/34 169/493/34 174/391/34
f 246/34/7 235/36/7 180/392/7
f 175/393/34 180/392/34 183/394/34
f 168/396/33 167/492/33 178/397/33
f 248/42/5 238/43/5 168/396/5
f 188/45/9 189/153/9 202/399/9
f 237/48/10 183/394/10 176/401/10
f 183/394/10 180/392/10 164/402/10
f 187/57/10 184/771/10 252/52/10
f 179/56/11 181/69/11 192/403/11
f 254/58/12 252/60/12 184/405/12
f 184/407/35 187/772/35 190/408/35
f 191/409/35 190/408/35 176/410/35
f 250/66/12 254/58/12 191/406/12
f 181/69/14 182/693/14 194/413/14
f 228/414/14 206/773/14 207/415/14
f 229/417/4 208/421/4 206/418/4
f 230/420/15 209/774/15 208/421/15
f 231/422/3 210/775/3 209/423/3
f 231/425/9 232/430/9 211/421/9
f 221/427/11 226/776/11 205/428/11
f 232/430/16 233/777/16 212/431/16
f 233/432/11 227/416/11 207/415/11
f 207/434/18 206/437/18 213/435/18
f 206/437/18 208/439/18 215/438/18
f 208/439/18 209/441/18 216/440/18
f 209/441/18 210/443/18 217/442/18
f 210/443/18 211/445/18 218/444/18
f 211/445/18 212/447/18 219/446/18
f 212/447/18 207/434/18 214/436/18
f 193/448/18 214/436/18 213/435/18
f 213/435/18 215/438/18 197/450/18
f 215/438/18 216/440/18 199/451/18
f 216/440/18 217/442/18 201/452/18
f 217/442/18 218/444/18 203/453/18
f 218/444/18 219/446/18 205/454/18
f 219/446/18 214/436/18 193/448/18
f 221/778/18 220/779/18 222/455/18
f 222/455/18 223/780/18 224/456/18
f 224/456/18 225/781/18 226/457/18
f 226/457/18 221/778/18 222/455/18
f 203/458/9 225/782/9 224/459/9
f 223/461/15 222/783/15 197/462/15
f 195/464/14 220/784/14 221/427/14
f 226/465/16 225/782/16 203/458/16
f 224/467/3 223/785/3 199/468/3
f 197/462/4 222/783/4 220/470/4
f 228/472/17 227/484/17 192/473/17
f 229/475/17 228/472/17 194/474/17
f 198/477/17 230/479/17 229/475/17
f 200/478/17 231/481/17 230/479/17
f 202/480/17 232/786/17 231/481/17
f 233/482/17 232/786/17 202/480/17
f 227/484/17 233/482/17 204/483/17
f 190/485/19 255/150/19 251/144/19
f 186/148/3 188/705/3 200/255/3
f 187/488/19 253/706/19 255/150/19
f 189/153/16 179/707/16 204/489/16
f 185/155/15 186/708/15 198/490/15
f 164/402/10 180/392/10 235/36/10
f 167/492/20 239/709/20 249/156/20
f 183/394/21 237/48/21 247/158/21
f 169/493/21 241/710/21 245/159/21
f 171/375/20 234/9/20 242/161/20
f 163/494/22 242/164/22 244/163/22
f 173/496/22 240/167/22 239/166/22
f 178/498/22 249/170/22 246/169/22
f 258/172/4 259/261/4 267/500/4
f 261/175/9 262/259/9 273/502/9
f 256/178/11 257/181/11 263/504/11
f 257/181/14 258/714/14 265/506/14
f 299/507/14 277/787/14 278/508/14
f 300/510/4 279/514/4 277/511/4
f 300/510/15 301/788/15 280/513/15
f 302/515/3 281/789/3 280/516/3
f 303/518/9 282/525/9 281/519/9
f 292/521/11 297/790/11 276/522/11
f 303/518/16 304/791/16 283/524/16
f 304/526/11 298/509/11 278/508/11
f 278/528/18 277/792/18 284/529/18
f 284/529/18 277/792/18 279/531/18
f 279/531/18 280/793/18 287/533/18
f 287/533/18 280/793/18 281/534/18
f 288/535/18 281/534/18 282/536/18
f 289/537/18 282/536/18 283/538/18
f 283/538/18 278/528/18 285/530/18
f 264/540/18 285/530/18 284/529/18
f 284/529/18 286/532/18 268/542/18
f 286/532/18 287/533/18 270/543/18
f 287/533/18 288/535/18 272/544/18
f 288/535/18 289/537/18 274/545/18
f 289/537/18 290/539/18 276/546/18
f 290/539/18 285/530/18 264/540/18
f 292/794/18 291/795/18 293/547/18
f 293/547/18 294/796/18 295/548/18
f 295/548/18 296/797/18 297/549/18
f 297/549/18 292/794/18 293/547/18
f 274/550/9 296/798/9 295/551/9
f 294/553/15 293/799/15 268/554/15
f 266/556/14 291/800/14 292/521/14
f 297/557/16 296/798/16 274/550/16
f 295/559/3 294/801/3 270/560/3
f 268/554/4 293/799/4 291/562/4
f 265/564/17 299/802/17 298/565/17
f 300/567/17 299/802/17 265/564/17
f 301/569/17 300/567/17 267/568/17
f 271/571/17 302/803/17 301/569/17
f 303/572/17 302/803/17 271/571/17
f 304/574/17 303/572/17 273/573/17
f 298/565/17 304/574/17 275/575/17
f 260/256/3 261/727/3 271/576/3
f 273/502/16 262/259/16 256/258/16
f 259/261/15 260/729/15 269/579/15
f 306/580/28 327/804/28 332/581/28
f 306/583/25 305/805/25 309/584/25
f 309/586/28 310/806/28 308/587/28
f 328/589/27 326/807/27 325/590/27
f 323/592/25 324/808/25 317/593/25
f 311/595/26 312/602/26 310/596/26
f 326/598/24 327/804/24 306/580/24
f 313/600/25 322/809/25 323/592/25
f 313/601/30 314/810/30 312/602/30
f 332/603/26 331/622/26 321/604/26
f 321/606/25 322/809/25 313/600/25
f 313/608/3 315/811/3 316/609/3
f 332/812/25 327/813/25 326/611/25
f 326/611/25 328/814/25 329/612/25
f 329/612/25 330/815/25 331/613/25
f 331/613/25 332/812/25 326/611/25
f 317/593/25 324/808/25 325/614/25
f 315/616/29 317/624/29 318/617/29
f 308/816/31 310/817/31 312/619/31
f 312/619/31 314/818/31 316/620/31
f 316/620/31 318/819/31 320/621/31
f 320/621/31 308/816/31 312/619/31
f 331/622/30 330/820/30 322/623/30
f 317/624/27 319/633/27 320/625/27
f 329/626/29 328/589/29 324/591/29
f 325/614/25 306/583/25 307/585/25
f 307/588/24 308/587/24 320/628/24
f 309/584/25 305/805/25 321/606/25
f 330/630/3 329/313/3 323/631/3
f 333/633/28 360/821/28 355/634/28
f 337/636/31 333/683/31 334/637/31
f 336/639/28 338/822/28 337/640/28
f 353/642/27 354/823/27 356/643/27
f 345/645/31 352/667/31 351/646/31
f 338/648/26 340/653/26 339/649/26
f 334/635/24 355/634/24 354/320/24
f 341/651/31 343/647/31 351/646/31
f 340/653/30 342/824/30 341/654/30
f 349/655/26 359/675/26 360/656/26
f 341/651/31 350/652/31 349/658/31
f 341/660/3 342/825/3 344/661/3
f 354/826/31 355/827/31 360/663/31
f 360/663/31 359/828/31 358/664/31
f 358/664/31 357/829/31 356/665/31
f 356/665/31 354/826/31 360/663/31
f 345/645/31 347/680/31 353/666/31
f 343/668/29 344/830/29 346/669/29
f 340/831/25 338/832/25 336/671/25
f 336/671/25 348/833/25 346/672/25
f 346/672/25 344/834/25 342/673/25
f 342/673/25 340/831/25 336/671/25
f 350/674/30 358/800/30 359/675/30
f 345/670/27 346/669/27 348/676/27
f 352/644/29 356/643/29 357/678/29
f 335/638/31 334/637/31 353/666/31
f 348/681/24 336/639/24 335/641/24
f 339/659/31 349/658/31 333/683/31
f 351/369/3 357/835/3 358/684/3
