# Blender 3.6.17
# www.blender.org
mtllib Rosa.mtl
o mesh_rose__rose_m
v 0.001108 -0.061720 0.001919
v -0.001108 -0.061720 0.001919
v 0.002216 -0.061720 0.000000
v -0.002216 -0.061720 0.000000
v 0.001108 -0.061720 -0.001919
v -0.001108 -0.061720 -0.001919
v 0.004509 0.060477 -0.015349
v 0.011147 0.060247 -0.012098
v 0.011365 0.068151 -0.019350
v 0.007290 0.058407 -0.005910
v 0.001053 0.058406 -0.009177
v -0.001174 0.062161 -0.006145
v 0.004441 0.062242 -0.001241
v 0.009388 0.059690 0.012945
v 0.002757 0.059451 0.016209
v 0.008365 0.067336 0.020845
v 0.000217 0.057637 0.009367
v 0.006617 0.057644 0.006429
v 0.005580 0.061413 0.002827
v -0.001733 0.061490 0.004272
v -0.015542 0.059741 0.003789
v -0.016055 0.059511 -0.003584
v -0.022441 0.067415 -0.000139
v -0.008767 0.057671 -0.003348
v -0.008470 0.057670 0.003688
v -0.004729 0.061425 0.004095
v -0.003300 0.061505 -0.003222
v -0.000948 -0.033184 -0.003031
v 0.001108 -0.061720 -0.001919
v -0.001108 -0.061720 -0.001919
v -0.003356 -0.033184 -0.003031
v -0.002216 -0.061720 0.000000
v -0.001315 -0.004648 -0.002278
v 0.001315 -0.004648 -0.002278
v -0.004560 -0.033184 -0.000946
v 0.000060 0.023888 -0.001753
v 0.002823 0.023888 -0.001753
v -0.002630 -0.004648 0.000000
v 0.001508 0.052423 -0.002611
v -0.003356 -0.033184 0.001140
v -0.001108 -0.061720 0.001919
v -0.004153 0.061720 -0.007193
v 0.004153 0.061720 -0.007193
v -0.000948 -0.033184 0.001140
v 0.001108 -0.061720 0.001919
v 0.002216 -0.061720 0.000000
v -0.001508 0.052423 -0.002611
v -0.008305 0.061720 -0.000000
v -0.001321 0.023888 0.000639
v -0.003015 0.052423 -0.000000
v -0.004153 0.061720 0.007193
v -0.001508 0.052423 0.002611
v 0.004153 0.061720 0.007193
v -0.001315 -0.004648 0.002278
v 0.000060 0.023888 0.003032
v 0.001508 0.052423 0.002611
v 0.008305 0.061720 -0.000000
v 0.001315 -0.004648 0.002278
v 0.002823 0.023888 0.003032
v 0.003015 0.052423 -0.000000
v 0.004153 0.061720 -0.007193
v 0.001508 0.052423 -0.002611
v 0.002823 0.023888 -0.001753
v 0.004204 0.023888 0.000639
v 0.002630 -0.004648 0.000000
v 0.001315 -0.004648 -0.002278
v 0.000256 -0.033184 -0.000946
v -0.000948 -0.033184 -0.003031
v 0.001108 -0.061720 -0.001919
v 0.001443 0.060576 -0.003241
v -0.001174 0.062161 -0.006145
v 0.001053 0.058406 -0.009177
v 0.007290 0.058407 -0.005910
v 0.004441 0.062242 -0.001241
v 0.004696 0.057461 -0.008294
v 0.004509 0.060477 -0.015349
v 0.011147 0.060247 -0.012098
v 0.008484 0.059179 -0.014662
v 0.011365 0.068151 -0.019350
v 0.001682 0.059828 0.003117
v 0.005580 0.061413 0.002827
v 0.006617 0.057644 0.006429
v 0.000217 0.057637 0.009367
v -0.001733 0.061490 0.004272
v 0.003690 0.056691 0.008769
v 0.009388 0.059690 0.012945
v 0.002757 0.059451 0.016209
v 0.006414 0.058384 0.015666
v 0.008365 0.067336 0.020845
v -0.003528 0.059840 0.000376
v -0.004729 0.061425 0.004095
v -0.008470 0.057670 0.003688
v -0.008767 0.057671 -0.003348
v -0.003300 0.061505 -0.003222
v -0.009531 0.056724 0.000092
v -0.015542 0.059741 0.003789
v -0.016055 0.059511 -0.003584
v -0.016940 0.058443 0.000005
v -0.022441 0.067415 -0.000139
v 0.006827 0.061382 0.004186
v -0.005503 0.061368 -0.005840
v -0.007564 0.076471 0.010024
v 0.006345 0.080765 0.015410
v -0.015942 0.079610 -0.003377
v -0.009619 0.088527 0.013322
v 0.005045 0.092132 0.019551
v -0.017997 0.091041 -0.000108
v -0.007790 0.099659 0.026776
v -0.022856 0.099700 0.014429
v -0.016050 0.100926 0.022270
v -0.002946 0.061744 0.005911
v 0.002199 0.060762 -0.009102
v -0.012286 0.077728 -0.005913
v -0.012147 0.082365 0.008905
v -0.002334 0.079386 -0.018436
v -0.014932 0.090139 -0.006973
v -0.015388 0.094179 0.008857
v -0.005013 0.091173 -0.019492
v -0.025590 0.099954 -0.000894
v -0.019209 0.098798 -0.019272
v -0.024193 0.101009 -0.010217
v -0.005913 0.061688 0.000125
v 0.010454 0.060994 0.004417
v 0.005784 0.078419 -0.010626
v -0.010006 0.083147 -0.009353
v 0.019848 0.080625 -0.001055
v 0.006550 0.091593 -0.013624
v -0.010354 0.095654 -0.012898
v 0.020616 0.093133 -0.004081
v -0.000937 0.101955 -0.024778
v 0.019104 0.101157 -0.019436
v 0.009096 0.103154 -0.023969
v 0.002786 0.063271 -0.008213
v -0.001195 0.061393 0.007827
v 0.013088 0.079648 0.003682
v 0.011468 0.085119 -0.011550
v 0.003795 0.080439 0.017653
v 0.015532 0.092660 0.005017
v 0.014374 0.094918 -0.011283
v 0.006292 0.092801 0.018959
v 0.025788 0.103812 -0.001759
v 0.020827 0.101559 0.017885
v 0.025072 0.104354 0.008131
v -0.011637 0.094396 -0.030699
v -0.011731 0.083342 -0.021736
v -0.020743 0.088612 -0.015039
v -0.002523 0.091760 -0.033325
v -0.019381 0.077529 -0.009053
v -0.002095 0.080555 -0.024512
v 0.007876 0.092523 -0.032755
v -0.011535 0.072262 -0.015812
v -0.015089 0.067417 -0.002695
v 0.008861 0.081361 -0.023909
v 0.019077 0.084771 -0.017588
v 0.019273 0.073691 -0.011664
v 0.009057 0.069179 -0.017985
v 0.015743 0.064327 -0.004416
v -0.001899 0.068372 -0.018588
v -0.008935 0.063140 -0.008381
v -0.007744 0.062396 0.001706
v 0.007670 0.061558 -0.010121
v 0.008166 0.060808 -0.000023
v -0.001230 0.060912 -0.010601
v 0.033695 0.094519 -0.007833
v 0.024233 0.083435 -0.009145
v 0.018577 0.089232 -0.019095
v 0.035237 0.091579 0.001780
v 0.011992 0.077992 -0.018564
v 0.025864 0.080326 0.001019
v 0.033443 0.092238 0.012382
v 0.017850 0.072213 -0.009801
v 0.004733 0.067761 -0.015045
v 0.023971 0.081023 0.012187
v 0.016375 0.084615 0.021962
v 0.009993 0.073393 0.021305
v 0.017588 0.068699 0.011531
v 0.002768 0.064075 0.016713
v 0.019482 0.068002 0.000362
v 0.009719 0.063064 -0.008129
v -0.000776 0.062632 -0.008107
v 0.009495 0.061135 0.009073
v -0.000929 0.060708 0.008380
v 0.011023 0.060578 -0.000001
v 0.011595 0.095402 0.031864
v 0.011804 0.083984 0.022630
v 0.021260 0.089350 0.015892
v 0.002127 0.092750 0.034398
v 0.019908 0.077916 0.009700
v 0.001794 0.081181 0.025310
v -0.008585 0.093610 0.033608
v 0.011654 0.072546 0.016525
v 0.015554 0.067540 0.003066
v -0.009492 0.082090 0.024474
v -0.019889 0.085672 0.017752
v 0.009071 0.063179 0.008816
v 0.008033 0.062407 -0.001611
v -0.009641 0.070652 0.018369
v -0.020039 0.074233 0.011648
v -0.016303 0.064573 0.004246
v 0.001644 0.068640 0.019205
v -0.008101 0.061666 0.010290
v -0.008422 0.060883 -0.000135
v 0.001067 0.060937 0.010959
v -0.031511 0.094396 0.009213
v -0.022583 0.083342 0.010004
v -0.016608 0.088612 0.019510
v -0.033420 0.091760 -0.000078
v -0.010534 0.077529 0.018618
v -0.024601 0.080555 0.000181
v -0.032043 0.092523 -0.010401
v -0.016662 0.072262 0.010270
v -0.003861 0.067417 0.014834
v -0.023147 0.081361 -0.010694
v -0.016050 0.084771 -0.020388
v -0.010129 0.073691 -0.020123
v -0.017226 0.069179 -0.010429
v -0.003178 0.064327 -0.016039
v -0.018680 0.068372 0.000447
v -0.009051 0.063140 0.008256
v 0.001098 0.062396 0.007853
v -0.009493 0.061558 -0.008434
v 0.000612 0.060808 -0.008143
v -0.010664 0.060912 0.000401
v -0.005258 0.084205 0.011483
v 0.002320 0.086700 0.010856
v -0.005353 0.063135 0.004594
v -0.005057 0.096353 0.012386
v 0.003350 0.064606 -0.006232
v 0.002284 0.098650 0.010929
v 0.004779 0.105191 0.018491
v 0.011272 0.108140 0.012469
v 0.009055 0.088352 0.002613
v 0.008215 0.087955 -0.005761
v 0.009094 0.100202 -0.005399
v 0.008770 0.100305 0.002955
v 0.015512 0.106963 0.005275
v -0.005709 0.084804 -0.010378
v -0.010068 0.086859 -0.004022
v -0.000141 0.063566 -0.007043
v -0.006651 0.096949 -0.010207
v 0.002665 0.064234 0.006611
v -0.010217 0.098795 -0.003516
v -0.017701 0.105413 -0.006081
v -0.017212 0.107821 0.002890
v -0.008006 0.087893 0.006484
v -0.001007 0.087295 0.011139
v -0.001963 0.099485 0.012181
v -0.008204 0.099853 0.006628
v -0.014346 0.106199 0.010669
v 0.013741 0.085821 0.000435
v 0.009795 0.087529 -0.006263
v 0.009786 0.064146 0.003961
v 0.013118 0.097950 -0.000474
v -0.003724 0.063580 0.000514
v 0.008540 0.099390 -0.006604
v 0.013622 0.106505 -0.012206
v 0.005192 0.108151 -0.015686
v -0.000595 0.087615 -0.009002
v -0.007775 0.086349 -0.004744
v -0.009176 0.098453 -0.006046
v -0.001506 0.099532 -0.009229
v -0.002912 0.105780 -0.016513
v -0.015089 0.067417 -0.002695
v -0.007744 0.062396 0.001706
v -0.001094 0.070872 -0.014415
v 0.008166 0.060808 -0.000023
v 0.015743 0.064327 -0.004416
v -0.019381 0.077529 -0.009053
v 0.019273 0.073691 -0.011664
v -0.001290 0.081952 -0.020338
v -0.020743 0.088612 -0.015039
v 0.019077 0.084771 -0.017588
v -0.011637 0.094396 -0.030699
v 0.007876 0.092523 -0.032755
v -0.002523 0.091760 -0.033325
v 0.004733 0.067761 -0.015045
v -0.000776 0.062632 -0.008107
v 0.015147 0.070680 0.000715
v -0.000929 0.060708 0.008380
v 0.002768 0.064075 0.016713
v 0.011992 0.077992 -0.018564
v 0.009993 0.073393 0.021305
v 0.021529 0.081901 0.001371
v 0.018577 0.089232 -0.019095
v 0.016375 0.084615 0.021962
v 0.033695 0.094519 -0.007833
v 0.033443 0.092238 0.012382
v 0.035237 0.091579 0.001780
v 0.015554 0.067540 0.003066
v 0.008033 0.062407 -0.001611
v 0.000902 0.071184 0.014882
v -0.008422 0.060883 -0.000135
v -0.016303 0.064573 0.004246
v 0.019908 0.077916 0.009700
v -0.020039 0.074233 0.011648
v 0.001052 0.082622 0.020987
v 0.021260 0.089350 0.015892
v -0.019889 0.085672 0.017752
v 0.011595 0.095402 0.031864
v -0.008585 0.093610 0.033608
v 0.002127 0.092750 0.034398
v -0.003861 0.067417 0.014834
v 0.001098 0.062396 0.007853
v -0.014456 0.070872 -0.000031
v 0.000612 0.060808 -0.008143
v -0.003178 0.064327 -0.016039
v -0.010534 0.077529 0.018618
v -0.010129 0.073691 -0.020123
v -0.020377 0.081952 -0.000297
v -0.016608 0.088612 0.019510
v -0.016050 0.084771 -0.020388
v -0.031511 0.094396 0.009213
v -0.032043 0.092523 -0.010401
v -0.033420 0.091760 -0.000078
v -0.007790 0.099659 0.026776
v -0.003212 0.089461 0.021599
v 0.005045 0.092132 0.019551
v 0.006345 0.080765 0.015410
v -0.012184 0.088094 0.016849
v -0.016050 0.100926 0.022270
v -0.001157 0.077405 0.018301
v 0.006827 0.061382 0.004186
v -0.022856 0.099700 0.014429
v -0.010129 0.076037 0.013551
v -0.005503 0.061368 -0.005840
v -0.019114 0.089501 0.008573
v -0.017997 0.091041 -0.000108
v -0.017059 0.077444 0.005275
v -0.015942 0.079610 -0.003377
v -0.025590 0.099954 -0.000894
v -0.020385 0.091943 0.001858
v -0.015388 0.094179 0.008857
v -0.012147 0.082365 0.008905
v -0.019149 0.090189 -0.008166
v -0.024193 0.101009 -0.010217
v -0.017738 0.079532 0.002918
v -0.002946 0.061744 0.005911
v -0.019209 0.098798 -0.019272
v -0.016502 0.077778 -0.007106
v 0.002199 0.060762 -0.009102
v -0.013655 0.090720 -0.017538
v -0.005013 0.091173 -0.019492
v -0.011009 0.078309 -0.016478
v -0.002334 0.079386 -0.018436
v -0.000937 0.101955 -0.024778
v -0.003282 0.093245 -0.018736
v -0.010354 0.095654 -0.012898
v -0.010006 0.083147 -0.009353
v 0.007487 0.091555 -0.018196
v 0.009096 0.103154 -0.023969
v -0.004048 0.080071 -0.015738
v -0.005913 0.061688 0.000125
v 0.019104 0.101157 -0.019436
v 0.006721 0.078381 -0.015198
v 0.010454 0.060994 0.004417
v 0.017869 0.092400 -0.013103
v 0.020616 0.093133 -0.004081
v 0.017102 0.079226 -0.010105
v 0.019848 0.080625 -0.001055
v 0.015512 0.106963 0.005275
v 0.013150 0.099419 0.001465
v 0.009094 0.100202 -0.005399
v 0.008215 0.087955 -0.005761
v 0.009432 0.097822 0.009666
v 0.011272 0.108140 0.012469
v 0.013069 0.086666 0.000632
v 0.003350 0.064606 -0.006232
v 0.004779 0.105191 0.018491
v 0.009351 0.085069 0.008833
v -0.005353 0.063135 0.004594
v 0.001827 0.097548 0.015414
v -0.005057 0.096353 0.012386
v 0.001746 0.084795 0.014581
v -0.005258 0.084205 0.011483
v -0.014346 0.106199 0.010669
v -0.009831 0.098684 0.010905
v -0.001963 0.099485 0.012181
v -0.001007 0.087295 0.011139
v -0.013780 0.097537 0.002752
v -0.017212 0.107821 0.002890
v -0.009015 0.085931 0.010753
v 0.002665 0.064234 0.006611
v -0.017701 0.105413 -0.006081
v -0.012963 0.084783 0.002600
v -0.000141 0.063566 -0.007043
v -0.013377 0.097853 -0.006771
v -0.006651 0.096949 -0.010207
v -0.012560 0.085099 -0.006924
v -0.005709 0.084804 -0.010378
v -0.002912 0.105780 -0.016513
v -0.004546 0.098084 -0.012565
v -0.009176 0.098453 -0.006046
v -0.007775 0.086349 -0.004744
v 0.004566 0.097771 -0.012551
v 0.005192 0.108151 -0.015686
v -0.003840 0.085352 -0.011778
v -0.003724 0.063580 0.000514
v 0.013622 0.106505 -0.012206
v 0.005272 0.085038 -0.011764
v 0.009786 0.064146 0.003961
v 0.012904 0.098848 -0.008024
v 0.013118 0.097950 -0.000474
v 0.013609 0.086115 -0.007237
v 0.013741 0.085821 0.000435
v -0.004533 0.101671 -0.005837
v 0.000986 0.103450 -0.003538
v 0.004359 0.108060 -0.005899
v 0.008682 0.109782 -0.000698
v 0.001662 0.093078 -0.002229
v -0.004609 0.092002 -0.004899
v -0.004680 0.071314 0.003663
v 0.003246 0.103186 0.000734
v 0.004079 0.092476 0.005050
v -0.000738 0.090480 0.010014
v 0.000889 0.100120 0.009653
v 0.003658 0.102893 0.005583
v 0.008220 0.107855 0.005691
v 0.002020 0.100549 0.005929
v -0.002819 0.102244 0.004227
v -0.005395 0.106512 0.006273
v -0.009400 0.107947 0.001999
v -0.003872 0.093269 0.003600
v 0.001665 0.092161 0.005541
v 0.000391 0.073879 -0.000923
v -0.005060 0.101910 0.000707
v -0.006460 0.092496 -0.002484
v -0.002718 0.090273 -0.006978
v -0.003738 0.098685 -0.006987
v -0.005748 0.101427 -0.003427
v -0.009500 0.105931 -0.003445
v 0.017915 0.082129 -0.005921
v 0.002786 0.063271 -0.008213
v 0.011468 0.085119 -0.011550
v 0.014374 0.094918 -0.011283
v 0.017582 0.079818 0.004553
v -0.001195 0.061393 0.007827
v 0.020358 0.095140 -0.004585
v 0.025788 0.103812 -0.001759
v 0.020025 0.092829 0.005888
v 0.025072 0.104354 0.008131
v 0.020827 0.101559 0.017885
v 0.012684 0.079748 0.014810
v 0.003795 0.080439 0.017653
v 0.006292 0.092801 0.018959
v 0.015128 0.092760 0.016146
v 0.000899 0.091382 -0.005283
v -0.004609 0.092002 -0.004899
v -0.004533 0.101671 -0.005837
v -0.004680 0.071314 0.003663
v 0.000871 0.102524 -0.005615
v 0.004359 0.108060 -0.005899
v 0.006336 0.090778 0.000119
v 0.006308 0.101920 -0.000213
v 0.008682 0.109782 -0.000698
v 0.008220 0.107855 0.005691
v 0.004979 0.091164 0.006948
v -0.000738 0.090480 0.010014
v 0.000889 0.100120 0.009653
v 0.004950 0.102306 0.006615
v -0.003074 0.091926 0.006253
v 0.001665 0.092161 0.005541
v 0.002020 0.100549 0.005929
v 0.000391 0.073879 -0.000923
v -0.002616 0.101548 0.006048
v -0.005395 0.106512 0.006273
v -0.008138 0.091401 0.001980
v -0.007680 0.101023 0.001774
v -0.009400 0.107947 0.001999
v -0.009500 0.105931 -0.003445
v -0.007410 0.091312 -0.004001
v -0.002718 0.090273 -0.006978
v -0.003738 0.098685 -0.006987
v -0.006952 0.100933 -0.004207
vn 0.4442 -0.4598 0.7690
vn -0.4301 -0.5102 0.7448
vn 0.6771 -0.7359 -0.0000
vn -0.6278 -0.7784 -0.0000
vn 0.4323 -0.4988 -0.7512
vn -0.4186 -0.5458 -0.7258
vn -0.2210 0.8428 0.4908
vn -0.3170 0.6457 0.6947
vn 0.1410 0.9772 -0.1586
vn 0.3559 0.7724 -0.5260
vn -0.2523 0.8450 -0.4714
vn -0.3546 0.6483 -0.6738
vn 0.0391 0.9762 0.2132
vn 0.1978 0.7696 0.6071
vn 0.5357 0.8426 -0.0547
vn 0.7598 0.6461 -0.0726
vn -0.2095 0.9769 -0.0431
vn -0.6335 0.7724 -0.0450
vn -0.6336 0.7724 -0.0450
vn 0.4989 -0.0078 -0.8666
vn -0.4988 -0.0078 -0.8667
vn -0.4991 0.0489 -0.8652
vn 0.4988 -0.0137 -0.8666
vn -1.0000 -0.0078 -0.0000
vn -0.4989 -0.0059 -0.8667
vn 0.4989 -0.0059 -0.8667
vn -0.9984 0.0568 -0.0000
vn 0.4832 -0.2621 -0.8353
vn -0.4988 -0.0078 0.8667
vn -0.4341 -0.4947 -0.7528
vn 0.4341 -0.4947 -0.7529
vn 0.4988 -0.0078 0.8667
vn 0.4441 -0.4598 0.7690
vn 0.6771 -0.7358 -0.0000
vn -0.4795 -0.2857 -0.8297
vn -0.8690 -0.4949 -0.0000
vn -1.0000 -0.0059 -0.0000
vn -0.9577 -0.2879 -0.0000
vn -0.4346 -0.4946 0.7527
vn -0.4812 -0.2660 0.8353
vn 0.4343 -0.4947 0.7528
vn -0.4989 0.0020 0.8667
vn -0.4989 -0.0059 0.8667
vn 0.4855 -0.2428 0.8399
vn 0.8690 -0.4949 -0.0000
vn 0.4988 -0.0607 0.8646
vn 0.4989 -0.0059 0.8667
vn 0.9706 -0.2407 -0.0000
vn 0.4832 -0.2622 -0.8353
vn 1.0000 -0.0059 -0.0000
vn 0.9977 -0.0685 -0.0000
vn 1.0000 -0.0078 -0.0000
vn -0.2934 -0.8393 0.4577
vn -0.5168 -0.7928 0.3230
vn -0.3833 -0.9231 -0.0313
vn 0.1781 -0.9416 0.2858
vn -0.0509 -0.8274 0.5594
vn -0.1077 -0.9850 0.1351
vn -0.0998 -0.7295 -0.6767
vn 0.5789 -0.7608 -0.2934
vn 0.2601 -0.8097 -0.5261
vn 0.3801 -0.5212 -0.7641
vn -0.1820 -0.8378 -0.5148
vn 0.0587 -0.7910 -0.6089
vn 0.2585 -0.9222 -0.2878
vn -0.3348 -0.9416 -0.0372
vn -0.4111 -0.8260 -0.3856
vn -0.0411 -0.9845 -0.1703
vn 0.5948 -0.7318 0.3326
vn -0.1214 -0.7635 0.6343
vn 0.2581 -0.8116 0.5241
vn 0.3715 -0.5240 0.7664
vn 0.5436 -0.8389 0.0254
vn 0.5386 -0.7932 0.2840
vn 0.1644 -0.9236 0.3464
vn 0.1586 -0.9420 -0.2957
vn 0.5104 -0.8273 -0.2347
vn 0.1704 -0.9851 0.0255
vn -0.5360 -0.7297 0.4245
vn -0.5438 -0.7609 -0.3540
vn -0.5863 -0.8091 0.0391
vn -0.8519 -0.5210 0.0529
vn 0.3310 0.5973 -0.7305
vn 0.6395 0.5965 -0.4850
vn 0.5462 0.4874 -0.6812
vn 0.2273 0.4134 -0.8817
vn 0.8176 0.3912 -0.4225
vn 0.4956 0.6171 -0.6112
vn 0.1880 0.5659 -0.8028
vn 0.7590 0.5360 -0.3697
vn 0.2640 0.7255 -0.6356
vn 0.5713 0.7161 -0.4011
vn 0.4735 0.6634 -0.5793
vn 0.8493 0.5264 0.0411
vn 0.7296 0.5438 0.4147
vn 0.8691 0.4169 0.2662
vn 0.9393 0.3288 -0.0979
vn 0.7147 0.3407 0.6109
vn 0.7611 0.6104 0.2192
vn 0.8373 0.5322 -0.1252
vn 0.6339 0.5439 0.5498
vn 0.6771 0.7359 0.0019
vn 0.5810 0.7472 0.3227
vn 0.7142 0.6692 0.2054
vn 0.0117 0.5342 0.8453
vn -0.3701 0.5483 0.7500
vn -0.2074 0.4226 0.8823
vn 0.1624 0.3366 0.9275
vn -0.5629 0.3420 0.7524
vn -0.1724 0.6170 0.7678
vn 0.1781 0.5440 0.8200
vn -0.5143 0.5417 0.6649
vn 0.0371 0.7446 0.6664
vn -0.2954 0.7493 0.5928
vn -0.1626 0.6776 0.7172
vn -0.8627 0.5027 0.0548
vn -0.7785 0.5360 -0.3266
vn -0.8995 0.4008 -0.1740
vn -0.9335 0.3053 0.1879
vn -0.7768 0.3365 -0.5322
vn -0.8011 0.5798 -0.1489
vn -0.8606 0.4870 0.1486
vn -0.6993 0.5367 -0.4721
vn -0.7261 0.6870 0.0293
vn -0.6360 0.7319 -0.2446
vn -0.7550 0.6455 -0.1154
vn -0.5405 -0.5268 -0.6560
vn -0.5504 -0.4681 -0.6914
vn -0.6991 -0.4132 -0.5836
vn -0.1487 -0.6144 -0.7749
vn -0.7273 -0.4653 -0.5044
vn -0.1527 -0.5305 -0.8338
vn 0.3422 -0.5650 -0.7508
vn -0.5775 -0.5188 -0.6304
vn -0.6732 -0.7104 -0.2055
vn 0.3461 -0.4907 -0.7996
vn 0.5816 -0.4191 -0.6972
vn 0.5963 -0.5005 -0.6276
vn 0.3562 -0.5656 -0.7438
vn 0.5027 -0.8058 -0.3129
vn -0.1644 -0.5871 -0.7926
vn -0.4928 -0.8253 -0.2758
vn -0.3425 -0.9395 0.0078
vn 0.2643 -0.8985 -0.3504
vn 0.1449 -0.9886 -0.0411
vn -0.1527 -0.8673 -0.4738
vn 0.6968 -0.5402 -0.4717
vn 0.7354 -0.4812 -0.4772
vn 0.6474 -0.4205 -0.6357
vn 0.7688 -0.6358 -0.0685
vn 0.5695 -0.4717 -0.6732
vn 0.8299 -0.5539 -0.0665
vn 0.6907 -0.5909 0.4168
vn 0.6769 -0.5302 -0.5106
vn 0.2564 -0.7084 -0.6576
vn 0.7414 -0.5165 0.4284
vn 0.6141 -0.4459 0.6512
vn 0.5403 -0.5247 0.6578
vn 0.6826 -0.5907 0.4303
vn 0.2270 -0.8219 0.5225
vn 0.7890 -0.6089 -0.0822
vn 0.3034 -0.8279 -0.4717
vn 0.0020 -0.9343 -0.3565
vn 0.2899 -0.9127 0.2879
vn -0.0078 -0.9913 0.1310
vn 0.4614 -0.8799 -0.1134
vn 0.5241 -0.5299 0.6668
vn 0.5344 -0.4698 0.7027
vn 0.6852 -0.4170 0.5971
vn 0.1291 -0.6142 0.7785
vn 0.7144 -0.4697 0.5187
vn 0.1271 -0.5357 0.8348
vn -0.3599 -0.5614 0.7452
vn 0.5621 -0.5209 0.6424
vn 0.6633 -0.7161 0.2172
vn -0.3658 -0.4949 0.7882
vn -0.5906 -0.4244 0.6864
vn 0.4817 -0.8284 0.2859
vn 0.3367 -0.9416 -0.0000
vn -0.3757 -0.5557 0.7416
vn -0.5935 -0.4975 0.6327
vn -0.5049 -0.8005 0.3229
vn 0.1290 -0.5865 0.7996
vn -0.2818 -0.8885 0.3621
vn -0.1525 -0.9875 0.0391
vn 0.1252 -0.8644 0.4870
vn -0.6957 -0.5272 0.4879
vn -0.7320 -0.4678 0.4952
vn -0.6361 -0.4130 0.6518
vn -0.7835 -0.6151 0.0882
vn -0.5591 -0.4653 0.6862
vn -0.8433 -0.5301 0.0880
vn -0.7219 -0.5654 -0.3991
vn -0.6734 -0.5188 0.5266
vn -0.2567 -0.7112 0.6544
vn -0.7705 -0.4908 -0.4068
vn -0.6499 -0.4189 -0.6342
vn -0.5789 -0.5007 -0.6435
vn -0.7141 -0.5654 -0.4128
vn -0.2722 -0.8066 -0.5247
vn -0.8028 -0.5874 0.1018
vn -0.3130 -0.8256 0.4695
vn -0.0196 -0.9393 0.3425
vn -0.3290 -0.8988 -0.2898
vn -0.0294 -0.9884 -0.1488
vn -0.4837 -0.8676 0.1155
vn -0.1663 0.1761 -0.9702
vn -0.5027 0.1995 -0.8411
vn -0.4930 0.3678 -0.7884
vn -0.2759 0.4462 -0.8513
vn -0.9181 0.3132 -0.2427
vn -0.5775 0.4836 -0.6578
vn -0.5049 0.7280 -0.4638
vn -0.6126 0.6833 -0.3973
vn -0.9442 0.1642 -0.2854
vn -0.9918 0.1135 0.0587
vn -0.9160 0.4012 -0.0039
vn -0.8179 0.4735 -0.3268
vn -0.6381 0.7301 -0.2446
vn 0.8515 0.1605 0.4992
vn 0.9666 0.2015 0.1585
vn 0.9173 0.3716 0.1428
vn 0.8267 0.4368 0.3546
vn 0.7695 0.3465 -0.5365
vn 0.8697 0.4936 0.0020
vn 0.6712 0.7397 -0.0489
vn 0.6890 0.7025 -0.1780
vn 0.8201 0.1996 -0.5363
vn 0.5848 0.1564 -0.7960
vn 0.5833 0.4424 -0.6812
vn 0.7688 0.5028 -0.3951
vn 0.5867 0.7548 -0.2933
vn -0.8309 0.0997 0.5474
vn -0.5811 0.1585 0.7983
vn -0.5578 0.3307 0.7613
vn -0.7149 0.3819 0.5857
vn 0.1155 0.3543 0.9280
vn -0.4246 0.4618 0.7788
vn -0.3148 0.7155 0.6236
vn -0.2054 0.6871 0.6969
vn 0.1076 0.2055 0.9727
vn 0.4463 0.1879 0.8749
vn 0.3168 0.4674 0.8253
vn -0.0274 0.5010 0.8650
vn -0.0606 0.7512 0.6573
vn 0.3345 0.7180 0.6104
vn 0.1900 0.8345 0.5172
vn 0.1175 0.6973 0.7071
vn 0.0528 0.8336 0.5499
vn -0.1134 0.7331 0.6706
vn 0.4050 0.5322 0.7435
vn -0.1858 0.5558 0.8103
vn 0.1252 0.7160 0.6867
vn 0.4031 0.6222 0.6711
vn -0.1897 0.6551 0.7314
vn 0.3871 0.7587 0.5240
vn -0.1389 0.8020 0.5809
vn 0.1448 0.7965 0.5871
vn -0.6226 0.7323 0.2760
vn -0.5093 0.8483 0.1450
vn -0.6954 0.7170 0.0490
vn -0.5259 0.8505 0.0039
vn -0.6317 0.7549 -0.1761
vn -0.7688 0.5497 0.3267
vn -0.7679 0.5817 -0.2683
vn -0.6760 0.7347 0.0568
vn -0.6950 0.6363 0.3348
vn -0.6866 0.6788 -0.2602
vn -0.5421 0.7691 0.3386
vn -0.5362 0.8220 -0.1918
vn -0.5756 0.8125 0.0920
vn -0.3172 0.7205 -0.6167
vn -0.1761 0.8355 -0.5205
vn -0.0998 0.6987 -0.7085
vn -0.0372 0.8342 -0.5502
vn 0.1310 0.7335 -0.6670
vn -0.3876 0.5364 -0.7497
vn 0.2054 0.5555 -0.8058
vn -0.1056 0.7158 -0.6903
vn -0.3856 0.6244 -0.6792
vn 0.2074 0.6536 -0.7279
vn -0.3722 0.7600 -0.5328
vn 0.1565 0.8002 -0.5790
vn -0.1291 0.7964 -0.5909
vn 0.6342 0.7184 -0.2858
vn 0.5305 0.8342 -0.1507
vn 0.7145 0.6969 -0.0626
vn 0.5520 0.8338 -0.0098
vn 0.6593 0.7337 0.1643
vn 0.7719 0.5329 -0.3468
vn 0.7930 0.5561 0.2487
vn 0.6945 0.7160 -0.0704
vn 0.7008 0.6225 -0.3484
vn 0.7140 0.6553 0.2465
vn 0.5533 0.7586 -0.3441
vn 0.5676 0.8025 0.1840
vn 0.5967 0.7962 -0.0998
vn -0.0469 -0.4381 0.8977
vn -0.0333 -0.3661 0.9300
vn 0.3463 -0.2719 0.8979
vn 0.4324 -0.3345 0.8374
vn -0.5737 -0.4072 0.7107
vn -0.5436 -0.5045 0.6707
vn 0.0567 -0.4636 0.8842
vn -0.0588 -0.7049 0.7069
vn -0.8867 -0.4091 0.2153
vn -0.5092 -0.5856 0.6307
vn -0.6735 -0.7009 0.2349
vn -0.9201 -0.3191 0.2271
vn -0.9683 -0.1917 -0.1604
vn -0.8846 -0.4364 0.1644
vn -0.9341 -0.2996 -0.1939
vn -0.8672 -0.4131 0.2780
vn -0.9040 -0.3072 0.2974
vn -0.7405 -0.2096 0.6386
vn -0.6679 -0.2605 0.6972
vn -0.8859 -0.3716 -0.2777
vn -0.8247 -0.5081 -0.2482
vn -0.8507 -0.3794 0.3637
vn -0.7458 -0.6343 0.2036
vn -0.5243 -0.4578 -0.7180
vn -0.8203 -0.5169 -0.2447
vn -0.5247 -0.6657 -0.5306
vn -0.5519 -0.3268 -0.7672
vn -0.2017 -0.2311 -0.9518
vn -0.5034 -0.4074 -0.7620
vn -0.1762 -0.3054 -0.9358
vn -0.3365 -0.4344 -0.8355
vn -0.3600 -0.3248 -0.8746
vn -0.6903 -0.2288 -0.6864
vn -0.7419 -0.2721 -0.6127
vn 0.2170 -0.3793 -0.8995
vn 0.1955 -0.5180 -0.8327
vn -0.4225 -0.3912 -0.8176
vn -0.2503 -0.6454 -0.7217
vn 0.6875 -0.4524 -0.5680
vn 0.1936 -0.5242 -0.8293
vn 0.5012 -0.6696 -0.5482
vn 0.7316 -0.3228 -0.6005
vn 0.9392 -0.2172 -0.2661
vn 0.7296 -0.4069 -0.5496
vn 0.9242 -0.2996 -0.2369
vn 0.9765 -0.2094 -0.0509
vn 0.9909 -0.1155 -0.0685
vn 0.8453 -0.0078 -0.5342
vn 0.8044 -0.0763 -0.5891
vn 0.7763 -0.2151 0.5925
vn 0.7475 -0.3757 0.5479
vn 0.9723 -0.1878 -0.1389
vn 0.8909 -0.4503 0.0588
vn 0.1664 -0.3601 0.9179
vn 0.7556 -0.3367 0.5618
vn 0.3309 -0.5148 0.7909
vn 0.1447 -0.2150 0.9658
vn -0.3797 -0.1429 0.9140
vn 0.1096 -0.2622 0.9588
vn -0.3839 -0.1743 0.9068
vn -0.5812 -0.2544 0.7730
vn -0.5774 -0.1605 0.8005
vn -0.1253 -0.0587 0.9904
vn -0.0548 -0.1253 0.9906
vn -0.9496 -0.2350 0.2076
vn -0.8958 -0.3951 0.2034
vn -0.5107 -0.2328 0.8276
vn -0.6106 -0.4873 0.6243
vn -0.8083 -0.3444 -0.4775
vn -0.9116 -0.3560 0.2054
vn -0.8146 -0.5091 -0.2780
vn -0.8341 -0.1978 -0.5149
vn -0.4618 -0.1057 -0.8806
vn -0.8060 -0.2426 -0.5399
vn -0.4524 -0.1371 -0.8812
vn -0.4168 -0.2857 -0.8629
vn -0.4520 -0.1937 -0.8707
vn -0.8296 -0.1174 -0.5459
vn -0.8546 -0.1858 -0.4850
vn 0.2488 -0.2155 -0.9443
vn 0.2427 -0.3757 -0.8944
vn -0.4991 -0.2681 -0.8240
vn -0.2525 -0.5070 -0.8241
vn 0.8080 -0.2837 -0.5165
vn 0.2447 -0.3387 -0.9085
vn 0.6463 -0.4622 -0.6072
vn 0.8409 -0.1349 -0.5241
vn 0.9990 -0.0313 -0.0313
vn 0.8538 -0.1821 -0.4876
vn 0.9976 -0.0665 -0.0215
vn -0.4575 0.3890 0.7996
vn -0.6733 0.4443 0.5911
vn -0.5730 0.6649 0.4791
vn -0.7111 0.6583 0.2468
vn -0.7648 0.1819 0.6181
vn -0.4149 0.2211 0.8826
vn -0.8640 0.4388 0.2468
vn -0.9145 0.2781 0.2937
vn -0.9793 0.1701 -0.1095
vn -0.7676 0.1998 -0.6090
vn -0.8378 0.4033 -0.3680
vn -0.8920 0.4460 -0.0743
vn -0.7357 0.6751 0.0548
vn 0.4125 0.3265 -0.8504
vn 0.6443 0.3799 -0.6638
vn 0.5652 0.6082 -0.5574
vn 0.7197 0.6063 -0.3383
vn 0.7217 0.1154 -0.6826
vn 0.3559 0.1584 -0.9210
vn 0.8608 0.3835 -0.3345
vn 0.9004 0.2192 -0.3758
vn 0.9916 0.1271 0.0254
vn 0.8217 0.1937 0.5360
vn 0.8824 0.3796 0.2778
vn 0.9147 0.4035 -0.0216
vn 0.7595 0.6323 -0.1527
vn 0.8258 -0.3424 -0.4481
vn 0.7401 -0.6050 -0.2937
vn 0.6142 -0.2230 -0.7570
vn 0.7094 -0.1783 -0.6819
vn 0.8539 -0.4975 0.1528
vn 0.5890 -0.6673 0.4559
vn 0.8884 -0.2720 -0.3699
vn 0.8616 -0.3779 -0.3388
vn 0.9195 -0.3463 0.1858
vn 0.8626 -0.4812 0.1565
vn 0.6006 -0.4636 0.6514
vn 0.5805 -0.4163 0.6997
vn 0.2662 -0.3288 0.9061
vn 0.2896 -0.2583 0.9216
vn 0.6261 -0.3346 0.7044
vn 0.3286 -0.2543 -0.9096
vn -0.0607 -0.2232 -0.9729
vn 0.0196 -0.0723 -0.9972
vn 0.7224 -0.6538 -0.2251
vn 0.3969 -0.1388 -0.9073
vn 0.4166 -0.2347 -0.8783
vn 0.9200 -0.2701 -0.2838
vn 0.9327 -0.2073 -0.2952
vn 0.8754 -0.3897 -0.2859
vn 0.8428 -0.3481 0.4106
vn 0.7924 -0.2289 0.5654
vn 0.5110 -0.1919 0.8379
vn 0.6081 -0.1466 0.7802
vn 0.8490 -0.1800 0.4969
vn -0.2682 -0.1938 0.9437
vn 0.1233 -0.1780 0.9763
vn 0.0529 -0.0254 0.9983
vn -0.7325 -0.6033 0.3153
vn -0.3328 -0.0783 0.9397
vn -0.3581 -0.1722 0.9177
vn -0.9063 -0.2114 0.3660
vn -0.9149 -0.1486 0.3754
vn -0.8661 -0.3324 0.3734
vn -0.8877 -0.3265 -0.3246
vn -0.8435 -0.2173 -0.4912
vn -0.5848 -0.2073 -0.7843
vn -0.6735 -0.1566 -0.7224
vn -0.8922 -0.1643 -0.4207
vt 0.402533 0.150576
vt 0.095232 0.150576
vt 0.494728 0.150576
vt 0.003037 0.150576
vt 0.150546 0.597513
vt 0.351949 0.597513
vt 0.251255 0.952560
vt 0.351949 0.313466
vt 0.150546 0.313466
vt 0.150546 0.029419
vt 0.351949 0.029419
vt 0.003037 0.361624
vt 0.003037 0.154269
vt 0.084993 0.154269
vt 0.084993 0.361624
vt 0.166934 0.154269
vt 0.084993 0.578058
vt 0.003037 0.578058
vt 0.166934 0.361624
vt 0.084993 0.989670
vt 0.003037 0.989670
vt 0.166934 0.578058
vt 0.003037 0.436698
vt 0.248890 0.361624
vt 0.248890 0.154269
vt 0.084993 0.006897
vt 0.003037 0.006897
vt 0.330831 0.361624
vt 0.330831 0.154269
vt 0.412787 0.154269
vt 0.084993 0.436698
vt 0.166934 0.006897
vt 0.166934 0.989670
vt 0.166934 0.436698
vt 0.248890 0.006897
vt 0.248890 0.436698
vt 0.330831 0.006897
vt 0.248890 0.578058
vt 0.248890 0.989670
vt 0.330831 0.436698
vt 0.412787 0.006897
vt 0.330831 0.578058
vt 0.330831 0.989670
vt 0.412787 0.436698
vt 0.494728 0.006897
vt 0.494728 0.436698
vt 0.494728 0.989670
vt 0.412787 0.989670
vt 0.412787 0.578058
vt 0.494728 0.578058
vt 0.412787 0.361624
vt 0.494728 0.361624
vt 0.494728 0.154269
vt 0.251255 0.029419
vt 0.251255 0.313466
vt 0.251255 0.597513
vt 0.627939 0.505882
vt 0.872053 0.505882
vt 0.749996 0.705821
vt 0.505882 0.705821
vt 0.994110 0.705821
vt 0.749996 0.815610
vt 0.505882 0.815610
vt 0.994110 0.815610
vt 0.627939 0.994110
vt 0.872053 0.994110
vt 0.749996 0.994110
vt 0.627939 0.815610
vt 0.627939 0.705821
vt 0.505882 0.596033
vt 0.872053 0.815610
vt 0.872053 0.705821
vt 0.994110 0.596033
vt 0.627939 0.596033
vt 0.872053 0.596033
vt 0.749996 0.596033
vt 0.749996 0.505882
s 1
usemtl rose_m
f 1/1/1 2/2/2 3/3/3
f 2/2/2 4/4/4 3/3/3
f 5/1/5 3/3/3 4/4/4
f 6/2/6 5/1/5 4/4/4
f 7/5/7 8/6/7 9/7/8
f 10/8/9 8/6/7 7/5/7
f 11/9/9 10/8/9 7/5/7
f 10/8/9 11/9/9 12/10/10
f 13/11/10 10/8/9 12/10/10
f 14/5/11 15/6/11 16/7/12
f 17/8/13 15/6/11 14/5/11
f 18/9/13 17/8/13 14/5/11
f 17/8/13 18/9/13 19/10/14
f 20/11/14 17/8/13 19/10/14
f 21/5/15 22/6/15 23/7/16
f 24/8/17 22/6/15 21/5/15
f 25/9/17 24/8/17 21/5/15
f 24/8/17 25/9/17 26/10/18
f 27/11/19 24/8/17 26/10/18
f 28/12/20 29/13/5 30/14/6
f 31/15/21 28/12/20 30/14/6
f 31/15/21 30/14/6 32/16/4
f 28/12/20 31/15/21 33/17/22
f 34/18/23 28/12/20 33/17/22
f 35/19/24 31/15/21 32/16/4
f 34/18/23 33/17/22 36/20/25
f 37/21/26 34/18/23 36/20/25
f 33/17/22 31/15/21 38/22/27
f 31/15/21 35/19/24 38/22/27
f 36/20/25 33/17/22 38/22/27
f 39/23/28 37/21/26 36/20/25
f 35/19/24 32/16/4 40/24/29
f 38/22/27 35/19/24 40/24/29
f 32/16/4 41/25/2 40/24/29
f 42/26/30 43/27/31 39/23/28
f 40/24/29 41/25/2 44/28/32
f 41/25/2 45/29/33 44/28/32
f 44/28/32 45/29/33 46/30/34
f 47/31/35 42/26/30 39/23/28
f 47/31/35 39/23/28 36/20/25
f 48/32/36 42/26/30 47/31/35
f 47/31/35 36/20/25 49/33/37
f 49/33/37 36/20/25 38/22/27
f 50/34/38 48/32/36 47/31/35
f 50/34/38 47/31/35 49/33/37
f 51/35/39 48/32/36 50/34/38
f 52/36/40 51/35/39 50/34/38
f 50/34/38 49/33/37 52/36/40
f 53/37/41 51/35/39 52/36/40
f 49/33/37 38/22/27 54/38/42
f 54/38/42 38/22/27 40/24/29
f 54/38/42 40/24/29 44/28/32
f 49/33/37 55/39/43 52/36/40
f 55/39/43 49/33/37 54/38/42
f 56/40/44 53/37/41 52/36/40
f 52/36/40 55/39/43 56/40/44
f 57/41/45 53/37/41 56/40/44
f 55/39/43 54/38/42 58/42/46
f 58/42/46 54/38/42 44/28/32
f 55/39/43 59/43/47 56/40/44
f 59/43/47 55/39/43 58/42/46
f 60/44/48 57/41/45 56/40/44
f 56/40/44 59/43/47 60/44/48
f 61/45/31 57/41/45 60/44/48
f 62/46/49 61/45/31 60/44/48
f 62/46/49 60/44/48 63/47/26
f 59/43/47 64/48/50 60/44/48
f 60/44/48 64/48/50 63/47/26
f 64/48/50 59/43/47 65/49/51
f 64/48/50 65/49/51 63/47/26
f 59/43/47 58/42/46 65/49/51
f 65/49/51 66/50/23 63/47/26
f 65/49/51 58/42/46 67/51/52
f 65/49/51 67/51/52 66/50/23
f 58/42/46 44/28/32 67/51/52
f 67/51/52 68/52/20 66/50/23
f 67/51/52 44/28/32 46/30/34
f 68/52/20 67/51/52 69/53/5
f 67/51/52 46/30/34 69/53/5
f 70/54/53 71/10/54 72/9/55
f 73/8/56 74/11/57 70/54/53
f 75/55/58 70/54/53 72/9/55
f 75/55/58 73/8/56 70/54/53
f 75/55/58 72/9/55 76/5/59
f 77/6/60 73/8/56 75/55/58
f 78/56/61 75/55/58 76/5/59
f 78/56/61 77/6/60 75/55/58
f 79/7/62 78/56/61 76/5/59
f 79/7/62 77/6/60 78/56/61
f 80/54/63 81/10/64 82/9/65
f 83/8/66 84/11/67 80/54/63
f 85/55/68 80/54/63 82/9/65
f 85/55/68 83/8/66 80/54/63
f 85/55/68 82/9/65 86/5/69
f 87/6/70 83/8/66 85/55/68
f 88/56/71 85/55/68 86/5/69
f 88/56/71 87/6/70 85/55/68
f 89/7/72 88/56/71 86/5/69
f 89/7/72 87/6/70 88/56/71
f 90/54/73 91/10/74 92/9/75
f 93/8/76 94/11/77 90/54/73
f 95/55/78 90/54/73 92/9/75
f 95/55/78 93/8/76 90/54/73
f 95/55/78 92/9/75 96/5/79
f 97/6/80 93/8/76 95/55/78
f 98/56/81 95/55/78 96/5/79
f 98/56/81 97/6/80 95/55/78
f 99/7/82 98/56/81 96/5/79
f 99/7/82 97/6/80 98/56/81
f 100/57/83 101/58/84 102/59/85
f 102/59/85 103/60/86 100/57/83
f 104/61/87 102/59/85 101/58/84
f 103/60/86 102/59/85 105/62/88
f 102/59/85 104/61/87 105/62/88
f 106/63/89 103/60/86 105/62/88
f 104/61/87 107/64/90 105/62/88
f 108/65/91 106/63/89 105/62/88
f 107/64/90 109/66/92 105/62/88
f 108/65/91 105/62/88 110/67/93
f 110/67/93 105/62/88 109/66/92
f 111/57/94 112/58/95 113/59/96
f 113/59/96 114/60/97 111/57/94
f 115/61/98 113/59/96 112/58/95
f 114/60/97 113/59/96 116/62/99
f 113/59/96 115/61/98 116/62/99
f 117/63/100 114/60/97 116/62/99
f 115/61/98 118/64/101 116/62/99
f 119/65/102 117/63/100 116/62/99
f 118/64/101 120/66/103 116/62/99
f 119/65/102 116/62/99 121/67/104
f 121/67/104 116/62/99 120/66/103
f 122/57/105 123/58/106 124/59/107
f 124/59/107 125/60/108 122/57/105
f 126/61/109 124/59/107 123/58/106
f 125/60/108 124/59/107 127/62/110
f 124/59/107 126/61/109 127/62/110
f 128/63/111 125/60/108 127/62/110
f 126/61/109 129/64/112 127/62/110
f 130/65/113 128/63/111 127/62/110
f 129/64/112 131/66/114 127/62/110
f 130/65/113 127/62/110 132/67/115
f 132/67/115 127/62/110 131/66/114
f 133/57/116 134/58/117 135/59/118
f 135/59/118 136/60/119 133/57/116
f 137/61/120 135/59/118 134/58/117
f 136/60/119 135/59/118 138/62/121
f 135/59/118 137/61/120 138/62/121
f 139/63/122 136/60/119 138/62/121
f 137/61/120 140/64/123 138/62/121
f 141/65/124 139/63/122 138/62/121
f 140/64/123 142/66/125 138/62/121
f 141/65/124 138/62/121 143/67/126
f 143/67/126 138/62/121 142/66/125
f 144/65/127 145/68/128 146/63/129
f 144/65/127 147/67/130 145/68/128
f 146/63/129 145/68/128 148/60/131
f 147/67/130 149/62/132 145/68/128
f 147/67/130 150/66/133 149/62/132
f 145/68/128 151/69/134 148/60/131
f 145/68/128 149/62/132 151/69/134
f 148/60/131 151/69/134 152/70/135
f 150/66/133 153/71/136 149/62/132
f 154/64/137 153/71/136 150/66/133
f 154/64/137 155/61/138 153/71/136
f 155/61/138 156/72/139 153/71/136
f 153/71/136 156/72/139 149/62/132
f 155/61/138 157/73/140 156/72/139
f 149/62/132 158/59/141 151/69/134
f 156/72/139 158/59/141 149/62/132
f 151/69/134 159/74/142 152/70/135
f 151/69/134 158/59/141 159/74/142
f 152/70/135 159/74/142 160/57/143
f 157/73/140 161/75/144 156/72/139
f 156/72/139 161/75/144 158/59/141
f 161/75/144 157/73/140 162/58/145
f 158/59/141 163/76/146 159/74/142
f 161/75/144 163/76/146 158/59/141
f 163/76/146 160/57/143 159/74/142
f 161/75/144 162/58/145 163/76/146
f 162/58/145 160/57/143 163/76/146
f 164/65/147 165/68/148 166/63/149
f 164/65/147 167/67/150 165/68/148
f 166/63/149 165/68/148 168/60/151
f 167/67/150 169/62/152 165/68/148
f 167/67/150 170/66/153 169/62/152
f 165/68/148 171/69/154 168/60/151
f 165/68/148 169/62/152 171/69/154
f 168/60/151 171/69/154 172/70/155
f 170/66/153 173/71/156 169/62/152
f 174/64/157 173/71/156 170/66/153
f 174/64/157 175/61/158 173/71/156
f 175/61/158 176/72/159 173/71/156
f 173/71/156 176/72/159 169/62/152
f 175/61/158 177/73/160 176/72/159
f 169/62/152 178/59/161 171/69/154
f 176/72/159 178/59/161 169/62/152
f 171/69/154 179/74/162 172/70/155
f 171/69/154 178/59/161 179/74/162
f 172/70/155 179/74/162 180/57/163
f 177/73/160 181/75/164 176/72/159
f 176/72/159 181/75/164 178/59/161
f 181/75/164 177/73/160 182/58/165
f 178/59/161 183/76/166 179/74/162
f 181/75/164 183/76/166 178/59/161
f 183/76/166 180/57/163 179/74/162
f 181/75/164 182/58/165 183/76/166
f 182/58/165 180/57/163 183/76/166
f 184/65/167 185/68/168 186/63/169
f 184/65/167 187/67/170 185/68/168
f 186/63/169 185/68/168 188/60/171
f 187/67/170 189/62/172 185/68/168
f 187/67/170 190/66/173 189/62/172
f 185/68/168 191/69/174 188/60/171
f 185/68/168 189/62/172 191/69/174
f 188/60/171 191/69/174 192/70/175
f 190/66/173 193/71/176 189/62/172
f 194/64/177 193/71/176 190/66/173
f 191/69/174 195/74/178 192/70/175
f 192/70/175 195/74/178 196/57/179
f 193/71/176 194/64/177 197/72/180
f 193/71/176 197/72/180 189/62/172
f 194/64/177 198/61/181 197/72/180
f 198/61/181 199/73/182 197/72/180
f 189/62/172 200/59/183 191/69/174
f 197/72/180 200/59/183 189/62/172
f 191/69/174 200/59/183 195/74/178
f 199/73/182 201/75/184 197/72/180
f 197/72/180 201/75/184 200/59/183
f 201/75/184 199/73/182 202/58/185
f 200/59/183 203/76/186 195/74/178
f 201/75/184 203/76/186 200/59/183
f 201/75/184 202/58/185 203/76/186
f 203/76/186 196/57/179 195/74/178
f 202/58/185 196/57/179 203/76/186
f 204/65/187 205/68/188 206/63/189
f 204/65/187 207/67/190 205/68/188
f 206/63/189 205/68/188 208/60/191
f 207/67/190 209/62/192 205/68/188
f 207/67/190 210/66/193 209/62/192
f 205/68/188 211/69/194 208/60/191
f 205/68/188 209/62/192 211/69/194
f 208/60/191 211/69/194 212/70/195
f 210/66/193 213/71/196 209/62/192
f 214/64/197 213/71/196 210/66/193
f 214/64/197 215/61/198 213/71/196
f 215/61/198 216/72/199 213/71/196
f 213/71/196 216/72/199 209/62/192
f 215/61/198 217/73/200 216/72/199
f 209/62/192 218/59/201 211/69/194
f 216/72/199 218/59/201 209/62/192
f 211/69/194 219/74/202 212/70/195
f 211/69/194 218/59/201 219/74/202
f 212/70/195 219/74/202 220/57/203
f 217/73/200 221/75/204 216/72/199
f 216/72/199 221/75/204 218/59/201
f 221/75/204 217/73/200 222/58/205
f 218/59/201 223/76/206 219/74/202
f 221/75/204 223/76/206 218/59/201
f 223/76/206 220/57/203 219/74/202
f 221/75/204 222/58/205 223/76/206
f 222/58/205 220/57/203 223/76/206
f 224/61/207 225/72/208 226/58/209
f 224/61/207 227/64/210 225/72/208
f 226/58/209 225/72/208 228/57/211
f 227/64/210 229/71/212 225/72/208
f 227/64/210 230/66/213 229/71/212
f 229/71/212 230/66/213 231/67/214
f 225/72/208 232/69/215 228/57/211
f 225/72/208 229/71/212 232/69/215
f 232/69/215 233/60/216 228/57/211
f 234/63/217 233/60/216 232/69/215
f 235/68/218 229/71/212 231/67/214
f 229/71/212 235/68/218 232/69/215
f 235/68/218 234/63/217 232/69/215
f 236/65/219 235/68/218 231/67/214
f 234/63/217 235/68/218 236/65/219
f 237/61/220 238/72/221 239/58/222
f 237/61/220 240/64/223 238/72/221
f 239/58/222 238/72/221 241/57/224
f 240/64/223 242/71/225 238/72/221
f 240/64/223 243/66/226 242/71/225
f 242/71/225 243/66/226 244/67/227
f 238/72/221 245/69/228 241/57/224
f 238/72/221 242/71/225 245/69/228
f 245/69/228 246/60/229 241/57/224
f 247/63/230 246/60/229 245/69/228
f 248/68/231 242/71/225 244/67/227
f 242/71/225 248/68/231 245/69/228
f 248/68/231 247/63/230 245/69/228
f 249/65/232 248/68/231 244/67/227
f 247/63/230 248/68/231 249/65/232
f 250/61/233 251/72/234 252/58/235
f 250/61/233 253/64/236 251/72/234
f 252/58/235 251/72/234 254/57/237
f 253/64/236 255/71/238 251/72/234
f 253/64/236 256/66/239 255/71/238
f 255/71/238 256/66/239 257/67/240
f 251/72/234 258/69/241 254/57/237
f 251/72/234 255/71/238 258/69/241
f 258/69/241 259/60/242 254/57/237
f 260/63/243 259/60/242 258/69/241
f 261/68/244 255/71/238 257/67/240
f 255/71/238 261/68/244 258/69/241
f 261/68/244 260/63/243 258/69/241
f 262/65/245 261/68/244 257/67/240
f 260/63/243 261/68/244 262/65/245
f 263/70/246 264/57/247 265/59/248
f 264/57/247 266/58/249 265/59/248
f 267/73/250 265/59/248 266/58/249
f 268/60/251 263/70/246 265/59/248
f 269/61/252 265/59/248 267/73/250
f 268/60/251 265/59/248 270/62/253
f 265/59/248 269/61/252 270/62/253
f 271/63/254 268/60/251 270/62/253
f 269/61/252 272/64/255 270/62/253
f 273/65/256 271/63/254 270/62/253
f 272/64/255 274/66/257 270/62/253
f 273/65/256 270/62/253 275/67/258
f 275/67/258 270/62/253 274/66/257
f 276/70/259 277/57/260 278/59/261
f 277/57/260 279/58/262 278/59/261
f 280/73/263 278/59/261 279/58/262
f 281/60/264 276/70/259 278/59/261
f 282/61/265 278/59/261 280/73/263
f 281/60/264 278/59/261 283/62/266
f 278/59/261 282/61/265 283/62/266
f 284/63/267 281/60/264 283/62/266
f 282/61/265 285/64/268 283/62/266
f 286/65/269 284/63/267 283/62/266
f 285/64/268 287/66/270 283/62/266
f 286/65/269 283/62/266 288/67/271
f 288/67/271 283/62/266 287/66/270
f 289/70/272 290/57/273 291/59/274
f 290/57/273 292/58/275 291/59/274
f 293/73/276 291/59/274 292/58/275
f 294/60/277 289/70/272 291/59/274
f 295/61/278 291/59/274 293/73/276
f 294/60/277 291/59/274 296/62/279
f 291/59/274 295/61/278 296/62/279
f 297/63/280 294/60/277 296/62/279
f 295/61/278 298/64/281 296/62/279
f 299/65/282 297/63/280 296/62/279
f 298/64/281 300/66/283 296/62/279
f 299/65/282 296/62/279 301/67/284
f 301/67/284 296/62/279 300/66/283
f 302/70/285 303/57/286 304/59/287
f 303/57/286 305/58/288 304/59/287
f 306/73/289 304/59/287 305/58/288
f 307/60/290 302/70/285 304/59/287
f 308/61/291 304/59/287 306/73/289
f 307/60/290 304/59/287 309/62/292
f 304/59/287 308/61/291 309/62/292
f 310/63/293 307/60/290 309/62/292
f 308/61/291 311/64/294 309/62/292
f 312/65/295 310/63/293 309/62/292
f 311/64/294 313/66/296 309/62/292
f 312/65/295 309/62/292 314/67/297
f 314/67/297 309/62/292 313/66/296
f 315/65/298 316/68/299 317/63/300
f 317/63/300 316/68/299 318/60/301
f 319/62/302 316/68/299 315/65/298
f 320/67/303 319/62/302 315/65/298
f 316/68/299 321/69/304 318/60/301
f 316/68/299 319/62/302 321/69/304
f 321/69/304 322/57/305 318/60/301
f 320/67/303 323/66/306 319/62/302
f 322/57/305 321/69/304 324/59/307
f 319/62/302 324/59/307 321/69/304
f 325/58/308 322/57/305 324/59/307
f 323/66/306 326/71/309 319/62/302
f 327/64/310 326/71/309 323/66/306
f 328/72/311 324/59/307 319/62/302
f 326/71/309 328/72/311 319/62/302
f 328/72/311 325/58/308 324/59/307
f 326/71/309 327/64/310 328/72/311
f 329/61/312 325/58/308 328/72/311
f 327/64/310 329/61/312 328/72/311
f 330/65/313 331/68/314 332/63/315
f 332/63/315 331/68/314 333/60/316
f 334/62/317 331/68/314 330/65/313
f 335/67/318 334/62/317 330/65/313
f 331/68/314 336/69/319 333/60/316
f 331/68/314 334/62/317 336/69/319
f 336/69/319 337/57/320 333/60/316
f 335/67/318 338/66/321 334/62/317
f 337/57/320 336/69/319 339/59/322
f 334/62/317 339/59/322 336/69/319
f 340/58/323 337/57/320 339/59/322
f 338/66/321 341/71/324 334/62/317
f 342/64/325 341/71/324 338/66/321
f 343/72/326 339/59/322 334/62/317
f 341/71/324 343/72/326 334/62/317
f 343/72/326 340/58/323 339/59/322
f 341/71/324 342/64/325 343/72/326
f 344/61/327 340/58/323 343/72/326
f 342/64/325 344/61/327 343/72/326
f 345/65/328 346/68/329 347/63/330
f 347/63/330 346/68/329 348/60/331
f 349/62/332 346/68/329 345/65/328
f 350/67/333 349/62/332 345/65/328
f 346/68/329 351/69/334 348/60/331
f 346/68/329 349/62/332 351/69/334
f 351/69/334 352/57/335 348/60/331
f 350/67/333 353/66/336 349/62/332
f 352/57/335 351/69/334 354/59/337
f 349/62/332 354/59/337 351/69/334
f 355/58/338 352/57/335 354/59/337
f 353/66/336 356/71/339 349/62/332
f 357/64/340 356/71/339 353/66/336
f 358/72/341 354/59/337 349/62/332
f 356/71/339 358/72/341 349/62/332
f 358/72/341 355/58/338 354/59/337
f 356/71/339 357/64/340 358/72/341
f 359/61/342 355/58/338 358/72/341
f 357/64/340 359/61/342 358/72/341
f 360/65/343 361/68/344 362/63/345
f 362/63/345 361/68/344 363/60/346
f 364/62/347 361/68/344 360/65/343
f 365/67/348 364/62/347 360/65/343
f 361/68/344 366/69/349 363/60/346
f 361/68/344 364/62/347 366/69/349
f 366/69/349 367/57/350 363/60/346
f 365/67/348 368/66/351 364/62/347
f 367/57/350 366/69/349 369/59/352
f 364/62/347 369/59/352 366/69/349
f 370/58/353 367/57/350 369/59/352
f 368/66/351 371/71/354 364/62/347
f 372/64/355 371/71/354 368/66/351
f 373/72/356 369/59/352 364/62/347
f 371/71/354 373/72/356 364/62/347
f 373/72/356 370/58/353 369/59/352
f 371/71/354 372/64/355 373/72/356
f 374/61/357 370/58/353 373/72/356
f 372/64/355 374/61/357 373/72/356
f 375/65/358 376/68/359 377/63/360
f 377/63/360 376/68/359 378/60/361
f 379/62/362 376/68/359 375/65/358
f 380/67/363 379/62/362 375/65/358
f 376/68/359 381/69/364 378/60/361
f 376/68/359 379/62/362 381/69/364
f 381/69/364 382/57/365 378/60/361
f 380/67/363 383/66/366 379/62/362
f 382/57/365 381/69/364 384/59/367
f 379/62/362 384/59/367 381/69/364
f 385/58/368 382/57/365 384/59/367
f 383/66/366 386/71/369 379/62/362
f 387/64/370 386/71/369 383/66/366
f 388/72/371 384/59/367 379/62/362
f 386/71/369 388/72/371 379/62/362
f 388/72/371 385/58/368 384/59/367
f 386/71/369 387/64/370 388/72/371
f 389/61/372 385/58/368 388/72/371
f 387/64/370 389/61/372 388/72/371
f 390/65/373 391/68/374 392/63/375
f 392/63/375 391/68/374 393/60/376
f 394/62/377 391/68/374 390/65/373
f 395/67/378 394/62/377 390/65/373
f 391/68/374 396/69/379 393/60/376
f 391/68/374 394/62/377 396/69/379
f 396/69/379 397/57/380 393/60/376
f 395/67/378 398/66/381 394/62/377
f 397/57/380 396/69/379 399/59/382
f 394/62/377 399/59/382 396/69/379
f 400/58/383 397/57/380 399/59/382
f 398/66/381 401/71/384 394/62/377
f 402/64/385 401/71/384 398/66/381
f 403/72/386 399/59/382 394/62/377
f 401/71/384 403/72/386 394/62/377
f 403/72/386 400/58/383 399/59/382
f 401/71/384 402/64/385 403/72/386
f 404/61/387 400/58/383 403/72/386
f 402/64/385 404/61/387 403/72/386
f 405/63/388 406/68/389 407/65/390
f 407/65/390 406/68/389 408/67/391
f 406/68/389 405/63/388 409/69/392
f 405/63/388 410/60/393 409/69/392
f 409/69/392 410/60/393 411/77/394
f 406/68/389 412/62/395 408/67/391
f 406/68/389 409/69/392 412/62/395
f 411/77/394 413/72/396 409/69/392
f 409/69/392 413/72/396 412/62/395
f 414/61/397 413/72/396 411/77/394
f 414/61/397 415/64/398 413/72/396
f 416/71/399 408/67/391 412/62/395
f 413/72/396 416/71/399 412/62/395
f 415/64/398 416/71/399 413/72/396
f 416/71/399 417/66/400 408/67/391
f 415/64/398 417/66/400 416/71/399
f 418/63/401 419/68/402 420/65/403
f 420/65/403 419/68/402 421/67/404
f 419/68/402 418/63/401 422/69/405
f 418/63/401 423/60/406 422/69/405
f 422/69/405 423/60/406 424/77/407
f 419/68/402 425/62/408 421/67/404
f 419/68/402 422/69/405 425/62/408
f 424/77/407 426/72/409 422/69/405
f 422/69/405 426/72/409 425/62/408
f 427/61/410 426/72/409 424/77/407
f 427/61/410 428/64/411 426/72/409
f 429/71/412 421/67/404 425/62/408
f 426/72/409 429/71/412 425/62/408
f 428/64/411 429/71/412 426/72/409
f 429/71/412 430/66/413 421/67/404
f 428/64/411 430/66/413 429/71/412
f 431/69/414 432/57/415 433/60/416
f 431/69/414 433/60/416 434/63/417
f 432/57/415 431/69/414 435/59/418
f 436/58/419 432/57/415 435/59/418
f 437/68/420 431/69/414 434/63/417
f 438/65/421 437/68/420 434/63/417
f 437/68/420 439/62/422 431/69/414
f 439/62/422 437/68/420 438/65/421
f 439/62/422 435/59/418 431/69/414
f 440/67/423 439/62/422 438/65/421
f 440/67/423 441/66/424 439/62/422
f 442/72/425 436/58/419 435/59/418
f 442/72/425 435/59/418 439/62/422
f 443/61/426 436/58/419 442/72/425
f 444/64/427 443/61/426 442/72/425
f 441/66/424 445/71/428 439/62/422
f 444/64/427 445/71/428 441/66/424
f 445/71/428 442/72/425 439/62/422
f 445/71/428 444/64/427 442/72/425
f 446/69/429 447/60/430 448/63/431
f 446/69/429 449/77/432 447/60/430
f 450/68/433 446/69/429 448/63/431
f 451/65/434 450/68/433 448/63/431
f 449/77/432 446/69/429 452/59/435
f 453/62/436 450/68/433 451/65/434
f 450/68/433 453/62/436 446/69/429
f 453/62/436 452/59/435 446/69/429
f 454/67/437 453/62/436 451/65/434
f 454/67/437 455/66/438 453/62/436
f 456/72/439 449/77/432 452/59/435
f 456/72/439 452/59/435 453/62/436
f 457/61/440 449/77/432 456/72/439
f 458/64/441 457/61/440 456/72/439
f 455/66/438 459/71/442 453/62/436
f 458/64/441 459/71/442 455/66/438
f 459/71/442 456/72/439 453/62/436
f 459/71/442 458/64/441 456/72/439
f 460/69/443 461/60/444 462/63/445
f 460/69/443 463/77/446 461/60/444
f 464/68/447 460/69/443 462/63/445
f 465/65/448 464/68/447 462/63/445
f 463/77/446 460/69/443 466/59/449
f 467/62/450 464/68/447 465/65/448
f 464/68/447 467/62/450 460/69/443
f 467/62/450 466/59/449 460/69/443
f 468/67/451 467/62/450 465/65/448
f 468/67/451 469/66/452 467/62/450
f 470/72/453 463/77/446 466/59/449
f 470/72/453 466/59/449 467/62/450
f 471/61/454 463/77/446 470/72/453
f 472/64/455 471/61/454 470/72/453
f 469/66/452 473/71/456 467/62/450
f 472/64/455 473/71/456 469/66/452
f 473/71/456 470/72/453 467/62/450
f 473/71/456 472/64/455 470/72/453
