# 3ds Max Wavefront OBJ Exporter v0.97b - (c)2007 guruware
# File Created: 12.01.2012 05:57:32

mtllib VorpalBlade.mtl

#
# object VorpalBlade
#

v  0.1831 18.1632 0.7339
v  0.2521 8.6426 0.7269
v  0.2938 8.6426 0.7141
v  -0.8321 6.8581 0.1664
v  -0.4870 6.8581 0.6411
v  0.0483 6.8581 0.7946
v  -0.8421 6.8581 -0.5810
v  -0.4632 6.8581 -1.2006
v  0.0483 6.8581 -1.3286
v  0.5918 6.8581 0.6276
v  0.9319 6.8581 0.1473
v  0.9143 6.8581 -0.5670
v  0.5756 6.8581 -1.2011
v  1.3326 6.1618 0.3796
v  1.3071 6.1618 -0.7130
v  0.8152 6.1618 -1.6829
v  0.0497 6.1618 -1.8779
v  0.9776 5.7813 -0.6030
v  0.6144 5.7813 -1.3191
v  0.0492 5.7813 -1.4631
v  0.8388 6.1618 1.1141
v  0.0497 6.1618 1.3696
v  0.0492 5.7813 0.9348
v  0.6318 5.7813 0.7462
v  0.9964 5.7813 0.2038
v  -0.0553 37.6581 0.6570
v  -0.0553 37.6581 0.6708
v  0.0294 32.6709 0.7059
v  -0.4177 6.5766 0.5670
v  -0.3711 6.5766 0.5782
v  -0.3796 8.1475 0.7460
v  -0.4295 8.1475 0.7347
v  -0.2701 8.6426 0.7169
v  -0.2135 8.6426 0.7284
v  0.4532 8.1475 0.7320
v  0.4047 8.1475 0.7448
v  0.4415 6.5766 0.5643
v  0.3898 6.5766 0.5771
v  -0.4295 7.5573 -0.8485
v  -0.2586 7.8972 -0.8869
v  -0.2548 8.1007 -1.4836
v  -0.2024 8.5186 -2.6704
v  -0.2882 7.9451 -1.6721
v  -0.3377 7.4105 -1.3008
v  -0.4177 6.5766 -1.0322
v  -0.4295 7.4473 -0.3127
v  -0.2605 7.8404 -0.3485
v  -0.4295 7.5876 0.1441
v  -0.2624 7.9910 0.1507
v  -0.5421 4.8729 0.8041
v  0.0341 4.8729 0.9824
v  0.0492 5.2220 1.1399
v  -0.5653 5.2220 0.9425
v  0.0493 5.5951 1.1393
v  -0.5528 5.5951 0.9387
v  -0.9613 5.2220 0.3321
v  -0.9134 4.8730 0.2529
v  -0.9728 5.2220 -0.6290
v  -0.9241 4.8730 -0.6149
v  -0.5164 4.8730 -1.3344
v  -0.5379 5.2220 -1.4258
v  0.0406 4.8730 -1.4830
v  -0.9409 5.5951 0.3184
v  -0.9521 5.5951 -0.6581
v  -0.5260 5.5951 -1.4677
v  0.0492 5.2220 -1.5903
v  0.0493 5.5951 -1.6349
v  -0.4992 5.7813 -1.3185
v  -0.9054 5.7813 -0.6187
v  -0.8946 5.7813 0.2253
v  -0.5247 5.7813 0.7614
v  0.0624 32.6709 0.6926
v  0.1802 27.6838 0.7282
v  0.1141 27.6838 0.7410
v  0.2370 18.1632 0.7211
v  -0.7736 -4.9577 1.3287
v  -0.6341 -3.8011 1.4099
v  -1.0912 -3.4876 0.5900
v  -0.5829 -2.2439 -1.2228
v  -0.7242 -3.6632 -1.5594
v  -1.0322 -3.0225 -0.3892
v  -1.3292 -4.9577 -0.7784
v  -1.3156 -4.9577 0.4216
v  -0.6128 -6.4126 0.9149
v  -1.0160 -6.4126 0.4039
v  -0.3652 -6.8037 0.4609
v  -0.5215 -6.8037 0.2629
v  -0.3405 -7.1948 0.2944
v  -0.4388 -6.8037 -0.4229
v  -0.3370 -7.1948 -0.3371
v  -1.0277 -6.4126 -0.4007
v  -0.5849 -6.4126 -1.0850
v  -0.7386 -5.2287 -1.6279
v  -0.7314 -4.4459 -1.6801
v  -0.0020 -3.6632 -1.8235
v  0.0057 -4.4459 -1.9258
v  0.0135 -5.2287 -1.8553
v  0.0129 -6.4126 -1.2228
v  0.0186 -6.8037 -0.6883
v  0.0241 -7.1948 -0.5507
v  0.0353 -7.3837 -0.0046
v  0.0241 -7.1948 0.4851
v  0.0186 -6.8037 0.5988
v  0.0129 -6.4126 1.0802
v  0.0135 -4.9577 1.6014
v  -0.0008 -3.8011 1.6754
v  -0.5855 -0.6867 1.2028
v  -0.0107 -0.6867 1.3933
v  -0.9560 -0.6867 0.6138
v  -0.9667 -0.6867 -0.3136
v  -0.5599 -0.6867 -1.0825
v  0.0152 -0.6867 -1.2412
v  0.0072 -2.2439 -1.4128
v  -0.2751 18.1632 0.7310
v  -0.3367 27.6838 0.7337
v  -0.1960 32.6709 0.7023
v  0.9192 -0.6867 -0.2963
v  0.9380 -0.6867 0.5901
v  1.0934 -3.4876 0.5555
v  0.6043 4.8730 -1.3350
v  0.5665 -0.6867 -1.0830
v  0.9661 4.8730 -0.5987
v  0.9850 4.8730 0.2308
v  0.6190 4.8729 0.7884
v  0.5729 -0.6867 1.1861
v  0.6420 -3.8011 1.3866
v  0.8125 -4.9577 1.3047
v  0.6481 -6.4126 0.9004
v  0.4072 -6.8037 0.4522
v  1.3458 -4.9577 0.3905
v  1.0455 -6.4126 0.3834
v  0.5612 -6.8037 0.2518
v  0.3917 -7.1948 0.2865
v  0.4731 -6.8037 -0.4188
v  0.3830 -7.1948 -0.3338
v  0.6291 -6.4126 -1.0855
v  0.7886 -5.2287 -1.6288
v  0.9975 -3.0225 -0.3667
v  0.7423 -3.6632 -1.5604
v  0.5947 -2.2439 -1.2235
v  1.3218 -4.9577 -0.7564
v  0.7655 -4.4459 -1.6810
v  1.0250 -6.4126 -0.3857
v  0.3461 7.9910 0.1507
v  0.3442 7.8368 -0.3521
v  0.3423 7.8972 -0.8869
v  0.3385 8.1007 -1.4836
v  0.2861 8.5186 -2.6704
v  -0.1594 34.6793 -1.0597
v  -0.0588 31.8393 -2.3768
v  0.0418 28.5838 -3.2984
v  -0.0247 25.3188 -3.9250
v  -0.0913 22.1326 -4.2934
v  0.0256 18.3429 -4.5381
v  0.1424 14.4520 -4.6545
v  0.0418 8.5105 -4.9010
v  0.5131 7.5876 0.1441
v  0.5131 7.4449 -0.3183
v  0.5131 7.5573 -0.8485
v  0.5014 6.5766 -1.0322
v  0.4213 7.4105 -1.3008
v  0.3718 7.9451 -1.6721
v  0.6544 5.2220 -1.4264
v  0.6423 5.5951 -1.4683
v  1.0233 5.5951 -0.6399
v  1.0431 5.5951 0.2935
v  1.0432 5.2220 -0.6110
v  1.0634 5.2220 0.3076
v  0.6605 5.5951 0.9210
v  0.6730 5.2220 0.9251
v  -1.2430 6.1618 -0.7344
v  -1.2285 6.1618 0.4087
v  -0.7276 6.1618 1.1348
v  -0.6930 6.1618 -1.6821
v  -0.3521 18.1632 0.7239
v  -0.2448 32.6709 0.6939
v  -0.4342 27.6838 0.7309
# 177 vertices

vn 0.2934 0.0014 0.9560
vn 0.0000 1.0000 -0.0000
vn 0.8692 0.4940 -0.0207
vn 0.9490 -0.0875 0.3028
vn 0.9640 -0.0922 -0.2495
vn 0.8307 0.5174 -0.2054
vn 0.6007 -0.0764 -0.7958
vn 0.5161 0.6021 -0.6092
vn 0.2439 -0.0720 -0.9671
vn 0.1865 0.6087 -0.7712
vn 0.7189 -0.6729 -0.1744
vn 0.4519 -0.7294 -0.5135
vn 0.1697 -0.7263 -0.6661
vn 0.6804 0.5523 0.4818
vn 0.4872 0.6055 0.6293
vn 0.5848 -0.0760 0.8076
vn 0.2371 0.6144 0.7525
vn 0.3073 -0.0678 0.9492
vn 0.2085 -0.7361 0.6440
vn 0.4201 -0.7385 0.5274
vn 0.6951 -0.6965 0.1781
vn 0.9999 0.0170 -0.0000
vn -0.2324 -0.1045 0.9670
vn -0.2203 0.0101 0.9754
vn -0.2208 -0.0113 0.9752
vn -0.2196 -0.1052 0.9699
vn -0.1992 0.1013 0.9747
vn -0.1981 0.1011 0.9750
vn 0.2562 -0.0073 0.9666
vn 0.2910 0.1280 0.9481
vn 0.2884 0.1269 0.9490
vn 0.2550 0.0137 0.9668
vn 0.2393 -0.1053 0.9652
vn 0.2390 -0.1053 0.9653
vn -0.9786 0.2053 -0.0148
vn -0.8868 0.4470 0.1174
vn -0.9647 0.2632 0.0040
vn -0.9826 0.1847 0.0216
vn -0.9837 0.1775 -0.0299
vn -0.9805 -0.0089 -0.1961
vn -0.9984 -0.0016 -0.0557
vn -0.9999 -0.0111 0.0028
vn -0.9861 0.1656 -0.0145
vn -0.9194 0.3913 -0.0399
vn -0.9836 0.1613 -0.0810
vn -0.8956 0.3575 -0.2646
vn -0.9378 0.2310 -0.2592
vn -0.9012 0.2782 -0.3324
vn -0.6020 -0.3262 0.7288
vn -0.2727 -0.3858 0.8813
vn -0.2978 -0.1821 0.9371
vn -0.5911 -0.1541 0.7917
vn -0.2904 0.3640 0.8850
vn -0.5540 0.3476 0.7565
vn -0.2166 0.7143 0.6654
vn -0.9499 -0.0724 0.3040
vn -0.9465 -0.1891 0.2616
vn -0.9704 -0.0577 -0.2346
vn -0.9904 -0.1377 0.0122
vn -0.6227 -0.2290 -0.7482
vn -0.8615 -0.1399 -0.4881
vn -0.6156 -0.1530 -0.7731
vn -0.2557 -0.2718 -0.9277
vn -0.9250 0.2253 0.3059
vn -0.9560 0.1577 -0.2475
vn -0.5741 0.2570 -0.7774
vn -0.2647 -0.1932 -0.9448
vn -0.2580 0.2761 -0.9258
vn -0.5603 0.5695 -0.6015
vn -0.9349 0.2903 -0.2041
vn -0.9159 0.3366 0.2187
vn -0.5321 0.6170 0.5798
vn -0.1903 0.6657 -0.7216
vn 0.0019 -0.0434 0.9991
vn 0.0014 -0.1062 0.9943
vn 0.0015 -0.1062 0.9943
vn 0.0015 -0.0422 0.9991
vn 0.0021 0.0358 0.9994
vn 0.0032 0.0344 0.9994
vn 0.3730 0.0154 0.9277
vn 0.3738 0.0154 0.9274
vn 0.1906 0.0054 0.9817
vn 0.1901 0.0054 0.9817
vn 0.2310 0.0007 0.9730
vn 0.2311 0.0007 0.9729
vn -0.6284 -0.1301 0.7670
vn -0.6401 0.0322 0.7676
vn -0.9598 0.0810 0.2686
vn -0.6644 0.1462 -0.7329
vn -0.6721 0.2032 -0.7120
vn -0.9740 0.1132 -0.1960
vn -0.9598 -0.0572 -0.2747
vn -0.9634 -0.0486 0.2636
vn -0.4872 -0.5236 0.6989
vn -0.8155 -0.4984 0.2941
vn -0.4714 -0.6085 0.6384
vn -0.7234 -0.6590 0.2058
vn -0.6427 -0.6648 0.3807
vn -0.6240 -0.6784 -0.3878
vn -0.6766 -0.6299 -0.3814
vn -0.8173 -0.5361 -0.2110
vn -0.4791 -0.6018 -0.6390
vn -0.5826 -0.2438 -0.7753
vn -0.6075 0.0432 -0.7931
vn -0.3298 0.1962 -0.9234
vn -0.3094 0.0219 -0.9507
vn -0.2789 -0.2675 -0.9223
vn -0.1871 -0.6201 -0.7618
vn -0.3413 -0.6498 -0.6791
vn -0.4052 -0.5984 -0.6912
vn -0.3597 -0.9250 -0.1227
vn -0.1831 -0.9186 0.3502
vn -0.3277 -0.6154 0.7168
vn -0.2607 -0.5785 0.7729
vn -0.2283 -0.5332 0.8146
vn -0.3329 -0.1762 0.9263
vn -0.3823 0.0023 0.9240
vn -0.6167 0.0659 0.7844
vn -0.3136 0.0787 0.9463
vn -0.2962 0.0708 0.9525
vn -0.6027 0.0598 0.7958
vn -0.9569 0.0387 0.2878
vn -0.9575 0.0259 0.2874
vn -0.9725 0.0193 -0.2323
vn -0.9666 -0.0043 -0.2563
vn -0.6353 0.0202 -0.7720
vn -0.6049 -0.0308 -0.7957
vn -0.2705 0.0265 -0.9624
vn -0.2576 -0.0408 -0.9654
vn -0.3069 0.1825 -0.9341
vn 0.0029 -0.0007 1.0000
vn 0.0032 -0.0007 1.0000
vn -0.0062 -0.0006 1.0000
vn -0.0065 -0.0005 1.0000
vn -0.0160 0.0032 0.9999
vn -0.0162 0.0032 0.9999
vn -0.0160 0.0068 0.9998
vn 0.9758 0.0142 -0.2183
vn 0.9629 0.0335 0.2676
vn 0.9638 0.0959 0.2487
vn 0.2551 -0.0454 -0.9658
vn 0.6278 -0.0395 -0.7774
vn 0.6626 0.0176 -0.7488
vn 0.9700 -0.0188 -0.2425
vn 0.9646 0.0090 0.2637
vn 0.6179 0.0490 0.7847
vn 0.6284 0.0620 0.7754
vn 0.6506 0.0427 0.7582
vn 0.6423 -0.1194 0.7571
vn 0.3155 0.0653 0.9467
vn 0.3336 0.0766 0.9396
vn 0.4051 0.0085 0.9142
vn 0.3546 -0.1680 0.9198
vn 0.2449 -0.5262 0.8144
vn 0.4984 -0.5188 0.6946
vn 0.2731 -0.5766 0.7700
vn 0.4851 -0.5979 0.6381
vn 0.9695 -0.0374 0.2423
vn 0.8251 -0.4936 0.2749
vn 0.7400 -0.6431 0.1968
vn 0.6578 -0.6515 0.3778
vn 0.6408 -0.6617 -0.3893
vn 0.6870 -0.6159 -0.3856
vn 0.3438 -0.5949 0.7265
vn 0.3334 -0.9427 0.0137
vn 0.4196 -0.5772 -0.7005
vn 0.3438 -0.6506 -0.6771
vn 0.4985 -0.5987 -0.6269
vn 0.1816 -0.6197 -0.7636
vn 0.5996 -0.2334 -0.7655
vn 0.9745 0.1181 -0.1907
vn 0.6812 0.2061 -0.7025
vn 0.6849 0.1466 -0.7138
vn 0.9641 -0.0454 -0.2615
vn 0.6164 0.0544 -0.7855
vn 0.8232 -0.5281 -0.2084
vn 0.2782 -0.2574 -0.9254
vn 0.3132 0.0291 -0.9492
vn 0.3271 0.1909 -0.9255
vn 0.3057 0.1816 -0.9346
vn 0.2794 0.0262 -0.9598
vn 0.9965 0.0829 -0.0111
vn 1.0000 -0.0005 -0.0036
vn 0.9989 0.0475 0.0058
vn 0.9995 0.0324 -0.0035
vn 0.9954 0.0959 -0.0034
vn 0.9989 0.0121 -0.0460
vn 0.9991 0.0184 -0.0391
vn 0.9958 0.0373 -0.0833
vn 0.9947 0.0228 -0.0998
vn 0.9974 0.0367 -0.0616
vn 0.9983 0.0390 -0.0426
vn 0.9991 0.0099 -0.0417
vn 0.9994 0.0123 -0.0316
vn 0.9992 -0.0157 -0.0360
vn 0.9988 0.0100 -0.0488
vn 0.9987 0.0322 -0.0390
vn 0.9990 0.0166 -0.0406
vn 0.9940 -0.0123 -0.1088
vn 0.9191 0.3920 -0.0392
vn 0.9077 0.3622 -0.2119
vn 0.9891 0.1443 -0.0292
vn 0.9885 0.1513 -0.0011
vn 0.8867 0.4470 0.1186
vn 0.9784 0.2062 -0.0142
vn 0.9648 0.2628 0.0038
vn 0.9247 0.2887 -0.2481
vn 0.9569 0.2369 -0.1679
vn 0.9964 -0.0390 0.0758
vn 0.9991 -0.0165 -0.0389
vn 0.9983 -0.0442 0.0375
vn 0.9805 -0.0088 -0.1961
vn 0.9837 0.1771 -0.0301
vn 0.9826 0.1843 0.0215
vn 0.2498 0.2774 -0.9277
vn 0.1840 0.6666 -0.7224
vn 0.5850 0.5625 -0.5843
vn 0.6252 -0.2791 -0.7289
vn 0.2430 -0.2905 -0.9255
vn 0.2539 -0.1989 -0.9465
vn 0.6383 -0.1698 -0.7508
vn 0.5892 0.2562 -0.7663
vn 0.9380 0.2818 -0.2016
vn 0.9599 0.1527 -0.2351
vn 0.9239 0.3276 0.1975
vn 0.9328 0.2197 0.2856
vn 0.5493 0.6118 0.5691
vn 0.9703 -0.0938 -0.2231
vn 0.9475 -0.2176 -0.2342
vn 0.9542 -0.1069 0.2794
vn 0.5709 0.3403 0.7471
vn 0.6055 -0.1731 0.7768
vn 0.3030 0.3563 0.8839
vn 0.3191 -0.1988 0.9266
vn 0.2954 -0.3981 0.8685
vn 0.5904 -0.3673 0.7187
vn 0.9348 -0.2628 0.2388
vn 0.2129 0.7225 0.6578
vn -0.8244 0.5227 -0.2171
vn -0.9606 -0.0896 -0.2629
vn -0.9422 -0.0905 0.3225
vn -0.8040 0.5458 0.2360
vn -0.5710 -0.0788 0.8172
vn -0.4706 0.6147 0.6329
vn -0.2858 -0.0712 0.9556
vn -0.2160 0.6215 0.7531
vn -0.6884 -0.6984 0.1957
vn -0.4103 -0.7408 0.5319
vn -0.1952 -0.7379 0.6460
vn -0.5049 0.5931 -0.6271
vn -0.5845 -0.0746 -0.8080
vn -0.1980 0.6031 -0.7727
vn -0.2543 -0.0705 -0.9646
vn -0.1755 -0.7254 -0.6656
vn -0.4369 -0.7277 -0.5287
vn -0.7085 -0.6828 -0.1781
vn -0.9975 0.0156 -0.0686
vn -0.9999 -0.0022 -0.0159
vn -0.9975 -0.0098 -0.0697
vn -0.9985 0.0506 -0.0194
vn -1.0000 -0.0020 -0.0060
vn -1.0000 -0.0087 -0.0029
vn -1.0000 -0.0007 -0.0036
vn -0.9985 0.0212 -0.0514
vn -0.9993 0.0379 -0.0052
vn -0.9995 0.0205 -0.0252
vn -0.9966 0.0132 -0.0813
vn -0.9957 0.0189 -0.0904
vn -0.9934 0.0219 -0.1125
vn -0.9938 0.0353 -0.1053
vn -0.9974 -0.0057 -0.0722
vn -0.9970 -0.0269 -0.0725
vn -0.9953 0.0072 -0.0968
vn -0.9938 0.0213 -0.1089
vn -0.1986 -0.0016 0.9801
vn -0.1991 -0.0016 0.9800
vn -0.0918 -0.0015 0.9958
vn -0.0293 0.0033 0.9996
vn -0.0287 0.0033 0.9996
vn -0.1688 0.0123 0.9856
vn -0.1705 0.0124 0.9853
vn -0.9993 0.0380 0.0062
vn -0.9993 0.0380 -0.0000
vn 0.0000 -0.3066 -0.9518
vn 0.0000 -0.4363 -0.8998
vn 0.0000 -0.7294 -0.6841
vn 0.0000 -0.9625 -0.2713
vn 0.0000 -1.0000 0.0036
# 288 vertex normals

vt 0.6606 0.4722 0.4722
vt 0.9956 0.4731 0.4731
vt 0.9956 0.4727 0.4727
vt 0.9697 0.7395 0.7395
vt 0.9521 0.7827 0.7827
vt 0.9248 0.7987 0.7987
vt 0.9692 0.6743 0.6743
vt 0.9487 0.6223 0.6223
vt 0.9219 0.6138 0.6138
vt 0.8965 0.7870 0.7870
vt 0.8779 0.7468 0.7468
vt 0.8779 0.6846 0.6846
vt 0.8950 0.6274 0.6274
vt 0.6558 0.6206 0.6206
vt 0.6558 0.5493 0.5493
vt 0.7017 0.5493 0.5493
vt 0.7017 0.6206 0.6206
vt 0.7520 0.5493 0.5493
vt 0.7520 0.6206 0.6206
vt 0.7988 0.5493 0.5493
vt 0.7988 0.6206 0.6206
vt 0.7017 0.5059 0.5059
vt 0.7520 0.5059 0.5059
vt 0.7988 0.5059 0.5059
vt 0.6123 0.6206 0.6206
vt 0.6123 0.5493 0.5493
vt 0.5645 0.6206 0.6206
vt 0.5645 0.5493 0.5493
vt 0.5645 0.5059 0.5059
vt 0.6123 0.5059 0.5059
vt 0.6558 0.5059 0.5059
vt 0.0023 0.4424 0.4424
vt 0.0022 0.4434 0.4434
vt 0.1641 0.4570 0.4570
vt 0.8984 0.5095 0.5095
vt 0.8989 0.5129 0.5129
vt 0.8530 0.4980 0.4980
vt 0.8530 0.4932 0.4932
vt 0.8359 0.5220 0.5220
vt 0.8359 0.5234 0.5234
vt 0.8540 0.5837 0.5837
vt 0.8364 0.5591 0.5591
vt 0.8354 0.5544 0.5544
vt 0.8535 0.5791 0.5791
vt 0.8975 0.5681 0.5681
vt 0.8984 0.5654 0.5654
vt 0.9111 0.8925 0.8925
vt 0.9102 0.9185 0.9185
vt 0.8867 0.9319 0.9319
vt 0.8315 0.9609 0.9609
vt 0.8794 0.9213 0.9213
vt 0.8931 0.8837 0.8837
vt 0.9028 0.8264 0.8264
vt 0.9644 0.8234 0.8234
vt 0.9316 0.8842 0.8842
vt 0.9307 0.9168 0.9168
vt 0.9492 0.8929 0.8929
vt 0.9497 0.9225 0.9225
vt 0.9731 0.9295 0.9295
vt 0.9727 0.9648 0.9648
vt 0.0754 0.6270 0.6270
vt 0.0754 0.5645 0.5645
vt 0.0649 0.5667 0.5667
vt 0.0649 0.6221 0.6221
vt 0.0525 0.5625 0.5625
vt 0.0523 0.6196 0.6196
vt 0.0436 0.5657 0.5657
vt 0.0648 0.6873 0.6873
vt 0.0753 0.6958 0.6958
vt 0.0646 0.7523 0.7523
vt 0.0751 0.7589 0.7589
vt 0.0750 0.8153 0.8153
vt 0.0645 0.8148 0.8148
vt 0.0748 0.8738 0.8738
vt 0.0522 0.6865 0.6865
vt 0.0521 0.7542 0.7542
vt 0.0520 0.8181 0.8181
vt 0.0644 0.8727 0.8727
vt 0.0518 0.8766 0.8766
vt 0.0431 0.8158 0.8158
vt 0.0432 0.7527 0.7527
vt 0.0433 0.6899 0.6899
vt 0.0435 0.6228 0.6228
vt 0.0430 0.8741 0.8741
vt 0.1642 0.4580 0.4580
vt 0.3259 0.4746 0.4746
vt 0.3257 0.4707 0.4707
vt 0.6606 0.4736 0.4736
vt 0.4258 0.6311 0.6311
vt 0.3845 0.6091 0.6091
vt 0.3694 0.7002 0.7002
vt 0.3245 0.8569 0.8569
vt 0.3777 0.8679 0.8679
vt 0.3508 0.7933 0.7933
vt 0.4185 0.7822 0.7822
vt 0.4189 0.7046 0.7046
vt 0.4778 0.6692 0.6692
vt 0.4712 0.6978 0.6978
vt 0.4919 0.6860 0.6860
vt 0.4924 0.7046 0.7046
vt 0.5054 0.7063 0.7063
vt 0.4934 0.7631 0.7631
vt 0.5054 0.7562 0.7562
vt 0.4690 0.7515 0.7515
vt 0.4783 0.8046 0.8046
vt 0.4331 0.8588 0.8588
vt 0.4053 0.8634 0.8634
vt 0.3782 0.9359 0.9359
vt 0.4121 0.9276 0.9276
vt 0.4458 0.9193 0.9193
vt 0.4988 0.8480 0.8480
vt 0.5093 0.8156 0.8156
vt 0.5195 0.7831 0.7831
vt 0.5259 0.7297 0.7297
vt 0.5195 0.6794 0.6794
vt 0.5083 0.6492 0.6492
vt 0.4976 0.6189 0.6189
vt 0.4382 0.5559 0.5559
vt 0.3877 0.5422 0.5422
vt 0.2703 0.6226 0.6226
vt 0.2708 0.5610 0.5610
vt 0.2683 0.7056 0.7056
vt 0.2666 0.7733 0.7733
vt 0.2656 0.8195 0.8195
vt 0.2625 0.8785 0.8785
vt 0.3198 0.9111 0.9111
vt 0.9956 0.4375 0.4375
vt 0.6606 0.4385 0.4385
vt 0.3259 0.4395 0.4395
vt 0.1641 0.4414 0.4414
vt 0.9902 0.3784 0.3784
vt 0.9946 0.3457 0.3457
vt 0.9951 0.3105 0.3105
vt 0.9678 0.4146 0.4146
vt 0.9897 0.2705 0.2705
vt 0.9780 0.1753 0.1753
vt 0.6499 0.4053 0.4053
vt 0.0951 0.2939 0.2939
vt 0.0001 0.3789 0.3789
vt 0.1663 0.3872 0.3872
vt 0.2030 0.2236 0.2236
vt 0.3323 0.3955 0.3955
vt 0.3110 0.1538 0.1538
vt 0.4189 0.1104 0.1104
vt 0.5269 0.0664 0.0664
vt 0.6543 0.0469 0.0469
vt 0.7817 0.0278 0.0278
vt 0.9756 0.0049 0.0049
vt 0.0431 0.8135 0.8135
vt 0.6611 0.9760 0.9760
vt 0.6631 0.9052 0.9052
vt 0.7100 0.9052 0.9052
vt 0.7061 0.9760 0.9760
vt 0.7520 0.9052 0.9052
vt 0.7437 0.9760 0.9760
vt 0.8022 0.9052 0.9052
vt 0.7817 0.9760 0.9760
vt 0.7124 0.8579 0.8579
vt 0.7593 0.8579 0.8579
vt 0.8022 0.8579 0.8579
vt 0.6196 0.9760 0.9760
vt 0.6108 0.9052 0.9052
vt 0.5835 0.9760 0.9760
vt 0.5635 0.9052 0.9052
vt 0.5630 0.8579 0.8579
vt 0.6040 0.8579 0.8579
vt 0.6592 0.8579 0.8579
vt 0.9956 0.4326 0.4326
vt 0.6606 0.4326 0.4326
vt 0.3259 0.4326 0.4326
vt 0.1641 0.4375 0.4375
vt 0.5586 0.7866 0.7866
vt 0.5586 0.6936 0.6936
vt 0.6108 0.7017 0.7017
vt 0.6108 0.7784 0.7784
vt 0.6514 0.7068 0.7068
vt 0.6514 0.7734 0.7734
vt 0.7129 0.7153 0.7153
vt 0.7129 0.7648 0.7648
vt 0.8574 0.7400 0.7400
# 180 texture coords

g VorpalBlade
usemtl Material__289
s 1
f 1/1/1 2/2/1 3/3/1 
s 2
f 4/4/2 5/5/2 6/6/2 
s 3
f 7/7/2 4/4/2 6/6/2 
s 4
f 8/8/2 7/7/2 6/6/2 
s 5
f 9/9/2 8/8/2 6/6/2 
s 6
f 6/6/2 10/10/2 11/11/2 
s 7
f 6/6/2 11/11/2 12/12/2 
s 8
f 9/9/2 6/6/2 12/12/2 
s 9
f 13/13/2 9/9/2 12/12/2 
s 10
f 11/14/3 14/15/4 15/16/5 
s 11
f 15/16/5 12/17/6 11/14/3 
s 12
f 12/17/6 15/16/5 16/18/7 
s 13
f 16/18/7 13/19/8 12/17/6 
s 14
f 13/19/8 16/18/7 17/20/9 
s 15
f 17/20/9 9/21/10 13/19/8 
s 16
f 16/18/7 15/16/5 18/22/11 
s 17
f 18/22/11 19/23/12 16/18/7 
s 18
f 17/20/9 16/18/7 19/23/12 
s 19
f 19/23/12 20/24/13 17/20/9 
s 20
f 14/15/4 11/14/14 10/25/15 
s 21
f 10/25/15 21/26/16 14/15/4 
s 22
f 21/26/16 10/25/15 6/27/17 
s 23
f 6/27/17 22/28/18 21/26/16 
s 24
f 21/26/16 22/28/18 23/29/19 
s 25
f 23/29/19 24/30/20 21/26/16 
s 26
f 14/15/4 21/26/16 24/30/20 
s 27
f 24/30/20 25/31/21 14/15/4 
s 28
f 15/16/5 14/15/4 25/31/21 
s 29
f 25/31/21 18/22/11 15/16/5 
s 30
f 26/32/22 27/33/22 28/34/22 
s 31
f 29/35/23 30/36/23 31/37/24 
s 32
f 31/37/24 32/38/25 29/35/26 
s 33
f 33/39/27 32/38/25 31/37/24 
s 34
f 31/37/24 34/40/28 33/39/27 
s 35
f 35/41/29 3/42/30 2/43/31 
s 36
f 2/43/31 36/44/32 35/41/29 
s 37
f 37/45/33 35/41/29 36/44/32 
s 38
f 36/44/32 38/46/34 37/45/33 
s 39
f 39/47/35 40/48/36 41/49/37 
s 40
f 41/49/37 42/50/38 43/51/39 
s 41
f 41/49/37 43/51/39 39/47/35 
s 42
f 39/47/35 43/51/39 44/52/40 
s 43
f 45/53/41 39/47/35 44/52/40 
s 44
f 45/53/41 29/54/42 39/47/35 
s 45
f 29/54/42 46/55/43 39/47/35 
s 46
f 40/48/36 39/47/35 46/55/43 
s 47
f 46/55/43 47/56/44 40/48/36 
s 48
f 47/56/44 46/55/43 48/57/45 
s 49
f 48/57/45 49/58/46 47/56/44 
s 50
f 49/58/46 48/57/45 32/59/47 
s 51
f 32/59/47 33/60/48 49/58/46 
s 52
f 29/54/42 32/59/47 48/57/45 
s 53
f 29/54/42 48/57/45 46/55/43 
s 54
f 50/61/49 51/62/50 52/63/51 
s 55
f 52/63/51 53/64/52 50/61/49 
s 56
f 53/64/52 52/63/51 54/65/53 
s 57
f 55/66/54 54/65/53 23/67/55 
s 58
f 54/65/53 55/66/54 53/64/52 
s 59
f 56/68/56 53/64/52 55/66/54 
s 60
f 50/61/49 53/64/52 56/68/56 
s 61
f 56/68/56 57/69/57 50/61/49 
s 62
f 57/69/57 56/68/56 58/70/58 
s 63
f 58/70/58 59/71/59 57/69/57 
s 64
f 60/72/60 59/71/61 58/70/58 
s 65
f 58/70/58 61/73/62 60/72/60 
s 66
f 62/74/63 60/72/60 61/73/62 
s 67
f 55/66/54 63/75/64 56/68/56 
s 68
f 58/70/58 56/68/56 63/75/64 
s 69
f 63/75/64 64/76/65 58/70/58 
s 70
f 58/70/58 64/76/65 65/77/66 
s 71
f 65/77/66 61/73/62 58/70/58 
s 72
f 61/73/62 66/78/67 62/74/63 
s 73
f 67/79/68 66/78/67 61/73/62 
s 74
f 61/73/62 65/77/66 67/79/68 
s 75
f 67/79/68 65/77/66 68/80/69 
s 76
f 69/81/70 68/80/69 65/77/66 
s 77
f 65/77/66 64/76/65 69/81/70 
s 78
f 70/82/71 69/81/70 64/76/65 
s 79
f 64/76/65 63/75/64 70/82/71 
s 80
f 71/83/72 70/82/71 63/75/64 
s 81
f 63/75/64 55/66/54 71/83/72 
s 82
f 23/67/55 71/83/72 55/66/54 
s 83
f 68/80/69 20/84/73 67/79/68 
s 84
f 31/37/74 30/36/75 38/46/76 
s 85
f 38/46/76 36/44/77 31/37/74 
s 86
f 31/37/74 36/44/77 2/43/78 
s 87
f 2/43/78 34/40/79 31/37/74 
s 88
f 28/34/80 72/85/81 26/32/81 
s 89
f 73/86/82 72/85/81 28/34/80 
s 90
f 28/34/80 74/87/83 73/86/82 
s 91
f 73/86/82 74/87/83 1/1/84 
s 92
f 1/1/84 75/88/85 73/86/82 
s 93
f 3/3/85 75/88/85 1/1/84 
s 94
f 76/89/86 77/90/87 78/91/88 
s 95
f 79/92/89 80/93/90 81/94/91 
s 96
f 82/95/92 81/94/91 80/93/90 
s 97
f 78/91/88 81/94/91 82/95/92 
s 98
f 82/95/92 83/96/93 78/91/88 
s 99
f 78/91/88 83/96/93 76/89/86 
s 100
f 84/97/94 76/89/86 83/96/93 
s 101
f 83/96/93 85/98/95 84/97/94 
s 102
f 86/99/96 84/97/94 85/98/95 
s 103
f 85/98/95 87/100/97 86/99/96 
s 104
f 87/100/97 88/101/98 86/99/96 
s 105
f 88/101/98 87/100/97 89/102/99 
s 106
f 89/102/99 90/103/100 88/101/98 
s 107
f 85/98/95 83/96/93 82/95/92 
s 108
f 82/95/92 91/104/101 85/98/95 
s 109
f 87/100/97 85/98/95 91/104/101 
s 110
f 91/104/101 89/102/99 87/100/97 
s 111
f 92/105/102 89/102/99 91/104/101 
s 112
f 92/105/102 91/104/101 82/95/92 
s 113
f 82/95/92 93/106/103 92/105/102 
s 114
f 94/107/104 93/106/103 82/95/92 
s 115
f 80/93/90 94/107/104 82/95/92 
s 116
f 94/107/104 80/93/90 95/108/105 
s 117
f 95/108/105 96/109/106 94/107/104 
s 118
f 93/106/103 94/107/104 96/109/106 
s 119
f 96/109/106 97/110/107 93/106/103 
s 120
f 93/106/103 97/110/107 98/111/108 
s 121
f 98/111/108 92/105/102 93/106/103 
s 122
f 92/105/102 98/111/108 99/112/109 
s 123
f 99/112/109 89/102/99 92/105/102 
s 124
f 89/102/99 99/112/109 100/113/110 
s 125
f 100/113/110 90/103/100 89/102/99 
s 126
f 100/113/110 101/114/111 90/103/100 
s 127
f 90/103/100 101/114/111 88/101/98 
s 128
f 88/101/98 101/114/112 102/115/113 
s 129
f 86/99/96 88/101/98 102/115/113 
s 130
f 102/115/113 103/116/114 86/99/96 
s 131
f 84/97/94 86/99/96 103/116/114 
s 132
f 103/116/114 104/117/115 84/97/94 
s 133
f 76/89/86 84/97/94 104/117/115 
s 134
f 104/117/115 105/118/116 76/89/86 
s 135
f 77/90/87 76/89/86 105/118/116 
s 136
f 105/118/116 106/119/117 77/90/87 
s 137
f 107/120/118 77/90/87 106/119/117 
s 138
f 106/119/117 108/121/119 107/120/118 
s 139
f 107/120/118 108/121/119 51/62/120 
s 140
f 51/62/120 50/61/121 107/120/118 
s 141
f 109/122/122 107/120/118 50/61/121 
s 142
f 50/61/121 57/69/123 109/122/122 
s 143
f 110/123/124 109/122/122 57/69/123 
s 144
f 57/69/123 59/71/125 110/123/124 
s 145
f 111/124/126 110/123/124 59/71/125 
s 146
f 59/71/125 60/72/127 111/124/126 
s 147
f 112/125/128 111/124/126 60/72/127 
s 148
f 60/72/127 62/74/129 112/125/128 
s 149
f 77/90/87 107/120/118 109/122/122 
s 150
f 109/122/122 78/91/88 77/90/87 
s 151
f 78/91/88 109/122/122 110/123/124 
s 152
f 110/123/124 81/94/91 78/91/88 
s 153
f 81/94/91 110/123/124 111/124/126 
s 154
f 111/124/126 79/92/89 81/94/91 
s 155
f 79/92/89 111/124/126 112/125/128 
s 156
f 112/125/128 113/126/130 79/92/89 
s 157
f 80/93/90 79/92/89 113/126/130 
s 158
f 113/126/130 95/108/105 80/93/90 
s 159
f 34/127/131 2/2/132 1/1/133 
s 160
f 1/1/133 114/128/134 34/127/131 
s 161
f 114/128/134 1/1/133 74/87/135 
s 162
f 74/87/135 115/129/136 114/128/134 
s 163
f 115/129/136 74/87/135 28/34/137 
s 164
f 28/34/137 116/130/137 115/129/136 
s 165
f 28/34/137 27/33/137 116/130/137 
s 166
f 117/123/138 118/122/139 119/91/140 
s 167
f 62/74/141 120/72/142 121/124/143 
s 168
f 121/124/143 120/72/142 122/71/144 
s 169
f 122/71/144 117/123/138 121/124/143 
s 170
f 117/123/138 122/71/144 123/69/145 
s 171
f 123/69/145 118/122/139 117/123/138 
s 172
f 118/122/139 123/69/145 124/61/146 
s 173
f 124/61/146 125/120/147 118/122/139 
s 174
f 118/122/139 125/120/147 126/90/148 
s 175
f 126/90/148 119/91/140 118/122/139 
s 176
f 119/91/140 126/90/148 127/89/149 
s 177
f 125/120/147 124/61/146 51/62/150 
s 178
f 51/62/150 108/121/151 125/120/147 
s 179
f 125/120/147 108/121/151 106/119/152 
s 180
f 106/119/152 126/90/148 125/120/147 
s 181
f 126/90/148 106/119/152 105/118/153 
s 182
f 105/118/153 127/89/149 126/90/148 
s 183
f 127/89/149 105/118/153 104/117/154 
s 184
f 104/117/154 128/97/155 127/89/149 
s 185
f 128/97/155 104/117/154 103/116/156 
s 186
f 103/116/156 129/99/157 128/97/155 
s 187
f 127/89/149 130/96/158 119/91/140 
s 188
f 130/96/158 127/89/149 128/97/155 
s 189
f 128/97/155 131/98/159 130/96/158 
s 190
f 131/98/159 128/97/155 129/99/157 
s 191
f 129/99/157 132/100/160 131/98/159 
s 192
f 129/99/157 133/101/161 132/100/160 
s 193
f 134/102/162 132/100/160 133/101/161 
s 194
f 133/101/161 135/103/163 134/102/162 
s 195
f 129/99/157 103/116/156 102/115/164 
s 196
f 102/115/164 133/101/161 129/99/157 
s 197
f 102/115/164 101/114/165 133/101/161 
s 198
f 133/101/161 101/114/165 135/103/163 
s 199
f 135/103/163 101/114/165 100/113/166 
s 200
f 134/102/162 135/103/163 100/113/166 
s 201
f 100/113/166 99/112/167 134/102/162 
s 202
f 136/105/168 134/102/162 99/112/167 
s 203
f 99/112/167 98/111/169 136/105/168 
s 204
f 137/106/170 136/105/168 98/111/169 
s 205
f 138/94/171 139/93/172 140/92/173 
s 206
f 139/93/172 138/94/171 141/95/174 
s 207
f 141/95/174 142/107/175 139/93/172 
s 208
f 141/95/174 137/106/170 142/107/175 
s 209
f 136/105/168 137/106/170 141/95/174 
s 210
f 141/95/174 143/104/176 136/105/168 
s 211
f 143/104/176 134/102/162 136/105/168 
s 212
f 132/100/160 134/102/162 143/104/176 
s 213
f 143/104/176 131/98/159 132/100/160 
s 214
f 131/98/159 143/104/176 141/95/174 
s 215
f 141/95/174 130/96/158 131/98/159 
s 216
f 119/91/140 130/96/158 141/95/174 
s 217
f 141/95/174 138/94/171 119/91/140 
s 218
f 119/91/140 138/94/171 117/123/138 
s 219
f 121/124/143 117/123/138 138/94/171 
s 220
f 138/94/171 140/92/173 121/124/143 
s 221
f 98/111/169 97/110/177 137/106/170 
s 222
f 142/107/175 137/106/170 97/110/177 
s 223
f 97/110/177 96/109/178 142/107/175 
s 224
f 139/93/172 142/107/175 96/109/178 
s 225
f 96/109/178 95/108/179 139/93/172 
s 226
f 139/93/172 95/108/179 113/126/180 
s 227
f 113/126/180 140/92/173 139/93/172 
s 228
f 140/92/173 113/126/180 112/125/181 
s 229
f 112/125/181 121/124/143 140/92/173 
s 230
f 121/124/143 112/125/181 62/74/141 
s 231
f 144/131/182 145/132/183 146/133/184 
s 232
f 146/133/184 3/134/185 144/131/182 
s 233
f 3/134/185 146/133/184 147/135/186 
s 234
f 148/136/187 3/134/185 147/135/186 
s 235
f 75/137/188 3/134/185 148/136/187 
s 236
f 149/138/189 26/139/190 72/140/191 
s 237
f 150/141/192 149/138/189 72/140/191 
s 238
f 150/141/192 72/140/191 73/142/193 
s 239
f 73/142/193 151/143/194 150/141/192 
s 240
f 152/144/195 151/143/194 73/142/193 
s 241
f 153/145/196 152/144/195 73/142/193 
s 242
f 73/142/193 75/137/188 153/145/196 
s 243
f 154/146/197 153/145/196 75/137/188 
s 244
f 155/147/198 154/146/197 75/137/188 
s 245
f 148/136/187 155/147/198 75/137/188 
s 246
f 148/136/187 156/148/199 155/147/198 
s 247
f 145/56/200 144/58/201 157/57/202 
s 248
f 157/57/202 158/55/203 145/56/200 
s 249
f 146/48/204 145/56/200 158/55/203 
s 250
f 158/55/203 159/47/205 146/48/204 
s 251
f 147/49/206 146/48/204 159/47/205 
s 252
f 144/58/201 3/60/207 35/59/208 
s 253
f 35/59/208 157/57/202 144/58/201 
s 254
f 157/57/202 35/59/208 37/54/209 
s 255
f 158/55/203 157/57/202 37/54/209 
s 256
f 160/53/210 158/55/203 37/54/211 
s 257
f 160/53/210 159/47/205 158/55/203 
s 258
f 160/53/210 161/52/212 159/47/205 
s 259
f 161/52/212 162/51/213 159/47/205 
s 260
f 159/47/205 162/51/213 147/49/206 
s 261
f 148/50/214 147/49/206 162/51/213 
s 262
f 67/79/215 20/84/216 19/149/217 
s 263
f 120/72/218 62/74/219 66/78/220 
s 264
f 66/78/220 163/73/221 120/72/218 
s 265
f 163/73/221 66/78/220 67/79/215 
s 266
f 67/79/215 164/77/222 163/73/221 
s 267
f 19/149/217 164/77/222 67/79/215 
s 268
f 164/77/222 19/149/217 18/81/223 
s 269
f 18/81/223 165/76/224 164/77/222 
s 270
f 165/76/224 18/81/223 25/82/225 
s 271
f 25/82/225 166/75/226 165/76/224 
s 272
f 166/75/226 25/82/225 24/83/227 
s 273
f 167/70/228 122/71/229 120/72/218 
s 274
f 120/72/218 163/73/221 167/70/228 
s 275
f 167/70/228 163/73/221 164/77/222 
s 276
f 164/77/222 165/76/224 167/70/228 
s 277
f 167/70/228 165/76/224 166/75/226 
s 278
f 166/75/226 168/68/230 167/70/228 
s 279
f 168/68/230 166/75/226 169/66/231 
s 280
f 169/66/231 170/64/232 168/68/230 
s 281
f 24/83/227 169/66/231 166/75/226 
s 282
f 54/65/233 169/66/231 24/83/227 
s 283
f 170/64/232 169/66/231 54/65/233 
s 284
f 54/65/233 52/63/234 170/64/232 
s 285
f 170/64/232 52/63/234 51/62/235 
s 286
f 51/62/235 124/61/236 170/64/232 
s 287
f 168/68/230 170/64/232 124/61/236 
s 288
f 124/61/236 123/69/237 168/68/230 
s 289
f 167/70/228 168/68/230 123/69/237 
s 290
f 123/69/237 122/71/229 167/70/228 
s 291
f 24/83/227 23/67/238 54/65/233 
s 292
f 7/150/239 171/151/240 172/152/241 
s 293
f 172/152/241 4/153/242 7/150/239 
s 294
f 4/153/242 172/152/241 173/154/243 
s 295
f 173/154/243 5/155/244 4/153/242 
s 296
f 5/155/244 173/154/243 22/156/245 
s 297
f 22/156/245 6/157/246 5/155/244 
s 298
f 173/154/243 172/152/241 70/158/247 
s 299
f 70/158/247 71/159/248 173/154/243 
s 300
f 22/156/245 173/154/243 71/159/248 
s 301
f 71/159/248 23/160/249 22/156/245 
s 302
f 171/151/240 7/150/239 8/161/250 
s 303
f 8/161/250 174/162/251 171/151/240 
s 304
f 174/162/251 8/161/250 9/163/252 
s 305
f 9/163/252 17/164/253 174/162/251 
s 306
f 174/162/251 17/164/253 20/165/254 
s 307
f 20/165/254 68/166/255 174/162/251 
s 308
f 171/151/240 174/162/251 68/166/255 
s 309
f 68/166/255 69/167/256 171/151/240 
s 310
f 172/152/241 171/151/240 69/167/256 
s 311
f 69/167/256 70/158/247 172/152/241 
s 312
f 42/136/257 33/134/258 175/137/259 
s 313
f 33/134/258 42/136/257 41/135/260 
s 314
f 33/134/258 41/135/260 40/133/261 
s 315
f 49/131/262 33/134/258 40/133/261 
s 316
f 40/133/261 47/132/263 49/131/262 
s 317
f 176/140/264 26/139/265 149/138/266 
s 318
f 176/140/264 149/138/266 150/141/267 
s 319
f 177/142/268 176/140/264 150/141/267 
s 320
f 150/141/267 151/143/269 177/142/268 
s 321
f 177/142/268 151/143/269 152/144/270 
s 322
f 177/142/268 152/144/270 153/145/271 
s 323
f 153/145/271 175/137/259 177/142/268 
s 324
f 175/137/259 153/145/271 154/146/272 
s 325
f 175/137/259 154/146/272 155/147/273 
s 326
f 175/137/259 155/147/273 42/136/257 
s 327
f 155/147/273 156/148/274 42/136/257 
s 328
f 33/168/275 34/127/276 114/128/277 
s 329
f 114/128/277 175/169/277 33/168/275 
s 330
f 177/170/278 175/169/277 114/128/277 
s 331
f 114/128/277 115/129/279 177/170/278 
s 332
f 177/170/278 115/129/279 116/130/280 
s 333
f 116/130/280 176/171/281 177/170/278 
s 334
f 176/171/281 116/130/280 27/33/282 
s 335
f 27/33/282 26/32/283 176/171/281 
s 336
f 160/172/284 45/173/284 44/174/285 
s 337
f 44/174/285 161/175/285 160/172/284 
s 338
f 161/175/285 44/174/285 43/176/286 
s 339
f 43/176/286 162/177/286 161/175/285 
s 340
f 162/177/286 43/176/286 42/178/287 
s 341
f 42/178/287 148/179/287 162/177/286 
s 342
f 156/180/288 148/179/287 42/178/287 
# 0 polygons - 342 triangles

