# Blender 4.5.0
# www.blender.org
mtllib palm.mtl
o Cube.007
v 3.058237 0.735648 -4.919641
v 3.030519 1.059248 -4.838921
v 3.055996 0.751042 -5.011844
v 3.034839 1.080769 -4.974878
v 3.157376 0.735649 -4.922035
v 3.186669 1.058092 -4.837837
v 3.155147 0.751069 -5.014265
v 3.169246 1.081003 -4.979734
v 3.079207 2.860336 -4.938547
v 3.079207 2.860336 -4.988900
v 3.129560 2.860336 -4.988900
v 3.129560 2.860336 -4.938547
v 3.161865 1.426552 -4.942033
v 3.154369 1.760465 -4.918096
v 3.156240 2.059190 -4.932930
v 3.150985 2.305339 -4.955967
v 3.139148 2.510227 -4.975095
v 3.133765 2.688881 -4.983745
v 3.137042 2.688712 -4.916679
v 3.141619 2.509395 -4.900979
v 3.138499 2.303391 -4.877669
v 3.143762 2.054565 -4.844822
v 3.165831 1.748971 -4.799006
v 3.168480 1.409653 -4.816134
v 3.063887 1.409733 -4.810768
v 3.064877 1.751350 -4.813180
v 3.057381 2.054344 -4.832952
v 3.066395 2.303496 -4.868866
v 3.070707 2.509830 -4.906481
v 3.072265 2.688902 -4.923900
v 3.082357 2.689058 -4.988737
v 3.068227 2.510608 -4.971501
v 3.063020 2.305985 -4.951882
v 3.070842 2.059719 -4.925131
v 3.048761 1.761063 -4.915833
v 3.042745 1.425617 -4.929109
v 3.167562 1.066283 -4.856001
v 3.047163 1.085254 -4.970687
v 3.164825 1.085114 -4.972815
v 3.049896 1.066657 -4.853895
v 3.155024 1.426499 -4.923244
v 3.156921 1.413626 -4.827138
v 3.060857 1.414188 -4.826160
v 3.058949 1.427007 -4.922209
v 3.146570 1.764594 -4.907742
v 3.147687 1.757162 -4.827981
v 3.068423 1.757767 -4.827790
v 3.067287 1.765253 -4.907491
v 3.141738 2.063112 -4.923347
v 3.142345 2.059170 -4.851674
v 3.071272 2.059725 -4.851892
v 3.070640 2.063762 -4.923503
v 3.135656 2.305397 -4.945877
v 3.135924 2.303705 -4.884984
v 3.075508 2.304108 -4.885308
v 3.075216 2.305891 -4.946146
v 3.131990 2.510206 -4.966470
v 3.130178 2.509688 -4.915225
v 3.077836 2.509922 -4.915008
v 3.079621 2.510526 -4.966194
v 3.125686 2.688919 -4.978873
v 3.083352 2.688947 -4.936522
v 3.125695 2.688845 -4.936381
v 3.083326 2.689051 -4.978972
v 3.030751 0.743391 -4.965093
v 3.014973 1.071231 -4.913901
v 3.182651 0.743410 -4.968779
v 3.210728 1.069729 -4.910456
v 3.070669 2.860336 -4.963723
v 3.138098 2.860336 -4.963723
v 3.033805 1.416938 -4.863177
v 3.046607 1.756633 -4.867270
v 3.041975 2.057148 -4.879498
v 3.055201 2.304841 -4.910490
v 3.061374 2.510222 -4.935821
v 3.068152 2.689025 -4.960954
v 3.187453 1.417513 -4.875638
v 3.172669 1.755224 -4.863816
v 3.165353 2.056497 -4.884570
v 3.158667 2.304172 -4.914302
v 3.148509 2.509776 -4.936646
v 3.143420 2.688791 -4.953933
v 3.186156 1.075684 -4.914732
v 3.028584 1.076033 -4.911902
v 3.172279 1.419969 -4.875322
v 3.043623 1.420698 -4.873981
v 3.160588 1.760748 -4.867864
v 3.054424 1.761611 -4.867576
v 3.154114 2.061009 -4.887446
v 3.058915 2.061832 -4.887706
v 3.146054 2.304446 -4.915356
v 3.065127 2.305062 -4.915762
v 3.136807 2.509903 -4.940057
v 3.073020 2.510269 -4.941353
v 3.076165 2.689013 -4.957764
v 3.132884 2.688851 -4.957598
v 3.104640 0.753658 -5.028814
v 3.103084 1.086106 -5.010430
v 3.107643 0.732984 -4.905067
v 3.109620 1.055109 -4.816892
v 3.104383 2.860336 -4.997509
v 3.104383 2.860336 -4.929937
v 3.101919 1.427954 -4.949152
v 3.099147 1.763094 -4.941518
v 3.111248 2.060826 -4.953919
v 3.105309 2.306207 -4.969272
v 3.104800 2.510604 -4.987015
v 3.100983 2.689024 -4.989013
v 3.108423 1.406853 -4.791893
v 3.112092 1.747792 -4.781097
v 3.103335 2.053141 -4.816333
v 3.105935 2.302866 -4.854474
v 3.104984 2.509582 -4.894522
v 3.101652 2.688831 -4.913290
v 3.109188 1.063209 -4.834965
v 3.105510 1.088331 -4.991695
v 3.109203 1.411721 -4.810202
v 3.106642 1.428959 -4.939120
v 3.108234 1.756239 -4.814243
v 3.106715 1.766243 -4.921226
v 3.106899 2.058826 -4.839535
v 3.106061 2.064174 -4.935662
v 3.105750 2.303659 -4.874746
v 3.105368 2.305984 -4.956414
v 3.104959 2.509742 -4.906689
v 3.104823 2.510498 -4.974759
v 3.104490 2.689011 -4.986184
v 3.104517 2.688894 -4.929195
v 3.104383 2.860336 -4.963723
v 3.106141 0.743193 -4.966956
v 3.125923 2.837617 -4.943298
v 3.111120 2.837618 -4.989808
v 3.066033 2.906422 -4.845161
v 3.005492 2.906422 -5.035319
v 2.928582 2.865151 -4.721292
v 2.839544 2.876004 -5.030917
v 2.757047 2.604947 -4.584900
v 2.623345 2.625541 -5.026371
v 2.682582 2.336073 -4.599876
v 2.583020 2.318005 -4.908923
v 2.650484 2.021138 -4.718200
v 2.633884 2.023677 -4.769546
v 2.830003 2.746615 -4.655666
v 2.993577 2.894000 -4.785860
v 2.770122 2.746691 -4.843666
v 2.643732 2.468608 -4.776501
v 2.629799 2.170463 -4.745589
v 2.953586 2.894000 -4.911470
v 2.642185 2.022407 -4.743829
v 2.633320 2.314771 -4.750497
v 2.686916 2.605684 -4.804435
v 2.878870 2.865151 -4.877435
v 3.035763 2.906422 -4.940240
v 3.118522 2.837617 -4.966552
v 2.913595 2.894000 -5.037081
v 3.013779 2.902215 -4.792072
v 2.600376 2.173547 -4.837642
v 2.659198 2.167414 -4.654539
v 2.583515 2.470434 -4.966835
v 2.703894 2.466830 -4.588773
v 2.710232 2.746756 -5.032200
v 2.839142 2.757946 -4.661653
v 3.083875 2.842877 -4.969334
v 3.125127 2.838570 -4.943442
v 3.079247 2.974230 -5.042512
v 3.203766 2.961230 -4.964447
v 3.124479 2.980368 -5.238591
v 3.322260 2.983140 -5.082459
v 3.199304 2.747947 -5.500704
v 3.515267 2.715116 -5.301722
v 3.276468 2.365083 -5.609011
v 3.536179 2.366916 -5.432351
v 3.434386 2.020323 -5.582539
v 3.479666 2.015143 -5.553362
v 3.165098 1.247449 -4.957480
v 3.055797 1.228672 -4.827946
v 3.170131 1.228502 -4.831937
v 3.042800 1.246871 -4.949316
v 3.189506 1.237620 -4.892999
v 3.028946 1.237351 -4.884733
v 3.108940 1.225356 -4.808426
v 3.103499 1.249716 -4.970512
v 3.154916 1.245713 -4.945382
v 3.065121 1.230261 -4.838970
v 3.174971 1.237623 -4.892420
v 3.043057 1.237403 -4.885630
v 3.108786 1.227546 -4.822932
v 3.104311 1.247593 -4.956103
v 3.159057 1.230137 -4.842250
v 3.054440 1.245255 -4.938678
v 3.031523 0.890617 -4.867267
v 3.032875 0.912971 -5.004299
v 3.173313 0.913206 -5.009073
v 3.185383 0.889904 -4.868160
v 3.214865 0.901769 -4.940037
v 3.005983 0.902558 -4.939709
v 3.109002 0.886445 -4.845342
v 3.103194 0.917871 -5.036195
v 3.162426 1.593193 -4.925321
v 3.055732 1.580522 -4.807649
v 3.170449 1.578607 -4.799725
v 3.044928 1.593818 -4.923349
v 3.183153 1.586205 -4.865731
v 3.035038 1.587524 -4.867039
v 3.111322 1.576790 -4.779413
v 3.102007 1.596279 -4.948295
v 3.146552 1.591424 -4.907327
v 3.071022 1.582429 -4.824033
v 3.161226 1.586456 -4.865166
v 3.056365 1.587391 -4.866096
v 3.110385 1.579810 -4.804031
v 3.103786 1.593638 -4.923591
v 3.152233 1.581110 -4.818410
v 3.063373 1.591898 -4.905931
v 3.156004 1.913425 -4.922411
v 3.058465 1.906846 -4.823208
v 3.149567 1.906739 -4.829988
v 3.065440 1.914004 -4.917867
v 3.168653 1.909754 -4.873766
v 3.042277 1.910558 -4.870752
v 3.105685 1.905310 -4.806578
v 3.109293 1.915318 -4.941467
v 3.145780 1.912905 -4.912062
v 3.068536 1.907689 -4.833498
v 3.155800 1.909978 -4.873555
v 3.055711 1.910623 -4.871164
v 3.105938 1.906470 -4.820333
v 3.108793 1.914410 -4.927162
v 3.140691 1.907591 -4.838885
v 3.074058 1.913353 -4.908490
v 3.146408 2.185930 -4.939058
v 3.068828 2.183290 -4.859696
v 3.140346 2.183011 -4.864055
v 3.066792 2.186567 -4.937067
v 3.156385 2.184287 -4.900241
v 3.057072 2.185024 -4.898448
v 3.106414 2.182519 -4.846304
v 3.105674 2.186901 -4.951876
v 3.147118 2.182570 -4.857115
v 3.059082 2.186806 -4.944509
v 3.154387 2.186043 -4.946912
v 3.061519 2.182892 -4.851911
v 3.166326 2.184097 -4.900430
v 3.047453 2.184979 -4.898281
v 3.106503 2.181971 -4.835878
v 3.105617 2.187213 -4.962238
v 3.137360 2.409099 -4.960923
v 3.073096 2.408293 -4.896369
v 3.138743 2.407841 -4.893408
v 3.071701 2.409536 -4.959254
v 3.147222 2.408397 -4.926421
v 3.063262 2.408935 -4.926224
v 3.105339 2.407945 -4.885104
v 3.105059 2.409586 -4.972157
v 3.144444 2.407623 -4.887649
v 3.066015 2.409607 -4.964676
v 3.142829 2.409098 -4.966640
v 3.067649 2.408160 -4.891119
v 3.154365 2.408286 -4.926268
v 3.056148 2.408913 -4.926038
v 3.105362 2.407756 -4.877939
v 3.105036 2.409668 -4.979775
v 3.132815 2.600202 -4.976101
v 3.075047 2.600105 -4.920510
v 3.133560 2.599865 -4.916971
v 3.081005 2.600467 -4.978486
v 3.140053 2.600017 -4.948012
v 3.070591 2.600341 -4.952206
v 3.103267 2.599981 -4.911043
v 3.102869 2.600418 -4.982866
v 3.137974 2.599785 -4.912168
v 3.077335 2.600482 -4.983142
v 3.137116 2.600177 -4.980399
v 3.070463 2.600063 -4.916256
v 3.145467 2.599968 -4.947984
v 3.065323 2.600342 -4.952821
v 3.103019 2.599924 -4.905333
v 3.102559 2.600430 -4.988197
v 3.127600 2.774702 -4.985521
v 3.081261 2.774751 -4.939184
v 3.127589 2.774700 -4.939093
v 3.081250 2.774768 -4.985558
v 3.073406 2.774767 -4.962378
v 3.135466 2.774686 -4.962287
v 3.104409 2.774742 -4.993473
v 3.104414 2.774731 -4.931211
v 3.131866 2.774687 -4.934810
v 3.076981 2.774767 -4.989842
v 3.131875 2.774700 -4.989800
v 3.076996 2.774748 -4.934922
v 3.067694 2.774766 -4.962390
v 3.141191 2.774681 -4.962283
v 3.104409 2.774737 -4.999220
v 3.104415 2.774724 -4.925479
v 3.055183 0.894130 -4.889589
v 3.056101 0.909535 -4.983794
v 3.152536 0.909707 -4.986967
v 3.160828 0.893684 -4.890197
v 3.181074 0.901824 -4.939555
v 3.037636 0.902380 -4.939446
v 3.108381 0.891299 -4.874540
v 3.104387 0.912904 -5.005692
v 3.241341 2.602400 -5.545668
v 3.539891 2.546681 -5.376494
v 3.104501 2.840724 -4.956391
v 3.141506 2.967730 -5.003479
v 3.224028 2.985637 -5.156532
v 3.357282 2.731550 -5.401227
v 3.405230 2.380945 -5.516203
v 3.457023 2.017758 -5.567915
v 3.395441 2.561784 -5.468314
v 3.251041 2.576423 -5.561120
v 3.518230 2.698694 -5.310802
v 3.533138 2.427076 -5.410754
v 3.263230 2.459237 -5.589054
v 3.400382 2.471005 -5.492637
v 3.262756 2.484898 -5.581844
v 3.274373 2.394165 -5.601571
v 3.538079 2.456458 -5.404746
v 3.361722 2.166081 -5.592654
v 3.508117 2.189903 -5.491309
v 3.431285 2.198449 -5.540687
v 3.355522 2.192213 -5.594543
v 3.316025 2.278451 -5.601706
v 3.518157 2.252988 -5.465723
v 3.418301 2.289420 -5.528324
v 3.522199 2.278086 -5.461641
v 3.186760 2.843757 -5.417726
v 3.155192 2.907598 -5.335033
v 3.397223 2.897711 -5.165114
v 3.467905 2.814405 -5.241466
v 3.274063 2.910569 -5.242328
v 3.327333 2.829081 -5.329596
v 3.151352 2.922354 -5.320573
v 3.451607 2.833045 -5.224489
v 3.118279 2.996677 -5.222830
v 3.329776 2.974597 -5.090235
v 2.683559 2.311644 -4.594541
v 2.582841 2.499625 -4.972730
v 2.616744 2.606422 -5.026188
v 2.829159 2.865151 -5.033578
v 2.931077 2.902701 -5.040524
v 2.596409 2.194964 -4.847732
v 3.152491 2.839564 -4.992456
v 3.106249 2.839564 -4.976884
v 3.251653 2.908368 -4.934233
v 3.062530 2.908368 -4.870535
v 3.377794 2.867097 -4.798862
v 3.069694 2.877950 -4.704683
v 3.491984 2.608055 -4.612687
v 3.074008 2.625542 -4.481426
v 3.475300 2.334927 -4.520110
v 3.167554 2.307913 -4.412456
v 3.326348 2.006513 -4.449894
v 3.275814 2.005661 -4.432543
v 3.444258 2.748496 -4.699945
v 3.312153 2.895947 -4.862774
v 3.257250 2.748393 -4.636563
v 3.311180 2.466371 -4.491108
v 3.313639 2.159508 -4.444337
v 3.187225 2.895947 -4.820698
v 3.301085 2.006068 -4.441175
v 3.322976 2.308706 -4.464184
v 3.292166 2.606006 -4.545988
v 3.222500 2.867097 -4.746559
v 3.157092 2.908368 -4.902384
v 3.129370 2.839564 -4.984670
v 3.062298 2.895947 -4.778621
v 3.305606 2.904160 -4.882870
v 3.223338 2.158620 -4.413957
v 3.403864 2.160779 -4.475732
v 3.124057 2.466066 -4.429177
v 3.498134 2.467469 -4.555878
v 3.070206 2.748425 -4.573997
v 3.438339 2.759839 -4.709315
v 3.127195 2.844823 -4.949998
v 3.152367 2.840517 -4.991662
v 3.054110 2.976176 -4.944159
v 3.130092 2.963176 -5.069961
v 2.857305 2.982314 -4.986122
v 3.010124 2.985086 -5.186474
v 2.593977 2.749891 -5.056571
v 2.786780 2.716950 -5.375572
v 2.466215 2.361391 -5.113695
v 2.635046 2.367167 -5.375957
v 2.461853 2.009240 -5.245439
v 2.489183 2.006241 -5.290838
v 2.544742 2.603457 -5.094384
v 2.704247 2.548114 -5.393171
v 3.139781 2.842670 -4.970830
v 3.092101 2.969676 -5.007060
v 2.937696 2.987583 -5.087022
v 2.690379 2.733419 -5.216017
v 2.555420 2.379254 -5.244093
v 2.475518 2.007745 -5.268101
v 2.616192 2.562677 -5.247461
v 2.528123 2.577195 -5.102845
v 2.777235 2.700497 -5.378149
v 2.661274 2.427861 -5.377646
v 2.493092 2.457909 -5.107582
v 2.585819 2.470817 -5.246272
v 2.501954 2.484124 -5.108921
v 2.475773 2.391279 -5.113859
v 2.669665 2.457453 -5.385053
v 2.463709 2.157398 -5.182474
v 2.562114 2.186842 -5.332301
v 2.515562 2.192997 -5.255053
v 2.464209 2.184263 -5.178484
v 2.465252 2.272562 -5.146044
v 2.592301 2.251461 -5.347682
v 2.535514 2.285975 -5.249543
v 2.598584 2.276987 -5.354084
v 2.677159 2.845703 -5.045412
v 2.760366 2.909544 -5.015225
v 2.926232 2.899657 -5.260051
v 2.848714 2.816351 -5.329453
v 2.851079 2.912516 -5.135623
v 2.762936 2.831027 -5.187432
v 2.774887 2.924300 -5.011627
v 2.865961 2.834991 -5.313439
v 2.873168 2.998624 -4.980185
v 3.002224 2.976543 -5.193859
v 3.478228 2.310328 -4.518474
v 3.120625 2.496260 -4.431447
v 3.073377 2.605997 -4.473501
v 3.067206 2.867097 -4.694255
v 3.058564 2.904647 -4.796044
v 3.215599 2.180668 -4.412322
v 3.081834 2.851525 -4.981633
v 3.102010 2.851525 -4.937205
v 3.129744 2.939634 -5.086182
v 3.212259 2.939634 -4.904479
v 3.251650 2.886784 -5.225378
v 3.376534 2.900682 -4.928394
v 3.406855 2.557404 -5.364957
v 3.591446 2.579626 -4.943802
v 3.485801 2.227703 -5.303767
v 3.621747 2.188769 -5.001069
v 3.536812 1.832921 -5.121619
v 3.559457 1.829299 -5.072618
v 3.341939 2.735329 -5.300300
v 3.194711 2.923728 -5.153605
v 3.423561 2.735299 -5.119803
v 3.543585 2.384750 -5.158955
v 3.558331 2.015004 -5.124127
v 3.249218 2.923728 -5.033578
v 3.548133 1.831125 -5.097074
v 3.553113 2.193995 -5.150852
v 3.502480 2.556561 -5.151985
v 3.319405 2.886784 -5.076177
v 3.171002 2.939634 -4.995330
v 3.091922 2.851525 -4.959419
v 3.303724 2.923728 -4.913551
v 3.175382 2.934246 -5.145057
v 3.598483 2.010318 -5.036908
v 3.518210 2.019352 -5.212435
v 3.625717 2.381513 -4.979016
v 3.461518 2.387146 -5.342053
v 3.505189 2.735128 -4.940062
v 3.333535 2.749730 -5.293842
v 3.126651 2.858261 -4.960767
v 3.082642 2.852746 -4.981590
v 3.139865 3.026466 -4.888649
v 3.007019 3.009819 -4.951506
v 3.118041 3.034326 -4.688607
v 2.903247 3.037876 -4.820360
v 3.074648 2.736503 -4.418793
v 2.737575 2.694173 -4.577508
v 3.015267 2.219758 -4.248163
v 2.736504 2.227527 -4.390328
v 2.861439 1.727659 -4.199009
v 2.813030 1.722954 -4.221464
v 3.039157 2.545486 -4.356190
v 2.723406 2.472668 -4.480124
v 3.104646 2.855504 -4.971179
v 3.073442 3.018142 -4.920078
v 3.009521 3.041074 -4.758371
v 2.906129 2.715256 -4.497863
v 2.876329 2.243534 -4.324677
v 2.837240 1.725275 -4.210196
v 2.877566 2.491414 -4.407430
v 3.031603 2.510785 -4.336473
v 2.735782 2.672882 -4.566983
v 2.735981 2.310500 -4.423755
v 3.024449 2.351060 -4.287325
v 2.876842 2.368158 -4.366287
v 3.023669 2.386404 -4.299181
v 3.015960 2.260582 -4.261236
v 2.729853 2.350761 -4.435458
v 2.932517 1.936385 -4.215715
v 2.774618 1.976852 -4.301072
v 2.856712 1.985487 -4.262703
v 2.938393 1.973986 -4.219211
v 2.976808 2.097117 -4.232903
v 2.760489 2.067182 -4.336057
v 2.866471 2.114949 -4.292862
v 2.755495 2.102746 -4.344850
v 3.077291 2.859388 -4.503384
v 3.098900 2.941139 -4.589220
v 2.838541 2.928479 -4.729451
v 2.777343 2.821800 -4.645306
v 2.969938 2.944945 -4.667280
v 2.927317 2.840594 -4.574345
v 3.101010 2.960037 -4.604031
v 2.791528 2.845670 -4.664084
v 3.122341 3.055212 -4.704989
v 2.896700 3.026936 -4.811752
v 3.484555 2.198361 -5.303454
v 3.626664 2.418813 -4.979754
v 3.598150 2.555058 -4.941867
v 3.387160 2.886784 -4.926975
v 3.286769 2.934869 -4.908073
v 3.603258 2.036547 -5.032025
vn -0.9319 -0.0846 -0.3526
vn 0.3961 -0.0111 -0.9181
vn 0.9264 -0.2281 0.2995
vn -0.2713 -0.3184 0.9083
vn -0.0018 -0.9865 -0.1636
vn 0.9465 -0.0344 -0.3208
vn -0.0000 1.0000 -0.0000
vn -0.9468 -0.0252 0.3209
vn 0.3228 -0.0137 0.9464
vn -0.3232 -0.0447 -0.9453
vn -0.3260 0.0305 -0.9449
vn -0.4254 -0.0981 -0.8997
vn -0.5272 -0.1259 -0.8404
vn -0.3648 -0.1307 -0.9219
vn -0.3732 -0.1301 -0.9186
vn -0.1140 -0.0919 -0.9892
vn 0.3693 -0.1553 0.9162
vn 0.3203 -0.1328 0.9380
vn 0.5303 0.0047 0.8478
vn 0.5217 0.0819 0.8492
vn 0.2059 0.0790 0.9754
vn 0.1405 0.0094 0.9900
vn -0.8866 -0.0899 0.4537
vn -0.9464 -0.0536 0.3184
vn -0.9471 -0.0721 0.3126
vn -0.9615 0.0070 0.2748
vn -0.9513 0.0099 0.3082
vn -0.9921 -0.0207 0.1236
vn 0.9322 -0.0301 -0.3608
vn 0.9423 -0.0629 -0.3288
vn 0.9714 -0.0903 -0.2198
vn 0.9748 -0.0559 -0.2158
vn 0.9658 -0.0454 -0.2552
vn 0.9590 -0.0447 -0.2800
vn 0.3274 0.9449 -0.0078
vn -0.2601 0.9395 0.2230
vn 0.0749 0.9240 0.3750
vn -0.1487 0.9708 -0.1885
vn 0.1686 0.9831 0.0707
vn -0.2282 0.9443 0.2370
vn 0.0603 0.9616 0.2678
vn -0.0621 0.9960 -0.0641
vn 0.4213 0.9051 -0.0573
vn -0.4997 0.8286 0.2523
vn 0.0592 0.9693 0.2387
vn -0.1025 0.9821 -0.1583
vn 0.3057 0.9518 -0.0238
vn -0.2050 0.9705 0.1270
vn 0.1550 0.9312 0.3299
vn -0.2302 0.8902 -0.3932
vn 0.0197 0.9995 0.0244
vn -0.0055 0.9994 0.0335
vn 0.0116 0.9992 0.0389
vn 0.0017 0.9999 0.0159
vn 0.0084 0.9999 0.0098
vn 0.0022 0.9999 0.0127
vn 0.0073 0.9999 0.0140
vn 0.0037 1.0000 0.0082
vn 0.0020 1.0000 0.0009
vn 0.0038 1.0000 0.0046
vn -0.0001 1.0000 0.0033
vn 0.0054 1.0000 0.0013
vn 0.0058 1.0000 0.0028
vn -0.0000 1.0000 0.0014
vn 0.0016 0.9999 0.0110
vn 0.0091 0.9999 0.0119
vn -0.0063 0.9996 0.0259
vn 0.0210 0.9993 0.0322
vn -0.5160 0.8301 -0.2113
vn 0.4407 0.8656 0.2379
vn -0.3364 0.9413 0.0288
vn 0.2767 0.9505 0.1415
vn -0.1803 0.9795 0.0903
vn 0.1616 0.9704 0.1795
vn -0.3446 0.9381 0.0363
vn 0.1979 0.9558 0.2174
vn 0.9822 -0.0320 0.1850
vn 0.9759 -0.0009 0.2184
vn 0.8937 0.0497 0.4458
vn 0.8971 -0.0131 0.4416
vn 0.9879 -0.0816 0.1317
vn 0.9525 -0.0927 0.2900
vn -0.9089 -0.0499 -0.4140
vn -0.9748 -0.0493 -0.2176
vn -0.9754 -0.0472 -0.2154
vn -0.8628 -0.0923 -0.4970
vn -0.9911 -0.0750 -0.1103
vn -0.9839 -0.0418 -0.1739
vn -0.9465 -0.0352 -0.3207
vn 0.9467 -0.0238 0.3213
vn -0.0018 -0.9861 -0.1660
vn 0.8515 -0.0606 -0.5209
vn -0.9567 -0.1866 0.2234
vn -0.0059 -0.9861 -0.1658
vn 0.0009 1.0000 0.0042
vn 0.0045 1.0000 -0.0006
vn 0.0080 0.9999 0.0088
vn 0.0027 0.9999 0.0131
vn 0.0140 0.9998 0.0165
vn 0.0016 0.9993 0.0386
vn 0.1069 0.9779 -0.1797
vn -0.0571 0.9712 0.2313
vn 0.1319 0.9647 -0.2281
vn -0.0998 0.9499 0.2963
vn 0.0420 0.9987 -0.0299
vn -0.0456 0.9620 0.2692
vn 0.1530 0.9621 -0.2257
vn -0.0659 0.9173 0.3927
vn -0.3289 0.0218 0.9441
vn -0.3277 0.0860 0.9409
vn -0.3372 0.0636 0.9393
vn -0.3371 -0.0304 0.9410
vn -0.5181 -0.0921 0.8503
vn -0.3721 -0.1528 0.9155
vn 0.1875 -0.0752 -0.9794
vn 0.3235 -0.1369 -0.9363
vn 0.2837 -0.1413 -0.9484
vn 0.3921 -0.1646 -0.9051
vn 0.3707 -0.0819 -0.9252
vn 0.1600 0.0261 -0.9868
vn 0.3236 -0.0446 -0.9451
vn -0.3245 -0.0145 0.9458
vn -0.0060 -0.9865 -0.1634
vn 0.2696 -0.3259 0.9061
vn -0.4410 -0.0180 -0.8973
vn 0.5918 0.7838 -0.1884
vn -0.3179 0.9427 0.1012
vn -0.8004 0.5419 0.2564
vn 0.5917 0.7838 -0.1884
vn -0.2702 0.9560 0.1140
vn -0.7879 0.5564 0.2640
vn -0.9463 0.1163 0.3016
vn -0.9504 -0.0757 0.3016
vn -0.9465 0.1212 0.2991
vn -0.9496 -0.0758 0.3040
vn -0.1162 0.9932 0.0110
vn -0.9510 0.0332 0.3074
vn -0.8955 0.3387 0.2886
vn -0.6868 0.6934 0.2181
vn -0.0933 0.9938 0.0606
vn -0.9500 0.0415 0.3095
vn -0.8749 0.3777 0.3030
vn -0.6871 0.6929 0.2186
vn -0.4494 0.4228 0.7870
vn -0.0309 0.9920 0.1228
vn 0.4657 0.6115 -0.6396
vn 0.5542 0.2662 -0.7887
vn 0.5455 0.2003 -0.8138
vn 0.2583 0.1097 -0.9598
vn -0.3280 -0.1454 0.9334
vn -0.9678 0.0257 -0.2505
vn 0.9542 -0.0589 0.2933
vn 0.9380 0.0290 -0.3455
vn -0.9237 -0.0446 0.3805
vn 0.3521 -0.1467 0.9244
vn -0.3370 0.1164 -0.9343
vn 0.0056 0.9893 0.1460
vn 0.0069 0.9888 0.1489
vn 0.0044 0.9891 0.1470
vn 0.0064 0.9887 0.1496
vn 0.0067 0.9889 0.1483
vn 0.0062 0.9889 0.1483
vn 0.0065 0.9887 0.1495
vn 0.0044 0.9894 0.1455
vn -0.3783 -0.0280 -0.9253
vn 0.2969 -0.3555 0.8863
vn -0.9001 -0.2379 0.3651
vn 0.8480 -0.0778 -0.5243
vn -0.2764 -0.3483 0.8957
vn 0.8907 -0.2685 0.3668
vn 0.3252 -0.0230 -0.9454
vn -0.8964 -0.0892 -0.4342
vn 0.3345 -0.0345 -0.9418
vn -0.3945 -0.1387 0.9084
vn -0.9686 -0.0614 -0.2410
vn 0.9692 -0.0967 0.2264
vn 0.9402 -0.0440 -0.3377
vn -0.9433 -0.0637 0.3257
vn 0.3294 -0.1791 0.9270
vn -0.3688 -0.0492 -0.9282
vn 0.0107 0.9943 0.1062
vn 0.0049 0.9926 0.1210
vn -0.0002 0.9938 0.1116
vn 0.0153 0.9930 0.1169
vn 0.0149 0.9936 0.1116
vn 0.0011 0.9932 0.1167
vn 0.0111 0.9925 0.1217
vn 0.0035 0.9944 0.1060
vn 0.3448 -0.1230 -0.9306
vn -0.3288 -0.0525 0.9429
vn -0.9205 -0.0608 -0.3860
vn 0.9344 -0.0217 0.3555
vn 0.9529 -0.0763 -0.2935
vn -0.9446 -0.0716 0.3203
vn 0.4075 -0.0164 0.9131
vn -0.4052 -0.0925 -0.9095
vn 0.0144 0.9978 0.0641
vn 0.0028 0.9964 0.0842
vn -0.0026 0.9974 0.0717
vn 0.0186 0.9969 0.0768
vn 0.0194 0.9973 0.0705
vn -0.0027 0.9969 0.0787
vn 0.0124 0.9964 0.0838
vn 0.0044 0.9979 0.0642
vn 0.0146 0.9995 0.0297
vn 0.0017 0.9986 0.0526
vn -0.0049 0.9992 0.0385
vn 0.0199 0.9988 0.0441
vn 0.0208 0.9991 0.0367
vn -0.0044 0.9989 0.0462
vn 0.0126 0.9986 0.0519
vn 0.0027 0.9996 0.0298
vn -0.3344 -0.1946 -0.9221
vn 0.4018 -0.0005 0.9157
vn -0.9508 -0.0689 0.3022
vn 0.9480 -0.1384 -0.2866
vn 0.9310 -0.0370 0.3631
vn -0.9528 -0.1246 -0.2770
vn -0.3326 -0.0276 0.9427
vn 0.2996 -0.2048 -0.9318
vn 0.0114 0.9999 0.0107
vn 0.0014 0.9996 0.0266
vn -0.0032 0.9998 0.0172
vn 0.0159 0.9997 0.0211
vn 0.0158 0.9998 0.0157
vn -0.0027 0.9997 0.0224
vn 0.0100 0.9996 0.0271
vn 0.0026 0.9999 0.0106
vn -0.3368 -0.2013 -0.9198
vn 0.2768 0.0162 0.9608
vn -0.9474 -0.0523 0.3158
vn 0.9481 -0.1159 -0.2962
vn 0.9589 -0.0595 0.2775
vn -0.9528 -0.1220 -0.2782
vn -0.3294 0.0278 0.9438
vn 0.3181 -0.2073 -0.9251
vn 0.0069 1.0000 0.0015
vn 0.0009 0.9999 0.0103
vn -0.0008 1.0000 0.0044
vn 0.0097 0.9999 0.0070
vn 0.0094 0.9999 0.0041
vn -0.0013 1.0000 0.0077
vn 0.0060 0.9999 0.0107
vn 0.0025 1.0000 0.0018
vn -0.2573 -0.1673 -0.9517
vn 0.2473 -0.0317 0.9684
vn -0.9853 -0.0714 0.1552
vn 0.9707 -0.1008 -0.2182
vn 0.9707 -0.0826 0.2255
vn -0.9423 -0.1026 -0.3187
vn -0.3069 -0.0164 0.9516
vn 0.2481 -0.1495 -0.9571
vn 0.0004 1.0000 0.0013
vn 0.0015 1.0000 -0.0001
vn 0.0017 1.0000 0.0002
vn -0.0002 1.0000 -0.0000
vn 0.0008 1.0000 -0.0010
vn 0.0018 1.0000 0.0013
vn -0.0002 1.0000 0.0007
vn 0.0009 1.0000 0.0004
vn 0.9416 -0.1085 -0.3189
vn -0.9445 -0.0760 0.3196
vn 0.3213 -0.0405 0.9461
vn -0.3200 -0.1426 -0.9366
vn -0.9416 -0.1101 -0.3184
vn 0.9444 -0.0738 0.3203
vn 0.3215 -0.1423 -0.9362
vn -0.3261 -0.0415 0.9444
vn 0.0041 0.9870 0.1607
vn 0.0043 0.9864 0.1641
vn 0.0048 0.9869 0.1613
vn 0.0044 0.9869 0.1611
vn 0.0067 0.9866 0.1632
vn 0.0041 0.9864 0.1644
vn 0.0035 0.9871 0.1602
vn 0.0041 0.9870 0.1609
vn 0.5144 0.4071 -0.7548
vn 0.5060 0.4002 -0.7640
vn 0.5294 0.2028 -0.8238
vn 0.5454 0.2428 -0.8022
vn 0.4651 0.6130 -0.6387
vn 0.0230 0.9915 0.1284
vn -0.4494 0.4227 0.7870
vn 0.5429 0.2479 -0.8024
vn 0.5391 0.2435 -0.8063
vn 0.5588 0.1892 -0.8075
vn 0.5608 0.2081 -0.8013
vn 0.5444 0.1851 -0.8181
vn 0.5592 0.1870 -0.8076
vn 0.3633 0.8038 -0.4710
vn 0.3751 0.7887 -0.4871
vn 0.3799 0.7946 -0.4737
vn 0.3896 0.7793 -0.4907
vn -0.1982 0.7838 -0.5886
vn 0.1065 0.9427 0.3162
vn 0.2597 0.5673 0.7815
vn 0.1185 0.9560 0.2683
vn 0.2703 0.5734 0.7734
vn 0.3091 0.1831 0.9332
vn 0.3199 -0.0060 0.9474
vn 0.3156 0.1889 0.9299
vn 0.3282 -0.0070 0.9446
vn 0.0129 0.9932 0.1160
vn 0.3266 0.1053 0.9393
vn 0.2954 0.3765 0.8781
vn 0.2290 0.6968 0.6797
vn 0.0621 0.9938 0.0923
vn 0.3199 0.1128 0.9407
vn 0.3068 0.4146 0.8567
vn 0.2284 0.6963 0.6804
vn 0.7944 0.4227 0.4362
vn 0.1233 0.9920 0.0289
vn -0.6464 0.6134 -0.4538
vn -0.7991 0.2837 -0.5301
vn -0.8290 0.2159 -0.5158
vn -0.7607 0.4179 -0.4967
vn -0.7715 0.4070 -0.4889
vn -0.8387 0.2191 -0.4985
vn -0.8136 0.2589 -0.5206
vn -0.6462 0.6136 -0.4539
vn 0.1280 0.9915 -0.0251
vn 0.7944 0.4226 0.4362
vn -0.8122 0.2621 -0.5211
vn -0.8140 0.2633 -0.5177
vn -0.8225 0.2062 -0.5301
vn -0.8154 0.2260 -0.5329
vn -0.8290 0.2083 -0.5190
vn -0.8213 0.2047 -0.5326
vn -0.4770 0.8038 -0.3554
vn -0.4933 0.7887 -0.3670
vn -0.4799 0.7946 -0.3720
vn -0.4972 0.7793 -0.3814
vn -0.6484 0.7020 0.2945
vn 0.3758 0.9108 -0.1707
vn 0.8226 0.4321 -0.3696
vn 0.3178 0.9308 -0.1808
vn 0.8112 0.4420 -0.3828
vn 0.9093 0.0283 -0.4151
vn 0.9000 -0.1114 -0.4214
vn 0.9146 0.0349 -0.4028
vn 0.9018 -0.1123 -0.4172
vn 0.1455 0.9889 -0.0313
vn 0.9104 -0.0367 -0.4120
vn 0.8886 0.2303 -0.3968
vn 0.7300 0.5987 -0.3296
vn 0.1091 0.9899 -0.0907
vn 0.9056 -0.0309 -0.4231
vn 0.8697 0.2578 -0.4209
vn 0.7304 0.5973 -0.3314
vn 0.3665 0.3422 -0.8652
vn 0.0207 0.9869 -0.1600
vn -0.4168 0.5241 0.7427
vn -0.4484 0.3038 0.8406
vn -0.4313 0.2096 0.8775
vn -0.4295 0.3833 0.8177
vn -0.4130 0.3706 0.8319
vn -0.4160 0.2109 0.8846
vn -0.4253 0.2878 0.8580
vn -0.4162 0.5227 0.7440
vn -0.0484 0.9861 -0.1590
vn -0.4289 0.2864 0.8567
vn -0.4362 0.2882 0.8525
vn -0.4332 0.2337 0.8704
vn -0.4468 0.2460 0.8601
vn -0.4341 0.2485 0.8659
vn -0.4336 0.2458 0.8669
vn -0.3530 0.7258 0.5904
vn -0.3621 0.7077 0.6066
vn -0.3703 0.7147 0.5933
vn -0.3768 0.6967 0.6104
vt 0.892029 0.320442
vt 0.897564 0.235320
vt 0.923539 0.235009
vt 0.910277 0.320026
vt 0.844396 0.456933
vt 0.827890 0.373268
vt 0.858747 0.374506
vt 0.865304 0.458011
vt 0.799561 0.707662
vt 0.883033 0.693947
vt 0.878273 0.717752
vt 0.796315 0.725687
vt 0.796618 0.753132
vt 0.878967 0.757714
vt 0.883033 0.791276
vt 0.799374 0.775663
vt 0.828828 0.923744
vt 0.847690 0.890308
vt 0.861614 0.913368
vt 0.856240 0.939208
vt 0.990236 0.586942
vt 0.978198 0.587140
vt 0.978198 0.545242
vt 0.991247 0.545019
vt 0.972590 0.066405
vt 0.988603 0.071846
vt 0.980492 0.082408
vt 0.967148 0.082428
vt 0.976731 0.994440
vt 0.964448 0.994500
vt 0.964299 0.951559
vt 0.977634 0.951503
vt 0.809330 0.999656
vt 0.797052 0.999643
vt 0.796315 0.956690
vt 0.809661 0.956722
vt 0.834230 0.999627
vt 0.821967 1.000000
vt 0.820130 0.957109
vt 0.833463 0.956690
vt 0.669681 0.930101
vt 0.643222 0.931779
vt 0.634086 0.842027
vt 0.665372 0.840282
vt 0.079330 0.948590
vt 0.057212 0.948550
vt 0.055988 0.863243
vt 0.084222 0.863243
vt 0.973097 0.865446
vt 0.953474 0.864879
vt 0.959881 0.791275
vt 0.983981 0.791796
vt 0.902544 0.230116
vt 0.881696 0.231092
vt 0.880232 0.170769
vt 0.903137 0.169717
vt 0.973946 0.239687
vt 0.956019 0.240389
vt 0.954671 0.189346
vt 0.974569 0.188541
vt 0.560719 0.816250
vt 0.549690 0.816540
vt 0.550234 0.771809
vt 0.559019 0.771724
vt 0.926617 0.458011
vt 0.899614 0.456678
vt 0.899614 0.366728
vt 0.932068 0.368177
vt 0.980281 0.168987
vt 0.958077 0.168796
vt 0.953148 0.084759
vt 0.981563 0.084759
vt 0.734030 0.962333
vt 0.714486 0.962118
vt 0.710654 0.888440
vt 0.734545 0.888751
vt 0.874931 0.598525
vt 0.855918 0.598140
vt 0.854899 0.537704
vt 0.874174 0.538127
vt 0.973923 0.346101
vt 0.956736 0.345976
vt 0.954671 0.294990
vt 0.973077 0.295077
vt 0.072612 0.993186
vt 0.057294 0.993159
vt 0.055988 0.948590
vt 0.073293 0.948614
vt 0.601317 0.931088
vt 0.575318 0.931316
vt 0.574039 0.840282
vt 0.604062 0.840513
vt 0.864352 0.169197
vt 0.841875 0.169651
vt 0.845456 0.084837
vt 0.874215 0.084798
vt 0.166557 0.937030
vt 0.146635 0.938930
vt 0.146635 0.865283
vt 0.171189 0.863352
vt 0.970145 0.428871
vt 0.949980 0.431319
vt 0.949980 0.370846
vt 0.971425 0.368504
vt 0.970322 0.293077
vt 0.954671 0.294990
vt 0.954671 0.243806
vt 0.970010 0.242054
vt 0.134229 0.987041
vt 0.118504 0.987846
vt 0.118504 0.943251
vt 0.136710 0.942402
vt 0.203032 0.829988
vt 0.174943 0.828349
vt 0.173659 0.739566
vt 0.208961 0.741108
vt 0.877251 0.084759
vt 0.855259 0.084684
vt 0.846898 0.002894
vt 0.875017 0.002386
vt 0.570530 0.990315
vt 0.551389 0.989291
vt 0.547358 0.918859
vt 0.570530 0.919355
vt 0.414260 0.991696
vt 0.395035 0.990136
vt 0.394349 0.932139
vt 0.414260 0.933206
vt 0.975179 0.050381
vt 0.957806 0.049331
vt 0.956578 -0.000000
vt 0.975548 0.000840
vt 0.013973 0.991210
vt -0.000000 0.990898
vt 0.000000 0.947525
vt 0.015329 0.947997
vt 0.827780 0.693947
vt 0.800870 0.663371
vt 0.804744 0.662285
vt 0.829379 0.681502
vt 0.856297 0.599968
vt 0.889943 0.619050
vt 0.879626 0.625920
vt 0.855026 0.606725
vt 0.888347 0.660238
vt 0.866401 0.693759
vt 0.860481 0.681761
vt 0.879591 0.657169
vt 0.796315 0.627016
vt 0.823924 0.599968
vt 0.823905 0.606452
vt 0.804813 0.631036
vt 0.229912 0.880964
vt 0.229912 0.845083
vt 0.236486 0.852643
vt 0.237055 0.878322
vt 0.304116 0.859219
vt 0.299487 0.889318
vt 0.298108 0.881459
vt 0.297548 0.855831
vt 0.282037 0.906217
vt 0.249537 0.905590
vt 0.252943 0.898264
vt 0.278347 0.897667
vt 0.256700 0.830954
vt 0.288030 0.829764
vt 0.281667 0.835863
vt 0.256279 0.836467
vt 0.087256 0.912197
vt 0.087256 0.883364
vt 0.092586 0.886924
vt 0.092313 0.908198
vt 0.146635 0.890379
vt 0.146619 0.919117
vt 0.142554 0.912577
vt 0.142833 0.891351
vt 0.129316 0.941986
vt 0.100897 0.942038
vt 0.104839 0.925166
vt 0.125798 0.925410
vt 0.109755 0.863353
vt 0.137828 0.867550
vt 0.130319 0.874359
vt 0.109372 0.874111
vt 0.462089 0.929502
vt 0.477694 0.910327
vt 0.481856 0.917923
vt 0.467796 0.930818
vt 0.515283 0.961234
vt 0.497336 0.978107
vt 0.495812 0.966319
vt 0.509843 0.953457
vt 0.473090 0.974459
vt 0.462089 0.952212
vt 0.464417 0.949426
vt 0.477141 0.963258
vt 0.502566 0.911811
vt 0.513490 0.934177
vt 0.513249 0.934847
vt 0.500542 0.921011
vt 0.890473 0.562314
vt 0.900027 0.543330
vt 0.905993 0.550335
vt 0.896697 0.563573
vt 0.939766 0.578672
vt 0.928525 0.597147
vt 0.926448 0.587944
vt 0.935727 0.574736
vt 0.907461 0.598525
vt 0.895039 0.582783
vt 0.897308 0.579619
vt 0.910401 0.588784
vt 0.923895 0.543330
vt 0.941816 0.557641
vt 0.935139 0.558687
vt 0.922061 0.549510
vt 0.859028 0.341097
vt 0.867276 0.323061
vt 0.869987 0.327982
vt 0.865115 0.340525
vt 0.901874 0.349747
vt 0.894500 0.363304
vt 0.891795 0.358432
vt 0.896660 0.345922
vt 0.876484 0.365945
vt 0.859048 0.359303
vt 0.866032 0.353373
vt 0.877648 0.359959
vt 0.885325 0.320442
vt 0.901874 0.331538
vt 0.895759 0.333071
vt 0.884154 0.326471
vt 0.901873 0.334474
vt 0.903492 0.325271
vt 0.908244 0.326527
vt 0.902994 0.336436
vt 0.939272 0.340819
vt 0.934782 0.358077
vt 0.925939 0.350892
vt 0.931177 0.340974
vt 0.918363 0.320442
vt 0.936363 0.325422
vt 0.929237 0.329910
vt 0.919303 0.324664
vt 0.915850 0.358278
vt 0.901873 0.351129
vt 0.904925 0.347514
vt 0.914874 0.352768
vt 0.025785 0.990110
vt 0.029862 0.946765
vt 0.987353 0.049488
vt 0.989275 -0.000000
vt 0.842292 0.597315
vt 0.839244 0.537117
vt 0.701525 0.961070
vt 0.693785 0.887684
vt 0.895018 0.083197
vt 0.901078 0.000000
vt 0.220536 0.829117
vt 0.229670 0.739566
vt 0.144939 0.986608
vt 0.147506 0.942038
vt 0.984473 0.291463
vt 0.985681 0.240389
vt 0.986720 0.426940
vt 0.989637 0.366639
vt 0.938069 0.866440
vt 0.938069 0.792502
vt 0.882172 0.168685
vt 0.896948 0.084759
vt 0.624838 0.930406
vt 0.634086 0.840282
vt 0.986407 0.994500
vt 0.988140 0.951568
vt 0.978032 0.050382
vt 0.988603 0.058528
vt 0.998243 0.585378
vt 0.999940 0.543330
vt 0.801412 0.908276
vt 0.820751 0.890310
vt 0.899614 0.373268
vt 0.893325 0.457251
vt 0.865196 0.320227
vt 0.859028 0.235009
vt 0.796315 0.933645
vt 0.810242 0.956690
vt 0.964688 0.050402
vt 0.956578 0.060963
vt 0.084379 0.993138
vt 0.085420 0.948590
vt 0.987293 0.346000
vt 0.987293 0.295030
vt 0.890473 0.598151
vt 0.890473 0.537822
vt 0.749505 0.961345
vt 0.753486 0.887684
vt 0.825812 0.169717
vt 0.822357 0.084759
vt 0.944591 0.456566
vt 0.949980 0.366639
vt 0.573572 0.816540
vt 0.573465 0.771893
vt 0.987117 0.240389
vt 0.988576 0.189216
vt 0.919400 0.231092
vt 0.922221 0.170651
vt 0.535485 0.985793
vt 0.526876 0.914789
vt 0.837047 0.082210
vt 0.822357 0.000000
vt 0.691529 0.931779
vt 0.692236 0.841611
vt 0.843700 1.000000
vt 0.843746 0.957072
vt 0.818949 0.999617
vt 0.820130 0.956690
vt 0.956578 0.074281
vt 0.837167 0.956690
vt 0.536802 0.914501
vt 0.532070 0.828313
vt 0.570530 0.828313
vt 0.563407 0.914789
vt 0.465993 0.787795
vt 0.464041 0.775728
vt 0.506266 0.766989
vt 0.514243 0.816329
vt 0.172956 0.682450
vt 0.172956 0.616420
vt 0.214043 0.622052
vt 0.214043 0.704132
vt 0.251306 0.058677
vt 0.350237 0.058639
vt 0.345472 0.128742
vt 0.229912 0.129113
vt 0.462089 0.763660
vt 0.498290 0.717650
vt 0.172956 0.550390
vt 0.209410 0.542534
vt 0.449423 0.058608
vt 0.461079 0.118828
vt 0.339425 0.197156
vt 0.439517 0.196243
vt 0.412209 0.272573
vt 0.328867 0.274194
vt 0.327155 0.346541
vt 0.375612 0.344993
vt 0.337849 0.420239
vt 0.324298 0.420877
vt 0.240576 0.198051
vt 0.249388 0.263518
vt 0.279176 0.348072
vt 0.310789 0.421514
vt 0.549690 0.761534
vt 0.549690 0.828313
vt 0.246705 0.275766
vt 0.266027 -0.000000
vt 0.348190 -0.000000
vt 0.252625 0.053066
vt 0.530453 0.698554
vt 0.381042 0.334246
vt 0.462089 0.128374
vt 0.442414 0.181609
vt 0.430354 -0.000000
vt 0.831952 0.234293
vt 0.822357 0.234993
vt 0.822357 0.173947
vt 0.851294 0.171832
vt 0.859028 0.303974
vt 0.859028 0.340919
vt 0.776816 0.359268
vt 0.771702 0.297761
vt 0.097507 0.542534
vt 0.172956 0.542534
vt 0.169940 0.599745
vt 0.084962 0.599833
vt 0.646967 0.373268
vt 0.721781 0.377956
vt 0.723598 0.409984
vt 0.653210 0.419608
vt 0.679370 0.509147
vt 0.720789 0.503614
vt 0.716304 0.596761
vt 0.704082 0.598347
vt 0.941746 0.777958
vt 0.917433 0.773885
vt 0.915297 0.693947
vt 0.941746 0.697413
vt 0.055988 0.944434
vt 0.031147 0.946765
vt 0.034152 0.865446
vt 0.055988 0.863243
vt 0.935331 0.872909
vt 0.910201 0.873564
vt 0.909426 0.791572
vt 0.938070 0.791276
vt 0.952256 0.081530
vt 0.931774 0.082883
vt 0.935320 0.001732
vt 0.956578 0.000000
vt 0.901078 0.081828
vt 0.901078 0.000832
vt 0.878851 0.873625
vt 0.877785 0.791276
vt -0.000000 0.945814
vt 0.001258 0.864487
vt 0.886299 0.774365
vt 0.883033 0.694246
vt 0.827890 0.475770
vt 0.854491 0.458722
vt 0.856670 0.465675
vt 0.834819 0.479689
vt 0.902216 0.517677
vt 0.880738 0.536301
vt 0.878233 0.529417
vt 0.895880 0.514115
vt 0.886752 0.458011
vt 0.904730 0.486087
vt 0.897947 0.488158
vt 0.883177 0.465096
vt 0.847836 0.536006
vt 0.827890 0.510566
vt 0.834816 0.508270
vt 0.851202 0.529173
vt 0.775733 0.855700
vt 0.694187 0.863154
vt 0.693785 0.824408
vt 0.775993 0.829839
vt 0.796315 0.826154
vt 0.873118 0.817535
vt 0.873665 0.857507
vt 0.796478 0.852544
vt 0.761631 0.967904
vt 0.753486 0.887684
vt 0.792479 0.887684
vt 0.788003 0.967999
vt 0.425086 0.926075
vt 0.420994 0.847173
vt 0.461807 0.847173
vt 0.452019 0.926141
vt 0.877785 0.890308
vt 0.799103 0.873361
vt 0.799202 0.806194
vt 0.877785 0.791276
vt 0.699912 0.796692
vt 0.779873 0.808952
vt 0.779873 0.876157
vt 0.700168 0.887684
vt 0.228398 0.915840
vt 0.208470 0.913969
vt 0.204797 0.829988
vt 0.229125 0.832480
vt 0.950401 0.541255
vt 0.930177 0.542173
vt 0.936062 0.459583
vt 0.957676 0.458011
vt 0.936119 0.683078
vt 0.915635 0.684107
vt 0.921681 0.600560
vt 0.946873 0.599968
vt 0.940530 0.166755
vt 0.923739 0.167708
vt 0.928003 0.086005
vt 0.953148 0.084759
vt 0.898599 0.166215
vt 0.896948 0.084759
vt 0.889943 0.684955
vt 0.889943 0.601078
vt 0.904804 0.540681
vt 0.904730 0.458011
vt 0.183147 0.915840
vt 0.173659 0.832512
vt 0.462089 0.849185
vt 0.486936 0.828313
vt 0.490164 0.840366
vt 0.472577 0.855142
vt 0.532053 0.887696
vt 0.510362 0.910282
vt 0.506747 0.898398
vt 0.522104 0.882401
vt 0.518101 0.830815
vt 0.532070 0.856007
vt 0.522117 0.859958
vt 0.512229 0.842136
vt 0.478992 0.910327
vt 0.462089 0.880973
vt 0.472573 0.877635
vt 0.484543 0.898428
vt 0.981090 0.770667
vt 0.964748 0.769360
vt 0.966456 0.693947
vt 0.985033 0.695615
vt 0.934740 0.948512
vt 0.918200 0.949777
vt 0.918838 0.874986
vt 0.938366 0.873625
vt 0.976314 0.948184
vt 0.959535 0.949722
vt 0.963570 0.874970
vt 0.982051 0.873625
vt 0.897239 0.949832
vt 0.884431 0.948235
vt 0.877785 0.873625
vt 0.894162 0.874853
vt 0.573894 0.771724
vt 0.553120 0.770476
vt 0.549690 0.698554
vt 0.573894 0.699210
vt 0.938366 0.951503
vt 0.938366 0.876654
vt 0.943849 0.770667
vt 0.941746 0.695905
vt 0.302651 0.906217
vt 0.327965 0.906763
vt 0.325328 0.913456
vt 0.305281 0.913029
vt 0.327626 0.971460
vt 0.302565 0.969689
vt 0.305210 0.963292
vt 0.325059 0.964698
vt 0.343408 0.926409
vt 0.344612 0.952769
vt 0.338516 0.949890
vt 0.337563 0.929008
vt 0.287073 0.950122
vt 0.287073 0.926121
vt 0.292946 0.928783
vt 0.292943 0.947790
vt 0.794002 0.537118
vt 0.819651 0.537118
vt 0.818062 0.542067
vt 0.796636 0.542075
vt 0.824109 0.596583
vt 0.800166 0.597485
vt 0.801783 0.592503
vt 0.821787 0.591752
vt 0.839244 0.552613
vt 0.837835 0.576497
vt 0.833258 0.574967
vt 0.834433 0.555012
vt 0.783936 0.581201
vt 0.781278 0.557573
vt 0.786007 0.559158
vt 0.788225 0.578895
vt 0.196747 0.978546
vt 0.177997 0.979500
vt 0.173659 0.917111
vt 0.198607 0.915840
vt 0.762577 0.599653
vt 0.743783 0.599691
vt 0.739928 0.537821
vt 0.762688 0.537890
vt 0.965842 0.663205
vt 0.946873 0.664760
vt 0.946873 0.602900
vt 0.971122 0.601230
vt 0.692915 0.991553
vt 0.674298 0.990466
vt 0.669830 0.931779
vt 0.692915 0.932434
vt 0.732229 0.598794
vt 0.723598 0.537118
vt 0.980823 0.662000
vt 0.991057 0.599968
vt 0.777356 0.598957
vt 0.781278 0.537118
vt 0.211326 0.979500
vt 0.218795 0.916932
vt 0.584682 0.932981
vt 0.604685 0.931316
vt 0.603723 0.935010
vt 0.586627 0.936438
vt 0.611783 0.979032
vt 0.591815 0.980725
vt 0.592721 0.977248
vt 0.609792 0.975802
vt 0.621758 0.943517
vt 0.621729 0.963511
vt 0.618296 0.962531
vt 0.618320 0.945439
vt 0.574039 0.971136
vt 0.574039 0.951146
vt 0.577529 0.951961
vt 0.577528 0.969049
vt 0.960984 0.596216
vt 0.945031 0.596884
vt 0.941816 0.544251
vt 0.962783 0.543330
vt 0.654004 0.984133
vt 0.638023 0.983947
vt 0.634086 0.931779
vt 0.654192 0.931906
vt 0.437048 0.980085
vt 0.420994 0.981809
vt 0.420994 0.929426
vt 0.439348 0.927627
vt 0.378454 0.983285
vt 0.362677 0.982106
vt 0.359780 0.932139
vt 0.380115 0.933254
vt 0.389059 0.982279
vt 0.394349 0.932139
vt 0.449703 0.978819
vt 0.455943 0.926141
vt 0.666545 0.983968
vt 0.669830 0.931779
vt 0.973339 0.596884
vt 0.978198 0.544081
vt 0.323559 0.861187
vt 0.341327 0.860914
vt 0.340627 0.863495
vt 0.325230 0.863736
vt 0.349695 0.899493
vt 0.332589 0.901501
vt 0.333054 0.898675
vt 0.347881 0.896935
vt 0.353192 0.865986
vt 0.355974 0.882090
vt 0.353325 0.881850
vt 0.350912 0.867892
vt 0.316129 0.894557
vt 0.316129 0.876223
vt 0.318790 0.876765
vt 0.318790 0.892655
vt 0.920885 0.995369
vt 0.907552 0.995883
vt 0.907552 0.950167
vt 0.920276 0.949832
vt 0.103453 0.987304
vt 0.090100 0.987235
vt 0.087256 0.942038
vt 0.104930 0.942081
vt 0.970931 0.503864
vt 0.957676 0.504541
vt 0.957676 0.459248
vt 0.975821 0.458431
vt 0.890715 0.993899
vt 0.878089 0.993352
vt 0.877785 0.949832
vt 0.893892 0.950682
vt 0.899826 0.993203
vt 0.907552 0.949832
vt 0.981589 0.503407
vt 0.988181 0.458011
vt 0.114893 0.987241
vt 0.118504 0.942038
vt 0.932167 0.995785
vt 0.935110 0.950171
vt 0.207854 0.730215
vt 0.196347 0.739110
vt 0.195426 0.736390
vt 0.205142 0.728880
vt 0.172956 0.713024
vt 0.184488 0.704132
vt 0.185412 0.706858
vt 0.175675 0.714365
vt 0.181806 0.739105
vt 0.172956 0.727576
vt 0.175675 0.726652
vt 0.183148 0.736385
vt 0.199026 0.704162
vt 0.207854 0.715688
vt 0.205142 0.716614
vt 0.197687 0.706882
vt 0.854760 0.999322
vt 0.843746 0.998897
vt 0.843746 0.957518
vt 0.857996 0.958035
vt 0.041109 0.989843
vt 0.029862 0.989952
vt 0.029862 0.946872
vt 0.044407 0.946765
vt 0.952084 0.994573
vt 0.940867 0.994558
vt 0.938366 0.951503
vt 0.952908 0.951536
vt 0.161318 0.985462
vt 0.150115 0.985815
vt 0.147506 0.942508
vt 0.162030 0.942038
vt 0.049965 0.989858
vt 0.055868 0.946808
vt 0.862152 0.998290
vt 0.867564 0.956690
vt 0.169966 0.985815
vt 0.173245 0.942452
vt 0.960870 0.994531
vt 0.964299 0.951503
vt 0.387599 0.750307
vt 0.393024 0.764929
vt 0.373923 0.783475
vt 0.359780 0.777315
vt 0.423928 0.846599
vt 0.418022 0.831074
vt 0.434944 0.809436
vt 0.448579 0.815091
vt 0.452358 0.774847
vt 0.437542 0.781806
vt 0.417264 0.764445
vt 0.422904 0.749602
vt 0.359780 0.815070
vt 0.373969 0.809420
vt 0.391095 0.831468
vt 0.384715 0.847173
vt 0.168506 0.608949
vt 0.161285 0.691604
vt 0.083232 0.691755
vt 0.000000 0.599936
vt 0.006207 0.677411
vt 0.645339 0.534212
vt 0.691842 0.599968
vt 0.574039 0.397278
vt 0.582377 0.429886
vt 0.022058 0.542534
vt 0.859028 0.267029
vt 0.771702 0.235009
vt 0.841544 0.233593
vt 0.880232 0.169717
vt 0.004828 0.692258
vt 0.082953 0.738960
vt 0.007920 0.739566
vt 0.157522 0.738843
vt 0.611773 0.483684
vt 0.666392 0.464484
vt 0.638809 0.522395
vt 0.723598 0.469408
vt 0.722333 0.456915
vt 0.584603 0.444815
vt 0.456482 0.615516
vt 0.456482 0.680085
vt 0.408865 0.673639
vt 0.417364 0.600980
vt 0.410843 0.598152
vt 0.359780 0.668099
vt 0.370075 0.585320
vt 0.448738 0.742357
vt 0.399846 0.746164
vt 0.360866 0.749602
vt 0.316129 0.765540
vt 0.314434 0.777659
vt 0.273248 0.771348
vt 0.280182 0.721784
vt 0.796315 0.634449
vt 0.796315 0.700566
vt 0.754714 0.695849
vt 0.754714 0.613661
vt 0.470078 0.000000
vt 0.569117 0.000035
vt 0.567740 0.071790
vt 0.462089 0.070783
vt 0.312740 0.789777
vt 0.266315 0.820911
vt 0.796315 0.766683
vt 0.759555 0.775108
vt 0.668037 0.000000
vt 0.681708 0.061941
vt 0.567921 0.142030
vt 0.666772 0.142162
vt 0.648999 0.221596
vt 0.566847 0.221216
vt 0.574585 0.296106
vt 0.622370 0.296543
vt 0.594451 0.373268
vt 0.581057 0.373066
vt 0.468676 0.141491
vt 0.485457 0.208062
vt 0.526666 0.295474
vt 0.567651 0.372845
vt 0.229912 0.764085
vt 0.249794 0.699947
vt 0.484347 0.220410
vt 0.693785 0.697770
vt 0.699672 0.599968
vt 0.229912 0.829764
vt 0.626303 0.285479
vt 0.683332 0.071770
vt 0.668015 0.127005
vt 0.754714 0.778037
vt 0.693990 0.796692
vt 0.239379 0.971287
vt 0.229912 0.971925
vt 0.229912 0.910068
vt 0.258492 0.908143
vt 0.000000 0.795295
vt 0.000000 0.758621
vt 0.082081 0.739566
vt 0.087256 0.800953
vt 0.760858 0.022930
vt 0.822357 0.000000
vt 0.821521 0.051260
vt 0.752419 0.077035
vt 0.632836 0.606773
vt 0.693785 0.599968
vt 0.693785 0.632502
vt 0.636908 0.654280
vt 0.657115 0.745604
vt 0.690214 0.732435
vt 0.687023 0.832263
vt 0.677357 0.836275
vt 0.820941 0.060167
vt 0.820992 0.140994
vt 0.757971 0.164755
vt 0.683332 0.102798
vt 0.696001 0.174437
vt 0.630468 0.778402
vt 0.667703 0.840282
vt 0.574039 0.642985
vt 0.580278 0.675916
vt 0.699359 0.045859
vt 0.000000 0.831969
vt 0.087256 0.863243
vt 0.248846 0.970650
vt 0.287073 0.906217
vt 0.695115 0.188422
vt 0.762441 0.212272
vt 0.702740 0.235009
vt 0.822357 0.189412
vt 0.603433 0.728954
vt 0.647046 0.700011
vt 0.624895 0.766364
vt 0.693229 0.695975
vt 0.691997 0.682481
vt 0.581848 0.691304
vt 0.359780 0.549480
vt 0.359780 0.484713
vt 0.407555 0.494263
vt 0.399019 0.566420
vt 0.405571 0.569849
vt 0.456812 0.503164
vt 0.446473 0.585320
vt 0.367558 0.422910
vt 0.416614 0.422284
vt 0.455732 0.421514
vt 0.771702 0.302097
vt 0.770062 0.314208
vt 0.726320 0.306043
vt 0.733028 0.256510
vt 0.356641 0.719899
vt 0.356641 0.785936
vt 0.316129 0.782036
vt 0.316129 0.699947
vt 0.001603 0.105521
vt 0.099642 0.093670
vt 0.115538 0.188512
vt 0.000000 0.202136
vt 0.768421 0.326320
vt 0.719611 0.355577
vt 0.356641 0.851973
vt 0.320548 0.860914
vt 0.197370 0.081957
vt 0.226123 0.163234
vt 0.131817 0.275632
vt 0.229912 0.265432
vt 0.228937 0.361737
vt 0.147088 0.368971
vt 0.168543 0.454626
vt 0.216333 0.451229
vt 0.199755 0.541115
vt 0.186313 0.541813
vt 0.032442 0.286533
vt 0.062868 0.362591
vt 0.120316 0.458288
vt 0.172834 0.542534
vt 0.683332 0.299423
vt 0.702645 0.235009
vt 0.064107 0.376886
vt 0.002163 0.019585
vt 0.083278 0.009793
vt 0.001421 0.097419
vt 0.683332 0.364743
vt 0.218380 0.438183
vt 0.229912 0.175472
vt 0.228025 0.247257
vt 0.164393 -0.000000
vt 0.375600 0.932139
vt 0.365460 0.932139
vt 0.359780 0.847173
vt 0.390387 0.847174
vt 0.087256 0.796131
vt 0.087256 0.759393
vt 0.168098 0.739566
vt 0.173659 0.800952
vt 0.302185 0.434642
vt 0.359780 0.421514
vt 0.359034 0.490041
vt 0.294358 0.504796
vt 0.516885 0.373268
vt 0.574039 0.382210
vt 0.573463 0.426695
vt 0.520046 0.438612
vt 0.540196 0.568833
vt 0.571348 0.561506
vt 0.574039 0.696294
vt 0.564912 0.698553
vt 0.358520 0.501660
vt 0.358366 0.609158
vt 0.299377 0.622879
vt 0.229912 0.519374
vt 0.242326 0.616939
vt 0.923539 0.209360
vt 0.954671 0.188541
vt 0.954671 0.320442
vt 0.945338 0.318016
vt 0.462089 0.403409
vt 0.467461 0.449670
vt 0.244590 0.447771
vt 0.087256 0.832870
vt 0.173659 0.863353
vt 0.385739 0.932139
vt 0.420994 0.847173
vt 0.241061 0.636004
vt 0.303684 0.687424
vt 0.248371 0.699947
vt 0.359780 0.674142
vt 0.489183 0.528705
vt 0.529684 0.503647
vt 0.510317 0.586439
vt 0.573426 0.512446
vt 0.571940 0.493971
vt 0.468825 0.470952
vt 0.723598 0.501173
vt 0.723598 0.436385
vt 0.774851 0.445989
vt 0.765487 0.518160
vt 0.772717 0.521598
vt 0.827890 0.454946
vt 0.816549 0.537118
vt 0.732129 0.374570
vt 0.784787 0.373996
vt 0.826935 0.373268
s 0
usemtl palm.001
f 300/1/1 66/2/1 4/3/1 296/4/1
f 302/5/2 98/6/2 8/7/2 297/8/2
f 299/9/3 68/10/3 6/11/3 298/12/3
f 301/13/4 100/14/4 2/15/4 295/16/4
f 130/17/5 67/18/5 5/19/5 99/20/5
f 284/21/6 279/22/6 11/23/6 70/24/6
f 129/25/7 69/26/7 9/27/7 102/28/7
f 283/29/8 280/30/8 9/31/8 69/32/8
f 286/33/9 281/34/9 12/35/9 102/36/9
f 285/37/10 282/38/10 10/39/10 101/40/10
f 188/41/11 190/42/11 36/43/11 103/44/11
f 212/45/12 214/46/12 35/47/12 104/48/12
f 228/49/13 230/50/13 34/51/13 105/52/13
f 238/53/14 234/54/14 33/55/14 106/56/14
f 254/57/15 250/58/15 32/59/15 107/60/15
f 270/61/16 266/62/16 31/63/16 108/64/16
f 187/65/17 189/66/17 24/67/17 109/68/17
f 211/69/18 213/70/18 23/71/18 110/72/18
f 227/73/19 229/74/19 22/75/19 111/76/19
f 237/77/20 233/78/20 21/79/20 112/80/20
f 253/81/21 249/82/21 20/83/21 113/84/21
f 269/85/22 265/86/22 19/87/22 114/88/22
f 186/89/23 184/90/23 25/91/23 71/92/23
f 210/93/24 208/94/24 26/95/24 72/96/24
f 226/97/25 224/98/25 27/99/25 73/100/25
f 236/101/26 232/102/26 28/103/26 74/104/26
f 252/105/27 248/106/27 29/107/27 75/108/27
f 268/109/28 264/110/28 30/111/28 76/112/28
f 185/113/29 183/114/29 13/115/29 77/116/29
f 209/117/30 207/118/30 14/119/30 78/120/30
f 225/121/31 223/122/31 15/123/31 79/124/31
f 235/125/32 231/126/32 16/127/32 80/128/32
f 251/129/33 247/130/33 17/131/33 81/132/33
f 267/133/34 263/134/34 18/135/34 82/136/34
f 68/137/35 8/138/35 39/139/35 83/140/35
f 66/141/36 2/142/36 40/143/36 84/144/36
f 100/145/37 6/146/37 37/147/37 115/148/37
f 98/149/38 4/150/38 38/151/38 116/152/38
f 77/153/39 13/154/39 41/155/39 85/156/39
f 71/157/40 25/158/40 43/159/40 86/160/40
f 109/161/41 24/162/41 42/163/41 117/164/41
f 103/165/42 36/166/42 44/167/42 118/168/42
f 78/169/43 14/170/43 45/171/43 87/172/43
f 72/173/44 26/174/44 47/175/44 88/176/44
f 110/177/45 23/178/45 46/179/45 119/180/45
f 104/181/46 35/182/46 48/183/46 120/184/46
f 79/185/47 15/186/47 49/187/47 89/188/47
f 73/189/48 27/190/48 51/191/48 90/192/48
f 111/193/49 22/194/49 50/195/49 121/196/49
f 105/197/50 34/198/50 52/199/50 122/200/50
f 80/201/51 16/202/51 53/203/51 91/204/51
f 74/205/52 28/206/52 55/207/52 92/208/52
f 112/209/53 21/210/53 54/211/53 123/212/53
f 106/213/54 33/214/54 56/215/54 124/216/54
f 81/217/55 17/218/55 57/219/55 93/220/55
f 75/221/56 29/222/56 59/223/56 94/224/56
f 113/225/57 20/226/57 58/227/57 125/228/57
f 107/229/58 32/230/58 60/231/58 126/232/58
f 108/233/59 31/234/59 64/235/59 127/236/59
f 114/237/60 19/238/60 63/239/60 128/240/60
f 76/241/61 30/242/61 62/243/61 95/244/61
f 82/245/62 18/246/62 61/247/62 96/248/62
f 19/238/63 82/245/63 96/248/63 63/239/63
f 31/234/64 76/241/64 95/244/64 64/235/64
f 32/230/65 75/221/65 94/224/65 60/231/65
f 20/226/66 81/217/66 93/220/66 58/227/66
f 33/214/67 74/205/67 92/208/67 56/215/67
f 21/210/68 80/201/68 91/204/68 54/211/68
f 34/198/69 73/189/69 90/192/69 52/199/69
f 22/194/70 79/185/70 89/188/70 50/195/70
f 35/182/71 72/173/71 88/176/71 48/183/71
f 23/178/72 78/169/72 87/172/72 46/179/72
f 36/166/73 71/157/73 86/160/73 44/167/73
f 24/162/74 77/153/74 85/156/74 42/163/74
f 4/150/75 66/141/75 84/144/75 38/151/75
f 6/146/76 68/137/76 83/140/76 37/147/76
f 265/249/77 267/133/77 82/136/77 19/250/77
f 249/251/78 251/129/78 81/132/78 20/252/78
f 233/78/79 235/253/79 80/254/79 21/79/79
f 229/74/80 225/255/80 79/256/80 22/75/80
f 213/257/81 209/117/81 78/120/81 23/258/81
f 189/259/82 185/113/82 77/116/82 24/260/82
f 266/261/83 268/109/83 76/112/83 31/262/83
f 250/263/84 252/105/84 75/108/84 32/264/84
f 234/265/85 236/101/85 74/104/85 33/266/85
f 230/50/86 226/267/86 73/268/86 34/51/86
f 214/269/87 210/93/87 72/96/87 35/270/87
f 190/271/88 186/89/88 71/92/88 36/272/88
f 282/273/89 283/29/89 69/32/89 10/274/89
f 101/275/7 10/276/7 69/26/7 129/25/7
f 281/277/90 284/21/90 70/24/90 12/278/90
f 97/279/91 7/280/91 67/18/91 130/17/91
f 297/8/92 8/7/92 68/281/92 299/282/92
f 295/283/93 2/284/93 66/2/93 300/1/93
f 3/285/94 97/279/94 130/17/94 65/286/94
f 11/287/7 101/275/7 129/25/7 70/288/7
f 30/242/95 114/237/95 128/240/95 62/243/95
f 18/246/96 108/233/96 127/236/96 61/247/96
f 17/218/97 107/229/97 126/232/97 57/219/97
f 29/222/98 113/225/98 125/228/98 59/223/98
f 16/202/99 106/213/99 124/216/99 53/203/99
f 28/206/100 112/209/100 123/212/100 55/207/100
f 15/186/101 105/197/101 122/200/101 49/187/101
f 27/190/102 111/193/102 121/196/102 51/191/102
f 14/170/103 104/181/103 120/184/103 45/171/103
f 26/174/104 110/177/104 119/180/104 47/175/104
f 13/154/105 103/165/105 118/168/105 41/155/105
f 25/158/106 109/161/106 117/164/106 43/159/106
f 8/138/107 98/149/107 116/152/107 39/139/107
f 2/142/108 100/145/108 115/148/108 40/143/108
f 264/289/109 269/85/109 114/88/109 30/290/109
f 248/291/110 253/81/110 113/84/110 29/292/110
f 232/293/111 237/77/111 112/80/111 28/294/111
f 224/295/112 227/73/112 111/76/112 27/296/112
f 208/94/113 211/297/113 110/298/113 26/95/113
f 184/299/114 187/65/114 109/68/114 25/300/114
f 263/301/115 270/61/115 108/64/115 18/302/115
f 247/303/116 254/57/116 107/60/116 17/304/116
f 231/305/117 238/53/117 106/56/117 16/306/117
f 223/122/118 228/307/118 105/308/118 15/123/118
f 207/118/119 212/309/119 104/310/119 14/119/119
f 183/311/120 188/41/120 103/44/120 13/312/120
f 279/313/121 285/37/121 101/40/121 11/314/121
f 280/315/122 286/33/122 102/36/122 9/316/122
f 70/288/7 129/25/7 102/28/7 12/317/7
f 65/286/123 130/17/123 99/20/123 1/318/123
f 298/12/124 6/11/124 100/14/124 301/13/124
f 296/319/125 4/320/125 98/321/125 302/322/125
f 131/323/126 154/324/126 153/325/126 133/326/126
f 144/327/127 148/328/127 152/329/127 135/330/127
f 143/331/128 145/332/128 151/333/128 137/334/128
f 154/324/129 132/335/129 134/336/129 153/325/129
f 148/328/130 155/337/130 136/338/130 152/329/130
f 145/332/131 161/339/131 138/340/131 151/333/131
f 146/341/132 159/342/132 140/343/132 150/344/132
f 147/345/133 157/346/133 142/347/133 149/348/133
f 160/349/134 146/341/134 150/344/134 139/350/134
f 158/351/135 147/345/135 149/348/135 141/352/135
f 133/326/136 153/325/136 148/353/136 156/354/136
f 338/355/137 150/344/137 147/345/137 158/351/137
f 137/334/138 151/333/138 146/341/138 160/349/138
f 135/356/139 152/357/139 145/332/139 162/358/139
f 153/325/140 134/336/140 342/359/140 148/353/140
f 150/344/141 140/343/141 343/360/141 147/345/141
f 151/333/142 340/361/142 339/362/142 146/341/142
f 152/357/143 341/363/143 161/339/143 145/332/143
f 305/364/144 164/365/144 166/366/144 306/367/144
f 306/368/145 166/369/145 168/370/145 307/371/145
f 333/372/146 331/373/146 170/374/146 308/375/146
f 316/376/147 314/377/147 172/378/147 309/379/147
f 322/380/148 321/381/148 174/382/148 310/383/148
f 39/384/149 116/385/149 182/386/149 175/387/149
f 40/388/150 115/389/150 181/390/150 176/391/150
f 38/392/151 84/393/151 180/394/151 178/395/151
f 37/396/152 83/397/152 179/398/152 177/399/152
f 83/397/153 39/400/153 175/401/153 179/398/153
f 84/393/154 40/402/154 176/403/154 180/394/154
f 115/389/155 37/404/155 177/405/155 181/390/155
f 116/385/156 38/406/156 178/407/156 182/386/156
f 175/408/157 182/409/157 188/410/157 183/411/157
f 176/412/158 181/413/158 187/414/158 184/415/158
f 178/416/159 180/417/159 186/418/159 190/419/159
f 177/420/160 179/421/160 185/422/160 189/423/160
f 179/421/161 175/408/161 183/411/161 185/422/161
f 180/417/162 176/412/162 184/415/162 186/418/162
f 181/413/163 177/420/163 189/423/163 187/414/163
f 182/409/164 178/416/164 190/419/164 188/410/164
f 3/424/165 192/425/165 198/426/165 97/427/165
f 5/428/166 194/429/166 197/430/166 99/431/166
f 1/432/167 191/433/167 196/434/167 65/435/167
f 7/436/168 193/437/168 195/438/168 67/439/168
f 99/431/169 197/430/169 191/440/169 1/441/169
f 67/442/170 195/443/170 194/429/170 5/428/170
f 97/427/171 198/426/171 193/444/171 7/445/171
f 65/446/172 196/447/172 192/425/172 3/424/172
f 41/448/173 118/449/173 206/450/173 199/451/173
f 43/452/174 117/453/174 205/454/174 200/455/174
f 44/456/175 86/457/175 204/458/175 202/459/175
f 42/460/176 85/461/176 203/462/176 201/463/176
f 85/461/177 41/464/177 199/465/177 203/462/177
f 86/457/178 43/466/178 200/467/178 204/458/178
f 117/453/179 42/468/179 201/469/179 205/454/179
f 118/449/180 44/470/180 202/471/180 206/450/180
f 199/472/181 206/473/181 212/474/181 207/475/181
f 200/476/182 205/477/182 211/478/182 208/479/182
f 202/480/183 204/481/183 210/482/183 214/483/183
f 201/484/184 203/485/184 209/486/184 213/487/184
f 203/485/185 199/472/185 207/475/185 209/486/185
f 204/481/186 200/476/186 208/479/186 210/482/186
f 205/477/187 201/484/187 213/487/187 211/478/187
f 206/473/188 202/480/188 214/483/188 212/474/188
f 45/488/189 120/489/189 222/490/189 215/491/189
f 47/492/190 119/493/190 221/494/190 216/495/190
f 48/496/191 88/497/191 220/498/191 218/499/191
f 46/500/192 87/501/192 219/502/192 217/503/192
f 87/504/193 45/505/193 215/506/193 219/507/193
f 88/497/194 47/508/194 216/509/194 220/498/194
f 119/493/195 46/500/195 217/503/195 221/494/195
f 120/489/196 48/510/196 218/511/196 222/490/196
f 215/512/197 222/513/197 228/514/197 223/515/197
f 216/516/198 221/517/198 227/518/198 224/519/198
f 218/520/199 220/521/199 226/522/199 230/523/199
f 217/524/200 219/525/200 225/526/200 229/527/200
f 219/525/201 215/512/201 223/515/201 225/526/201
f 220/521/202 216/516/202 224/519/202 226/522/202
f 221/517/203 217/524/203 229/527/203 227/518/203
f 222/513/204 218/520/204 230/523/204 228/514/204
f 241/528/205 246/529/205 238/530/205 231/531/205
f 242/532/206 245/533/206 237/534/206 232/535/206
f 240/536/207 244/537/207 236/538/207 234/539/207
f 239/540/208 243/541/208 235/542/208 233/543/208
f 243/541/209 241/528/209 231/531/209 235/542/209
f 244/537/210 242/532/210 232/535/210 236/538/210
f 245/533/211 239/540/211 233/543/211 237/534/211
f 246/529/212 240/536/212 234/539/212 238/530/212
f 122/544/213 52/545/213 240/546/213 246/547/213
f 121/548/214 50/549/214 239/550/214 245/551/214
f 90/552/215 51/553/215 242/554/215 244/555/215
f 89/556/216 49/557/216 241/558/216 243/559/216
f 50/549/217 89/560/217 243/561/217 239/550/217
f 52/562/218 90/552/218 244/555/218 240/563/218
f 51/564/219 121/548/219 245/551/219 242/565/219
f 49/566/220 122/544/220 246/547/220 241/567/220
f 257/568/221 262/569/221 254/570/221 247/571/221
f 258/572/222 261/573/222 253/574/222 248/575/222
f 256/576/223 260/577/223 252/578/223 250/579/223
f 255/580/224 259/581/224 251/582/224 249/583/224
f 259/581/225 257/568/225 247/571/225 251/582/225
f 260/577/226 258/572/226 248/575/226 252/578/226
f 261/573/227 255/580/227 249/583/227 253/574/227
f 262/569/228 256/576/228 250/579/228 254/570/228
f 124/584/229 56/585/229 256/586/229 262/587/229
f 123/588/230 54/589/230 255/590/230 261/591/230
f 92/592/231 55/593/231 258/594/231 260/595/231
f 91/596/232 53/597/232 257/598/232 259/599/232
f 54/600/233 91/596/233 259/599/233 255/601/233
f 56/602/234 92/592/234 260/595/234 256/603/234
f 55/604/235 123/588/235 261/591/235 258/605/235
f 53/606/236 124/584/236 262/587/236 257/607/236
f 273/608/237 278/609/237 270/610/237 263/611/237
f 274/612/238 277/613/238 269/614/238 264/615/238
f 272/616/239 276/617/239 268/618/239 266/619/239
f 271/620/240 275/621/240 267/622/240 265/623/240
f 275/621/241 273/608/241 263/611/241 267/622/241
f 276/617/242 274/612/242 264/615/242 268/618/242
f 277/613/243 271/620/243 265/623/243 269/614/243
f 278/609/244 272/616/244 266/619/244 270/610/244
f 126/624/245 60/625/245 272/626/245 278/627/245
f 125/628/246 58/629/246 271/630/246 277/631/246
f 94/632/247 59/633/247 274/634/247 276/635/247
f 93/636/248 57/637/248 273/638/248 275/639/248
f 58/640/249 93/636/249 275/639/249 271/641/249
f 60/642/250 94/632/250 276/635/250 272/643/250
f 59/644/251 125/628/251 277/631/251 274/645/251
f 57/646/252 126/624/252 278/627/252 273/647/252
f 290/648/253 294/649/253 286/650/253 280/651/253
f 289/652/254 293/653/254 285/654/254 279/655/254
f 287/656/255 292/657/255 284/658/255 281/659/255
f 288/660/256 291/661/256 283/662/256 282/663/256
f 293/653/257 288/660/257 282/663/257 285/654/257
f 294/649/258 287/656/258 281/659/258 286/650/258
f 291/661/259 290/648/259 280/651/259 283/662/259
f 292/657/260 289/652/260 279/655/260 284/658/260
f 96/664/261 61/665/261 289/666/261 292/667/261
f 95/668/262 62/669/262 290/670/262 291/671/262
f 128/672/263 63/673/263 287/674/263 294/675/263
f 127/676/264 64/677/264 288/678/264 293/679/264
f 64/680/265 95/668/265 291/671/265 288/681/265
f 63/682/266 96/664/266 292/667/266 287/683/266
f 61/684/267 127/676/267 293/679/267 289/685/267
f 62/686/268 128/672/268 294/675/268 290/687/268
f 192/688/269 296/689/269 302/690/269 198/691/269
f 194/692/270 298/693/270 301/694/270 197/695/270
f 191/696/271 295/697/271 300/698/271 196/699/271
f 193/700/272 297/701/272 299/702/272 195/703/272
f 197/695/273 301/694/273 295/697/273 191/696/273
f 195/703/274 299/702/274 298/693/274 194/692/274
f 198/691/275 302/690/275 297/701/275 193/700/275
f 196/699/276 300/698/276 296/689/276 192/688/276
f 308/375/277 313/704/277 304/705/277 311/706/277
f 169/707/278 308/375/278 311/706/278 303/708/278
f 320/709/279 322/380/279 310/383/279 173/710/279
f 315/711/280 316/376/280 309/379/280 318/712/280
f 328/713/281 333/372/281 308/375/281 169/707/281
f 165/714/282 306/368/282 307/371/282 336/715/282
f 163/716/283 305/364/283 306/367/283 165/717/283
f 312/718/284 311/706/284 316/719/284 317/720/284
f 311/706/285 304/705/285 319/721/285 316/719/285
f 324/722/286 326/723/286 322/380/286 323/724/286
f 326/723/287 325/725/287 321/381/287 322/380/287
f 309/379/288 172/378/288 327/726/288 326/723/288
f 171/727/289 309/379/289 326/723/289 324/722/289
f 167/728/290 307/729/290 332/730/290 334/731/290
f 329/732/291 332/730/291 333/733/291 328/734/291
f 307/729/292 337/735/292 330/736/292 332/730/292
f 332/730/293 330/736/293 335/737/293 333/733/293
f 344/738/294 367/739/294 366/740/294 346/741/294
f 357/742/295 361/743/295 365/744/295 348/745/295
f 356/746/296 358/747/296 364/748/296 350/749/296
f 367/739/294 345/750/294 347/751/294 366/740/294
f 361/743/297 368/752/297 349/753/297 365/744/297
f 358/747/298 374/754/298 351/755/298 364/748/298
f 359/756/299 372/757/299 353/758/299 363/759/299
f 360/760/300 370/761/300 355/762/300 362/763/300
f 373/764/301 359/756/301 363/759/301 352/765/301
f 371/766/302 360/760/302 362/763/302 354/767/302
f 346/741/303 366/740/303 361/768/303 369/769/303
f 423/770/304 363/759/304 360/760/304 371/766/304
f 350/749/305 364/748/305 359/756/305 373/764/305
f 348/745/306 365/744/306 358/771/306 375/772/306
f 366/740/307 347/751/307 427/773/307 361/768/307
f 363/759/308 353/758/308 428/774/308 360/760/308
f 364/748/309 425/775/309 424/776/309 359/756/309
f 365/744/310 426/777/310 374/778/310 358/771/310
f 390/779/311 377/780/311 379/781/311 391/782/311
f 391/783/312 379/784/312 381/785/312 392/786/312
f 418/787/313 416/788/313 383/789/313 393/790/313
f 401/791/314 399/792/314 385/793/314 394/794/314
f 407/795/315 406/796/315 387/797/315 395/798/315
f 393/790/316 398/799/316 389/800/316 396/801/316
f 382/802/317 393/790/317 396/801/317 388/803/317
f 405/804/318 407/795/318 395/798/318 386/805/318
f 400/806/319 401/791/319 394/794/319 403/807/319
f 413/808/320 418/787/320 393/790/320 382/802/320
f 378/809/321 391/783/321 392/786/321 421/810/321
f 376/811/322 390/779/322 391/782/322 378/812/322
f 397/813/323 396/801/323 401/814/323 402/815/323
f 396/801/324 389/800/324 404/816/324 401/814/324
f 409/817/325 411/818/325 407/795/325 408/819/325
f 411/818/326 410/820/326 406/796/326 407/795/326
f 394/794/327 385/793/327 412/821/327 411/818/327
f 384/822/328 394/794/328 411/818/328 409/817/328
f 380/823/329 392/824/329 417/825/329 419/826/329
f 414/827/330 417/825/330 418/828/330 413/829/330
f 392/824/331 422/830/331 415/831/331 417/825/331
f 417/825/332 415/831/332 420/832/332 418/828/332
f 429/833/333 452/834/333 451/835/333 431/836/333
f 442/837/334 446/838/334 450/839/334 433/840/334
f 441/841/335 443/842/335 449/843/335 435/844/335
f 452/834/333 430/845/333 432/846/333 451/835/333
f 446/838/336 453/847/336 434/848/336 450/839/336
f 443/842/337 459/849/337 436/850/337 449/843/337
f 444/851/338 457/852/338 438/853/338 448/854/338
f 445/855/339 455/856/339 440/857/339 447/858/339
f 458/859/340 444/851/340 448/854/340 437/860/340
f 456/861/341 445/855/341 447/858/341 439/862/341
f 431/836/342 451/835/342 446/863/342 454/864/342
f 508/865/343 448/854/343 445/855/343 456/861/343
f 435/844/344 449/843/344 444/851/344 458/859/344
f 433/866/345 450/867/345 443/842/345 460/868/345
f 451/835/346 432/846/346 512/869/346 446/863/346
f 448/854/347 438/853/347 513/870/347 445/855/347
f 449/843/348 510/871/348 509/872/348 444/851/348
f 450/867/349 511/873/349 459/849/349 443/842/349
f 475/874/350 462/875/350 464/876/350 476/877/350
f 476/878/351 464/879/351 466/880/351 477/881/351
f 503/882/352 501/883/352 468/884/352 478/885/352
f 486/886/353 484/887/353 470/888/353 479/889/353
f 492/890/354 491/891/354 472/892/354 480/893/354
f 478/885/355 483/894/355 474/895/355 481/896/355
f 467/897/356 478/885/356 481/896/356 473/898/356
f 490/899/357 492/900/357 480/901/357 471/902/357
f 485/903/358 486/886/358 479/889/358 488/904/358
f 498/905/359 503/882/359 478/885/359 467/897/359
f 463/906/360 476/878/360 477/881/360 506/907/360
f 461/908/350 475/874/350 476/877/350 463/909/350
f 482/910/361 481/896/361 486/911/361 487/912/361
f 481/896/362 474/895/362 489/913/362 486/911/362
f 494/914/363 496/915/363 492/890/363 493/916/363
f 496/915/364 495/917/364 491/891/364 492/890/364
f 479/889/365 470/888/365 497/918/365 496/915/365
f 469/919/366 479/889/366 496/915/366 494/914/366
f 465/920/367 477/921/367 502/922/367 504/923/367
f 499/924/368 502/922/368 503/925/368 498/926/368
f 477/921/369 507/927/369 500/928/369 502/922/369
f 502/922/370 500/928/370 505/929/370 503/925/370
