# Blender 4.5.0
# www.blender.org
mtllib marco_madera.mtl
o Cube.001
v 1.053410 5.634606 -8.508408
v 1.053410 7.634606 -8.508408
v 1.010745 5.634606 -8.655706
v 1.010745 7.634606 -8.655706
v 1.200709 5.634606 -8.551073
v 1.200709 7.634606 -8.551073
v 1.158044 5.634606 -8.698372
v 1.158044 7.634606 -8.698372
v -0.119390 5.639459 -8.173800
v -0.119390 7.639459 -8.173800
v -0.162055 5.639459 -8.321098
v -0.162055 7.639459 -8.321098
v 0.027909 5.639459 -8.216465
v 0.027909 7.639459 -8.216465
v -0.014756 5.639459 -8.363763
v -0.014756 7.639459 -8.363763
v -0.373077 7.578106 -8.065932
v 1.547961 7.578106 -8.622360
v -0.406015 7.578106 -8.179646
v 1.515024 7.578106 -8.736074
v -0.373077 7.459717 -8.065932
v 1.547961 7.459717 -8.622360
v -0.406015 7.459717 -8.179646
v 1.515024 7.459717 -8.736074
vn -0.9605 -0.0000 0.2782
vn -0.2782 -0.0000 -0.9605
vn 0.9605 -0.0000 -0.2782
vn 0.2782 -0.0000 0.9605
vn -0.0000 -1.0000 -0.0000
vn -0.0000 1.0000 -0.0000
vt 0.000000 0.000000
vt 0.076677 1.000000
vt 0.000000 1.000000
vt 0.076677 0.000000
vt 0.153353 1.000000
vt 0.153353 0.000000
vt 0.230030 1.000000
vt 0.230030 0.000000
vt 0.306706 1.000000
vt 0.926867 0.076677
vt 0.850190 0.000000
vt 0.926867 0.000000
vt 0.926867 0.153353
vt 0.850190 0.076677
vt 0.926867 0.076677
vt 0.306706 0.000000
vt 0.383383 1.000000
vt 0.383383 0.000000
vt 0.460059 1.000000
vt 0.383383 1.000000
vt 0.460059 0.000000
vt 0.536736 1.000000
vt 0.460059 1.000000
vt 0.536736 0.000000
vt 0.613412 1.000000
vt 0.536736 1.000000
vt 0.926867 0.230030
vt 0.850190 0.153353
vt 0.926867 0.306706
vt 0.850190 0.230030
vt 0.926867 0.230030
vt 0.613412 0.000000
vt 0.672607 1.000000
vt 0.613412 1.000000
vt 0.790996 1.000000
vt 0.731801 0.000000
vt 0.790996 -0.000000
vt 0.731801 1.000000
vt 0.672607 -0.000000
vt 0.731801 -0.000000
vt 0.790996 1.000000
vt 0.850190 0.000000
vt 0.850190 1.000000
vt 0.909384 0.365901
vt 0.850190 0.306706
vt 0.909384 0.306706
vt 0.850190 0.365901
vt 0.909384 0.425095
vt 0.850190 0.425095
vt 0.850190 0.076677
vt 0.850190 0.153353
vt 0.383383 0.000000
vt 0.460059 0.000000
vt 0.536736 0.000000
vt 0.613412 0.000000
vt 0.850190 0.230030
vt 0.850190 0.306706
vt 0.672607 0.000000
vt 0.731801 1.000000
vt 0.672607 1.000000
vt 0.790996 0.000000
vt 0.850190 0.365901
vt 0.909384 0.365901
s 0
usemtl Material
f 2/1/1 3/2/1 1/3/1
f 4/4/2 7/5/2 3/2/2
f 8/6/3 5/7/3 7/5/3
f 6/8/4 1/9/4 5/7/4
f 7/10/5 1/11/5 3/12/5
f 4/13/6 6/14/6 8/15/6
f 10/16/1 11/17/1 9/9/1
f 12/18/2 15/19/2 11/20/2
f 16/21/3 13/22/3 15/23/3
f 14/24/4 9/25/4 13/26/4
f 15/27/5 9/28/5 11/13/5
f 12/29/6 14/30/6 16/31/6
f 18/32/6 19/33/6 17/34/6
f 20/35/2 23/36/2 19/37/2
f 24/38/5 21/39/5 23/40/5
f 21/41/4 18/42/4 17/43/4
f 23/44/1 17/45/1 19/46/1
f 20/47/3 22/48/3 24/49/3
f 2/1/1 4/4/1 3/2/1
f 4/4/2 8/6/2 7/5/2
f 8/6/3 6/8/3 5/7/3
f 6/8/4 2/16/4 1/9/4
f 7/10/5 5/50/5 1/11/5
f 4/13/6 2/51/6 6/14/6
f 10/16/1 12/52/1 11/17/1
f 12/18/2 16/53/2 15/19/2
f 16/21/3 14/54/3 13/22/3
f 14/24/4 10/55/4 9/25/4
f 15/27/5 13/56/5 9/28/5
f 12/29/6 10/57/6 14/30/6
f 18/32/6 20/58/6 19/33/6
f 20/35/2 24/59/2 23/36/2
f 24/38/5 22/60/5 21/39/5
f 21/41/4 22/61/4 18/42/4
f 23/44/1 21/62/1 17/45/1
f 20/47/3 18/63/3 22/48/3
