# Blender 4.5.0
# www.blender.org
mtllib zorrito.mtl
o Cube.024
v 9.513501 1.031069 -0.944567
v 9.552082 1.092081 -1.009762
v 9.564573 0.987962 -1.015721
v 9.601643 1.014377 -1.079571
v 9.469893 0.980045 -0.941246
v 9.560864 0.978106 -1.011658
v 9.519270 1.161532 -1.023851
v 9.589337 1.132521 -1.066772
v 9.541394 1.214382 -1.034358
v 9.591794 1.193394 -1.063383
v 9.637094 1.123227 -1.114152
v 9.640332 1.143449 -1.116976
v 9.547210 0.988355 -1.047640
v 9.583158 1.016571 -1.093622
v 9.522078 1.216387 -1.061949
v 9.571334 1.009009 -1.017807
v 9.597509 1.031109 -1.061354
v 9.535909 0.983243 -0.973407
v 9.560284 1.143802 -1.037529
v 9.561599 1.219319 -1.054677
v 9.552917 1.222252 -1.074575
v 9.583096 1.199901 -1.056247
v 9.534495 1.197196 -1.027573
v 9.555692 1.258884 -1.063989
v 9.549817 1.259592 -1.059327
v 9.545711 1.259337 -1.066280
v 9.554686 1.259305 -1.065722
v 9.552094 1.220736 -1.076626
v 9.567658 1.215825 -1.048214
v 9.552342 1.261282 -1.069954
v 9.556208 1.260409 -1.062637
v 9.546407 1.221917 -1.071711
v 9.555089 1.218985 -1.051813
v 9.548175 1.258970 -1.062858
v 9.549181 1.258549 -1.061125
v 9.535137 1.247157 -1.068448
v 9.552006 1.240990 -1.073666
v 9.562729 1.238256 -1.053038
v 9.547935 1.246446 -1.048274
v 9.552983 1.240706 -1.071603
v 9.559494 1.239177 -1.057823
v 9.546372 1.240363 -1.068918
v 9.552883 1.238833 -1.055138
v 9.596866 1.065240 -1.071263
v 9.550050 1.009608 -0.982818
v 9.570190 0.988696 -1.029383
v 9.579236 1.078660 -1.037045
v 9.601061 0.882724 -1.089406
v 9.577036 0.883233 -1.071456
v 9.590201 0.882946 -1.097552
v 9.585420 0.892878 -1.066891
v 9.571893 0.886228 -1.080736
v 9.603458 0.889467 -1.079075
v 9.585191 0.959566 -1.054734
v 9.604476 0.973261 -1.079491
v 9.592518 0.964252 -1.101719
v 9.571062 0.946799 -1.074169
v 9.575520 0.947010 -1.060592
v 9.603974 0.962893 -1.093011
v 9.568403 1.150425 -1.024871
v 9.547423 1.150024 -1.017480
v 9.573283 1.172353 -1.027983
v 9.554092 1.168529 -1.018647
v 9.589294 1.170807 -1.041601
v 9.582572 1.144923 -1.039133
v 9.573015 1.149480 -1.018227
v 9.559211 1.149217 -1.013363
v 9.575239 1.160911 -1.019470
v 9.562840 1.157923 -1.013532
v 9.584581 1.159789 -1.030553
v 9.582339 1.145860 -1.027611
v 9.580316 1.120644 -1.064420
v 9.521442 1.126586 -1.033649
v 9.554142 1.126153 -1.043392
v 9.535819 1.061575 -0.981323
v 9.564643 1.044134 -1.009931
v 9.558844 1.002463 -1.075247
v 9.584422 1.020059 -1.039580
v 9.595633 0.882179 -1.080330
v 9.577524 0.883363 -1.093943
v 9.597203 0.882872 -1.070971
v 9.594833 0.966413 -1.067112
v 9.575450 0.955525 -1.092560
v 9.585341 0.906771 -1.062728
v 9.590995 0.909988 -1.098979
v 9.576517 0.897119 -1.067736
v 9.605310 0.904852 -1.078123
v 9.569679 0.898583 -1.078362
v 9.599833 0.908939 -1.092260
v 9.598089 0.912054 -1.068413
v 9.576814 0.903671 -1.093470
v 9.610255 0.882379 -1.125994
v 9.621115 0.882157 -1.117848
v 9.627900 0.887199 -1.104323
v 9.611049 0.907721 -1.127421
v 9.593549 0.886766 -1.125320
v 9.592838 0.901404 -1.124846
v 9.629751 0.902584 -1.103371
v 9.619887 0.906672 -1.120703
v 9.592171 1.143094 -1.067020
v 9.525500 1.177735 -1.024569
v 9.641223 1.133560 -1.111100
v 9.584853 1.158144 -1.041823
v 9.550758 1.159277 -1.018064
v 9.583461 1.152825 -1.029082
v 9.561025 1.153570 -1.013448
v 9.574127 1.155196 -1.018849
v 9.626885 1.154098 -1.105206
v 9.624457 1.125686 -1.101615
v 9.629235 1.139784 -1.099523
v 9.638905 1.147840 -1.122392
v 9.629850 1.155816 -1.113914
v 9.602809 1.181770 -1.063400
v 9.581676 1.195835 -1.080530
v 9.575452 1.207289 -1.077100
v 9.576854 1.206088 -1.040393
v 9.568866 1.201304 -1.075533
v 9.575090 1.189849 -1.078963
v 9.586332 1.186674 -1.060802
v 9.577633 1.193181 -1.053667
v 9.520574 0.928538 -0.917919
v 9.550121 0.919461 -0.954952
v 9.571993 0.906495 -0.988472
v 9.478056 0.961324 -0.941790
v 9.474578 0.930049 -0.948496
v 9.543960 0.942344 -0.959564
v 9.561875 0.937207 -0.988147
v 9.511773 0.923413 -0.983446
v 9.545871 0.905988 -1.009217
v 9.518514 0.878138 -0.989829
v 9.494186 0.890396 -0.965998
v 9.543608 0.884956 -1.003236
v 9.558681 0.885118 -0.960936
v 9.540183 0.892981 -0.935421
v 9.571549 0.885463 -0.982093
v 9.612285 0.902753 -1.060180
v 9.610537 0.886703 -1.055624
v 9.624850 0.903139 -1.041008
v 9.623103 0.887090 -1.036452
v 9.638843 0.898836 -1.094300
v 9.638213 0.882787 -1.088257
v 9.664863 0.899223 -1.057226
v 9.664232 0.883174 -1.051183
v 9.501506 0.993758 -0.930143
v 9.512341 0.954225 -0.919889
v 9.459553 0.979992 -0.926866
v 9.471721 0.960179 -0.931202
v 9.456317 0.943825 -0.903689
v 9.469504 0.925848 -0.911585
v 9.407118 0.933734 -0.825042
v 9.440154 0.895102 -0.842394
v 9.359391 0.938756 -0.801003
v 9.375090 0.918784 -0.803039
v 9.432026 0.933465 -0.867579
v 9.456072 0.902306 -0.879610
v 9.542448 0.895472 -1.007895
v 9.511513 0.900776 -0.989281
v 9.528484 0.911367 -0.922922
v 9.556025 0.902290 -0.956762
v 9.476525 0.910830 -0.957841
v 9.573174 0.895979 -0.984262
v 9.611586 0.894728 -1.057669
v 9.625989 0.895115 -1.036053
v 9.637869 0.890812 -1.092156
v 9.667522 0.891199 -1.050245
v 9.560073 0.909972 -0.997939
v 9.617228 0.906613 -1.052638
v 9.559281 0.883393 -0.991376
v 9.616099 0.884902 -1.047929
v 9.541305 0.879083 -0.973435
v 9.666284 0.900734 -1.070464
v 9.652503 0.900654 -1.091377
v 9.655032 0.903738 -1.078898
v 9.655739 0.881919 -1.082125
v 9.667164 0.882362 -1.061287
v 9.657382 0.882099 -1.069237
v 9.668256 0.891103 -1.066594
v 9.653271 0.890907 -1.087856
v 9.578626 1.205924 -1.073979
v 9.583478 1.196995 -1.076653
v 9.592242 1.194519 -1.062494
v 9.585461 1.199592 -1.056931
v 9.428637 1.031069 -1.006365
v 9.478842 1.092081 -1.063095
v 9.480679 0.987962 -1.076813
v 9.530066 1.014377 -1.131693
v 9.438863 0.980045 -0.963842
v 9.477949 0.978106 -1.072036
v 9.479428 1.139640 -1.089674
v 9.555256 1.129511 -1.127398
v 9.499188 1.210655 -1.109434
v 9.551066 1.189798 -1.135829
v 9.620914 1.121798 -1.142933
v 9.624152 1.142020 -1.145758
v 9.467586 1.034861 -0.970682
v 9.508627 1.094062 -1.027043
v 9.516386 0.988355 -1.070085
v 9.549112 1.016571 -1.118412
v 9.458261 0.990151 -0.957876
v 9.520799 0.976335 -1.043757
v 9.487469 1.169243 -1.050725
v 9.576984 1.127671 -1.099554
v 9.512575 1.215548 -1.078852
v 9.580633 1.186635 -1.104533
v 9.631741 1.120310 -1.129971
v 9.635131 1.141480 -1.132928
v 9.480587 1.009009 -1.083887
v 9.513997 1.031109 -1.122167
v 9.449205 0.983243 -1.036543
v 9.514714 1.139778 -1.118587
v 9.526826 1.216248 -1.116533
v 9.539149 1.221036 -1.099066
v 9.540178 1.196111 -1.132589
v 9.490539 1.193314 -1.105764
v 9.530015 1.256616 -1.109662
v 9.522952 1.257220 -1.107115
v 9.526754 1.257663 -1.100000
v 9.530951 1.257209 -1.107940
v 9.504717 1.208681 -1.062950
v 9.552975 1.220798 -1.090681
v 9.540533 1.219715 -1.097189
v 9.524616 1.212024 -1.124777
v 9.533257 1.259596 -1.103903
v 9.529067 1.258012 -1.110915
v 9.533332 1.220762 -1.094969
v 9.521008 1.215975 -1.112436
v 9.525134 1.256935 -1.103843
v 9.524198 1.256343 -1.105565
v 9.523614 1.246140 -1.088946
v 9.537107 1.239675 -1.100169
v 9.525214 1.234943 -1.119769
v 9.513103 1.243370 -1.110233
v 9.535869 1.239195 -1.102048
v 9.527572 1.236357 -1.114607
v 9.530151 1.238930 -1.097772
v 9.521855 1.236093 -1.110331
v 9.563512 1.063259 -1.102414
v 9.523625 1.065240 -1.124596
v 9.453821 1.009608 -1.052890
v 9.491957 0.988696 -1.086353
v 9.526110 0.984170 -1.051051
v 9.496470 1.078660 -1.097313
v 9.539604 0.882724 -1.134158
v 9.529896 0.883233 -1.105783
v 9.550691 0.882946 -1.126323
v 9.522978 0.892878 -1.112361
v 9.540307 0.886228 -1.103736
v 9.529037 0.889467 -1.133269
v 9.511478 0.959566 -1.108410
v 9.529119 0.973261 -1.134364
v 9.553946 0.964252 -1.129807
v 9.534312 0.946799 -1.100930
v 9.520022 0.947010 -1.101005
v 9.542141 0.962893 -1.138037
v 9.507868 1.145079 -1.132552
v 9.490660 1.145011 -1.118452
v 9.512134 1.166952 -1.136757
v 9.494343 1.163253 -1.124929
v 9.532147 1.165761 -1.143255
v 9.527638 1.140072 -1.136849
v 9.504643 1.143442 -1.139848
v 9.493320 1.143398 -1.130570
v 9.506377 1.154830 -1.141963
v 9.494985 1.151931 -1.134233
v 9.520740 1.154151 -1.144117
v 9.517653 1.140147 -1.142676
v 9.551968 1.120644 -1.121965
v 9.491692 1.126586 -1.094041
v 9.496117 1.129558 -1.058697
v 9.570429 1.119068 -1.095305
v 9.519344 1.126153 -1.114029
v 9.456767 1.061575 -1.038888
v 9.544810 1.023715 -1.076733
v 9.491134 1.064462 -1.003020
v 9.475146 1.044134 -1.075102
v 9.539089 1.002463 -1.089632
v 9.497293 1.020059 -1.103027
v 9.532634 0.882179 -1.126205
v 9.551148 0.883363 -1.113150
v 9.523244 0.882872 -1.124827
v 9.520299 0.966413 -1.121387
v 9.550468 0.955525 -1.110752
v 9.519040 0.906771 -1.111008
v 9.551805 0.909988 -1.127516
v 9.526515 0.897119 -1.104147
v 9.527562 0.904852 -1.134738
v 9.538727 0.898583 -1.100901
v 9.542698 0.908939 -1.133866
v 9.520537 0.912054 -1.124885
v 9.550916 0.903671 -1.112329
v 9.571604 0.882379 -1.154140
v 9.560517 0.882157 -1.161974
v 9.545563 0.887199 -1.164280
v 9.572719 0.907721 -1.155332
v 9.576091 0.886766 -1.138032
v 9.575858 0.901404 -1.137211
v 9.544088 0.902584 -1.165749
v 9.563611 0.906672 -1.161682
v 9.556494 1.139943 -1.130482
v 9.482598 1.155572 -1.095837
v 9.620024 1.131688 -1.148809
v 9.633435 1.130895 -1.131450
v 9.494711 1.187333 -1.055695
v 9.530560 1.153349 -1.138399
v 9.492501 1.154132 -1.121691
v 9.519197 1.147149 -1.143396
v 9.494152 1.147664 -1.132402
v 9.505510 1.149136 -1.140905
v 9.606665 1.152313 -1.141177
v 9.603540 1.123839 -1.138822
v 9.617251 1.122258 -1.121923
v 9.619161 1.153913 -1.124568
v 9.603646 1.137524 -1.145039
v 9.635679 1.146349 -1.133478
v 9.627841 1.146863 -1.142071
v 9.615561 1.154554 -1.139333
v 9.624610 1.155751 -1.127722
v 9.557308 1.177751 -1.144338
v 9.560318 1.193949 -1.118522
v 9.553668 1.205366 -1.115850
v 9.523147 1.201345 -1.135928
v 9.549156 1.199563 -1.110593
v 9.555806 1.188146 -1.113265
v 9.546307 1.183139 -1.131999
v 9.535419 1.189452 -1.128759
v 9.457136 0.947451 -0.956332
v 9.401104 0.928538 -1.004915
v 9.427279 0.919461 -1.044404
v 9.452467 0.906495 -1.075510
v 9.509960 0.935435 -1.028874
v 9.488165 0.929724 -0.998943
v 9.436874 0.961324 -0.971778
v 9.444324 0.930049 -0.970526
v 9.433560 0.942344 -1.039956
v 9.455263 0.937207 -1.065781
v 9.466169 0.923413 -1.016655
v 9.480229 0.905988 -1.057016
v 9.470175 0.878138 -1.025029
v 9.454962 0.890396 -0.994561
v 9.475231 0.884956 -1.053027
v 9.430346 0.885118 -1.054387
v 9.411741 0.892981 -1.028951
v 9.446531 0.885463 -1.073130
v 9.508345 0.902753 -1.135868
v 9.504545 0.886703 -1.132806
v 9.486240 0.903139 -1.141942
v 9.482442 0.887090 -1.138880
v 9.532664 0.898836 -1.171618
v 9.527106 0.882787 -1.169163
v 9.489393 0.899223 -1.185000
v 9.483835 0.883174 -1.182546
v 9.418591 0.993758 -0.990521
v 9.452731 0.985034 -0.950282
v 9.405506 0.954225 -0.997685
v 9.442518 0.976262 -0.936257
v 9.459370 0.963647 -0.959399
v 9.449156 0.954874 -0.945373
v 9.428350 0.979992 -0.949587
v 9.428742 0.960179 -0.962498
v 9.428681 0.939410 -0.917256
v 9.437108 0.920007 -0.928828
v 9.407287 0.943825 -0.939392
v 9.410753 0.925848 -0.954367
v 9.370345 0.940232 -0.837144
v 9.390202 0.881518 -0.864413
v 9.347538 0.933734 -0.868427
v 9.353912 0.895102 -0.905195
v 9.349037 0.940993 -0.807883
v 9.356294 0.912292 -0.817848
v 9.339311 0.938756 -0.815625
v 9.336431 0.918784 -0.831191
v 9.415333 0.892593 -0.898924
v 9.401181 0.939257 -0.879491
v 9.380376 0.933465 -0.905189
v 9.384445 0.902306 -0.931768
v 9.480021 0.895472 -1.053353
v 9.471803 0.900776 -1.018198
v 9.403438 0.911367 -1.013980
v 9.427190 0.902290 -1.050578
v 9.452620 0.910830 -0.975248
v 9.448097 0.895979 -1.075340
v 9.506169 0.894728 -1.134432
v 9.481175 0.895115 -1.141504
v 9.530923 0.890812 -1.170032
v 9.481933 0.891199 -1.185389
v 9.465136 0.909972 -1.067071
v 9.499649 0.906613 -1.138258
v 9.459133 0.883393 -1.064303
v 9.495514 0.884902 -1.135738
v 9.447577 0.879083 -1.041687
v 9.501555 0.900734 -1.190417
v 9.525689 0.900654 -1.183721
v 9.513037 0.903738 -1.182297
v 9.515891 0.881919 -1.183961
v 9.492552 0.882362 -1.188437
v 9.503120 0.882099 -1.181568
v 9.497268 0.891103 -1.191106
v 9.522103 0.890907 -1.183371
v 9.552716 1.203636 -1.120067
v 9.557900 1.194736 -1.122150
v 9.550495 1.190832 -1.136755
v 9.542006 1.195754 -1.134230
v 9.521009 0.899825 -1.111684
v 9.528205 0.890176 -1.104965
v 9.521891 0.897463 -1.124856
v 9.551032 0.893517 -1.112739
v 9.528299 0.897159 -1.134003
v 9.539516 0.892406 -1.102318
v 9.572161 0.895050 -1.154736
v 9.575974 0.894085 -1.137622
v 9.544826 0.894892 -1.165015
v 9.562064 0.894414 -1.161828
v 9.585381 0.899825 -1.064809
v 9.576777 0.890176 -1.069596
v 9.597646 0.897463 -1.069692
v 9.577169 0.893517 -1.093707
v 9.604384 0.897159 -1.078599
v 9.570786 0.892406 -1.079549
v 9.610652 0.895050 -1.126707
v 9.593193 0.894085 -1.125083
v 9.628825 0.894892 -1.103847
v 9.620502 0.894414 -1.119275
vn -0.0231 -0.9997 0.0036
vn 0.7445 0.1928 0.6392
vn 0.5777 -0.4027 -0.7100
vn 0.5298 -0.6327 -0.5648
vn 0.7424 -0.0548 0.6677
vn 0.7594 0.5629 0.3261
vn -0.6755 -0.2620 0.6893
vn 0.5591 -0.3750 0.7394
vn -0.2989 0.2664 -0.9164
vn -0.5880 0.4438 0.6762
vn -0.1717 0.1145 0.9785
vn 0.5824 -0.3652 0.7262
vn -0.0227 -0.9833 0.1806
vn 0.9368 -0.1504 -0.3160
vn -0.4763 0.3861 0.7900
vn 0.7485 -0.6330 -0.1976
vn -0.2504 0.7126 0.6553
vn 0.0759 -0.9027 0.4236
vn 0.3213 -0.1072 0.9409
vn 0.2230 -0.2936 0.9296
vn 0.8207 -0.2062 0.5329
vn 0.8212 0.3098 0.4792
vn 0.2749 -0.1533 0.9492
vn 0.2548 0.4778 0.8407
vn -0.5299 0.6445 0.5512
vn -0.2876 0.9436 -0.1644
vn 0.6421 0.7549 -0.1336
vn -0.1428 0.9822 0.1223
vn 0.4544 0.4936 0.7416
vn 0.0112 0.9899 0.1410
vn -0.7228 0.5166 0.4591
vn 0.7796 0.5485 -0.3023
vn 0.8825 0.0790 -0.4637
vn 0.9069 0.0643 -0.4164
vn 0.8526 0.0135 -0.5224
vn 0.9012 0.0455 -0.4309
vn -0.3742 -0.1886 -0.9080
vn -0.0431 -0.9763 -0.2121
vn 0.3834 -0.3148 0.8683
vn 0.3918 -0.1423 0.9090
vn -0.3520 -0.3362 -0.8735
vn 0.9129 0.0478 -0.4055
vn 0.7726 0.0089 -0.6348
vn 0.8919 0.0637 -0.4476
vn -0.7482 0.4043 0.5260
vn 0.4343 0.2814 0.8557
vn -0.3892 0.0351 -0.9205
vn 0.6086 0.1833 -0.7720
vn 0.8525 -0.2272 0.4708
vn 0.1462 -0.9850 -0.0916
vn -0.2018 -0.6304 -0.7496
vn 0.9390 0.1121 0.3252
vn 0.8474 0.0521 0.5284
vn -0.0198 -0.9991 -0.0382
vn 0.6618 -0.7356 0.1444
vn -0.2092 -0.2711 0.9395
vn 0.3242 -0.8917 0.3158
vn -0.8708 -0.1954 0.4511
vn -0.4119 0.8557 -0.3133
vn 0.6063 0.2265 -0.7623
vn -0.6093 -0.5849 0.5353
vn 0.9961 0.0687 0.0553
vn 0.3181 -0.5238 0.7902
vn 0.8538 -0.1162 0.5074
vn -0.5751 0.0584 -0.8160
vn -0.3200 0.1669 0.9326
vn 0.6455 0.4550 0.6134
vn 0.2462 0.3696 0.8960
vn 0.7165 0.2301 0.6585
vn -0.2144 -0.9633 0.1614
vn 0.8668 -0.2852 0.4090
vn 0.7501 -0.0230 0.6610
vn 0.4142 -0.0567 0.9084
vn 0.2434 0.5927 0.7677
vn -0.2978 -0.9520 0.0714
vn 0.9613 -0.2685 0.0623
vn -0.0247 -0.9920 -0.1238
vn 0.5206 0.5836 0.6232
vn 0.8083 0.1417 -0.5715
vn 0.7929 0.3184 0.5196
vn -0.4725 0.3504 0.8087
vn -0.8890 -0.2031 -0.4105
vn 0.8489 -0.0816 0.5222
vn -0.0289 -0.7926 0.6091
vn -0.1680 -0.9857 -0.0093
vn 0.8509 0.0447 0.5235
vn -0.4314 -0.3402 -0.8355
vn 0.8078 -0.0954 0.5817
vn -0.2296 0.8047 0.5475
vn 0.7548 0.1886 0.6283
vn -0.9157 -0.0472 -0.3990
vn -0.9476 0.0165 -0.3192
vn 0.7948 0.0268 0.6063
vn 0.5998 -0.0571 -0.7981
vn -0.9061 -0.0450 0.4206
vn 0.9784 -0.0300 -0.2047
vn -0.3718 -0.1395 0.9178
vn 0.6422 -0.0460 0.7652
vn -0.4189 -0.0150 -0.9079
vn -0.0695 -0.0236 -0.9973
vn 0.8888 -0.0357 -0.4570
vn 0.5983 -0.0634 -0.7988
vn 0.7068 -0.1281 0.6957
vn 0.2510 0.9596 0.1269
vn 0.1159 0.9933 0.0026
vn -0.8906 -0.0239 -0.4542
vn -0.1814 -0.9710 -0.1555
vn 0.9866 -0.1586 0.0375
vn 0.3585 -0.0388 0.9327
vn 0.7226 -0.0132 0.6912
vn 0.9137 -0.2371 0.3300
vn -0.3293 0.1702 0.9288
vn 0.9247 -0.2349 -0.2997
vn 0.7493 0.3644 0.5530
vn -0.1427 0.1828 0.9728
vn -0.5826 0.3505 0.7333
vn 0.7498 -0.0918 0.6552
vn -0.0340 -0.9855 0.1662
vn 0.6410 -0.2520 0.7250
vn 0.5598 0.8003 -0.2148
vn 0.5359 0.8115 -0.2330
vn 0.9539 -0.0932 -0.2854
vn -0.2677 0.9586 0.0974
vn 0.6835 0.6676 -0.2951
vn 0.6819 0.6404 -0.3534
vn 0.6848 0.7274 0.0434
vn 0.5659 0.8245 0.0054
vn 0.5195 -0.2129 0.8275
vn -0.5614 0.1433 -0.8151
vn -0.5684 0.6868 0.4531
vn 0.5620 -0.6845 -0.4644
vn 0.7947 0.0367 0.6059
vn -0.4791 -0.2232 -0.8489
vn 0.7782 0.3408 0.5275
vn 0.2384 -0.9457 -0.2208
vn -0.5423 -0.1344 0.8294
vn 0.8417 0.2920 0.4541
vn 0.5994 0.2206 -0.7694
vn -0.4472 -0.8871 -0.1147
vn 0.7834 0.3055 0.5412
vn -0.4043 -0.8881 -0.2189
vn 0.1188 -0.9759 -0.1831
vn -0.1238 -0.9363 0.3285
vn -0.7088 -0.2745 -0.6498
vn 0.1210 -0.9885 0.0903
vn -0.4080 -0.6498 0.6412
vn 0.8507 -0.0063 0.5256
vn 0.9662 -0.2157 0.1413
vn -0.1553 0.9579 -0.2414
vn -0.5968 -0.0331 -0.8017
vn 0.7094 -0.1060 0.6968
vn -0.0934 -0.9956 0.0010
vn -0.7940 -0.0915 -0.6011
vn 0.3073 -0.1958 0.9313
vn 0.9501 0.3006 0.0836
vn -0.3879 0.6419 0.6614
vn -0.4480 0.0029 0.8940
vn -0.5916 0.0486 0.8048
vn 0.7422 0.3048 0.5968
vn -0.0909 0.9678 0.2349
vn 0.7741 0.3409 0.5334
vn 0.1494 0.9852 0.0837
vn 0.5068 -0.4790 -0.7167
vn -0.4633 0.5220 0.7162
vn -0.0252 -0.8572 0.5143
vn 0.7776 0.4518 0.4373
vn 0.2827 -0.9557 -0.0817
vn -0.5006 -0.4224 0.7556
vn 0.1483 0.9853 0.0852
vn 0.5127 0.1465 0.8459
vn 0.3923 -0.8070 -0.4414
vn 0.7459 0.3308 0.5780
vn -0.0292 0.9923 0.1207
vn 0.3272 0.6126 0.7195
vn -0.7760 -0.1888 -0.6018
vn 0.2487 -0.2968 -0.9220
vn 0.6520 0.4000 0.6442
vn -0.5748 -0.2813 -0.7684
vn 0.8490 0.2572 0.4616
vn -0.5044 -0.4315 0.7479
vn -0.6254 0.2436 -0.7413
vn -0.5138 0.1715 -0.8406
vn 0.7874 0.2011 0.5827
vn 0.1654 0.9754 0.1456
vn -0.0276 -0.9926 0.1185
vn 0.2614 -0.4424 -0.8579
vn 0.1950 0.9709 0.1393
vn -0.0635 -0.9928 -0.1018
vn 0.2223 -0.9732 0.0595
vn 0.4490 0.8420 -0.2991
vn 0.0173 -0.9998 0.0118
vn 0.8225 -0.0974 -0.5604
vn 0.8210 -0.2545 -0.5111
vn -0.1251 0.9616 -0.2444
vn 0.7102 0.6852 -0.1616
vn 0.0133 0.2935 -0.9559
vn -0.4385 0.7708 0.4622
vn 0.6378 -0.5878 -0.4976
vn 0.6707 0.1452 -0.7274
vn 0.9393 -0.0950 0.3295
vn 0.0037 -0.9997 0.0231
vn -0.8369 0.1928 -0.5123
vn 0.4984 -0.4027 -0.7677
vn 0.3749 -0.6327 -0.6776
vn -0.8634 -0.0548 -0.5016
vn 0.0935 0.5041 -0.8586
vn -0.8510 -0.4132 0.3240
vn -0.2859 -0.4032 -0.8693
vn 0.6146 0.3470 0.7084
vn -0.9404 0.3195 0.1165
vn -0.9326 0.0526 -0.3570
vn -0.3006 -0.4432 -0.8445
vn -0.1242 -0.9923 0.0001
vn 0.7635 -0.1657 -0.6242
vn -0.6056 0.3861 0.6958
vn 0.6137 -0.6181 -0.4913
vn -0.5468 0.7126 0.4395
vn -0.2835 -0.9344 -0.2157
vn -0.6305 -0.1912 -0.7522
vn -0.5717 -0.3673 -0.7336
vn -0.7591 -0.2062 -0.6174
vn -0.7081 0.3098 -0.6345
vn -0.9877 -0.1533 0.0297
vn -0.6044 0.4019 -0.6878
vn -0.7732 0.6230 0.1184
vn -0.0495 0.9646 0.2591
vn 0.4163 0.7349 -0.5353
vn -0.2201 0.9753 -0.0154
vn -0.4167 0.4166 -0.8080
vn -0.1564 0.9751 -0.1570
vn -0.7896 0.5107 0.3401
vn 0.6404 0.5362 -0.5499
vn 0.8515 0.0762 -0.5188
vn 0.8245 0.0570 -0.5629
vn 0.8888 0.0167 -0.4580
vn 0.8348 0.0396 -0.5492
vn 0.5874 -0.1037 0.8026
vn 0.1998 -0.9548 0.2199
vn -0.5274 -0.3952 -0.7520
vn -0.5652 -0.2268 -0.7932
vn 0.5758 -0.2543 0.7770
vn 0.8190 0.0395 -0.5725
vn 0.9432 0.0239 -0.3314
vn 0.8434 0.0594 -0.5340
vn -0.8552 0.3948 0.3357
vn -0.5155 0.1976 -0.8338
vn 0.5808 0.1208 0.8050
vn 0.5480 0.1833 -0.8162
vn -0.7097 -0.2272 -0.6668
vn 0.0423 -0.9850 -0.1673
vn 0.7753 -0.6304 -0.0381
vn -0.5978 0.1121 -0.7938
vn -0.7630 0.0521 -0.6443
vn 0.0425 -0.9991 0.0071
vn -0.3406 -0.7356 -0.5855
vn -0.8299 -0.2711 0.4875
vn -0.4000 -0.8917 -0.2116
vn -0.1620 -0.1954 0.9672
vn 0.4246 0.8557 0.2959
vn 0.5394 0.2265 -0.8110
vn -0.3225 -0.5849 0.7442
vn -0.3584 0.0687 -0.9310
vn -0.8497 -0.5238 -0.0602
vn -0.7450 -0.1162 -0.6569
vn 0.9531 0.0584 0.2969
vn -0.9689 0.1095 -0.2217
vn -0.2063 0.3798 -0.9018
vn -0.6515 0.2903 -0.7009
vn -0.1983 0.1493 -0.9687
vn -0.2068 -0.9440 -0.2569
vn 0.1145 -0.3517 -0.9291
vn -0.1722 -0.1045 -0.9795
vn -0.5566 -0.1424 -0.8185
vn -0.5531 0.5224 -0.6490
vn -0.1756 -0.9412 0.2887
vn 0.4587 -0.3129 -0.8317
vn 0.1348 -0.9779 0.1598
vn -0.7712 -0.0335 -0.6357
vn 0.6314 -0.1333 -0.7640
vn -0.4761 0.1177 -0.8715
vn -0.8544 0.3486 0.3852
vn 0.6635 -0.2031 0.7201
vn -0.7576 -0.0816 -0.6476
vn -0.5708 -0.7926 0.2144
vn 0.0605 -0.9857 0.1570
vn -0.7594 0.0447 -0.6491
vn 0.9276 -0.3402 0.1541
vn -0.8016 -0.0954 -0.5902
vn -0.4506 0.8047 0.3866
vn -0.8296 0.1886 -0.5255
vn 0.6609 -0.0472 0.7490
vn 0.5946 0.0165 0.8038
vn -0.8210 0.0268 -0.5703
vn 0.5754 -0.0571 -0.8159
vn -0.1221 -0.0450 0.9915
vn -0.1055 -0.0300 -0.9940
vn -0.7594 -0.1395 0.6356
vn -0.9254 -0.0460 -0.3763
vn 0.9927 -0.0150 0.1200
vn 0.9705 -0.0236 -0.2400
vn 0.1621 -0.0357 -0.9861
vn 0.5766 -0.0634 -0.8146
vn -0.8791 -0.1281 -0.4591
vn -0.1978 0.9596 -0.1999
vn -0.0380 0.9933 -0.1095
vn 0.7056 -0.0239 0.7082
vn 0.2037 -0.9710 0.1250
vn 0.4884 -0.2026 -0.8488
vn -0.6071 -0.1241 -0.7849
vn -0.2127 -0.0958 -0.9724
vn 0.2043 -0.2997 -0.9319
vn -0.9706 0.1135 -0.2121
vn 0.7469 -0.2506 -0.6159
vn -0.0969 0.2896 -0.9522
vn -0.9315 0.0959 -0.3508
vn -0.9549 0.2966 0.0132
vn -0.1645 -0.1725 -0.9712
vn -0.1177 -0.9929 0.0173
vn -0.2739 -0.3327 -0.9024
vn 0.4407 0.7898 -0.4266
vn 0.4433 0.8033 -0.3977
vn 0.7439 -0.1117 -0.6589
vn -0.2630 0.9590 0.1058
vn 0.5792 0.6584 -0.4807
vn 0.6292 0.6357 -0.4471
vn 0.2887 0.6925 -0.6612
vn 0.2551 0.7970 -0.5474
vn -0.4262 -0.2964 -0.8547
vn 0.3967 0.2279 0.8892
vn -0.7113 0.6742 0.1988
vn 0.7176 -0.6707 -0.1876
vn -0.8206 0.0367 -0.5703
vn 0.9550 -0.2232 0.1954
vn -0.7409 0.3408 -0.5788
vn 0.1369 -0.9457 -0.2947
vn -0.6229 -0.1344 0.7707
vn -0.6906 0.2920 -0.6617
vn 0.5483 0.2206 -0.8067
vn 0.2465 -0.8871 0.3904
vn -0.7556 0.3055 -0.5795
vn 0.3324 -0.8881 0.3176
vn 0.1378 -0.9759 -0.1693
vn -0.2747 -0.9363 0.2187
vn 0.8360 -0.2745 0.4751
vn -0.1231 -0.9885 -0.0875
vn -0.4850 -0.6498 0.5852
vn -0.7614 -0.0063 -0.6483
vn -0.4310 -0.2157 -0.8762
vn 0.2774 0.9579 0.0737
vn 0.9462 -0.0331 0.3219
vn -0.8809 -0.1060 -0.4613
vn 0.0277 -0.9956 0.0892
vn 0.8158 -0.0915 0.5711
vn -0.9806 -0.1958 -0.0066
vn -0.3712 0.3006 -0.8785
vn -0.5104 0.6419 0.5722
vn -0.7133 0.0029 0.7008
vn -0.5843 0.0486 0.8101
vn -0.7958 0.3048 -0.5232
vn -0.1956 0.9678 0.1586
vn -0.7453 0.3409 -0.5730
vn -0.1255 0.9852 -0.1165
vn 0.5265 -0.4790 -0.7024
vn -0.5394 0.5220 0.6607
vn -0.4817 -0.8572 0.1818
vn -0.6549 0.4518 -0.6058
vn -0.0090 -0.9557 -0.2942
vn -0.5655 -0.4224 0.7084
vn -0.1266 0.9853 -0.1150
vn -0.9625 0.1465 -0.2283
vn 0.2997 -0.8070 -0.5088
vn -0.7791 0.3308 -0.5325
vn -0.1059 0.9923 0.0649
vn -0.7852 0.6126 -0.0905
vn 0.8110 -0.1888 0.5538
vn 0.8011 -0.2968 -0.5197
vn -0.8132 0.4000 -0.4227
vn 0.9078 -0.2813 0.3112
vn -0.7000 0.2572 -0.6663
vn -0.5570 -0.4315 0.7096
vn 0.8975 0.2436 0.3677
vn 0.9577 0.1715 0.2309
vn -0.7963 0.2011 -0.5705
vn -0.1894 0.9754 -0.1127
vn -0.1043 -0.9926 0.0627
vn 0.7362 -0.4424 -0.5121
vn -0.1924 0.9709 -0.1428
vn 0.1164 -0.9928 0.0292
vn -0.1249 -0.9732 -0.1933
vn 0.1468 0.8420 -0.5191
vn -0.0165 -0.9998 -0.0129
vn 0.2808 -0.0974 -0.9548
vn 0.2344 -0.2545 -0.9382
vn 0.2710 0.9616 0.0440
vn 0.4786 0.6647 -0.5737
vn 0.8096 0.3638 0.4606
vn -0.6550 0.7517 0.0770
vn 0.7813 -0.5752 -0.2424
vn 0.4864 0.1452 -0.8616
vn 0.2120 -0.1592 -0.9642
vn 0.7070 -0.0238 0.7068
vn 0.5760 -0.0633 -0.8150
vn 0.1969 -0.0369 -0.9797
vn 0.9799 -0.0235 -0.1982
vn 0.6833 -0.0437 0.7289
vn -0.8303 -0.0967 -0.5488
vn -0.2079 -0.2024 0.9570
vn -0.8211 -0.2704 0.5027
vn -0.9836 -0.1486 -0.1026
vn -0.8897 -0.0238 -0.4559
vn 0.5988 -0.0633 -0.7984
vn 0.8720 -0.0369 -0.4882
vn -0.1122 -0.0235 -0.9934
vn -0.9034 -0.0437 -0.4265
vn 0.7772 -0.0967 0.6218
vn -0.8469 -0.2024 0.4917
vn -0.2264 -0.2704 0.9357
vn 0.3995 -0.1486 0.9046
vt 0.900301 0.042009
vt 0.919948 0.040622
vt 0.925882 0.090297
vt 0.906235 0.091684
vt 0.428130 0.174778
vt 0.377988 0.136523
vt 0.426166 0.103592
vt 0.477863 0.135394
vt 0.017425 0.760478
vt 0.015337 0.694388
vt 0.078128 0.666573
vt 0.080215 0.750996
vt 0.004296 0.766382
vt 0.000000 0.696682
vt 0.478273 0.213034
vt 0.543044 0.163540
vt 0.581589 0.209512
vt 0.511731 0.244177
vt 0.605700 0.201664
vt 0.597096 0.230581
vt 0.591181 0.227741
vt 0.596488 0.207086
vt 0.118341 0.564400
vt 0.066726 0.571691
vt 0.056516 0.521711
vt 0.116477 0.507202
vt 0.386374 0.064167
vt 0.341209 0.084136
vt 0.324361 0.070367
vt 0.377052 0.039469
vt 0.678775 0.892399
vt 0.654862 0.881157
vt 0.667540 0.864663
vt 0.678775 0.862800
vt 0.112170 0.480558
vt 0.049240 0.498196
vt 0.041003 0.469782
vt 0.106901 0.449013
vt 0.021037 0.539703
vt 0.017294 0.526254
vt 0.620599 0.215823
vt 0.637700 0.228424
vt 0.621432 0.248268
vt 0.609141 0.238679
vt 0.793817 0.081186
vt 0.799857 0.050294
vt 0.824058 0.050089
vt 0.818948 0.073962
vt 0.346336 0.918904
vt 0.348269 0.950839
vt 0.332534 0.950980
vt 0.331305 0.926472
vt 0.500268 0.475887
vt 0.505469 0.550882
vt 0.439411 0.548440
vt 0.444838 0.474645
vt 0.272982 0.393429
vt 0.226154 0.399077
vt 0.223008 0.385506
vt 0.273358 0.374543
vt 0.937902 0.925670
vt 0.892472 0.924475
vt 0.901786 0.856826
vt 0.942559 0.853244
vt 0.082781 0.915059
vt 0.097179 0.975618
vt 0.068292 0.942991
vt 0.061271 0.913458
vt 0.673473 0.851986
vt 0.673473 0.832366
vt 0.686076 0.834972
vt 0.686076 0.854591
vt 0.432769 0.052341
vt 0.430174 0.000000
vt 0.444016 0.255533
vt 0.455035 0.267469
vt 0.527050 0.300786
vt 0.486030 0.319827
vt 0.379021 0.371501
vt 0.394408 0.364619
vt 0.395186 0.373686
vt 0.383238 0.389762
vt 0.631926 0.055359
vt 0.665474 0.028081
vt 0.692430 0.037321
vt 0.637117 0.068847
vt 0.038932 0.444272
vt 0.086712 0.438281
vt 0.746692 0.272644
vt 0.715410 0.309409
vt 0.695244 0.305549
vt 0.751067 0.248268
vt 0.749632 0.342008
vt 0.756772 0.358452
vt 0.626231 0.432088
vt 0.615362 0.432088
vt 0.615666 0.420311
vt 0.626069 0.420017
vt 0.620416 0.006481
vt 0.611979 0.029871
vt 0.591181 0.006098
vt 0.599765 0.000000
vt 0.120245 0.849319
vt 0.120245 0.880967
vt 0.109917 0.881027
vt 0.109917 0.849379
vt 0.076662 0.393162
vt 0.043084 0.396414
vt 0.050927 0.376263
vt 0.062216 0.375877
vt 0.736703 0.975031
vt 0.768648 0.974950
vt 0.781258 0.977820
vt 0.733801 0.977633
vt 0.745305 0.920580
vt 0.742356 0.920407
vt 0.735033 0.918597
vt 0.747101 0.918115
vt 0.737151 0.948180
vt 0.733801 0.948234
vt 0.759445 0.947288
vt 0.767785 0.947311
vt 0.746490 0.201395
vt 0.724194 0.202230
vt 0.729763 0.174415
vt 0.732711 0.174595
vt 0.685449 0.757003
vt 0.685610 0.786088
vt 0.675369 0.786569
vt 0.675227 0.757490
vt 0.322397 0.384540
vt 0.319483 0.384986
vt 0.319483 0.374989
vt 0.322397 0.374543
vt 0.793653 0.741451
vt 0.793768 0.713866
vt 0.804034 0.713526
vt 0.803905 0.741138
vt 0.793768 0.768600
vt 0.804034 0.768260
vt 0.685610 0.728024
vt 0.675369 0.728504
vt 0.755915 0.229024
vt 0.723970 0.229024
vt 0.678697 0.921965
vt 0.629953 0.924007
vt 0.276865 0.543194
vt 0.247542 0.544411
vt 0.279409 0.470358
vt 0.426805 0.259331
vt 0.426798 0.228130
vt 0.313078 0.552345
vt 0.316611 0.594667
vt 0.297148 0.602897
vt 0.297148 0.527652
vt 0.750919 0.514775
vt 0.709850 0.522993
vt 0.686161 0.520814
vt 0.745964 0.479991
vt 0.354924 0.214554
vt 0.342352 0.243733
vt 0.336071 0.168558
vt 0.390861 0.221342
vt 0.930166 0.024758
vt 0.897249 0.027276
vt 0.597919 0.431805
vt 0.591181 0.438398
vt 0.591181 0.420447
vt 0.604489 0.420017
vt 0.134219 0.792732
vt 0.147441 0.807609
vt 0.148504 0.817712
vt 0.135737 0.802862
vt 0.888734 0.031098
vt 0.886573 0.081908
vt 0.163877 0.805002
vt 0.163424 0.813908
vt 0.568959 0.862800
vt 0.582997 0.879219
vt 0.589007 0.929741
vt 0.567764 0.914288
vt 0.266142 0.617653
vt 0.247970 0.618407
vt 0.121721 0.664370
vt 0.164329 0.667131
vt 0.162216 0.725725
vt 0.143992 0.724882
vt 0.297148 0.519077
vt 0.283397 0.601984
vt 0.413484 0.287647
vt 0.382427 0.288346
vt 0.361997 0.284781
vt 0.799571 0.509664
vt 0.791698 0.587595
vt 0.760945 0.590428
vt 0.004424 0.541537
vt 0.002212 0.535232
vt 0.659299 0.117647
vt 0.680207 0.095481
vt 0.694213 0.104624
vt 0.680513 0.119564
vt 0.706996 0.078988
vt 0.624030 0.128897
vt 0.097179 0.849319
vt 0.067573 0.882621
vt 0.669796 0.164248
vt 0.675707 0.127912
vt 0.701178 0.109565
vt 0.689172 0.125370
vt 0.717973 0.097789
vt 0.711975 0.094581
vt 0.054074 0.933915
vt 0.049454 0.914481
vt 0.659895 0.746597
vt 0.664919 0.728024
vt 0.674992 0.746782
vt 0.675110 0.757234
vt 0.053601 0.894190
vt 0.219393 0.481386
vt 0.076552 0.619378
vt 0.013144 0.624890
vt 0.737776 0.596370
vt 0.341567 0.281215
vt 0.908827 0.000000
vt 0.886573 0.018410
vt 0.896864 0.000072
vt 0.923850 0.004368
vt 0.805768 0.439168
vt 0.366177 0.375375
vt 0.369259 0.384796
vt 0.998220 0.925153
vt 0.998220 0.847952
vt 0.715757 0.672535
vt 0.734396 0.676940
vt 0.730170 0.691148
vt 0.715005 0.681791
vt 0.738621 0.662731
vt 0.716510 0.663278
vt 0.374804 0.353240
vt 0.363094 0.365954
vt 0.271271 0.696371
vt 0.257250 0.696953
vt 0.164329 0.796096
vt 0.146378 0.797505
vt 0.293798 0.700536
vt 0.128781 0.705665
vt 0.132701 0.782601
vt 0.393629 0.355553
vt 0.762133 0.661177
vt 0.776964 0.690096
vt 0.798761 0.696379
vt 0.791754 0.713526
vt 0.774083 0.700394
vt 0.648910 0.951090
vt 0.648938 0.925617
vt 0.660143 0.927228
vt 0.666743 0.949533
vt 0.648436 0.966635
vt 0.666919 0.966635
vt 0.334232 0.404298
vt 0.331149 0.394877
vt 0.599048 0.876815
vt 0.616098 0.862800
vt 0.629953 0.912269
vt 0.605058 0.927337
vt 0.779846 0.679798
vt 0.943910 0.072688
vt 0.659895 0.766429
vt 0.675227 0.767685
vt 0.723970 0.100997
vt 0.708143 0.114507
vt 0.697831 0.131176
vt 0.682913 0.173276
vt 0.692230 0.138869
vt 0.013550 0.512804
vt -0.000000 0.528928
vt 0.361367 0.926204
vt 0.364004 0.950699
vt 0.723970 0.101262
vt 0.732597 0.050864
vt 0.663633 0.341754
vt 0.713443 0.388300
vt 0.644033 0.408888
vt 0.619460 0.390968
vt 0.613152 0.397397
vt 0.630771 0.409802
vt 0.615048 0.420017
vt 0.600461 0.411537
vt 0.325342 0.951002
vt 0.324361 0.934183
vt 0.697719 0.351349
vt 0.718144 0.372012
vt 0.705503 0.343073
vt 0.731753 0.361904
vt 0.919638 0.409481
vt 0.919638 0.428378
vt 0.905331 0.429951
vt 0.905331 0.415218
vt 0.794096 0.920772
vt 0.794096 0.939625
vt 0.781258 0.936968
vt 0.781258 0.918115
vt 0.793653 0.874453
vt 0.794351 0.846355
vt 0.804157 0.842407
vt 0.804157 0.872857
vt 0.803458 0.768600
vt 0.803710 0.802746
vt 0.793653 0.806626
vt 0.793653 0.770281
vt 0.529002 0.359965
vt 0.584096 0.331476
vt 0.567299 0.363652
vt 0.528847 0.385959
vt 0.924198 0.521475
vt 0.923127 0.574678
vt 0.907478 0.574369
vt 0.892472 0.534586
vt 0.590395 0.265815
vt 0.319483 0.411233
vt 0.316577 0.448731
vt 0.299367 0.451469
vt 0.297148 0.414052
vt 0.351900 0.522075
vt 0.349827 0.442551
vt 0.387097 0.453141
vt 0.377052 0.548389
vt 0.531292 0.333666
vt 0.484638 0.366039
vt 0.121267 0.664371
vt 0.116115 0.683509
vt 0.121721 0.707148
vt 0.187040 0.798971
vt 0.200228 0.725303
vt 0.230292 0.714829
vt 0.228952 0.795253
vt 0.591181 0.303860
vt 0.167404 0.862401
vt 0.231263 0.846691
vt 0.887688 0.524599
vt 0.881048 0.562231
vt 0.853200 0.569328
vt 0.848501 0.534676
vt 0.883719 0.472427
vt 0.819176 0.540690
vt 0.807565 0.494814
vt 0.929957 0.452406
vt 0.903847 0.484046
vt 0.831744 0.573850
vt 0.866621 0.682517
vt 0.847426 0.679215
vt 0.805768 0.464865
vt 0.892472 0.439168
vt 0.490132 0.380195
vt 0.497469 0.394088
vt 0.738401 0.122802
vt 0.740205 0.101262
vt 0.752176 0.104792
vt 0.751807 0.116732
vt 0.934478 0.101413
vt 0.960518 0.105239
vt 0.957919 0.220719
vt 0.945010 0.223156
vt 0.938980 0.577942
vt 0.949873 0.699293
vt 0.937847 0.697950
vt 0.394377 0.418930
vt 0.388334 0.408275
vt 0.869563 0.758014
vt 0.853387 0.748155
vt 0.880613 0.682748
vt 0.892472 0.743927
vt 0.952182 0.759084
vt 0.940165 0.757693
vt 0.335380 0.439168
vt 0.329253 0.428492
vt 0.724294 0.128639
vt 0.728169 0.111749
vt 0.431431 0.546851
vt 0.424311 0.519563
vt 0.397309 0.511495
vt 0.400874 0.548938
vt 0.389169 0.679180
vt 0.421538 0.689846
vt 0.377027 0.724117
vt 0.346101 0.708906
vt 0.472930 0.970401
vt 0.477405 0.942229
vt 0.501975 0.942590
vt 0.498726 0.970593
vt 0.386461 0.663261
vt 0.415262 0.666687
vt 0.786409 0.855593
vt 0.739620 0.842707
vt 0.739690 0.766318
vt 0.793653 0.784121
vt 0.832089 0.053872
vt 0.824058 0.021433
vt 0.877106 0.000000
vt 0.886573 0.042240
vt 0.905331 0.368208
vt 0.899757 0.395770
vt 0.844731 0.391953
vt 0.851461 0.348907
vt 0.579847 0.753665
vt 0.505469 0.766506
vt 0.549871 0.659501
vt 0.583353 0.662606
vt 0.324361 0.757408
vt 0.377887 0.783965
vt 0.395495 0.845500
vt 0.327654 0.806888
vt 0.583314 0.811726
vt 0.521217 0.821007
vt 0.306582 0.884154
vt 0.314368 0.900577
vt 0.275236 0.913551
vt 0.275236 0.877462
vt 0.739736 0.713526
vt 0.757932 0.714483
vt 0.421538 0.918904
vt 0.388540 0.905773
vt 0.589509 0.857077
vt 0.538133 0.862800
vt 0.783574 0.918115
vt 0.739519 0.910748
vt 0.383125 0.397831
vt 0.324361 0.418127
vt 0.925832 0.696546
vt 0.928105 0.756530
vt 0.956311 0.773069
vt 0.941866 0.773034
vt 0.324361 0.529391
vt 0.325274 0.439168
vt 0.956311 0.439168
vt 0.956247 0.513047
vt 0.987111 0.291457
vt 0.966895 0.287404
vt 0.978015 0.217772
vt 1.000000 0.277044
vt 0.835509 0.751702
vt 0.826707 0.739106
vt 0.740165 0.174415
vt 0.738373 0.159880
vt 0.751690 0.151229
vt 0.752176 0.169384
vt 0.982514 0.109037
vt 0.951031 0.297222
vt 0.723970 0.164557
vt 0.934478 0.285576
vt 0.680494 0.687131
vt 0.671682 0.686231
vt 0.671682 0.659501
vt 0.684387 0.663140
vt 0.932364 0.429144
vt 0.932364 0.409481
vt 0.944904 0.409563
vt 0.944904 0.424892
vt 0.659895 0.693938
vt 0.659895 0.659652
vt 0.097179 0.912859
vt 0.097179 0.881822
vt 0.109624 0.888097
vt 0.109624 0.912293
vt 0.210011 0.905198
vt 0.202664 0.954649
vt 0.183262 0.951849
vt 0.190609 0.902398
vt 0.145495 0.140745
vt 0.094011 0.116438
vt 0.139839 0.071251
vt 0.188767 0.089758
vt 0.078128 0.831538
vt 0.015337 0.822687
vt 0.000000 0.826497
vt 0.102224 0.191732
vt 0.083948 0.230720
vt 0.009793 0.216773
vt 0.034168 0.161873
vt 0.547484 0.632050
vt 0.551698 0.641016
vt 0.542571 0.659501
vt 0.535529 0.658788
vt 0.166000 0.546388
vt 0.158263 0.565247
vt 0.229396 0.020058
vt 0.227166 0.000000
vt 0.283917 0.014927
vt 0.275697 0.028026
vt 0.905362 0.377684
vt 0.905331 0.348907
vt 0.916551 0.351023
vt 0.930096 0.366516
vt 0.165651 0.466968
vt 0.167404 0.522678
vt 0.529732 0.444963
vt 0.532240 0.477562
vt 0.518384 0.474439
vt 0.505469 0.439168
vt 0.526161 0.634099
vt 0.520401 0.658039
vt 0.505469 0.656308
vt 0.505558 0.631579
vt 0.793817 0.019039
vt 0.818948 0.025889
vt 0.346336 0.981698
vt 0.331305 0.974398
vt 0.500268 0.627970
vt 0.444838 0.623235
vt 0.179936 0.401735
vt 0.173373 0.388500
vt 0.146385 0.664370
vt 0.073923 0.664370
vt 0.144222 0.618145
vt 0.015019 0.912521
vt 0.037886 0.910964
vt 0.030562 0.940472
vt -0.000000 0.973030
vt 0.932364 0.429079
vt 0.919638 0.431266
vt 0.919638 0.411669
vt 0.932364 0.409481
vt 0.179676 0.019940
vt 0.161024 0.000974
vt 0.154379 0.222650
vt 0.147379 0.237172
vt 0.115197 0.296897
vt 0.068060 0.290157
vt 0.163952 0.949973
vt 0.161468 0.971102
vt 0.150062 0.956466
vt 0.151972 0.946520
vt 0.620750 0.508521
vt 0.606500 0.517426
vt 0.586674 0.455550
vt 0.613401 0.465798
vt 0.158615 0.441570
vt 0.113658 0.437672
vt 0.726192 0.253149
vt 0.690470 0.285693
vt 0.640902 0.248268
vt 0.656772 0.253705
vt 0.604489 0.431932
vt 0.604489 0.420017
vt 0.614898 0.420326
vt 0.615362 0.432087
vt 0.662727 0.477402
vt 0.683709 0.484418
vt 0.686161 0.494694
vt 0.653368 0.501151
vt 0.793653 0.874453
vt 0.803990 0.874590
vt 0.803990 0.905735
vt 0.793653 0.905598
vt 0.109339 0.392424
vt 0.115971 0.374664
vt 0.127109 0.374543
vt 0.141856 0.394184
vt 0.730849 0.974209
vt 0.733707 0.976672
vt 0.686161 0.978719
vt 0.699459 0.975475
vt 0.722366 0.920488
vt 0.720597 0.918115
vt 0.732656 0.918115
vt 0.725334 0.920203
vt 0.730487 0.947572
vt 0.733801 0.947488
vt 0.708427 0.947603
vt 0.699901 0.947927
vt 0.482264 0.886495
vt 0.495977 0.859371
vt 0.498946 0.859093
vt 0.504323 0.886520
vt 0.312712 0.632776
vt 0.323103 0.632873
vt 0.323220 0.662341
vt 0.312845 0.662218
vt 0.319483 0.395026
vt 0.319483 0.384986
vt 0.322266 0.385540
vt 0.322266 0.395580
vt 0.670294 0.794415
vt 0.659895 0.794233
vt 0.660066 0.767686
vt 0.670446 0.767860
vt 0.670446 0.821090
vt 0.660066 0.820915
vt 0.312845 0.602897
vt 0.323220 0.603021
vt 0.472930 0.914299
vt 0.504323 0.913113
vt 0.905331 0.406572
vt 0.954393 0.409481
vt 0.167404 0.560072
vt 0.167404 0.487628
vt 0.195478 0.552439
vt 0.175747 0.221323
vt 0.159603 0.191709
vt 0.313311 0.500781
vt 0.297148 0.527652
vt 0.297148 0.451469
vt 0.316781 0.458418
vt 0.206000 0.568895
vt 0.235103 0.545921
vt 0.238813 0.612266
vt 0.211027 0.597159
vt 0.230591 0.158369
vt 0.243844 0.108564
vt 0.258045 0.182546
vt 0.195097 0.175039
vt 0.181008 0.885743
vt 0.213211 0.890584
vt 0.224293 0.882486
vt 0.224251 0.895456
vt 0.135483 0.969856
vt 0.136955 0.959888
vt 0.224293 0.946535
vt 0.122557 0.964562
vt 0.122419 0.955625
vt 0.566527 0.862800
vt 0.567764 0.914291
vt 0.546010 0.929681
vt 0.551979 0.879154
vt 0.188982 0.627502
vt 0.171583 0.632233
vt 0.163952 0.819484
vt 0.145689 0.877817
vt 0.130362 0.876864
vt 0.121721 0.817712
vt 0.278553 0.257496
vt 0.259561 0.242417
vt 0.301810 0.602897
vt 0.312712 0.673962
vt 0.297148 0.684346
vt 0.297148 0.625632
vt 0.238553 0.252795
vt 0.217545 0.263174
vt 0.844624 0.767166
vt 0.834099 0.842015
vt 0.812387 0.835855
vt 0.805768 0.758014
vt 0.524452 0.489151
vt 0.517934 0.487477
vt 0.557141 0.540595
vt 0.538906 0.529505
vt 0.537678 0.510221
vt 0.555344 0.510934
vt 0.546096 0.480685
vt 0.578029 0.569869
vt 0.000000 0.849319
vt 0.030562 0.880142
vt 0.521458 0.564879
vt 0.538353 0.537110
vt 0.529187 0.509373
vt 0.528474 0.528336
vt 0.530970 0.490825
vt 0.049454 0.912048
vt 0.044634 0.931465
vt 0.673384 0.839765
vt 0.660027 0.849921
vt 0.660159 0.839485
vt 0.668156 0.821090
vt 0.044634 0.891766
vt 0.891778 0.774893
vt 0.864109 0.846749
vt 0.202778 0.862401
vt 0.218203 0.863889
vt 0.188845 0.865876
vt 0.259294 0.353421
vt 0.259716 0.364671
vt 0.246012 0.374543
vt 0.244183 0.353252
vt 0.980519 0.773069
vt 0.921413 0.784001
vt 0.878509 0.924976
vt 0.878975 0.934253
vt 0.860218 0.944049
vt 0.856622 0.929666
vt 0.878043 0.915699
vt 0.853025 0.915283
vt 0.258871 0.342171
vt 0.242354 0.331961
vt 0.197318 0.706194
vt 0.183895 0.709844
vt 0.138426 0.949921
vt 0.122282 0.946689
vt 0.276648 0.336335
vt 0.163027 0.860339
vt 0.153881 0.936573
vt 0.229572 0.340135
vt 0.213768 0.639975
vt 0.218030 0.714829
vt 0.384010 0.959507
vt 0.373441 0.959507
vt 0.366333 0.935605
vt 0.384776 0.934265
vt 0.322748 0.356680
vt 0.321136 0.374543
vt 0.304597 0.367015
vt 0.304175 0.355765
vt 0.364004 0.918904
vt 0.382028 0.919142
vt 0.536005 0.876766
vt 0.530036 0.927293
vt 0.505469 0.912276
vt 0.519284 0.862800
vt 0.808236 0.943014
vt 0.805768 0.932607
vt 0.167404 0.933104
vt 0.673384 0.859572
vt 0.659896 0.860357
vt 0.520696 0.508524
vt 0.518042 0.527167
vt 0.505806 0.562850
vt 0.518548 0.534754
vt 0.361367 0.974130
vt 0.723970 0.000000
vt 0.600407 0.367403
vt 0.615277 0.294951
vt 0.591181 0.397321
vt 0.599942 0.380486
vt 0.324361 0.966952
vt 0.651640 0.307532
vt 0.630277 0.288457
vt 0.658506 0.298382
vt 0.639161 0.273857
vt 0.097179 0.912859
vt 0.111408 0.918902
vt 0.111408 0.933267
vt 0.097179 0.931284
vt 0.403220 0.921859
vt 0.415993 0.918904
vt 0.415993 0.937216
vt 0.403220 0.940170
vt 0.119379 0.908681
vt 0.109917 0.912276
vt 0.109917 0.882707
vt 0.118604 0.881027
vt 0.793653 0.806626
vt 0.804151 0.806630
vt 0.804330 0.842408
vt 0.793653 0.840034
vt 0.069236 0.348171
vt 0.076356 0.373104
vt 0.033282 0.362394
vt 0.010983 0.336041
vt 0.271361 0.894224
vt 0.260133 0.926458
vt 0.225757 0.912732
vt 0.228568 0.896804
vt 0.000000 0.274104
vt 0.297148 0.374543
vt 0.314450 0.375020
vt 0.351900 0.576290
vt 0.387097 0.644598
vt 0.349827 0.656649
vt 0.064212 0.323339
vt 0.119913 0.341339
vt 0.121267 0.849319
vt 0.121721 0.808718
vt 0.116115 0.830410
vt 0.268700 0.798971
vt 0.254400 0.725303
vt 0.000700 0.311294
vt 0.284942 0.862401
vt 0.756772 0.184859
vt 0.796652 0.193528
vt 0.796474 0.229033
vt 0.768950 0.223114
vt 0.760779 0.133012
vt 0.838786 0.152747
vt 0.828302 0.198895
vt 0.472930 0.890346
vt 0.470466 0.925860
vt 0.440755 0.961777
vt 0.428886 0.930374
vt 0.818789 0.232896
vt 0.812705 0.340003
vt 0.793233 0.343935
vt 0.844731 0.123902
vt 0.756772 0.101413
vt 0.114572 0.356655
vt 0.111042 0.372059
vt 0.957310 0.023304
vt 0.944341 0.015797
vt 0.945060 0.000422
vt 0.956868 -0.000000
vt 0.496730 0.663261
vt 0.486094 0.785019
vt 0.472918 0.782635
vt 0.470403 0.667141
vt 0.300221 0.720229
vt 0.300027 0.816030
vt 0.288163 0.819265
vt 0.284942 0.722622
vt 0.207605 0.355848
vt 0.207179 0.367650
vt 0.795558 0.420017
vt 0.772074 0.406791
vt 0.780091 0.344874
vt 0.810772 0.409430
vt 0.303946 0.874642
vt 0.292124 0.877463
vt 0.685610 0.789438
vt 0.685610 0.832366
vt 0.673473 0.828600
vt 0.673540 0.786569
vt 0.971398 0.027586
vt 0.968690 0.008472
vt 0.424311 0.575171
vt 0.397310 0.585295
vt 0.875145 0.122339
vt 0.915259 0.163562
vt 0.885921 0.171884
vt 0.844731 0.124727
vt 0.472930 0.914416
vt 0.498726 0.914300
vt 0.878243 0.105202
vt 0.851176 0.101413
vt 0.693224 0.855593
vt 0.686161 0.784121
vt 0.877106 0.090908
vt 0.824058 0.087935
vt 0.905331 0.424124
vt 0.851461 0.436771
vt 0.619095 0.659501
vt 0.659895 0.766506
vt 0.934478 0.221309
vt 0.928521 0.280452
vt 0.864966 0.300613
vt 0.884196 0.233944
vt 0.649472 0.821007
vt 0.315969 0.918893
vt 0.293307 0.944344
vt 0.721704 0.714483
vt 0.874717 0.348367
vt 0.844731 0.348907
vt 0.643333 0.862800
vt 0.695115 0.918115
vt 0.453095 0.779631
vt 0.431239 0.838871
vt 0.421538 0.835432
vt 0.447071 0.776550
vt 0.311837 0.813322
vt 0.315969 0.869836
vt 0.320020 0.684346
vt 0.322541 0.696142
vt 0.299814 0.699138
vt 0.299668 0.684346
vt 0.214045 0.344160
vt 0.315969 0.714829
vt 0.325274 0.663261
vt 0.324361 0.572231
vt 0.472930 0.859093
vt 0.421538 0.897296
vt 0.271361 0.862401
vt 0.224293 0.881136
vt 0.443970 0.853318
vt 0.463968 0.849311
vt 0.836750 0.399308
vt 0.828817 0.412311
vt 0.322974 0.708461
vt 0.297148 0.713505
vt 0.448661 0.670885
vt 0.480020 0.859093
vt 0.971398 0.051811
vt 0.957102 0.047569
vt 0.943910 0.040826
vt 0.496730 0.847419
vt 0.663835 0.721768
vt 0.659895 0.698187
vt 0.672524 0.693938
vt 0.672524 0.719756
vt 0.679882 0.943498
vt 0.666919 0.940699
vt 0.666919 0.925503
vt 0.679882 0.924007
vt 0.684407 0.728024
vt 0.684407 0.694908
vt 0.109917 0.880794
vt 0.097179 0.881822
vt 0.097179 0.857284
vt 0.109917 0.849319
vt 0.810705 0.953422
vt 0.303752 0.344516
vt 0.403220 0.932925
vt 0.400052 0.919380
vt 0.324361 0.338817
vt 0.394580 0.959507
vt 0.232612 0.350256
vt 0.328067 0.385457
vt 0.629953 0.966635
vt 0.631078 0.952647
vt 0.637733 0.924007
vt 0.805768 0.679231
s 0
usemtl zorrito
f 48/1/1 50/2/1 92/3/1 93/4/1
f 76/5/2 47/6/2 2/7/2 75/8/2
f 200/9/3 6/10/3 127/11/3 330/12/3
f 241/13/4 3/14/4 6/10/4 200/9/4
f 45/15/5 1/16/5 144/17/5 18/18/5
f 108/19/6 12/20/6 111/21/6 112/22/6
f 269/23/7 73/24/7 7/25/7 201/26/7
f 74/27/8 72/28/8 8/29/8 19/30/8
f 37/31/9 36/32/9 26/33/9 30/34/9
f 303/35/10 101/36/10 23/37/10 219/38/10
f 101/36/11 7/25/11 61/39/11 104/40/11
f 110/41/12 109/42/12 11/43/12 102/44/12
f 109/45/13 311/46/13 205/47/13 11/48/13
f 102/49/14 302/50/14 206/51/14 12/52/14
f 1/53/15 195/54/15 199/55/15 144/56/15
f 72/57/16 270/58/16 202/59/16 8/60/16
f 75/61/17 2/62/17 196/63/17 274/64/17
f 19/65/18 8/66/18 65/67/18 60/68/18
f 114/69/19 115/70/19 117/71/19 118/72/19
f 73/73/20 74/27/20 19/30/20 7/74/20
f 3/75/21 45/15/21 18/18/21 6/76/21
f 6/76/22 18/18/22 126/77/22 127/78/22
f 415/79/23 413/80/23 51/81/23 81/82/23
f 29/83/24 9/84/24 23/85/24 116/86/24
f 9/87/25 15/88/25 219/38/25 23/37/25
f 15/89/26 28/90/26 220/91/26 219/92/26
f 28/90/27 29/93/27 116/94/27 220/91/27
f 30/95/28 26/96/28 25/97/28 31/98/28
f 39/99/29 38/100/29 31/101/29 25/102/29
f 20/103/30 21/104/30 32/105/30 33/106/30
f 36/107/31 39/108/31 25/109/31 26/110/31
f 21/111/32 20/112/32 29/113/32 28/114/32
f 24/115/33 27/116/33 30/117/33 31/118/33
f 40/119/34 21/111/34 28/114/34 37/120/34
f 41/121/35 24/115/35 31/118/35 38/122/35
f 43/123/36 42/124/36 34/125/36 35/126/36
f 41/127/37 20/128/37 33/129/37 43/130/37
f 27/131/38 24/132/38 35/133/38 34/134/38
f 40/135/39 27/136/39 34/137/39 42/138/39
f 21/139/40 40/135/40 42/138/40 32/140/40
f 24/141/41 41/127/41 43/130/41 35/142/41
f 33/143/42 32/144/42 42/124/42 43/123/42
f 20/112/43 41/121/43 38/122/43 29/113/43
f 27/116/44 40/119/44 37/120/44 30/117/44
f 15/88/45 9/87/45 39/108/45 36/107/45
f 9/84/46 29/83/46 38/100/46 39/99/46
f 28/145/47 15/146/47 36/32/47 37/31/47
f 4/147/48 14/148/48 44/149/48
f 46/150/49 16/151/49 45/15/49 3/75/49
f 13/152/50 46/153/50 3/154/50 241/155/50
f 77/156/51 13/157/51 241/158/51 273/159/51
f 17/160/52 4/161/52 44/162/52 47/6/52
f 78/163/53 17/160/53 47/6/53 76/5/53
f 80/164/54 50/2/54 48/1/54 79/165/54
f 79/166/55 48/167/55 53/168/55 81/169/55
f 413/170/56 414/171/56 49/172/56 51/173/56
f 53/174/57 48/1/57 93/4/57 94/175/57
f 414/171/58 418/176/58 52/177/58 49/172/58
f 91/178/59 85/179/59 95/180/59 97/181/59
f 14/148/60 4/147/60 59/182/60 56/183/60
f 46/184/61 13/185/61 57/186/61 58/187/61
f 4/147/62 17/188/62 55/189/62 59/182/62
f 16/151/63 46/150/63 58/190/63 54/191/63
f 78/163/64 16/151/64 54/191/64 82/192/64
f 77/156/65 14/193/65 56/194/65 83/195/65
f 104/40/66 61/39/66 67/196/66 106/197/66
f 64/198/67 62/199/67 68/200/67 70/201/67
f 116/86/68 23/85/68 63/202/68 62/199/68
f 113/203/69 116/86/69 62/199/69 64/198/69
f 7/204/70 19/65/70 60/68/70 61/205/70
f 100/206/71 113/203/71 64/198/71 103/207/71
f 107/208/72 105/209/72 70/201/72 68/200/72
f 106/210/73 107/208/73 68/200/73 69/211/73
f 62/199/74 63/202/74 69/211/74 68/200/74
f 60/68/75 65/67/75 71/212/75 66/213/75
f 103/214/76 64/215/76 70/216/76 105/217/76
f 61/205/77 60/68/77 66/213/77 67/218/77
f 2/7/78 47/6/78 74/27/78 73/73/78
f 44/149/79 237/219/79 270/58/79 72/57/79
f 47/6/80 44/162/80 72/28/80 74/27/80
f 196/220/81 2/221/81 73/24/81 269/23/81
f 13/157/82 77/156/82 83/195/82 57/222/82
f 17/160/83 78/163/83 82/192/83 55/223/83
f 49/224/84 79/165/84 81/225/84 51/226/84
f 52/227/85 80/164/85 79/165/85 49/224/85
f 16/151/86 78/163/86 76/5/86 45/15/86
f 14/193/87 77/156/87 273/159/87 237/228/87
f 417/229/88 415/79/88 81/82/88 53/230/88
f 1/231/89 75/61/89 274/64/89 195/232/89
f 45/15/90 76/5/90 75/8/90 1/16/90
f 418/233/91 416/234/91 80/235/91 52/236/91
f 57/222/92 83/195/92 91/237/92 88/238/92
f 55/223/93 82/192/93 90/239/93 87/240/93
f 56/183/94 59/182/94 89/241/94 85/242/94
f 58/187/95 57/186/95 88/243/95 86/244/95
f 59/182/96 55/189/96 87/245/96 89/241/96
f 54/246/97 58/187/97 86/244/97 84/247/97
f 82/192/98 54/191/98 84/248/98 90/239/98
f 83/195/99 56/194/99 85/249/99 91/237/99
f 420/250/100 419/251/100 92/252/100 96/253/100
f 422/254/101 421/255/101 94/256/101 93/257/101
f 419/258/102 422/254/102 93/257/102 92/259/102
f 417/229/103 53/230/103 94/260/103 421/261/103
f 89/262/104 87/263/104 98/264/104 99/265/104
f 85/179/105 89/262/105 99/265/105 95/180/105
f 416/234/106 91/237/106 97/266/106 420/250/106
f 50/2/107 80/164/107 96/267/107 92/3/107
f 65/268/108 103/214/108 105/217/108 71/269/108
f 67/270/109 66/271/109 107/208/109 106/210/109
f 66/271/110 71/272/110 105/209/110 107/208/110
f 8/273/111 100/206/111 65/274/111
f 63/275/112 104/40/112 106/197/112 69/276/112
f 11/277/113 205/278/113 302/50/113 102/49/113
f 108/19/114 110/41/114 102/44/114 12/20/114
f 23/37/115 101/36/115 104/40/115 63/275/115
f 201/26/116 7/25/116 101/36/116 303/35/116
f 113/203/117 100/206/117 110/41/117 108/19/117
f 8/279/118 202/280/118 311/46/118 109/45/118
f 100/206/119 8/273/119 109/42/119 110/41/119
f 204/281/120 113/282/120 108/283/120 312/284/120
f 317/285/121 112/286/121 111/287/121 314/288/121
f 12/52/122 206/51/122 314/289/122 111/290/122
f 312/284/123 108/283/123 112/286/123 317/285/123
f 114/291/124 10/292/124 113/282/124 204/281/124
f 115/293/125 114/291/125 204/281/125 220/91/125
f 10/292/126 22/294/126 116/94/126 113/282/126
f 22/294/127 115/293/127 220/91/127 116/94/127
f 120/295/128 119/296/128 181/297/128 182/298/128
f 22/299/129 10/300/129 119/301/129 120/302/129
f 10/303/130 114/304/130 118/305/130 119/306/130
f 115/307/131 22/308/131 120/309/131 117/310/131
f 159/311/132 158/312/132 134/313/132 133/314/132
f 157/315/133 156/316/133 132/317/133 130/318/133
f 18/18/134 144/17/134 145/319/134 126/77/134
f 356/320/135 124/321/135 147/322/135 357/323/135
f 125/324/136 121/325/136 145/326/136 326/327/136
f 122/328/137 123/329/137 127/78/137 126/77/137
f 123/330/138 166/331/138 129/332/138 330/12/138 127/11/138
f 128/333/139 125/334/139 326/335/139 331/336/139
f 121/337/140 122/328/140 126/77/140 145/319/140
f 129/338/141 128/333/141 331/336/141 330/339/141
f 130/340/142 132/341/142 168/342/142 170/343/142
f 131/344/143 130/340/143 170/343/143 133/345/143 134/346/143
f 160/347/144 157/315/144 130/318/144 131/348/144
f 135/349/145 168/342/145 169/350/145 139/351/145
f 158/352/146 160/353/146 131/344/146 134/346/146
f 161/354/147 159/311/147 133/314/147 135/355/147
f 177/356/148 165/357/148 143/358/148 175/359/148
f 129/360/149 166/361/149 167/362/149 136/363/149
f 156/316/150 129/364/150 136/365/150 162/366/150
f 161/354/151 135/355/151 139/367/151 163/368/151
f 174/369/152 176/370/152 169/350/152 137/371/152 141/372/152
f 162/366/153 136/365/153 140/373/153 164/374/153
f 163/368/154 139/367/154 143/375/154 165/376/154
f 171/377/155 142/378/155 165/357/155 177/356/155
f 353/379/156 5/380/156 144/56/156 199/55/156
f 5/380/157 124/381/157 145/326/157 144/56/157
f 124/381/158 356/382/158 326/327/158 145/326/158
f 147/383/159 146/384/159 148/385/159 149/386/159
f 5/387/160 353/388/160 355/389/160 146/390/160
f 124/391/161 5/392/161 146/384/161 147/383/161
f 154/393/162 373/394/162 364/395/162 150/396/162
f 357/397/163 147/398/163 149/399/163 361/400/163
f 146/401/164 355/402/164 360/403/164 148/404/164
f 365/405/165 151/406/165 153/407/165 369/408/165
f 155/409/166 154/410/166 150/411/166 151/412/166
f 372/413/167 155/414/167 151/406/167 365/405/167
f 152/415/168 368/416/168 369/417/168 153/418/168
f 150/396/169 364/395/169 368/419/169 152/420/169
f 151/412/170 150/411/170 152/421/170 153/422/170
f 361/423/171 149/424/171 155/414/171 372/413/171
f 149/386/172 148/385/172 154/410/172 155/409/172
f 148/425/173 360/426/173 373/394/173 154/393/173
f 138/427/174 163/368/174 165/376/174 142/428/174
f 137/429/175 162/366/175 164/374/175 141/430/175
f 140/373/176 172/431/176 178/432/176 164/374/176
f 123/329/177 161/354/177 163/368/177 138/427/177
f 132/317/178 156/316/178 162/366/178 137/429/178
f 123/329/179 122/328/179 159/311/179 161/354/179
f 121/325/180 125/324/180 160/433/180 158/434/180
f 125/435/181 128/436/181 157/315/181 160/347/181
f 128/436/182 129/364/182 156/316/182 157/315/182
f 122/328/183 121/337/183 158/312/183 159/311/183
f 171/437/184 173/438/184 167/362/184 138/439/184 142/440/184
f 139/351/185 169/350/185 176/370/185 175/441/185 143/442/185
f 164/443/186 178/444/186 174/445/186 141/446/186
f 167/362/187 166/361/187 123/447/187 138/439/187
f 169/350/188 168/342/188 132/341/188 137/371/188
f 170/343/189 168/342/189 135/349/189 133/345/189
f 171/437/190 172/448/190 173/438/190
f 174/369/191 175/441/191 176/370/191
f 171/377/192 177/356/192 178/444/192 172/449/192
f 177/356/193 175/359/193 174/445/193 178/444/193
f 136/363/194 167/362/194 173/438/194 172/448/194 140/450/194
f 180/451/195 179/452/195 182/453/195 181/454/195
f 118/455/196 117/456/196 179/457/196 180/458/196
f 117/459/197 120/460/197 182/453/197 179/452/197
f 119/461/198 118/462/198 180/463/198 181/464/198
f 44/149/199 14/148/199 237/219/199
f 65/274/200 100/206/200 103/207/200
f 243/465/201 292/466/201 291/467/201 245/468/201
f 275/469/202 272/470/202 184/471/202 242/472/202
f 200/9/203 330/12/203 335/473/203 188/474/203
f 241/13/204 200/9/204 188/474/204 185/475/204
f 239/476/205 209/477/205 352/478/205 183/479/205
f 309/480/206 316/481/206 315/482/206 194/483/206
f 269/23/207 201/26/207 189/484/207 268/485/207
f 271/486/208 210/487/208 190/488/208 267/489/208
f 230/490/209 223/491/209 217/492/209 229/493/209
f 303/35/210 219/38/210 214/494/210 300/495/210
f 300/496/211 305/497/211 256/498/211 189/499/211
f 313/500/212 301/501/212 193/502/212 310/503/212
f 310/504/213 193/505/213 205/47/213 311/46/213
f 301/506/214 194/507/214 206/51/214 302/50/214
f 183/508/215 352/509/215 199/55/215 195/54/215
f 267/510/216 190/511/216 202/59/216 270/58/216
f 272/512/217 274/513/217 196/220/217 184/514/217
f 210/515/218 255/516/218 260/517/218 190/518/218
f 319/519/219 323/520/219 322/521/219 320/522/219
f 268/523/220 189/524/220 210/487/220 271/486/220
f 185/525/221 188/526/221 209/477/221 239/476/221
f 188/526/222 335/527/222 334/528/222 209/477/222
f 405/529/223 280/530/223 246/531/223 403/532/223
f 222/533/224 321/534/224 214/535/224 191/536/224
f 191/537/225 214/494/225 219/38/225 203/538/225
f 203/539/226 219/92/226 220/91/226 221/540/226
f 221/540/227 220/91/227 321/541/227 222/542/227
f 223/543/228 224/544/228 216/545/228 217/546/228
f 232/547/229 216/548/229 224/549/229 231/550/229
f 211/551/230 226/552/230 225/553/230 212/554/230
f 229/555/231 217/556/231 216/557/231 232/558/231
f 212/559/232 221/560/232 222/561/232 211/562/232
f 215/563/233 224/564/233 223/565/233 218/566/233
f 233/567/234 230/568/234 221/560/234 212/559/234
f 234/569/235 231/570/235 224/564/235 215/563/235
f 236/571/236 228/572/236 227/573/236 235/574/236
f 234/575/237 236/576/237 226/577/237 211/578/237
f 218/579/238 227/580/238 228/581/238 215/582/238
f 233/583/239 235/584/239 227/585/239 218/586/239
f 212/587/240 225/588/240 235/584/240 233/583/240
f 215/589/241 228/590/241 236/576/241 234/575/241
f 226/591/242 236/571/242 235/574/242 225/592/242
f 211/562/243 222/561/243 231/570/243 234/569/243
f 218/566/244 223/565/244 230/568/244 233/567/244
f 203/538/245 229/555/245 232/558/245 191/537/245
f 191/536/246 232/547/246 231/550/246 222/533/246
f 221/593/247 230/490/247 229/493/247 203/594/247
f 186/595/248 238/596/248 198/597/248
f 240/598/249 185/525/249 239/476/249 207/599/249
f 197/600/250 241/601/250 185/602/250 240/603/250
f 276/604/251 273/605/251 241/606/251 197/607/251
f 208/608/252 242/472/252 238/609/252 186/610/252
f 277/611/253 275/469/253 242/472/253 208/608/253
f 279/612/254 278/613/254 243/465/254 245/468/254
f 278/613/255 280/614/255 248/615/255 243/465/255
f 403/532/256 246/531/256 244/616/256 404/617/256
f 248/615/257 293/618/257 292/466/257 243/465/257
f 404/617/258 244/616/258 247/619/258 408/620/258
f 290/621/259 296/622/259 294/623/259 284/624/259
f 198/597/260 251/625/260 254/626/260 186/595/260
f 240/627/261 253/628/261 252/629/261 197/630/261
f 186/610/262 254/631/262 250/632/262 208/608/262
f 207/633/263 249/634/263 253/635/263 240/636/263
f 277/611/264 281/637/264 249/638/264 207/599/264
f 276/639/265 282/640/265 251/641/265 198/642/265
f 305/497/266 307/643/266 262/644/266 256/498/266
f 259/645/267 265/646/267 263/647/267 257/648/267
f 321/534/268 257/648/268 258/649/268 214/535/268
f 318/650/269 259/645/269 257/648/269 321/534/269
f 189/651/270 256/652/270 255/516/270 210/515/270
f 299/653/271 304/654/271 259/645/271 318/650/271
f 308/655/272 263/647/272 265/646/272 306/656/272
f 307/643/273 264/657/273 263/647/273 308/655/273
f 257/648/274 263/647/274 264/657/274 258/649/274
f 255/516/275 261/658/275 266/659/275 260/517/275
f 304/660/276 306/661/276 265/662/276 259/663/276
f 256/652/277 262/664/277 261/658/277 255/516/277
f 184/471/278 268/523/278 271/486/278 242/472/278
f 238/596/279 267/510/279 270/58/279 237/219/279
f 242/472/280 271/486/280 267/489/280 238/609/280
f 196/220/281 269/23/281 268/485/281 184/514/281
f 197/665/282 252/666/282 282/640/282 276/639/282
f 208/608/283 250/632/283 281/637/283 277/611/283
f 244/667/284 246/668/284 280/614/284 278/613/284
f 247/669/285 244/667/285 278/613/285 279/612/285
f 207/599/286 239/476/286 275/469/286 277/611/286
f 198/597/287 237/219/287 273/605/287 276/604/287
f 407/670/288 248/671/288 280/672/288 405/673/288
f 183/674/289 195/232/289 274/64/289 272/675/289
f 239/476/290 183/479/290 272/470/290 275/469/290
f 408/676/291 247/677/291 279/678/291 406/679/291
f 252/666/292 287/680/292 290/681/292 282/640/292
f 250/632/293 286/682/293 289/683/293 281/637/293
f 251/625/294 284/684/294 288/685/294 254/626/294
f 253/628/295 285/686/295 287/687/295 252/629/295
f 254/631/296 288/688/296 286/682/296 250/632/296
f 249/689/297 283/690/297 285/686/297 253/628/297
f 281/637/298 289/683/298 283/691/298 249/638/298
f 282/692/299 290/693/299 284/684/299 251/625/299
f 410/694/300 295/695/300 291/696/300 409/697/300
f 412/698/301 292/699/301 293/700/301 411/701/301
f 409/697/302 291/696/302 292/702/302 412/703/302
f 407/670/303 411/701/303 293/700/303 248/671/303
f 288/704/304 298/705/304 297/706/304 286/707/304
f 284/624/305 294/623/305 298/705/305 288/704/305
f 406/679/306 410/708/306 296/709/306 290/681/306
f 245/468/307 291/467/307 295/710/307 279/612/307
f 260/711/308 266/712/308 306/661/308 304/660/308
f 262/644/309 307/643/309 308/655/309 261/713/309
f 261/713/310 308/655/310 306/656/310 266/714/310
f 190/715/311 260/716/311 299/653/311
f 258/649/312 264/657/312 307/643/312 305/497/312
f 193/717/313 301/506/313 302/50/313 205/278/313
f 309/480/314 194/483/314 301/501/314 313/500/314
f 214/535/315 258/649/315 305/497/315 300/496/315
f 201/26/316 303/35/316 300/495/316 189/484/316
f 318/650/317 309/480/317 313/500/317 299/653/317
f 190/718/318 310/504/318 311/46/318 202/280/318
f 299/653/319 313/500/319 310/503/319 190/715/319
f 204/281/320 312/284/320 309/719/320 318/720/320
f 317/285/321 314/288/321 315/721/321 316/722/321
f 194/507/322 315/723/322 314/289/322 206/51/322
f 312/284/323 317/285/323 316/722/323 309/719/323
f 319/724/324 204/281/324 318/720/324 192/725/324
f 320/726/325 220/91/325 204/281/325 319/724/325
f 192/725/326 318/720/326 321/541/326 213/727/326
f 213/727/327 321/541/327 220/91/327 320/726/327
f 325/728/328 402/729/328 401/730/328 324/731/328
f 213/732/329 325/733/329 324/734/329 192/735/329
f 192/736/330 324/737/330 323/738/330 319/739/330
f 320/740/331 322/741/331 325/742/331 213/743/331
f 379/744/332 341/745/332 342/746/332 378/747/332
f 377/748/333 338/749/333 340/750/333 376/751/333
f 209/477/334 334/528/334 354/752/334 352/478/334
f 356/320/335 357/323/335 359/753/335 332/754/335
f 333/755/336 326/327/336 354/756/336 327/757/336
f 328/758/337 334/528/337 335/527/337 329/759/337
f 329/760/338 335/473/338 330/12/338 337/761/338 386/762/338
f 336/763/339 331/336/339 326/335/339 333/764/339
f 327/765/340 354/752/340 334/528/340 328/758/340
f 337/766/341 330/339/341 331/336/341 336/763/341
f 338/767/342 390/768/342 388/769/342 340/770/342
f 339/771/343 342/772/343 341/773/343 390/768/343 338/767/343
f 380/774/344 339/775/344 338/776/344 377/777/344
f 343/778/345 347/779/345 389/780/345 388/769/345
f 378/781/346 342/772/346 339/771/346 380/782/346
f 381/783/347 343/784/347 341/745/347 379/744/347
f 397/785/348 395/786/348 351/787/348 385/788/348
f 337/789/349 344/790/349 387/791/349 386/792/349
f 376/793/350 382/794/350 344/795/350 337/796/350
f 381/783/351 383/797/351 347/798/351 343/784/351
f 394/799/352 349/800/352 345/801/352 389/780/352 396/802/352
f 382/794/353 384/803/353 348/804/353 344/795/353
f 383/805/354 385/806/354 351/807/354 347/808/354
f 391/809/355 397/785/355 385/788/355 350/810/355
f 353/379/356 199/55/356 352/509/356 187/811/356
f 187/811/357 352/509/357 354/756/357 332/812/357
f 332/812/358 354/756/358 326/327/358 356/382/358
f 359/813/359 363/814/359 362/815/359 358/816/359
f 187/817/360 358/818/360 355/389/360 353/388/360
f 332/819/361 359/813/361 358/816/361 187/820/361
f 374/821/362 366/822/362 364/395/362 373/394/362
f 357/397/363 361/400/363 363/823/363 359/824/363
f 358/825/364 362/826/364 360/403/364 355/402/364
f 365/405/365 369/408/365 371/827/365 367/828/365
f 375/829/366 367/830/366 366/831/366 374/832/366
f 372/413/367 365/405/367 367/828/367 375/833/367
f 370/834/368 371/835/368 369/417/368 368/416/368
f 366/822/369 370/836/369 368/419/369 364/395/369
f 367/830/370 371/837/370 370/838/370 366/831/370
f 361/423/371 372/413/371 375/833/371 363/839/371
f 363/814/372 375/829/372 374/832/372 362/815/372
f 362/840/373 374/821/373 373/394/373 360/426/373
f 346/841/374 350/842/374 385/843/374 383/844/374
f 345/845/375 349/846/375 384/803/375 382/794/375
f 348/847/376 384/848/376 398/849/376 392/850/376
f 329/759/377 346/851/377 383/797/377 381/783/377
f 340/852/378 345/845/378 382/794/378 376/793/378
f 329/759/379 381/783/379 379/744/379 328/758/379
f 327/757/380 378/853/380 380/854/380 333/755/380
f 333/855/381 380/774/381 377/777/381 336/856/381
f 336/857/382 377/748/382 376/751/382 337/858/382
f 328/758/383 379/744/383 378/747/383 327/765/383
f 391/859/384 350/842/384 346/841/384 387/791/384 393/860/384
f 347/779/385 351/861/385 395/862/385 396/802/385 389/780/385
f 384/848/386 349/863/386 394/864/386 398/849/386
f 387/791/387 346/841/387 329/865/387 386/792/387
f 389/780/388 345/801/388 340/770/388 388/769/388
f 390/768/389 341/773/389 343/778/389 388/769/389
f 391/859/390 393/860/390 392/866/390
f 394/799/391 396/802/391 395/862/391
f 391/809/392 392/867/392 398/868/392 397/785/392
f 397/785/393 398/868/393 394/869/393 395/786/393
f 344/790/394 348/870/394 392/866/394 393/860/394 387/791/394
f 400/871/395 401/872/395 402/873/395 399/874/395
f 323/875/396 400/876/396 399/877/396 322/878/396
f 322/879/397 399/874/397 402/873/397 325/880/397
f 324/881/398 401/882/398 400/883/398 323/884/398
f 238/596/399 237/219/399 198/597/399
f 260/716/400 304/654/400 299/653/400
f 279/678/401 295/885/401 410/708/401 406/679/401
f 286/682/303 297/886/303 411/701/303 407/670/303
f 294/887/402 409/697/402 412/703/402 298/888/402
f 298/889/403 412/698/403 411/701/403 297/886/403
f 296/890/404 410/694/404 409/697/404 294/887/404
f 287/680/405 408/676/405 406/679/405 290/681/405
f 286/682/406 407/670/406 405/673/406 289/683/406
f 285/686/407 404/617/407 408/620/407 287/687/407
f 283/690/408 403/532/408 404/617/408 285/686/408
f 289/683/409 405/673/409 403/891/409 283/691/409
f 80/235/410 416/234/410 420/250/410 96/253/410
f 87/240/103 417/229/103 421/261/103 98/892/103
f 95/893/411 99/894/411 422/254/411 419/258/411
f 99/894/412 98/895/412 421/255/412 422/254/412
f 97/266/413 95/896/413 419/251/413 420/250/413
f 88/238/414 91/237/414 416/234/414 418/233/414
f 87/240/415 90/239/415 415/79/415 417/229/415
f 86/244/416 88/243/416 418/176/416 414/171/416
f 84/247/417 86/244/417 414/171/417 413/170/417
f 90/239/418 84/248/418 413/80/418 415/79/418
