# Blender 4.5.0
# www.blender.org
mtllib barrel.mtl
o barrel
v 7.822608 1.211289 -8.448479
v 7.861266 1.649595 -8.407758
v 7.944275 1.197954 -8.400128
v 7.971309 1.637534 -8.364026
v 7.995780 1.186765 -8.279546
v 8.017894 1.627414 -8.254963
v 7.946953 1.184276 -8.157365
v 7.973732 1.625163 -8.144455
v 7.826396 1.191946 -8.105160
v 7.864692 1.632100 -8.097237
v 7.704730 1.205282 -8.153509
v 7.754648 1.644162 -8.140967
v 7.653224 1.216471 -8.274093
v 7.708064 1.654282 -8.250031
v 7.702051 1.218959 -8.396273
v 7.752226 1.656533 -8.360538
v 7.835848 1.365474 -8.456681
v 7.833871 1.341554 -8.450580
v 7.849565 1.521903 -8.447167
v 7.847528 1.497613 -8.442788
v 7.976377 1.483491 -8.391584
v 7.977864 1.507244 -8.389661
v 7.962119 1.327497 -8.399614
v 7.964789 1.351215 -8.398909
v 8.030923 1.471641 -8.263883
v 8.032155 1.495450 -8.262555
v 8.016410 1.315703 -8.272509
v 8.019336 1.339365 -8.271208
v 7.979213 1.469006 -8.134490
v 7.980688 1.492827 -8.133766
v 7.964942 1.313080 -8.143720
v 7.967626 1.336730 -8.141815
v 7.851540 1.477128 -8.079203
v 7.853610 1.500912 -8.078736
v 7.837864 1.321165 -8.088690
v 7.839952 1.344852 -8.086528
v 7.722691 1.491251 -8.130407
v 7.725362 1.514968 -8.129702
v 7.709617 1.335221 -8.139655
v 7.711104 1.358975 -8.137732
v 7.668145 1.503101 -8.258108
v 7.671071 1.526763 -8.256807
v 7.655325 1.347016 -8.266761
v 7.656558 1.370825 -8.265433
v 7.719855 1.505736 -8.387501
v 7.722539 1.529386 -8.385596
v 7.706793 1.349639 -8.395550
v 7.708267 1.373460 -8.394826
v 7.703571 1.373890 -8.399400
v 7.835941 1.365337 -8.450113
v 7.833778 1.341691 -8.457147
v 7.702097 1.350068 -8.400124
v 7.717884 1.530281 -8.390144
v 7.849617 1.521301 -8.440626
v 7.847476 1.498215 -8.449330
v 7.715199 1.506631 -8.392050
v 7.649997 1.371159 -8.265342
v 7.648765 1.347350 -8.266669
v 7.664551 1.527562 -8.256690
v 7.661625 1.503900 -8.257991
v 7.706510 1.358882 -8.133036
v 7.705022 1.335129 -8.134960
v 7.720809 1.515341 -8.124981
v 7.718138 1.491623 -8.125686
v 7.840004 1.344251 -8.079986
v 7.837916 1.320563 -8.082149
v 7.853702 1.500775 -8.072169
v 7.851633 1.476992 -8.072635
v 7.972281 1.335835 -8.137266
v 7.969597 1.312185 -8.139172
v 7.985384 1.492397 -8.129192
v 7.983910 1.468576 -8.129916
v 8.025855 1.338565 -8.271325
v 8.022929 1.314903 -8.272626
v 8.038716 1.495116 -8.262647
v 8.037483 1.471306 -8.263974
v 7.969343 1.350842 -8.403630
v 7.966671 1.327125 -8.404335
v 7.982458 1.507337 -8.394357
v 7.980971 1.483583 -8.396280
v 7.982751 1.637184 -8.375807
v 7.861085 1.650519 -8.424156
v 8.034257 1.625995 -8.255223
v 7.985430 1.623506 -8.133043
v 7.864872 1.631176 -8.080837
v 7.743206 1.644512 -8.129188
v 7.691700 1.655701 -8.249770
v 7.740528 1.658189 -8.371951
v 7.969358 1.615260 -8.365260
v 7.859314 1.627321 -8.408991
v 8.015943 1.605139 -8.256196
v 7.971780 1.602889 -8.145688
v 7.862741 1.609826 -8.098470
v 7.752697 1.621887 -8.142200
v 7.706112 1.632007 -8.251265
v 7.750275 1.634258 -8.361773
vn -0.3848 0.1502 -0.9107
vn 0.9161 -0.0583 -0.3967
vn 0.9245 -0.1013 0.3674
vn 0.3914 -0.0850 0.9163
vn -0.3710 -0.0189 0.9284
vn -0.9161 0.0583 0.3967
vn -0.9245 0.1013 -0.3674
vn 0.9198 0.0072 -0.3922
vn -0.0871 -0.9947 -0.0551
vn 0.3710 0.0189 -0.9284
vn 0.3645 -0.0465 -0.9300
vn -0.9283 0.0357 -0.3702
vn -0.9168 0.1665 -0.3630
vn -0.9198 -0.0072 0.3922
vn -0.9084 0.1235 0.3995
vn -0.3760 -0.0842 0.9228
vn -0.3645 0.0465 0.9300
vn 0.3848 -0.1502 0.9107
vn 0.3963 -0.0195 0.9179
vn 0.9168 -0.1665 0.3630
vn 0.9283 -0.0357 0.3702
vn 0.9084 -0.1235 -0.3995
vn 0.3760 0.0842 -0.9228
vn -0.3914 0.0850 -0.9163
vn -0.3940 0.0523 -0.9176
vn -0.3883 0.1177 -0.9140
vn -0.9269 0.0686 -0.3690
vn -0.9212 0.1340 -0.3654
vn -0.9185 0.0255 0.3947
vn -0.9127 0.0910 0.3983
vn -0.3737 -0.0516 0.9261
vn -0.3680 0.0138 0.9297
vn 0.3883 -0.1177 0.9140
vn 0.3940 -0.0523 0.9176
vn 0.9212 -0.1340 0.3654
vn 0.9269 -0.0686 0.3690
vn 0.9127 -0.0910 -0.3983
vn 0.9185 -0.0255 -0.3947
vn 0.3680 -0.0138 -0.9297
vn 0.3737 0.0516 -0.9261
vn -0.3963 0.0195 -0.9179
vn 0.0720 0.9972 0.0197
vn -0.0720 -0.9972 -0.0197
vn 0.1021 0.9907 0.0903
vn -0.1021 -0.9907 -0.0903
vn 0.0515 0.9978 0.0409
vn -0.0515 -0.9978 -0.0409
vn 0.1227 0.9900 0.0692
vn -0.1227 -0.9900 -0.0692
vn 0.0518 0.9962 0.0703
vn -0.0518 -0.9962 -0.0703
vn 0.1224 0.9917 0.0398
vn -0.1224 -0.9917 -0.0398
vn 0.0728 0.9932 0.0908
vn -0.0728 -0.9932 -0.0908
vn 0.1014 0.9947 0.0193
vn -0.1014 -0.9947 -0.0193
vn 0.0871 0.9947 0.0551
vt 0.892853 0.738932
vt 1.000000 0.627906
vt 1.000000 0.741855
vt 0.572704 0.276386
vt 0.681944 0.195435
vt 0.681944 0.276386
vt 0.572704 0.195435
vt 0.681944 0.080952
vt 0.572704 0.080952
vt 0.681944 0.000000
vt 0.681944 0.276386
vt 0.791183 0.195435
vt 0.791183 0.276386
vt 0.681944 0.195435
vt 0.791183 0.080952
vt 0.917932 0.069137
vt 0.936327 0.166911
vt 0.917932 0.166911
vt 0.681944 0.080952
vt 0.791183 0.000000
vt 0.571414 0.815371
vt 0.678561 0.741855
vt 0.678561 0.822429
vt 0.755955 0.286352
vt 0.832395 0.470893
vt 0.647854 0.547332
vt 0.832395 0.400835
vt 0.941634 0.481787
vt 0.832395 0.481787
vt 1.000000 0.855804
vt 0.892854 0.929320
vt 0.892854 0.852880
vt 0.678561 0.627906
vt 0.785707 0.554390
vt 0.785707 0.630830
vt 0.785707 0.630830
vt 0.892853 0.547332
vt 0.892853 0.627906
vt 0.678561 0.741855
vt 0.785707 0.738932
vt 0.785707 0.738932
vt 0.892853 0.741855
vt 0.678561 0.822429
vt 0.785707 0.815371
vt 0.892853 0.822429
vt 0.898330 0.083497
vt 0.791183 -0.000000
vt 0.898330 0.007058
vt 0.571414 0.630830
vt 0.678561 0.547333
vt 0.678561 0.627906
vt 0.791183 0.194523
vt 0.898330 0.191599
vt 0.571414 0.738932
vt 0.791183 0.275096
vt 0.898330 0.268038
vt 0.892853 0.554391
vt 1.000000 0.547333
vt 0.941634 0.286352
vt 0.832395 0.286352
vt 0.974324 0.118611
vt 0.954722 0.000267
vt 0.974324 0.000000
vt 0.961236 0.404696
vt 0.941634 0.286352
vt 0.961236 0.286619
vt 0.265460 0.655285
vt 0.285062 0.572059
vt 0.285062 0.655552
vt 0.551812 0.572059
vt 0.571414 0.655285
vt 0.551812 0.655552
vt 0.265460 0.773896
vt 0.285062 0.773628
vt 0.571414 0.773896
vt 0.551812 0.773628
vt 0.285062 0.857121
vt 0.265460 0.857766
vt 0.571414 0.857766
vt 0.551812 0.857121
vt 0.532210 0.571414
vt 0.532210 0.655285
vt 0.898330 0.000645
vt 0.917932 0.083871
vt 0.898330 0.084138
vt 0.551812 0.773628
vt 0.532210 0.773896
vt 0.917932 0.202481
vt 0.898330 0.202214
vt 0.551812 0.857121
vt 0.532210 0.857766
vt 0.917932 0.286352
vt 0.898330 0.285707
vt 0.974324 0.202481
vt 0.954722 0.118344
vt 0.961236 0.488189
vt 0.941634 0.404963
vt 1.000000 0.741855
vt 0.892853 0.744779
vt 0.202481 0.286352
vt 0.281369 0.200418
vt 0.286352 0.202481
vt 0.286352 0.487921
vt 0.371909 0.566431
vt 0.369845 0.571414
vt 0.201569 0.571414
vt 0.085557 0.566431
vt 0.199505 0.566431
vt 0.370223 0.286352
vt 0.486769 0.281369
vt 0.488833 0.286352
vt 0.083871 0.286352
vt 0.200417 0.281369
vt 0.485857 0.566431
vt 0.487921 0.571414
vt 0.083493 0.571414
vt 0.004983 0.485857
vt 0.572704 0.202481
vt 0.567721 0.200417
vt -0.000000 0.202481
vt 0.085934 0.281369
vt 0.566431 0.485857
vt 0.571414 0.487921
vt -0.000000 0.369845
vt -0.000000 0.487921
vt 0.567721 0.085935
vt 0.572704 0.083871
vt -0.000000 0.083871
vt 0.004983 0.200417
vt 0.566431 0.371909
vt 0.571414 0.369845
vt 0.083493 0.286352
vt 0.004983 0.371909
vt 0.488833 0.000000
vt 0.486769 0.004983
vt 0.085935 0.004983
vt 0.004983 0.085935
vt 0.485857 0.291335
vt 0.487921 0.286352
vt 0.201569 0.286352
vt 0.085557 0.291335
vt 0.372286 0.004983
vt 0.370223 0.000000
vt 0.083871 0.000000
vt 0.200417 0.004983
vt 0.371909 0.291335
vt 0.369845 0.286352
vt 0.285062 0.369845
vt 0.199505 0.291335
vt 0.291335 0.085935
vt 0.286352 0.083871
vt 0.202481 0.000000
vt 0.281369 0.085935
vt 0.291335 0.371909
vt 0.286352 0.369845
vt 0.285062 0.487921
vt 0.280079 0.371909
vt 0.291335 0.200418
vt 0.291335 0.485857
vt 0.280079 0.485858
vt 0.372287 0.281369
vt 0.248514 0.653017
vt 0.260980 0.755955
vt 0.248514 0.750792
vt 0.184541 0.571414
vt 0.260980 0.647854
vt 0.081603 0.583880
vt 0.179377 0.583880
vt 0.012466 0.653017
vt 0.076439 0.571414
vt 0.012466 0.750792
vt 0.000000 0.647854
vt 0.076439 0.832395
vt 0.000000 0.755955
vt 0.179377 0.819929
vt 0.081603 0.819928
vt 0.184541 0.832395
vt 0.285062 0.738325
vt 0.354199 0.571414
vt 0.521110 0.640551
vt 0.285062 0.905237
vt 0.303457 0.974374
vt 0.285062 0.974374
vt 0.954722 0.236048
vt 0.936327 0.236048
vt 0.936327 -0.000000
vt 0.954722 0.069137
vt 0.936327 0.069137
vt 0.917932 0.236048
vt 0.917932 0.000000
vt 0.936327 0.069137
vt 0.285062 0.807462
vt 0.303457 0.905237
vt 0.954722 0.166911
vt 0.892853 0.630830
vt 0.572704 -0.000000
vt 0.681944 0.000000
vt 0.571414 0.470893
vt 0.571414 0.362791
vt 0.647854 0.286352
vt 0.832395 0.362791
vt 0.755955 0.547332
vt 0.941634 0.400835
vt 1.000000 0.936378
vt 0.678561 0.547332
vt 0.785707 0.554390
vt 0.785707 0.815371
vt 0.791183 0.080574
vt 0.571414 0.554390
vt 0.265460 0.571414
vt 0.571414 0.571414
vt 0.551812 0.572059
vt 0.917932 -0.000000
vt 0.954722 0.201837
vt 0.941634 0.488833
vt 0.521110 0.738326
vt 0.451973 0.807462
vt 0.354199 0.807462
vt 0.285062 0.640551
vt 0.451973 0.571414
vt 0.954722 -0.000000
vt 0.936327 0.000000
vt 0.303457 0.807462
s 0
usemtl barrel_color
f 88/1/1 54/2/1 46/3/1
f 21/4/2 28/5/2 24/6/2
f 25/7/3 32/8/3 28/5/3
f 29/9/4 36/10/4 32/8/4
f 33/11/5 40/12/5 36/13/5
f 37/14/6 44/15/6 40/12/6
f 14/16/3 96/17/3 16/18/3
f 41/19/7 48/20/7 44/15/7
f 81/21/8 26/22/8 22/23/8
f 7/24/9 11/25/9 15/26/9
f 50/27/10 21/28/10 24/29/10
f 18/30/11 3/31/11 1/32/11
f 43/33/12 15/34/12 13/35/12
f 87/36/13 46/37/13 42/38/13
f 39/39/14 13/35/14 11/40/14
f 86/41/15 42/38/15 38/42/15
f 35/43/16 11/40/16 9/44/16
f 34/45/17 86/41/17 38/42/17
f 7/46/18 35/47/18 9/48/18
f 84/49/19 34/50/19 30/51/19
f 27/52/20 7/46/20 5/53/20
f 83/54/21 30/51/21 26/22/21
f 23/55/22 5/53/22 3/56/22
f 54/2/23 81/57/23 22/58/23
f 45/59/24 50/27/24 48/60/24
f 17/61/25 52/62/25 49/63/25
f 19/64/26 56/65/26 53/66/26
f 57/67/27 52/68/27 58/69/27
f 53/70/28 60/71/28 59/72/28
f 61/73/29 58/69/29 62/74/29
f 59/72/30 64/75/30 63/76/30
f 61/73/31 66/77/31 65/78/31
f 63/76/32 68/79/32 67/80/32
f 65/81/33 70/72/33 69/82/33
f 67/83/34 72/84/34 71/85/34
f 69/82/35 74/86/35 73/87/35
f 71/85/36 76/88/36 75/89/36
f 73/87/37 78/90/37 77/91/37
f 75/89/38 80/92/38 79/93/38
f 77/94/39 51/95/39 17/61/39
f 79/96/40 55/97/40 19/64/40
f 47/98/41 1/32/41 15/99/41
f 49/100/42 50/101/42 17/102/42
f 51/103/43 47/104/43 52/105/43
f 19/106/44 46/107/44 54/108/44
f 55/109/45 45/110/45 56/111/45
f 57/112/46 48/113/46 49/100/46
f 52/105/47 43/114/47 58/115/47
f 53/116/48 42/117/48 46/107/48
f 60/118/49 45/110/49 41/119/49
f 61/120/50 44/121/50 57/112/50
f 58/115/51 39/122/51 62/123/51
f 63/124/52 42/117/52 59/125/52
f 60/118/53 37/126/53 64/127/53
f 65/128/54 40/129/54 61/120/54
f 62/123/55 35/130/55 66/131/55
f 67/132/56 38/133/56 63/124/56
f 68/134/57 37/126/57 33/135/57
f 65/128/44 32/136/44 36/137/44
f 66/131/45 31/138/45 70/139/45
f 71/140/42 34/141/42 67/132/42
f 68/134/43 29/142/43 72/143/43
f 69/144/48 28/145/48 32/136/48
f 70/139/49 27/146/49 74/147/49
f 75/148/46 30/149/46 71/140/46
f 72/143/47 25/150/47 76/151/47
f 73/152/52 24/153/52 28/145/52
f 74/147/53 23/154/53 78/155/53
f 79/156/50 26/157/50 75/148/50
f 76/151/51 21/158/51 80/102/51
f 17/102/56 24/153/56 77/151/56
f 78/155/57 18/159/57 51/103/57
f 19/106/54 22/160/54 79/156/54
f 80/102/55 20/161/55 55/109/55
f 4/162/58 82/163/58 2/164/58
f 4/162/58 83/165/58 81/166/58
f 8/167/58 83/165/58 6/168/58
f 10/169/58 84/170/58 8/167/58
f 12/171/58 85/172/58 10/169/58
f 12/171/58 87/173/58 86/174/58
f 16/175/58 87/173/58 14/176/58
f 16/175/58 82/163/58 88/177/58
f 95/178/58 93/179/58 91/180/58
f 10/181/10 94/182/10 12/183/10
f 6/17/7 92/184/7 8/185/7
f 2/186/5 89/187/5 4/188/5
f 16/18/4 90/185/4 2/189/4
f 12/190/2 95/191/2 14/16/2
f 8/192/24 93/193/24 10/181/24
f 4/188/6 91/194/6 6/17/6
f 88/1/1 82/195/1 54/2/1
f 21/4/2 25/7/2 28/5/2
f 25/7/3 29/9/3 32/8/3
f 29/9/4 33/196/4 36/10/4
f 33/11/5 37/14/5 40/12/5
f 37/14/6 41/19/6 44/15/6
f 14/16/3 95/191/3 96/17/3
f 41/19/7 45/197/7 48/20/7
f 81/21/8 83/54/8 26/22/8
f 15/26/9 1/198/9 3/199/9
f 3/199/9 5/200/9 7/24/9
f 7/24/9 9/201/9 11/25/9
f 11/25/9 13/202/9 15/26/9
f 15/26/9 3/199/9 7/24/9
f 50/27/10 20/203/10 21/28/10
f 18/30/11 23/204/11 3/31/11
f 43/33/12 47/205/12 15/34/12
f 87/36/13 88/206/13 46/37/13
f 39/39/14 43/33/14 13/35/14
f 86/41/15 87/36/15 42/38/15
f 35/43/16 39/39/16 11/40/16
f 34/45/17 85/207/17 86/41/17
f 7/46/18 31/208/18 35/47/18
f 84/49/19 85/209/19 34/50/19
f 27/52/20 31/208/20 7/46/20
f 83/54/21 84/49/21 30/51/21
f 23/55/22 27/52/22 5/53/22
f 54/2/23 82/195/23 81/57/23
f 45/59/24 20/203/24 50/27/24
f 17/61/25 51/95/25 52/62/25
f 19/64/26 55/97/26 56/65/26
f 57/67/27 49/210/27 52/68/27
f 53/70/28 56/211/28 60/71/28
f 61/73/29 57/67/29 58/69/29
f 59/72/30 60/71/30 64/75/30
f 61/73/31 62/74/31 66/77/31
f 63/76/32 64/75/32 68/79/32
f 65/81/33 66/212/33 70/72/33
f 67/83/34 68/213/34 72/84/34
f 69/82/35 70/72/35 74/86/35
f 71/85/36 72/84/36 76/88/36
f 73/87/37 74/86/37 78/90/37
f 75/89/38 76/88/38 80/92/38
f 77/94/39 78/214/39 51/95/39
f 79/96/40 80/215/40 55/97/40
f 47/98/41 18/30/41 1/32/41
f 49/100/42 48/113/42 50/101/42
f 51/103/43 18/159/43 47/104/43
f 19/106/44 53/116/44 46/107/44
f 55/109/45 20/161/45 45/110/45
f 57/112/46 44/121/46 48/113/46
f 52/105/47 47/104/47 43/114/47
f 53/116/48 59/125/48 42/117/48
f 60/118/49 56/111/49 45/110/49
f 61/120/50 40/129/50 44/121/50
f 58/115/51 43/114/51 39/122/51
f 63/124/52 38/133/52 42/117/52
f 60/118/53 41/119/53 37/126/53
f 65/128/54 36/137/54 40/129/54
f 62/123/55 39/122/55 35/130/55
f 67/132/56 34/141/56 38/133/56
f 68/134/57 64/127/57 37/126/57
f 65/128/44 69/144/44 32/136/44
f 66/131/45 35/130/45 31/138/45
f 71/140/42 30/149/42 34/141/42
f 68/134/43 33/135/43 29/142/43
f 69/144/48 73/152/48 28/145/48
f 70/139/49 31/138/49 27/146/49
f 75/148/46 26/157/46 30/149/46
f 72/143/47 29/142/47 25/150/47
f 73/152/52 77/151/52 24/153/52
f 74/147/53 27/146/53 23/154/53
f 79/156/50 22/160/50 26/157/50
f 76/151/51 25/150/51 21/158/51
f 17/102/56 50/101/56 24/153/56
f 78/155/57 23/154/57 18/159/57
f 19/106/54 54/108/54 22/160/54
f 80/102/55 21/158/55 20/161/55
f 4/162/58 81/166/58 82/163/58
f 4/162/58 6/168/58 83/165/58
f 8/167/58 84/170/58 83/165/58
f 10/169/58 85/172/58 84/170/58
f 12/171/58 86/174/58 85/172/58
f 12/171/58 14/176/58 87/173/58
f 16/175/58 88/177/58 87/173/58
f 16/175/58 2/164/58 82/163/58
f 91/180/58 89/216/58 90/217/58
f 90/217/58 96/218/58 95/178/58
f 95/178/58 94/219/58 93/179/58
f 93/179/58 92/220/58 91/180/58
f 91/180/58 90/217/58 95/178/58
f 10/181/10 93/193/10 94/182/10
f 6/17/7 91/194/7 92/184/7
f 2/186/5 90/221/5 89/187/5
f 16/18/4 96/17/4 90/185/4
f 12/190/2 94/222/2 95/191/2
f 8/192/24 92/223/24 93/193/24
f 4/188/6 89/187/6 91/194/6
