# Blender 3.6.17
# www.blender.org
mtllib untitled.mtl
o Glass_low__mGlass
v 0.027318 -0.081399 0.052769
v 0.027318 -0.029167 0.052769
v 0.000000 -0.029167 0.052769
v 0.000000 -0.099689 0.052769
v -0.027318 -0.081399 0.052769
v -0.027318 -0.029167 0.052769
v 0.042443 0.076342 0.063968
v 0.024504 0.094280 0.063968
v 0.000000 0.051837 0.063968
v 0.049009 0.051837 0.063968
v 0.000000 0.100846 0.063968
v 0.042443 0.027333 0.063968
v -0.024504 0.094280 0.063968
v 0.024504 0.009394 0.063968
v -0.042443 0.076342 0.063968
v 0.000000 0.002828 0.063968
v -0.049009 0.051837 0.063968
v -0.024504 0.009394 0.063968
v -0.042443 0.027333 0.063968
vn -0.0000 -0.0000 1.0000
vt 0.972549 0.145098
vt 0.972549 0.541176
vt 0.764706 0.541176
vt 0.764706 0.007843
vt 0.556863 0.145098
vt 0.556863 0.541176
vt 0.537255 0.854902
vt 0.435294 0.956863
vt 0.298039 0.717647
vt 0.572549 0.717647
vt 0.298039 0.992157
vt 0.537255 0.584314
vt 0.164706 0.956863
vt 0.435294 0.482353
vt 0.062745 0.854902
vt 0.298039 0.447059
vt 0.027451 0.717647
vt 0.164706 0.482353
vt 0.062745 0.584314
s 1
usemtl mGlass
f 1/1/1 2/2/1 3/3/1
f 4/4/1 1/1/1 3/3/1
f 4/4/1 3/3/1 5/5/1
f 3/3/1 6/6/1 5/5/1
f 7/7/1 8/8/1 9/9/1
f 10/10/1 7/7/1 9/9/1
f 8/8/1 11/11/1 9/9/1
f 12/12/1 10/10/1 9/9/1
f 11/11/1 13/13/1 9/9/1
f 14/14/1 12/12/1 9/9/1
f 13/13/1 15/15/1 9/9/1
f 16/16/1 14/14/1 9/9/1
f 15/15/1 17/17/1 9/9/1
f 18/18/1 16/16/1 9/9/1
f 17/17/1 19/19/1 9/9/1
f 19/19/1 18/18/1 9/9/1
o Dial_low__mBody
v 0.000000 0.048343 0.061090
v 0.000000 0.048343 0.055031
v 0.001747 0.048811 0.055031
v 0.001747 0.048811 0.061090
v 0.003026 0.050090 0.055031
v 0.003026 0.050090 0.061090
v 0.003494 0.051837 0.055031
v 0.003494 0.051837 0.061090
v 0.003026 0.053585 0.055031
v 0.003026 0.053585 0.061090
v 0.001747 0.054864 0.055031
v 0.001747 0.054864 0.061090
v 0.000000 0.055332 0.055031
v 0.000000 0.055332 0.061090
v -0.001747 0.054864 0.055031
v -0.001747 0.054864 0.061090
v -0.003026 0.053585 0.055031
v -0.003026 0.053585 0.061090
v -0.003494 0.051837 0.055031
v -0.003494 0.051837 0.061090
v -0.003026 0.050090 0.055031
v -0.003026 0.050090 0.061090
v -0.001747 0.048811 0.055031
v -0.001747 0.048811 0.061090
v 0.000000 0.048343 0.055031
v 0.000000 0.048343 0.061090
v 0.032163 -0.032508 0.049744
v -0.032163 -0.032508 0.049744
v -0.032163 -0.014652 0.049744
v 0.032163 -0.014652 0.049744
v -0.032163 -0.014652 0.005637
v 0.032163 -0.014652 0.005637
v 0.032163 -0.032508 0.005637
v -0.000000 -0.095616 0.005637
v 0.032163 -0.079725 0.005637
v -0.032163 -0.032508 0.005637
v -0.032163 -0.014652 0.049744
v -0.032163 -0.032508 0.049744
v -0.032163 -0.079725 0.005637
v -0.032163 -0.079725 0.049744
v -0.000000 -0.095616 0.049744
v -0.000000 -0.095616 0.005637
v -0.070207 0.080918 0.044227
v -0.029080 0.122044 0.044227
v 0.029080 0.122044 0.044227
v 0.070207 0.080918 0.044227
v -0.070207 0.022757 0.044227
v 0.070206 0.022757 0.044227
v 0.029080 -0.018369 0.044227
v -0.029080 -0.018369 0.044227
v 0.032163 -0.032508 0.005637
v 0.032163 -0.014652 0.049744
v 0.032163 -0.014652 0.005637
v 0.032163 -0.032508 0.049744
v 0.032163 -0.079725 0.005637
v 0.032163 -0.079725 0.049744
v -0.000000 -0.095616 0.049744
v -0.000000 -0.095616 0.005637
v 0.045120 0.005556 0.053402
v 0.045120 0.104009 0.002540
v 0.045120 0.104009 0.053402
v 0.045120 0.005556 0.002540
v 0.045120 -0.019117 0.053402
v 0.045120 -0.019117 0.002540
v 0.045120 -0.091789 0.053402
v 0.045120 -0.091789 0.002540
v -0.000000 -0.124584 0.002540
v -0.000000 -0.124584 0.053402
v -0.045120 -0.091789 0.053402
v -0.000000 -0.124584 0.002540
v -0.000000 -0.124584 0.053402
v -0.045120 -0.091789 0.002540
v -0.045120 -0.019117 0.002540
v -0.045120 -0.019117 0.053402
v -0.045120 0.005556 0.002540
v -0.045120 0.005556 0.053402
v -0.045120 0.104009 0.053402
v -0.045120 0.104009 0.002540
v -0.042580 0.104009 -0.000000
v -0.042580 0.005556 -0.000000
v -0.042580 -0.019117 0.000000
v 0.042580 0.005556 -0.000000
v -0.042580 -0.090495 0.000000
v 0.042580 -0.019117 0.000000
v -0.000000 -0.121444 0.000000
v -0.000000 -0.124584 0.002540
v 0.045120 -0.091789 0.002540
v 0.042580 -0.090495 0.000000
v 0.045120 -0.019117 0.002540
v 0.045120 0.005556 0.002540
v 0.045120 0.104009 0.002540
v 0.042580 0.104009 -0.000000
v -0.042580 0.106548 0.002540
v -0.045120 0.104009 0.002540
v -0.045120 0.104009 0.053402
v -0.042580 0.106548 0.053402
v 0.042580 0.106548 0.002540
v 0.045120 0.104009 0.002540
v 0.042580 0.106548 0.053402
v 0.045120 0.104009 0.053402
v 0.001745 -0.058211 0.035302
v 0.001745 -0.058211 0.034103
v 0.002253 -0.057703 0.034103
v 0.002253 -0.057703 0.035302
v 0.002253 0.006928 0.034103
v 0.002253 0.006928 0.035302
v 0.001745 0.006928 0.035810
v 0.001745 -0.057703 0.035810
v 0.001745 -0.058211 0.035302
v -0.001745 0.006928 0.035810
v -0.001745 -0.058211 0.035302
v 0.001745 -0.058211 0.034103
v -0.001745 -0.058211 0.034103
v -0.001745 -0.057703 0.035810
v -0.002253 0.006928 0.035302
v -0.002253 -0.057703 0.035302
v -0.002253 0.006928 0.034103
v -0.001745 -0.058211 0.035302
v -0.001745 -0.058211 0.034103
v -0.002253 -0.057703 0.034103
v -0.001745 0.006928 0.033595
v -0.001745 -0.057703 0.033595
v -0.001745 -0.058211 0.034103
v 0.001745 -0.058211 0.034103
v 0.001745 -0.057703 0.033595
v 0.001745 0.006928 0.033595
v 0.002253 -0.057703 0.034103
v 0.002253 0.006928 0.034103
v -0.036340 0.005556 0.053402
v -0.037594 0.005556 0.056048
v -0.036340 -0.019117 0.053402
v -0.037594 -0.019117 0.056048
v -0.040730 0.005556 0.057144
v -0.036340 -0.086383 0.053402
v -0.040730 -0.019117 0.057144
v -0.043866 0.005556 0.056048
v -0.037594 -0.087155 0.056048
v -0.000000 -0.111818 0.053402
v -0.043866 -0.019117 0.056048
v -0.045120 0.005556 0.053402
v -0.045120 -0.019117 0.053402
v -0.040730 -0.089086 0.057144
v -0.043866 -0.091017 0.056048
v -0.045120 -0.091789 0.053402
v -0.000000 -0.113641 0.056048
v -0.000000 -0.118201 0.057144
v -0.000000 -0.122760 0.056048
v -0.000000 -0.124584 0.053402
v 0.045120 -0.091789 0.053402
v 0.043866 -0.091017 0.056048
v 0.045120 -0.019117 0.053402
v 0.040730 -0.089086 0.057144
v 0.037594 -0.087155 0.056048
v 0.036340 -0.086383 0.053402
v 0.043866 -0.019117 0.056048
v 0.040730 -0.019117 0.057144
v 0.045120 0.005556 0.053402
v 0.043866 0.005556 0.056048
v 0.040730 0.005556 0.057144
v 0.037594 0.005556 0.056048
v 0.037594 -0.019117 0.056048
v 0.036340 0.005556 0.053402
v 0.036340 -0.019117 0.053402
v 0.002290 0.053250 0.059090
v 0.002290 0.053250 0.058288
v 0.001298 0.058018 0.058288
v 0.001298 0.058018 0.059090
v 0.001043 0.062787 0.058288
v -0.000000 0.053250 0.059090
v 0.001043 0.062787 0.059090
v 0.000891 0.073757 0.058288
v -0.000000 0.058018 0.059090
v -0.001298 0.058018 0.059090
v -0.002290 0.053250 0.059090
v -0.002290 0.053250 0.058288
v -0.001298 0.058018 0.058288
v -0.001043 0.062787 0.059090
v -0.001043 0.062787 0.058288
v -0.000000 0.062787 0.059090
v -0.000891 0.073757 0.059089
v -0.000891 0.073757 0.058288
v 0.000891 0.073757 0.059089
v 0.001034 0.077919 0.058288
v -0.000000 0.073757 0.059089
v -0.001034 0.077919 0.059089
v -0.001034 0.077919 0.058288
v -0.000000 0.077919 0.059089
v -0.001619 0.080823 0.059090
v -0.001619 0.080823 0.058288
v -0.000000 0.080823 0.059458
v 0.001034 0.077919 0.059089
v 0.001619 0.080823 0.058288
v 0.001619 0.080823 0.059089
v 0.002223 0.082374 0.058288
v -0.000000 0.082374 0.059574
v 0.002223 0.082374 0.059089
v 0.001505 0.084476 0.058288
v 0.001505 0.084476 0.059089
v 0.000832 0.086578 0.058288
v -0.002223 0.082374 0.059090
v -0.002223 0.082374 0.058288
v -0.001505 0.084476 0.059089
v -0.001505 0.084476 0.058288
v -0.000832 0.086578 0.058288
v -0.000000 0.084476 0.059574
v 0.000832 0.086578 0.059090
v -0.000000 0.091397 0.058288
v -0.000000 0.091397 0.059090
v -0.000000 0.091397 0.058288
v -0.000000 0.086578 0.059458
v -0.000832 0.086578 0.059090
v 0.002290 0.053250 0.060656
v 0.002290 0.053250 0.059854
v 0.001298 0.056982 0.059854
v 0.001298 0.056982 0.060656
v 0.001043 0.060713 0.059854
v -0.000000 0.053250 0.060656
v 0.001043 0.060713 0.060656
v 0.000891 0.064445 0.059854
v -0.000000 0.056982 0.060656
v -0.001298 0.056982 0.060656
v -0.002290 0.053250 0.060656
v -0.002290 0.053250 0.059854
v -0.001298 0.056982 0.059854
v -0.001043 0.060713 0.060656
v -0.001043 0.060713 0.059854
v -0.000000 0.060713 0.060656
v -0.000891 0.064445 0.060656
v -0.000891 0.064445 0.059854
v 0.000891 0.064445 0.060656
v 0.001108 0.071403 0.059854
v -0.000000 0.064445 0.060656
v -0.001108 0.071403 0.060656
v -0.001108 0.071403 0.059854
v -0.000000 0.071403 0.060656
v -0.003296 0.073039 0.060656
v -0.003296 0.073039 0.059854
v -0.000000 0.073039 0.061096
v 0.001108 0.071403 0.060656
v 0.003296 0.073039 0.059854
v 0.003296 0.073039 0.060656
v 0.003923 0.074745 0.059854
v -0.000000 0.074745 0.061305
v 0.003923 0.074745 0.060656
v 0.003488 0.075902 0.059854
v 0.003488 0.075902 0.060656
v 0.002656 0.077059 0.059854
v -0.003923 0.074745 0.060656
v -0.003923 0.074745 0.059854
v -0.003488 0.075902 0.060656
v -0.003488 0.075902 0.059854
v -0.000000 0.075902 0.061358
v -0.002656 0.077059 0.060656
v -0.002656 0.077059 0.059854
v 0.002656 0.077059 0.060656
v 0.001468 0.079373 0.059854
v -0.000000 0.077059 0.061305
v -0.001468 0.079373 0.060656
v -0.001468 0.079373 0.059854
v 0.001468 0.079373 0.060656
v -0.000000 0.083104 0.059854
v -0.000000 0.083104 0.060656
v -0.000000 0.083104 0.059854
v -0.000000 0.079373 0.061096
v 0.036340 -0.019117 0.053402
v 0.036340 0.005556 0.053402
v -0.036340 0.005556 0.053402
v -0.036340 -0.019117 0.053402
v -0.030720 -0.025679 0.053402
v -0.036340 -0.086383 0.053402
v 0.030720 -0.025679 0.053402
v -0.030720 -0.082923 0.053402
v 0.036340 -0.086383 0.053402
v -0.000000 -0.103647 0.053402
v 0.030720 -0.082923 0.053402
v -0.000000 -0.111818 0.053402
v 0.029080 0.122044 0.044227
v 0.030132 0.124583 0.046767
v 0.070207 0.080918 0.044227
v 0.072746 0.081970 0.046767
v 0.070206 0.022757 0.044227
v 0.072746 0.081970 0.062841
v 0.030132 0.124583 0.062841
v 0.029497 0.123049 0.065595
v 0.072746 0.021705 0.046767
v 0.029080 -0.018369 0.044227
v 0.072746 0.021705 0.062841
v 0.071212 0.081334 0.065595
v 0.028226 0.119980 0.066736
v 0.071212 0.022340 0.065595
v 0.068143 0.080063 0.066736
v 0.026955 0.116911 0.065595
v 0.068143 0.023612 0.066736
v 0.029497 -0.019374 0.065595
v 0.065074 0.078792 0.065595
v 0.026319 0.115377 0.062841
v 0.063540 0.078156 0.062841
v 0.063540 0.025518 0.062841
v 0.065074 0.024883 0.065595
v 0.026319 -0.011702 0.062841
v 0.028226 -0.016306 0.066736
v 0.026955 -0.013237 0.065595
v -0.026319 -0.011702 0.062841
v -0.026955 -0.013237 0.065595
v -0.028226 -0.016306 0.066736
v -0.029497 -0.019374 0.065595
v 0.030132 -0.020909 0.062841
v -0.030132 -0.020909 0.062841
v 0.030132 -0.020909 0.046767
v -0.030132 -0.020909 0.046767
v -0.029080 -0.018369 0.044227
v -0.070207 0.022757 0.044227
v -0.029080 -0.018369 0.044227
v -0.030132 -0.020909 0.046767
v -0.072746 0.021705 0.046767
v -0.070207 0.080918 0.044227
v -0.072746 0.021705 0.062841
v -0.030132 -0.020909 0.062841
v -0.072746 0.081970 0.046767
v -0.029080 0.122044 0.044227
v -0.072746 0.081970 0.062841
v -0.071212 0.022340 0.065595
v -0.029497 -0.019374 0.065595
v -0.028226 -0.016306 0.066736
v -0.071212 0.081334 0.065595
v -0.068143 0.023612 0.066736
v -0.026955 -0.013237 0.065595
v -0.026319 -0.011702 0.062841
v -0.063540 0.025518 0.062841
v -0.065074 0.024883 0.065595
v -0.063540 0.078156 0.062841
v -0.068143 0.080063 0.066736
v -0.065074 0.078792 0.065595
v -0.026319 0.115377 0.062841
v -0.029497 0.123049 0.065595
v -0.028226 0.119980 0.066736
v -0.026955 0.116911 0.065595
v 0.026319 0.115377 0.062841
v 0.026955 0.116911 0.065595
v 0.028226 0.119980 0.066736
v 0.029497 0.123049 0.065595
v -0.030132 0.124584 0.062841
v 0.030132 0.124583 0.062841
v -0.030132 0.124584 0.046767
v 0.030132 0.124583 0.046767
v 0.029080 0.122044 0.044227
v -0.000000 -0.103647 0.053402
v 0.030720 -0.082923 0.053402
v -0.000000 -0.102643 0.055421
v 0.029883 -0.082524 0.055421
v -0.000000 -0.099632 0.056257
v 0.029883 -0.026533 0.055421
v 0.030720 -0.025679 0.053402
v -0.030720 -0.025679 0.053402
v 0.027371 -0.081324 0.056257
v -0.000000 -0.096620 0.055421
v 0.027371 -0.029094 0.056257
v -0.029883 -0.026533 0.055421
v -0.030720 -0.082923 0.053402
v -0.027371 -0.029094 0.056257
v -0.029883 -0.082524 0.055421
v -0.000000 -0.103647 0.053402
v -0.000000 -0.102643 0.055421
v -0.000000 -0.099632 0.056257
v -0.027371 -0.081324 0.056257
v -0.000000 -0.096620 0.055421
v -0.024860 -0.031654 0.055421
v -0.024860 -0.080125 0.055421
v -0.000000 -0.095616 0.053402
v 0.024860 -0.031654 0.055421
v -0.024022 -0.032508 0.053402
v -0.024022 -0.079725 0.053402
v -0.032163 -0.079725 0.049744
v -0.000000 -0.095616 0.049744
v -0.032163 -0.032508 0.049744
v 0.024022 -0.032508 0.053402
v 0.032163 -0.032508 0.049744
v 0.032163 -0.079725 0.049744
v 0.024860 -0.080125 0.055421
v -0.000000 -0.095616 0.053402
v -0.000000 -0.095616 0.049744
v 0.024022 -0.079725 0.053402
v 0.007167 -0.057361 0.035910
v 0.012414 -0.062608 0.035910
v -0.000000 -0.069775 0.035910
v -0.000000 -0.055441 0.035910
v 0.014334 -0.069775 0.035910
v -0.007167 -0.057361 0.035910
v 0.012414 -0.076942 0.035910
v -0.012414 -0.062608 0.035910
v 0.007167 -0.082189 0.035910
v -0.014334 -0.069775 0.035910
v -0.000000 -0.084109 0.035910
v -0.012414 -0.076942 0.035910
v -0.007167 -0.082189 0.035910
v -0.019672 0.040946 0.054738
v -0.019672 0.040946 0.057362
v -0.017039 0.042037 0.054738
v -0.020763 0.038312 0.054738
v -0.017039 0.042037 0.057362
v -0.014405 0.040946 0.054738
v -0.020763 0.038312 0.057362
v -0.019672 0.035679 0.054738
v -0.017039 0.040604 0.057980
v -0.018659 0.039933 0.057980
v -0.019672 0.035679 0.057362
v -0.019331 0.038312 0.057980
v -0.018456 0.039730 0.057235
v -0.017039 0.034588 0.057362
v -0.017039 0.034588 0.054738
v -0.018659 0.036692 0.057980
v -0.019043 0.038312 0.057235
v -0.014405 0.035679 0.057362
v -0.014405 0.035679 0.054738
v -0.013315 0.038312 0.054738
v -0.017039 0.036021 0.057980
v -0.018456 0.036895 0.057235
v -0.013315 0.038312 0.057362
v -0.017039 0.036308 0.057235
v -0.017039 0.038312 0.057235
v -0.015621 0.036895 0.057235
v -0.015418 0.036692 0.057980
v -0.014747 0.038312 0.057980
v -0.015034 0.038312 0.057235
v -0.017039 0.040317 0.057235
v -0.015621 0.039730 0.057235
v -0.015418 0.039933 0.057980
v -0.014405 0.040946 0.057362
v 0.017039 0.042037 0.054738
v 0.019672 0.040946 0.057362
v 0.019672 0.040946 0.054738
v 0.020763 0.038312 0.054738
v 0.017039 0.042037 0.057362
v 0.014405 0.040946 0.054738
v 0.020763 0.038312 0.057362
v 0.019672 0.035679 0.054738
v 0.014405 0.040946 0.057362
v 0.019672 0.035679 0.057362
v 0.013315 0.038312 0.057362
v 0.013315 0.038312 0.054738
v 0.017039 0.034588 0.057362
v 0.017039 0.034588 0.054738
v 0.014405 0.035679 0.057362
v 0.014405 0.035679 0.054738
v 0.015418 0.036692 0.057980
v 0.017039 0.036021 0.057980
v 0.014747 0.038312 0.057980
v 0.015621 0.036895 0.057235
v 0.018659 0.036692 0.057980
v 0.017039 0.036308 0.057235
v 0.015034 0.038312 0.057235
v 0.018456 0.036895 0.057235
v 0.017039 0.038312 0.057235
v 0.019043 0.038312 0.057235
v 0.019331 0.038312 0.057980
v 0.018456 0.039730 0.057235
v 0.018659 0.039933 0.057980
v 0.017039 0.040604 0.057980
v 0.017039 0.040317 0.057235
v 0.015621 0.039730 0.057235
v 0.015418 0.039933 0.057980
v 0.015655 0.058322 0.054768
v 0.011981 0.063819 0.054768
v 0.011981 0.063819 0.057214
v 0.015655 0.058322 0.057214
v 0.016944 0.051837 0.054768
v 0.006484 0.067492 0.057214
v 0.006484 0.067492 0.054768
v 0.016944 0.051837 0.057214
v 0.015655 0.045353 0.054768
v 0.000000 0.068782 0.057214
v 0.000000 0.068782 0.054768
v 0.015655 0.045353 0.057214
v 0.011981 0.039856 0.054768
v -0.006484 0.067492 0.057214
v -0.006484 0.067492 0.054768
v 0.011981 0.039856 0.057214
v 0.006484 0.036183 0.054768
v -0.011981 0.063819 0.057214
v -0.011981 0.063819 0.054768
v 0.006484 0.036183 0.057214
v 0.000000 0.034893 0.054768
v -0.015655 0.058322 0.057214
v -0.015655 0.058322 0.054768
v 0.000000 0.034893 0.057214
v -0.006484 0.036183 0.054768
v -0.016944 0.051837 0.057214
v -0.016944 0.051837 0.054768
v -0.006484 0.036183 0.057214
v -0.011981 0.039856 0.054768
v -0.015655 0.045353 0.057214
v -0.015655 0.045353 0.054768
v -0.011981 0.039856 0.057214
v -0.014847 0.051837 0.058201
v -0.013717 0.046156 0.058201
v -0.010499 0.041339 0.058201
v -0.005682 0.038120 0.058201
v 0.000000 0.036990 0.058201
v -0.005414 0.038766 0.057214
v 0.005682 0.038120 0.058201
v 0.000000 0.037689 0.057214
v 0.005414 0.038766 0.057214
v 0.010499 0.041339 0.058201
v 0.010004 0.041833 0.057214
v 0.000000 0.037689 0.054768
v -0.005414 0.038766 0.054768
v 0.005414 0.038766 0.054768
v -0.010004 0.041833 0.054768
v 0.010004 0.041833 0.054768
v -0.010004 0.041833 0.057214
v -0.013071 0.046423 0.054768
v -0.013071 0.046423 0.057214
v -0.014148 0.051837 0.054768
v -0.014148 0.051837 0.057214
v -0.013071 0.057252 0.054768
v -0.013717 0.057519 0.058201
v -0.013071 0.057252 0.057214
v -0.010004 0.061842 0.054768
v -0.010499 0.062336 0.058201
v -0.010004 0.061842 0.057214
v -0.005414 0.064909 0.054768
v -0.005682 0.065555 0.058201
v -0.005414 0.064909 0.057214
v 0.000000 0.065986 0.054768
v 0.000000 0.066685 0.058201
v 0.000000 0.065986 0.057214
v 0.005414 0.064909 0.054768
v 0.005682 0.065555 0.058201
v 0.005414 0.064909 0.057214
v 0.010004 0.061842 0.054768
v 0.010499 0.062336 0.058201
v 0.010004 0.061842 0.057214
v 0.013071 0.057252 0.054768
v 0.013717 0.057519 0.058201
v 0.013071 0.057252 0.057214
v 0.014148 0.051837 0.054768
v 0.014847 0.051837 0.058201
v 0.014148 0.051837 0.057214
v 0.013071 0.046423 0.054768
v 0.013717 0.046156 0.058201
v 0.013071 0.046423 0.057214
v 0.052140 0.065808 0.055301
v 0.046748 0.078827 0.055301
v 0.052140 0.065808 0.064164
v 0.053980 0.051837 0.064164
v 0.053980 0.051837 0.055301
v 0.046748 0.078827 0.064164
v 0.038169 0.090007 0.055301
v 0.052141 0.037866 0.064164
v 0.052141 0.037866 0.055301
v 0.038169 0.090007 0.064164
v 0.026990 0.098585 0.055301
v 0.046748 0.024847 0.064164
v 0.046748 0.024847 0.055301
v 0.026990 0.098585 0.064164
v 0.013971 0.103978 0.055301
v 0.038169 0.013668 0.064164
v 0.038169 0.013668 0.055301
v 0.013971 0.103978 0.064164
v 0.000000 0.105817 0.055301
v 0.026990 0.005089 0.064164
v 0.026990 0.005089 0.055301
v 0.000000 0.105817 0.064164
v -0.013971 0.103978 0.055301
v 0.013971 -0.000303 0.064164
v 0.013971 -0.000303 0.055301
v -0.013971 0.103978 0.064164
v -0.026990 0.098585 0.055301
v -0.000000 -0.002142 0.064164
v -0.000000 -0.002142 0.055301
v -0.026990 0.098585 0.064164
v -0.038169 0.090007 0.055301
v -0.013971 -0.000303 0.064164
v -0.013971 -0.000303 0.055301
v -0.038169 0.090007 0.064164
v -0.046748 0.078827 0.055301
v -0.026990 0.005089 0.064164
v -0.026990 0.005089 0.055301
v -0.046748 0.078827 0.064164
v -0.052140 0.065808 0.055301
v -0.038169 0.013668 0.064164
v -0.038169 0.013668 0.055301
v -0.052140 0.065808 0.064164
v -0.053980 0.051837 0.055301
v -0.046748 0.024847 0.064164
v -0.046748 0.024847 0.055301
v -0.053980 0.051837 0.064164
v -0.052140 0.037866 0.055301
v -0.052140 0.037866 0.064164
v -0.047390 0.064536 0.066284
v -0.049062 0.051837 0.066284
v -0.047390 0.039139 0.066284
v -0.042489 0.076368 0.066284
v -0.045354 0.063990 0.064329
v -0.034692 0.086529 0.066284
v -0.040664 0.075314 0.064329
v -0.033202 0.085039 0.064329
v -0.024531 0.094326 0.066284
v -0.023477 0.092501 0.064329
v -0.012698 0.099228 0.066284
v -0.012153 0.097192 0.064329
v 0.000000 0.100899 0.066284
v 0.000000 0.098792 0.064329
v 0.012698 0.099228 0.066284
v 0.012153 0.097192 0.064329
v 0.024531 0.094326 0.066284
v 0.023477 0.092501 0.064329
v 0.034692 0.086529 0.066284
v 0.033202 0.085039 0.064329
v 0.042489 0.076368 0.066284
v 0.040664 0.075314 0.064329
v 0.047390 0.064536 0.066284
v 0.045354 0.063990 0.064329
v 0.049062 0.051837 0.066284
v 0.046954 0.051837 0.064329
v 0.047390 0.039139 0.066284
v 0.045354 0.039685 0.064329
v 0.042489 0.027306 0.066284
v 0.040664 0.028360 0.064329
v 0.034692 0.017145 0.066284
v 0.033202 0.018636 0.064329
v 0.024531 0.009348 0.066284
v 0.023477 0.011174 0.064329
v 0.012698 0.004447 0.066284
v 0.012153 0.006483 0.064329
v 0.000000 0.002775 0.066284
v 0.000000 0.004883 0.064329
v -0.012698 0.004447 0.066284
v -0.012153 0.006483 0.064329
v -0.024531 0.009348 0.066284
v -0.023477 0.011174 0.064329
v -0.034692 0.017145 0.066284
v -0.033202 0.018636 0.064329
v -0.042489 0.027306 0.066284
v -0.040664 0.028360 0.064329
v -0.045354 0.039685 0.064329
v -0.046954 0.051837 0.064329
v -0.045354 0.039685 0.056743
v -0.046954 0.051837 0.056743
v -0.045354 0.063990 0.056743
v -0.040664 0.075314 0.056743
v 0.000000 0.051837 0.056743
v -0.033202 0.085039 0.056743
v -0.023477 0.092501 0.056743
v -0.012153 0.097192 0.056743
v 0.000000 0.098792 0.056743
v 0.012153 0.097192 0.056743
v 0.023477 0.092501 0.056743
v 0.033202 0.085039 0.056743
v 0.040664 0.075314 0.056743
v 0.045354 0.063990 0.056743
v 0.046954 0.051837 0.056743
v 0.045354 0.039685 0.056743
v 0.040664 0.028360 0.056743
v 0.033202 0.018636 0.056743
v 0.023477 0.011174 0.056743
v 0.012153 0.006483 0.056743
v 0.000000 0.004883 0.056743
v -0.012153 0.006483 0.056743
v -0.023477 0.011174 0.056743
v -0.033202 0.018636 0.056743
v -0.040664 0.028360 0.056743
v 0.001747 0.054864 0.061090
v 0.001513 0.054458 0.062132
v 0.003026 0.053585 0.061090
v 0.000000 0.054864 0.062132
v 0.000000 0.055332 0.061090
v 0.002621 0.053350 0.062132
v 0.003494 0.051837 0.061090
v -0.001513 0.054458 0.062132
v -0.001747 0.054864 0.061090
v 0.000000 0.053585 0.062894
v -0.002621 0.053350 0.062132
v -0.003026 0.053585 0.061090
v -0.000874 0.053350 0.062894
v -0.001513 0.052711 0.062894
v 0.000874 0.053350 0.062894
v 0.000000 0.051837 0.063173
v 0.001513 0.052711 0.062894
v -0.001747 0.051837 0.062894
v -0.003026 0.051837 0.062132
v -0.003494 0.051837 0.061090
v -0.001513 0.050964 0.062894
v -0.002621 0.050324 0.062132
v -0.003026 0.050090 0.061090
v -0.000874 0.050324 0.062894
v -0.001513 0.049217 0.062132
v -0.001747 0.048811 0.061090
v 0.000000 0.050090 0.062894
v 0.000000 0.048811 0.062132
v 0.000000 0.048343 0.061090
v 0.000874 0.050324 0.062894
v 0.001513 0.049217 0.062132
v 0.001747 0.048811 0.061090
v 0.001513 0.050964 0.062894
v 0.002621 0.050324 0.062132
v 0.003026 0.050090 0.061090
v 0.001747 0.051837 0.062894
v 0.003026 0.051837 0.062132
v 0.063540 0.025518 0.062841
v 0.063540 0.078156 0.062841
v 0.060156 0.076755 0.062841
v 0.060156 0.026920 0.062841
v 0.026319 -0.011702 0.062841
v 0.024917 0.111993 0.062841
v 0.026319 0.115377 0.062841
v 0.024917 -0.008319 0.062841
v -0.026319 -0.011702 0.062841
v -0.024917 0.111993 0.062841
v -0.026319 0.115377 0.062841
v -0.024917 -0.008318 0.062841
v -0.063540 0.025518 0.062841
v -0.060156 0.076755 0.062841
v -0.063540 0.078156 0.062841
v -0.060156 0.026920 0.062841
v -0.058216 0.075951 0.060799
v -0.058216 0.027724 0.060799
v -0.024114 -0.006378 0.060799
v -0.024114 0.110053 0.060799
v -0.058216 0.075951 0.056348
v 0.024114 0.110053 0.060799
v -0.024114 0.110053 0.056348
v 0.024114 0.110053 0.056348
v 0.058216 0.075951 0.056348
v 0.058216 0.075951 0.060799
v 0.058216 0.027724 0.056348
v 0.058216 0.027724 0.060799
v -0.058216 0.027724 0.056348
v 0.024114 -0.006378 0.056348
v 0.024114 -0.006378 0.060799
v -0.024114 -0.006378 0.056348
v 0.012414 -0.062608 0.035910
v 0.007167 -0.057361 0.035910
v 0.012414 -0.062608 0.039740
v 0.014334 -0.069775 0.039740
v 0.014334 -0.069775 0.035910
v 0.007167 -0.057361 0.039740
v -0.000000 -0.055441 0.035910
v 0.012414 -0.076942 0.039740
v 0.012414 -0.076942 0.035910
v -0.000000 -0.055441 0.039740
v -0.007167 -0.057361 0.035910
v 0.007167 -0.082189 0.039740
v 0.007167 -0.082189 0.035910
v -0.007167 -0.057361 0.039740
v -0.012414 -0.062608 0.035910
v -0.000000 -0.084109 0.039740
v -0.000000 -0.084109 0.035910
v -0.012414 -0.062608 0.039740
v -0.014334 -0.069775 0.035910
v -0.007167 -0.082189 0.039740
v -0.007167 -0.082189 0.035910
v -0.014334 -0.069775 0.039740
v -0.012414 -0.076942 0.035910
v -0.012414 -0.076942 0.039740
v -0.008868 -0.064655 0.039740
v -0.010240 -0.069775 0.039740
v -0.008868 -0.074895 0.039740
v -0.005120 -0.078643 0.039740
v -0.000000 -0.080015 0.039740
v -0.006009 -0.073244 0.038368
v 0.005120 -0.078643 0.039740
v -0.003469 -0.075784 0.038368
v -0.000000 -0.076713 0.038368
v -0.006938 -0.069775 0.038368
v -0.000000 -0.069775 0.038368
v -0.006009 -0.066306 0.038368
v 0.003469 -0.075784 0.038368
v -0.003469 -0.063766 0.038368
v -0.005120 -0.060907 0.039740
v -0.000000 -0.062837 0.038368
v -0.000000 -0.059535 0.039740
v 0.003469 -0.063766 0.038368
v 0.005120 -0.060907 0.039740
v 0.006009 -0.066306 0.038368
v 0.008868 -0.064655 0.039740
v 0.006938 -0.069775 0.038368
v 0.010240 -0.069775 0.039740
v 0.006009 -0.073244 0.038368
v 0.008868 -0.074895 0.039740
vn -0.0000 -0.9779 0.2093
vn -0.0000 -1.0000 -0.0000
vn 0.4990 -0.8666 -0.0000
vn 0.4890 -0.8468 0.2093
vn 0.8660 -0.5000 -0.0000
vn 0.8468 -0.4889 0.2093
vn 1.0000 -0.0000 -0.0000
vn 0.9779 -0.0000 0.2093
vn 0.8660 0.5000 -0.0000
vn 0.8468 0.4889 0.2093
vn 0.4990 0.8666 -0.0000
vn 0.4889 0.8468 0.2093
vn -0.0000 1.0000 -0.0000
vn -0.0000 0.9779 0.2093
vn -0.4990 0.8666 -0.0000
vn -0.4889 0.8468 0.2093
vn -0.8660 0.5000 -0.0000
vn -0.8468 0.4890 0.2093
vn -1.0000 -0.0000 -0.0000
vn -0.9779 -0.0000 0.2093
vn -0.8660 -0.5000 -0.0000
vn -0.8468 -0.4889 0.2093
vn -0.4990 -0.8666 -0.0000
vn -0.4890 -0.8468 0.2093
vn -0.8451 -0.2484 -0.4734
vn 0.7453 -0.3090 -0.5908
vn 0.8158 -0.4089 -0.4089
vn -0.6669 -0.6669 -0.3324
vn 0.3325 -0.6669 0.6669
vn -0.5774 -0.5774 0.5773
vn -0.6003 -0.0000 0.7998
vn -0.0000 0.5125 0.8587
vn -0.8145 0.5071 0.2819
vn 0.7998 -0.0000 0.6003
vn 0.7453 -0.3091 -0.5908
vn 0.6767 0.6435 0.3579
vn 0.7858 0.5004 -0.3636
vn -0.3308 0.1370 -0.9337
vn -0.1821 0.4405 -0.8791
vn 0.1821 0.4405 -0.8791
vn 0.3308 0.1370 -0.9337
vn -0.3308 -0.1370 -0.9337
vn 0.3308 -0.1370 -0.9337
vn 0.1821 -0.4405 -0.8791
vn -0.1821 -0.4405 -0.8791
vn -0.6669 -0.6669 -0.3325
vn -0.6773 0.5951 -0.4326
vn 0.9940 -0.0000 0.1096
vn 0.9098 0.2935 -0.2935
vn 0.9235 0.3835 -0.0000
vn 0.9523 -0.0000 -0.3051
vn 0.9844 -0.0000 0.1761
vn 0.8783 -0.4460 0.1721
vn 0.8086 -0.4111 -0.4209
vn -0.0000 -0.9516 -0.3074
vn -0.0000 -0.9548 0.2974
vn -0.8783 -0.4460 0.1721
vn -0.8086 -0.4111 -0.4209
vn -0.9523 -0.0000 -0.3050
vn -0.9844 -0.0000 0.1761
vn -0.9523 -0.0000 -0.3051
vn -0.9940 -0.0000 0.1096
vn -0.9235 0.3835 -0.0000
vn -0.9098 0.2935 -0.2935
vn -0.3675 0.3675 -0.8543
vn -0.3833 -0.0000 -0.9236
vn -0.3834 -0.0000 -0.9236
vn 0.3833 -0.0000 -0.9236
vn -0.3094 -0.1566 -0.9380
vn 0.3834 -0.0000 -0.9236
vn -0.0000 -0.4284 -0.9036
vn 0.3094 -0.1567 -0.9379
vn 0.3675 0.3675 -0.8543
vn -0.3675 0.8543 -0.3675
vn -0.3834 0.9236 -0.0000
vn 0.3675 0.8543 -0.3675
vn 0.3836 0.9235 -0.0000
vn 0.3675 -0.8543 0.3676
vn 0.3675 -0.8543 -0.3676
vn 0.8543 -0.3676 -0.3676
vn 0.8543 -0.3675 0.3675
vn 0.9235 0.0001 -0.3835
vn 0.9236 -0.0000 0.3834
vn 0.3835 -0.0000 0.9235
vn 0.3676 -0.3675 0.8543
vn 0.3675 -0.8543 0.3675
vn -0.3835 -0.0000 0.9235
vn -0.3675 -0.8543 0.3675
vn 0.3676 -0.8543 -0.3675
vn -0.3675 -0.8543 -0.3676
vn -0.3675 -0.3675 0.8543
vn -0.9235 -0.0000 0.3835
vn -0.8543 -0.3675 0.3675
vn -0.9235 -0.0000 -0.3835
vn -0.3675 -0.8543 -0.3675
vn -0.8543 -0.3675 -0.3676
vn -0.3835 -0.0000 -0.9235
vn -0.3675 -0.3675 -0.8543
vn 0.3675 -0.8543 -0.3675
vn 0.3675 -0.3675 -0.8543
vn 0.8543 -0.3675 -0.3675
vn 0.9235 -0.0000 -0.3835
vn 0.5342 -0.0000 0.8454
vn 0.6689 -0.0000 0.7434
vn 0.4244 -0.0000 0.9055
vn 0.6688 -0.0000 0.7434
vn -0.0000 -0.0000 1.0000
vn 0.2741 0.1409 0.9513
vn -0.6689 -0.0000 0.7434
vn 0.5423 0.2721 0.7949
vn -0.0000 0.4401 0.8979
vn -0.6688 -0.0000 0.7434
vn -0.5454 -0.2697 0.7936
vn -0.0000 0.5579 0.8299
vn -0.0000 -0.5556 0.8314
vn 0.5454 -0.2697 0.7936
vn -0.5423 0.2721 0.7949
vn -0.2741 0.1409 0.9513
vn 0.6689 -0.0000 0.7433
vn -0.6689 -0.0000 0.7433
vn -0.6690 -0.0000 0.7433
vn -0.5342 -0.0000 0.8454
vn -0.3483 -0.0000 0.9374
vn 0.6927 0.1448 0.7065
vn 0.9790 0.2038 -0.0000
vn 0.9917 0.1289 -0.0000
vn 0.7002 0.0919 0.7080
vn 0.9994 0.0336 -0.0000
vn 0.7069 0.0235 0.7069
vn 1.0000 -0.0100 -0.0000
vn -0.7002 0.0920 0.7080
vn -0.6927 0.1448 0.7065
vn -0.9790 0.2038 -0.0000
vn -0.9917 0.1289 -0.0000
vn -0.7069 0.0235 0.7069
vn -0.9994 0.0336 -0.0000
vn -0.7071 -0.0078 0.7071
vn -1.0000 -0.0100 -0.0000
vn 0.7071 -0.0078 0.7071
vn 0.9933 -0.1154 -0.0000
vn -0.7243 -0.1057 0.6813
vn -0.9933 -0.1154 -0.0000
vn -0.0000 -0.0391 0.9992
vn -0.7358 -0.2329 0.6359
vn -0.9594 -0.2819 -0.0000
vn -0.0000 -0.0783 0.9969
vn 0.7243 -0.1057 0.6813
vn 0.9594 -0.2819 -0.0000
vn 0.7357 -0.2328 0.6360
vn 0.9998 -0.0212 -0.0000
vn 0.0001 -0.0175 0.9998
vn 0.7702 -0.0254 0.6373
vn 0.9491 0.3150 -0.0000
vn 0.7726 0.2327 0.5907
vn 0.9711 0.2388 -0.0000
vn -0.7702 -0.0254 0.6373
vn -0.9998 -0.0212 -0.0000
vn -0.7726 0.2327 0.5907
vn -0.9491 0.3150 -0.0000
vn -0.9711 0.2388 -0.0000
vn -0.0000 0.0645 0.9979
vn 0.8084 0.1879 0.5579
vn -0.0000 1.0000 -0.0001
vn 0.0001 0.2545 0.9671
vn -0.0000 0.0803 0.9968
vn -0.8084 0.1879 0.5578
vn 0.6834 0.1821 0.7069
vn 0.9666 0.2563 -0.0000
vn 0.9867 0.1625 -0.0000
vn 0.6965 0.1154 0.7082
vn 0.9985 0.0548 -0.0000
vn 0.7065 0.0391 0.7066
vn 1.0000 0.0039 -0.0000
vn -0.6965 0.1154 0.7082
vn -0.6834 0.1822 0.7069
vn -0.9666 0.2562 -0.0000
vn -0.9867 0.1625 -0.0000
vn -0.7065 0.0391 0.7066
vn -0.9985 0.0548 -0.0000
vn -0.7071 0.0039 0.7071
vn -1.0000 0.0039 -0.0000
vn 0.7071 0.0039 0.7071
vn 0.8870 -0.4618 -0.0000
vn -0.6059 -0.3675 0.7056
vn -0.8868 -0.4622 -0.0000
vn -0.0000 -0.0999 0.9950
vn -0.5923 -0.4750 0.6508
vn -0.8023 -0.5969 -0.0000
vn -0.0000 -0.1428 0.9898
vn 0.6059 -0.3675 0.7056
vn 0.8023 -0.5969 -0.0000
vn 0.5923 -0.4750 0.6509
vn 1.0000 0.0037 -0.0000
vn 0.7459 -0.0235 0.6656
vn 0.8816 0.4721 -0.0000
vn 0.6950 0.3387 0.6343
vn 0.8530 0.5218 -0.0000
vn -0.7459 -0.0235 0.6656
vn -1.0000 0.0037 -0.0000
vn -0.6950 0.3387 0.6343
vn -0.8816 0.4721 -0.0000
vn -0.0000 0.0568 0.9984
vn -0.6856 0.3957 0.6111
vn -0.8530 0.5218 -0.0000
vn 0.6856 0.3957 0.6111
vn 0.9117 0.4108 -0.0000
vn -0.0000 0.1077 0.9942
vn -0.7346 0.3251 0.5955
vn -0.9117 0.4108 -0.0000
vn 0.7346 0.3252 0.5955
vn 0.0001 0.4480 0.8940
vn -0.0000 0.1154 0.9933
vn -0.1859 0.1859 0.9648
vn 0.2740 0.1409 0.9513
vn 0.2309 0.2309 0.9452
vn -0.4496 -0.2405 0.8602
vn -0.2740 0.1409 0.9513
vn -0.0000 -0.3074 0.9516
vn 0.4496 -0.2405 0.8602
vn 0.3483 0.8434 -0.4090
vn 0.8434 0.3483 -0.4090
vn 0.8895 0.3683 0.2704
vn 0.3683 0.8895 0.2704
vn 0.2371 0.5741 0.7837
vn 0.8434 -0.3483 -0.4090
vn 0.8895 -0.3683 0.2704
vn 0.5741 0.2371 0.7837
vn 0.5741 -0.2371 0.7837
vn -0.2371 -0.5741 0.7837
vn 0.2371 -0.5741 0.7837
vn -0.5741 -0.2371 0.7837
vn -0.1821 -0.4405 0.8791
vn -0.4405 -0.1821 0.8791
vn -0.4405 0.1821 0.8791
vn -0.5741 0.2371 0.7837
vn -0.1821 0.4405 0.8791
vn -0.2371 0.5741 0.7837
vn 0.1821 0.4405 0.8791
vn 0.3684 -0.8895 0.2704
vn -0.3684 -0.8895 0.2704
vn 0.3483 -0.8434 -0.4090
vn -0.3483 -0.8434 -0.4090
vn -0.8434 -0.3483 -0.4090
vn -0.8895 -0.3683 0.2704
vn -0.8434 0.3483 -0.4090
vn -0.8895 0.3683 0.2704
vn 0.4405 0.1821 0.8791
vn 0.4405 -0.1821 0.8791
vn 0.1821 -0.4405 0.8791
vn -0.3684 0.8895 0.2704
vn 0.3684 0.8895 0.2704
vn -0.3483 0.8434 -0.4090
vn 0.3484 0.8434 -0.4090
vn -0.0000 -0.3073 0.9516
vn 0.4497 -0.2405 0.8602
vn -0.0000 -0.6180 0.7862
vn 0.5614 -0.3013 0.7707
vn 0.3874 0.3855 0.8375
vn -0.0000 0.6189 0.7854
vn -0.3874 0.3855 0.8374
vn -0.4497 -0.2404 0.8602
vn -0.5614 -0.3013 0.7707
vn 0.3874 -0.3855 0.8375
vn 0.5611 0.3031 0.7703
vn -0.0000 0.9837 -0.1799
vn -0.3874 -0.3854 0.8375
vn 0.5694 -0.8199 -0.0587
vn 0.8081 0.4794 -0.3424
vn -0.5694 -0.8199 -0.0587
vn -0.5611 0.3031 0.7703
vn -0.8081 0.4794 -0.3424
vn 0.3482 0.6005 -0.7199
vn 0.6005 0.3482 -0.7198
vn -0.0000 -0.0000 -1.0000
vn -0.0000 0.6943 -0.7197
vn 0.6943 -0.0000 -0.7197
vn -0.3482 0.6005 -0.7199
vn 0.6005 -0.3481 -0.7199
vn -0.6005 0.3482 -0.7198
vn 0.3482 -0.6005 -0.7199
vn -0.6943 -0.0000 -0.7197
vn -0.0000 -0.6943 -0.7197
vn -0.6005 -0.3483 -0.7198
vn -0.3482 -0.6005 -0.7199
vn -0.7071 0.7071 -0.0000
vn -0.5967 0.6377 0.4871
vn -0.1370 0.9906 -0.0000
vn -0.9906 0.1370 0.0001
vn 0.1135 0.8181 0.5637
vn 0.7071 0.7071 -0.0000
vn -0.8220 -0.0470 0.5675
vn -0.7071 -0.7071 -0.0000
vn 0.0489 -0.3601 0.9316
vn 0.0842 -0.1508 0.9850
vn -0.5534 -0.4966 0.6687
vn 0.3561 -0.1291 0.9255
vn 0.5103 -0.5103 0.6922
vn -0.1135 -0.8181 0.5637
vn 0.1370 -0.9906 -0.0000
vn 0.3737 0.3248 0.8688
vn 0.6536 0.0900 0.7514
vn 0.5967 -0.6377 0.4871
vn 0.7071 -0.7071 -0.0000
vn 0.9906 -0.1370 0.0001
vn -0.0489 0.3601 0.9316
vn 0.3858 0.3858 0.8381
vn 0.8220 0.0470 0.5675
vn 0.0900 0.6536 0.7515
vn -0.5103 0.5104 0.6922
vn -0.0842 0.1508 0.9850
vn -0.3561 0.1291 0.9255
vn -0.6536 -0.0900 0.7515
vn -0.0900 -0.6536 0.7514
vn -0.3858 -0.3857 0.8381
vn -0.3738 -0.3248 0.8688
vn 0.5533 0.4967 0.6687
vn 0.1370 0.9906 -0.0000
vn 0.5967 0.6377 0.4871
vn 0.9906 0.1370 -0.0000
vn -0.1135 0.8182 0.5637
vn 0.8220 -0.0470 0.5675
vn -0.5533 0.4967 0.6687
vn 0.5534 -0.4966 0.6687
vn -0.8220 0.0469 0.5675
vn -0.9906 -0.1370 -0.0000
vn 0.1135 -0.8181 0.5637
vn -0.1370 -0.9906 -0.0000
vn -0.5967 -0.6377 0.4871
vn 0.0842 0.1508 0.9850
vn 0.0489 0.3601 0.9316
vn 0.3561 0.1291 0.9255
vn 0.5103 0.5104 0.6922
vn -0.3737 0.3248 0.8688
vn -0.0900 0.6536 0.7515
vn 0.6536 -0.0900 0.7515
vn -0.3858 0.3858 0.8381
vn -0.6536 0.0900 0.7514
vn -0.3561 -0.1291 0.9255
vn -0.5103 -0.5103 0.6922
vn -0.0842 -0.1508 0.9850
vn -0.0489 -0.3601 0.9316
vn 0.0900 -0.6536 0.7514
vn 0.3858 -0.3857 0.8381
vn 0.3738 -0.3248 0.8688
vn 0.5950 0.5950 0.5402
vn 0.7771 0.3230 0.5402
vn 0.3230 0.7771 0.5402
vn 0.3833 0.9236 -0.0000
vn 0.8416 -0.0000 0.5402
vn 0.9235 -0.3835 -0.0000
vn -0.0000 0.8416 0.5402
vn 0.7771 -0.3230 0.5402
vn -0.3230 0.7771 0.5402
vn -0.3833 0.9236 -0.0000
vn 0.5950 -0.5950 0.5402
vn 0.3833 -0.9236 -0.0000
vn -0.5950 0.5950 0.5402
vn 0.3230 -0.7771 0.5402
vn -0.7771 0.3230 0.5403
vn -0.0000 -0.8416 0.5402
vn -0.3833 -0.9236 -0.0000
vn -0.8416 -0.0000 0.5402
vn -0.3230 -0.7771 0.5402
vn -0.7771 -0.3230 0.5402
vn -0.9235 -0.3835 -0.0000
vn -0.5950 -0.5950 0.5402
vn 0.2503 -0.0000 0.9682
vn 0.2308 0.0958 0.9683
vn 0.1779 0.1779 0.9678
vn 0.0958 0.2308 0.9683
vn -0.0000 0.2503 0.9682
vn 0.3640 0.8806 0.3033
vn -0.0958 0.2308 0.9683
vn -0.0000 0.9529 0.3033
vn -0.3640 0.8806 0.3033
vn -0.1779 0.1779 0.9678
vn -0.6737 0.6737 0.3036
vn 0.3834 0.9236 -0.0000
vn 0.6737 0.6737 0.3036
vn 0.8806 0.3640 0.3033
vn 0.9529 -0.0000 0.3033
vn 0.2308 -0.0958 0.9683
vn 0.8806 -0.3640 0.3033
vn 0.1779 -0.1779 0.9678
vn 0.6737 -0.6737 0.3036
vn 0.3835 -0.9235 -0.0000
vn 0.0958 -0.2308 0.9683
vn 0.3640 -0.8806 0.3033
vn -0.0000 -0.2503 0.9682
vn -0.0000 -0.9529 0.3033
vn -0.3835 -0.9235 -0.0000
vn -0.0958 -0.2308 0.9683
vn -0.3640 -0.8806 0.3033
vn -0.1779 -0.1779 0.9678
vn -0.6737 -0.6737 0.3036
vn -0.2308 -0.0958 0.9683
vn -0.8806 -0.3640 0.3033
vn -0.2503 -0.0000 0.9682
vn -0.9529 -0.0000 0.3033
vn -0.2308 0.0958 0.9683
vn -0.8806 0.3640 0.3033
vn 0.9659 0.2588 -0.0000
vn 0.8667 0.4989 -0.0000
vn 0.8059 0.2152 0.5516
vn 0.8338 -0.0000 0.5520
vn 0.7222 0.4169 0.5519
vn 0.8059 -0.2152 0.5516
vn 0.9661 -0.2581 -0.0000
vn 0.5895 0.5895 0.5522
vn 0.4989 0.8667 -0.0000
vn 0.7222 -0.4169 0.5519
vn 0.8658 -0.5003 -0.0000
vn 0.4169 0.7222 0.5519
vn 0.2581 0.9661 -0.0000
vn 0.5895 -0.5895 0.5523
vn 0.2151 0.8059 0.5516
vn 0.4169 -0.7222 0.5519
vn 0.4989 -0.8667 -0.0000
vn -0.0000 0.8338 0.5520
vn -0.2581 0.9661 -0.0000
vn 0.2152 -0.8059 0.5516
vn 0.2582 -0.9661 -0.0000
vn -0.2151 0.8059 0.5516
vn -0.4989 0.8667 -0.0000
vn -0.0000 -0.8338 0.5520
vn -0.4169 0.7222 0.5519
vn -0.2152 -0.8059 0.5516
vn -0.2583 -0.9661 -0.0000
vn -0.5895 0.5895 0.5522
vn -0.8667 0.4989 -0.0000
vn -0.4169 -0.7222 0.5519
vn -0.4989 -0.8667 -0.0000
vn -0.7222 0.4169 0.5519
vn -0.9660 0.2585 -0.0000
vn -0.5895 -0.5895 0.5523
vn -0.8059 0.2152 0.5516
vn -0.7222 -0.4169 0.5519
vn -0.8658 -0.5004 -0.0000
vn -0.8338 -0.0000 0.5520
vn -0.9661 -0.2582 -0.0000
vn -0.8059 -0.2152 0.5516
vn 0.1623 -0.0430 0.9858
vn 0.1682 -0.0000 0.9858
vn 0.1623 0.0430 0.9858
vn 0.1467 -0.0841 0.9856
vn 0.8848 -0.2369 0.4013
vn 0.1193 -0.1193 0.9857
vn 0.7930 -0.4582 0.4015
vn 0.6477 -0.6477 0.4012
vn 0.0841 -0.1467 0.9856
vn 0.4582 -0.7931 0.4014
vn 0.0430 -0.1623 0.9858
vn 0.2369 -0.8848 0.4013
vn -0.0000 -0.1682 0.9858
vn -0.0000 -0.9160 0.4012
vn -0.0430 -0.1623 0.9858
vn -0.2369 -0.8848 0.4013
vn -0.0841 -0.1467 0.9856
vn -0.4582 -0.7931 0.4014
vn -0.1193 -0.1193 0.9857
vn -0.6477 -0.6477 0.4012
vn -0.1467 -0.0841 0.9856
vn -0.7930 -0.4582 0.4015
vn -0.1623 -0.0430 0.9858
vn -0.8848 -0.2369 0.4013
vn -0.1682 -0.0000 0.9858
vn -0.9160 -0.0000 0.4012
vn -0.1623 0.0430 0.9858
vn -0.8848 0.2369 0.4013
vn -0.1467 0.0841 0.9856
vn -0.7930 0.4582 0.4015
vn -0.1193 0.1193 0.9857
vn -0.6477 0.6477 0.4012
vn -0.0841 0.1467 0.9856
vn -0.4582 0.7930 0.4014
vn -0.0430 0.1623 0.9858
vn -0.2369 0.8848 0.4013
vn -0.0000 0.1682 0.9858
vn -0.0000 0.9160 0.4012
vn 0.0430 0.1623 0.9858
vn 0.2369 0.8848 0.4013
vn 0.0841 0.1467 0.9856
vn 0.4582 0.7930 0.4014
vn 0.1193 0.1193 0.9857
vn 0.6477 0.6477 0.4012
vn 0.1467 0.0841 0.9856
vn 0.7930 0.4582 0.4015
vn 0.8848 0.2369 0.4013
vn 0.9160 -0.0000 0.4012
vn 0.6804 0.1823 0.7098
vn 0.7042 -0.0000 0.7100
vn 0.6804 -0.1823 0.7098
vn 0.6101 -0.3520 0.7098
vn 0.4974 -0.4974 0.7108
vn 0.3520 -0.6101 0.7098
vn 0.1819 -0.6805 0.7098
vn -0.0000 -0.7042 0.7100
vn -0.1819 -0.6805 0.7098
vn -0.3520 -0.6101 0.7098
vn -0.4974 -0.4974 0.7108
vn -0.6101 -0.3520 0.7098
vn -0.6805 -0.1819 0.7098
vn -0.7042 -0.0000 0.7100
vn -0.6805 0.1819 0.7098
vn -0.6101 0.3520 0.7098
vn -0.4974 0.4974 0.7108
vn -0.3520 0.6101 0.7098
vn -0.1819 0.6805 0.7098
vn -0.0000 0.7042 0.7100
vn 0.1819 0.6805 0.7098
vn 0.3520 0.6101 0.7098
vn 0.4974 0.4974 0.7108
vn 0.6101 0.3520 0.7098
vn 0.3722 0.6444 0.6680
vn -0.0000 0.7443 0.6679
vn -0.0000 0.9778 0.2093
vn 0.6444 0.3722 0.6680
vn -0.3722 0.6444 0.6680
vn -0.0000 0.3402 0.9404
vn -0.6445 0.3722 0.6679
vn -0.8468 0.4889 0.2093
vn -0.1701 0.2952 0.9402
vn -0.2951 0.1701 0.9402
vn 0.1701 0.2952 0.9402
vn 0.2951 0.1701 0.9402
vn -0.3402 -0.0000 0.9404
vn -0.7443 -0.0000 0.6678
vn -0.2952 -0.1701 0.9402
vn -0.6445 -0.3722 0.6679
vn -0.1701 -0.2952 0.9402
vn -0.3722 -0.6444 0.6680
vn -0.4889 -0.8468 0.2093
vn -0.0000 -0.3402 0.9404
vn -0.0000 -0.7443 0.6679
vn 0.1700 -0.2951 0.9402
vn 0.3722 -0.6445 0.6679
vn 0.4889 -0.8468 0.2093
vn 0.2950 -0.1703 0.9402
vn 0.6445 -0.3722 0.6679
vn 0.3402 -0.0000 0.9404
vn 0.7443 -0.0000 0.6678
vn -0.3405 -0.1409 0.9296
vn -0.3405 0.1409 0.9296
vn -0.1409 -0.3405 0.9296
vn -0.1409 0.3405 0.9296
vn 0.1409 -0.3405 0.9296
vn 0.1409 0.3405 0.9296
vn 0.3405 -0.1409 0.9296
vn 0.3405 0.1409 0.9296
vn 0.8474 -0.3523 0.3973
vn 0.8474 0.3523 0.3973
vn 0.3523 0.8474 0.3973
vn 0.3523 -0.8474 0.3973
vn 0.6270 -0.2597 0.7344
vn -0.3523 -0.8474 0.3973
vn 0.3368 -0.8125 0.4758
vn -0.3368 -0.8125 0.4758
vn -0.6267 -0.2605 0.7344
vn -0.8474 -0.3523 0.3973
vn -0.6267 0.2605 0.7344
vn -0.8474 0.3523 0.3973
vn 0.6267 0.2605 0.7344
vn -0.3368 0.8125 0.4758
vn -0.3523 0.8474 0.3973
vn 0.3368 0.8125 0.4758
vn 0.6006 0.3480 -0.7198
vn 0.3482 0.6005 -0.7198
vn 0.6005 0.3482 0.7198
vn 0.6943 -0.0000 0.7197
vn 0.3482 0.6005 0.7199
vn 0.0002 0.6943 -0.7197
vn 0.6005 -0.3481 0.7198
vn 0.6005 -0.3482 -0.7198
vn -0.0000 0.6942 0.7197
vn -0.3482 0.6005 -0.7198
vn 0.3482 -0.6005 0.7199
vn 0.3481 -0.6006 -0.7198
vn -0.3482 0.6005 0.7199
vn -0.6006 0.3480 -0.7198
vn -0.0000 -0.6943 0.7197
vn -0.6005 0.3482 0.7198
vn -0.3482 -0.6005 0.7199
vn -0.3482 -0.6005 -0.7198
vn -0.6943 -0.0000 0.7197
vn -0.6006 -0.3481 -0.7198
vn -0.6005 -0.3482 0.7198
vn 0.1684 -0.0979 0.9808
vn 0.1957 -0.0000 0.9807
vn 0.1684 0.0979 0.9808
vn 0.0979 0.1684 0.9808
vn -0.0000 0.1957 0.9807
vn 0.1684 0.0979 0.9809
vn -0.0979 0.1684 0.9808
vn 0.0979 0.1683 0.9809
vn 0.1684 -0.0979 0.9809
vn -0.0979 0.1683 0.9809
vn 0.0979 -0.1684 0.9809
vn 0.0979 -0.1684 0.9808
vn -0.0000 -0.1957 0.9807
vn -0.0979 -0.1684 0.9809
vn -0.0979 -0.1684 0.9808
vn -0.1684 -0.0979 0.9808
vn -0.1957 -0.0000 0.9807
vn -0.1684 0.0979 0.9809
vn -0.1684 0.0979 0.9808
vt 0.420301 0.241615
vt 0.420301 0.228401
vt 0.424177 0.228401
vt 0.424177 0.241615
vt 0.428022 0.228401
vt 0.428022 0.241615
vt 0.431898 0.228401
vt 0.431898 0.241615
vt 0.435743 0.228401
vt 0.435743 0.241615
vt 0.439619 0.228401
vt 0.439619 0.241615
vt 0.443464 0.228401
vt 0.443464 0.241615
vt 0.447310 0.228401
vt 0.447310 0.241615
vt 0.451186 0.228401
vt 0.451186 0.241615
vt 0.455031 0.228401
vt 0.455031 0.241615
vt 0.458907 0.228401
vt 0.458907 0.241615
vt 0.462752 0.228401
vt 0.462752 0.241615
vt 0.466628 0.228401
vt 0.466628 0.241615
vt 0.597369 0.802118
vt 0.456954 0.802026
vt 0.456954 0.762993
vt 0.597369 0.763085
vt 0.456954 0.666555
vt 0.597369 0.666646
vt 0.597369 0.627613
vt 0.527299 0.489578
vt 0.597369 0.524369
vt 0.456954 0.627491
vt 0.360393 0.666463
vt 0.360393 0.627430
vt 0.456954 0.524277
vt 0.360393 0.524186
vt 0.360393 0.445753
vt 0.457015 0.445814
vt 0.983154 0.546403
vt 0.894436 0.635121
vt 0.768975 0.635121
vt 0.680258 0.546403
vt 0.983154 0.420942
vt 0.680258 0.420942
vt 0.768975 0.332224
vt 0.894436 0.332224
vt 0.456954 1.627491
vt 0.360393 1.666463
vt 0.456954 1.666555
vt 0.360424 1.627430
vt 0.456954 1.524277
vt 0.360515 1.524186
vt 0.360576 1.445753
vt 0.457015 1.445814
vt 0.331034 1.470290
vt 0.221290 1.683645
vt 0.331034 1.683645
vt 0.221290 1.470290
vt 0.331034 1.417035
vt 0.221290 1.417035
vt 0.331034 1.259865
vt 0.221290 1.259865
vt 0.221290 1.137638
vt 0.331034 1.137638
vt 0.331034 0.259865
vt 0.221290 0.137638
vt 0.331034 0.137638
vt 0.221290 0.259865
vt 0.221290 0.417035
vt 0.331034 0.417035
vt 0.221290 0.470290
vt 0.331034 0.470290
vt 0.331034 0.683645
vt 0.221290 0.683645
vt 0.213202 0.683645
vt 0.213202 0.470290
vt 0.213202 0.417035
vt 0.027497 0.470290
vt 0.213202 0.264260
vt 0.027497 0.417035
vt 0.121647 0.197211
vt 0.121677 0.188055
vt 0.022156 0.258980
vt 0.027497 0.264260
vt 0.022156 0.417035
vt 0.022156 0.470290
vt 0.022156 0.683645
vt 0.027497 0.683645
vt 0.213202 0.690634
vt 0.221290 0.690634
vt 0.221290 0.800470
vt 0.213202 0.800470
vt 0.027497 0.690634
vt 0.022156 0.690634
vt 0.027497 0.800470
vt 0.022156 0.800470
vt 0.603687 0.225135
vt 0.608051 0.225135
vt 0.608051 0.227760
vt 0.603687 0.227760
vt 0.608234 0.463912
vt 0.603839 0.463912
vt 0.601215 0.463912
vt 0.601062 0.227760
vt 0.601245 0.225227
vt 0.588458 0.463912
vt 0.588153 0.225227
vt 0.601184 0.220862
vt 0.588214 0.220832
vt 0.588336 0.227790
vt 0.585833 0.463912
vt 0.585711 0.227760
vt 0.581469 0.463912
vt 0.585711 0.225135
vt 0.581317 0.225135
vt 0.581317 0.227760
vt 0.578845 0.463942
vt 0.578692 0.227790
vt 0.578936 0.225257
vt 0.565722 0.225227
vt 0.565966 0.227790
vt 0.566088 0.463942
vt 0.563341 0.227760
vt 0.563463 0.463942
vt 0.025727 0.048769
vt 0.025727 0.042329
vt 0.076327 0.048769
vt 0.076327 0.042329
vt 0.025727 0.035005
vt 0.225379 0.048769
vt 0.076327 0.035005
vt 0.025727 0.027711
vt 0.225379 0.042329
vt 0.339793 0.048769
vt 0.076327 0.027711
vt 0.025727 0.021271
vt 0.076327 0.021271
vt 0.225379 0.035005
vt 0.225379 0.027711
vt 0.225379 0.021271
vt 0.339793 0.042329
vt 0.339793 0.035005
vt 0.339793 0.027711
vt 0.339793 0.021271
vt 0.454207 0.021271
vt 0.454207 0.027711
vt 0.603290 0.021271
vt 0.454207 0.035005
vt 0.454207 0.042329
vt 0.454207 0.048769
vt 0.603290 0.027711
vt 0.603290 0.035005
vt 0.653890 0.021271
vt 0.653890 0.027711
vt 0.653890 0.035005
vt 0.653890 0.042329
vt 0.603290 0.042329
vt 0.653890 0.048769
vt 0.603290 0.048769
vt 0.597797 0.849818
vt 0.600360 0.850337
vt 0.597217 0.865810
vt 0.594592 0.865474
vt 0.596362 0.881161
vt 0.590350 0.849879
vt 0.593738 0.881069
vt 0.595874 0.916898
vt 0.590350 0.865505
vt 0.586077 0.865474
vt 0.582904 0.849818
vt 0.580340 0.850307
vt 0.583453 0.865780
vt 0.586932 0.881069
vt 0.584307 0.881161
vt 0.590350 0.881100
vt 0.587420 0.916898
vt 0.584796 0.916898
vt 0.593249 0.916898
vt 0.596362 0.930235
vt 0.590350 0.916898
vt 0.586901 0.930540
vt 0.584307 0.930235
vt 0.590350 0.930540
vt 0.584826 0.940092
vt 0.582202 0.939512
vt 0.590350 0.940123
vt 0.593738 0.930540
vt 0.598376 0.939543
vt 0.595813 0.940062
vt 0.599933 0.945189
vt 0.590350 0.945189
vt 0.597430 0.945189
vt 0.598102 0.952696
vt 0.595508 0.952025
vt 0.595904 0.959532
vt 0.583239 0.945189
vt 0.580737 0.945189
vt 0.585162 0.952025
vt 0.582629 0.952666
vt 0.584765 0.959532
vt 0.590350 0.951994
vt 0.593341 0.958953
vt 0.592914 0.975127
vt 0.590350 0.974609
vt 0.587756 0.975127
vt 0.590350 0.958861
vt 0.587329 0.958953
vt 0.655904 0.594043
vt 0.658437 0.594653
vt 0.655385 0.606769
vt 0.652791 0.606372
vt 0.654530 0.618763
vt 0.648457 0.594134
vt 0.651906 0.618641
vt 0.654073 0.630848
vt 0.648488 0.606372
vt 0.644215 0.606372
vt 0.641041 0.594073
vt 0.638508 0.594714
vt 0.641621 0.606799
vt 0.645131 0.618641
vt 0.642506 0.618793
vt 0.648518 0.618641
vt 0.645650 0.630909
vt 0.643055 0.630879
vt 0.651448 0.630879
vt 0.654897 0.653035
vt 0.648549 0.630909
vt 0.644856 0.653798
vt 0.642323 0.653066
vt 0.648610 0.653798
vt 0.638173 0.659932
vt 0.635975 0.658559
vt 0.648640 0.659413
vt 0.652394 0.653767
vt 0.661153 0.658589
vt 0.659108 0.659902
vt 0.663625 0.664968
vt 0.648640 0.665212
vt 0.661153 0.665273
vt 0.662526 0.669759
vt 0.660054 0.668935
vt 0.659993 0.674032
vt 0.636128 0.665273
vt 0.633656 0.665120
vt 0.637226 0.668966
vt 0.634846 0.669790
vt 0.648640 0.668996
vt 0.639668 0.672842
vt 0.637349 0.674062
vt 0.657613 0.672811
vt 0.656117 0.681539
vt 0.648640 0.672781
vt 0.643605 0.680502
vt 0.641224 0.681570
vt 0.653706 0.680471
vt 0.651112 0.693625
vt 0.648701 0.692648
vt 0.646260 0.693655
vt 0.648671 0.680349
vt 0.523759 0.353038
vt 0.523484 0.405957
vt 0.364879 0.405988
vt 0.364879 0.353069
vt 0.376934 0.339000
vt 0.364879 0.210181
vt 0.511734 0.338969
vt 0.376934 0.217658
vt 0.523820 0.210120
vt 0.444472 0.173193
vt 0.511765 0.217566
vt 0.444502 0.155644
vt 0.024812 0.988525
vt 0.024812 0.980590
vt 0.151036 0.988525
vt 0.151036 0.980590
vt 0.277291 0.988525
vt 0.151036 0.946440
vt 0.024812 0.946440
vt 0.024812 0.939909
vt 0.277291 0.980590
vt 0.403546 0.988525
vt 0.277291 0.946440
vt 0.151036 0.939909
vt 0.024812 0.933256
vt 0.277291 0.939909
vt 0.151036 0.933256
vt 0.024812 0.926633
vt 0.277291 0.933256
vt 0.403546 0.939909
vt 0.151036 0.926664
vt 0.024812 0.920255
vt 0.151036 0.920255
vt 0.277291 0.920255
vt 0.277291 0.926603
vt 0.403546 0.920255
vt 0.403546 0.933256
vt 0.403546 0.926633
vt 0.529771 0.920255
vt 0.529771 0.926725
vt 0.529771 0.933256
vt 0.529771 0.939909
vt 0.403546 0.946440
vt 0.529771 0.946440
vt 0.403546 0.980590
vt 0.529771 0.980590
vt 0.529771 0.988525
vt 0.151036 0.895779
vt 0.024812 0.895779
vt 0.024812 0.888272
vt 0.151036 0.888272
vt 0.277291 0.895779
vt 0.151036 0.853816
vt 0.024812 0.853816
vt 0.277291 0.888272
vt 0.403546 0.895779
vt 0.277291 0.853816
vt 0.151036 0.847621
vt 0.024812 0.847621
vt 0.024812 0.840907
vt 0.277291 0.847621
vt 0.151036 0.840907
vt 0.024812 0.834132
vt 0.024812 0.827631
vt 0.151036 0.827631
vt 0.151036 0.834132
vt 0.277291 0.827631
vt 0.277291 0.840907
vt 0.277291 0.834132
vt 0.403546 0.827631
vt 0.403546 0.847621
vt 0.403546 0.840907
vt 0.403546 0.834132
vt 0.529771 0.827631
vt 0.529771 0.834132
vt 0.529771 0.840907
vt 0.529771 0.847621
vt 0.403546 0.853816
vt 0.529771 0.853816
vt 0.403546 0.888272
vt 0.529771 0.888272
vt 0.529771 0.895779
vt 0.499069 0.109165
vt 0.430738 0.109165
vt 0.499069 0.104709
vt 0.430738 0.104709
vt 0.499069 0.098544
vt 0.318735 0.104709
vt 0.318735 0.109165
vt 0.204779 0.109165
vt 0.430738 0.098544
vt 0.499069 0.092349
vt 0.318735 0.098544
vt 0.204779 0.104709
vt 0.092776 0.109165
vt 0.204779 0.098544
vt 0.092776 0.104709
vt 0.024445 0.109165
vt 0.024445 0.104709
vt 0.024445 0.098544
vt 0.092776 0.098544
vt 0.024445 0.092349
vt 0.204779 0.092349
vt 0.092776 0.092349
vt 0.024445 0.087893
vt 0.318735 0.092349
vt 0.204779 0.087893
vt 0.092776 0.087893
vt 0.092776 0.080691
vt 0.024445 0.080691
vt 0.204779 0.080691
vt 0.318735 0.087893
vt 0.318735 0.080691
vt 0.430738 0.080691
vt 0.430738 0.092349
vt 0.499069 0.087893
vt 0.499069 0.080691
vt 0.430738 0.087893
vt 0.657857 0.356059
vt 0.644154 0.342357
vt 0.676565 0.323649
vt 0.676565 0.361095
vt 0.639149 0.323649
vt 0.695273 0.356059
vt 0.644154 0.304941
vt 0.708975 0.342357
vt 0.657857 0.291238
vt 0.714011 0.323649
vt 0.676565 0.286233
vt 0.708975 0.304941
vt 0.695273 0.291238
vt 0.251564 1.766411
vt 0.258827 1.759178
vt 0.269570 1.773888
vt 0.244087 1.748405
vt 0.269570 1.763634
vt 0.287606 1.766411
vt 0.254341 1.748405
vt 0.251564 1.730369
vt 0.269570 1.759728
vt 0.261544 1.756432
vt 0.258827 1.737632
vt 0.258248 1.748405
vt 0.264443 1.753533
vt 0.269570 1.733177
vt 0.269570 1.722922
vt 0.261544 1.740379
vt 0.262307 1.748405
vt 0.280343 1.737632
vt 0.287606 1.730369
vt 0.295053 1.748405
vt 0.269570 1.737052
vt 0.264443 1.743248
vt 0.284799 1.748405
vt 0.269570 1.741142
vt 0.269570 1.748405
vt 0.274728 1.743248
vt 0.277596 1.740379
vt 0.280923 1.748405
vt 0.276864 1.748405
vt 0.269570 1.755669
vt 0.274728 1.753533
vt 0.277596 1.756432
vt 0.280343 1.759178
vt 0.269570 0.773888
vt 0.280343 0.759178
vt 0.287606 0.766411
vt 0.295053 0.748405
vt 0.269570 0.763634
vt 0.251564 0.766411
vt 0.284799 0.748405
vt 0.287606 0.730369
vt 0.258827 0.759178
vt 0.280343 0.737632
vt 0.254341 0.748405
vt 0.244087 0.748405
vt 0.269570 0.733177
vt 0.269570 0.722922
vt 0.258827 0.737632
vt 0.251564 0.730369
vt 0.261544 0.740379
vt 0.269570 0.737053
vt 0.258248 0.748405
vt 0.264443 0.743248
vt 0.277596 0.740379
vt 0.269570 0.741142
vt 0.262307 0.748405
vt 0.274728 0.743248
vt 0.269570 0.748405
vt 0.276864 0.748405
vt 0.280923 0.748405
vt 0.274728 0.753533
vt 0.277596 0.756432
vt 0.269570 0.759728
vt 0.269570 0.755669
vt 0.264443 0.753533
vt 0.261544 0.756432
vt 0.426130 0.768029
vt 0.414411 0.785546
vt 0.409406 0.780541
vt 0.419568 0.765313
vt 0.430250 0.747337
vt 0.394177 0.790704
vt 0.396893 0.797235
vt 0.423139 0.747337
vt 0.426130 0.726676
vt 0.376232 0.794275
vt 0.376232 0.801355
vt 0.419568 0.729392
vt 0.414411 0.709159
vt 0.358257 0.790704
vt 0.355541 0.797235
vt 0.409406 0.714164
vt 0.396893 0.697439
vt 0.343028 0.780541
vt 0.338023 0.785546
vt 0.394177 0.704001
vt 0.376232 0.693350
vt 0.332865 0.765313
vt 0.326334 0.768029
vt 0.376232 0.700430
vt 0.355541 0.697439
vt 0.329295 0.747337
vt 0.322214 0.747337
vt 0.358257 0.704001
vt 0.338023 0.709159
vt 0.332865 0.729392
vt 0.326334 0.726676
vt 0.343028 0.714164
vt 0.335612 0.747337
vt 0.338725 0.731803
vt 0.347514 0.718650
vt 0.360698 0.709830
vt 0.376232 0.706748
vt 0.361919 0.712851
vt 0.391766 0.709830
vt 0.376232 0.710013
vt 0.390515 0.712851
vt 0.404920 0.718650
vt 0.402631 0.720939
vt 0.376232 0.715812
vt 0.364147 0.718223
vt 0.388287 0.718223
vt 0.353923 0.725059
vt 0.398511 0.725059
vt 0.349803 0.720939
vt 0.347087 0.735282
vt 0.341716 0.733055
vt 0.344707 0.747337
vt 0.338878 0.747337
vt 0.347087 0.759423
vt 0.338725 0.762902
vt 0.341716 0.761650
vt 0.353923 0.769646
vt 0.347514 0.776055
vt 0.349803 0.773766
vt 0.364147 0.776482
vt 0.360698 0.784875
vt 0.361919 0.781854
vt 0.376232 0.778863
vt 0.376232 0.787957
vt 0.376232 0.784692
vt 0.388287 0.776482
vt 0.391766 0.784875
vt 0.390515 0.781854
vt 0.398511 0.769646
vt 0.404920 0.776055
vt 0.402631 0.773766
vt 0.405347 0.759423
vt 0.413739 0.762902
vt 0.410718 0.761650
vt 0.407758 0.747337
vt 0.416822 0.747337
vt 0.413556 0.747337
vt 0.405347 0.735282
vt 0.413739 0.731803
vt 0.410718 0.733055
vt 0.974151 0.863124
vt 0.957671 0.902890
vt 0.953856 0.857784
vt 0.958800 0.820551
vt 0.979766 0.820460
vt 0.939482 0.892453
vt 0.931486 0.937010
vt 0.953917 0.783319
vt 0.974151 0.777795
vt 0.916593 0.922239
vt 0.897336 0.963225
vt 0.939573 0.748589
vt 0.957701 0.738060
vt 0.886776 0.945097
vt 0.857570 0.979675
vt 0.916715 0.718802
vt 0.931486 0.703909
vt 0.852077 0.959441
vt 0.814936 0.985290
vt 0.886929 0.695914
vt 0.897366 0.677694
vt 0.814936 0.964324
vt 0.772240 0.979675
vt 0.852229 0.681509
vt 0.857601 0.661245
vt 0.777612 0.959380
vt 0.732505 0.963195
vt 0.814936 0.676565
vt 0.814936 0.655629
vt 0.742912 0.945006
vt 0.698355 0.937010
vt 0.777764 0.681478
vt 0.772271 0.661214
vt 0.713126 0.922117
vt 0.672170 0.902860
vt 0.743065 0.695822
vt 0.732505 0.677694
vt 0.690298 0.892300
vt 0.655690 0.863094
vt 0.713248 0.718650
vt 0.698386 0.703879
vt 0.675954 0.857601
vt 0.650075 0.820429
vt 0.690390 0.748436
vt 0.672170 0.738029
vt 0.671072 0.820368
vt 0.655690 0.777764
vt 0.675985 0.783135
vt 0.688040 0.854335
vt 0.683615 0.820368
vt 0.688101 0.786370
vt 0.701163 0.886044
vt 0.694479 0.852626
vt 0.722007 0.913236
vt 0.706900 0.882717
vt 0.726707 0.908536
vt 0.749199 0.934141
vt 0.752525 0.928373
vt 0.780847 0.947295
vt 0.782586 0.940855
vt 0.814936 0.951781
vt 0.814936 0.945128
vt 0.848842 0.947325
vt 0.847102 0.940916
vt 0.880520 0.934233
vt 0.877194 0.928465
vt 0.907712 0.913388
vt 0.903012 0.908689
vt 0.928617 0.886196
vt 0.922849 0.882870
vt 0.941740 0.854549
vt 0.935331 0.852809
vt 0.946257 0.820551
vt 0.939604 0.820551
vt 0.941801 0.786554
vt 0.935362 0.788293
vt 0.928709 0.754875
vt 0.922941 0.758202
vt 0.907865 0.727653
vt 0.903134 0.732353
vt 0.880673 0.706778
vt 0.877346 0.712546
vt 0.848994 0.693625
vt 0.847285 0.700064
vt 0.814936 0.689077
vt 0.814936 0.695730
vt 0.781030 0.693594
vt 0.782739 0.700003
vt 0.749352 0.706687
vt 0.752678 0.712424
vt 0.722129 0.727531
vt 0.726829 0.732231
vt 0.701254 0.754723
vt 0.706992 0.758049
vt 0.694540 0.788080
vt 0.690268 0.820368
vt 0.711203 0.792505
vt 0.707511 0.820307
vt 0.711112 0.848109
vt 0.721824 0.874050
vt 0.814936 0.819208
vt 0.738853 0.896329
vt 0.761101 0.913419
vt 0.786981 0.924192
vt 0.814936 0.927854
vt 0.842586 0.924253
vt 0.868526 0.913572
vt 0.890805 0.896512
vt 0.907895 0.874294
vt 0.918668 0.848384
vt 0.922361 0.820582
vt 0.918729 0.792779
vt 0.908017 0.766869
vt 0.890988 0.744591
vt 0.868770 0.727500
vt 0.842860 0.716727
vt 0.814936 0.712943
vt 0.787255 0.716666
vt 0.761345 0.727348
vt 0.739067 0.744407
vt 0.721946 0.766625
vt 0.447035 0.299783
vt 0.445875 0.297647
vt 0.450423 0.296426
vt 0.442488 0.298563
vt 0.442488 0.301004
vt 0.448317 0.295175
vt 0.451643 0.291818
vt 0.439131 0.297678
vt 0.437880 0.299753
vt 0.442488 0.295480
vt 0.436659 0.295206
vt 0.434553 0.296396
vt 0.440687 0.294992
vt 0.439344 0.293680
vt 0.444319 0.294961
vt 0.442488 0.291818
vt 0.445631 0.293619
vt 0.438856 0.291818
vt 0.435743 0.291818
vt 0.433332 0.291818
vt 0.439314 0.290048
vt 0.436628 0.288491
vt 0.434553 0.287240
vt 0.440626 0.288705
vt 0.439100 0.286019
vt 0.437910 0.283883
vt 0.442488 0.288186
vt 0.442488 0.285104
vt 0.442488 0.282662
vt 0.444288 0.288675
vt 0.445814 0.285989
vt 0.447066 0.283914
vt 0.445631 0.289987
vt 0.448286 0.288461
vt 0.450423 0.287271
vt 0.446120 0.291818
vt 0.449202 0.291818
vt 0.979003 0.102145
vt 0.979064 0.224799
vt 0.971679 0.221778
vt 0.971648 0.105228
vt 0.892239 0.015442
vt 0.889279 0.304178
vt 0.892361 0.311563
vt 0.889218 0.022828
vt 0.769585 0.015473
vt 0.772729 0.304209
vt 0.769707 0.311625
vt 0.772668 0.022858
vt 0.682882 0.102237
vt 0.690298 0.221839
vt 0.682943 0.224921
vt 0.690298 0.105289
vt 0.694601 0.220038
vt 0.694571 0.107059
vt 0.774468 0.027131
vt 0.774499 0.299936
vt 0.699759 0.217872
vt 0.887509 0.299905
vt 0.776635 0.294748
vt 0.885342 0.294748
vt 0.962188 0.217872
vt 0.967376 0.219977
vt 0.962188 0.109165
vt 0.967376 0.106998
vt 0.699759 0.109165
vt 0.885342 0.032319
vt 0.887448 0.027131
vt 0.776635 0.032319
vt 0.630116 0.167089
vt 0.612781 0.185095
vt 0.621479 0.162419
vt 0.626392 0.143529
vt 0.636219 0.143254
vt 0.607593 0.176000
vt 0.588580 0.190893
vt 0.621265 0.124821
vt 0.629658 0.119785
vt 0.588885 0.181066
vt 0.565325 0.183996
vt 0.607654 0.110935
vt 0.612384 0.102969
vt 0.570055 0.176031
vt 0.548051 0.167180
vt 0.588794 0.105899
vt 0.589099 0.096103
vt 0.556444 0.162145
vt 0.541490 0.143712
vt 0.570086 0.110965
vt 0.564898 0.101901
vt 0.551317 0.143437
vt 0.547594 0.119877
vt 0.556230 0.124577
vt 0.565569 0.156865
vt 0.561876 0.143376
vt 0.565447 0.129887
vt 0.575335 0.120090
vt 0.588794 0.116489
vt 0.573443 0.134495
vt 0.602283 0.120151
vt 0.579943 0.128086
vt 0.588794 0.125675
vt 0.571062 0.143376
vt 0.588855 0.143498
vt 0.573473 0.152287
vt 0.597705 0.128086
vt 0.579974 0.158879
vt 0.575396 0.166814
vt 0.588885 0.161290
vt 0.588885 0.170476
vt 0.597736 0.158910
vt 0.602374 0.166875
vt 0.604266 0.152470
vt 0.612262 0.157079
vt 0.606616 0.143590
vt 0.615802 0.143590
vt 0.604205 0.134678
vt 0.612140 0.130100
s 1
usemtl mBody
f 20/20/2 21/21/3 22/22/4
f 23/23/5 20/20/2 22/22/4
f 23/23/5 22/22/4 24/24/6
f 25/25/7 23/23/5 24/24/6
f 25/25/7 24/24/6 26/26/8
f 27/27/9 25/25/7 26/26/8
f 27/27/9 26/26/8 28/28/10
f 29/29/11 27/27/9 28/28/10
f 29/29/11 28/28/10 30/30/12
f 31/31/13 29/29/11 30/30/12
f 31/31/13 30/30/12 32/32/14
f 33/33/15 31/31/13 32/32/14
f 33/33/15 32/32/14 34/34/16
f 35/35/17 33/33/15 34/34/16
f 35/35/17 34/34/16 36/36/18
f 37/37/19 35/35/17 36/36/18
f 37/37/19 36/36/18 38/38/20
f 39/39/21 37/37/19 38/38/20
f 39/39/21 38/38/20 40/40/22
f 41/41/23 39/39/21 40/40/22
f 41/41/23 40/40/22 42/42/24
f 43/43/25 41/41/23 42/42/24
f 43/43/25 42/42/24 44/44/3
f 45/45/2 43/43/25 44/44/3
f 46/46/26 47/47/27 48/48/28
f 49/49/29 46/46/26 48/48/28
f 50/50/30 49/49/29 48/48/28
f 51/51/31 49/49/29 50/50/30
f 51/51/31 50/50/30 52/52/32
f 53/53/33 54/54/34 52/52/32
f 52/52/32 50/50/30 55/55/35
f 55/55/35 53/53/33 52/52/32
f 56/56/28 55/55/35 50/50/30
f 57/57/36 55/55/35 56/56/28
f 58/58/37 53/53/33 55/55/35
f 57/57/36 59/59/38 55/55/35
f 55/55/35 59/59/38 58/58/37
f 59/59/38 60/60/14 58/58/37
f 58/58/37 60/60/14 61/61/33
f 62/62/39 63/63/40 64/64/41
f 65/65/42 62/62/39 64/64/41
f 66/66/43 62/62/39 65/65/42
f 67/67/44 66/66/43 65/65/42
f 67/67/44 68/68/45 66/66/43
f 68/68/45 69/69/46 66/66/43
f 70/70/32 71/71/47 72/72/31
f 71/71/47 70/70/32 73/73/26
f 74/74/34 73/73/26 70/70/32
f 75/75/48 73/73/26 74/74/34
f 74/74/34 76/76/14 75/75/48
f 76/76/14 74/74/34 77/77/33
f 78/78/49 79/79/50 80/80/51
f 79/79/50 78/78/49 81/81/52
f 82/82/53 81/81/52 78/78/49
f 81/81/52 82/82/53 83/83/52
f 84/84/54 83/83/52 82/82/53
f 83/83/52 84/84/54 85/85/55
f 84/84/54 86/86/56 85/85/55
f 87/87/57 86/86/56 84/84/54
f 88/88/58 89/89/56 90/90/57
f 91/91/59 89/89/56 88/88/58
f 91/91/59 88/88/58 92/92/60
f 92/92/60 88/88/58 93/93/61
f 92/92/60 93/93/61 94/94/62
f 94/94/62 93/93/61 95/95/63
f 96/96/64 97/97/65 95/95/63
f 95/95/63 97/97/65 94/94/62
f 97/97/65 98/98/66 94/94/62
f 92/92/60 94/94/62 99/99/67
f 98/98/66 99/99/67 94/94/62
f 100/100/68 92/92/60 99/99/67
f 99/99/67 98/98/66 101/101/69
f 100/100/68 99/99/67 101/101/69
f 92/92/60 100/100/68 102/102/70
f 91/91/59 92/92/60 102/102/70
f 103/103/71 100/100/68 101/101/69
f 102/102/70 100/100/68 103/103/71
f 102/102/70 104/104/72 91/91/59
f 104/104/72 105/105/56 91/91/59
f 105/105/56 104/104/72 106/106/55
f 104/104/72 102/102/70 107/107/73
f 104/104/72 107/107/73 106/106/55
f 107/107/73 102/102/70 103/103/71
f 106/106/55 107/107/73 108/108/52
f 107/107/73 103/103/71 108/108/52
f 108/108/52 103/103/71 109/109/52
f 103/103/71 101/101/69 109/109/52
f 110/110/50 109/109/52 101/101/69
f 111/111/74 110/110/50 101/101/69
f 98/98/66 111/111/74 101/101/69
f 98/98/66 112/112/75 111/111/74
f 98/98/66 113/113/65 112/112/75
f 114/114/64 115/115/76 113/113/65
f 115/115/76 112/112/75 113/113/65
f 112/112/75 116/116/77 111/111/74
f 112/112/75 115/115/76 116/116/77
f 111/111/74 116/116/77 117/117/50
f 115/115/76 118/118/78 116/116/77
f 119/119/51 117/117/50 116/116/77
f 118/118/78 119/119/51 116/116/77
f 120/120/79 121/121/80 122/122/81
f 123/123/82 120/120/79 122/122/81
f 122/122/81 124/124/83 125/125/84
f 123/123/82 122/122/81 125/125/84
f 123/123/82 125/125/84 126/126/85
f 127/127/86 123/123/82 126/126/85
f 123/123/82 127/127/86 128/128/87
f 127/127/86 126/126/85 129/129/88
f 130/130/89 128/128/87 127/127/86
f 131/131/90 128/128/87 130/130/89
f 132/132/91 131/131/90 130/130/89
f 133/133/92 127/127/86 129/129/88
f 133/133/92 130/130/89 127/127/86
f 133/133/92 129/129/88 134/134/93
f 130/130/89 133/133/92 135/135/94
f 135/135/94 133/133/92 134/134/93
f 135/135/94 134/134/93 136/136/95
f 137/137/89 135/135/94 138/138/96
f 135/135/94 139/139/97 138/138/96
f 139/139/97 135/135/94 136/136/95
f 139/139/97 136/136/95 140/140/98
f 141/141/99 139/139/97 140/140/98
f 139/139/97 141/141/99 142/142/96
f 142/142/96 141/141/99 143/143/100
f 141/141/99 140/140/98 144/144/101
f 141/141/99 144/144/101 143/143/100
f 140/140/98 145/145/71 144/144/101
f 143/143/100 144/144/101 146/146/102
f 144/144/101 145/145/71 147/147/103
f 146/146/102 144/144/101 147/147/103
f 148/148/104 149/149/105 150/150/106
f 149/149/105 151/151/107 150/150/106
f 149/149/105 152/152/108 151/151/107
f 150/150/106 151/151/107 153/153/109
f 152/152/108 154/154/108 151/151/107
f 152/152/108 155/155/110 154/154/108
f 151/151/107 156/156/111 153/153/109
f 151/151/107 154/154/108 156/156/111
f 153/153/109 156/156/111 157/157/112
f 155/155/110 158/158/113 154/154/108
f 155/155/110 159/159/63 158/158/113
f 159/159/63 160/160/61 158/158/113
f 154/154/108 161/161/108 156/156/111
f 154/154/108 158/158/113 161/161/108
f 158/158/113 160/160/61 162/162/114
f 158/158/113 162/162/114 161/161/108
f 160/160/61 163/163/58 162/162/114
f 164/164/115 156/156/111 161/161/108
f 156/156/111 164/164/115 157/157/112
f 165/165/108 161/161/108 162/162/114
f 165/165/108 164/164/115 161/161/108
f 166/166/116 162/162/114 163/163/58
f 166/166/116 165/165/108 162/162/114
f 167/167/57 166/166/116 163/163/58
f 167/167/57 168/168/54 166/166/116
f 168/168/54 169/169/117 166/166/116
f 166/166/116 169/169/117 165/165/108
f 168/168/54 170/170/53 169/169/117
f 165/165/108 171/171/108 164/164/115
f 169/169/117 171/171/108 165/165/108
f 164/164/115 172/172/118 157/157/112
f 171/171/108 172/172/118 164/164/115
f 172/172/118 173/173/119 157/157/112
f 169/169/117 174/174/107 171/171/108
f 170/170/53 174/174/107 169/169/117
f 171/171/108 175/175/108 172/172/118
f 174/174/107 175/175/108 171/171/108
f 170/170/53 176/176/49 177/177/120
f 174/174/107 170/170/53 177/177/120
f 174/174/107 177/177/120 178/178/108
f 175/175/108 174/174/107 178/178/108
f 175/175/108 178/178/108 179/179/121
f 175/175/108 180/180/122 172/172/118
f 180/180/122 175/175/108 179/179/121
f 172/172/118 180/180/122 173/173/119
f 180/180/122 179/179/121 181/181/123
f 180/180/122 182/182/124 173/173/119
f 182/182/124 180/180/122 181/181/123
f 183/183/125 184/184/126 185/185/127
f 186/186/128 183/183/125 185/185/127
f 186/186/128 185/185/127 187/187/129
f 183/183/125 186/186/128 188/188/108
f 189/189/130 186/186/128 187/187/129
f 189/189/130 187/187/129 190/190/131
f 186/186/128 191/191/108 188/188/108
f 191/191/108 186/186/128 189/189/130
f 188/188/108 191/191/108 192/192/132
f 193/193/133 188/188/108 192/192/132
f 193/193/133 192/192/132 194/194/134
f 192/192/132 195/195/135 194/194/134
f 192/192/132 196/196/136 195/195/135
f 192/192/132 191/191/108 196/196/136
f 196/196/136 197/197/137 195/195/135
f 191/191/108 198/198/108 196/196/136
f 198/198/108 191/191/108 189/189/130
f 196/196/136 199/199/138 197/197/137
f 196/196/136 198/198/108 199/199/138
f 199/199/138 200/200/139 197/197/137
f 198/198/108 189/189/130 201/201/140
f 201/201/140 189/189/130 190/190/131
f 201/201/140 190/190/131 202/202/141
f 198/198/108 203/203/108 199/199/138
f 203/203/108 198/198/108 201/201/140
f 199/199/138 204/204/142 200/200/139
f 204/204/142 205/205/143 200/200/139
f 203/203/108 206/206/144 199/199/138
f 206/206/144 204/204/142 199/199/138
f 203/203/108 201/201/140 206/206/144
f 204/204/142 207/207/145 205/205/143
f 207/207/145 208/208/146 205/205/143
f 206/206/144 209/209/147 204/204/142
f 209/209/147 207/207/145 204/204/142
f 201/201/140 210/210/148 206/206/144
f 206/206/144 210/210/148 209/209/147
f 210/210/148 201/201/140 202/202/141
f 210/210/148 202/202/141 211/211/149
f 212/212/150 210/210/148 211/211/149
f 210/210/148 212/212/150 209/209/147
f 212/212/150 211/211/149 213/213/151
f 209/209/147 214/214/152 207/207/145
f 209/209/147 212/212/150 214/214/152
f 215/215/153 212/212/150 213/213/151
f 212/212/150 215/215/153 214/214/152
f 215/215/153 213/213/151 216/216/154
f 217/217/155 215/215/153 216/216/154
f 214/214/152 215/215/153 217/217/155
f 217/217/155 216/216/154 218/218/156
f 214/214/152 219/219/157 207/207/145
f 207/207/145 219/219/157 208/208/146
f 219/219/157 220/220/158 208/208/146
f 219/219/157 221/221/159 220/220/158
f 219/219/157 214/214/152 221/221/159
f 221/221/159 222/222/160 220/220/158
f 223/223/161 222/222/160 221/221/159
f 224/224/162 214/214/152 217/217/155
f 214/214/152 224/224/162 221/221/159
f 225/225/163 217/217/155 218/218/156
f 224/224/162 217/217/155 225/225/163
f 225/225/163 218/218/156 226/226/164
f 227/227/165 225/225/163 226/226/164
f 227/227/165 228/228/14 223/223/161
f 229/229/166 224/224/162 225/225/163
f 227/227/165 229/229/166 225/225/163
f 229/229/166 230/230/167 224/224/162
f 227/227/165 230/230/167 229/229/166
f 230/230/167 221/221/159 224/224/162
f 230/230/167 227/227/165 223/223/161
f 230/230/167 223/223/161 221/221/159
f 231/231/168 232/232/169 233/233/170
f 234/234/171 231/231/168 233/233/170
f 234/234/171 233/233/170 235/235/172
f 236/236/108 231/231/168 234/234/171
f 237/237/173 234/234/171 235/235/172
f 237/237/173 235/235/172 238/238/174
f 239/239/108 236/236/108 234/234/171
f 239/239/108 234/234/171 237/237/173
f 236/236/108 239/239/108 240/240/175
f 241/241/176 236/236/108 240/240/175
f 241/241/176 240/240/175 242/242/177
f 240/240/175 243/243/178 242/242/177
f 240/240/175 244/244/179 243/243/178
f 240/240/175 239/239/108 244/244/179
f 244/244/179 245/245/180 243/243/178
f 239/239/108 246/246/108 244/244/179
f 246/246/108 239/239/108 237/237/173
f 244/244/179 247/247/181 245/245/180
f 244/244/179 246/246/108 247/247/181
f 247/247/181 248/248/182 245/245/180
f 246/246/108 237/237/173 249/249/183
f 249/249/183 237/237/173 238/238/174
f 249/249/183 238/238/174 250/250/184
f 246/246/108 251/251/108 247/247/181
f 251/251/108 246/246/108 249/249/183
f 247/247/181 252/252/185 248/248/182
f 252/252/185 253/253/186 248/248/182
f 251/251/108 254/254/187 247/247/181
f 254/254/187 252/252/185 247/247/181
f 251/251/108 249/249/183 254/254/187
f 252/252/185 255/255/188 253/253/186
f 255/255/188 256/256/189 253/253/186
f 254/254/187 257/257/190 252/252/185
f 257/257/190 255/255/188 252/252/185
f 249/249/183 258/258/191 254/254/187
f 254/254/187 258/258/191 257/257/190
f 258/258/191 249/249/183 250/250/184
f 258/258/191 250/250/184 259/259/192
f 260/260/193 258/258/191 259/259/192
f 258/258/191 260/260/193 257/257/190
f 260/260/193 259/259/192 261/261/194
f 257/257/190 262/262/144 255/255/188
f 257/257/190 260/260/193 262/262/144
f 263/263/195 260/260/193 261/261/194
f 260/260/193 263/263/195 262/262/144
f 263/263/195 261/261/194 264/264/196
f 265/265/197 263/263/195 264/264/196
f 262/262/144 263/263/195 265/265/197
f 265/265/197 264/264/196 266/266/198
f 262/262/144 267/267/199 255/255/188
f 255/255/188 267/267/199 256/256/189
f 267/267/199 268/268/200 256/256/189
f 267/267/199 269/269/201 268/268/200
f 269/269/201 267/267/199 262/262/144
f 269/269/201 270/270/202 268/268/200
f 271/271/203 262/262/144 265/265/197
f 271/271/203 269/269/201 262/262/144
f 269/269/201 272/272/204 270/270/202
f 269/269/201 271/271/203 272/272/204
f 272/272/204 273/273/205 270/270/202
f 271/271/203 265/265/197 274/274/206
f 274/274/206 265/265/197 266/266/198
f 274/274/206 266/266/198 275/275/207
f 271/271/203 276/276/208 272/272/204
f 276/276/208 271/271/203 274/274/206
f 272/272/204 277/277/209 273/273/205
f 277/277/209 272/272/204 276/276/208
f 277/277/209 278/278/210 273/273/205
f 279/279/211 274/274/206 275/275/207
f 276/276/208 274/274/206 279/279/211
f 279/279/211 275/275/207 280/280/14
f 281/281/212 279/279/211 280/280/14
f 277/277/209 281/281/212 278/278/210
f 281/281/212 282/282/14 278/278/210
f 283/283/213 277/277/209 276/276/208
f 281/281/212 277/277/209 283/283/213
f 283/283/213 276/276/208 279/279/211
f 281/281/212 283/283/213 279/279/211
f 284/284/124 285/285/123 286/286/104
f 287/287/106 284/284/124 286/286/104
f 288/288/214 284/284/124 287/287/106
f 287/287/106 289/289/215 288/288/214
f 290/290/216 284/284/124 288/288/214
f 288/288/214 289/289/215 291/291/217
f 284/284/124 290/290/216 292/292/218
f 289/289/215 293/293/219 291/291/217
f 292/292/218 290/290/216 294/294/220
f 293/293/219 292/292/218 294/294/220
f 295/295/112 293/293/219 289/289/215
f 295/295/112 292/292/218 293/293/219
f 296/296/41 297/297/221 298/298/42
f 297/297/221 299/299/222 298/298/42
f 300/300/44 298/298/42 299/299/222
f 299/299/222 297/297/221 301/301/223
f 297/297/221 302/302/224 301/301/223
f 301/301/223 302/302/224 303/303/225
f 304/304/226 300/300/44 299/299/222
f 305/305/45 300/300/44 304/304/226
f 299/299/222 301/301/223 306/306/227
f 304/304/226 299/299/222 306/306/227
f 307/307/228 301/301/223 303/303/225
f 303/303/225 308/308/108 307/307/228
f 306/306/227 301/301/223 309/309/229
f 301/301/223 307/307/228 309/309/229
f 308/308/108 310/310/108 307/307/228
f 308/308/108 311/311/230 310/310/108
f 312/312/108 309/309/229 307/307/228
f 310/310/108 312/312/108 307/307/228
f 306/306/227 309/309/229 313/313/231
f 309/309/229 312/312/108 313/313/231
f 311/311/230 314/314/232 310/310/108
f 314/314/232 311/311/230 315/315/233
f 316/316/234 314/314/232 315/315/233
f 314/314/232 316/316/234 317/317/235
f 314/314/232 318/318/236 310/310/108
f 318/318/236 314/314/232 317/317/235
f 318/318/236 312/312/108 310/310/108
f 318/318/236 317/317/235 319/319/237
f 312/312/108 318/318/236 320/320/108
f 312/312/108 320/320/108 313/313/231
f 321/321/238 318/318/236 319/319/237
f 318/318/236 321/321/238 320/320/108
f 321/321/238 319/319/237 322/322/239
f 323/323/225 321/321/238 322/322/239
f 321/321/238 323/323/225 324/324/108
f 320/320/108 321/321/238 324/324/108
f 320/320/108 324/324/108 325/325/230
f 313/313/231 320/320/108 325/325/230
f 326/326/240 313/313/231 325/325/230
f 326/326/240 306/306/227 313/313/231
f 327/327/241 326/326/240 325/325/230
f 304/304/226 306/306/227 326/326/240
f 328/328/242 326/326/240 327/327/241
f 328/328/242 304/304/226 326/326/240
f 329/329/243 328/328/242 327/327/241
f 328/328/242 305/305/45 304/304/226
f 329/329/243 330/330/46 328/328/242
f 330/330/46 305/305/45 328/328/242
f 331/331/43 332/332/46 333/333/243
f 334/334/244 331/331/43 333/333/243
f 335/335/39 331/331/43 334/334/244
f 334/334/244 333/333/243 336/336/245
f 333/333/243 337/337/241 336/336/245
f 338/338/246 335/335/39 334/334/244
f 339/339/40 335/335/39 338/338/246
f 334/334/244 336/336/245 340/340/247
f 338/338/246 334/334/244 340/340/247
f 336/336/245 337/337/241 341/341/232
f 337/337/241 342/342/230 341/341/232
f 342/342/230 343/343/108 341/341/232
f 336/336/245 341/341/232 344/344/236
f 340/340/247 336/336/245 344/344/236
f 343/343/108 345/345/108 341/341/232
f 341/341/232 345/345/108 344/344/236
f 343/343/108 346/346/225 345/345/108
f 346/346/225 347/347/239 348/348/248
f 349/349/228 346/346/225 348/348/248
f 346/346/225 349/349/228 345/345/108
f 349/349/228 348/348/248 350/350/249
f 345/345/108 351/351/108 344/344/236
f 345/345/108 349/349/228 351/351/108
f 352/352/229 349/349/228 350/350/249
f 349/349/228 352/352/229 351/351/108
f 352/352/229 350/350/249 353/353/250
f 344/344/236 351/351/108 354/354/238
f 340/340/247 344/344/236 354/354/238
f 351/351/108 352/352/229 355/355/108
f 351/351/108 355/355/108 354/354/238
f 356/356/231 352/352/229 353/353/250
f 352/352/229 356/356/231 355/355/108
f 356/356/231 353/353/250 357/357/233
f 358/358/230 356/356/231 357/357/233
f 356/356/231 358/358/230 359/359/108
f 355/355/108 356/356/231 359/359/108
f 355/355/108 359/359/108 360/360/225
f 354/354/238 355/355/108 360/360/225
f 361/361/251 354/354/238 360/360/225
f 361/361/251 340/340/247 354/354/238
f 362/362/252 361/361/251 360/360/225
f 338/338/246 340/340/247 361/361/251
f 363/363/253 361/361/251 362/362/252
f 363/363/253 338/338/246 361/361/251
f 364/364/254 363/363/253 362/362/252
f 363/363/253 339/339/40 338/338/246
f 364/364/254 365/365/41 363/363/253
f 365/365/41 339/339/40 363/363/253
f 366/366/255 367/367/256 368/368/257
f 367/367/256 369/369/258 368/368/257
f 368/368/257 369/369/258 370/370/108
f 371/371/259 369/369/258 367/367/256
f 372/372/216 371/371/259 367/367/256
f 371/371/259 372/372/216 373/373/214
f 369/369/258 374/374/108 370/370/108
f 370/370/108 374/374/108 375/375/260
f 369/369/258 371/371/259 376/376/108
f 374/374/108 369/369/258 376/376/108
f 377/377/261 371/371/259 373/373/214
f 373/373/214 378/378/262 377/377/261
f 371/371/259 377/377/261 379/379/108
f 376/376/108 371/371/259 379/379/108
f 378/378/262 380/380/263 377/377/261
f 377/377/261 380/380/263 379/379/108
f 378/378/262 381/381/219 380/380/263
f 381/381/219 382/382/257 380/380/263
f 380/380/263 382/382/257 383/383/108
f 384/384/108 380/380/263 383/383/108
f 380/380/263 384/384/108 379/379/108
f 384/384/108 383/383/108 385/385/260
f 379/379/108 384/384/108 386/386/264
f 376/376/108 379/379/108 386/386/264
f 387/387/265 384/384/108 385/385/260
f 384/384/108 387/387/265 386/386/264
f 385/385/260 388/388/266 387/387/265
f 389/389/267 376/376/108 386/386/264
f 374/374/108 376/376/108 389/389/267
f 386/386/264 387/387/265 390/390/268
f 389/389/267 386/386/264 390/390/268
f 388/388/266 391/391/269 387/387/265
f 387/387/265 391/391/269 390/390/268
f 392/392/38 388/388/266 393/393/14
f 388/388/266 392/392/38 391/391/269
f 391/391/269 392/392/38 394/394/36
f 390/390/268 391/391/269 394/394/36
f 395/395/270 390/390/268 394/394/36
f 395/395/270 389/389/267 390/390/268
f 396/396/26 395/395/270 394/394/36
f 395/395/270 396/396/26 397/397/48
f 398/398/271 374/374/108 389/389/267
f 389/389/267 395/395/270 398/398/271
f 374/374/108 398/398/271 375/375/260
f 375/375/260 398/398/271 399/399/266
f 399/399/266 397/397/48 400/400/14
f 395/395/270 401/401/272 398/398/271
f 398/398/271 401/401/272 399/399/266
f 401/401/272 395/395/270 397/397/48
f 397/397/48 399/399/266 401/401/272
f 402/402/273 403/403/274 404/404/275
f 405/405/276 402/402/273 404/404/275
f 403/403/274 406/406/277 404/404/275
f 407/407/278 405/405/276 404/404/275
f 406/406/277 408/408/279 404/404/275
f 409/409/280 407/407/278 404/404/275
f 408/408/279 410/410/281 404/404/275
f 411/411/282 409/409/280 404/404/275
f 410/410/281 412/412/283 404/404/275
f 413/413/284 411/411/282 404/404/275
f 412/412/283 414/414/285 404/404/275
f 414/414/285 413/413/284 404/404/275
f 415/415/286 416/416/287 417/417/288
f 415/415/286 418/418/289 416/416/287
f 417/417/288 416/416/287 419/419/290
f 417/417/288 419/419/290 420/420/291
f 416/416/287 418/418/289 421/421/292
f 418/418/289 422/422/293 421/421/292
f 419/419/290 416/416/287 423/423/294
f 421/421/292 424/424/295 416/416/287
f 423/423/294 416/416/287 424/424/295
f 421/421/292 422/422/293 425/425/296
f 426/426/297 424/424/295 421/421/292
f 425/425/296 426/426/297 421/421/292
f 424/424/295 427/427/298 423/423/294
f 424/424/295 426/426/297 427/427/298
f 422/422/293 428/428/299 425/425/296
f 429/429/300 428/428/299 422/422/293
f 430/430/301 426/426/297 425/425/296
f 425/425/296 428/428/299 430/430/301
f 427/427/298 426/426/297 431/431/302
f 426/426/297 430/430/301 431/431/302
f 429/429/300 432/432/303 428/428/299
f 433/433/304 432/432/303 429/429/300
f 433/433/304 434/434/305 432/432/303
f 430/430/301 428/428/299 435/435/306
f 428/428/299 432/432/303 435/435/306
f 431/431/302 430/430/301 436/436/307
f 432/432/303 434/434/305 437/437/308
f 434/434/305 420/420/291 437/437/308
f 430/430/301 438/438/309 436/436/307
f 435/435/306 438/438/309 430/430/301
f 436/436/307 439/439/108 431/431/302
f 439/439/108 436/436/307 438/438/309
f 431/431/302 439/439/108 427/427/298
f 435/435/306 440/440/310 438/438/309
f 439/439/108 438/438/309 440/440/310
f 435/435/306 432/432/303 441/441/311
f 441/441/311 440/440/310 435/435/306
f 437/437/308 441/441/311 432/432/303
f 441/441/311 442/442/312 440/440/310
f 442/442/312 441/441/311 437/437/308
f 443/443/313 439/439/108 440/440/310
f 440/440/310 442/442/312 443/443/313
f 439/439/108 444/444/314 427/427/298
f 423/423/294 427/427/298 444/444/314
f 445/445/315 439/439/108 443/443/313
f 439/439/108 445/445/315 444/444/314
f 443/443/313 446/446/316 445/445/315
f 446/446/316 444/444/314 445/445/315
f 423/423/294 444/444/314 446/446/316
f 442/442/312 446/446/316 443/443/313
f 446/446/316 419/419/290 423/423/294
f 446/446/316 442/442/312 447/447/317
f 447/447/317 419/419/290 446/446/316
f 447/447/317 442/442/312 437/437/308
f 420/420/291 419/419/290 447/447/317
f 437/437/308 420/420/291 447/447/317
f 448/448/318 449/449/319 450/450/291
f 449/449/319 451/451/320 450/450/291
f 452/452/321 449/449/319 448/448/318
f 453/453/286 452/452/321 448/448/318
f 454/454/322 451/451/320 449/449/319
f 454/454/322 455/455/304 451/451/320
f 456/456/323 452/452/321 453/453/286
f 457/457/324 455/455/304 454/454/322
f 456/456/323 453/453/286 458/458/325
f 458/458/325 453/453/286 459/459/326
f 457/457/324 460/460/327 455/455/304
f 455/455/304 460/460/327 461/461/328
f 458/458/325 459/459/326 462/462/329
f 460/460/327 462/462/329 461/461/328
f 462/462/329 459/459/326 463/463/293
f 461/461/328 462/462/329 463/463/293
f 462/462/329 464/464/330 458/458/325
f 465/465/331 462/462/329 460/460/327
f 464/464/330 462/462/329 465/465/331
f 458/458/325 464/464/330 466/466/332
f 458/458/325 466/466/332 456/456/323
f 465/465/331 467/467/333 464/464/330
f 467/467/333 466/466/332 464/464/330
f 465/465/331 460/460/327 468/468/334
f 468/468/334 460/460/327 457/457/324
f 469/469/335 467/467/333 465/465/331
f 468/468/334 469/469/335 465/465/331
f 470/470/336 466/466/332 467/467/333
f 471/471/337 469/469/335 468/468/334
f 472/472/108 467/467/333 469/469/335
f 472/472/108 469/469/335 471/471/337
f 470/470/336 467/467/333 472/472/108
f 471/471/337 468/468/334 473/473/338
f 471/471/337 473/473/338 472/472/108
f 457/457/324 474/474/339 468/468/334
f 473/473/338 468/468/334 474/474/339
f 454/454/322 474/474/339 457/457/324
f 473/473/338 474/474/339 475/475/340
f 473/473/338 475/475/340 472/472/108
f 454/454/322 476/476/341 474/474/339
f 475/475/340 474/474/339 476/476/341
f 449/449/319 476/476/341 454/454/322
f 476/476/341 449/449/319 477/477/342
f 477/477/342 475/475/340 476/476/341
f 477/477/342 449/449/319 452/452/321
f 472/472/108 475/475/340 478/478/343
f 478/478/343 475/475/340 477/477/342
f 472/472/108 478/478/343 479/479/344
f 479/479/344 470/470/336 472/472/108
f 480/480/345 478/478/343 477/477/342
f 479/479/344 478/478/343 480/480/345
f 477/477/342 452/452/321 480/480/345
f 479/479/344 480/480/345 470/470/336
f 480/480/345 452/452/321 456/456/323
f 470/470/336 480/480/345 466/466/332
f 456/456/323 466/466/332 480/480/345
f 481/481/51 482/482/291 483/483/346
f 484/484/347 481/481/51 483/483/346
f 485/485/8 481/481/51 484/484/347
f 483/483/346 482/482/291 486/486/348
f 482/482/291 487/487/349 486/486/348
f 488/488/350 485/485/8 484/484/347
f 489/489/351 485/485/8 488/488/350
f 486/486/348 487/487/349 490/490/352
f 487/487/349 491/491/14 490/490/352
f 492/492/353 489/489/351 488/488/350
f 493/493/304 489/489/351 492/492/353
f 490/490/352 491/491/14 494/494/354
f 491/491/14 495/495/355 494/494/354
f 496/496/356 493/493/304 492/492/353
f 497/497/357 493/493/304 496/496/356
f 494/494/354 495/495/355 498/498/358
f 495/495/355 499/499/286 498/498/358
f 500/500/359 497/497/357 496/496/356
f 501/501/3 497/497/357 500/500/359
f 498/498/358 499/499/286 502/502/360
f 499/499/286 503/503/64 502/502/360
f 504/504/361 501/501/3 500/500/359
f 505/505/362 501/501/3 504/504/361
f 502/502/360 503/503/64 506/506/363
f 503/503/64 507/507/20 506/506/363
f 508/508/364 505/505/362 504/504/361
f 509/509/293 505/505/362 508/508/364
f 506/506/363 507/507/20 510/510/365
f 507/507/20 511/511/366 510/510/365
f 511/511/366 509/509/293 512/512/367
f 510/510/365 511/511/366 512/512/367
f 512/512/367 509/509/293 508/508/364
f 506/506/363 510/510/365 513/513/368
f 510/510/365 512/512/367 514/514/369
f 510/510/365 514/514/369 513/513/368
f 512/512/367 508/508/364 515/515/370
f 512/512/367 515/515/370 514/514/369
f 508/508/364 504/504/361 516/516/371
f 508/508/364 516/516/371 515/515/370
f 504/504/361 517/517/372 516/516/371
f 504/504/361 500/500/359 517/517/372
f 516/516/371 518/518/373 515/515/370
f 500/500/359 519/519/374 517/517/372
f 500/500/359 496/496/356 519/519/374
f 517/517/372 520/520/375 516/516/371
f 520/520/375 518/518/373 516/516/371
f 519/519/374 521/521/376 517/517/372
f 521/521/376 520/520/375 517/517/372
f 496/496/356 522/522/377 519/519/374
f 496/496/356 492/492/353 522/522/377
f 523/523/378 521/521/376 519/519/374
f 522/522/377 523/523/378 519/519/374
f 524/524/14 520/520/375 521/521/376
f 524/524/14 525/525/379 520/520/375
f 525/525/379 518/518/373 520/520/375
f 526/526/76 524/524/14 521/521/376
f 526/526/76 521/521/376 523/523/378
f 525/525/379 527/527/291 518/518/373
f 528/528/286 526/526/76 523/523/378
f 527/527/291 529/529/380 518/518/373
f 518/518/373 529/529/380 515/515/370
f 527/527/291 530/530/51 529/529/380
f 515/515/370 529/529/380 514/514/369
f 530/530/51 531/531/381 529/529/380
f 529/529/380 531/531/381 514/514/369
f 530/530/51 532/532/8 531/531/381
f 514/514/369 531/531/381 513/513/368
f 532/532/8 533/533/382 531/531/381
f 531/531/381 533/533/382 513/513/368
f 532/532/8 534/534/351 533/533/382
f 513/513/368 533/533/382 535/535/383
f 506/506/363 513/513/368 535/535/383
f 502/502/360 506/506/363 535/535/383
f 534/534/351 536/536/384 533/533/382
f 533/533/382 536/536/384 535/535/383
f 534/534/351 537/537/304 536/536/384
f 502/502/360 535/535/383 538/538/385
f 535/535/383 536/536/384 538/538/385
f 498/498/358 502/502/360 538/538/385
f 537/537/304 539/539/386 536/536/384
f 536/536/384 539/539/386 538/538/385
f 537/537/304 540/540/387 539/539/386
f 498/498/358 538/538/385 541/541/388
f 538/538/385 539/539/386 541/541/388
f 494/494/354 498/498/358 541/541/388
f 540/540/387 542/542/389 539/539/386
f 539/539/386 542/542/389 541/541/388
f 540/540/387 543/543/3 542/542/389
f 494/494/354 541/541/388 544/544/390
f 541/541/388 542/542/389 544/544/390
f 490/490/352 494/494/354 544/544/390
f 543/543/3 545/545/391 542/542/389
f 542/542/389 545/545/391 544/544/390
f 543/543/3 546/546/392 545/545/391
f 490/490/352 544/544/390 547/547/393
f 544/544/390 545/545/391 547/547/393
f 486/486/348 490/490/352 547/547/393
f 546/546/392 548/548/394 545/545/391
f 545/545/391 548/548/394 547/547/393
f 546/546/392 549/549/293 548/548/394
f 486/486/348 547/547/393 550/550/395
f 547/547/393 548/548/394 550/550/395
f 483/483/346 486/486/348 550/550/395
f 549/549/293 551/551/396 548/548/394
f 548/548/394 551/551/396 550/550/395
f 549/549/293 552/552/366 551/551/396
f 483/483/346 550/550/395 553/553/397
f 550/550/395 551/551/396 553/553/397
f 484/484/347 483/483/346 553/553/397
f 552/552/366 554/554/398 551/551/396
f 551/551/396 554/554/398 553/553/397
f 552/552/366 555/555/20 554/554/398
f 484/484/347 553/553/397 556/556/399
f 553/553/397 554/554/398 556/556/399
f 488/488/350 484/484/347 556/556/399
f 555/555/20 557/557/400 554/554/398
f 554/554/398 557/557/400 556/556/399
f 555/555/20 558/558/64 557/557/400
f 488/488/350 556/556/399 559/559/401
f 556/556/399 557/557/400 559/559/401
f 492/492/353 488/488/350 559/559/401
f 492/492/353 559/559/401 522/522/377
f 558/558/64 560/560/402 557/557/400
f 557/557/400 560/560/402 559/559/401
f 559/559/401 560/560/402 522/522/377
f 558/558/64 528/528/286 560/560/402
f 560/560/402 523/523/378 522/522/377
f 528/528/286 523/523/378 560/560/402
f 561/561/403 562/562/404 563/563/405
f 561/561/403 563/563/405 564/564/406
f 565/565/8 561/561/403 564/564/406
f 562/562/404 566/566/407 563/563/405
f 562/562/404 567/567/291 566/566/407
f 565/565/8 564/564/406 568/568/408
f 569/569/409 565/565/8 568/568/408
f 567/567/291 570/570/410 566/566/407
f 567/567/291 571/571/411 570/570/410
f 569/569/409 568/568/408 572/572/412
f 573/573/413 569/569/409 572/572/412
f 571/571/411 574/574/414 570/570/410
f 571/571/411 575/575/415 574/574/414
f 573/573/413 572/572/412 576/576/416
f 577/577/304 573/573/413 576/576/416
f 575/575/415 578/578/417 574/574/414
f 575/575/415 579/579/14 578/578/417
f 577/577/304 576/576/416 580/580/418
f 581/581/419 577/577/304 580/580/418
f 579/579/14 582/582/420 578/578/417
f 579/579/14 583/583/421 582/582/420
f 581/581/419 580/580/418 584/584/422
f 585/585/423 581/581/419 584/584/422
f 583/583/421 586/586/424 582/582/420
f 583/583/421 587/587/425 586/586/424
f 585/585/423 584/584/422 588/588/426
f 589/589/3 585/585/423 588/588/426
f 587/587/425 590/590/427 586/586/424
f 587/587/425 591/591/286 590/590/427
f 589/589/3 588/588/426 592/592/428
f 593/593/429 589/589/3 592/592/428
f 591/591/286 594/594/430 590/590/427
f 591/591/286 595/595/431 594/594/430
f 593/593/429 592/592/428 596/596/432
f 597/597/433 593/593/429 596/596/432
f 595/595/431 598/598/434 594/594/430
f 595/595/431 599/599/435 598/598/434
f 597/597/433 596/596/432 600/600/436
f 601/601/293 597/597/433 600/600/436
f 599/599/435 602/602/437 598/598/434
f 599/599/435 603/603/20 602/602/437
f 601/601/293 600/600/436 604/604/438
f 605/605/439 601/601/293 604/604/438
f 603/603/20 606/606/440 602/602/437
f 603/603/20 607/607/441 606/606/440
f 607/607/441 605/605/439 608/608/442
f 607/607/441 608/608/442 606/606/440
f 605/605/439 604/604/438 608/608/442
f 609/609/443 602/602/437 606/606/440
f 610/610/444 606/606/440 608/608/442
f 610/610/444 609/609/443 606/606/440
f 611/611/445 608/608/442 604/604/438
f 611/611/445 610/610/444 608/608/442
f 609/609/443 612/612/446 602/602/437
f 612/612/446 598/598/434 602/602/437
f 609/609/443 610/610/444 613/613/447
f 612/612/446 614/614/448 598/598/434
f 614/614/448 594/594/430 598/598/434
f 612/612/446 609/609/443 615/615/449
f 609/609/443 613/613/447 615/615/449
f 614/614/448 612/612/446 616/616/450
f 612/612/446 615/615/449 616/616/450
f 614/614/448 617/617/451 594/594/430
f 617/617/451 590/590/427 594/594/430
f 614/614/448 616/616/450 618/618/452
f 617/617/451 614/614/448 618/618/452
f 617/617/451 619/619/453 590/590/427
f 619/619/453 586/586/424 590/590/427
f 617/617/451 618/618/452 620/620/454
f 619/619/453 617/617/451 620/620/454
f 619/619/453 621/621/455 586/586/424
f 621/621/455 582/582/420 586/586/424
f 619/619/453 620/620/454 622/622/456
f 621/621/455 619/619/453 622/622/456
f 621/621/455 623/623/457 582/582/420
f 623/623/457 578/578/417 582/582/420
f 621/621/455 622/622/456 624/624/458
f 623/623/457 621/621/455 624/624/458
f 623/623/457 625/625/459 578/578/417
f 625/625/459 574/574/414 578/578/417
f 623/623/457 624/624/458 626/626/460
f 625/625/459 623/623/457 626/626/460
f 625/625/459 627/627/461 574/574/414
f 627/627/461 570/570/410 574/574/414
f 625/625/459 626/626/460 628/628/462
f 627/627/461 625/625/459 628/628/462
f 627/627/461 629/629/463 570/570/410
f 629/629/463 566/566/407 570/570/410
f 627/627/461 628/628/462 630/630/464
f 629/629/463 627/627/461 630/630/464
f 629/629/463 631/631/465 566/566/407
f 631/631/465 563/563/405 566/566/407
f 629/629/463 630/630/464 632/632/466
f 631/631/465 629/629/463 632/632/466
f 631/631/465 633/633/467 563/563/405
f 633/633/467 564/564/406 563/563/405
f 631/631/465 632/632/466 634/634/468
f 633/633/467 631/631/465 634/634/468
f 633/633/467 635/635/469 564/564/406
f 635/635/469 568/568/408 564/564/406
f 633/633/467 634/634/468 636/636/470
f 635/635/469 633/633/467 636/636/470
f 635/635/469 637/637/471 568/568/408
f 637/637/471 572/572/412 568/568/408
f 635/635/469 636/636/470 638/638/472
f 637/637/471 635/635/469 638/638/472
f 637/637/471 639/639/473 572/572/412
f 639/639/473 576/576/416 572/572/412
f 637/637/471 638/638/472 640/640/474
f 639/639/473 637/637/471 640/640/474
f 639/639/473 641/641/475 576/576/416
f 641/641/475 580/580/418 576/576/416
f 639/639/473 640/640/474 642/642/476
f 641/641/475 639/639/473 642/642/476
f 641/641/475 643/643/477 580/580/418
f 643/643/477 584/584/422 580/580/418
f 641/641/475 642/642/476 644/644/478
f 643/643/477 641/641/475 644/644/478
f 643/643/477 645/645/479 584/584/422
f 645/645/479 588/588/426 584/584/422
f 643/643/477 644/644/478 646/646/480
f 645/645/479 643/643/477 646/646/480
f 645/645/479 647/647/481 588/588/426
f 647/647/481 592/592/428 588/588/426
f 645/645/479 646/646/480 648/648/482
f 647/647/481 645/645/479 648/648/482
f 647/647/481 649/649/483 592/592/428
f 649/649/483 596/596/432 592/592/428
f 647/647/481 648/648/482 650/650/484
f 649/649/483 647/647/481 650/650/484
f 649/649/483 651/651/485 596/596/432
f 651/651/485 600/600/436 596/596/432
f 649/649/483 650/650/484 652/652/486
f 651/651/485 649/649/483 652/652/486
f 651/651/485 653/653/487 600/600/436
f 653/653/487 604/604/438 600/600/436
f 653/653/487 611/611/445 604/604/438
f 653/653/487 651/651/485 654/654/488
f 651/651/485 652/652/486 654/654/488
f 611/611/445 653/653/487 655/655/489
f 653/653/487 654/654/488 655/655/489
f 611/611/445 655/655/489 656/656/490
f 610/610/444 611/611/445 656/656/490
f 610/610/444 656/656/490 613/613/447
f 655/655/489 654/654/488 657/657/491
f 656/656/490 655/655/489 658/658/492
f 655/655/489 657/657/491 658/658/492
f 613/613/447 656/656/490 659/659/493
f 656/656/490 658/658/492 659/659/493
f 613/613/447 659/659/493 660/660/494
f 615/615/449 613/613/447 660/660/494
f 659/659/493 658/658/492 661/661/108
f 660/660/494 659/659/493 661/661/108
f 658/658/492 657/657/491 661/661/108
f 615/615/449 660/660/494 662/662/495
f 662/662/495 660/660/494 661/661/108
f 616/616/450 615/615/449 662/662/495
f 616/616/450 662/662/495 663/663/496
f 663/663/496 662/662/495 661/661/108
f 618/618/452 616/616/450 663/663/496
f 618/618/452 663/663/496 664/664/497
f 664/664/497 663/663/496 661/661/108
f 620/620/454 618/618/452 664/664/497
f 620/620/454 664/664/497 665/665/498
f 665/665/498 664/664/497 661/661/108
f 622/622/456 620/620/454 665/665/498
f 622/622/456 665/665/498 666/666/499
f 666/666/499 665/665/498 661/661/108
f 624/624/458 622/622/456 666/666/499
f 624/624/458 666/666/499 667/667/500
f 667/667/500 666/666/499 661/661/108
f 626/626/460 624/624/458 667/667/500
f 626/626/460 667/667/500 668/668/501
f 668/668/501 667/667/500 661/661/108
f 628/628/462 626/626/460 668/668/501
f 628/628/462 668/668/501 669/669/502
f 669/669/502 668/668/501 661/661/108
f 630/630/464 628/628/462 669/669/502
f 630/630/464 669/669/502 670/670/503
f 670/670/503 669/669/502 661/661/108
f 632/632/466 630/630/464 670/670/503
f 632/632/466 670/670/503 671/671/504
f 671/671/504 670/670/503 661/661/108
f 634/634/468 632/632/466 671/671/504
f 634/634/468 671/671/504 672/672/505
f 672/672/505 671/671/504 661/661/108
f 636/636/470 634/634/468 672/672/505
f 636/636/470 672/672/505 673/673/506
f 673/673/506 672/672/505 661/661/108
f 638/638/472 636/636/470 673/673/506
f 638/638/472 673/673/506 674/674/507
f 674/674/507 673/673/506 661/661/108
f 640/640/474 638/638/472 674/674/507
f 640/640/474 674/674/507 675/675/508
f 675/675/508 674/674/507 661/661/108
f 642/642/476 640/640/474 675/675/508
f 642/642/476 675/675/508 676/676/509
f 676/676/509 675/675/508 661/661/108
f 644/644/478 642/642/476 676/676/509
f 644/644/478 676/676/509 677/677/510
f 677/677/510 676/676/509 661/661/108
f 646/646/480 644/644/478 677/677/510
f 646/646/480 677/677/510 678/678/511
f 678/678/511 677/677/510 661/661/108
f 648/648/482 646/646/480 678/678/511
f 648/648/482 678/678/511 679/679/512
f 679/679/512 678/678/511 661/661/108
f 650/650/484 648/648/482 679/679/512
f 650/650/484 679/679/512 680/680/513
f 680/680/513 679/679/512 661/661/108
f 652/652/486 650/650/484 680/680/513
f 681/681/514 680/680/513 661/661/108
f 652/652/486 680/680/513 681/681/514
f 657/657/491 681/681/514 661/661/108
f 654/654/488 652/652/486 681/681/514
f 654/654/488 681/681/514 657/657/491
f 682/682/13 683/683/515 684/684/11
f 685/685/516 683/683/515 682/682/13
f 686/686/517 685/685/516 682/682/13
f 683/683/515 687/687/518 684/684/11
f 684/684/11 687/687/518 688/688/9
f 689/689/519 685/685/516 686/686/517
f 690/690/17 689/689/519 686/686/517
f 685/685/516 691/691/520 683/683/515
f 692/692/521 689/689/519 690/690/17
f 693/693/522 692/692/521 690/690/17
f 689/689/519 694/694/523 685/685/516
f 694/694/523 691/691/520 685/685/516
f 695/695/524 694/694/523 689/689/519
f 692/692/521 695/695/524 689/689/519
f 691/691/520 696/696/525 683/683/515
f 683/683/515 696/696/525 687/687/518
f 694/694/523 697/697/108 691/691/520
f 691/691/520 697/697/108 696/696/525
f 695/695/524 697/697/108 694/694/523
f 696/696/525 698/698/526 687/687/518
f 696/696/525 697/697/108 698/698/526
f 699/699/527 695/695/524 692/692/521
f 699/699/527 697/697/108 695/695/524
f 700/700/528 692/692/521 693/693/522
f 700/700/528 699/699/527 692/692/521
f 701/701/21 700/700/528 693/693/522
f 702/702/529 699/699/527 700/700/528
f 702/702/529 697/697/108 699/699/527
f 703/703/530 700/700/528 701/701/21
f 703/703/530 702/702/529 700/700/528
f 704/704/23 703/703/530 701/701/21
f 705/705/531 702/702/529 703/703/530
f 705/705/531 697/697/108 702/702/529
f 706/706/532 703/703/530 704/704/23
f 706/706/532 705/705/531 703/703/530
f 707/707/533 706/706/532 704/704/23
f 708/708/534 705/705/531 706/706/532
f 708/708/534 697/697/108 705/705/531
f 709/709/535 706/706/532 707/707/533
f 709/709/535 708/708/534 706/706/532
f 710/710/2 709/709/535 707/707/533
f 711/711/536 708/708/534 709/709/535
f 711/711/536 697/697/108 708/708/534
f 712/712/537 709/709/535 710/710/2
f 712/712/537 711/711/536 709/709/535
f 713/713/538 712/712/537 710/710/2
f 714/714/539 697/697/108 711/711/536
f 714/714/539 711/711/536 712/712/537
f 715/715/540 712/712/537 713/713/538
f 715/715/540 714/714/539 712/712/537
f 716/716/7 715/715/540 713/713/538
f 717/717/541 697/697/108 714/714/539
f 717/717/541 714/714/539 715/715/540
f 698/698/526 697/697/108 717/717/541
f 718/718/542 715/715/540 716/716/7
f 718/718/542 717/717/541 715/715/540
f 698/698/526 717/717/541 718/718/542
f 688/688/9 718/718/542 716/716/7
f 687/687/518 698/698/526 718/718/542
f 687/687/518 718/718/542 688/688/9
f 719/719/235 720/720/234 721/721/543
f 722/722/544 719/719/235 721/721/543
f 723/723/237 719/719/235 722/722/544
f 721/721/543 720/720/234 724/724/545
f 720/720/234 725/725/233 724/724/545
f 726/726/546 723/723/237 722/722/544
f 727/727/239 723/723/237 726/726/546
f 724/724/545 725/725/233 728/728/547
f 725/725/233 729/729/250 728/728/547
f 730/730/548 727/727/239 726/726/546
f 731/731/248 727/727/239 730/730/548
f 728/728/547 729/729/250 732/732/549
f 729/729/250 733/733/249 732/732/549
f 733/733/249 731/731/248 734/734/550
f 732/732/549 733/733/249 734/734/550
f 734/734/550 731/731/248 730/730/548
f 728/728/547 732/732/549 735/735/551
f 732/732/549 734/734/550 736/736/552
f 735/735/551 732/732/549 736/736/552
f 734/734/550 730/730/548 737/737/553
f 736/736/552 734/734/550 737/737/553
f 738/738/554 728/728/547 735/735/551
f 724/724/545 728/728/547 738/738/554
f 735/735/551 736/736/552 739/739/555
f 740/740/556 724/724/545 738/738/554
f 724/724/545 740/740/556 721/721/543
f 738/738/554 735/735/551 741/741/557
f 735/735/551 739/739/555 741/741/557
f 738/738/554 741/741/557 742/742/558
f 740/740/556 738/738/554 742/742/558
f 742/742/558 741/741/557 739/739/555
f 740/740/556 742/742/558 743/743/559
f 743/743/559 742/742/558 739/739/555
f 740/740/556 744/744/560 721/721/543
f 744/744/560 740/740/556 743/743/559
f 722/722/544 721/721/543 744/744/560
f 743/743/559 739/739/555 745/745/561
f 744/744/560 743/743/559 745/745/561
f 746/746/562 722/722/544 744/744/560
f 746/746/562 744/744/560 745/745/561
f 726/726/546 722/722/544 746/746/562
f 739/739/555 747/747/563 745/745/561
f 736/736/552 747/747/563 739/739/555
f 736/736/552 737/737/553 747/747/563
f 746/746/562 745/745/561 748/748/564
f 745/745/561 747/747/563 748/748/564
f 749/749/565 726/726/546 746/746/562
f 749/749/565 746/746/562 748/748/564
f 730/730/548 726/726/546 749/749/565
f 737/737/553 730/730/548 749/749/565
f 747/747/563 750/750/566 748/748/564
f 737/737/553 750/750/566 747/747/563
f 749/749/565 748/748/564 750/750/566
f 737/737/553 749/749/565 750/750/566
f 751/751/567 752/752/568 753/753/569
f 751/751/567 753/753/569 754/754/570
f 755/755/277 751/751/567 754/754/570
f 752/752/568 756/756/571 753/753/569
f 752/752/568 757/757/572 756/756/571
f 755/755/277 754/754/570 758/758/573
f 759/759/574 755/755/277 758/758/573
f 757/757/572 760/760/575 756/756/571
f 757/757/572 761/761/576 760/760/575
f 759/759/574 758/758/573 762/762/577
f 763/763/578 759/759/574 762/762/577
f 761/761/576 764/764/579 760/760/575
f 761/761/576 765/765/580 764/764/579
f 763/763/578 762/762/577 766/766/581
f 767/767/283 763/763/578 766/766/581
f 765/765/580 768/768/582 764/764/579
f 765/765/580 769/769/282 768/768/582
f 767/767/283 766/766/581 770/770/583
f 771/771/584 767/767/283 770/770/583
f 769/769/282 772/772/585 768/768/582
f 769/769/282 773/773/586 772/772/585
f 773/773/586 771/771/584 774/774/587
f 773/773/586 774/774/587 772/772/585
f 771/771/584 770/770/583 774/774/587
f 768/768/582 772/772/585 775/775/588
f 772/772/585 774/774/587 776/776/589
f 772/772/585 776/776/589 775/775/588
f 774/774/587 770/770/583 777/777/590
f 774/774/587 777/777/590 776/776/589
f 770/770/583 766/766/581 778/778/591
f 770/770/583 778/778/591 777/777/590
f 766/766/581 779/779/592 778/778/591
f 766/766/581 762/762/577 779/779/592
f 777/777/590 778/778/591 780/780/593
f 762/762/577 781/781/594 779/779/592
f 762/762/577 758/758/573 781/781/594
f 778/778/591 779/779/592 782/782/595
f 778/778/591 782/782/595 780/780/593
f 779/779/592 783/783/592 782/782/595
f 779/779/592 781/781/594 783/783/592
f 777/777/590 780/780/593 784/784/589
f 776/776/589 777/777/590 784/784/589
f 780/780/593 782/782/595 785/785/108
f 784/784/589 780/780/593 785/785/108
f 782/782/595 783/783/592 785/785/108
f 776/776/589 784/784/589 786/786/596
f 786/786/596 784/784/589 785/785/108
f 775/775/588 776/776/589 786/786/596
f 781/781/594 787/787/597 783/783/592
f 783/783/592 787/787/597 785/785/108
f 775/775/588 786/786/596 788/788/598
f 788/788/598 786/786/596 785/785/108
f 789/789/599 775/775/588 788/788/598
f 768/768/582 775/775/588 789/789/599
f 764/764/579 768/768/582 789/789/599
f 789/789/599 788/788/598 790/790/600
f 790/790/600 788/788/598 785/785/108
f 764/764/579 789/789/599 791/791/600
f 791/791/600 789/789/599 790/790/600
f 760/760/575 764/764/579 791/791/600
f 791/791/600 790/790/600 792/792/601
f 792/792/601 790/790/600 785/785/108
f 760/760/575 791/791/600 793/793/602
f 793/793/602 791/791/600 792/792/601
f 756/756/571 760/760/575 793/793/602
f 793/793/602 792/792/601 794/794/603
f 794/794/603 792/792/601 785/785/108
f 756/756/571 793/793/602 795/795/603
f 795/795/603 793/793/602 794/794/603
f 753/753/569 756/756/571 795/795/603
f 796/796/604 794/794/603 785/785/108
f 795/795/603 794/794/603 796/796/604
f 753/753/569 795/795/603 797/797/604
f 797/797/604 795/795/603 796/796/604
f 754/754/570 753/753/569 797/797/604
f 798/798/605 796/796/604 785/785/108
f 797/797/604 796/796/604 798/798/605
f 787/787/597 798/798/605 785/785/108
f 754/754/570 797/797/604 799/799/606
f 799/799/606 797/797/604 798/798/605
f 799/799/606 798/798/605 787/787/597
f 758/758/573 754/754/570 799/799/606
f 781/781/594 799/799/606 787/787/597
f 758/758/573 799/799/606 781/781/594
