# Blender 4.5.0
# www.blender.org
mtllib tower.mtl
o tower
v 6.100379 7.143960 -13.420784
v 5.705144 11.804759 -13.049894
v 6.561803 7.143960 -12.198366
v 6.020071 12.326816 -12.215581
v 6.023698 7.143960 -11.007710
v 5.849618 11.922199 -11.743499
v 4.801281 7.143960 -10.546287
v 3.610625 7.143960 -11.084391
v 3.149202 7.143960 -12.306808
v 3.690933 12.326816 -12.289594
v 3.687306 7.143960 -13.497464
v 4.058195 11.761168 -13.102230
v 4.909723 7.143960 -13.958888
v 4.892509 12.326816 -13.417156
v 6.048903 8.662285 -13.141761
v 5.818651 8.662285 -13.387127
v 5.976100 8.773680 -13.304159
v 5.852603 8.217063 -13.418987
v 6.082855 8.217063 -13.173622
v 6.027041 8.227273 -13.351963
v 5.950095 9.957998 -13.049039
v 5.719843 9.957998 -13.294405
v 5.877291 10.069394 -13.211437
v 5.753795 9.512777 -13.326265
v 5.984047 9.512777 -13.080899
v 5.928232 9.522986 -13.259241
v 5.851286 11.253713 -12.956317
v 5.621034 11.253713 -13.201683
v 5.778482 11.365108 -13.118715
v 5.654986 10.808491 -13.233543
v 5.885238 10.808491 -12.988177
v 5.829424 10.818701 -13.166518
v 6.114463 10.808491 -12.380907
v 6.103776 10.808491 -12.044595
v 6.190415 10.818701 -12.210168
v 6.057240 11.253713 -12.046073
v 6.067926 11.253713 -12.382386
v 6.120592 11.365108 -12.212386
v 6.249896 9.512776 -12.376604
v 6.239209 9.512776 -12.040291
v 6.325849 9.522986 -12.205864
v 6.192672 9.957998 -12.041770
v 6.203360 9.957998 -12.378082
v 6.256025 10.069393 -12.208082
v 6.385329 8.217063 -12.372300
v 6.374641 8.217063 -12.035987
v 6.461281 8.227273 -12.201560
v 6.328105 8.662285 -12.037466
v 6.338792 8.662285 -12.373779
v 6.391458 8.773680 -12.203779
v 5.836458 10.808491 -11.453104
v 5.591092 10.808491 -11.222852
v 5.769433 10.818701 -11.278666
v 5.559231 11.253713 -11.256804
v 5.804597 11.253713 -11.487056
v 5.721630 11.365108 -11.329607
v 5.929180 9.512776 -11.354295
v 5.683814 9.512776 -11.124043
v 5.862155 9.522986 -11.179857
v 5.651954 9.957998 -11.157994
v 5.897320 9.957998 -11.388247
v 5.814352 10.069393 -11.230799
v 6.021903 8.217063 -11.255486
v 5.776536 8.217063 -11.025234
v 5.954878 8.227273 -11.081049
v 5.744676 8.662285 -11.059186
v 5.990042 8.662285 -11.289438
v 5.907074 8.773680 -11.131989
v 4.983822 10.808491 -10.993627
v 4.647509 10.808491 -11.004313
v 4.813083 10.818701 -10.917674
v 4.648988 11.253713 -11.050850
v 4.985301 11.253713 -11.040163
v 4.979518 9.512776 -10.858193
v 4.643206 9.512776 -10.868881
v 4.808779 9.522986 -10.782241
v 4.644684 9.957998 -10.915417
v 4.980998 9.957998 -10.904730
v 4.810997 10.069393 -10.852064
v 4.975215 8.217063 -10.722761
v 4.640381 8.662285 -10.779984
v 4.976694 8.662285 -10.769297
v 4.806694 8.773680 -10.716631
v 4.056018 10.808491 -11.271631
v 3.825766 10.808491 -11.516997
v 3.881581 10.818701 -11.338656
v 3.859718 11.044328 -11.548859
v 4.089970 11.253713 -11.303493
v 3.957210 9.512776 -11.178909
v 3.726957 9.512776 -11.424275
v 3.782772 9.522986 -11.245934
v 3.760909 9.957998 -11.456136
v 3.991161 9.957998 -11.210770
v 3.833713 10.069393 -11.293737
v 3.628149 8.217063 -11.331553
v 3.683963 8.227273 -11.153212
v 3.662101 8.662285 -11.363414
v 3.892353 8.662285 -11.118048
v 3.734904 8.773680 -11.201015
v 3.596541 10.808491 -12.124268
v 3.607228 10.808491 -12.460581
v 3.520589 10.818701 -12.295008
v 3.653765 11.253713 -12.459102
v 3.643078 11.253713 -12.122788
v 3.590412 11.365108 -12.292789
v 3.461108 9.512776 -12.128572
v 3.471796 9.512776 -12.464884
v 3.385156 9.522986 -12.299311
v 3.518332 9.957998 -12.463406
v 3.507645 9.957998 -12.127092
v 3.454979 10.069393 -12.297092
v 3.325675 8.217063 -12.132874
v 3.336363 8.217063 -12.469188
v 3.249723 8.227273 -12.303615
v 3.382899 8.662285 -12.467709
v 3.372212 8.662285 -12.131396
v 3.319546 8.773680 -12.301395
v 3.874547 10.808491 -13.052071
v 4.119913 10.808491 -13.282324
v 3.941571 10.818701 -13.226509
v 4.151773 11.253713 -13.248371
v 3.906407 11.253713 -13.018120
v 3.989375 11.365108 -13.175568
v 3.781824 9.512776 -13.150880
v 4.027190 9.512776 -13.381132
v 3.848849 9.522986 -13.325317
v 4.059051 9.957998 -13.347180
v 3.813684 9.957998 -13.116928
v 3.896652 10.069393 -13.274376
v 3.689102 8.217063 -13.249688
v 3.934468 8.217063 -13.479940
v 3.756126 8.227273 -13.424126
v 3.966328 8.662285 -13.445989
v 3.720962 8.662285 -13.215736
v 3.803930 8.773680 -13.373185
v 4.727182 10.808491 -13.511548
v 5.063495 10.808491 -13.500861
v 4.897922 10.818701 -13.587501
v 5.062016 11.253713 -13.454325
v 4.725703 11.253713 -13.465012
v 4.895703 11.365108 -13.517677
v 4.731485 9.512776 -13.646981
v 5.067799 9.512776 -13.636294
v 4.902225 9.522986 -13.722934
v 5.066319 9.957998 -13.589758
v 4.730007 9.957998 -13.600445
v 4.900007 10.069393 -13.653111
v 4.735789 8.217063 -13.782413
v 5.072102 8.217063 -13.771727
v 4.906529 8.227273 -13.858366
v 5.070623 8.662285 -13.725191
v 4.734310 8.662285 -13.735878
v 4.904310 8.773680 -13.788544
v 3.751398 11.244274 -11.835823
v 3.711154 10.808491 -11.820633
v 4.975215 8.217063 -10.722761
v 3.551930 8.662285 -12.841722
v 3.539825 8.524793 -12.847194
v 3.641447 8.315303 -13.121196
v 3.290338 7.143960 -12.619098
v 3.545270 7.143960 -13.183184
v 3.405330 8.321374 -12.597320
v 5.917681 11.579841 -12.621439
v 6.080132 11.752197 -12.213672
v 5.984555 7.218211 -13.312094
v 5.582247 11.791969 -12.893832
v 6.403048 7.218211 -12.203411
v 5.838382 12.319576 -12.297694
v 5.915009 7.218211 -11.123535
v 5.667929 11.914959 -11.825612
v 4.763497 7.247372 -10.646386
v 3.716142 7.245111 -11.123706
v 3.307957 7.218211 -12.301764
v 3.867418 12.319767 -12.196779
v 3.795996 7.218211 -13.381639
v 4.194194 11.748983 -12.957304
v 4.904678 7.218211 -13.800133
v 4.884265 12.318981 -13.218000
v 5.862368 8.655046 -13.071349
v 5.736538 8.655046 -13.205438
v 5.830742 8.765924 -13.167756
v 5.774113 8.210137 -13.235674
v 5.894928 8.210137 -13.106928
v 5.881626 8.220313 -13.215506
v 5.763559 9.950759 -12.978627
v 5.637730 9.950759 -13.112716
v 5.731934 10.061638 -13.075033
v 5.675176 9.505948 -13.142990
v 5.796150 9.505948 -13.014075
v 5.782795 9.516419 -13.122762
v 5.664750 11.246473 -12.885904
v 5.538921 11.246473 -13.019994
v 5.633770 11.351249 -12.982916
v 5.576367 10.801662 -13.050268
v 5.697341 10.801662 -12.921353
v 5.683987 10.812134 -13.030040
v 5.929279 10.801662 -12.306908
v 5.923664 10.801662 -12.130202
v 5.991069 10.812134 -12.216502
v 5.875550 11.246473 -12.128186
v 5.881391 11.246473 -12.311975
v 5.923782 11.397815 -12.219735
v 6.064712 9.505948 -12.302604
v 6.059101 9.505948 -12.125903
v 6.126502 9.516419 -12.212198
v 6.010983 9.950759 -12.123883
v 6.016823 9.950759 -12.307671
v 6.056791 10.061638 -12.214414
v 6.200206 8.210137 -12.298173
v 6.194598 8.210137 -12.121718
v 6.261970 8.220313 -12.207893
v 6.146416 8.655046 -12.119579
v 6.152256 8.655046 -12.303367
v 6.192224 8.765924 -12.210110
v 5.653183 10.801662 -11.531722
v 5.524268 10.801662 -11.410748
v 5.632954 10.812134 -11.424103
v 5.488819 11.246473 -11.443339
v 5.622908 11.246473 -11.569169
v 5.539940 11.357868 -11.411720
v 5.745905 9.505948 -11.432914
v 5.616990 9.505948 -11.311939
v 5.725677 9.516419 -11.325294
v 5.581542 9.950759 -11.344530
v 5.715631 9.950759 -11.470360
v 5.677948 10.061638 -11.376156
v 5.838589 8.210137 -11.333977
v 5.709843 8.210137 -11.213161
v 5.818420 8.220313 -11.226463
v 5.674264 8.655046 -11.245722
v 5.808353 8.655046 -11.371552
v 5.770670 8.765924 -11.277347
v 4.909822 10.801662 -11.178810
v 4.733117 10.801662 -11.184425
v 4.819417 10.812134 -11.117020
v 4.731102 11.246473 -11.232539
v 4.914889 11.246473 -11.226699
v 4.905514 9.505948 -11.043373
v 4.728818 9.505948 -11.048988
v 4.815114 9.516419 -10.981587
v 4.726798 9.950759 -11.097106
v 4.910585 9.950759 -11.091266
v 4.817328 10.061638 -11.051298
v 4.904803 8.209824 -10.909297
v 4.722494 8.655046 -10.961674
v 4.906281 8.655046 -10.955833
v 4.813025 8.765924 -10.915866
v 4.134637 10.801662 -11.454906
v 4.013466 10.799618 -11.583729
v 4.027018 10.812134 -11.475135
v 4.042667 11.035103 -11.627574
v 4.172083 11.246473 -11.485182
v 4.035829 9.505948 -11.362185
v 3.914854 9.505948 -11.491099
v 3.928209 9.516419 -11.382413
v 3.947445 9.950759 -11.526548
v 4.073275 9.950759 -11.392459
v 3.979070 10.061638 -11.430141
v 3.816076 8.210137 -11.398247
v 3.874599 8.221020 -11.211924
v 3.848637 8.655046 -11.433825
v 3.974466 8.655046 -11.299737
v 3.880262 8.765924 -11.337419
v 3.781705 10.801624 -12.198316
v 3.787340 10.801662 -12.374972
v 3.719935 10.812134 -12.288672
v 3.835454 11.246473 -12.376988
v 3.829403 11.246481 -12.193755
v 3.769820 11.355274 -12.206487
v 3.646292 9.505948 -12.202571
v 3.651903 9.505948 -12.379272
v 3.584502 9.516419 -12.292976
v 3.700021 9.950759 -12.381292
v 3.694181 9.950759 -12.197504
v 3.654213 10.061638 -12.290761
v 3.510799 8.210137 -12.207002
v 3.516406 8.210137 -12.383457
v 3.449035 8.220313 -12.297281
v 3.564588 8.655046 -12.385595
v 3.558748 8.655046 -12.201808
v 3.518780 8.765924 -12.295065
v 4.057821 10.801662 -12.973453
v 4.186737 10.801662 -13.094426
v 4.078050 10.812134 -13.081072
v 4.222185 11.246473 -13.061835
v 4.088096 11.246473 -12.936007
v 4.125015 11.350053 -13.031024
v 3.965099 9.505948 -13.072261
v 4.094014 9.505948 -13.193235
v 3.985327 9.516419 -13.179880
v 4.129463 9.950759 -13.160645
v 3.995374 9.950759 -13.034815
v 4.033056 10.061638 -13.129019
v 3.872416 8.210137 -13.171198
v 4.001162 8.210137 -13.292013
v 3.892584 8.220313 -13.278711
v 4.036740 8.655046 -13.259453
v 3.902651 8.655046 -13.133623
v 3.940334 8.765924 -13.227828
v 4.801182 10.801662 -13.326365
v 4.977887 10.801662 -13.320749
v 4.891587 10.812134 -13.388155
v 4.979903 11.246473 -13.272635
v 4.796115 11.246473 -13.278476
v 4.889671 11.354507 -13.318783
v 4.805490 9.505948 -13.461802
v 4.982191 9.505948 -13.456182
v 4.895891 9.516419 -13.523587
v 4.984206 9.950759 -13.408069
v 4.800419 9.950759 -13.413909
v 4.893675 10.061638 -13.453876
v 4.809916 8.210137 -13.597291
v 4.986371 8.210137 -13.591683
v 4.900196 8.220313 -13.659055
v 4.988510 8.655046 -13.543501
v 4.804722 8.655046 -13.549341
v 4.897979 8.765924 -13.589310
v 3.936342 11.236963 -11.910310
v 3.897108 10.800280 -11.892288
v 4.959637 8.213635 -10.921807
v 3.733620 8.655046 -12.759609
v 3.721515 8.517552 -12.765080
v 3.823136 8.308064 -13.039083
v 3.374197 7.252654 -12.581196
v 3.628896 7.252736 -13.145389
v 3.587019 8.314134 -12.515206
v 5.735362 11.608373 -12.551487
v 5.888225 11.786354 -12.261583
vn 0.4099 0.0962 -0.9070
vn 0.9070 0.0962 0.4099
vn -0.9070 0.0962 -0.4099
vn -0.3438 0.2284 -0.9108
vn -0.0000 -1.0000 -0.0000
vn 0.9312 0.0962 -0.3515
vn -0.3515 0.0962 -0.9312
vn -0.9312 0.0962 0.3515
vn -0.9310 0.0982 0.3514
vn -0.4099 0.0962 0.9070
vn 0.3515 0.0962 0.9312
vn -0.8808 0.0831 -0.4660
vn 0.9153 0.2068 -0.3455
vn -0.9204 0.1794 0.3474
vn 0.2933 0.0831 0.9524
vn -0.8812 0.0936 -0.4634
vn -0.8872 0.2284 -0.4009
vn -0.4065 0.0936 -0.9088
vn 0.9524 0.0831 -0.2933
vn 0.9087 0.0831 -0.4092
vn 0.4660 0.0831 -0.8808
vn 0.3532 0.0831 -0.9319
vn -0.9302 0.0961 0.3543
vn 0.4595 0.0938 -0.8832
vn 0.4029 0.2068 -0.8916
vn -0.2933 0.0831 -0.9524
vn -0.4092 0.0831 -0.9087
vn -0.2937 0.0785 -0.9527
vn -0.4091 0.0785 -0.9091
vn -0.8813 0.0785 -0.4660
vn -0.9321 0.0785 -0.3536
vn -0.9524 0.0831 0.2933
vn -0.9087 0.0831 0.4092
vn -0.9527 0.0785 0.2937
vn -0.9091 0.0785 0.4091
vn -0.4660 0.0785 0.8813
vn -0.3536 0.0785 0.9321
vn 0.2937 0.0785 0.9527
vn 0.4091 0.0785 0.9091
vn 0.8808 0.0831 0.4660
vn 0.9319 0.0831 0.3532
vn 0.8813 0.0785 0.4660
vn 0.9321 0.0785 0.3536
vn 0.9527 0.0785 -0.2937
vn 0.9091 0.0785 -0.4091
vn 0.4660 0.0785 -0.8813
vn 0.3536 0.0785 -0.9321
vn -0.9066 0.0980 0.4105
vn -0.9319 0.0831 -0.3532
vn 0.9106 0.0938 -0.4025
vn -0.4099 -0.0963 0.9070
vn -0.9004 -0.0617 -0.4308
vn 0.9162 -0.0665 0.3951
vn 0.3441 -0.2280 0.9108
vn -0.9070 -0.0963 -0.4099
vn 0.0107 0.9999 0.0050
vn -0.9242 -0.1557 0.3488
vn -0.4068 -0.1557 0.9002
vn 0.3515 -0.0963 0.9312
vn 0.3515 -0.0962 0.9312
vn 0.9070 -0.0962 0.4099
vn 0.9070 -0.0963 0.4099
vn 0.9312 -0.0963 -0.3515
vn 0.9312 -0.0962 -0.3515
vn 0.9310 -0.0982 -0.3515
vn 0.4099 -0.0963 -0.9070
vn -0.3515 -0.0963 -0.9312
vn -0.3515 -0.0962 -0.9312
vn -0.4108 0.0458 0.9106
vn -0.9312 -0.0963 0.3515
vn -0.9312 -0.0962 0.3515
vn 0.3488 -0.1557 0.9242
vn 0.3508 -0.1163 0.9292
vn 0.7764 -0.1121 0.6202
vn 0.9070 -0.0961 0.4099
vn 0.9051 -0.1163 0.4090
vn 0.9242 -0.1557 -0.3488
vn 0.9292 -0.1163 -0.3508
vn 0.9292 -0.1162 -0.3509
vn 0.4090 -0.1163 -0.9051
vn -0.3508 -0.1163 -0.9292
vn -0.9002 -0.1557 -0.4068
vn -0.9051 -0.1163 -0.4090
vn -0.9292 -0.1163 0.3508
vn -0.9162 -0.2104 0.3411
vn -0.4090 -0.1163 0.9051
vn 0.9205 -0.1788 -0.3475
vn -0.1105 -0.1121 -0.9875
vn 0.8573 -0.2053 0.4720
vn -0.4099 -0.0962 0.9070
vn -0.9105 0.0413 -0.4115
vn -0.8999 -0.1189 -0.4196
vn -0.8951 -0.1145 -0.4309
vn 0.9100 0.0529 0.4113
vn 0.8871 -0.0943 0.4519
vn 0.8940 -0.2265 0.3866
vn 0.3527 0.0529 0.9343
vn 0.3516 0.0444 0.9351
vn 0.4176 -0.0921 0.9040
vn -0.9070 -0.0962 -0.4099
vn 0.0127 0.9995 -0.0280
vn 0.0108 0.9999 0.0049
vn -0.0051 1.0000 0.0064
vn -0.2424 0.9682 0.0619
vn -0.0736 0.9780 -0.1950
vn 0.0143 0.9999 -0.0054
vn 0.0204 0.9997 -0.0119
vn -0.9875 -0.1121 0.1105
vn -0.8142 -0.1121 0.5697
vn -0.6202 -0.1121 0.7764
vn -0.1730 -0.1121 0.9785
vn 0.9071 -0.0962 0.4097
vn 0.9302 -0.0961 -0.3542
vn 0.4099 -0.0962 -0.9070
vn -0.4113 0.0503 0.9101
vn -0.4769 -0.0940 0.8739
vn -0.4016 -0.2263 0.8874
vn 0.1105 -0.1121 0.9875
vn 0.5697 -0.1121 0.8142
vn 0.3529 0.0402 0.9348
vn 0.1150 -0.0702 0.9909
vn 0.5684 -0.0702 0.8197
vn 0.9611 -0.1851 0.2050
vn 0.9208 -0.2052 0.3315
vn 0.9105 0.0402 0.4115
vn 0.7820 -0.0702 0.6193
vn 0.9816 -0.0702 0.1777
vn 0.8918 -0.1105 0.4388
vn 0.9186 -0.1105 0.3794
vn 0.9296 -0.1867 -0.3178
vn 0.9416 -0.1787 -0.2853
vn 0.8142 -0.1121 -0.5697
vn 0.9348 0.0402 -0.3529
vn 0.9909 -0.0702 -0.1150
vn 0.8197 -0.0702 -0.5684
vn 0.9908 -0.0702 -0.1156
vn 0.9293 -0.1163 -0.3507
vn 0.8197 -0.0702 -0.5685
vn 0.9292 -0.1163 -0.3507
vn 0.4115 0.0402 -0.9105
vn 0.6193 -0.0702 -0.7820
vn 0.1777 -0.0702 -0.9816
vn -0.3529 0.0402 -0.9348
vn -0.1150 -0.0702 -0.9909
vn -0.5684 -0.0702 -0.8197
vn -0.7764 -0.1121 -0.6202
vn -0.9785 -0.1121 -0.1730
vn -0.9105 0.0402 -0.4115
vn -0.7820 -0.0702 -0.6193
vn -0.9816 -0.0702 -0.1777
vn -0.9348 0.0402 0.3529
vn -0.9909 -0.0702 0.1150
vn -0.8197 -0.0702 0.5684
vn -0.9344 0.0503 0.3527
vn -0.9347 0.0471 0.3523
vn -0.4115 0.0402 0.9105
vn -0.6193 -0.0702 0.7820
vn -0.1777 -0.0702 0.9816
vn 0.9063 -0.0984 -0.4111
vn -0.3813 -0.1611 -0.9103
vn -0.3460 -0.1996 -0.9168
vn 0.9069 -0.0962 0.4101
vn 0.7894 -0.1850 0.5854
vn 0.9785 -0.1121 0.1730
vn -0.8769 -0.0286 0.4799
vn -0.2851 0.7762 0.5623
vn -0.3299 0.6038 0.7257
vn 0.3761 0.8219 -0.4278
vn -0.5198 0.8197 0.2407
vn 0.4831 0.8455 0.2274
vn -0.3053 -0.7798 -0.5465
vn 0.5260 -0.7798 0.3394
vn -0.0703 0.9975 -0.0059
vn 0.0014 0.9975 0.0705
vn -0.0707 0.9975 -0.0078
vn 0.0033 0.9975 0.0711
vn -0.2875 -0.7892 -0.5426
vn 0.5233 -0.7892 0.3214
vn -0.0445 0.9975 -0.0555
vn -0.0480 0.9975 0.0526
vn 0.1134 -0.7200 -0.6846
vn 0.0666 -0.7168 0.6941
vn 0.1706 -0.7798 -0.6024
vn 0.1320 -0.7798 0.6120
vn -0.0455 0.9975 -0.0539
vn -0.0489 0.9975 0.0509
vn 0.0078 0.9975 -0.0707
vn -0.0711 0.9975 0.0033
vn -0.1912 -0.8460 0.4977
vn 0.5465 -0.7798 -0.3053
vn -0.3394 -0.7798 0.5260
vn 0.0059 0.9975 -0.0703
vn 0.0555 0.9975 -0.0445
vn -0.0526 0.9975 -0.0480
vn 0.6024 -0.7798 0.1706
vn -0.6120 -0.7798 0.1320
vn 0.0707 0.9975 0.0078
vn -0.0017 0.9969 -0.0785
vn -0.0033 0.9975 -0.0711
vn 0.3053 -0.7798 0.5465
vn -0.5260 -0.7798 -0.3394
vn 0.0142 0.9980 -0.0622
vn 0.0446 0.9975 0.0556
vn 0.0480 0.9975 -0.0526
vn -0.2544 -0.8512 0.4591
vn 0.0445 0.9975 0.0555
vn -0.1706 -0.7798 0.6024
vn -0.1320 -0.7798 -0.6120
vn 0.0455 0.9975 0.0539
vn 0.0489 0.9975 -0.0509
vn -0.0078 0.9975 0.0707
vn 0.0711 0.9975 -0.0033
vn -0.5418 -0.7911 0.2839
vn 0.3178 -0.7911 -0.5227
vn -0.5465 -0.7798 0.3053
vn 0.3394 -0.7798 -0.5260
vn -0.0059 0.9975 0.0703
vn 0.0705 0.9975 -0.0014
vn -0.0555 0.9975 0.0445
vn 0.0526 0.9975 0.0480
vn -0.5959 -0.7838 -0.1747
vn 0.6047 -0.7845 -0.1373
vn -0.6024 -0.7798 -0.1706
vn 0.6120 -0.7798 -0.1320
vn -0.0539 0.9975 0.0455
vn 0.0509 0.9975 0.0489
vn 0.9316 0.0453 -0.3606
vn -0.9069 0.0453 -0.4190
vn -0.3450 0.0453 -0.9375
vn 0.9137 0.0453 0.4038
vn 0.9317 0.0451 -0.3603
vn -0.9070 0.0451 -0.4187
vn -0.3453 0.0451 -0.9374
vn 0.9136 0.0451 0.4041
vn 0.9318 0.0451 -0.3603
vn 0.4038 0.0453 -0.9137
vn -0.9375 0.0453 0.3450
vn 0.4041 0.0451 -0.9136
vn -0.9374 0.0451 0.3453
vn -0.3606 0.0453 -0.9316
vn -0.4190 0.0453 0.9069
vn -0.3603 0.0451 -0.9318
vn -0.4187 0.0451 0.9070
vn -0.3618 0.0446 -0.9312
vn 0.3450 0.0453 0.9375
vn -0.9136 0.0451 -0.4041
vn 0.3453 0.0451 0.9374
vn 0.3677 0.0993 0.9246
vn -0.9353 0.0398 0.3515
vn -0.9317 0.0451 0.3603
vn 0.9070 0.0451 0.4187
vn -0.9318 0.0451 0.3603
vn -0.4038 0.0453 0.9137
vn 0.9375 0.0453 -0.3450
vn -0.4041 0.0451 0.9136
vn 0.9374 0.0451 -0.3453
vn 0.3606 0.0453 0.9316
vn 0.4190 0.0453 -0.9069
vn 0.3603 0.0451 0.9318
vn 0.4187 0.0451 -0.9070
vn -0.3466 0.6094 0.7131
vn -0.0128 0.9993 -0.0339
vn 0.0149 0.9993 -0.0331
vn -0.0149 -0.9993 0.0331
vn 0.3029 0.0385 0.9523
vn 0.0454 0.9988 0.0161
vn -0.4477 0.0401 0.8933
vn 0.2440 0.8334 0.4959
vn -0.0705 0.9975 0.0014
vn -0.8841 0.2253 0.4093
vn -0.2676 -0.8108 0.5206
vn -0.6961 0.6455 -0.3144
vn 0.2139 -0.8108 -0.5449
vn -0.4067 -0.0160 0.9134
vn 0.4199 -0.0259 -0.9072
vn 0.2942 0.8952 0.3349
vn 0.3287 0.0002 -0.9444
vn 0.1163 0.8655 -0.4872
vt 0.276122 0.131650
vt 0.323611 0.186271
vt 0.274850 0.186271
vt 0.361813 0.117828
vt 0.434617 0.117828
vt 0.421260 0.131476
vt 0.165081 0.117976
vt 0.237886 0.117976
vt 0.178435 0.131641
vt 0.560386 0.237071
vt 0.607600 0.285502
vt 0.554599 0.285808
vt 0.425077 0.290225
vt 0.369814 0.344773
vt 0.371181 0.290225
vt 0.542245 -0.000000
vt 0.588766 -0.000000
vt 0.516490 0.237070
vt 0.618063 0.677120
vt 0.663156 0.674431
vt 0.676389 0.805325
vt 0.267450 0.504192
vt 0.331792 0.504192
vt 0.348860 0.635843
vt 0.373790 0.186024
vt 0.375157 0.131476
vt 0.597637 0.617237
vt 0.550777 0.672143
vt 0.552726 0.617496
vt 0.597637 0.458233
vt 0.556451 0.513106
vt 0.558400 0.458460
vt 0.597637 0.299230
vt 0.562125 0.354070
vt 0.564074 0.299423
vt 0.232409 0.449541
vt 0.223483 0.492106
vt 0.201567 0.466407
vt 0.228474 0.290591
vt 0.173250 0.345208
vt 0.174576 0.290591
vt 0.225891 0.186258
vt 0.177109 0.186258
vt 0.971646 0.316706
vt 0.925872 0.371704
vt 0.927776 0.317056
vt 0.971646 0.157709
vt 0.931414 0.212663
vt 0.933319 0.158015
vt 0.955282 0.000000
vt 0.971646 0.053346
vt 0.954302 0.053484
vt 0.755284 0.783985
vt 0.700040 0.838580
vt 0.701386 0.783985
vt 0.751407 0.625101
vt 0.703957 0.679695
vt 0.705303 0.625101
vt 0.896730 0.319270
vt 0.852392 0.372144
vt 0.852810 0.317582
vt 0.892398 0.160266
vt 0.853609 0.213353
vt 0.854027 0.158791
vt 0.855244 0.000000
vt 0.889555 0.055897
vt 0.854825 0.054562
vt 0.428895 0.448975
vt 0.365838 0.503523
vt 0.367204 0.448975
vt 0.262760 0.117984
vt 0.335534 0.117984
vt 0.330387 0.449572
vt 0.268721 0.449572
vt 0.326296 0.290611
vt 0.271150 0.345232
vt 0.272422 0.290611
vt 0.618427 0.622464
vt 0.657242 0.461148
vt 0.619121 0.518056
vt 0.619485 0.463400
vt 0.652840 0.302410
vt 0.620179 0.358992
vt 0.620543 0.304336
vt 0.597637 0.671873
vt 0.607600 0.803501
vt 0.543251 0.603881
vt 0.597637 0.512869
vt 0.607600 0.603510
vt 0.597637 0.353865
vt 0.607600 0.444506
vt 0.155375 0.502920
vt 0.169391 0.504158
vt 0.152509 0.635799
vt 0.229826 0.345208
vt 0.201563 0.449541
vt 0.241821 0.276926
vt 0.971646 0.371339
vt 0.981379 0.502941
vt 0.918521 0.303461
vt 0.971646 0.212342
vt 0.981379 0.302959
vt 0.981379 0.143962
vt 0.684120 0.929210
vt 0.756617 0.838580
vt 0.772514 0.929210
vt 0.688037 0.770326
vt 0.752739 0.679695
vt 0.768637 0.770326
vt 0.843171 0.303556
vt 0.893887 0.214901
vt 0.906101 0.305975
vt 0.901769 0.146970
vt 0.430207 0.503523
vt 0.447055 0.634999
vt 0.426389 0.344773
vt 0.442253 0.435327
vt 0.357837 0.276577
vt 0.422572 0.186024
vt 0.438435 0.276577
vt 0.658754 0.515692
vt 0.670852 0.605667
vt 0.609988 0.450297
vt 0.654352 0.356954
vt 0.666450 0.446929
vt 0.615203 0.237071
vt 0.639169 0.263223
vt 0.662049 0.288191
vt 0.611047 0.291233
vt 0.339624 0.276945
vt 0.255360 0.435905
vt 0.327702 0.345232
vt 0.343715 0.435906
vt 0.939482 0.024628
vt 0.936957 0.053623
vt 0.336534 0.635843
vt 0.347081 0.635843
vt 0.346260 0.768471
vt 0.180298 0.491361
vt 0.170717 0.449541
vt 0.233761 0.504158
vt 0.224786 0.635799
vt 0.322206 0.131650
vt 0.363001 0.070402
vt 0.364764 0.000000
vt 0.402345 0.049573
vt 0.224539 0.131641
vt 0.167946 0.000000
vt 0.234959 0.069323
vt 0.823712 0.625101
vt 0.823712 0.743217
vt 0.772514 0.692289
vt 0.684120 0.069436
vt 0.684120 0.167634
vt 0.614685 0.237070
vt 0.447055 0.167634
vt 0.447055 0.069436
vt 0.516490 -0.000000
vt 0.614685 0.000000
vt 0.607600 0.809428
vt 0.607600 0.676483
vt 0.772514 0.744098
vt 0.782779 0.743217
vt 0.782779 0.876214
vt 0.250705 0.635843
vt 0.253460 0.502956
vt 0.345832 0.502956
vt 0.181027 0.854134
vt 0.197413 0.853820
vt 0.197413 0.908496
vt 0.898218 0.373906
vt 0.888066 0.001262
vt 0.265507 0.000000
vt 0.332463 0.063979
vt 0.661644 0.619886
vt 0.536115 0.803913
vt 0.539987 0.670974
vt 0.823712 0.625955
vt 0.834205 0.625101
vt 0.834205 0.758097
vt 0.545661 0.511938
vt 0.120384 0.853820
vt 0.130907 0.854141
vt 0.120384 0.945512
vt 0.548925 0.444845
vt 0.551335 0.352901
vt 0.109856 0.853820
vt 0.120384 0.853820
vt 0.112650 0.945469
vt 0.178264 0.635799
vt 0.157363 0.435875
vt 0.159234 0.343970
vt 0.243851 0.343970
vt 0.245756 0.435875
vt 0.161222 0.276926
vt 0.163093 0.185020
vt 0.239916 0.185020
vt 0.911549 0.503499
vt 0.915303 0.370556
vt 0.325970 0.636612
vt 0.336534 0.635843
vt 0.336534 0.768827
vt 0.920845 0.211515
vt 0.250705 0.843202
vt 0.261289 0.843622
vt 0.250705 0.934979
vt 0.924063 0.144420
vt 0.926388 0.052475
vt 0.088769 0.853820
vt 0.081814 0.945524
vt 0.078178 0.853820
vt 0.759162 0.942870
vt 0.697469 0.942870
vt 0.686017 0.837335
vt 0.770636 0.837335
vt 0.689934 0.678450
vt 0.766758 0.678450
vt 0.106307 0.945522
vt 0.099309 0.853820
vt 0.109856 0.853820
vt 0.904475 0.214048
vt 0.844388 0.144765
vt 0.099309 0.945590
vt 0.088769 0.854228
vt 0.099309 0.853820
vt 0.900144 0.055044
vt 0.348860 0.634999
vt 0.351812 0.502266
vt 0.444222 0.502266
vt 0.353861 0.435327
vt 0.355788 0.343517
vt 0.440404 0.343517
vt 0.359764 0.184767
vt 0.436586 0.184767
vt 0.608930 0.609361
vt 0.608658 0.517419
vt 0.155737 0.853820
vt 0.166036 0.854063
vt 0.155737 0.945460
vt 0.609716 0.358355
vt 0.145438 0.853820
vt 0.155737 0.854063
vt 0.145438 0.945460
vt 0.259060 0.276945
vt 0.260860 0.185034
vt 0.337651 0.185034
vt 0.257160 0.343995
vt 0.341741 0.343995
vt 0.818565 0.585033
vt 0.835940 0.561121
vt 0.835940 0.614600
vt 0.911549 0.505966
vt 0.841641 0.503279
vt 0.250705 0.635799
vt 0.247786 0.502920
vt 0.773149 0.581251
vt 0.797450 0.561121
vt 0.797450 0.608664
vt 0.764794 0.131226
vt 0.764971 0.185745
vt 0.715630 0.184424
vt 0.522631 0.349901
vt 0.468766 0.368456
vt 0.455421 0.354818
vt 0.143701 0.118259
vt 0.130020 0.131622
vt 0.076251 0.119014
vt 0.079030 0.070066
vt 0.032548 0.118243
vt 0.464802 0.527098
vt 0.518700 0.527098
vt 0.520305 0.581558
vt 0.047792 0.808705
vt 0.187730 0.638810
vt 0.080675 0.841615
vt 0.823950 0.439182
vt 0.774543 0.558561
vt 0.777787 0.437314
vt 0.764328 0.503334
vt 0.684120 0.622717
vt 0.699383 0.501595
vt 0.514870 0.368456
vt 0.516474 0.422917
vt 0.019992 0.449219
vt 0.063944 0.449445
vt 0.062925 0.504001
vt 0.029128 0.290365
vt 0.067527 0.290562
vt 0.066501 0.345107
vt 0.038263 0.131511
vt 0.071109 0.131679
vt 0.070084 0.186224
vt 0.076751 0.449460
vt 0.107630 0.466270
vt 0.085771 0.491992
vt 0.080334 0.290578
vt 0.134231 0.290492
vt 0.135966 0.345031
vt 0.131755 0.186161
vt 0.082397 0.186239
vt 0.846304 0.823811
vt 0.889583 0.824923
vt 0.891261 0.879545
vt 0.847506 0.664890
vt 0.885318 0.665861
vt 0.886987 0.720471
vt 0.864614 0.507542
vt 0.865336 0.561132
vt 0.848092 0.560524
vt 0.360738 0.793620
vt 0.414613 0.793620
vt 0.416114 0.848074
vt 0.364999 0.634999
vt 0.411083 0.634999
vt 0.412584 0.689452
vt 0.916542 0.820820
vt 0.961417 0.822633
vt 0.963549 0.877200
vt 0.916643 0.662159
vt 0.955848 0.663744
vt 0.957972 0.718298
vt 0.950279 0.504854
vt 0.952403 0.559408
vt 0.916500 0.557957
vt 0.460838 0.685739
vt 0.522530 0.685739
vt 0.524145 0.740212
vt 0.772754 0.118190
vt 0.711410 0.116948
vt 0.702470 0.447152
vt 0.764140 0.448803
vt 0.710588 0.288572
vt 0.764467 0.290015
vt 0.764644 0.344533
vt 0.821833 0.384608
vt 0.777997 0.224147
vt 0.816295 0.225696
vt 0.818404 0.280258
vt 0.777997 0.065459
vt 0.810757 0.066785
vt 0.812866 0.121346
vt -0.000000 0.625367
vt 0.016640 0.503764
vt 0.069115 0.435884
vt 0.014309 0.435603
vt 0.025783 0.344898
vt 0.023444 0.276749
vt 0.034919 0.186044
vt 0.148188 0.502667
vt 0.152509 0.625552
vt 0.140188 0.503913
vt 0.107597 0.449411
vt 0.078815 0.345121
vt 0.072698 0.277002
vt 0.841641 1.000000
vt 0.845683 0.878375
vt 0.895608 0.811486
vt 0.841641 0.810101
vt 0.846892 0.719442
vt 0.842843 0.651179
vt 0.425754 0.938647
vt 0.348860 0.938647
vt 0.358986 0.848074
vt 0.422224 0.780026
vt 0.353121 0.780026
vt 0.363247 0.689452
vt 0.967506 0.809274
vt 0.911549 0.807012
vt 0.916400 0.716618
vt 0.911650 0.648352
vt 0.447055 0.861584
vt 0.459178 0.740212
vt 0.453220 0.672145
vt 0.463152 0.581558
vt 0.526317 0.513504
vt 0.457184 0.513504
vt 0.467116 0.422917
vt 0.773149 0.369033
vt 0.777794 0.278615
vt 0.822273 0.212332
vt 0.773149 0.210345
vt 0.777794 0.119928
vt 0.810397 -0.000000
vt 0.816778 0.054169
vt 0.773413 0.046701
vt 0.791042 0.021694
vt 0.703337 0.274780
vt 0.772120 0.435419
vt 0.695219 0.433360
vt 0.707512 0.343004
vt 0.879755 0.532681
vt 0.882725 0.561660
vt 0.683608 0.237070
vt 0.683608 0.360182
vt 0.676389 0.237679
vt 0.138442 0.449363
vt 0.128954 0.491179
vt 0.084826 0.621455
vt 0.075222 0.504016
vt 0.718707 0.129993
vt 0.487757 0.286610
vt 0.525384 0.237071
vt 0.524422 0.302345
vt 0.083917 0.131695
vt 0.141111 -0.000000
vt 0.039415 -0.000000
vt 0.187731 0.853820
vt 0.250705 0.790847
vt 0.250705 0.701787
vt 0.094122 0.635799
vt 0.033148 0.697157
vt 0.035695 0.790840
vt 0.098670 0.853817
vt 0.837825 0.561121
vt 0.831024 0.438175
vt 0.683498 0.360833
vt 0.676389 0.483365
vt 0.676389 0.360182
vt 0.773149 0.625101
vt 0.772350 0.502286
vt 0.691437 0.500120
vt 0.848677 0.505966
vt 0.916508 0.875338
vt 0.916743 0.503499
vt 0.713606 0.063028
vt 0.773149 -0.000000
vt 0.777997 0.382835
vt 0.063450 0.625693
vt 0.683477 0.606550
vt 0.676389 0.484017
vt 0.683477 0.483365
vt 0.009582 0.502499
vt 0.573382 0.895999
vt 0.566309 0.804814
vt 0.573382 0.803913
vt 0.018719 0.343597
vt 0.823199 0.905368
vt 0.816125 0.814184
vt 0.823199 0.813283
vt 0.027855 0.184742
vt 0.131347 0.621392
vt 0.146042 0.435763
vt 0.143975 0.343748
vt 0.070831 0.343864
vt 0.141830 0.276892
vt 0.139764 0.184878
vt 0.074414 0.184981
vt 0.909284 0.998464
vt 0.902175 0.878499
vt 0.683354 0.607158
vt 0.676389 0.729691
vt 0.676389 0.606550
vt 0.894024 0.719387
vt 0.514030 0.862439
vt 0.507079 0.953643
vt 0.507079 0.861584
vt 0.891342 0.652424
vt 0.889758 0.560324
vt 0.514030 0.861584
vt 0.520978 0.862444
vt 0.514030 0.953643
vt 0.356477 0.952242
vt 0.418142 0.952242
vt 0.424049 0.846756
vt 0.350935 0.846756
vt 0.420520 0.688134
vt 0.355197 0.688134
vt 0.965153 0.717256
vt 0.348038 0.839873
vt 0.340981 0.931070
vt 0.340981 0.839010
vt 0.961937 0.650384
vt 0.959584 0.558366
vt 0.683447 0.822639
vt 0.676389 0.913836
vt 0.676389 0.821776
vt 0.536115 0.861584
vt 0.532121 0.738933
vt 0.451180 0.738933
vt 0.530147 0.672145
vt 0.528290 0.580243
vt 0.455145 0.580243
vt 0.524460 0.421602
vt 0.459109 0.421602
vt 0.827811 0.371244
vt 0.825485 0.279215
vt 0.683482 0.730592
vt 0.676389 0.821776
vt 0.819947 0.120304
vt 0.841299 0.626001
vt 0.834205 0.717186
vt 0.834205 0.625101
vt 0.772447 0.276631
vt 0.773004 0.184661
vt 0.707676 0.182912
vt 0.772677 0.343450
vt 0.699558 0.341492
vt 0.213952 0.877600
vt 0.197413 0.907338
vt 0.197413 0.853820
vt 0.250705 0.772625
vt 0.250705 0.635843
vt 0.310966 0.741103
vt 0.911549 0.992801
vt 0.067248 0.502795
vt 0.818565 0.581231
vt 0.797450 0.608903
vt 0.797450 0.561121
vt 0.000020 0.675675
vt 0.000063 0.625702
vt 0.015073 0.625693
vt 0.015031 0.675666
vt 0.676389 0.943325
vt 0.578214 0.941198
vt 0.584188 0.928605
vt 0.670664 0.930754
vt 0.312274 0.824826
vt 0.310966 0.754282
vt 0.325883 0.755268
vt 0.325883 0.826342
vt 0.310163 0.772624
vt 0.310163 0.840028
vt 0.296407 0.834238
vt 0.296350 0.778412
vt 0.130907 0.917357
vt 0.130907 0.853820
vt 0.144766 0.854631
vt 0.145438 0.918832
vt 0.841641 0.370533
vt 0.832392 0.383802
vt 0.536202 0.817675
vt 0.536115 0.803913
vt 0.550032 0.804099
vt 0.551212 0.817695
vt 0.201864 0.940797
vt 0.201328 0.954841
vt 0.186342 0.954841
vt 0.188132 0.946808
vt 0.191198 0.931671
vt 0.181027 0.942683
vt 0.836102 0.211621
vt 0.826854 0.224890
vt 0.551299 0.817675
vt 0.551212 0.803913
vt 0.565129 0.804098
vt 0.566309 0.817695
vt 0.033148 0.931094
vt 0.032603 0.945137
vt 0.017615 0.945137
vt 0.019410 0.937096
vt 0.022488 0.921961
vt 0.012301 0.932960
vt 0.309357 0.947330
vt 0.296041 0.947330
vt 0.297026 0.932382
vt 0.304572 0.933215
vt 0.015160 0.808859
vt 0.015073 0.795098
vt 0.028973 0.796033
vt 0.030171 0.808879
vt 0.053994 0.931094
vt 0.053449 0.945137
vt 0.038462 0.945137
vt 0.040256 0.937096
vt 0.043335 0.921961
vt 0.033148 0.932960
vt 0.249820 0.917630
vt 0.249270 0.931671
vt 0.234278 0.931671
vt 0.236079 0.923632
vt 0.239152 0.908495
vt 0.228962 0.919494
vt 0.839031 0.762942
vt 0.838716 0.776355
vt 0.823712 0.776440
vt 0.825407 0.758097
vt 0.330420 0.922871
vt 0.325970 0.907263
vt 0.340222 0.907551
vt 0.340222 0.926941
vt 0.228962 0.917636
vt 0.228412 0.931677
vt 0.213420 0.931677
vt 0.215221 0.923638
vt 0.218294 0.908501
vt 0.208105 0.919500
vt 0.296350 0.772625
vt 0.296034 0.786038
vt 0.281030 0.786122
vt 0.282318 0.772721
vt 0.296041 0.925780
vt 0.296041 0.909550
vt 0.307062 0.917958
vt 0.304352 0.932382
vt 0.556963 0.936462
vt 0.556423 0.950504
vt 0.541432 0.950504
vt 0.543228 0.942473
vt 0.546289 0.927335
vt 0.536115 0.938348
vt 0.281030 0.772624
vt 0.280715 0.786038
vt 0.265710 0.786122
vt 0.266999 0.772721
vt 0.166036 0.931742
vt 0.166036 0.915513
vt 0.177058 0.923921
vt 0.174348 0.938344
vt 0.471235 0.916827
vt 0.481904 0.907692
vt 0.492094 0.918692
vt 0.484977 0.922829
vt 0.471785 0.930868
vt 0.486778 0.930868
vt 0.000034 0.757901
vt 0.000000 0.744328
vt 0.015011 0.744319
vt 0.015045 0.757892
vt 0.181027 0.917630
vt 0.191695 0.908495
vt 0.201885 0.919495
vt 0.194768 0.923632
vt 0.181577 0.931671
vt 0.196569 0.931671
vt 0.975622 0.649643
vt 0.966146 0.662901
vt 0.310872 0.839915
vt 0.310851 0.826342
vt 0.324735 0.826432
vt 0.325883 0.839920
vt 0.053994 0.931089
vt 0.064669 0.921961
vt 0.074844 0.932972
vt 0.067730 0.937099
vt 0.981191 0.808533
vt 0.971714 0.821791
vt 0.823733 0.844650
vt 0.823712 0.831077
vt 0.837595 0.831168
vt 0.838744 0.844655
vt 0.275193 0.918145
vt 0.285853 0.909011
vt 0.296041 0.920011
vt 0.288931 0.924146
vt 0.275739 0.932188
vt 0.290726 0.932188
vt 0.447055 0.925373
vt 0.457715 0.916240
vt 0.467902 0.927240
vt 0.460793 0.931375
vt 0.447600 0.939417
vt 0.462587 0.939417
vt 0.440667 0.804511
vt 0.440764 0.818284
vt 0.425754 0.818287
vt 0.426836 0.804686
vt 0.264151 0.925122
vt 0.264151 0.909011
vt 0.275193 0.917473
vt 0.272490 0.931838
vt 0.130907 0.918927
vt 0.144681 0.918832
vt 0.144681 0.933842
vt 0.131079 0.932758
vt 0.333652 0.782988
vt 0.325970 0.768827
vt 0.339711 0.770999
vt 0.344185 0.784915
vt 0.228962 0.945695
vt 0.229495 0.931671
vt 0.244484 0.931671
vt 0.242695 0.939694
vt 0.239631 0.954839
vt 0.249797 0.943856
vt 0.425754 0.937067
vt 0.436408 0.927932
vt 0.446589 0.938931
vt 0.439487 0.943068
vt 0.426291 0.951108
vt 0.441274 0.951108
vt 0.905248 0.651964
vt 0.896014 0.665392
vt 0.265710 0.854233
vt 0.265799 0.840771
vt 0.279634 0.840811
vt 0.280721 0.854234
vt 0.787287 0.623635
vt 0.773236 0.623650
vt 0.773149 0.608663
vt 0.787834 0.608663
vt 0.909514 0.811026
vt 0.900280 0.824454
vt 0.492094 0.930506
vt 0.505556 0.930595
vt 0.505517 0.944430
vt 0.492094 0.945517
vt 0.782779 0.945599
vt 0.793432 0.936461
vt 0.803605 0.947461
vt 0.796507 0.951601
vt 0.783308 0.959634
vt 0.798288 0.959634
vt 0.797806 0.609706
vt 0.811246 0.608903
vt 0.811246 0.623887
vt 0.797450 0.624664
vt 0.250705 0.944117
vt 0.261359 0.934979
vt 0.271534 0.945977
vt 0.264434 0.950119
vt 0.251234 0.958152
vt 0.266214 0.958152
vt 0.296002 0.840759
vt 0.296041 0.854336
vt 0.281030 0.854336
vt 0.282146 0.840847
vt 0.808559 0.757308
vt 0.801064 0.743217
vt 0.814946 0.745347
vt 0.819350 0.759223
vt 0.704940 0.952001
vt 0.715600 0.942870
vt 0.725759 0.953881
vt 0.718661 0.958011
vt 0.705459 0.966036
vt 0.720438 0.966036
vt 0.340942 0.839010
vt 0.340981 0.852587
vt 0.325970 0.852587
vt 0.327086 0.839098
vt 0.790273 0.757308
vt 0.782779 0.743217
vt 0.796660 0.745347
vt 0.801064 0.759223
vt 0.208105 0.945711
vt 0.208633 0.931677
vt 0.223614 0.931677
vt 0.221833 0.939709
vt 0.218759 0.954850
vt 0.228934 0.943852
vt 0.534420 0.945902
vt 0.520978 0.945902
vt 0.521945 0.930953
vt 0.529615 0.931806
vt 0.033154 0.867279
vt 0.033577 0.853820
vt 0.047242 0.854760
vt 0.048158 0.867284
vt 0.275193 0.946222
vt 0.275722 0.932188
vt 0.290702 0.932188
vt 0.288922 0.940220
vt 0.285847 0.955361
vt 0.296022 0.944363
vt 0.503160 0.907694
vt 0.503160 0.923897
vt 0.494789 0.930506
vt 0.492094 0.916090
vt 0.048164 0.867279
vt 0.048587 0.853820
vt 0.062277 0.853862
vt 0.063168 0.867284
vt 0.684120 0.956904
vt 0.684639 0.942870
vt 0.699619 0.942870
vt 0.697842 0.950894
vt 0.694780 0.966036
vt 0.704940 0.955025
vt 0.532044 0.908141
vt 0.532044 0.924344
vt 0.523673 0.930953
vt 0.520978 0.916536
vt 0.063174 0.867279
vt 0.063597 0.853820
vt 0.077287 0.853862
vt 0.078178 0.867284
vt 0.492069 0.940003
vt 0.491533 0.954044
vt 0.476551 0.954044
vt 0.478337 0.946005
vt 0.481416 0.930868
vt 0.471235 0.941867
vt 0.015061 0.812577
vt 0.015011 0.826030
vt -0.000000 0.826043
vt 0.001174 0.812974
vt 0.027746 0.130712
vt 0.018782 0.117005
vt 0.348038 0.940205
vt 0.347502 0.954245
vt 0.332520 0.954245
vt 0.334306 0.946207
vt 0.337384 0.931070
vt 0.327204 0.942069
vt 0.797840 0.813295
vt 0.797789 0.826748
vt 0.782779 0.826761
vt 0.783941 0.813342
vt 0.018611 0.289566
vt 0.009646 0.275859
vt 0.467879 0.948545
vt 0.467353 0.962585
vt 0.452371 0.962585
vt 0.454154 0.954555
vt 0.457220 0.939417
vt 0.447055 0.950429
vt 0.816125 0.813283
vt 0.816075 0.826736
vt 0.801064 0.826749
vt 0.802227 0.813330
vt 0.009476 0.448420
vt 0.000511 0.434713
vt 0.006337 0.503004
vt 0.816125 0.881418
vt 0.801119 0.881398
vt 0.026198 0.863517
vt 0.026198 0.918155
vt 0.015073 0.918531
vt 0.015276 0.863932
vt 0.536115 0.872332
vt 0.551120 0.872312
vt 0.015472 0.344150
vt 0.797840 0.881429
vt 0.782833 0.881397
vt 0.562330 0.872332
vt 0.562330 0.926971
vt 0.551212 0.927335
vt 0.551409 0.872748
vt 0.551212 0.872332
vt 0.566217 0.872300
vt 0.024607 0.185296
vt 0.015061 0.880712
vt 0.000055 0.880680
vt 0.547233 0.872332
vt 0.547233 0.926971
vt 0.536115 0.927335
vt 0.536311 0.872748
vt 0.015073 0.863517
vt 0.030079 0.863484
vt 0.063168 0.921960
vt 0.078178 0.921932
vt 0.010877 0.880712
vt 0.010877 0.935346
vt -0.000000 0.935755
vt 0.000208 0.881162
vt 0.048158 0.921960
vt 0.063168 0.921920
vt 0.793649 0.881429
vt 0.793649 0.936063
vt 0.782779 0.936460
vt 0.782980 0.881879
vt 0.033148 0.921960
vt 0.048158 0.921920
vt 0.811935 0.881418
vt 0.811935 0.936051
vt 0.801064 0.936449
vt 0.801266 0.881868
vt 0.782779 0.811429
vt 0.793367 0.813295
vt 0.340979 0.907263
vt 0.325970 0.907226
vt 0.801064 0.811429
vt 0.811662 0.813283
vt 0.296038 0.909012
vt 0.281030 0.908963
vt 0.425926 0.927578
vt 0.425754 0.872940
vt 0.436676 0.873325
vt 0.436676 0.927932
vt 0.243973 0.853820
vt 0.243973 0.908495
vt 0.228964 0.908448
vt 0.228962 0.853820
vt 0.834508 0.899326
vt 0.834508 0.953936
vt 0.823712 0.954442
vt 0.823922 0.899874
vt 0.265710 0.908915
vt 0.280720 0.908869
vt 0.823199 0.905368
vt 0.823199 0.959979
vt 0.812408 0.960473
vt 0.812612 0.905916
vt 0.213952 0.908501
vt 0.213952 0.853820
vt 0.228962 0.853820
vt 0.228962 0.908456
vt 0.890913 0.531980
vt 0.893214 0.560986
vt 0.325970 0.837084
vt 0.336503 0.839010
vt 0.310851 0.949202
vt 0.310851 0.894591
vt 0.321489 0.895135
vt 0.321691 0.949692
vt 0.440763 0.872940
vt 0.425754 0.872891
vt 0.562542 0.950610
vt 0.562542 0.895999
vt 0.573180 0.896543
vt 0.573382 0.951100
vt 0.462065 0.861584
vt 0.462064 0.916240
vt 0.447055 0.916191
vt 0.447055 0.861587
vt 0.823712 0.899326
vt 0.838719 0.899295
vt 0.841641 0.372723
vt 0.842269 0.318207
vt 0.310851 0.894591
vt 0.325859 0.894548
vt 0.842864 0.213920
vt 0.843486 0.159416
vt 0.000066 0.812577
vt 0.015073 0.812520
vt 0.844081 0.055129
vt 0.844703 0.000625
vt 0.672355 0.620281
vt 0.674074 0.674774
vt 0.281030 0.840720
vt 0.266037 0.840771
vt 0.667953 0.461543
vt 0.669665 0.516025
vt 0.296350 0.840720
vt 0.281356 0.840759
vt 0.663551 0.302804
vt 0.665263 0.357286
vt 0.839031 0.831037
vt 0.824038 0.831077
vt 0.477104 0.907688
vt 0.477104 0.861584
vt 0.492094 0.861589
vt 0.492094 0.907692
vt 0.492094 0.907687
vt 0.492094 0.861584
vt 0.507079 0.861591
vt 0.507079 0.907694
vt 0.181027 0.853820
vt 0.181027 0.915513
vt 0.166036 0.915513
vt 0.166036 0.853820
vt 0.676389 0.810461
vt 0.665162 0.810908
vt 0.462065 0.907538
vt 0.462130 0.884493
vt 0.477104 0.884874
vt 0.477044 0.907634
vt 0.325953 0.635855
vt 0.325970 0.753958
vt 0.310966 0.754282
vt 0.310966 0.635843
vt 0.462065 0.861584
vt 0.477009 0.862317
vt 0.054535 0.945129
vt 0.069526 0.945129
vt 0.574658 0.809428
vt 0.585259 0.810464
vt 0.030084 0.625730
vt 0.030084 0.651287
vt 0.015073 0.651250
vt 0.015073 0.625693
vt 0.534422 0.861584
vt 0.534412 0.908106
vt 0.520978 0.908141
vt 0.520978 0.861619
vt 0.425754 0.660043
vt 0.425754 0.635406
vt 0.440752 0.634999
vt 0.440752 0.659636
vt 0.029736 0.795098
vt 0.023673 0.781366
vt 0.429538 0.804511
vt 0.435284 0.790643
vt 0.310639 0.873782
vt 0.310639 0.909550
vt 0.297170 0.903106
vt 0.296041 0.875083
vt 0.265710 0.772627
vt 0.265710 0.843202
vt 0.251291 0.838104
vt 0.250705 0.772625
vt 0.308187 0.840759
vt 0.296851 0.850324
s 0
usemtl tower
f 139/1/1 30/2/1 137/3/1
f 38/4/2 56/5/2 55/6/2
f 105/7/3 123/8/3 103/9/3
f 12/10/4 141/11/4 123/12/4
f 61/13/2 40/14/2 42/15/2
f 160/16/5 161/17/5 5/18/5
f 19/19/6 45/20/6 3/21/6
f 149/22/1 18/23/1 1/24/1
f 55/6/2 34/25/2 36/26/2
f 152/27/7 131/28/7 133/29/7
f 146/30/7 125/31/7 127/32/7
f 140/33/7 119/34/7 121/35/7
f 134/36/3 159/37/3 158/38/3
f 128/39/3 107/40/3 109/41/3
f 103/9/3 118/42/3 101/43/3
f 116/44/8 95/45/8 97/46/8
f 110/47/8 90/48/8 92/49/8
f 154/50/9 100/51/9 155/52/9
f 93/53/10 75/54/10 77/55/10
f 88/56/10 70/57/10 72/58/10
f 82/59/11 64/60/11 66/61/11
f 78/62/11 58/63/11 60/64/11
f 54/65/11 69/66/11 52/67/11
f 67/68/2 46/69/2 48/70/2
f 141/71/1 29/72/1 139/1/1
f 16/73/1 149/22/1 151/74/1
f 22/75/1 143/76/1 145/77/1
f 15/78/6 45/20/6 19/19/6
f 43/79/6 25/80/6 21/81/6
f 37/82/6 31/83/6 27/84/6
f 131/28/7 148/85/7 13/86/7
f 135/87/7 142/88/7 153/89/7
f 119/34/7 136/90/7 147/91/7
f 114/92/12 113/93/12 9/94/12
f 107/40/3 124/95/3 157/96/3
f 101/43/3 118/42/3 129/97/3
f 95/45/8 112/98/8 9/99/8
f 99/100/8 106/101/8 117/102/8
f 100/51/8 111/103/8 155/52/8
f 83/104/10 89/105/10 99/106/10
f 79/107/10 84/108/10 94/109/10
f 68/110/11 74/111/11 83/112/11
f 52/67/11 69/66/11 79/113/11
f 46/69/2 63/114/2 5/115/2
f 40/14/2 57/116/2 68/117/2
f 44/118/2 51/119/2 62/120/2
f 25/80/6 39/121/6 50/122/6
f 23/123/6 33/124/6 44/125/6
f 2/126/13 163/127/13 38/128/13 29/129/13
f 137/3/1 30/2/1 23/130/1
f 153/131/1 24/132/1 17/133/1
f 87/134/14 155/52/14 85/135/14
f 65/136/15 64/137/15 5/138/15
f 158/38/3 162/139/3 115/140/3
f 159/37/3 130/141/3 161/142/3
f 139/1/1 28/143/1 30/2/1
f 55/6/2 36/26/2 38/4/2
f 38/4/2 164/144/2 4/145/2 6/146/2
f 6/146/2 56/5/2 38/4/2
f 122/147/3 103/9/3 123/8/3
f 105/7/16 10/148/16 12/149/16
f 12/149/17 123/8/17 105/7/17
f 140/33/7 121/35/7 123/12/7
f 123/12/7 141/11/7 140/33/7
f 14/150/18 141/151/18 12/152/18
f 61/13/2 57/116/2 40/14/2
f 13/153/5 1/154/5 161/17/5
f 3/155/5 5/18/5 161/17/5
f 7/156/5 8/157/5 160/16/5
f 9/158/5 160/16/5 8/157/5
f 161/17/5 11/159/5 13/153/5
f 1/154/5 3/155/5 161/17/5
f 7/156/5 160/16/5 5/18/5
f 3/21/6 1/160/6 19/19/6
f 1/160/19 20/161/19 19/19/19
f 45/162/20 47/163/20 3/164/20
f 1/24/1 13/165/1 149/22/1
f 13/165/21 150/166/21 149/22/21
f 18/23/22 20/167/22 1/24/22
f 55/6/2 51/119/2 34/25/2
f 152/27/7 148/85/7 131/28/7
f 146/30/7 142/88/7 125/31/7
f 140/33/7 136/90/7 119/34/7
f 158/38/3 157/96/3 134/36/3
f 134/36/3 130/141/3 159/37/3
f 128/39/3 124/95/3 107/40/3
f 103/9/3 122/147/3 118/42/3
f 116/44/8 112/98/8 95/45/8
f 110/47/8 106/101/8 90/48/8
f 154/168/23 104/169/23 100/170/23
f 93/53/10 89/105/10 75/54/10
f 88/56/10 84/108/10 70/57/10
f 82/59/11 80/171/11 64/60/11
f 78/62/11 74/111/11 58/63/11
f 54/65/11 73/172/11 69/66/11
f 67/68/2 63/114/2 46/69/2
f 28/143/1 139/1/1 29/72/1
f 141/71/24 14/173/24 2/174/24
f 2/174/25 29/72/25 141/71/25
f 16/73/1 18/23/1 149/22/1
f 22/75/1 24/132/1 143/76/1
f 15/78/6 49/175/6 45/20/6
f 43/79/6 39/121/6 25/80/6
f 37/82/6 33/124/6 31/83/6
f 13/86/7 11/176/7 131/28/7
f 11/176/26 132/177/26 131/28/26
f 148/178/27 150/179/27 13/180/27
f 152/27/7 133/29/7 135/87/7
f 135/87/28 126/181/28 125/31/28
f 142/182/29 144/183/29 153/184/29
f 135/87/7 125/31/7 142/88/7
f 153/89/7 152/27/7 135/87/7
f 146/30/7 127/32/7 129/185/7
f 129/185/28 120/186/28 119/34/28
f 136/187/29 138/188/29 147/189/29
f 129/185/7 119/34/7 147/91/7
f 147/91/7 146/30/7 129/185/7
f 160/190/3 9/94/3 113/93/3
f 113/93/3 162/139/3 160/190/3
f 157/96/3 115/140/3 117/191/3
f 117/191/30 108/192/30 107/40/30
f 124/95/31 126/193/31 135/194/31
f 117/191/3 107/40/3 157/96/3
f 134/36/3 157/96/3 135/194/3
f 124/95/3 135/194/3 157/96/3
f 128/39/3 109/41/3 111/195/3
f 111/195/30 102/196/30 101/43/30
f 118/42/31 120/197/31 129/97/31
f 111/195/3 101/43/3 129/97/3
f 129/97/3 128/39/3 111/195/3
f 9/99/8 8/198/8 95/45/8
f 8/198/32 96/199/32 95/45/32
f 112/200/33 114/201/33 9/202/33
f 116/44/8 97/46/8 117/102/8
f 99/100/34 91/203/34 90/48/34
f 106/204/35 108/205/35 117/206/35
f 99/100/8 90/48/8 106/101/8
f 117/102/8 97/46/8 99/100/8
f 110/47/8 92/49/8 94/207/8
f 94/207/34 86/208/34 85/135/34
f 85/135/8 155/52/8 94/207/8
f 110/47/8 94/207/8 111/103/8
f 102/209/35 111/210/35 100/211/35
f 94/207/8 155/52/8 111/103/8
f 98/212/10 81/213/10 83/104/10
f 83/104/36 76/214/36 75/54/36
f 89/105/37 91/215/37 99/106/37
f 83/104/10 75/54/10 89/105/10
f 99/106/10 98/212/10 83/104/10
f 93/53/10 77/55/10 79/107/10
f 79/107/36 71/216/36 70/57/36
f 84/108/37 86/217/37 94/109/37
f 79/107/10 70/57/10 84/108/10
f 94/109/10 93/53/10 79/107/10
f 82/59/11 66/61/11 68/110/11
f 68/218/38 59/219/38 58/220/38
f 74/111/39 76/221/39 83/112/39
f 68/110/11 58/63/11 74/111/11
f 83/112/11 82/59/11 68/110/11
f 78/62/11 60/64/11 62/222/11
f 62/223/38 53/224/38 52/225/38
f 69/66/39 71/226/39 79/113/39
f 62/222/11 52/67/11 79/113/11
f 79/113/11 78/62/11 62/222/11
f 5/115/2 3/227/2 46/69/2
f 3/227/40 47/228/40 46/69/40
f 63/114/41 65/229/41 5/115/41
f 67/68/2 48/70/2 50/230/2
f 50/230/42 41/231/42 40/14/42
f 57/116/43 59/232/43 68/117/43
f 50/230/2 40/14/2 68/117/2
f 68/117/2 67/68/2 50/230/2
f 61/13/2 42/15/2 44/118/2
f 44/118/42 35/233/42 34/25/42
f 51/119/43 53/234/43 62/120/43
f 44/118/2 34/25/2 51/119/2
f 62/120/2 61/13/2 44/118/2
f 49/175/6 15/78/6 50/122/6
f 17/235/44 26/236/44 25/80/44
f 39/237/45 41/238/45 50/239/45
f 17/235/6 25/80/6 50/122/6
f 50/122/6 15/78/6 17/235/6
f 43/79/6 21/81/6 44/125/6
f 23/123/44 32/240/44 31/83/44
f 33/241/45 35/242/45 44/243/45
f 23/123/6 31/83/6 33/124/6
f 44/125/6 21/81/6 23/123/6
f 37/82/6 27/84/6 29/129/6
f 29/129/6 38/128/6 37/82/6
f 22/75/1 145/77/1 147/244/1
f 147/244/46 138/245/46 137/3/46
f 30/2/47 32/246/47 23/130/47
f 147/244/1 137/3/1 23/130/1
f 23/130/1 22/75/1 147/244/1
f 16/73/1 151/74/1 153/131/1
f 153/131/46 144/247/46 143/76/46
f 24/132/47 26/248/47 17/133/47
f 153/131/1 143/76/1 24/132/1
f 17/133/1 16/73/1 153/131/1
f 87/249/48 154/250/48 155/251/48
f 7/252/11 5/253/11 64/60/11
f 64/60/11 80/171/11 7/252/11
f 113/93/3 115/140/3 162/139/3
f 157/96/3 158/38/3 115/140/3
f 11/254/3 161/142/3 130/141/3
f 130/141/49 132/255/49 11/254/49
f 163/256/50 164/257/50 38/258/50
f 303/259/51 301/260/51 194/261/51
f 202/262/52 219/263/52 220/264/52
f 269/265/53 267/266/53 287/267/53
f 176/268/54 287/267/54 305/269/54
f 225/270/55 206/271/55 204/272/55
f 324/273/56 169/274/56 325/275/56
f 183/276/57 167/277/57 209/278/57
f 313/279/58 165/280/58 182/281/58
f 219/263/55 200/282/55 198/283/55
f 316/284/59 297/285/59 295/286/59
f 310/287/60 291/288/60 289/289/60
f 304/290/60 285/291/60 283/292/60
f 298/293/61 322/294/61 323/295/61
f 292/296/62 273/297/62 271/298/62
f 267/266/62 265/299/62 282/300/62
f 280/301/63 261/302/63 259/303/63
f 274/304/64 256/305/64 254/306/64
f 318/307/65 319/308/65 264/309/65
f 257/310/66 241/311/66 239/312/66
f 252/313/66 236/314/66 234/315/66
f 246/316/67 230/317/67 228/318/67
f 242/319/68 224/320/68 222/321/68
f 218/322/68 216/323/68 233/324/68
f 231/325/55 212/326/55 210/327/55
f 305/328/69 303/259/69 193/329/69
f 180/330/51 315/331/51 313/279/51
f 186/332/51 309/333/51 307/334/51
f 179/335/70 183/276/70 209/278/70
f 207/336/71 185/337/71 189/338/71
f 201/339/71 191/340/71 195/341/71
f 295/286/72 177/342/72 312/343/72
f 299/344/73 317/345/73 306/346/73
f 283/292/73 311/347/73 300/348/73
f 278/349/74 173/350/74 277/351/74
f 271/298/75 321/352/75 288/353/75
f 265/299/76 293/354/76 282/300/76
f 259/303/77 173/355/77 276/356/77
f 263/357/78 281/358/78 270/359/78
f 264/309/79 319/308/79 275/360/79
f 247/361/80 263/362/80 253/363/80
f 243/364/80 258/365/80 248/366/80
f 232/367/81 247/368/81 238/369/81
f 216/323/81 243/370/81 233/324/81
f 210/327/82 169/371/82 227/372/82
f 204/272/83 232/373/83 221/374/83
f 208/375/83 226/376/83 215/377/83
f 189/338/84 214/378/84 203/379/84
f 187/380/84 208/381/84 197/382/84
f 166/383/85 193/384/85 202/385/85 327/386/85
f 301/260/86 187/387/86 194/261/86
f 317/388/86 181/389/86 188/390/86
f 251/391/87 249/392/87 319/308/87
f 229/393/88 169/394/88 228/395/88
f 322/294/61 279/396/61 326/397/61
f 323/295/89 325/398/89 294/399/89
f 303/259/90 194/261/90 192/400/90
f 219/263/91 202/262/91 200/282/91
f 202/262/92 170/401/92 168/402/92 328/403/92
f 170/401/93 202/262/93 220/264/93
f 286/404/94 287/267/94 267/266/94
f 269/265/95 176/268/95 174/405/95
f 176/268/96 269/265/96 287/267/96
f 304/290/97 287/267/97 285/291/97
f 287/267/98 304/290/98 305/269/98
f 178/406/99 176/268/99 305/269/99
f 225/270/100 204/272/100 221/374/100
f 177/407/101 325/275/101 165/408/101
f 167/409/102 325/275/102 169/274/102
f 171/410/103 324/273/103 172/411/103
f 173/412/104 172/411/104 324/273/104
f 325/275/105 177/407/105 175/413/105
f 165/408/106 325/275/106 167/409/106
f 171/410/107 169/274/107 324/273/107
f 167/277/57 183/276/57 165/414/57
f 165/414/108 183/276/108 184/415/108
f 209/416/109 167/417/109 211/418/109
f 165/280/58 313/279/58 177/419/58
f 177/419/110 313/279/110 314/420/110
f 182/281/111 165/280/111 184/421/111
f 219/263/100 198/283/100 215/377/100
f 316/284/59 295/286/59 312/343/59
f 310/287/59 289/289/59 306/346/59
f 304/290/59 283/292/59 300/348/59
f 322/294/61 298/293/61 321/352/61
f 298/293/112 323/295/112 294/399/112
f 292/296/61 271/298/61 288/353/61
f 267/266/61 282/300/61 286/404/61
f 280/301/63 259/303/63 276/356/63
f 274/304/63 254/306/63 270/359/63
f 318/307/113 264/309/113 268/422/113
f 257/310/114 239/312/114 253/363/114
f 252/313/114 234/315/114 248/366/114
f 246/316/68 228/318/68 244/423/68
f 242/319/67 222/321/67 238/369/67
f 218/322/67 233/324/67 237/424/67
f 231/325/55 210/327/55 227/372/55
f 192/400/115 193/329/115 303/259/115
f 305/328/116 166/425/116 178/426/116
f 166/425/117 305/328/117 193/329/117
f 180/330/51 313/279/51 182/281/51
f 186/332/90 307/334/90 188/390/90
f 179/335/70 209/278/70 213/427/70
f 207/336/70 189/338/70 203/379/70
f 201/339/70 195/341/70 197/382/70
f 177/342/72 295/286/72 175/428/72
f 175/429/118 295/430/118 296/431/118
f 312/343/119 177/342/119 314/432/119
f 316/284/120 299/344/120 297/285/120
f 299/433/121 289/434/121 290/435/121
f 306/346/122 317/345/122 308/436/122
f 299/344/73 306/346/73 289/289/73
f 317/345/120 299/344/120 316/284/120
f 310/287/120 293/354/120 291/288/120
f 293/437/121 283/438/121 284/439/121
f 300/348/122 311/347/122 302/440/122
f 293/354/73 311/347/73 283/292/73
f 311/347/120 293/354/120 310/287/120
f 324/441/123 277/351/123 173/350/123
f 277/351/124 324/441/124 326/397/124
f 321/352/125 281/442/125 279/396/125
f 281/442/126 271/298/126 272/443/126
f 288/353/127 299/344/127 290/444/127
f 281/442/128 321/352/128 271/298/128
f 298/293/125 299/344/125 321/352/125
f 288/353/129 321/352/129 299/344/129
f 292/296/125 275/445/125 273/297/125
f 275/445/126 265/299/126 266/446/126
f 282/300/127 293/354/127 284/447/127
f 275/445/76 293/354/76 265/299/76
f 293/354/125 275/445/125 292/296/125
f 173/355/130 259/303/130 172/448/130
f 172/448/131 259/303/131 260/449/131
f 276/450/132 173/451/132 278/452/132
f 280/301/133 281/358/133 261/302/133
f 263/357/134 254/306/134 255/453/134
f 270/454/135 281/455/135 272/456/135
f 263/357/78 270/359/78 254/306/78
f 281/358/133 263/357/133 261/302/133
f 274/304/133 258/457/133 256/305/133
f 258/457/136 249/392/136 250/458/136
f 249/392/137 258/457/137 319/308/137
f 274/304/133 275/360/133 258/457/133
f 266/459/138 264/460/138 275/461/138
f 258/457/139 275/360/139 319/308/139
f 262/462/140 247/361/140 245/463/140
f 247/361/141 239/312/141 240/464/141
f 253/363/142 263/362/142 255/465/142
f 247/361/80 253/363/80 239/312/80
f 263/362/140 247/361/140 262/462/140
f 257/310/140 243/364/140 241/311/140
f 243/364/141 234/315/141 235/466/141
f 248/366/142 258/365/142 250/467/142
f 243/364/80 248/366/80 234/315/80
f 258/365/140 243/364/140 257/310/140
f 246/316/143 232/367/143 230/317/143
f 232/367/144 222/321/144 223/468/144
f 238/469/145 247/470/145 240/471/145
f 232/367/81 238/369/81 222/321/81
f 247/368/143 232/367/143 246/316/143
f 242/319/143 226/472/143 224/320/143
f 226/472/144 216/323/144 217/473/144
f 233/474/145 243/475/145 235/476/145
f 226/472/81 243/370/81 216/323/81
f 243/370/143 226/472/143 242/319/143
f 169/371/82 210/327/82 167/477/82
f 167/477/146 210/327/146 211/478/146
f 227/372/147 169/371/147 229/479/147
f 231/325/148 214/480/148 212/326/148
f 214/480/149 204/272/149 205/481/149
f 221/374/150 232/373/150 223/482/150
f 214/480/83 232/373/83 204/272/83
f 232/373/148 214/480/148 231/325/148
f 225/270/148 208/375/148 206/271/148
f 208/375/149 198/283/149 199/483/149
f 215/377/150 226/376/150 217/484/150
f 208/375/83 215/377/83 198/283/83
f 226/376/148 208/375/148 225/270/148
f 213/427/151 214/378/151 179/335/151
f 181/485/152 189/338/152 190/486/152
f 203/487/153 214/488/153 205/451/153
f 181/485/84 214/378/84 189/338/84
f 214/378/151 181/485/151 179/335/151
f 207/336/151 208/381/151 185/337/151
f 187/380/152 195/341/152 196/489/152
f 197/490/153 208/491/153 199/492/153
f 187/380/84 197/382/84 195/341/84
f 208/381/151 187/380/151 185/337/151
f 201/339/154 193/384/154 191/340/154
f 193/384/155 201/339/155 202/385/155
f 186/332/156 311/493/156 309/333/156
f 311/493/157 301/260/157 302/494/157
f 194/261/158 187/387/158 196/495/158
f 311/493/86 187/387/86 301/260/86
f 187/387/156 311/493/156 186/332/156
f 180/330/156 317/388/156 315/331/156
f 317/388/157 307/334/157 308/496/157
f 188/390/158 181/389/158 190/497/158
f 317/388/86 188/390/86 307/334/86
f 181/389/156 317/388/156 180/330/156
f 251/498/159 319/499/159 318/500/159
f 171/501/160 228/502/160 169/503/160
f 228/318/161 171/504/161 244/423/161
f 277/351/162 326/397/162 279/396/162
f 321/352/61 279/396/61 322/294/61
f 175/428/163 294/399/163 325/398/163
f 294/399/164 175/428/164 296/505/164
f 327/506/165 202/507/165 328/508/165
f 6/509/166 4/510/166 168/511/166 170/512/166
f 8/513/167 7/514/167 171/515/167 172/516/167
f 12/517/168 10/518/168 174/519/168 176/520/168
f 14/521/169 12/522/169 176/523/169 178/524/169
f 2/525/170 14/526/170 178/527/170 166/528/170
f 17/529/171 15/530/171 179/335/171 181/485/171
f 16/531/172 17/532/172 181/533/172 180/534/172
f 20/535/173 18/536/173 182/537/173 184/538/173
f 19/539/174 20/535/174 184/538/174 183/540/174
f 23/541/171 21/542/171 185/337/171 187/380/171
f 22/543/172 23/544/172 187/545/172 186/546/172
f 26/547/175 24/548/175 188/549/175 190/550/175
f 25/551/176 26/547/176 190/550/176 189/552/176
f 29/553/177 27/554/177 191/555/177 193/556/177
f 28/557/178 29/558/178 193/559/178 192/560/178
f 32/561/175 30/562/175 194/563/175 196/564/175
f 31/565/176 32/561/176 196/564/176 195/566/176
f 35/567/179 33/568/179 197/569/179 199/570/179
f 34/571/180 35/567/180 199/570/180 198/572/180
f 38/573/181 36/574/181 200/575/181 202/576/181
f 37/577/182 38/578/182 202/579/182 201/580/182
f 41/581/179 39/582/179 203/583/179 205/584/179
f 40/585/180 41/581/180 205/584/180 204/586/180
f 44/587/183 42/588/183 206/589/183 208/590/183
f 43/591/184 44/592/184 208/593/184 207/594/184
f 47/595/185 45/596/185 209/597/185 211/598/185
f 46/599/186 47/595/186 211/598/186 210/600/186
f 50/601/183 48/602/183 212/603/183 214/604/183
f 49/605/184 50/606/184 214/607/184 213/608/184
f 53/609/187 51/610/187 215/611/187 217/612/187
f 52/613/188 53/609/188 217/612/188 216/614/188
f 55/615/189 56/616/189 220/617/189 219/618/189
f 59/619/187 57/620/187 221/621/187 223/622/187
f 58/623/188 59/619/188 223/622/188 222/624/188
f 62/625/190 60/626/190 224/320/190 226/472/190
f 61/627/191 62/628/191 226/629/191 225/630/191
f 65/631/192 63/632/192 227/633/192 229/634/192
f 68/635/190 66/636/190 230/317/190 232/367/190
f 67/637/191 68/638/191 232/639/191 231/640/191
f 71/641/193 69/642/193 233/643/193 235/644/193
f 70/645/194 71/641/194 235/644/194 234/646/194
f 76/647/193 74/648/193 238/649/193 240/650/193
f 75/651/194 76/647/194 240/650/194 239/652/194
f 79/653/195 77/654/195 241/655/195 243/656/195
f 78/657/196 79/658/196 243/659/196 242/660/196
f 83/661/195 81/662/195 245/663/195 247/664/195
f 82/665/196 83/666/196 247/667/196 246/668/196
f 86/669/197 84/670/197 248/671/197 250/672/197
f 85/673/198 86/669/198 250/672/198 249/674/198
f 91/675/197 89/676/197 253/677/197 255/678/197
f 90/679/199 91/675/199 255/678/199 254/680/199
f 94/681/200 92/682/200 256/305/200 258/457/200
f 93/683/201 94/684/201 258/685/201 257/686/201
f 95/687/202 96/688/202 260/689/202 259/690/202
f 99/691/200 97/692/200 261/302/200 263/357/200
f 98/693/201 99/694/201 263/695/201 262/696/201
f 102/697/203 100/698/203 264/699/203 266/700/203
f 101/701/204 102/697/204 266/700/204 265/702/204
f 105/703/205 103/704/205 267/705/205 269/706/205
f 108/707/206 106/708/206 270/709/206 272/710/206
f 107/711/204 108/707/204 272/710/204 271/712/204
f 111/713/207 109/714/207 273/715/207 275/716/207
f 110/717/208 111/718/208 275/719/208 274/720/208
f 114/721/209 112/722/209 276/723/209 278/724/209
f 113/725/210 114/721/210 278/724/210 277/726/210
f 117/727/207 115/728/207 279/729/207 281/730/207
f 116/731/208 117/732/208 281/733/208 280/734/208
f 120/735/211 118/736/211 282/737/211 284/738/211
f 119/739/212 120/735/212 284/738/212 283/740/212
f 123/741/213 121/742/213 285/743/213 287/744/213
f 122/745/214 123/746/214 287/747/214 286/748/214
f 126/749/211 124/750/211 288/751/211 290/752/211
f 125/753/212 126/749/212 290/752/212 289/754/212
f 129/755/215 127/756/215 291/757/215 293/758/215
f 128/759/216 129/760/216 293/761/216 292/762/216
f 132/763/217 130/764/217 294/765/217 296/766/217
f 131/767/218 132/763/218 296/766/218 295/768/218
f 135/769/215 133/770/215 297/771/215 299/772/215
f 134/773/216 135/774/216 299/775/216 298/776/216
f 138/777/219 136/778/219 300/779/219 302/780/219
f 137/781/220 138/777/220 302/780/220 301/782/220
f 141/783/221 139/784/221 303/785/221 305/786/221
f 140/787/222 141/788/222 305/269/222 304/290/222
f 144/789/219 142/790/219 306/791/219 308/792/219
f 143/793/220 144/789/220 308/792/220 307/794/220
f 147/795/223 145/796/223 309/797/223 311/798/223
f 146/799/224 147/800/224 311/347/224 310/287/224
f 150/801/225 148/802/225 312/803/225 314/804/225
f 149/805/226 150/801/226 314/804/226 313/806/226
f 153/807/223 151/808/223 315/809/223 317/810/223
f 152/811/224 153/812/224 317/345/224 316/284/224
f 148/813/227 152/811/227 316/284/227 312/343/227
f 151/808/228 149/814/228 313/815/228 315/809/228
f 15/816/229 19/817/229 183/818/229 179/819/229
f 18/820/230 16/531/230 180/534/230 182/821/230
f 142/822/231 146/799/231 310/287/231 306/346/231
f 145/796/232 143/823/232 307/824/232 309/797/232
f 21/825/233 25/826/233 189/827/233 185/828/233
f 24/829/234 22/543/234 186/546/234 188/830/234
f 136/831/235 140/787/235 304/290/235 300/348/235
f 139/784/232 137/832/232 301/833/232 303/785/232
f 27/834/233 31/835/233 195/836/233 191/837/233
f 30/838/234 28/557/234 192/560/234 194/839/234
f 130/840/236 134/773/236 298/776/236 294/841/236
f 133/842/237 131/843/237 295/844/237 297/845/237
f 124/846/238 128/759/238 292/762/238 288/847/238
f 127/848/239 125/849/239 289/850/239 291/851/239
f 118/852/238 122/745/238 286/748/238 282/853/238
f 121/854/239 119/855/239 283/856/239 285/857/239
f 112/858/240 116/731/240 280/734/240 276/859/240
f 115/728/241 113/860/241 277/861/241 279/729/241
f 106/862/242 110/717/242 274/720/242 270/863/242
f 109/714/243 107/864/243 271/865/243 273/715/243
f 100/866/244 104/867/244 268/868/244 264/869/244
f 103/870/243 101/871/243 265/872/243 267/873/243
f 97/874/245 95/875/245 259/876/245 261/877/245
f 89/878/246 93/683/246 257/686/246 253/879/246
f 92/880/247 90/881/247 254/882/247 256/883/247
f 84/884/246 88/885/246 252/886/246 248/887/246
f 87/888/248 85/889/248 249/392/248 251/391/248
f 80/890/249 82/665/249 246/668/249 244/891/249
f 74/892/250 78/893/250 242/894/250 238/895/250
f 77/654/251 75/896/251 239/897/251 241/655/251
f 69/898/252 73/899/252 237/900/252 233/901/252
f 72/902/251 70/903/251 234/904/251 236/905/251
f 63/906/253 67/637/253 231/640/253 227/907/253
f 66/61/254 64/60/254 228/908/254 230/909/254
f 57/910/255 61/627/255 225/630/255 221/911/255
f 60/64/256 58/63/256 222/912/256 224/913/256
f 51/914/255 55/615/255 219/618/255 215/915/255
f 54/65/256 52/67/256 216/916/256 218/917/256
f 45/20/257 49/175/257 213/918/257 209/919/257
f 48/602/258 46/920/258 210/921/258 212/603/258
f 39/121/259 43/79/259 207/922/259 203/923/259
f 42/588/260 40/924/260 204/925/260 206/589/260
f 33/124/259 37/82/259 201/926/259 197/927/259
f 36/574/260 34/928/260 198/929/260 200/575/260
f 56/616/261 6/509/261 170/512/261 220/617/261
f 73/930/262 54/931/262 218/932/262 237/933/262
f 88/934/263 72/935/263 236/936/263 252/937/263
f 81/938/264 98/939/264 262/940/264 245/941/264
f 96/942/265 8/513/265 172/516/265 260/943/265
f 104/944/266 154/945/266 318/946/266 268/947/266
f 10/948/267 105/949/267 269/950/267 174/951/267
f 154/945/268 87/952/268 251/953/268 318/946/268
f 64/954/269 65/631/269 229/634/269 228/955/269
f 7/514/270 80/956/270 244/957/270 171/515/270
f 158/958/271 159/959/271 323/960/271 322/961/271
f 161/962/272 160/963/272 324/964/272 325/965/272
f 162/966/273 158/967/273 322/968/273 326/969/273
f 159/959/274 161/970/274 325/971/274 323/960/274
f 160/972/275 162/966/275 326/969/275 324/973/275
f 163/974/276 2/975/276 166/976/276 327/977/276
f 4/978/277 164/979/277 328/980/277 168/981/277
f 164/982/278 163/974/278 327/977/278 328/983/278
l 80 156
l 244 320
